<?xml version="1.0" encoding="UTF-8" standalone="no"?>
<svg
   xmlns:dc="http://purl.org/dc/elements/1.1/"
   xmlns:cc="http://creativecommons.org/ns#"
   xmlns:rdf="http://www.w3.org/1999/02/22-rdf-syntax-ns#"
   xmlns:svg="http://www.w3.org/2000/svg"
   xmlns="http://www.w3.org/2000/svg"
   xmlns:sodipodi="http://sodipodi.sourceforge.net/DTD/sodipodi-0.dtd"
   xmlns:inkscape="http://www.inkscape.org/namespaces/inkscape"
   width="861pt"
   height="1162pt"
   viewBox="0 0 861 1162"
   version="1.1"
   id="svg2"
   inkscape:version="0.47pre4 r22446"
   sodipodi:docname="-akela.svg">
  <metadata
     id="metadata142">
    <rdf:RDF>
      <cc:Work
         rdf:about="">
        <dc:format>image/svg+xml</dc:format>
        <dc:type
           rdf:resource="http://purl.org/dc/dcmitype/StillImage" />
        <dc:title></dc:title>
      </cc:Work>
    </rdf:RDF>
  </metadata>
  <defs
     id="defs140">
    <inkscape:perspective
       sodipodi:type="inkscape:persp3d"
       inkscape:vp_x="0 : 726.25 : 1"
       inkscape:vp_y="0 : 1000 : 0"
       inkscape:vp_z="1076.25 : 726.25 : 1"
       inkscape:persp3d-origin="538.125 : 484.16667 : 1"
       id="perspective144" />
  </defs>
  <sodipodi:namedview
     pagecolor="#ffffff"
     bordercolor="#666666"
     borderopacity="1"
     objecttolerance="10"
     gridtolerance="10"
     guidetolerance="10"
     inkscape:pageopacity="0"
     inkscape:pageshadow="2"
     inkscape:window-width="1280"
     inkscape:window-height="950"
     id="namedview138"
     showgrid="false"
     inkscape:zoom="0.64991394"
     inkscape:cx="335.50509"
     inkscape:cy="949.09351"
     inkscape:window-x="0"
     inkscape:window-y="25"
     inkscape:window-maximized="1"
     inkscape:current-layer="svg2" />
  <path
     fill="#030508"
     d=" M 666.10 24.09 C 670.09 22.68 673.80 19.92 678.24 20.46 C 683.05 26.36 683.14 34.13 683.91 41.34 C 686.44 54.41 686.47 67.79 686.24 81.05 C 686.12 86.72 684.97 92.30 684.66 97.95 C 683.70 108.28 681.12 118.39 677.88 128.21 C 676.02 132.85 675.00 138.48 670.38 141.27 C 662.71 146.36 654.67 150.85 647.11 156.10 C 653.82 164.64 659.03 174.21 664.67 183.47 C 668.98 190.65 672.32 198.35 676.52 205.60 C 677.97 208.46 679.97 211.09 680.74 214.26 C 678.93 214.69 677.12 215.09 675.32 215.48 C 686.19 237.51 698.78 258.62 711.71 279.48 C 721.07 296.73 729.86 314.44 735.68 333.24 C 738.26 340.68 739.85 348.40 742.10 355.93 C 746.15 370.12 748.60 384.74 749.78 399.43 C 750.19 401.53 750.15 403.92 751.21 405.80 C 758.10 411.21 765.94 415.35 772.49 421.24 C 774.34 423.88 777.56 421.25 779.99 422.60 C 782.83 424.05 783.44 427.51 784.91 430.07 C 788.56 439.25 789.45 449.23 790.27 458.99 C 790.43 470.69 791.38 482.36 791.86 494.06 C 793.44 507.00 792.95 520.04 794.05 533.01 C 794.44 557.01 794.62 581.03 795.80 605.00 C 796.58 607.79 798.60 610.12 798.96 613.07 C 800.42 618.72 798.73 624.45 798.11 630.09 C 796.13 636.44 793.43 642.50 790.68 648.54 C 789.49 654.23 790.13 660.15 788.91 665.86 C 786.56 685.17 783.58 704.44 782.66 723.88 C 776.44 730.33 773.82 739.22 770.25 747.25 C 767.09 752.99 768.51 759.77 768.11 766.02 C 767.31 778.65 767.74 791.38 765.79 803.92 C 763.89 815.65 762.81 827.55 759.68 839.06 C 757.70 848.72 753.42 857.69 750.48 867.05 C 754.58 879.05 751.92 891.90 749.33 903.93 C 746.47 915.93 744.84 928.19 741.63 940.11 C 739.42 948.81 737.94 957.68 735.55 966.34 C 743.79 965.35 751.77 961.61 760.17 962.56 C 763.05 964.53 765.45 967.11 768.11 969.38 C 772.64 966.62 777.76 964.84 782.95 963.87 C 790.43 963.63 793.33 971.80 799.06 975.07 C 805.27 973.26 811.52 971.54 817.78 969.87 C 822.95 968.35 828.29 971.48 831.27 975.59 C 836.31 982.42 841.21 989.44 844.76 997.18 C 847.57 1003.65 845.32 1012.34 838.80 1015.64 C 833.32 1018.29 827.09 1018.72 821.11 1018.23 C 819.28 1018.03 817.41 1017.95 815.98 1019.28 C 812.30 1021.15 808.25 1022.86 804.03 1022.17 C 797.91 1021.42 791.92 1019.58 785.68 1020.22 C 785.53 1019.99 785.22 1019.53 785.06 1019.30 C 784.61 1019.90 783.69 1021.08 783.23 1021.68 C 790.52 1029.82 795.37 1039.74 800.40 1049.36 C 801.89 1049.69 803.96 1049.62 804.69 1051.28 C 806.64 1055.04 807.54 1059.24 809.47 1063.02 C 809.13 1064.79 808.72 1066.57 808.28 1068.34 C 806.16 1069.08 803.49 1070.30 801.56 1068.46 C 800.93 1067.36 800.50 1066.19 800.03 1065.06 C 798.80 1065.25 797.57 1065.44 796.35 1065.63 L 796.63 1066.35 C 792.39 1066.23 788.54 1068.03 784.62 1069.38 C 784.62 1070.12 784.62 1071.61 784.61 1072.35 C 781.93 1074.18 778.60 1074.93 775.57 1073.49 C 775.44 1072.76 775.16 1071.32 775.03 1070.59 C 770.63 1072.86 765.84 1073.94 760.99 1074.71 C 759.22 1074.58 758.98 1076.63 758.16 1077.72 C 755.07 1078.33 749.96 1081.08 748.71 1076.43 C 745.85 1077.07 743.00 1077.71 740.19 1078.50 C 743.68 1080.99 746.78 1084.16 748.63 1088.09 C 749.16 1089.57 748.89 1091.62 747.54 1092.63 C 745.19 1094.96 741.13 1093.48 739.03 1096.27 C 731.23 1096.72 723.44 1098.01 715.61 1097.30 C 715.30 1097.83 714.69 1098.87 714.38 1099.39 C 711.57 1099.62 708.80 1100.11 705.99 1100.24 C 702.39 1099.00 698.30 1096.01 694.50 1098.26 C 683.36 1103.96 670.29 1104.72 658.14 1102.46 C 655.32 1101.96 652.65 1100.94 650.08 1099.73 C 646.47 1102.06 642.06 1101.25 638.01 1101.74 C 631.66 1102.42 625.31 1101.71 618.95 1101.83 C 611.79 1101.59 604.59 1102.07 597.45 1101.41 C 592.41 1096.39 586.89 1091.90 581.80 1086.95 C 580.37 1074.36 580.78 1061.14 586.36 1049.53 C 588.69 1043.43 593.68 1039.00 598.58 1034.94 C 598.36 1034.13 597.92 1032.52 597.70 1031.72 C 591.78 1030.38 585.71 1033.40 579.91 1031.57 C 576.44 1028.23 577.51 1022.80 577.47 1018.47 C 564.91 1015.65 551.88 1014.70 539.07 1016.14 C 541.12 1020.73 543.42 1025.23 544.86 1030.07 C 547.30 1038.76 551.10 1047.06 552.87 1055.94 C 553.24 1056.72 553.61 1057.52 553.97 1058.33 C 551.78 1059.31 549.46 1060.06 547.48 1061.46 C 534.63 1070.62 518.22 1075.62 502.50 1072.38 C 501.49 1074.15 500.46 1075.92 499.50 1077.73 C 489.01 1078.80 479.73 1085.18 468.99 1084.65 C 463.72 1085.26 458.71 1083.24 454.25 1080.65 C 444.96 1085.49 435.41 1090.20 424.98 1092.00 C 420.40 1092.59 415.58 1094.13 411.09 1092.33 C 397.24 1087.25 383.96 1080.73 371.02 1073.69 C 368.86 1072.79 369.34 1069.96 368.54 1068.16 C 349.80 1062.79 332.51 1052.04 319.88 1037.14 C 317.35 1034.64 315.30 1031.67 312.57 1029.38 C 310.02 1027.24 306.57 1026.87 303.74 1025.24 C 300.91 1023.89 299.03 1021.24 296.26 1019.80 C 293.66 1018.43 291.70 1015.95 288.76 1015.28 C 281.82 1019.71 274.43 1023.37 267.42 1027.68 C 262.79 1030.50 257.59 1032.18 252.81 1034.72 C 245.31 1038.69 236.80 1039.88 228.87 1042.70 C 221.43 1045.25 213.74 1046.98 206.07 1048.69 C 199.16 1050.81 191.87 1050.44 184.76 1051.24 C 170.15 1051.80 155.54 1050.77 140.93 1050.38 C 128.99 1048.86 116.98 1047.94 105.06 1046.25 C 97.17 1043.88 89.15 1041.98 81.24 1039.64 C 68.25 1034.48 54.89 1030.15 42.57 1023.46 C 37.12 1020.39 31.15 1017.89 26.84 1013.20 C 23.81 1009.89 20.35 1006.95 17.73 1003.28 C 16.52 999.14 15.68 994.82 16.78 990.56 C 20.08 990.79 23.28 991.63 26.48 992.43 C 36.48 984.62 46.98 977.39 57.95 971.01 C 66.04 966.67 74.56 963.15 82.47 958.48 C 91.60 953.42 101.86 950.94 111.19 946.37 C 110.23 946.07 108.32 945.48 107.37 945.18 C 107.83 944.66 108.30 944.15 108.76 943.65 C 113.63 944.47 118.54 945.19 123.29 946.58 C 124.26 945.53 125.23 944.50 126.19 943.46 C 123.53 942.50 120.84 941.63 118.28 940.46 C 119.84 939.85 121.40 939.27 122.96 938.68 C 130.92 941.02 138.70 943.90 146.50 946.71 C 146.93 946.08 147.36 945.46 147.79 944.86 C 145.15 943.53 142.48 942.26 139.75 941.12 C 139.71 940.74 139.61 939.98 139.57 939.60 C 151.61 941.97 162.43 948.18 173.20 953.78 C 173.87 953.69 175.19 953.50 175.85 953.40 C 173.15 952.03 170.17 951.16 167.84 949.17 C 178.10 949.61 187.33 955.03 195.94 960.16 C 197.48 960.99 199.32 960.58 201.00 960.68 C 210.97 960.36 220.91 959.40 230.86 958.96 C 234.14 959.08 235.95 956.04 238.08 954.07 C 243.48 948.79 248.09 942.75 252.31 936.51 C 249.48 917.13 245.05 897.91 237.63 879.73 C 238.15 878.81 238.67 877.90 239.22 877.01 C 240.87 870.27 243.22 863.74 245.10 857.07 C 247.27 848.36 250.80 840.07 253.79 831.63 C 257.06 822.31 261.97 813.70 265.49 804.49 C 267.50 799.57 269.76 794.76 272.09 790.00 C 273.81 786.18 275.14 782.05 277.97 778.86 C 281.72 775.21 285.26 771.26 289.80 768.57 C 299.84 760.02 309.89 751.43 320.50 743.57 C 324.63 740.23 329.93 738.52 333.58 734.56 C 348.49 716.82 363.37 699.01 379.66 682.50 C 384.97 676.50 391.38 671.60 396.70 665.60 C 402.01 659.96 407.44 654.41 412.45 648.49 C 415.23 639.35 416.65 629.81 420.12 620.88 C 423.95 609.91 429.48 599.55 436.15 590.04 C 438.48 586.71 440.65 583.28 442.76 579.81 C 441.80 577.06 439.37 574.45 440.52 571.38 C 443.57 560.07 447.41 548.90 452.77 538.45 C 454.90 533.73 458.03 529.31 458.72 524.06 C 459.97 514.74 460.89 505.38 462.53 496.12 C 464.21 476.10 468.25 456.22 467.56 436.04 C 467.73 428.62 466.02 421.36 464.99 414.06 C 461.92 401.00 454.55 388.36 442.78 381.40 C 435.59 377.35 427.58 373.57 419.10 374.58 C 408.38 375.98 398.71 381.60 390.44 388.32 C 387.81 390.29 386.19 394.46 382.32 393.82 C 382.30 393.08 382.28 391.61 382.26 390.87 C 379.70 387.42 377.95 383.47 375.82 379.77 C 371.96 382.86 369.38 387.10 367.19 391.45 C 366.14 391.56 365.10 391.66 364.07 391.76 C 361.92 386.98 359.79 382.18 357.95 377.28 C 355.73 368.82 354.33 360.10 354.07 351.35 C 345.24 349.92 335.87 352.18 327.49 348.38 C 326.71 344.66 326.11 340.91 325.45 337.17 C 320.60 334.03 315.51 331.27 310.65 328.15 C 308.09 326.36 307.65 322.94 307.75 320.05 C 308.03 314.88 308.87 309.72 308.66 304.53 C 305.77 299.21 302.67 294.00 299.60 288.78 C 298.18 286.48 297.45 283.45 294.74 282.29 C 292.51 279.13 290.88 275.63 289.64 271.98 C 289.68 269.45 289.93 266.72 291.93 264.91 C 298.16 257.77 309.22 258.43 315.62 251.64 C 318.87 246.94 321.04 241.35 325.51 237.57 C 334.44 231.04 343.60 224.82 353.03 219.03 C 355.86 217.68 356.81 214.49 357.78 211.76 C 359.99 202.69 364.42 194.15 370.46 187.05 C 370.78 181.64 370.44 176.22 369.59 170.88 C 372.83 167.74 375.60 164.19 378.26 160.57 C 376.83 161.14 375.41 161.71 374.00 162.31 C 373.21 162.30 371.63 162.28 370.84 162.26 C 370.15 161.30 369.45 160.36 368.70 159.46 C 361.61 145.25 355.56 130.46 351.89 114.97 C 351.51 110.43 351.39 105.83 352.58 101.39 C 355.90 88.34 358.69 75.16 361.00 61.91 C 361.17 59.91 363.45 60.39 364.87 60.09 C 366.80 63.23 370.42 64.33 373.70 65.50 C 372.04 57.67 366.19 50.37 368.61 42.00 C 371.33 40.57 373.87 38.61 377.05 38.36 C 379.55 41.38 382.50 43.98 385.05 46.95 C 400.51 59.48 417.03 70.85 431.13 85.00 C 440.74 94.94 447.02 107.38 454.94 118.59 C 461.14 115.94 467.59 113.86 474.10 112.14 C 480.55 112.52 486.81 114.23 493.06 115.73 C 499.22 115.37 504.94 112.61 511.02 111.67 C 528.93 112.82 546.71 115.52 564.52 117.69 C 569.27 105.30 575.94 93.76 581.75 81.85 C 588.47 69.53 596.61 57.68 607.55 48.73 C 614.00 46.03 620.71 43.91 626.89 40.57 C 640.13 35.50 653.01 29.53 666.10 24.09 Z"
     id="path6" />
  <path
     fill="#727a6d"
     d=" M 633.58 43.59 C 647.85 37.93 662.09 32.18 676.09 25.87 C 678.57 34.06 681.18 42.34 681.50 50.96 C 682.39 62.98 681.72 75.05 680.68 87.04 C 679.96 100.63 677.67 114.15 673.50 127.12 C 672.00 131.61 670.29 136.42 666.43 139.45 C 654.19 147.96 640.18 153.93 629.19 164.23 C 627.03 161.77 625.28 157.01 621.19 158.54 C 623.37 162.67 626.30 166.32 628.78 170.26 C 639.50 187.75 646.81 207.25 650.91 227.33 C 647.17 226.42 643.59 224.99 639.83 224.23 C 638.31 226.27 639.72 228.76 640.10 230.95 C 644.22 244.98 646.70 259.45 648.03 274.01 C 648.73 288.88 648.49 304.00 644.36 318.42 C 639.69 315.47 636.87 310.42 632.13 307.55 C 631.50 307.89 630.25 308.55 629.62 308.88 C 630.04 319.99 628.46 331.02 626.63 341.95 C 625.56 348.09 623.24 353.91 621.57 359.89 C 619.15 368.29 615.24 376.16 611.12 383.83 C 607.52 378.60 603.82 373.40 601.27 367.55 C 600.93 365.71 599.00 366.50 597.71 366.40 C 593.04 376.17 587.55 385.53 581.62 394.58 C 578.41 399.93 574.17 404.55 569.90 409.05 C 568.73 410.87 566.98 409.06 565.84 408.22 C 560.31 403.59 554.54 399.22 548.29 395.60 C 543.05 392.56 538.16 388.90 532.75 386.15 C 523.05 381.29 513.83 375.51 503.94 371.02 C 497.40 368.10 490.71 365.31 484.28 362.29 C 488.75 360.41 492.03 356.71 495.93 353.95 C 501.35 350.05 505.92 345.11 511.46 341.35 C 513.86 339.75 515.66 337.46 516.87 334.85 C 517.45 334.41 518.60 333.51 519.18 333.07 C 519.73 329.26 520.47 325.46 521.84 321.85 C 522.91 318.58 523.81 314.59 521.38 311.68 C 521.98 311.78 523.19 311.97 523.79 312.07 C 525.30 313.76 526.84 315.44 528.46 317.03 C 527.29 323.95 525.19 330.65 522.02 336.91 C 528.95 336.81 534.87 332.82 540.95 330.01 C 546.01 327.78 550.96 325.31 555.94 322.89 C 560.63 320.43 564.82 317.09 569.70 314.97 C 568.31 308.99 563.24 305.03 559.43 300.57 C 556.38 296.92 552.09 294.56 548.93 291.09 C 546.42 281.60 545.61 271.64 546.69 261.87 C 546.90 259.82 548.29 258.20 549.33 256.51 C 555.08 247.94 560.19 238.94 564.72 229.67 C 568.32 222.48 572.05 215.33 574.86 207.79 C 575.48 205.78 576.82 202.98 574.44 201.61 C 570.43 200.16 566.26 199.01 562.10 198.14 C 560.63 199.20 559.39 200.54 558.09 201.79 C 553.60 199.97 548.79 199.33 544.01 198.90 C 541.75 198.78 539.72 197.75 538.07 196.26 L 537.87 195.53 C 539.26 195.64 541.37 195.25 540.53 193.36 C 537.14 184.88 533.55 176.30 527.96 168.99 C 525.46 165.40 522.13 162.37 520.38 158.29 C 507.88 157.90 495.33 158.38 482.86 157.24 C 481.21 157.43 477.19 156.16 477.64 158.98 C 479.09 163.58 480.84 168.13 481.21 172.99 C 481.67 174.55 479.94 175.49 479.31 176.71 C 479.31 177.16 479.30 178.05 479.30 178.50 C 481.24 179.09 485.40 177.80 484.93 180.96 C 484.71 184.14 480.37 184.44 479.24 187.20 C 477.72 189.62 478.66 192.50 478.93 195.11 C 475.38 197.80 471.94 200.75 467.94 202.72 C 461.79 202.83 455.80 200.57 450.62 197.38 C 447.70 195.67 445.41 192.52 445.53 189.03 C 445.19 183.24 447.52 177.85 448.87 172.34 C 443.80 175.71 442.35 181.99 440.50 187.39 C 439.97 189.59 438.78 191.96 439.63 194.22 C 443.98 197.24 448.41 200.18 452.35 203.78 C 448.53 204.63 444.63 205.03 440.85 206.00 C 439.57 205.81 438.26 205.68 437.00 206.05 C 414.99 212.23 394.18 222.46 375.58 235.70 C 374.78 236.41 374.25 237.35 373.65 238.22 C 375.72 238.34 377.82 238.46 379.91 238.57 C 377.91 245.81 372.91 251.49 369.00 257.71 C 369.67 257.62 371.01 257.45 371.68 257.36 C 371.60 258.43 371.54 259.51 371.47 260.60 C 363.49 257.98 355.41 255.36 347.08 254.14 C 340.88 256.73 335.30 260.74 329.10 263.41 C 323.81 262.86 317.59 262.99 313.97 258.38 C 321.10 254.84 323.97 247.18 327.97 240.88 C 338.36 231.95 350.09 224.67 362.06 218.04 C 371.84 212.78 381.87 207.88 392.48 204.52 C 402.58 200.89 413.37 200.01 423.92 198.47 C 428.69 197.73 432.63 194.69 436.60 192.17 C 434.70 185.90 437.16 179.49 440.25 174.06 C 438.90 174.14 437.55 174.22 436.21 174.30 C 432.03 179.07 429.24 185.45 431.07 191.83 C 429.40 188.69 427.78 185.31 424.84 183.15 C 421.31 180.55 417.26 178.76 413.23 177.11 C 411.42 176.21 409.59 175.20 408.25 173.67 L 407.62 172.89 C 410.23 173.75 412.99 173.78 415.68 173.29 C 414.10 172.20 412.49 171.16 410.87 170.14 C 415.16 165.05 419.39 159.83 424.64 155.68 C 427.35 153.56 429.99 151.33 432.30 148.76 C 431.46 148.98 429.77 149.42 428.93 149.64 C 428.42 149.45 427.40 149.06 426.89 148.87 C 418.95 153.69 411.75 159.67 404.96 165.98 C 402.96 165.54 400.97 165.09 398.94 164.83 C 399.07 167.84 402.47 168.79 404.30 170.65 C 401.56 169.98 398.80 169.50 396.03 169.04 C 396.12 169.45 396.30 170.29 396.40 170.70 C 392.87 169.24 389.04 170.51 385.66 171.74 C 381.67 173.24 377.91 176.42 377.41 180.91 C 377.76 185.73 377.44 190.75 375.06 195.08 C 373.44 195.90 371.65 196.33 369.94 196.91 C 369.79 198.44 369.65 199.98 369.45 201.51 C 367.09 203.97 365.83 207.24 367.22 210.53 C 365.61 211.59 363.97 212.62 362.33 213.64 C 363.60 203.87 368.21 194.80 374.83 187.59 C 374.98 182.14 375.61 176.61 374.17 171.27 C 377.28 167.44 380.84 164.02 384.61 160.86 C 383.78 159.47 382.97 158.08 382.16 156.69 C 379.11 157.13 376.08 157.65 373.07 158.26 C 368.42 147.10 362.50 136.42 359.17 124.75 C 357.54 119.31 355.31 113.79 355.87 108.00 C 357.00 93.46 361.22 79.44 364.08 65.20 C 366.21 66.48 368.32 67.79 370.31 69.27 C 369.74 69.10 368.60 68.77 368.03 68.60 C 365.21 80.62 363.42 92.84 361.12 104.96 C 360.62 114.15 363.99 123.05 367.33 131.48 C 369.79 138.83 371.74 146.48 375.72 153.21 C 377.85 157.22 383.02 155.43 386.61 155.36 C 386.91 156.02 387.52 157.35 387.82 158.01 C 392.51 156.97 395.44 152.87 399.21 150.25 C 408.58 143.37 416.80 135.10 426.09 128.11 C 427.22 127.03 429.07 125.86 428.67 124.03 C 427.60 119.25 425.34 114.81 424.21 110.04 C 422.08 102.87 420.91 94.99 415.88 89.14 C 408.13 78.97 398.19 70.80 389.89 61.12 C 387.44 58.75 385.22 55.03 381.32 55.48 C 378.73 53.83 375.96 52.47 373.17 51.21 C 373.31 51.95 373.59 53.42 373.73 54.16 C 372.59 51.20 371.95 48.09 371.44 44.98 C 372.61 43.94 373.76 42.87 375.03 41.95 C 378.75 44.85 381.52 48.84 385.28 51.77 C 395.02 61.48 407.05 68.46 416.84 78.12 C 422.76 83.83 428.98 89.32 433.83 96.01 C 438.60 102.02 443.40 108.05 447.26 114.70 C 448.75 117.23 449.59 120.12 451.32 122.51 C 452.56 123.21 454.01 122.65 455.26 122.27 C 461.41 119.88 467.46 117.00 474.00 115.84 C 479.38 115.58 484.56 117.59 489.21 120.13 C 476.20 132.55 462.55 144.33 450.24 157.48 C 452.77 157.68 454.71 156.02 456.45 154.44 C 467.98 143.21 480.87 133.51 493.26 123.27 C 497.17 119.70 502.69 119.54 507.41 117.66 C 509.85 116.79 512.25 115.46 514.94 115.56 C 524.40 115.61 533.63 117.98 543.02 118.86 C 550.06 119.54 557.03 120.86 564.05 121.70 C 565.16 121.73 567.04 122.12 567.42 120.64 C 571.04 109.86 576.93 100.05 582.18 90.02 C 587.08 81.79 591.85 73.39 598.18 66.15 C 602.48 61.17 606.46 55.46 612.56 52.56 C 619.41 49.21 626.41 46.20 633.58 43.59 Z"
     id="path8" />
  <path
     fill="#040507"
     d=" M 618.16 64.82 C 633.62 58.39 647.56 48.89 662.56 41.53 C 662.65 41.98 662.82 42.90 662.91 43.35 C 658.04 48.71 652.51 53.64 645.98 56.87 C 637.51 61.41 628.04 64.30 620.49 70.42 C 614.38 77.17 609.72 85.08 604.91 92.76 C 601.08 99.54 596.45 105.86 593.11 112.90 C 591.88 118.27 592.15 123.87 592.35 129.34 C 599.28 130.29 606.60 131.18 613.44 129.41 C 619.27 125.38 623.81 119.76 628.55 114.56 C 629.10 108.09 628.53 101.55 628.30 95.07 C 635.32 88.82 641.24 81.46 648.39 75.34 C 652.73 71.78 655.10 66.64 656.89 61.46 C 657.50 61.36 658.72 61.15 659.33 61.04 C 660.77 65.61 659.55 70.34 659.28 74.98 C 659.09 79.81 655.64 83.58 653.90 87.90 C 647.67 102.31 640.86 116.47 635.49 131.24 C 634.90 133.78 632.75 135.38 630.58 136.55 C 624.31 139.92 618.33 143.83 612.71 148.19 C 612.65 148.84 612.54 150.14 612.48 150.79 C 611.98 154.05 612.13 157.35 612.14 160.64 C 608.66 160.02 606.43 157.16 604.36 154.58 C 598.78 146.96 591.82 140.53 585.76 133.32 C 583.57 130.65 581.21 128.14 578.74 125.74 C 583.10 117.33 589.02 109.84 593.59 101.55 C 596.25 96.64 599.44 92.05 602.15 87.18 C 607.01 79.39 613.24 72.56 618.16 64.82 Z"
     id="path10" />
  <path
     fill="#c6d3cc"
     d=" M 662.91 43.35 L 663.79 42.34 C 664.93 42.83 666.09 43.32 667.25 43.81 C 669.21 53.78 668.99 63.97 668.73 74.07 C 668.34 87.94 666.02 101.75 662.00 115.02 C 660.58 120.67 658.51 126.21 655.15 131.00 C 650.34 138.49 642.67 143.32 635.83 148.75 C 632.09 151.44 628.69 154.69 624.50 156.68 C 620.65 159.03 615.75 156.54 612.79 154.02 C 612.71 153.21 612.56 151.60 612.48 150.79 C 612.54 150.14 612.65 148.84 612.71 148.19 C 618.33 143.83 624.31 139.92 630.58 136.55 C 632.75 135.38 634.90 133.78 635.49 131.24 C 640.86 116.47 647.67 102.31 653.90 87.90 C 655.64 83.58 659.09 79.81 659.28 74.98 C 659.55 70.34 660.77 65.61 659.33 61.04 C 658.72 61.15 657.50 61.36 656.89 61.46 C 655.10 66.64 652.73 71.78 648.39 75.34 C 641.24 81.46 635.32 88.82 628.30 95.07 C 628.53 101.55 629.10 108.09 628.55 114.56 C 623.81 119.76 619.27 125.38 613.44 129.41 C 606.60 131.18 599.28 130.29 592.35 129.34 C 592.15 123.87 591.88 118.27 593.11 112.90 C 596.45 105.86 601.08 99.54 604.91 92.76 C 609.72 85.08 614.38 77.17 620.49 70.42 C 628.04 64.30 637.51 61.41 645.98 56.87 C 652.51 53.64 658.04 48.71 662.91 43.35 Z"
     id="path12" />
  <path
     fill="#c6d3cc"
     d=" M 373.17 51.21 C 375.96 52.47 378.73 53.83 381.32 55.48 C 385.53 61.34 391.06 66.07 395.50 71.74 C 392.55 70.07 389.95 67.74 386.75 66.52 C 385.66 66.59 384.67 67.14 383.66 67.46 C 391.30 72.23 399.55 76.46 405.52 83.39 C 409.38 87.89 414.98 91.50 416.24 97.67 C 418.35 106.38 419.98 115.24 421.08 124.14 C 417.48 129.28 412.14 132.91 407.74 137.34 C 404.69 136.88 401.63 136.46 398.56 136.11 C 399.09 131.85 399.56 127.42 401.89 123.69 C 400.25 120.32 399.82 116.62 401.73 113.25 C 403.22 114.08 404.69 114.92 406.18 115.77 C 407.02 114.88 407.86 114.00 408.70 113.12 C 403.90 104.60 396.88 97.72 390.95 90.05 C 390.08 89.02 389.01 88.17 387.98 87.33 C 388.94 91.37 391.83 94.45 393.74 98.01 C 394.96 104.35 393.91 110.83 393.41 117.20 C 392.20 117.02 390.99 116.84 389.80 116.66 C 389.88 111.38 390.01 106.04 388.85 100.85 C 389.00 100.02 389.16 99.19 389.33 98.36 C 385.10 93.87 380.68 89.52 377.06 84.50 C 376.49 84.53 375.34 84.60 374.76 84.64 C 376.60 92.65 387.02 96.07 386.52 104.88 C 386.82 109.25 386.71 113.64 386.64 118.02 C 387.21 126.93 390.75 135.31 392.39 144.01 C 390.84 147.97 388.37 151.49 386.61 155.36 C 383.02 155.43 377.85 157.22 375.72 153.21 C 371.74 146.48 369.79 138.83 367.33 131.48 C 363.99 123.05 360.62 114.15 361.12 104.96 C 363.42 92.84 365.21 80.62 368.03 68.60 C 368.60 68.77 369.74 69.10 370.31 69.27 C 374.75 71.16 378.69 65.36 377.54 61.39 C 376.39 58.91 374.52 56.81 373.73 54.16 C 373.59 53.42 373.31 51.95 373.17 51.21 Z"
     id="path14" />
  <path
     fill="#030507"
     d=" M 381.32 55.48 C 385.22 55.03 387.44 58.75 389.89 61.12 C 398.19 70.80 408.13 78.97 415.88 89.14 C 420.91 94.99 422.08 102.87 424.21 110.04 C 425.34 114.81 427.60 119.25 428.67 124.03 C 429.07 125.86 427.22 127.03 426.09 128.11 C 416.80 135.10 408.58 143.37 399.21 150.25 C 395.44 152.87 392.51 156.97 387.82 158.01 C 387.52 157.35 386.91 156.02 386.61 155.36 C 388.37 151.49 390.84 147.97 392.39 144.01 C 390.75 135.31 387.21 126.93 386.64 118.02 C 386.71 113.64 386.82 109.25 386.52 104.88 C 387.02 96.07 376.60 92.65 374.76 84.64 C 375.34 84.60 376.49 84.53 377.06 84.50 C 380.68 89.52 385.10 93.87 389.33 98.36 C 389.16 99.19 389.00 100.02 388.85 100.85 C 390.01 106.04 389.88 111.38 389.80 116.66 C 390.99 116.84 392.20 117.02 393.41 117.20 C 393.91 110.83 394.96 104.35 393.74 98.01 C 391.83 94.45 388.94 91.37 387.98 87.33 C 389.01 88.17 390.08 89.02 390.95 90.05 C 396.88 97.72 403.90 104.60 408.70 113.12 C 407.86 114.00 407.02 114.88 406.18 115.77 C 404.69 114.92 403.22 114.08 401.73 113.25 C 399.82 116.62 400.25 120.32 401.89 123.69 C 399.56 127.42 399.09 131.85 398.56 136.11 C 401.63 136.46 404.69 136.88 407.74 137.34 C 412.14 132.91 417.48 129.28 421.08 124.14 C 419.98 115.24 418.35 106.38 416.24 97.67 C 414.98 91.50 409.38 87.89 405.52 83.39 C 399.55 76.46 391.30 72.23 383.66 67.46 C 384.67 67.14 385.66 66.59 386.75 66.52 C 389.95 67.74 392.55 70.07 395.50 71.74 C 391.06 66.07 385.53 61.34 381.32 55.48 Z"
     id="path16" />
  <path
     fill="#0a0f12"
     d=" M 404.96 165.98 C 411.75 159.67 418.95 153.69 426.89 148.87 C 427.40 149.06 428.42 149.45 428.93 149.64 C 429.77 149.42 431.46 148.98 432.30 148.76 C 429.99 151.33 427.35 153.56 424.64 155.68 C 419.39 159.83 415.16 165.05 410.87 170.14 C 412.49 171.16 414.10 172.20 415.68 173.29 C 412.99 173.78 410.23 173.75 407.62 172.89 C 407.00 172.10 406.41 171.29 405.85 170.46 C 405.46 170.51 404.69 170.60 404.30 170.65 C 402.47 168.79 399.07 167.84 398.94 164.83 C 400.97 165.09 402.96 165.54 404.96 165.98 Z"
     id="path18" />
  <path
     fill="#727a6d"
     d=" M 631.23 167.62 C 634.96 163.86 639.54 161.15 643.98 158.34 C 649.77 169.96 658.74 179.57 664.78 191.04 C 668.13 197.25 671.04 203.70 673.68 210.25 C 672.14 210.86 669.99 210.98 669.42 212.85 C 671.65 218.90 674.13 224.91 677.72 230.31 C 682.98 238.83 687.40 247.82 692.48 256.44 C 701.88 271.68 710.28 287.51 718.82 303.25 C 723.88 313.80 728.99 324.39 732.34 335.63 C 739.20 356.61 744.74 378.50 744.09 400.72 C 741.43 398.86 739.03 396.36 735.70 395.81 C 736.20 397.07 736.45 398.58 737.55 399.52 C 748.61 408.66 760.08 417.33 771.34 426.23 C 771.68 430.02 775.40 428.23 777.91 428.22 C 779.91 429.66 780.66 432.15 781.50 434.35 C 784.01 441.11 784.04 448.40 784.87 455.47 C 787.72 481.62 788.24 507.93 790.30 534.14 C 790.52 547.77 791.43 561.39 791.31 575.02 C 791.89 586.35 791.09 597.68 791.76 609.01 C 792.81 610.18 794.49 611.19 794.42 612.99 C 795.40 623.95 791.00 634.35 787.38 644.45 C 786.87 644.72 785.84 645.28 785.33 645.55 C 783.51 665.06 781.22 684.53 779.08 704.01 C 778.23 711.40 778.55 719.17 775.38 726.07 C 772.90 731.56 770.87 737.26 768.08 742.61 C 768.46 739.37 769.06 736.17 769.54 732.96 C 767.80 733.30 766.44 734.29 766.18 736.10 C 764.46 741.55 763.96 747.31 764.39 753.00 C 765.05 760.69 763.40 768.31 763.74 776.00 C 763.34 789.43 761.65 802.79 759.81 816.10 C 757.47 829.26 755.22 842.56 750.33 855.07 C 748.81 860.26 745.18 865.15 746.31 870.81 C 748.47 883.24 746.21 895.84 743.57 908.00 C 738.58 929.82 731.88 951.27 728.59 973.45 C 728.04 978.27 727.24 983.12 727.63 987.99 C 728.76 994.87 731.25 1001.63 735.67 1007.11 C 733.49 1007.90 731.33 1008.74 729.19 1009.59 C 727.22 1006.08 725.09 1000.62 720.06 1001.64 C 713.73 1002.90 706.45 1003.89 702.01 1009.08 C 702.73 1009.30 704.19 1009.75 704.91 1009.97 C 709.94 1007.60 715.50 1006.50 721.06 1006.88 C 723.92 1015.30 728.00 1023.22 731.55 1031.36 C 734.81 1038.91 739.68 1045.63 743.21 1053.05 C 743.06 1059.08 745.70 1064.62 746.89 1070.43 C 743.39 1071.66 739.76 1072.46 736.07 1072.85 C 734.25 1068.34 732.41 1063.83 730.88 1059.22 C 729.70 1056.03 728.59 1052.44 725.65 1050.44 C 722.87 1049.87 720.02 1050.70 717.25 1050.92 C 711.66 1044.18 703.92 1039.94 696.85 1035.02 C 696.70 1030.30 693.60 1026.54 691.55 1022.52 C 689.63 1018.70 686.93 1015.31 685.45 1011.28 C 688.37 1012.02 689.71 1014.67 690.83 1017.18 C 691.35 1017.54 692.39 1018.27 692.92 1018.63 C 695.22 1018.03 698.15 1016.96 697.96 1014.04 C 697.39 1008.46 692.68 1004.64 689.22 1000.67 C 688.12 998.33 687.91 995.65 686.60 993.40 C 684.68 989.99 681.84 987.21 678.83 984.77 L 678.91 984.60 C 682.81 976.42 687.15 968.38 689.60 959.61 C 694.55 944.23 695.61 927.98 695.51 911.94 C 695.46 882.53 699.59 853.38 703.25 824.26 C 704.44 816.73 704.94 809.10 706.59 801.64 C 706.74 803.26 706.99 804.89 707.27 806.51 C 709.04 799.12 708.96 791.48 710.01 783.98 C 710.11 781.35 711.12 778.43 709.56 776.05 L 709.30 775.76 C 708.95 769.37 709.45 762.98 710.06 756.63 C 710.76 762.32 708.59 768.24 710.15 773.75 C 710.36 773.79 710.78 773.87 710.99 773.91 C 711.40 760.56 712.13 747.19 713.93 733.96 C 716.35 717.51 725.46 703.13 729.03 687.01 C 730.89 681.61 733.68 676.56 735.05 670.99 C 739.75 656.73 743.90 642.17 745.38 627.19 C 747.15 629.91 749.28 632.47 752.30 633.87 C 754.26 630.98 754.38 627.42 754.75 624.09 C 755.79 614.11 755.57 604.06 756.22 594.06 C 756.23 585.04 755.06 576.07 754.65 567.07 C 756.69 568.73 758.93 570.16 761.38 571.17 C 763.38 565.49 761.34 559.59 760.36 553.94 C 757.89 543.80 756.38 533.35 752.21 523.71 C 747.68 513.52 743.69 502.96 737.23 493.78 C 732.01 486.13 726.64 478.57 720.70 471.47 C 722.91 471.61 726.09 473.78 727.41 471.00 C 727.45 470.51 727.52 469.54 727.56 469.05 C 725.44 460.41 724.23 451.48 720.81 443.20 C 715.30 430.99 710.05 418.54 702.45 407.44 C 699.91 403.51 697.21 399.61 693.59 396.59 C 693.47 393.78 694.15 391.08 695.81 388.80 C 699.77 382.63 698.60 375.02 698.50 368.09 C 697.90 361.49 698.88 354.68 696.73 348.29 C 696.23 349.89 695.80 351.51 695.34 353.12 C 694.37 344.77 692.94 336.45 690.51 328.40 C 687.67 318.98 686.06 309.16 682.06 300.11 C 680.60 296.87 679.11 293.64 677.79 290.34 C 677.25 290.23 676.15 290.02 675.61 289.91 L 675.71 289.60 C 675.88 289.18 676.21 288.33 676.38 287.90 C 677.49 286.19 676.14 284.46 675.06 283.16 C 673.37 280.93 672.55 278.21 671.36 275.71 C 666.57 265.92 659.80 257.31 653.65 248.39 C 650.50 243.53 649.14 237.85 647.57 232.37 C 649.98 232.75 653.15 235.63 655.24 233.33 C 657.58 229.90 655.42 225.78 654.83 222.15 C 652.56 211.05 648.47 200.46 644.04 190.07 C 640.99 181.95 636.56 174.44 631.23 167.62 Z"
     id="path20" />
  <path
     fill="#c6d3cc"
     d=" M 486.59 165.23 C 497.13 164.34 507.77 164.09 518.23 162.33 C 527.30 171.61 533.92 183.22 537.87 195.53 L 538.07 196.26 C 537.99 196.79 537.84 197.85 537.77 198.38 C 534.33 195.13 530.29 192.53 527.19 188.92 C 524.29 185.44 520.52 182.79 517.82 179.13 C 516.08 176.61 512.73 176.78 510.03 176.63 C 502.16 176.60 494.26 177.26 486.42 176.19 C 488.54 172.84 487.50 168.79 486.59 165.23 Z"
     id="path22" />
  <path
     fill="#3f4447"
     d=" M 410.29 165.25 C 410.79 165.76 410.79 165.76 410.29 165.25 Z"
     id="path24" />
  <path
     fill="#2b2d35"
     d=" M 408.25 167.01 C 409.53 167.65 409.51 168.33 408.18 169.05 C 406.90 168.41 406.92 167.73 408.25 167.01 Z"
     id="path26" />
  <path
     fill="#020406"
     d=" M 396.03 169.04 C 398.80 169.50 401.56 169.98 404.30 170.65 C 404.72 170.85 405.57 171.27 405.99 171.48 C 404.18 172.79 402.08 173.78 400.65 175.55 C 398.49 178.05 396.96 181.60 393.22 182.00 C 393.98 178.31 396.52 175.51 398.94 172.80 C 398.08 172.11 397.23 171.41 396.40 170.70 C 396.30 170.29 396.12 169.45 396.03 169.04 Z"
     id="path28" />
  <path
     fill="#c7d2cc"
     d=" M 385.66 171.74 C 389.04 170.51 392.87 169.24 396.40 170.70 C 397.23 171.41 398.08 172.11 398.94 172.80 C 396.52 175.51 393.98 178.31 393.22 182.00 C 396.96 181.60 398.49 178.05 400.65 175.55 C 402.08 173.78 404.18 172.79 405.99 171.48 C 405.57 171.27 404.72 170.85 404.30 170.65 C 404.69 170.60 405.46 170.51 405.85 170.46 C 406.41 171.29 407.00 172.10 407.62 172.89 L 408.25 173.67 C 407.69 173.29 406.58 172.54 406.02 172.17 C 402.78 174.95 399.01 177.47 397.33 181.58 C 390.73 182.91 383.91 182.70 377.41 180.91 C 377.91 176.42 381.67 173.24 385.66 171.74 Z"
     id="path30" />
  <path
     fill="#c6d3cc"
     d=" M 400.95 181.21 C 402.42 179.43 404.04 177.78 405.71 176.18 C 408.07 177.24 410.71 178.85 413.23 177.11 C 417.26 178.76 421.31 180.55 424.84 183.15 C 427.78 185.31 429.40 188.69 431.07 191.83 C 426.43 193.92 421.45 195.03 416.41 195.63 L 416.34 195.03 C 412.99 193.86 411.07 190.70 408.62 188.34 C 406.10 185.92 403.57 183.52 400.95 181.21 Z"
     id="path32" />
  <path
     fill="#d0db8f"
     d=" M 499.34 181.56 C 502.94 180.21 507.19 180.55 510.56 182.35 C 514.41 185.46 517.90 189.82 518.09 194.97 C 518.16 198.36 515.01 200.79 511.95 201.39 C 505.27 203.19 497.65 203.91 491.25 200.83 C 486.82 198.99 486.41 193.07 488.27 189.23 C 490.69 185.23 495.18 183.25 499.34 181.56 Z"
     id="path34" />
  <path
     fill="#cfda8f"
     d=" M 389.27 188.32 C 392.69 185.99 396.86 188.04 400.55 188.46 C 402.12 191.48 403.30 194.67 404.41 197.88 C 400.92 198.51 397.48 199.58 393.94 199.79 C 388.84 198.59 383.85 196.92 378.78 195.62 C 381.75 192.49 385.73 190.71 389.27 188.32 Z"
     id="path36" />
  <path
     fill="#010609"
     d=" M 503.21 190.29 C 506.14 189.53 509.44 190.28 511.35 192.75 C 512.18 195.43 510.19 199.46 507.04 199.15 C 505.16 198.81 502.83 199.13 501.43 197.59 C 499.11 195.63 500.69 191.33 503.21 190.29 Z"
     id="path38" />
  <path
     fill="#030406"
     d=" M 390.22 196.15 C 391.01 194.72 390.91 192.32 392.85 191.88 C 394.35 192.06 395.85 192.35 397.36 192.62 C 397.97 193.99 399.83 195.77 398.00 197.00 C 395.87 199.73 391.93 198.81 390.22 196.15 Z"
     id="path40" />
  <path
     fill="#f5f6f8"
     d=" M 505.09 193.73 C 506.34 193.72 507.59 193.74 508.85 193.78 C 508.16 194.79 507.43 195.77 506.73 196.76 C 506.18 195.74 505.64 194.74 505.09 193.73 Z"
     id="path42" />
  <path
     fill="#46494f"
     d=" M 394.08 194.52 C 397.42 194.62 392.57 197.51 394.08 194.52 Z"
     id="path44" />
  <path
     fill="#9f937c"
     d=" M 538.07 196.26 C 539.72 197.75 541.75 198.78 544.01 198.90 C 548.79 199.33 553.60 199.97 558.09 201.79 C 546.15 212.98 531.80 221.32 516.97 228.09 C 503.55 233.68 488.96 237.68 474.32 235.66 C 473.91 228.76 473.56 221.77 470.82 215.32 C 474.61 212.49 478.38 209.53 482.81 207.75 C 492.79 212.00 504.46 213.36 514.85 209.76 C 521.04 205.73 526.85 200.74 534.01 198.47 C 535.18 198.98 536.38 199.50 537.57 200.01 C 537.62 199.60 537.72 198.79 537.77 198.38 C 537.84 197.85 537.99 196.79 538.07 196.26 Z"
     id="path46" />
  <path
     fill="#9f947c"
     d=" M 372.75 199.49 C 376.80 200.25 380.84 201.28 384.46 203.30 C 378.67 205.60 372.80 207.74 367.22 210.53 C 365.83 207.24 367.09 203.97 369.45 201.51 C 370.17 202.88 371.28 203.88 372.81 204.24 C 372.80 202.65 372.78 201.07 372.75 199.49 Z"
     id="path48" />
  <path
     fill="#c6d3cc"
     d=" M 540.14 220.13 C 548.41 214.79 555.98 208.44 563.64 202.27 C 566.02 203.06 568.37 203.95 570.70 204.91 C 566.05 219.68 559.24 233.77 550.77 246.72 C 547.54 251.80 544.31 256.98 539.91 261.14 C 542.36 271.70 543.74 282.51 545.73 293.17 C 548.72 296.61 552.97 298.62 556.05 301.98 C 559.15 305.28 562.31 308.57 564.91 312.28 C 565.07 313.50 563.71 314.16 562.93 314.83 C 555.22 319.77 547.18 324.25 538.72 327.79 C 534.92 329.57 531.29 331.76 527.23 332.93 C 529.51 326.89 530.93 320.55 531.54 314.13 C 522.99 309.00 517.99 299.90 511.03 292.98 C 507.90 290.11 505.44 286.57 502.22 283.80 C 502.90 288.52 506.81 291.81 509.56 295.43 C 513.95 300.19 516.94 306.52 522.43 310.08 C 521.82 310.54 521.22 311.00 520.62 311.47 L 520.83 309.64 C 517.67 309.15 514.50 309.55 511.35 309.82 C 509.27 306.79 506.69 303.12 502.43 304.23 C 501.65 302.45 501.21 300.26 499.15 299.53 C 499.37 304.49 501.27 309.92 499.45 314.66 C 492.43 318.42 485.08 321.58 477.78 324.76 C 473.32 326.64 470.32 330.61 466.68 333.63 C 459.14 340.81 452.82 349.33 444.44 355.61 C 436.34 361.00 426.15 359.87 416.98 358.99 C 405.62 358.53 394.11 355.70 382.83 358.44 C 379.42 359.53 376.72 356.56 374.02 355.02 C 369.44 351.60 363.99 349.24 360.15 344.93 C 354.44 341.76 349.41 337.47 344.55 333.15 C 344.45 332.61 344.25 331.53 344.15 330.99 C 343.26 327.53 342.54 324.04 341.66 320.59 C 348.51 318.12 353.42 312.49 358.37 307.44 C 364.83 299.51 370.98 290.97 373.82 281.01 C 374.54 276.55 379.66 275.03 380.92 270.87 C 381.47 269.30 381.27 267.60 381.37 265.98 C 378.52 263.46 375.26 261.35 371.47 260.60 C 371.54 259.51 371.60 258.43 371.68 257.36 C 376.90 252.36 380.50 245.96 385.71 240.94 C 385.56 237.80 383.35 236.01 380.58 235.07 C 387.46 230.76 393.86 225.65 401.27 222.19 C 410.71 216.69 420.96 212.76 431.35 209.44 C 434.58 208.49 437.80 207.47 440.85 206.00 C 444.63 205.03 448.53 204.63 452.35 203.78 C 456.51 206.17 461.02 207.90 465.81 208.45 C 467.77 208.45 468.87 210.05 469.21 211.81 C 467.29 212.63 465.36 213.45 463.44 214.25 C 463.67 216.41 465.10 217.96 466.52 219.48 C 469.82 225.22 469.42 232.11 468.60 238.45 C 474.36 241.12 480.93 240.83 487.12 240.48 C 506.24 238.45 523.52 229.18 540.14 220.13 Z"
     id="path50" />
  <path
     fill="#020509"
     d=" M 437.00 206.05 C 438.26 205.68 439.57 205.81 440.85 206.00 C 437.80 207.47 434.58 208.49 431.35 209.44 C 420.96 212.76 410.71 216.69 401.27 222.19 C 393.86 225.65 387.46 230.76 380.58 235.07 C 383.35 236.01 385.56 237.80 385.71 240.94 C 380.50 245.96 376.90 252.36 371.68 257.36 C 371.01 257.45 369.67 257.62 369.00 257.71 C 372.91 251.49 377.91 245.81 379.91 238.57 C 377.82 238.46 375.72 238.34 373.65 238.22 C 374.25 237.35 374.78 236.41 375.58 235.70 C 394.18 222.46 414.99 212.23 437.00 206.05 Z"
     id="path52" />
  <path
     fill="#040507"
     d=" M 353.00 245.86 C 355.86 245.47 358.67 244.85 361.49 244.24 C 359.93 246.26 357.68 247.52 355.31 248.36 C 347.78 251.16 340.14 255.09 331.88 254.28 C 327.68 253.33 326.74 248.66 327.81 245.04 C 328.41 245.24 329.61 245.63 330.20 245.83 C 330.36 247.10 330.53 248.37 330.70 249.64 C 338.29 249.53 345.55 247.02 353.00 245.86 Z"
     id="path54" />
  <path
     fill="#c6d3cc"
     d=" M 647.90 248.58 C 653.53 256.37 660.02 263.52 665.22 271.63 C 668.98 277.46 672.16 283.64 675.71 289.60 L 675.61 289.91 C 676.15 290.02 677.25 290.23 677.79 290.34 C 679.11 293.64 680.60 296.87 682.06 300.11 C 686.06 309.16 687.67 318.98 690.51 328.40 C 692.94 336.45 694.37 344.77 695.34 353.12 C 694.94 361.76 694.29 370.41 693.61 379.04 C 693.30 383.59 690.82 387.48 688.06 390.94 C 686.55 389.85 685.14 388.40 683.18 388.24 C 684.85 393.31 689.60 396.26 692.51 400.53 C 699.36 409.88 705.75 419.62 711.06 429.95 C 716.70 441.24 719.77 453.54 722.94 465.70 C 719.82 465.85 716.63 465.71 713.63 466.66 C 713.03 467.75 713.22 468.99 714.05 469.90 C 716.76 473.50 719.33 477.22 722.41 480.53 C 730.32 490.90 737.46 501.86 743.84 513.24 C 747.46 520.53 750.27 528.20 752.79 535.94 C 755.42 544.34 755.82 553.19 757.93 561.71 C 755.14 560.08 752.36 558.41 749.96 556.24 C 749.25 556.48 747.83 556.97 747.11 557.21 C 750.25 569.55 751.44 582.28 752.27 594.96 C 752.27 605.16 751.53 615.35 750.48 625.50 C 748.24 623.29 746.24 620.85 743.89 618.76 C 741.79 617.73 740.36 619.81 739.46 621.38 C 738.35 626.12 739.18 631.11 737.88 635.84 C 735.39 644.77 733.89 653.93 731.89 662.97 C 727.40 677.20 723.02 691.63 715.64 704.69 C 707.45 719.60 699.21 734.52 692.54 750.19 C 691.03 744.69 691.65 738.94 690.62 733.38 C 689.97 733.30 688.67 733.13 688.02 733.04 C 685.18 738.47 681.56 743.44 678.85 748.94 C 674.74 756.26 671.18 763.87 667.30 771.32 C 664.89 775.85 663.52 780.81 661.80 785.62 C 661.23 781.17 661.97 776.59 660.63 772.26 C 660.14 772.29 659.15 772.37 658.66 772.41 C 653.08 780.96 647.84 789.81 641.20 797.61 C 640.22 798.73 639.23 799.83 638.25 800.96 C 637.33 796.18 635.84 791.55 634.59 786.86 C 633.05 781.47 632.11 775.87 629.63 770.80 C 635.61 762.23 642.77 754.56 649.84 746.89 C 656.04 739.94 663.87 734.73 671.65 729.72 C 673.55 727.90 676.84 726.88 677.03 723.86 C 674.13 724.16 671.78 725.92 669.35 727.33 C 653.42 735.84 638.10 745.84 620.87 751.62 C 605.12 738.56 589.65 725.16 573.77 712.26 C 565.03 705.19 555.61 699.04 546.38 692.65 C 545.29 691.78 543.91 691.48 542.58 691.32 C 539.38 686.88 535.84 682.62 533.10 677.89 C 535.37 666.26 537.49 654.53 541.07 643.22 C 532.51 629.58 525.08 615.23 518.45 600.57 C 513.47 588.18 507.20 576.36 502.35 563.93 C 499.83 557.59 496.33 551.60 494.63 544.97 C 494.07 535.93 495.15 526.85 497.16 518.04 C 497.42 515.74 497.59 513.42 498.12 511.16 C 500.59 500.47 503.34 489.60 508.53 479.87 C 505.60 473.97 505.30 467.32 503.54 461.07 C 501.93 455.17 501.93 448.99 500.37 443.09 C 496.59 443.31 495.60 447.88 492.80 449.87 C 492.56 439.55 493.27 429.09 491.01 418.94 C 489.67 410.33 487.23 401.95 485.32 393.46 C 485.04 391.79 483.09 392.44 481.92 392.20 C 481.54 393.67 481.18 395.17 480.79 396.64 C 478.62 385.35 474.53 374.59 470.20 363.99 C 475.14 365.97 479.19 369.47 483.30 372.76 C 492.79 380.54 502.15 388.48 511.12 396.85 C 512.98 400.37 513.46 404.37 514.78 408.07 C 515.39 408.55 516.60 409.50 517.20 409.97 C 518.41 408.39 519.57 406.77 520.68 405.12 C 524.92 414.01 528.56 423.24 530.74 432.88 C 532.91 441.19 534.75 449.64 535.33 458.24 C 530.24 460.06 525.13 461.86 520.10 463.84 C 520.35 464.45 520.86 465.68 521.11 466.29 C 526.57 465.43 531.52 462.75 536.85 461.39 C 547.33 458.67 558.21 457.56 569.03 457.83 C 588.10 457.58 607.31 458.25 626.00 462.33 C 635.39 464.50 644.33 468.44 652.61 473.33 C 656.78 481.54 659.31 490.42 662.57 499.00 C 663.00 500.09 663.69 501.06 664.33 502.05 C 664.38 501.35 664.46 499.93 664.50 499.23 C 661.53 487.90 657.54 476.89 653.06 466.09 C 655.69 462.30 657.49 457.97 660.39 454.37 C 663.20 451.31 666.45 448.64 668.93 445.28 C 666.38 445.31 664.64 447.23 662.85 448.76 C 657.12 453.88 650.82 458.30 645.11 463.45 C 638.11 461.64 631.12 459.80 624.06 458.22 C 603.95 454.31 583.36 454.45 562.95 454.65 C 554.56 454.77 546.28 456.11 538.03 457.53 C 535.32 437.55 530.17 417.70 521.22 399.58 C 518.81 398.41 517.57 401.88 516.20 403.29 C 514.80 396.96 511.64 391.26 509.35 385.26 C 516.88 386.48 523.74 389.92 530.51 393.25 C 535.35 395.82 540.64 397.54 545.21 400.63 C 551.91 404.97 559.13 408.57 565.32 413.66 C 567.06 414.89 568.72 416.81 571.08 416.45 C 572.94 415.19 574.27 413.34 575.60 411.57 C 579.69 405.73 585.15 400.91 588.41 394.48 C 592.70 387.86 596.56 380.97 599.77 373.75 C 602.00 377.21 604.03 380.80 605.56 384.63 C 606.59 387.20 608.16 389.87 611.07 390.55 C 612.74 389.44 614.20 387.99 615.27 386.29 C 619.52 379.31 621.77 371.40 624.83 363.88 C 628.25 354.94 629.98 345.48 631.54 336.07 C 633.17 329.52 633.52 322.76 634.32 316.07 C 638.02 319.09 641.18 322.72 643.67 326.80 C 644.12 326.83 645.01 326.87 645.46 326.89 C 648.56 323.41 649.33 318.71 650.27 314.32 C 652.19 303.35 652.96 292.15 652.16 281.03 C 651.13 270.16 649.79 259.32 647.90 248.58 Z"
     id="path56" />
  <path
     fill="#42535c"
     d=" M 297.83 265.89 C 303.09 263.14 308.54 260.78 313.97 258.38 C 317.59 262.99 323.81 262.86 329.10 263.41 C 334.67 264.01 339.43 260.33 344.49 258.62 C 347.87 256.89 351.61 258.51 355.04 259.25 C 362.90 261.20 370.51 264.29 377.13 269.03 C 375.71 271.63 372.84 272.23 370.33 273.26 C 369.11 275.97 368.80 278.96 367.82 281.75 C 364.89 290.38 359.42 297.80 354.18 305.14 C 350.63 309.79 346.67 314.81 340.83 316.55 C 339.12 315.96 337.60 314.96 335.90 314.36 C 333.25 313.88 330.42 315.38 327.87 314.15 C 323.51 312.11 320.09 308.60 316.60 305.38 C 309.88 299.10 304.84 291.24 301.02 282.91 C 302.97 282.67 304.92 282.45 306.87 282.24 C 306.60 283.45 306.33 284.67 306.07 285.89 C 308.47 289.69 310.73 294.07 314.93 296.18 C 316.57 296.83 319.30 297.54 319.73 295.10 C 318.88 290.12 316.11 285.78 313.66 281.47 C 312.59 279.52 311.13 277.84 309.36 276.52 C 305.38 277.25 301.46 278.46 297.41 278.68 C 295.62 275.95 294.55 272.84 293.30 269.85 C 294.65 268.37 295.99 266.79 297.83 265.89 Z"
     id="path58" />
  <path
     fill="#040507"
     d=" M 391.81 261.33 C 397.94 260.76 403.20 266.45 402.45 272.52 C 414.92 274.83 427.48 277.59 439.07 282.87 C 438.93 286.68 435.30 288.56 433.02 291.09 C 432.28 292.02 430.53 292.89 431.54 294.26 C 435.92 296.44 438.66 290.24 443.09 291.07 C 448.33 291.94 453.44 297.35 451.47 302.97 C 449.53 307.66 444.87 310.46 440.72 313.01 C 440.69 313.98 440.61 315.91 440.57 316.87 C 446.09 315.67 450.19 311.65 455.11 309.22 C 459.77 308.56 464.06 313.59 463.10 318.13 C 462.35 321.95 459.44 324.79 456.92 327.56 C 459.10 326.01 461.42 324.51 464.20 324.42 C 463.99 325.15 463.59 326.60 463.39 327.32 C 457.56 331.55 450.54 333.60 443.83 335.96 C 441.06 336.85 435.58 338.92 434.96 334.58 C 441.62 330.92 448.95 328.43 455.06 323.81 C 456.93 322.43 458.43 320.40 458.74 318.04 C 459.27 315.65 457.21 313.48 455.02 312.98 C 452.70 313.84 451.03 315.82 448.81 316.89 C 444.63 318.74 440.41 320.61 435.90 321.50 C 429.69 322.79 423.56 325.42 417.10 324.69 C 414.61 324.38 412.79 322.28 412.99 319.75 C 419.50 317.15 426.86 316.79 432.84 312.92 C 437.83 309.95 443.57 307.82 447.31 303.16 C 448.34 301.46 447.57 299.40 447.55 297.56 C 445.47 296.50 443.53 294.48 441.19 294.31 C 437.72 296.44 434.64 299.26 430.79 300.73 C 421.28 304.29 411.18 306.54 401.01 306.60 C 399.24 306.97 395.76 305.46 397.94 303.51 C 411.10 300.59 424.30 294.75 433.13 284.24 C 428.02 282.22 422.78 280.54 417.45 279.25 C 411.40 277.74 405.15 277.25 399.15 275.57 C 399.23 272.68 400.31 269.23 398.00 266.90 C 395.99 264.98 393.36 263.74 391.81 261.33 Z"
     id="path60" />
  <path
     fill="#040506"
     d=" M 345.65 274.72 C 350.86 272.28 357.28 272.56 362.41 275.14 C 359.14 278.10 354.26 274.13 350.75 276.81 C 348.85 277.82 349.10 280.16 348.90 281.98 C 350.83 281.75 352.76 281.52 354.70 281.29 C 353.40 286.43 352.68 293.18 347.04 295.45 C 341.95 295.21 336.71 290.54 337.51 285.13 C 338.28 280.56 341.99 277.19 345.65 274.72 Z"
     id="path62" />
  <path
     fill="#88918a"
     d=" M 675.06 283.16 C 676.14 284.46 677.49 286.19 676.38 287.90 C 674.92 287.08 674.02 284.59 675.06 283.16 Z"
     id="path64" />
  <path
     fill="#f5f6f8"
     d=" M 502.69 308.36 C 503.65 308.00 504.62 307.65 505.60 307.32 C 506.39 308.62 507.16 309.94 507.91 311.28 C 506.25 311.59 504.59 311.88 502.94 312.15 C 502.85 310.88 502.77 309.62 502.69 308.36 Z"
     id="path66" />
  <path
     fill="#c6d3cc"
     d=" M 313.94 307.77 C 316.38 309.76 318.60 311.99 321.06 313.96 C 324.33 316.54 328.39 317.69 332.16 319.32 C 333.29 324.34 334.23 329.40 335.22 334.46 C 334.49 335.61 333.75 336.75 333.01 337.91 C 327.26 334.09 321.81 329.85 316.29 325.72 C 315.41 324.97 314.34 324.28 313.97 323.13 C 313.02 318.06 313.32 312.86 313.94 307.77 Z"
     id="path68" />
  <path
     fill="#8197a4"
     d=" M 495.73 321.71 C 502.19 317.66 509.95 315.93 517.48 315.39 C 514.55 316.78 511.42 317.61 508.29 318.40 C 504.09 319.43 500.05 321.14 495.73 321.71 Z"
     id="path70" />
  <path
     fill="#c6d3cc"
     d=" M 500.89 326.16 C 506.59 324.41 512.44 323.24 518.15 321.53 C 517.14 325.86 515.64 330.40 516.87 334.85 C 515.66 337.46 513.86 339.75 511.46 341.35 C 505.92 345.11 501.35 350.05 495.93 353.95 C 492.03 356.71 488.75 360.41 484.28 362.29 C 479.20 359.73 473.87 357.69 468.61 355.53 C 464.06 353.59 459.04 353.91 454.24 353.23 C 454.30 352.86 454.41 352.11 454.47 351.73 C 459.35 347.17 463.17 341.54 468.32 337.28 C 478.89 332.81 490.20 330.34 500.89 326.16 Z"
     id="path72" />
  <path
     fill="#8197a4"
     d=" M 337.52 340.69 C 338.59 338.68 340.45 337.55 342.76 337.68 C 344.09 338.74 345.44 339.77 346.82 340.79 C 343.72 340.76 340.62 340.80 337.52 340.69 Z"
     id="path74" />
  <path
     fill="#727a6d"
     d=" M 357.19 351.04 C 365.25 352.74 370.84 359.37 377.98 362.96 C 380.83 363.99 383.65 362.15 386.47 361.74 C 401.04 359.55 415.53 363.27 429.97 364.75 C 438.12 365.70 446.25 362.20 451.23 355.71 C 456.32 358.76 462.02 361.72 465.02 367.09 C 471.86 378.69 475.62 391.85 477.48 405.11 C 480.40 404.57 481.56 401.71 483.08 399.52 C 487.17 418.03 491.36 437.06 488.60 456.10 C 492.19 455.77 495.38 454.07 498.56 452.53 C 500.50 460.85 502.50 469.29 502.41 477.87 C 496.59 498.80 492.15 520.21 490.90 541.94 C 490.62 545.27 492.16 548.26 493.56 551.16 C 499.57 564.63 505.15 578.28 511.38 591.65 C 514.19 597.31 516.18 603.33 518.95 609.01 C 524.47 620.56 530.67 631.76 536.74 643.01 C 534.51 653.13 532.80 663.39 529.84 673.35 C 528.02 670.98 526.64 667.75 523.36 667.19 C 525.06 672.19 528.45 676.30 531.38 680.62 C 536.73 688.24 542.36 695.67 547.91 703.14 C 548.86 704.51 550.89 704.01 550.42 702.11 C 549.41 700.35 548.11 698.75 546.94 697.12 C 569.27 710.38 588.21 728.33 608.01 744.94 C 611.99 748.64 616.68 751.65 620.14 755.87 C 620.11 756.41 620.06 757.50 620.03 758.05 C 612.61 753.34 605.52 747.68 596.90 745.31 C 599.22 748.35 602.81 749.93 605.83 752.15 C 610.90 755.74 616.22 759.01 620.93 763.10 C 623.13 764.86 623.83 767.71 624.84 770.22 C 627.69 778.18 630.73 786.12 632.44 794.43 C 634.61 804.59 638.08 814.48 639.21 824.85 C 640.36 836.21 641.06 847.61 641.99 858.99 C 642.81 866.36 643.30 873.82 642.48 881.22 C 642.05 882.48 643.15 883.25 643.94 884.04 C 646.12 886.15 648.90 887.98 649.74 891.08 C 653.10 902.15 654.36 913.69 656.96 924.94 C 659.76 940.36 662.86 955.72 665.77 971.12 C 666.70 974.93 667.78 978.80 669.78 982.20 C 673.25 986.41 678.71 988.53 681.92 993.01 C 684.79 997.91 685.54 1004.05 683.94 1009.51 C 682.24 1007.69 681.06 1004.67 678.06 1005.24 C 680.86 1015.12 687.54 1023.18 691.81 1032.40 C 691.62 1033.16 691.43 1033.93 691.26 1034.72 C 693.49 1036.87 695.79 1038.96 698.36 1040.70 C 704.57 1045.03 709.58 1050.75 715.21 1055.75 C 718.03 1055.44 720.89 1054.80 723.73 1055.25 C 727.16 1060.55 728.59 1066.96 731.41 1072.63 C 733.84 1079.28 737.77 1085.62 737.88 1092.91 C 730.33 1093.22 722.75 1094.49 715.21 1093.56 C 713.80 1093.53 713.64 1091.92 713.25 1090.95 C 711.66 1085.38 709.70 1079.67 705.62 1075.40 C 701.80 1071.69 699.39 1066.44 699.35 1061.09 C 699.21 1058.28 698.95 1055.18 696.85 1053.10 C 693.09 1050.80 688.18 1051.83 685.19 1054.92 C 687.21 1058.11 689.85 1060.83 692.66 1063.33 C 695.53 1065.65 696.03 1069.49 696.70 1072.89 C 698.00 1079.59 695.61 1086.22 693.65 1092.54 C 681.03 1100.13 664.40 1101.04 651.26 1094.25 C 649.24 1090.88 648.41 1086.93 646.31 1083.61 C 645.03 1081.61 642.82 1080.43 641.55 1078.47 C 640.44 1074.01 640.87 1069.16 638.43 1065.08 C 634.82 1065.40 630.89 1067.85 631.09 1071.90 C 630.33 1076.38 634.02 1079.46 636.93 1082.20 C 636.62 1082.67 636.01 1083.62 635.70 1084.09 C 636.19 1087.77 636.96 1091.44 637.12 1095.16 C 636.95 1095.42 636.60 1095.94 636.42 1096.19 C 629.68 1097.13 622.84 1096.62 616.06 1097.00 C 611.02 1097.31 605.95 1097.43 600.91 1097.07 C 597.87 1096.90 595.68 1094.52 593.48 1092.70 C 589.79 1089.51 586.06 1085.22 586.74 1079.98 C 587.45 1069.68 587.78 1059.11 591.42 1049.34 C 593.63 1043.39 598.74 1039.31 603.51 1035.45 C 605.75 1033.74 607.11 1031.23 607.81 1028.54 C 607.81 1028.32 607.80 1027.86 607.80 1027.63 C 608.43 1015.63 605.06 1003.97 604.46 992.05 C 603.23 974.36 603.16 956.61 601.59 938.94 C 600.39 924.28 603.21 909.68 602.67 895.02 C 602.60 889.29 597.30 885.77 594.93 880.98 C 590.03 871.86 584.47 863.07 580.39 853.53 C 571.71 835.33 565.48 816.13 558.99 797.09 C 556.47 790.02 554.88 782.65 552.05 775.70 C 551.18 773.19 548.28 772.69 546.26 771.46 C 546.82 771.32 547.94 771.04 548.50 770.90 C 546.92 768.07 543.99 766.41 541.69 764.24 C 535.69 759.23 532.24 752.06 528.08 745.62 C 527.51 745.57 526.35 745.48 525.78 745.43 C 526.60 747.76 527.57 750.04 528.57 752.32 C 524.85 751.12 520.49 750.33 518.12 746.88 C 513.11 740.45 508.18 733.91 503.91 726.96 C 497.85 717.81 491.24 709.07 485.12 699.98 C 482.36 696.71 480.24 692.72 476.55 690.37 C 478.58 696.21 482.61 701.00 485.79 706.22 C 495.59 720.89 503.01 736.95 512.15 752.01 C 513.88 755.22 517.46 756.48 520.66 757.71 C 515.94 765.75 509.66 772.68 504.54 780.45 C 501.65 784.83 497.77 788.41 494.24 792.26 C 488.94 798.01 482.82 803.00 476.13 807.06 C 471.19 810.11 465.42 811.45 460.53 814.62 C 453.99 812.83 448.23 809.20 442.93 805.07 C 435.76 800.44 429.64 794.42 424.09 787.98 C 415.80 778.79 410.63 767.30 406.31 755.84 C 404.51 751.66 404.86 746.35 401.21 743.16 C 400.67 753.50 406.24 762.68 410.11 771.87 C 410.92 773.27 409.87 774.72 409.57 776.11 C 416.84 788.11 425.86 799.90 438.62 806.42 C 441.40 807.86 443.94 809.70 446.42 811.61 C 451.25 815.40 457.31 816.95 463.03 818.86 C 462.24 818.79 460.65 818.64 459.85 818.57 C 455.56 820.62 452.59 824.59 448.75 827.33 L 448.36 827.64 C 437.25 819.31 423.68 814.97 410.14 812.65 C 411.24 811.94 412.36 811.24 413.42 810.46 C 405.75 809.17 397.88 807.97 390.16 809.58 C 368.76 813.37 350.51 825.91 332.63 837.49 C 326.57 841.44 319.08 841.98 312.05 841.89 C 314.02 845.17 318.59 843.39 321.75 844.04 C 317.34 853.04 309.99 860.02 303.06 867.06 C 300.85 868.97 299.97 871.71 299.93 874.58 C 301.60 874.27 303.37 873.92 304.45 872.47 C 313.38 862.73 322.57 853.23 332.15 844.12 C 345.38 833.15 360.74 825.06 376.66 818.71 C 384.79 815.90 393.06 812.63 401.81 812.88 C 401.75 813.82 401.64 815.69 401.58 816.62 C 405.33 817.77 409.22 816.48 413.02 817.14 C 424.22 818.86 435.61 822.16 444.65 829.27 C 441.67 829.33 438.60 828.96 435.70 829.82 C 434.96 833.15 439.20 833.99 441.07 835.95 C 451.48 844.51 461.34 854.15 468.22 865.86 C 465.98 865.03 463.87 862.64 461.31 863.44 C 461.30 863.77 461.30 864.42 461.29 864.75 C 465.24 880.87 466.35 897.52 467.54 914.03 C 467.78 927.33 469.41 940.76 467.14 953.97 C 466.19 961.37 465.63 968.93 462.92 975.96 C 460.95 982.09 457.71 987.71 454.06 993.00 C 453.16 994.39 451.66 995.19 450.33 996.12 C 450.94 998.48 451.77 1000.80 452.36 1003.18 C 451.26 1006.19 448.87 1008.46 446.42 1010.43 C 443.46 1007.30 439.54 1005.27 435.30 1004.58 C 423.63 1002.26 411.81 1000.68 399.99 999.46 C 393.80 998.63 388.01 1001.37 382.09 1002.62 C 376.88 1003.95 370.51 1004.80 367.89 1010.22 C 376.31 1007.08 385.09 1005.09 393.89 1003.38 C 399.20 1002.28 404.59 1003.33 409.91 1003.81 C 414.17 1004.42 418.92 1004.50 422.25 1007.63 C 415.16 1007.91 408.06 1008.08 400.99 1008.71 C 397.53 1008.81 395.46 1012.09 392.57 1013.56 C 385.66 1017.37 379.36 1022.16 372.47 1026.00 C 372.21 1028.89 375.88 1027.13 377.21 1026.39 C 384.38 1021.81 391.36 1016.84 399.07 1013.17 C 401.85 1011.85 404.99 1011.74 408.01 1011.60 C 417.32 1011.30 426.65 1011.53 435.95 1010.84 C 439.13 1010.45 442.19 1011.50 444.90 1013.09 C 449.85 1015.89 455.45 1017.03 461.00 1017.96 C 460.27 1018.87 459.56 1019.79 458.85 1020.73 C 456.13 1019.30 453.11 1018.44 450.03 1018.82 C 438.07 1019.81 426.41 1023.77 416.37 1030.35 C 410.05 1033.75 405.49 1039.39 400.43 1044.30 C 398.67 1046.00 393.54 1045.59 394.67 1048.87 C 398.90 1049.68 403.05 1048.05 405.51 1044.53 C 415.47 1032.02 431.24 1025.31 446.94 1024.20 C 449.02 1024.11 451.24 1023.99 453.22 1024.81 C 461.91 1030.38 463.28 1042.08 471.53 1048.02 C 471.87 1045.81 471.28 1043.66 470.13 1041.79 C 468.05 1038.24 467.27 1034.13 465.30 1030.54 C 463.85 1027.86 461.92 1025.48 460.10 1023.06 C 465.03 1016.69 472.70 1012.52 480.57 1011.48 C 487.05 1014.72 493.22 1018.65 498.92 1023.13 C 502.55 1025.99 506.81 1027.98 511.30 1029.07 C 510.75 1027.57 509.84 1026.28 508.39 1025.57 C 504.55 1023.31 500.90 1020.74 497.57 1017.78 C 500.44 1013.64 503.59 1009.47 508.02 1006.91 C 514.28 1003.05 523.14 1004.51 527.99 1009.98 C 535.36 1017.85 539.08 1028.18 542.70 1038.14 C 544.61 1044.08 545.77 1050.22 547.45 1056.23 C 541.98 1062.02 534.21 1064.37 526.90 1066.89 C 522.51 1068.38 517.68 1067.84 513.29 1066.64 C 512.04 1065.67 511.25 1064.24 510.29 1063.04 C 512.76 1061.06 515.44 1059.21 517.12 1056.44 C 515.56 1056.52 513.90 1056.54 512.58 1057.48 C 506.08 1061.22 502.75 1068.35 497.41 1073.30 C 490.95 1075.41 484.31 1077.17 477.64 1078.56 C 472.40 1079.44 466.40 1079.96 461.85 1076.66 C 465.34 1074.64 469.07 1073.11 472.81 1071.62 C 472.78 1070.94 472.73 1069.59 472.70 1068.91 C 461.21 1072.07 451.26 1079.16 439.97 1082.94 C 431.11 1085.79 421.63 1089.09 412.27 1086.68 C 404.06 1084.27 396.43 1080.22 388.21 1077.84 C 383.36 1075.92 378.83 1073.22 374.32 1070.63 C 371.68 1069.26 372.98 1064.71 369.85 1064.14 C 359.04 1061.08 348.85 1055.89 340.13 1048.79 C 331.03 1041.27 321.60 1033.85 314.69 1024.16 C 306.54 1023.67 299.04 1019.38 293.60 1013.45 C 291.73 1011.90 293.48 1009.44 293.66 1007.52 C 299.39 1008.50 305.29 1008.96 311.04 1007.84 C 312.54 1007.67 313.81 1006.82 315.00 1005.96 C 305.19 1006.33 295.10 1005.42 286.29 1000.72 C 277.30 997.23 268.70 992.46 261.89 985.53 C 262.31 986.90 262.40 988.49 263.28 989.70 C 268.93 996.02 276.64 999.80 283.96 1003.82 C 267.87 1022.64 243.60 1030.87 220.88 1038.59 C 210.98 1041.07 201.25 1044.59 190.98 1045.22 C 169.61 1047.86 148.08 1045.59 126.69 1044.34 C 117.79 1044.00 109.08 1041.98 100.34 1040.43 C 86.85 1035.75 73.05 1031.84 59.94 1026.14 C 53.76 1023.16 47.58 1020.20 41.56 1016.91 C 48.28 1012.21 55.45 1008.22 62.95 1004.93 C 72.96 999.63 83.75 995.65 94.92 993.77 C 99.99 994.72 105.37 995.30 109.87 998.06 C 114.51 1000.83 120.13 1001.67 124.37 1005.14 C 130.08 1004.72 135.48 1006.87 141.03 1007.82 C 144.04 1008.31 147.07 1008.94 149.85 1010.27 C 150.80 1011.24 151.76 1012.21 152.72 1013.19 C 153.76 1012.35 154.78 1011.51 155.80 1010.66 C 162.01 1011.94 168.37 1012.00 174.60 1013.09 C 175.20 1013.38 176.41 1013.95 177.02 1014.24 C 182.35 1014.19 187.68 1013.80 193.02 1013.81 C 199.49 1013.82 205.70 1011.77 211.96 1010.37 L 212.56 1009.34 C 219.43 994.04 227.65 979.26 238.01 966.03 C 242.87 959.38 249.02 953.86 254.21 947.49 C 256.43 951.67 257.41 956.63 260.96 959.99 C 263.49 962.54 265.58 965.53 268.49 967.70 C 267.67 964.03 265.70 960.80 263.61 957.74 C 263.64 957.12 263.70 955.88 263.73 955.26 C 259.01 948.28 257.88 939.76 256.53 931.64 C 255.30 923.15 252.59 914.99 250.31 906.75 C 248.03 897.53 246.28 888.18 243.85 879.00 C 246.44 869.06 248.82 859.05 252.63 849.49 C 257.54 834.62 263.81 820.27 269.93 805.88 C 274.83 796.41 278.06 785.52 286.37 778.33 C 293.38 771.66 300.61 765.18 308.36 759.38 C 313.62 755.70 318.32 751.28 323.78 747.88 C 323.13 749.46 322.48 751.04 321.87 752.66 C 325.07 752.12 326.80 749.16 329.10 747.21 C 336.39 741.10 341.60 733.02 348.30 726.32 C 365.53 706.29 382.61 686.09 401.27 667.35 C 404.26 663.87 407.35 660.42 411.23 657.91 C 410.05 668.39 408.73 678.93 408.93 689.50 C 412.34 686.34 412.13 681.29 412.55 677.03 C 413.03 662.13 415.94 647.41 420.20 633.15 C 424.09 622.06 429.03 611.28 435.38 601.37 C 438.11 596.48 441.49 591.97 445.35 587.91 C 447.51 592.68 449.30 597.60 451.45 602.38 C 455.32 610.99 457.45 620.24 461.19 628.90 C 462.97 632.78 463.83 637.28 467.03 640.33 C 467.57 633.83 463.75 628.16 461.87 622.18 C 456.50 606.09 450.75 590.14 445.56 573.98 C 449.42 560.04 454.77 546.58 459.77 533.03 C 459.81 539.29 459.69 545.59 460.59 551.81 C 461.04 551.85 461.96 551.92 462.41 551.95 C 463.14 532.85 464.63 513.76 467.55 494.86 C 469.08 483.97 470.16 473.03 470.96 462.07 C 472.32 450.94 471.64 439.73 471.16 428.57 C 470.62 419.72 469.06 410.78 465.07 402.77 C 461.63 394.60 456.46 387.08 449.37 381.65 C 441.30 375.93 432.09 371.23 422.05 370.61 C 414.92 370.59 407.63 371.80 401.33 375.28 C 395.05 378.70 389.20 382.91 383.78 387.56 C 381.03 383.21 379.55 378.11 376.22 374.14 C 371.29 376.71 368.27 381.52 365.02 385.82 C 359.48 375.10 357.74 362.97 357.19 351.04 Z"
     id="path76" />
  <path
     fill="#94a197"
     d=" M 689.09 728.33 C 692.43 728.25 687.72 731.39 689.09 728.33 Z"
     id="path78" />
  <path
     fill="#020508"
     d=" M 401.21 743.16 C 404.86 746.35 404.51 751.66 406.31 755.84 C 410.63 767.30 415.80 778.79 424.09 787.98 C 429.64 794.42 435.76 800.44 442.93 805.07 C 448.23 809.20 453.99 812.83 460.53 814.62 C 464.58 815.93 468.78 816.71 472.92 817.70 C 474.33 817.82 474.93 819.18 475.80 820.12 C 471.50 820.68 467.15 820.17 463.03 818.86 C 457.31 816.95 451.25 815.40 446.42 811.61 C 443.94 809.70 441.40 807.86 438.62 806.42 C 425.86 799.90 416.84 788.11 409.57 776.11 C 409.87 774.72 410.92 773.27 410.11 771.87 C 406.24 762.68 400.67 753.50 401.21 743.16 Z"
     id="path80" />
  <path
     fill="#c6d3cc"
     d=" M 697.93 748.96 C 700.91 746.62 704.65 745.49 707.93 743.62 C 708.60 743.85 709.95 744.30 710.62 744.53 C 710.39 748.56 710.34 752.60 710.06 756.63 C 709.45 762.98 708.95 769.37 709.30 775.76 C 708.07 784.35 708.02 793.07 706.59 801.64 C 704.94 809.10 704.44 816.73 703.25 824.26 C 699.59 853.38 695.46 882.53 695.51 911.94 C 695.61 927.98 694.55 944.23 689.60 959.61 C 687.15 968.38 682.81 976.42 678.91 984.60 C 676.98 982.73 675.10 980.82 673.19 978.94 C 672.98 975.74 673.23 972.52 674.19 969.47 C 676.42 961.72 678.50 953.92 680.08 946.02 C 683.31 935.27 680.87 923.94 680.39 912.99 C 679.50 892.96 680.97 872.88 684.06 853.10 C 686.59 838.19 686.92 823.04 686.62 807.96 C 686.99 792.28 686.44 776.58 685.19 760.96 C 686.73 759.48 688.13 757.87 689.39 756.15 C 690.16 757.78 690.98 759.40 691.86 761.00 C 692.46 760.89 693.65 760.66 694.25 760.55 C 695.15 756.64 695.47 752.26 697.93 748.96 Z"
     id="path82" />
  <path
     fill="#ffffff"
     d=" M 669.07 777.08 C 671.72 769.29 676.52 762.52 680.35 755.29 C 680.34 760.89 680.78 766.48 681.32 772.05 C 681.06 780.03 681.14 788.02 682.14 795.96 C 682.02 804.32 682.49 812.69 681.87 821.04 C 681.80 829.45 682.03 837.89 681.07 846.28 C 677.65 841.54 674.81 836.40 672.47 831.06 C 671.16 828.33 669.66 825.67 667.56 823.48 C 662.01 822.81 656.47 823.84 650.93 823.83 C 650.50 813.84 650.92 803.83 651.83 793.88 C 652.16 790.16 654.69 787.26 656.52 784.18 C 657.40 788.67 656.73 793.88 659.82 797.60 C 662.55 796.31 663.33 793.07 664.27 790.47 C 665.46 785.86 667.30 781.48 669.07 777.08 Z"
     id="path84" />
  <path
     fill="#c6d3cc"
     d=" M 504.54 780.45 C 509.66 772.68 515.94 765.75 520.66 757.71 C 525.33 758.59 527.32 763.36 528.32 767.48 C 529.57 771.58 529.41 775.93 528.94 780.15 C 528.49 781.49 527.09 782.15 526.15 783.12 C 520.94 787.34 517.39 793.12 513.53 798.52 C 510.73 802.59 507.81 806.97 507.33 812.03 C 510.32 809.24 511.26 805.01 514.11 802.10 C 516.47 799.55 518.43 796.33 521.84 795.08 C 524.86 793.77 527.79 792.23 530.91 791.18 C 534.75 789.76 538.88 790.55 542.84 790.85 C 548.24 798.59 549.46 808.24 552.05 817.12 C 556.62 836.39 563.33 855.03 569.79 873.73 C 560.84 881.25 552.33 889.28 544.27 897.75 C 544.41 894.72 544.93 891.74 545.36 888.75 C 544.75 888.66 543.52 888.48 542.91 888.39 C 536.77 894.22 532.51 901.62 527.26 908.22 C 523.05 913.53 519.64 919.40 516.23 925.25 C 514.35 924.44 512.42 923.74 510.44 923.22 C 510.41 923.95 510.34 925.41 510.30 926.14 C 497.96 932.11 486.17 940.70 472.16 941.98 C 472.64 934.27 472.95 926.53 471.89 918.86 C 471.39 910.19 471.72 901.49 470.54 892.87 C 469.37 884.83 468.43 876.76 466.90 868.78 C 468.87 869.76 470.89 870.64 473.03 871.17 C 473.47 869.58 475.42 867.77 474.03 866.16 C 467.21 855.26 458.77 845.45 449.50 836.57 C 447.87 835.03 445.98 833.84 444.08 832.68 C 446.71 832.86 449.34 833.09 451.98 833.11 C 452.35 830.48 451.01 828.51 448.75 827.33 C 452.59 824.59 455.56 820.62 459.85 818.57 C 460.65 818.64 462.24 818.79 463.03 818.86 C 467.15 820.17 471.50 820.68 475.80 820.12 C 474.93 819.18 474.33 817.82 472.92 817.70 C 468.78 816.71 464.58 815.93 460.53 814.62 C 465.42 811.45 471.19 810.11 476.13 807.06 C 482.82 803.00 488.94 798.01 494.24 792.26 C 497.77 788.41 501.65 784.83 504.54 780.45 Z"
     id="path86" />
  <path
     fill="#c6d3cc"
     d=" M 540.83 767.17 C 542.52 768.73 544.20 770.36 546.26 771.46 C 548.28 772.69 551.18 773.19 552.05 775.70 C 554.88 782.65 556.47 790.02 558.99 797.09 C 565.48 816.13 571.71 835.33 580.39 853.53 C 584.47 863.07 590.03 871.86 594.93 880.98 C 597.30 885.77 602.60 889.29 602.67 895.02 C 603.21 909.68 600.39 924.28 601.59 938.94 C 603.16 956.61 603.23 974.36 604.46 992.05 C 605.06 1003.97 608.43 1015.63 607.80 1027.63 L 605.77 1026.49 C 605.06 1028.17 604.34 1029.84 603.62 1031.52 C 601.54 1018.80 600.77 1005.87 600.26 993.00 C 599.92 984.31 598.44 975.73 598.39 967.04 C 597.26 955.00 595.45 943.04 594.20 931.02 C 593.23 923.99 593.14 916.85 591.55 909.91 C 590.55 906.32 591.81 901.91 588.89 899.10 C 582.30 890.90 579.00 880.74 574.48 871.37 C 571.22 863.32 567.22 855.52 565.17 847.03 C 557.09 825.18 553.73 801.97 546.34 779.90 C 545.07 775.43 543.43 771.05 540.83 767.17 Z"
     id="path88" />
  <path
     fill="#0a0f12"
     d=" M 709.30 775.76 L 709.56 776.05 C 711.12 778.43 710.11 781.35 710.01 783.98 C 708.96 791.48 709.04 799.12 707.27 806.51 C 706.99 804.89 706.74 803.26 706.59 801.64 C 708.02 793.07 708.07 784.35 709.30 775.76 Z"
     id="path90" />
  <path
     fill="#010609"
     d=" M 393.60 793.21 C 394.68 786.52 400.86 782.27 404.99 777.35 C 405.72 778.21 406.46 779.08 407.20 779.96 C 402.32 783.70 398.41 788.46 395.01 793.54 L 393.60 793.21 Z"
     id="path92" />
  <path
     fill="#727a6d"
     d=" M 641.20 797.61 C 643.72 800.67 645.71 795.63 647.51 794.14 C 647.10 806.15 646.28 818.14 646.17 830.16 C 652.31 828.42 658.67 827.95 665.03 828.20 C 671.52 836.43 675.66 846.10 679.34 855.84 C 677.36 864.41 677.39 873.24 676.87 881.97 C 676.28 897.32 676.77 912.69 677.97 928.00 C 679.74 942.56 673.27 956.23 669.91 970.07 C 666.68 955.42 664.31 940.61 660.93 925.99 C 658.73 913.32 656.33 900.63 652.70 888.28 C 651.38 883.49 646.99 880.00 646.70 874.88 C 645.54 864.61 646.29 854.25 645.47 843.95 C 644.29 829.46 642.07 815.00 638.25 800.96 C 639.23 799.83 640.22 798.73 641.20 797.61 Z"
     id="path94" />
  <path
     fill="#727a6d"
     d=" M 545.31 905.31 C 552.25 894.90 562.94 887.78 573.35 881.22 C 575.83 885.49 578.03 889.94 580.82 894.04 C 582.63 896.95 584.95 899.67 585.75 903.09 C 590.09 920.09 589.56 937.79 591.87 955.08 C 593.31 966.04 593.71 977.10 595.14 988.07 C 596.78 1000.81 596.90 1013.68 598.04 1026.46 C 592.83 1026.61 587.68 1027.42 582.49 1027.81 C 582.25 1024.03 582.48 1020.14 581.37 1016.50 C 574.98 1011.87 566.56 1012.35 559.05 1011.79 C 551.05 1011.89 543.09 1010.96 535.17 1010.00 C 530.95 1003.67 523.77 998.94 515.94 999.39 C 512.03 999.06 508.73 1001.40 505.12 1002.36 C 500.11 1002.06 494.69 1001.55 490.55 998.41 C 486.96 995.84 484.36 991.47 484.77 986.97 C 487.50 979.92 494.14 975.32 497.50 968.65 C 499.75 965.02 496.42 959.09 491.97 960.26 C 484.03 960.84 476.56 963.98 469.43 967.32 C 472.29 951.31 471.81 935.03 471.89 918.86 C 472.95 926.53 472.64 934.27 472.16 941.98 C 486.17 940.70 497.96 932.11 510.30 926.14 C 513.05 926.47 515.34 928.63 518.21 928.83 C 519.29 925.93 520.54 923.03 522.70 920.74 C 525.91 917.26 528.32 913.12 531.74 909.83 C 534.69 906.99 537.69 904.21 540.65 901.39 C 541.36 903.37 539.95 907.40 543.09 907.42 C 544.02 906.95 544.76 906.25 545.31 905.31 Z"
     id="path96" />
  <path
     fill="#42535c"
     d=" M 126.09 947.21 C 127.38 946.42 128.67 945.64 129.96 944.86 C 137.62 947.91 144.98 951.66 151.99 955.99 C 155.21 957.98 159.66 959.49 162.83 956.55 C 159.15 952.39 153.23 951.07 148.71 947.95 C 151.32 945.44 154.40 947.78 156.81 949.25 C 162.43 953.00 168.31 956.32 173.98 960.00 C 176.69 961.96 180.59 962.52 183.24 960.12 C 181.00 958.43 178.61 956.97 176.16 955.62 C 176.87 955.46 178.29 955.13 179.00 954.96 C 185.14 957.80 190.49 962.35 197.02 964.26 C 207.69 964.15 218.38 962.97 229.08 963.47 C 224.58 968.39 220.99 974.04 216.87 979.25 C 216.89 979.68 216.92 980.55 216.94 980.98 C 220.75 979.33 223.53 976.16 226.15 973.07 C 235.14 963.24 243.70 952.92 254.04 944.44 C 254.08 945.21 254.17 946.73 254.21 947.49 C 249.02 953.86 242.87 959.38 238.01 966.03 C 227.65 979.26 219.43 994.04 212.56 1009.34 C 203.73 1010.04 194.84 1010.99 186.00 1009.97 C 183.42 1009.70 180.86 1009.14 178.26 1009.28 C 176.80 1010.30 175.75 1011.76 174.60 1013.09 C 168.37 1012.00 162.01 1011.94 155.80 1010.66 C 157.50 1009.13 158.97 1007.37 160.39 1005.60 C 156.33 1005.62 152.92 1007.86 149.85 1010.27 C 147.07 1008.94 144.04 1008.31 141.03 1007.82 C 135.48 1006.87 130.08 1004.72 124.37 1005.14 C 120.13 1001.67 114.51 1000.83 109.87 998.06 C 105.37 995.30 99.99 994.72 94.92 993.77 C 83.75 995.65 72.96 999.63 62.95 1004.93 C 55.45 1008.22 48.28 1012.21 41.56 1016.91 C 33.23 1011.45 22.70 1006.47 20.30 995.80 C 23.42 996.61 26.55 997.42 29.73 997.96 C 34.81 991.39 42.60 987.86 49.31 983.27 C 60.22 975.72 72.08 969.71 84.00 963.96 C 91.89 960.10 99.54 955.62 107.97 953.01 C 111.62 951.97 115.13 949.80 118.98 949.88 C 123.19 951.46 126.88 954.34 131.48 954.87 C 131.98 953.59 132.36 952.29 132.61 950.96 C 131.43 948.40 128.42 948.08 126.09 947.21 Z"
     id="path98" />
  <path
     fill="#fefefe"
     d=" M 477.19 967.96 C 481.13 965.78 485.66 965.17 490.10 965.38 C 490.42 966.03 491.06 967.34 491.38 968.00 C 489.41 973.68 485.61 978.39 482.09 983.16 C 479.50 987.54 477.46 994.20 481.74 998.22 C 486.13 1004.04 493.82 1004.70 500.28 1006.68 C 498.66 1009.09 496.96 1011.44 495.36 1013.86 C 491.39 1012.34 487.94 1009.86 484.36 1007.62 C 482.86 1006.56 480.92 1006.82 479.21 1006.98 C 474.72 1007.69 470.54 1009.62 466.49 1011.61 C 462.78 1013.97 458.42 1011.67 454.57 1010.86 C 456.33 1006.94 459.19 1002.51 456.39 998.33 C 459.75 995.15 462.27 991.13 464.04 986.88 C 465.61 983.05 467.89 979.50 468.75 975.41 C 469.48 971.25 473.93 969.73 477.19 967.96 Z"
     id="path100" />
  <path
     fill="#727a6d"
     d=" M 734.33 970.42 C 741.92 969.72 749.36 967.66 756.93 967.18 C 761.11 969.40 764.46 972.93 767.71 976.32 C 774.47 984.06 780.46 992.42 786.08 1001.02 C 788.39 1004.23 786.61 1008.25 785.54 1011.60 C 784.47 1014.16 783.33 1017.86 779.92 1017.66 C 777.24 1014.16 773.91 1009.94 769.03 1010.16 C 765.21 1009.72 761.74 1011.49 758.39 1013.04 C 756.29 1009.02 753.31 1005.27 749.02 1003.51 C 745.47 1003.48 742.15 1005.07 738.79 1006.03 C 735.98 1001.34 733.11 996.49 732.26 991.00 C 730.89 984.09 732.79 977.13 734.33 970.42 Z"
     id="path102" />
  <path
     fill="#727a6d"
     d=" M 768.80 973.03 C 773.26 970.94 778.16 970.03 783.01 969.34 C 786.49 968.75 788.64 972.05 790.87 974.13 C 800.27 984.29 809.69 994.74 816.45 1006.91 C 815.90 1011.55 812.57 1015.32 808.53 1017.40 C 805.90 1018.53 803.16 1017.25 800.61 1016.58 C 797.07 1015.46 793.32 1015.65 789.67 1015.68 C 790.10 1011.22 791.00 1006.67 790.24 1002.22 C 783.64 992.11 776.67 982.21 768.80 973.03 Z"
     id="path104" />
  <path
     fill="#727a6d"
     d=" M 815.90 973.91 C 818.82 972.91 822.26 973.23 824.68 975.28 C 829.00 978.84 831.39 984.06 834.44 988.65 C 837.83 993.76 840.95 999.61 840.53 1005.95 C 840.47 1008.90 838.29 1011.47 835.86 1012.92 C 831.07 1014.29 825.94 1014.75 821.01 1014.09 C 819.35 1010.12 819.77 1005.42 817.14 1001.86 C 811.66 994.01 805.75 986.47 799.65 979.11 C 804.89 976.86 810.47 975.62 815.90 973.91 Z"
     id="path106" />
  <path
     fill="#040405"
     d=" M 103.63 991.69 C 107.77 990.45 111.79 988.83 116.01 987.90 C 117.71 986.99 118.71 988.72 119.44 989.91 C 112.54 992.47 105.35 995.17 97.85 993.84 C 99.55 992.56 101.66 992.30 103.63 991.69 Z"
     id="path108" />
  <path
     fill="#050608"
     d=" M 135.18 995.20 C 136.16 996.11 137.14 997.02 138.12 997.95 C 134.51 1000.32 130.76 1002.50 126.76 1004.16 C 126.37 1004.08 125.58 1003.94 125.18 1003.87 C 125.03 1003.15 124.73 1001.70 124.58 1000.97 C 128.14 999.11 131.63 997.10 135.18 995.20 Z"
     id="path110" />
  <path
     fill="#04080b"
     d=" M 149.85 1010.27 C 152.92 1007.86 156.33 1005.62 160.39 1005.60 C 158.97 1007.37 157.50 1009.13 155.80 1010.66 C 154.78 1011.51 153.76 1012.35 152.72 1013.19 C 151.76 1012.21 150.80 1011.24 149.85 1010.27 Z"
     id="path112" />
  <path
     fill="#727a6d"
     d=" M 730.20 1012.93 C 736.09 1011.26 741.80 1008.64 747.96 1008.15 C 750.08 1008.09 751.22 1010.22 752.34 1011.71 C 759.85 1023.76 765.74 1036.75 770.78 1050.00 C 769.24 1055.77 773.26 1061.01 773.98 1066.63 C 769.02 1069.14 763.42 1069.48 757.97 1069.39 C 756.37 1062.82 755.43 1055.85 751.90 1049.98 C 750.79 1047.80 748.14 1047.87 746.08 1047.52 C 743.37 1043.08 741.83 1038.07 739.33 1033.54 C 735.80 1026.90 732.41 1020.14 730.20 1012.93 Z"
     id="path114" />
  <path
     fill="#030508"
     d=" M 178.26 1009.28 C 180.86 1009.14 183.42 1009.70 186.00 1009.97 C 194.84 1010.99 203.73 1010.04 212.56 1009.34 L 211.96 1010.37 C 205.70 1011.77 199.49 1013.82 193.02 1013.81 C 187.68 1013.80 182.35 1014.19 177.02 1014.24 C 176.41 1013.95 175.20 1013.38 174.60 1013.09 C 175.75 1011.76 176.80 1010.30 178.26 1009.28 Z"
     id="path116" />
  <path
     fill="#727a6d"
     d=" M 759.91 1016.14 C 763.00 1015.11 766.40 1012.74 769.67 1014.44 C 774.36 1016.63 776.35 1021.78 779.41 1025.63 C 787.44 1036.11 792.64 1048.35 798.81 1059.95 C 793.66 1061.32 788.46 1062.54 783.14 1062.93 C 781.52 1057.40 779.63 1051.94 777.16 1046.74 C 775.98 1046.32 774.80 1045.93 773.64 1045.54 C 769.58 1035.51 764.96 1025.71 759.91 1016.14 Z"
     id="path118" />
  <path
     fill="#020508"
     d=" M 646.26 1030.30 C 650.66 1028.18 654.61 1023.62 659.97 1025.03 C 666.40 1026.78 672.35 1029.89 678.49 1032.45 C 680.87 1033.61 683.88 1034.28 685.16 1036.87 C 675.95 1035.67 667.86 1030.62 658.97 1028.35 C 651.78 1028.62 646.19 1033.70 640.42 1037.38 C 636.91 1039.46 633.97 1043.24 629.52 1042.98 C 633.89 1037.43 640.41 1034.07 646.26 1030.30 Z"
     id="path120" />
  <path
     fill="#8197a4"
     d=" M 775.28 1049.97 C 778.13 1056.83 781.11 1063.74 782.68 1071.02 C 780.73 1070.62 780.42 1068.70 779.80 1067.23 C 778.02 1061.56 774.50 1056.16 775.28 1049.97 Z"
     id="path122" />
  <path
     fill="#8197a4"
     d=" M 748.58 1053.85 C 748.89 1053.39 749.52 1052.45 749.84 1051.98 C 752.15 1058.43 755.09 1064.67 756.49 1071.44 C 755.86 1071.55 754.59 1071.77 753.96 1071.88 C 753.06 1065.62 751.10 1059.63 748.58 1053.85 Z"
     id="path124" />
  <path
     fill="#6f7a70"
     d=" M 697.58 1062.24 C 694.36 1061.01 691.57 1056.36 695.10 1053.81 C 696.59 1056.38 697.38 1059.27 697.58 1062.24 Z"
     id="path126" />
  <path
     fill="#8197a4"
     d=" M 801.03 1056.90 C 801.62 1056.80 802.80 1056.61 803.39 1056.51 C 804.46 1059.71 805.69 1062.86 806.78 1066.06 C 802.89 1065.06 802.67 1059.96 801.03 1056.90 Z"
     id="path128" />
  <path
     fill="#6f7a70"
     d=" M 637.15 1070.04 C 637.87 1072.37 638.39 1074.79 638.45 1077.26 C 636.93 1075.15 637.09 1072.48 637.15 1070.04 Z"
     id="path130" />
  <path
     fill="#8197a4"
     d=" M 739.15 1080.96 C 742.33 1082.52 743.97 1085.82 745.66 1088.76 C 742.15 1087.55 740.37 1084.20 739.15 1080.96 Z"
     id="path132" />
  <path
     fill="#8197a4"
     d=" M 700.49 1081.80 C 704.75 1084.65 707.35 1089.31 708.77 1094.14 C 709.68 1095.50 707.90 1096.22 707.10 1096.89 C 705.71 1092.36 704.09 1087.77 700.60 1084.39 C 700.57 1083.75 700.52 1082.45 700.49 1081.80 Z"
     id="path134" />
  <path
     fill="#8197a4"
     d=" M 640.12 1084.55 C 643.63 1088.26 643.93 1093.49 644.23 1098.33 C 641.10 1094.48 641.69 1089.06 640.12 1084.55 Z"
     id="path136" />
</svg>
