<?xml version="1.0" standalone="no"?>
<!DOCTYPE svg PUBLIC "-//W3C//DTD SVG 20010904//EN"
 "http://www.w3.org/TR/2001/REC-SVG-20010904/DTD/svg10.dtd">
<svg version="1.0" xmlns="http://www.w3.org/2000/svg"
 width="468pt" height="149pt" viewBox="0 0 468 149"
 preserveAspectRatio="xMidYMid meet">
<metadata>
Created by potrace 1.8, written by Peter Selinger 2001-2007
</metadata>
<g transform="translate(0,149) scale(0.090874,-0.090874)"
fill="#000000" stroke="none">
<path d="M4230 1544 c-149 -53 -274 -222 -300 -406 -6 -37 -15 -89 -20 -115
-7 -28 -9 -115 -6 -214 4 -156 7 -175 37 -261 17 -51 56 -134 85 -184 46 -79
62 -97 116 -132 84 -54 111 -64 188 -65 55 -1 76 4 135 33 93 45 136 77 250
187 45 44 101 167 115 254 5 30 14 77 20 104 26 120 18 319 -16 401 -8 18 -14
44 -14 56 0 13 -18 48 -40 78 -22 30 -46 69 -54 85 -21 44 -134 150 -181 170
-58 25 -254 31 -315 9z m75 -34 c7 -11 -47 -111 -70 -130 -8 -7 -15 -17 -15
-22 0 -5 -11 -24 -25 -42 -14 -18 -25 -37 -25 -43 0 -5 -9 -18 -19 -27 -11
-10 -25 -32 -32 -49 -7 -18 -33 -63 -58 -102 -24 -38 -54 -85 -65 -102 -58
-91 -41 29 21 146 58 110 88 162 100 170 6 3 32 43 58 89 60 103 109 145 130
112z m121 -5 c3 -8 -6 -39 -20 -70 -24 -54 -26 -55 -65 -55 -23 0 -41 5 -41
10 0 12 45 86 68 113 18 21 51 22 58 2z m106 -21 c26 -14 30 -20 25 -48 -6
-39 -45 -106 -60 -106 -7 1 -25 11 -40 24 l-28 22 28 62 c15 34 31 62 36 62 4
0 22 -7 39 -16z m-429 -125 c-45 -83 -51 -92 -68 -101 -36 -21 14 98 61 145
38 39 41 20 7 -44z m537 36 c7 -8 10 -23 7 -32 -14 -45 -57 -138 -65 -141 -5
-1 -17 9 -26 23 -15 22 -15 32 -6 61 16 46 52 103 66 104 6 0 17 -7 24 -15z
m-205 -89 c35 -23 71 -75 89 -126 55 -167 64 -286 32 -445 -24 -121 -56 -178
-115 -208 -60 -31 -102 -23 -152 30 -69 75 -135 310 -124 443 8 89 46 220 79
269 46 69 120 83 191 37z m277 -13 c40 -46 40 -58 3 -114 -19 -30 -35 -58 -35
-64 0 -6 -13 -26 -29 -45 l-29 -35 -11 40 c-13 49 -14 60 -2 83 5 9 23 47 40
85 16 37 34 67 39 67 5 0 16 -8 24 -17z m73 -153 c10 -33 -131 -307 -149 -289
-13 13 -10 103 3 107 7 2 21 21 30 41 71 151 101 188 116 141z m-694 -155
c-17 -36 -31 -67 -31 -70 0 -13 -83 -135 -91 -135 -17 0 -9 65 14 107 47 88
101 179 116 197 30 35 25 -29 -8 -99z m721 -43 c-6 -9 -25 -43 -41 -74 -17
-32 -41 -73 -54 -90 -13 -18 -36 -55 -52 -82 -15 -27 -44 -71 -64 -97 -20 -26
-47 -70 -61 -96 -14 -26 -43 -75 -66 -108 -23 -33 -47 -77 -54 -97 -18 -50
-55 -88 -86 -88 -53 0 -38 48 67 205 32 49 56 75 73 79 14 3 41 27 61 53 34
45 41 60 48 113 6 40 25 79 60 123 32 40 60 83 89 137 7 14 25 42 38 62 l25
38 15 -31 c11 -24 12 -34 2 -47z m-682 -100 c0 -31 -9 -56 -34 -95 -18 -28
-48 -76 -66 -104 -17 -29 -36 -51 -40 -48 -5 3 -12 25 -15 49 -7 45 -11 38 77
168 10 15 18 30 18 34 0 3 10 19 21 36 26 36 39 24 39 -40z m677 -77 c-5 -16
-18 -39 -27 -50 -10 -11 -29 -41 -42 -66 -12 -26 -45 -80 -71 -120 -27 -40
-53 -84 -58 -98 -31 -80 -144 -209 -166 -188 -6 6 40 102 70 144 12 17 45 68
72 113 28 45 59 94 71 108 11 15 36 54 54 87 19 33 38 65 42 70 5 6 18 23 30
39 20 26 22 27 28 10 4 -10 3 -32 -3 -49z m-648 -67 c22 -60 22 -63 -40 -161
-57 -92 -62 -97 -79 -82 -28 25 -34 75 -12 99 11 12 34 48 52 81 52 95 64 104
79 63z m591 -160 c-33 -88 -58 -126 -99 -148 -26 -13 -26 -14 0 40 33 68 97
155 107 145 3 -2 -1 -19 -8 -37z m-519 1 c23 -33 21 -43 -22 -109 -9 -14 -29
-47 -44 -74 l-28 -50 -23 30 c-13 16 -24 37 -24 47 0 34 90 187 110 187 5 0
19 -14 31 -31z m122 -102 c-2 -36 -104 -197 -124 -197 -9 0 -24 9 -35 21 -18
20 -18 22 20 92 65 119 71 126 108 118 28 -6 33 -11 31 -34z"/>
<path d="M3190 1496 c-3 -3 -46 -7 -95 -10 -152 -9 -244 -21 -257 -34 -10 -10
-13 -110 -14 -450 -1 -446 -5 -541 -30 -601 -11 -26 -12 -37 -2 -48 7 -9 12
-51 13 -106 0 -51 3 -97 7 -103 4 -6 21 -9 38 -6 20 3 37 -2 50 -13 17 -16 22
-16 62 -2 46 17 132 28 243 32 154 5 255 18 363 45 183 47 220 91 229 270 11
199 -32 306 -171 429 -38 33 -70 41 -198 50 -16 2 -7 22 27 60 46 51 76 136
69 200 -6 68 -54 162 -102 200 -69 54 -212 108 -232 87z m-87 -52 c8 -8 -11
-50 -47 -104 -17 -25 -42 -65 -55 -90 -82 -155 -119 -205 -122 -165 -6 81 0
115 24 124 12 5 34 33 50 62 15 30 39 72 53 94 13 22 29 50 34 63 9 21 48 31
63 16z m176 -3 c12 -8 12 -14 1 -40 -7 -17 -18 -31 -24 -31 -19 0 -34 33 -25
58 9 23 25 28 48 13z m-306 -17 c7 -7 -34 -93 -67 -139 l-21 -30 -5 35 c-5 27
0 42 18 64 26 33 25 50 -6 54 -12 2 -20 8 -17 13 7 10 88 13 98 3z m411 -35
c14 -11 26 -25 26 -31 0 -20 -91 -149 -103 -145 -6 2 -19 18 -29 36 -17 29
-17 35 -5 50 8 9 18 26 21 38 8 25 44 73 55 73 5 0 20 -9 35 -21z m-236 -54
c-1 -9 -17 -23 -34 -30 -31 -13 -32 -13 -20 9 27 51 63 66 54 21z m83 -8 c-10
-9 -11 -8 -5 6 3 10 9 15 12 12 3 -3 0 -11 -7 -18z m239 -83 c0 -21 -5 -34
-13 -34 -6 0 -34 -42 -61 -92 -27 -51 -71 -127 -100 -169 -28 -42 -69 -104
-91 -137 -22 -34 -47 -64 -56 -67 -23 -8 -56 -56 -70 -105 -7 -24 -40 -81 -74
-127 -33 -46 -78 -109 -100 -140 l-40 -56 -3 51 c-3 56 14 98 76 186 20 28 65
94 99 146 34 52 72 109 83 125 11 17 33 50 49 75 62 100 110 176 118 185 25
32 103 155 103 163 0 6 12 20 26 31 34 27 54 13 54 -35z m-249 4 c31 -38 35
-85 9 -113 -73 -78 -180 -46 -176 53 1 29 6 36 36 46 19 7 44 17 55 24 31 18
55 14 76 -10z m226 -185 c-29 -44 -67 -86 -73 -80 -8 7 43 108 67 134 23 24
24 24 27 5 2 -11 -8 -38 -21 -59z m-433 49 c4 -11 -13 -53 -45 -109 -47 -85
-88 -138 -90 -117 -7 61 -4 86 11 97 17 12 36 42 74 115 18 35 42 42 50 14z
m71 -66 c20 -14 29 3 -122 -239 -68 -110 -93 -127 -93 -65 0 22 16 55 50 104
28 40 53 81 58 91 12 29 74 123 82 123 3 0 14 -6 25 -14z m125 5 c0 -5 -18
-38 -40 -72 -22 -35 -45 -73 -50 -84 -28 -56 -230 -345 -242 -345 -12 0 -10
38 3 63 24 45 233 352 247 363 8 6 12 16 9 22 -4 5 7 22 24 36 31 27 49 33 49
17z m129 -160 c11 -7 8 -20 -18 -65 -32 -54 -50 -66 -79 -48 -9 6 -2 23 28 65
43 60 46 62 69 48z m121 -3 c0 -16 -58 -128 -76 -147 -11 -12 -16 -12 -28 -1
-19 15 -20 37 -3 55 6 7 24 33 39 59 18 31 34 46 48 46 11 0 20 -6 20 -12z
m116 -19 c15 -16 16 -23 6 -37 -6 -9 -23 -39 -36 -67 -24 -47 -43 -75 -93
-134 l-22 -26 -16 38 c-16 38 -16 38 22 100 20 34 43 69 50 78 7 8 13 25 13
36 0 36 47 44 76 12z m88 -81 c9 -12 16 -28 16 -36 0 -18 -92 -171 -190 -317
-45 -66 -93 -139 -108 -162 -15 -23 -37 -46 -50 -52 -24 -11 -82 -15 -82 -6 0
15 101 179 119 195 3 3 14 23 24 44 10 21 37 64 61 95 24 31 49 67 56 81 33
63 115 180 126 180 7 0 20 -10 28 -22z m-364 -81 c28 -14 79 -101 80 -135 0
-64 -66 -121 -146 -125 -46 -2 -48 -1 -71 41 -14 24 -27 67 -30 96 -5 51 -4
53 37 94 47 45 82 53 130 29z m438 -82 c10 -46 9 -52 -13 -75 -13 -14 -34 -45
-46 -70 -20 -37 -109 -159 -169 -230 -16 -19 -83 -35 -101 -25 -6 4 -1 19 14
38 13 18 27 41 31 53 3 11 19 35 34 51 15 17 38 50 52 73 14 22 39 60 56 83
16 23 41 60 54 82 31 53 62 87 71 78 4 -5 12 -30 17 -58z m-648 -114 c23 -43
14 -65 -94 -228 -55 -85 -63 -93 -93 -93 -17 0 -34 4 -38 10 -12 20 181 330
207 330 4 0 12 -9 18 -19z m657 -86 c-4 -42 -13 -65 -37 -95 -34 -43 -49 -53
-92 -64 -18 -4 -28 -2 -28 5 0 17 140 209 152 209 7 0 9 -20 5 -55z m-558 -29
c7 -9 8 -16 2 -20 -5 -3 -28 -34 -51 -69 -62 -91 -89 -117 -123 -117 l-29 0
22 38 c12 20 42 69 68 109 38 59 52 72 73 73 15 0 32 -6 38 -14z m121 7 c0 -5
-11 -26 -25 -48 -13 -22 -31 -52 -40 -67 -25 -44 -64 -78 -90 -78 -19 0 -23 4
-18 18 14 36 137 182 155 182 10 0 18 -3 18 -7z"/>
<path d="M2325 1415 c-5 -2 -66 -9 -133 -14 -68 -6 -130 -15 -137 -21 -9 -7
-11 -34 -8 -98 3 -48 1 -116 -5 -152 -28 -170 -34 -195 -52 -230 -39 -76 -103
-99 -182 -66 -62 26 -62 27 -64 265 -1 221 -7 280 -27 283 -7 1 -83 2 -169 2
-108 1 -159 -3 -162 -10 -2 -6 0 -85 4 -175 12 -214 30 -741 33 -944 l2 -160
60 2 c255 7 292 14 280 54 -10 30 -7 149 3 162 6 7 10 28 10 47 1 98 98 210
182 210 76 0 135 -139 148 -349 l7 -106 55 3 c30 1 111 4 180 6 l125 3 -2 49
c-3 51 -20 306 -28 409 -2 33 -7 119 -10 190 -3 72 -11 211 -17 310 -6 99 -11
208 -10 242 1 44 -3 66 -14 77 -14 15 -45 19 -69 11z m5 -64 c0 -10 -15 -38
-33 -62 -33 -44 -141 -215 -148 -234 -2 -6 -20 -34 -39 -63 -33 -49 -35 -51
-38 -27 -5 39 15 122 37 153 10 15 49 78 86 140 64 108 67 112 101 112 26 0
34 -4 34 -19z m-684 -16 c7 -17 -97 -234 -148 -310 l-33 -50 -7 65 c-7 57 -5
67 11 80 10 8 24 33 31 54 23 71 68 152 92 164 32 15 48 14 54 -3z m536 -10
c-5 -24 -62 -108 -70 -101 -7 7 -4 105 4 118 3 5 20 8 37 6 25 -2 31 -7 29
-23z m-672 -7 c0 -21 -42 -98 -50 -93 -18 11 -12 93 7 103 19 11 43 5 43 -10z
m841 -80 c0 -13 2 -31 4 -41 3 -17 -18 -62 -63 -137 -12 -19 -26 -44 -31 -55
-5 -12 -16 -27 -25 -34 -9 -7 -16 -18 -16 -24 0 -6 -21 -44 -47 -86 -27 -42
-55 -87 -63 -102 -42 -70 -87 -129 -108 -138 -24 -12 -72 -15 -72 -5 0 11 104
187 150 253 42 62 100 151 100 155 0 4 45 78 106 173 41 65 63 79 65 41z
m-661 -45 c0 -51 -5 -66 -44 -128 -25 -38 -53 -81 -63 -95 -11 -14 -31 -46
-45 -71 -35 -60 -56 -78 -69 -58 -17 27 -10 69 14 80 12 6 36 39 54 77 29 61
78 153 119 225 23 42 34 33 34 -30z m674 -149 c20 -52 -33 -190 -111 -291 -16
-21 -53 -74 -83 -118 -59 -90 -69 -99 -88 -83 -34 29 -32 44 13 111 24 36 51
81 61 99 9 18 24 42 34 53 10 11 30 43 45 70 15 28 36 64 48 81 12 18 30 46
39 63 19 34 33 39 42 15z m-674 -86 c0 -46 -6 -63 -48 -128 -26 -41 -51 -82
-54 -90 -10 -27 -98 -140 -108 -140 -11 0 -11 1 -14 79 -2 49 1 58 43 115 50
66 80 109 96 135 59 96 85 105 85 29z m694 -139 c17 -87 11 -103 -88 -237 -52
-70 -105 -141 -118 -159 -13 -18 -27 -31 -32 -30 -5 2 -14 23 -20 48 -11 42
-10 46 24 90 19 26 67 97 105 159 110 175 118 183 129 129z m-654 -4 c17 -9
30 -18 30 -21 0 -14 -40 -78 -109 -176 -42 -59 -86 -122 -98 -140 -37 -55 -64
-88 -73 -88 -15 0 -17 124 -2 133 7 5 23 23 35 42 142 212 178 265 183 265 3
0 18 -7 34 -15z m250 -18 c0 -8 -40 -79 -73 -128 -20 -31 -37 -60 -37 -66 0
-9 -54 -53 -65 -53 -14 0 100 180 123 193 7 5 17 20 22 33 5 13 14 24 20 24 5
0 10 -1 10 -3z m-111 -26 c10 -7 3 -24 -34 -82 -26 -41 -53 -81 -59 -90 -71
-102 -171 -252 -218 -329 -52 -85 -56 -96 -42 -110 14 -13 17 -13 35 9 10 13
19 30 19 38 0 7 9 26 19 41 11 15 45 68 77 117 31 50 59 84 61 77 3 -7 0 -36
-7 -65 -6 -29 -13 -62 -15 -73 -3 -12 -23 -43 -45 -70 -22 -27 -40 -57 -40
-66 0 -10 -3 -18 -7 -19 -5 0 -24 -2 -43 -4 -19 -2 -48 -5 -65 -7 l-30 -3 -3
102 c-3 99 -2 102 20 105 13 2 29 16 38 33 8 17 40 64 71 105 30 41 86 120
123 175 38 55 73 106 78 113 12 14 47 16 67 3z m530 -225 c1 -19 -7 -34 -24
-48 -14 -11 -33 -34 -42 -51 -8 -18 -28 -46 -42 -63 -56 -67 -67 -80 -89 -113
-24 -35 -23 -68 2 -54 8 4 27 25 43 45 97 129 129 167 141 168 8 0 12 -15 12
-45 0 -25 -4 -45 -10 -45 -5 0 -17 -14 -26 -32 -49 -94 -95 -137 -166 -152
-31 -7 -34 -1 -43 96 l-6 67 72 98 c40 54 93 122 118 152 44 52 46 53 52 30 4
-13 7 -37 8 -53z m17 -300 c11 -45 2 -61 -39 -64 -20 -2 -37 0 -37 3 0 19 48
85 62 85 4 0 10 -11 14 -24z m-726 -71 c0 -8 -4 -15 -10 -15 -5 0 -7 7 -4 15
4 8 8 15 10 15 2 0 4 -7 4 -15z"/>
<path d="M860 1339 c-29 -8 -174 -15 -510 -23 l-55 -1 -7 -120 c-4 -87 -11
-916 -8 -1082 0 -8 30 -12 98 -12 53 -1 166 -6 251 -12 84 -5 160 -8 169 -4 8
3 62 0 119 -6 83 -9 107 -8 119 2 22 18 15 296 -9 353 -17 37 -18 38 -55 31
-20 -4 -50 -9 -67 -12 -16 -3 -33 -11 -37 -17 -5 -8 -8 -7 -8 2 0 8 -21 12
-73 12 -56 0 -76 4 -89 18 -9 9 -24 23 -32 30 -21 17 -20 66 0 97 25 38 80 51
156 35 35 -7 76 -19 91 -27 15 -8 32 -11 37 -8 13 8 5 179 -10 235 -14 51 -29
57 -83 32 -56 -26 -148 -37 -192 -22 -45 15 -85 63 -85 102 0 33 62 103 117
131 74 39 204 27 274 -25 38 -28 56 -18 65 37 9 65 -1 232 -16 250 -14 17
-103 19 -160 4z m10 -54 c0 -2 -23 -36 -51 -75 -39 -54 -57 -70 -76 -70 -27 0
-27 0 20 69 41 60 63 81 87 81 11 0 20 -2 20 -5z m108 -20 c2 -13 -5 -24 -20
-30 -13 -5 -33 -29 -46 -52 -18 -32 -30 -43 -48 -43 -30 0 -30 6 2 55 59 89
105 117 112 70z m-493 5 c3 -5 -9 -38 -28 -72 -71 -133 -109 -198 -118 -204
-5 -3 -9 15 -9 40 0 43 10 69 70 171 41 71 69 92 85 65z m119 4 c18 -7 11 -21
-94 -199 -29 -49 -69 -119 -88 -155 -18 -36 -46 -81 -60 -100 l-27 -35 -7 40
c-11 64 -9 77 12 82 13 3 38 43 74 117 61 122 64 128 119 204 38 53 44 56 71
46z m-234 -13 c0 -21 -13 -41 -26 -41 -14 0 -19 31 -7 43 10 10 33 8 33 -2z
m370 4 c0 -14 -108 -166 -153 -215 -33 -35 -63 -80 -77 -116 -13 -33 -38 -88
-56 -124 -17 -36 -33 -70 -35 -75 -9 -24 -74 -125 -81 -125 -25 0 18 124 72
210 5 8 43 74 84 145 72 128 122 209 168 272 16 23 31 33 51 33 15 0 27 -2 27
-5z m240 -110 c0 -23 -6 -38 -16 -42 -28 -10 -36 12 -17 45 23 41 33 40 33 -3z
m-410 -320 l23 -25 -19 -41 c-10 -23 -35 -66 -56 -96 -21 -30 -38 -56 -38 -58
0 -15 -144 -234 -151 -229 -16 9 -11 101 6 108 8 3 15 15 15 26 0 11 11 37 24
58 13 21 33 58 45 82 55 112 108 200 119 200 5 0 19 -11 32 -25z m262 -31 c4
-3 0 -22 -8 -41 -24 -55 3 -92 28 -38 6 14 17 25 24 25 15 0 29 -59 17 -71
-11 -11 -173 10 -173 23 0 4 16 30 36 58 32 45 60 61 76 44z m-122 -25 c0 -6
-10 -24 -22 -39 -66 -83 -158 -222 -158 -238 0 -6 -9 -21 -121 -189 -64 -97
-93 -129 -90 -100 1 4 1 37 1 73 0 57 2 65 15 54 8 -6 18 -9 24 -6 8 5 96 157
110 190 2 5 10 16 17 25 7 9 38 54 68 101 82 127 93 140 127 140 16 0 29 -5
29 -11z m-96 -301 c27 -38 26 -40 -75 -173 -14 -19 -46 -64 -69 -100 -37 -54
-48 -65 -72 -65 -46 0 -39 23 47 155 22 34 60 94 85 133 25 39 50 71 57 72 6
0 19 -10 27 -22z m120 -68 l26 -9 -52 -80 c-28 -44 -74 -105 -102 -137 -50
-55 -53 -57 -89 -50 -37 7 -37 7 -23 34 8 15 38 59 66 97 29 39 55 77 58 85 7
19 63 69 79 70 6 0 23 -4 37 -10z m164 -42 c-67 -110 -159 -223 -191 -235 -40
-14 -48 -15 -66 -4 -12 8 -8 18 17 59 18 27 41 57 52 67 11 10 20 24 20 31 0
7 6 17 13 21 6 4 29 29 50 55 37 46 44 50 119 56 15 2 12 -7 -14 -50z m88 -14
c5 -18 1 -32 -13 -47 -11 -12 -36 -52 -57 -89 -20 -37 -46 -74 -59 -83 -28
-20 -77 -20 -77 0 0 8 4 15 8 15 4 0 16 15 27 33 10 17 27 41 37 52 38 43 58
68 58 76 0 11 50 69 61 69 5 0 12 -11 15 -26z m14 -185 l0 -49 -45 0 c-38 0
-43 2 -38 18 10 26 67 91 75 86 5 -3 8 -27 8 -55z"/>
<path d="M3880 353 c-8 -3 -27 -17 -42 -31 -34 -32 -36 -71 -5 -100 35 -33 69
-36 123 -12 76 33 83 63 30 116 -33 33 -66 42 -106 27z m68 -56 c36 -29 -26
-86 -66 -61 -40 25 -13 92 32 78 11 -3 27 -11 34 -17z"/>
<path d="M4793 346 c-26 -19 -38 -81 -24 -119 22 -57 126 -71 182 -24 41 34
45 75 11 115 -24 29 -35 34 -87 39 -45 3 -65 1 -82 -11z m125 -53 c20 -27 14
-51 -16 -67 -34 -18 -79 -10 -87 15 -7 22 3 61 19 72 17 11 69 -1 84 -20z"/>
<path d="M1175 305 c-48 -25 -65 -52 -65 -105 0 -60 14 -72 86 -74 49 -1 58 2
80 27 13 15 24 39 24 53 0 38 -36 101 -62 108 -31 8 -29 8 -63 -9z m67 -70
c22 -49 -26 -94 -70 -66 -22 14 -10 64 18 78 35 18 39 16 52 -12z"/>
<path d="M2580 298 c-29 -20 -35 -30 -38 -65 -4 -56 9 -77 57 -93 52 -17 93
-1 126 48 20 29 22 38 12 61 -17 42 -39 60 -82 66 -32 5 -47 2 -75 -17z m102
-53 c16 -35 -13 -67 -56 -63 -26 2 -32 8 -34 31 -4 37 13 57 49 57 22 0 32 -7
41 -25z"/>
</g>
</svg>
