<?xml version="1.0" standalone="no"?>
<!DOCTYPE svg PUBLIC "-//W3C//DTD SVG 20010904//EN"
 "http://www.w3.org/TR/2001/REC-SVG-20010904/DTD/svg10.dtd">
<svg version="1.0" xmlns="http://www.w3.org/2000/svg"
 width="468pt" height="423pt" viewBox="0 0 468 423"
 preserveAspectRatio="xMidYMid meet">
<metadata>
Created by potrace 1.8, written by Peter Selinger 2001-2007
</metadata>
<g transform="translate(0,423) scale(0.045000,-0.045000)"
fill="#000000" stroke="none">
<path d="M5430 9109 c-85 -4 -175 -10 -200 -14 -25 -3 -76 -10 -115 -15 -66
-9 -142 -29 -245 -64 -65 -22 -159 -49 -205 -57 -100 -19 -192 -42 -217 -55
-15 -8 -50 -14 -78 -14 -28 0 -72 -9 -98 -19 -26 -10 -92 -33 -147 -51 -55
-17 -139 -51 -188 -76 -48 -24 -96 -44 -108 -44 -59 0 -292 -92 -354 -140 -20
-16 -200 -22 -290 -10 -49 7 -110 12 -135 12 -25 0 -62 4 -84 10 -37 9 -67 5
-181 -24 -51 -13 -121 -62 -139 -96 -22 -44 -29 -130 -13 -156 8 -11 17 -33
21 -48 3 -16 11 -28 16 -28 6 0 10 -4 10 -9 0 -5 15 -42 34 -83 43 -94 135
-342 188 -508 6 -19 11 -59 11 -88 0 -56 -23 -93 -73 -116 -33 -15 -124 -68
-130 -77 -3 -3 -23 -16 -45 -28 -22 -12 -62 -39 -89 -60 -27 -22 -69 -45 -93
-52 -25 -7 -60 -23 -79 -36 -19 -12 -39 -23 -44 -23 -6 0 -10 -4 -10 -9 0 -5
-14 -22 -30 -38 -16 -15 -30 -32 -30 -36 0 -7 -51 -66 -101 -116 -9 -9 -24
-31 -35 -48 -10 -18 -22 -33 -26 -33 -15 0 -28 -78 -28 -170 0 -115 16 -271
28 -279 5 -3 9 -33 9 -66 -1 -33 5 -78 11 -100 7 -22 14 -71 16 -110 2 -38 9
-82 14 -96 6 -14 9 -53 8 -86 -1 -54 -5 -63 -32 -86 -17 -14 -42 -42 -55 -61
-13 -20 -28 -36 -32 -36 -5 0 -25 -19 -45 -42 -20 -23 -64 -72 -97 -109 -88
-98 -126 -147 -117 -153 4 -2 35 25 67 60 156 169 283 284 315 284 42 0 79
-39 86 -90 3 -25 11 -50 16 -57 5 -6 15 -53 22 -103 12 -91 12 -92 -10 -100
-33 -13 -99 -86 -145 -160 -22 -36 -44 -72 -50 -80 -5 -8 -14 -26 -19 -40 -6
-14 -26 -50 -45 -80 -19 -30 -47 -80 -63 -111 -16 -30 -43 -74 -59 -97 -17
-23 -43 -72 -59 -109 -15 -38 -35 -77 -45 -88 -9 -11 -27 -38 -39 -60 -12 -22
-32 -58 -45 -80 -14 -22 -41 -73 -61 -114 -21 -40 -48 -84 -61 -97 -12 -13
-23 -30 -23 -40 0 -9 -9 -29 -21 -45 -15 -21 -17 -29 -7 -29 8 0 21 13 30 28
10 16 38 54 63 84 25 30 45 60 45 67 0 7 15 35 33 64 18 29 36 59 40 67 4 8
18 33 32 55 30 51 55 104 55 119 0 6 20 36 45 66 25 30 57 80 71 110 60 130
128 258 155 292 16 20 29 41 29 46 0 11 45 71 104 138 38 44 68 55 83 32 9
-16 51 -130 65 -178 10 -39 34 -97 48 -120 5 -8 24 -41 41 -73 47 -84 110
-131 207 -152 134 -30 299 -19 362 24 44 31 89 49 108 44 10 -2 38 3 62 11 52
18 62 12 85 -48 21 -53 14 -135 -18 -221 -11 -32 -77 -101 -140 -148 -20 -16
-48 -38 -61 -50 -13 -12 -56 -38 -95 -58 -93 -47 -183 -123 -295 -249 -82 -93
-101 -161 -74 -270 6 -25 10 -71 9 -102 -1 -32 5 -72 12 -90 20 -47 12 -336
-10 -371 -11 -17 -12 -214 -1 -286 9 -68 21 -89 87 -160 23 -24 41 -47 41 -51
0 -12 199 -183 243 -208 23 -14 56 -37 72 -52 62 -52 291 -150 316 -134 6 3
15 1 22 -4 13 -11 108 -30 209 -42 81 -10 261 -4 286 9 11 6 30 12 43 15 13 3
60 14 104 25 135 33 258 54 307 52 26 -1 64 3 85 8 21 6 68 13 105 16 37 3 78
9 92 15 19 7 30 5 48 -10 23 -18 23 -20 21 -241 -1 -122 -6 -243 -12 -268 -5
-25 -15 -77 -22 -116 -6 -38 -20 -113 -31 -165 -11 -52 -20 -107 -19 -122 1
-14 -4 -39 -10 -55 -6 -15 -15 -41 -19 -58 -5 -16 -22 -67 -39 -113 -17 -45
-33 -106 -37 -135 -4 -29 -13 -64 -20 -78 -7 -15 -18 -49 -24 -75 -6 -27 -15
-51 -19 -54 -10 -7 -71 -134 -71 -148 0 -18 -63 -136 -77 -145 -7 -4 -13 -12
-13 -17 0 -5 -11 -33 -24 -62 -13 -29 -27 -64 -31 -78 -4 -14 -26 -52 -49 -85
-49 -73 -77 -125 -71 -135 3 -4 14 -10 25 -13 23 -6 76 33 91 67 5 12 27 46
49 76 22 30 40 62 40 71 0 9 7 22 15 29 8 7 15 21 15 31 0 10 4 20 10 24 10 6
74 137 86 175 4 14 19 41 34 60 14 19 32 52 39 73 7 21 28 61 47 90 19 28 34
59 34 67 0 9 6 24 13 35 13 19 38 125 53 224 3 25 20 74 36 109 20 43 31 84
33 124 2 33 8 65 14 71 6 6 11 34 11 61 0 28 5 69 11 91 16 60 30 144 34 200
2 28 7 63 12 78 4 15 5 69 1 120 -9 130 7 329 32 375 11 21 25 49 32 65 7 15
20 27 30 27 10 0 25 15 35 34 10 19 35 60 56 90 20 30 53 85 73 121 19 37 57
97 85 133 27 36 49 72 49 82 0 9 16 47 35 86 19 38 33 74 31 80 -3 6 3 11 11
10 9 0 20 12 26 29 5 17 16 37 23 45 7 9 21 36 29 60 9 25 26 56 39 70 13 14
29 41 35 61 7 20 20 44 29 52 10 9 33 49 52 89 19 40 38 75 42 78 18 14 79
114 110 180 19 42 41 82 49 90 8 8 19 26 25 40 6 14 29 63 51 110 22 47 48
104 59 127 10 23 24 43 29 43 6 0 28 28 50 63 72 114 99 146 121 147 31 0 107
-36 130 -61 10 -12 39 -31 64 -42 25 -11 47 -23 50 -27 3 -3 37 -29 75 -58 39
-28 88 -65 111 -82 23 -16 48 -30 57 -30 10 0 17 -4 17 -10 0 -5 6 -10 13 -10
6 0 48 -25 92 -55 44 -30 84 -55 89 -55 12 0 119 -53 126 -62 12 -15 94 -38
103 -29 15 15 -1 30 -53 45 -28 8 -65 26 -82 39 -18 13 -55 35 -82 48 -27 13
-62 36 -78 51 -16 15 -46 37 -66 50 -20 12 -44 29 -52 38 -8 9 -33 29 -55 46
-51 37 -71 53 -109 85 -30 26 -104 64 -118 61 -4 -1 -15 9 -24 22 -8 14 -40
43 -70 66 -30 23 -60 53 -67 67 -10 24 -6 30 96 126 67 65 112 116 121 140 32
81 -25 36 -201 -158 -26 -29 -69 -55 -91 -55 -11 0 -44 23 -75 50 -30 28 -91
72 -134 99 -142 87 -164 101 -215 151 -29 28 -56 50 -62 50 -5 0 -7 3 -4 6 4
3 2 20 -3 37 -11 33 -13 50 -24 157 -3 36 -13 90 -21 121 -7 31 -14 67 -13 80
1 33 -20 149 -32 174 -5 12 -6 32 -1 50 6 19 3 61 -6 115 -13 80 -25 105 -44
94 -4 -3 -8 -1 -8 3 0 5 9 14 20 21 11 7 20 19 20 26 0 19 35 30 68 21 15 -4
36 -8 47 -9 43 -4 222 -38 250 -48 17 -5 39 -11 50 -13 11 -2 54 -15 95 -30
41 -15 84 -29 95 -32 11 -3 52 -18 90 -33 39 -16 90 -34 115 -41 25 -7 55 -19
66 -26 12 -8 34 -12 48 -9 15 3 24 1 21 -3 -2 -5 17 -14 43 -21 26 -7 52 -17
58 -22 7 -5 28 -11 47 -13 19 -3 46 -9 61 -14 14 -6 65 -20 113 -31 49 -12 97
-27 108 -34 11 -7 33 -16 50 -20 16 -4 48 -16 72 -27 23 -10 47 -19 53 -19 6
0 51 -20 100 -45 69 -35 90 -50 90 -66 0 -28 -75 -60 -154 -66 -33 -2 -83 -12
-111 -20 -97 -31 -135 -46 -135 -54 0 -4 -10 -11 -22 -15 -12 -3 -43 -22 -70
-40 -26 -19 -52 -34 -58 -34 -5 0 -27 -16 -49 -35 -21 -19 -42 -35 -47 -35
-12 0 -89 -69 -83 -74 3 -3 22 6 44 19 22 14 55 32 73 40 18 9 35 22 39 30 3
8 13 15 23 15 10 0 35 15 55 33 20 18 58 44 84 56 25 13 63 32 83 42 27 15 54
19 110 18 40 -2 82 2 93 8 11 6 43 14 70 17 28 4 65 16 84 27 49 29 107 33
177 15 34 -9 72 -16 85 -16 22 0 21 2 -11 35 l-34 35 22 22 c12 12 41 31 64
43 24 11 42 26 41 33 -2 6 2 12 7 12 6 0 20 21 30 46 17 38 19 59 14 127 -5
63 -2 93 10 127 9 25 22 101 28 170 11 125 12 143 8 190 -1 14 -7 77 -12 140
-5 63 -14 122 -19 131 -16 30 11 41 71 28 75 -16 274 -7 324 15 44 18 62 10
70 -31 5 -25 35 -73 46 -73 4 0 38 -29 76 -65 38 -36 74 -65 79 -65 6 0 16
-12 23 -27 6 -16 36 -62 66 -103 30 -41 55 -80 55 -87 1 -6 10 -28 20 -50 17
-32 72 -180 88 -235 3 -10 9 -18 14 -18 5 0 6 -7 3 -15 -4 -8 1 -26 9 -39 9
-13 13 -33 10 -45 -3 -12 0 -27 6 -35 7 -8 16 -56 21 -108 5 -51 12 -109 16
-128 19 -108 25 -206 28 -475 l2 -220 39 -73 c47 -90 195 -248 223 -237 13 5
14 3 6 -5 -9 -9 6 -29 55 -78 36 -37 73 -76 82 -87 9 -11 59 -62 112 -114 54
-51 97 -97 97 -102 0 -5 12 -16 28 -26 34 -22 71 -62 125 -136 23 -33 58 -80
77 -105 19 -26 43 -63 53 -82 49 -98 85 -158 114 -189 35 -38 107 -202 131
-301 8 -36 19 -67 22 -70 4 -3 11 -32 15 -65 12 -101 58 -239 77 -233 20 7 26
50 14 98 -8 29 -8 61 -2 92 4 26 5 55 1 65 -5 10 -10 27 -11 38 -1 11 -5 40
-8 65 -3 25 -14 86 -25 135 -11 50 -23 106 -26 126 -3 21 -17 53 -30 73 -13
20 -21 36 -18 36 4 0 -5 12 -19 28 -14 15 -28 36 -32 47 -3 11 -20 35 -38 54
-18 19 -49 60 -70 90 -20 31 -53 79 -72 106 -20 28 -36 53 -36 57 0 3 -12 19
-27 35 -16 16 -41 47 -58 69 -28 37 -65 74 -202 205 -32 31 -82 81 -111 112
-29 31 -65 64 -80 73 -15 8 -41 34 -59 57 -18 23 -48 59 -68 80 -19 21 -35 40
-35 42 0 2 -29 33 -65 70 -47 49 -65 75 -65 94 0 15 -5 32 -12 39 -8 8 -8 12
-1 12 7 0 10 30 8 88 -2 48 -4 87 -5 87 -1 0 -3 104 -4 230 -3 161 -9 257 -21
320 -9 50 -14 107 -11 127 3 20 2 39 -3 42 -5 3 -14 30 -21 58 -7 29 -21 79
-31 110 -11 32 -19 70 -19 85 0 15 -16 62 -36 103 -20 41 -48 100 -63 130 -14
30 -41 75 -59 100 -36 49 -128 140 -142 140 -5 0 -10 4 -12 8 -7 18 -70 53
-84 48 -11 -4 -15 -2 -11 8 4 9 -8 25 -29 41 -58 45 -49 66 64 148 28 21 52
43 52 48 0 5 6 9 13 9 22 0 116 94 131 131 8 20 31 48 50 62 19 15 46 51 61
81 15 31 33 60 41 67 8 6 14 21 14 33 1 11 11 45 24 74 20 46 21 60 13 102 -7
37 -6 66 7 121 31 138 14 285 -41 350 -7 8 -13 23 -13 33 0 18 -54 105 -87
141 -10 11 -25 29 -33 41 -8 12 -48 58 -89 102 -82 90 -145 136 -276 202 l-87
45 -116 0 c-109 0 -124 -3 -226 -37 -61 -21 -126 -50 -145 -66 -20 -16 -47
-33 -61 -37 -14 -4 -45 -20 -71 -35 -25 -15 -55 -30 -66 -34 -31 -10 -85 16
-114 53 -39 53 -102 110 -134 123 -16 7 -51 28 -76 48 -25 19 -56 42 -69 50
-12 8 -28 20 -34 25 -6 6 -45 34 -86 61 -283 191 -291 196 -418 309 -24 22
-61 49 -82 60 -136 72 -169 86 -202 89 -20 2 -44 9 -53 16 -8 7 -15 9 -15 6 0
-4 -21 4 -47 17 -51 26 -225 83 -283 92 -63 10 -202 11 -360 4z m305 -128 c23
-2 128 -37 153 -51 35 -20 135 -60 149 -60 36 0 152 -67 243 -141 25 -20 59
-44 77 -53 17 -9 38 -24 45 -34 7 -10 20 -22 28 -26 35 -16 64 -35 84 -54 38
-37 110 -98 151 -127 22 -16 58 -44 79 -62 22 -18 43 -33 47 -33 4 0 44 -25
89 -55 45 -30 88 -55 95 -55 7 0 32 -11 56 -25 56 -33 62 -36 134 -71 33 -16
60 -36 60 -44 0 -14 -62 -43 -117 -55 -35 -7 -36 -32 -2 -45 26 -10 90 -4 109
10 6 4 27 13 48 20 22 7 51 18 65 26 15 8 31 14 35 14 8 0 146 89 157 100 3 4
28 14 55 25 28 10 64 27 80 37 17 10 37 18 46 18 8 0 25 9 37 20 12 12 22 19
22 16 0 -2 26 3 57 11 34 9 74 12 98 9 54 -9 162 -45 205 -69 78 -43 236 -191
291 -272 19 -27 38 -53 42 -56 5 -3 8 -8 6 -10 -1 -2 10 -24 25 -48 15 -24 36
-64 47 -88 11 -25 28 -57 38 -72 18 -24 55 -133 54 -156 -1 -5 -2 -32 -3 -60
-6 -152 -29 -268 -69 -354 -44 -94 -283 -354 -339 -368 -59 -14 -202 -101
-202 -123 0 -9 -3 -11 -8 -5 -4 6 -54 10 -112 10 -81 1 -122 6 -180 24 -41 13
-86 25 -100 26 -14 1 -56 19 -94 39 -38 20 -79 36 -90 34 -41 -6 -30 -38 31
-97 117 -111 153 -177 153 -279 0 -22 6 -55 14 -74 13 -29 12 -53 -4 -188 -10
-85 -17 -173 -16 -195 1 -22 -2 -46 -7 -53 -5 -7 -11 -45 -12 -85 -3 -75 -26
-137 -62 -169 -10 -9 -44 -30 -75 -47 -75 -39 -115 -35 -198 18 -51 33 -135
65 -135 51 0 -2 -9 4 -21 14 -23 20 -229 91 -309 106 -27 6 -66 19 -86 29 -20
11 -49 21 -65 22 -16 2 -34 6 -39 10 -17 12 -123 50 -145 52 -11 1 -20 5 -20
9 0 4 -13 8 -30 8 -16 0 -30 5 -30 10 0 6 -6 10 -12 10 -7 0 -26 7 -43 16 -47
24 -128 54 -150 54 -11 1 -38 9 -60 20 -22 11 -46 19 -54 20 -14 0 -103 28
-136 42 -11 5 -40 10 -65 11 -25 2 -50 5 -55 8 -6 3 -24 6 -42 7 -18 1 -44 7
-58 12 -15 6 -40 10 -56 10 -27 0 -91 22 -157 53 -12 6 -31 30 -42 54 -20 46
-53 167 -53 193 0 8 -5 45 -13 82 -7 37 -16 98 -20 135 -5 66 -5 69 19 80 30
14 316 9 403 -6 81 -14 193 -23 205 -15 6 4 6 11 -1 19 -8 10 -8 19 -1 34 6
11 8 22 4 24 -8 4 -81 17 -198 33 -27 4 -131 8 -230 10 -99 1 -195 2 -212 3
-27 1 -37 8 -56 39 -12 20 -29 55 -36 77 -7 22 -19 47 -26 55 -6 8 -24 36 -38
62 -15 26 -36 50 -47 53 -11 3 -20 12 -20 18 0 7 -31 39 -70 72 -38 33 -70 63
-70 66 0 14 -104 119 -116 119 -7 0 -28 13 -46 29 -31 27 -80 52 -188 97 -25
10 -47 21 -50 24 -13 13 -87 35 -210 61 -105 22 -163 28 -265 29 -147 1 -222
-5 -262 -22 -16 -6 -100 -13 -188 -15 -88 -3 -184 -7 -212 -10 -71 -7 -69 7
11 86 l64 63 50 -7 c41 -5 50 -4 56 11 14 37 -113 205 -202 266 -26 17 -50 35
-53 40 -13 20 -124 50 -159 42 -66 -13 -273 -9 -305 7 -33 16 -60 63 -70 122
-4 20 -13 44 -21 51 -24 24 -46 107 -41 150 6 44 25 63 95 96 34 16 54 19 95
15 48 -6 95 -22 107 -36 3 -4 30 -22 60 -42 30 -19 66 -47 80 -62 14 -15 39
-34 55 -42 17 -9 60 -48 97 -87 83 -90 134 -117 210 -113 57 3 88 18 88 43 0
14 -11 17 -84 29 -47 8 -102 41 -153 93 -21 22 -50 47 -65 57 -30 18 -37 55
-15 72 13 10 92 35 119 38 9 0 35 14 57 30 46 31 183 90 234 100 17 3 55 15
82 27 133 55 214 86 317 120 51 16 100 31 108 33 8 3 35 11 60 20 49 18 104
31 195 47 33 6 78 17 100 25 22 8 48 16 57 18 9 2 27 9 39 15 32 18 78 30 134
36 28 3 54 8 59 11 7 5 144 32 261 51 34 6 507 8 570 3z m-2672 -1023 c20 -16
26 -113 9 -145 -7 -12 -12 -29 -12 -38 0 -25 39 -97 73 -133 40 -41 28 -54
-37 -41 -27 5 -50 10 -50 12 -1 1 -11 16 -24 34 -12 18 -22 37 -22 44 0 6 -12
34 -26 62 -16 33 -28 76 -31 118 -6 72 -4 76 51 90 46 10 51 10 69 -3z m225
-15 c7 -46 -65 -62 -82 -18 -11 30 5 46 43 43 28 -2 37 -8 39 -25z m973 -459
c25 -8 59 -14 75 -13 35 3 62 -5 131 -37 28 -13 58 -24 65 -24 7 0 35 -11 62
-25 27 -14 53 -25 57 -25 19 0 149 -83 149 -96 0 -8 5 -14 11 -14 10 0 61 -47
187 -172 81 -81 122 -131 145 -180 15 -31 27 -61 27 -66 0 -38 -127 -70 -305
-78 -91 -4 -102 -5 -185 -24 -25 -5 -52 -9 -60 -7 -27 4 -150 -25 -150 -35 0
-6 -7 -8 -15 -4 -14 5 -72 -14 -87 -30 -4 -4 -3 -13 3 -20 12 -15 33 -12 208
23 137 27 257 36 311 24 33 -7 109 3 215 28 59 14 105 1 125 -34 44 -81 78
-208 85 -320 1 -22 6 -63 10 -92 6 -45 5 -52 -13 -62 -10 -6 -21 -8 -24 -6 -2
3 -36 7 -74 10 -38 3 -98 11 -134 19 -36 7 -97 14 -137 14 -43 1 -96 10 -132
22 -33 11 -69 20 -80 20 -11 0 -32 5 -46 12 -20 9 -31 8 -50 -2 -28 -15 -32
-32 -10 -50 21 -17 19 -50 -5 -75 -11 -12 -23 -42 -26 -67 -6 -40 -4 -47 12
-50 17 -3 59 12 123 45 13 6 28 20 33 30 29 60 8 55 203 44 165 -9 227 -19
246 -36 15 -14 40 -23 132 -48 16 -4 29 -26 53 -88 4 -11 9 -38 10 -60 6 -116
14 -214 19 -228 7 -16 12 -70 20 -209 3 -49 9 -115 14 -149 9 -70 -2 -83 -46
-53 -30 21 -148 88 -228 130 -27 14 -61 36 -75 49 -14 12 -36 26 -50 30 -14 4
-36 16 -49 26 -29 23 -47 24 -55 4 -3 -8 -12 -12 -21 -9 -8 3 -13 9 -11 13 8
13 -84 75 -129 86 -39 10 -48 10 -52 -2 -3 -8 3 -24 14 -36 11 -12 32 -40 46
-61 15 -23 36 -41 49 -43 44 -6 134 -60 273 -165 28 -21 55 -38 62 -38 7 0 27
-13 45 -29 18 -15 50 -34 70 -40 80 -26 221 -152 231 -206 4 -16 11 -52 17
-80 6 -27 12 -63 14 -80 2 -16 11 -68 21 -115 9 -47 18 -99 20 -116 2 -17 8
-48 14 -70 6 -21 11 -51 11 -66 0 -15 7 -33 15 -41 8 -9 11 -17 5 -19 -6 -2
-4 -29 4 -69 8 -36 17 -101 21 -145 l6 -79 -44 -85 c-24 -47 -48 -96 -52 -110
-6 -22 -51 -97 -66 -110 -7 -6 -57 -96 -104 -185 -20 -38 -63 -122 -97 -185
-33 -63 -73 -134 -90 -158 -23 -33 -27 -46 -18 -56 7 -9 7 -16 1 -20 -5 -3
-12 0 -14 6 -3 7 -6 1 -6 -14 -1 -16 -5 -28 -10 -28 -5 0 -12 -11 -15 -24 -3
-13 -23 -46 -44 -73 -53 -69 -88 -124 -95 -153 -4 -14 -34 -52 -67 -84 -33
-33 -60 -65 -60 -71 0 -20 -51 -56 -100 -71 -26 -8 -54 -21 -61 -31 -28 -33
-173 -73 -267 -73 -26 0 -70 -8 -99 -19 -28 -10 -63 -16 -77 -14 -22 5 -89 -9
-240 -49 -22 -5 -49 -12 -60 -14 -12 -2 -43 -8 -71 -14 -27 -6 -84 -12 -125
-15 -75 -4 -98 0 -325 62 -79 22 -145 53 -184 86 -18 15 -42 27 -54 27 -12 0
-28 9 -35 20 -7 11 -17 20 -23 20 -6 0 -29 15 -51 34 -22 19 -61 45 -87 56
-39 19 -80 51 -132 105 -6 6 -28 35 -50 65 -23 30 -49 60 -60 68 -10 7 -30 37
-44 66 -21 46 -25 67 -26 172 -1 76 3 129 10 142 8 15 13 97 15 233 2 135 7
214 14 221 8 8 19 8 39 0 51 -19 190 -35 240 -26 26 4 52 6 57 5 16 -4 179 -1
211 4 77 11 224 15 265 8 48 -9 179 3 194 18 6 5 17 9 25 9 9 0 30 7 46 16 17
9 44 18 60 21 17 2 50 14 75 25 41 18 127 44 235 70 22 5 49 17 60 27 11 10
43 29 70 42 28 12 59 31 69 41 11 10 23 18 27 18 5 0 39 27 76 61 37 33 82 66
98 73 17 7 50 36 75 65 25 28 70 77 102 109 31 31 63 72 72 90 10 20 24 32 36
32 11 0 28 9 38 19 21 24 102 115 178 199 71 81 99 145 108 247 l7 80 -61 71
c-51 61 -66 73 -98 77 -51 6 -205 -11 -213 -25 -4 -6 -12 -7 -18 -3 -13 7 -75
-18 -103 -42 -20 -18 -71 -48 -116 -69 -18 -8 -35 -21 -38 -29 -3 -7 -19 -18
-35 -24 -16 -5 -29 -14 -29 -19 0 -5 -25 -26 -55 -48 -30 -21 -55 -42 -55 -46
0 -5 -5 -8 -12 -8 -6 0 -19 -6 -27 -13 -18 -15 -104 -49 -117 -46 -5 1 -29 1
-54 0 -43 -1 -47 -3 -59 -36 -7 -20 -23 -43 -37 -51 -21 -14 -29 -15 -57 -3
-62 26 -82 73 -51 117 22 31 13 47 -38 70 -24 10 -49 26 -57 35 -7 10 -20 17
-27 17 -8 0 -14 3 -14 8 0 20 -100 56 -195 70 -139 21 -285 -2 -430 -68 -11
-5 -44 -11 -73 -13 -33 -3 -64 -12 -82 -25 -87 -65 -276 -51 -360 25 -14 13
-33 26 -42 29 -10 3 -18 10 -18 15 0 5 -15 28 -33 52 -36 47 -70 116 -111 222
-15 39 -33 79 -40 90 -29 46 -37 91 -27 156 10 63 10 64 -19 94 -20 21 -33 47
-40 83 -5 28 -18 69 -29 90 -10 20 -21 51 -24 67 -3 17 -14 51 -25 76 -14 31
-21 74 -23 137 -2 51 -1 92 2 92 3 0 13 -8 22 -17 9 -10 32 -27 51 -37 33 -17
111 -83 191 -161 37 -36 59 -50 103 -71 18 -8 35 -21 39 -29 3 -8 10 -15 17
-15 6 0 22 -6 36 -13 15 -8 47 -17 72 -20 25 -3 57 -12 71 -18 23 -10 26 -17
25 -58 -1 -29 7 -64 21 -94 12 -26 22 -64 23 -85 0 -20 7 -46 15 -57 7 -11 13
-26 13 -35 0 -9 9 -33 20 -55 11 -22 20 -48 20 -60 0 -11 9 -33 19 -49 11 -16
17 -34 15 -41 -3 -6 1 -25 7 -41 7 -16 11 -34 11 -40 -1 -6 9 -36 23 -68 18
-41 30 -56 45 -56 23 0 24 10 10 60 -6 19 -13 49 -15 66 -3 17 -13 52 -24 77
-11 26 -27 82 -36 124 -9 43 -20 82 -26 87 -5 6 -9 16 -9 24 0 8 -6 28 -14 45
-56 128 -60 246 -9 282 15 11 41 35 58 54 16 18 54 45 84 59 68 32 136 98 163
158 6 13 25 32 42 42 38 23 146 207 146 249 0 15 5 44 11 63 6 19 12 70 14
112 3 70 7 82 43 135 22 32 64 81 93 108 93 88 139 139 139 155 0 8 46 62 103
120 132 136 158 175 160 237 2 41 -1 48 -17 48 -10 0 -22 -7 -26 -15 -41 -88
-65 -130 -90 -160 -16 -19 -30 -39 -30 -45 0 -5 -25 -32 -56 -60 -30 -27 -65
-67 -76 -87 -12 -21 -27 -38 -34 -38 -17 0 -141 -126 -183 -187 -20 -28 -54
-65 -75 -82 -33 -27 -47 -31 -97 -31 -32 0 -70 -5 -86 -11 -15 -6 -43 -12 -61
-14 -18 -2 -42 -11 -53 -21 -10 -9 -19 -14 -19 -9 0 4 -6 3 -12 -2 -7 -5 -29
-10 -48 -12 -19 -2 -40 -7 -47 -12 -6 -6 -24 -12 -38 -15 -33 -6 -81 -30 -90
-44 -10 -16 -75 -12 -157 9 -42 11 -109 24 -151 30 -41 6 -87 16 -103 23 -16
6 -33 12 -39 13 -5 0 -14 3 -20 7 -5 3 -35 11 -65 16 -83 16 -151 44 -172 73
-16 21 -17 32 -10 67 6 23 23 59 38 78 32 40 35 45 55 88 9 19 30 36 59 49 25
11 58 33 75 49 16 16 41 31 55 35 31 7 74 28 92 45 22 22 60 43 109 61 25 10
63 33 85 52 21 19 43 35 48 35 5 0 23 10 40 23 90 67 157 92 256 96 35 1 67 4
71 7 4 2 53 11 110 20 57 8 129 19 159 24 30 5 93 7 140 3 47 -3 90 -5 95 -5
26 0 177 20 181 24 2 3 75 5 162 6 110 0 171 -4 203 -14z m3394 -1114 c-3 -5
-11 -10 -16 -10 -6 0 -7 5 -4 10 3 6 11 10 16 10 6 0 7 -4 4 -10z m-5027 -35
c26 -14 55 -25 65 -25 12 0 26 -18 42 -52 28 -60 32 -96 10 -104 -16 -7 -163
70 -182 95 -21 27 -14 111 9 111 5 0 30 -11 56 -25z m2232 -825 c0 -5 -2 -10
-4 -10 -3 0 -8 5 -11 10 -3 6 -1 10 4 10 6 0 11 -4 11 -10z m267 -484 c-6 -38
-49 -104 -56 -85 -4 13 18 88 32 107 18 23 30 12 24 -22z m-392 -18 c-4 -18
-15 -45 -26 -60 -10 -15 -19 -36 -19 -46 0 -10 -18 -52 -39 -93 -33 -62 -55
-135 -65 -210 -1 -8 -11 -26 -23 -38 -32 -35 -86 -156 -97 -217 -3 -19 1 -39
9 -50 8 -11 15 -22 15 -25 0 -10 -137 -119 -150 -119 -5 0 -34 -13 -63 -30
-51 -29 -138 -45 -134 -25 1 6 13 10 27 10 19 1 31 13 57 59 18 32 33 64 33
71 0 26 30 25 40 0 18 -48 83 -25 96 33 22 106 40 171 56 194 10 14 18 32 18
40 1 27 40 130 60 155 11 14 20 31 20 38 0 7 7 26 15 41 8 16 15 39 15 51 0
12 4 24 9 28 17 10 99 139 116 183 20 50 39 56 30 10z m-1110 7 c17 -7 44 -18
62 -25 57 -22 64 -37 69 -165 4 -101 2 -123 -16 -162 -11 -25 -20 -49 -20 -54
0 -4 -15 -29 -32 -54 -18 -26 -38 -54 -43 -63 -25 -41 -117 -162 -124 -162 -4
0 -22 -16 -41 -35 -19 -20 -51 -44 -70 -54 -19 -10 -50 -26 -67 -35 -18 -10
-33 -22 -33 -27 0 -5 -5 -9 -11 -9 -28 0 -159 -101 -238 -183 l-46 -49 -62 4
c-55 3 -67 8 -97 37 -45 43 -80 113 -72 143 15 60 71 113 186 178 66 38 142
93 182 133 24 24 57 49 74 56 56 23 96 75 176 233 30 59 39 134 24 208 -4 19
-3 47 3 62 8 22 17 27 53 31 74 6 112 4 143 -8z m-445 -9 c0 -3 -4 -8 -10 -11
-5 -3 -10 -1 -10 4 0 6 5 11 10 11 6 0 10 -2 10 -4z m1717 -69 c-28 -59 -86
-184 -110 -240 -10 -21 -17 -44 -17 -52 0 -8 -7 -15 -15 -15 -22 0 -19 37 9
95 13 27 34 70 46 95 23 49 73 143 91 175 25 41 21 -7 -4 -58z m803 44 c-15
-28 -14 -30 28 -46 21 -9 53 -31 71 -50 18 -19 38 -35 46 -35 7 0 19 -7 26
-16 7 -9 36 -31 64 -49 106 -68 113 -97 42 -197 -28 -40 -68 -95 -89 -121 -21
-27 -38 -55 -38 -62 0 -7 -12 -27 -27 -43 -16 -16 -34 -37 -41 -46 -7 -9 -16
-16 -20 -16 -4 0 -16 46 -26 103 -10 56 -25 127 -32 157 -8 30 -14 69 -14 87
0 18 -9 65 -19 105 -11 40 -21 106 -23 147 -3 74 -3 75 27 87 17 7 31 13 33
14 1 0 -2 -9 -8 -19z m-1811 -134 c6 -8 8 -17 5 -20 -10 -9 -45 13 -39 24 9
13 21 11 34 -4z m1029 -108 c-24 -100 -53 -151 -72 -121 -10 16 21 120 48 160
16 23 32 42 36 42 4 0 -1 -37 -12 -81z m-608 47 c0 -7 -7 -19 -15 -26 -13 -11
-15 -8 -15 14 0 16 5 26 15 26 8 0 15 -6 15 -14z m152 -125 c-11 -25 -25 -58
-31 -73 -11 -28 -31 -38 -31 -15 0 6 7 25 15 41 8 15 15 33 15 40 0 6 10 27
22 46 29 48 36 21 10 -39z m-214 -10 c-8 -48 -28 -95 -91 -216 -8 -16 -20 -55
-25 -87 -6 -31 -21 -73 -35 -95 -13 -21 -27 -47 -30 -57 -6 -16 -5 -17 8 -6
12 10 18 11 28 1 9 -10 8 -11 -5 -6 -11 4 -18 2 -18 -4 0 -6 -11 -17 -25 -23
-21 -10 -25 -18 -25 -57 0 -57 -3 -61 -66 -90 -55 -25 -74 -22 -74 10 0 14 7
19 27 19 30 0 73 35 73 59 0 9 16 54 36 101 43 104 84 220 77 220 -3 0 -1 6 5
13 15 17 52 118 52 140 0 11 10 32 23 48 54 72 70 90 72 87 2 -2 -1 -27 -7
-57z m-125 -37 c3 -19 -3 -35 -23 -58 -28 -31 -100 -190 -100 -220 0 -20 -21
-66 -31 -66 -22 0 -18 46 9 103 16 34 35 80 42 102 7 22 21 51 31 64 11 13 19
30 19 37 0 8 5 14 10 14 6 0 15 11 20 25 12 32 16 31 23 -1z m207 10 c0 -24
-39 -137 -60 -176 -6 -10 -10 -25 -10 -33 0 -22 -38 -95 -50 -95 -13 0 -13 7
0 30 6 11 11 36 13 57 4 56 107 265 107 217z m410 -60 c0 -40 -4 -55 -12 -52
-26 9 -18 108 8 108 2 0 4 -25 4 -56z m-759 13 c-8 -8 -11 -7 -11 4 0 20 13
34 18 19 3 -7 -1 -17 -7 -23z m-111 -46 c0 -5 -7 -16 -15 -25 -8 -8 -15 -19
-15 -24 0 -5 -6 -15 -14 -21 -23 -19 -28 4 -6 29 11 13 20 29 20 37 0 7 7 13
15 13 8 0 15 -4 15 -9z m697 -193 c-3 -8 -6 -5 -6 6 -1 11 2 17 5 13 3 -3 4
-12 1 -19z m-803 -43 c-4 -8 -10 -13 -15 -10 -4 3 -6 12 -3 20 4 8 10 13 15
10 4 -3 6 -12 3 -20z m-160 -142 c-4 -15 -16 -50 -26 -77 -11 -28 -24 -65 -29
-82 -5 -18 -15 -37 -22 -42 -15 -13 -189 -22 -264 -14 -43 4 -53 8 -53 24 0
20 54 58 83 58 10 0 22 -11 27 -25 12 -31 49 -34 75 -5 19 21 76 24 68 3 -8
-19 22 -16 39 5 8 9 25 40 37 67 38 84 55 115 63 115 5 0 5 -12 2 -27z m116
14 c0 -7 -5 -18 -10 -23 -6 -6 -12 -30 -15 -55 -6 -58 -28 -122 -45 -127 -17
-6 -6 88 16 129 7 15 14 36 14 47 0 18 18 42 32 42 4 0 8 -6 8 -13z"/>
<path d="M5459 8450 c-17 -10 -40 -15 -139 -32 -36 -6 -72 -17 -81 -24 -8 -8
-22 -14 -30 -14 -8 0 -25 -7 -38 -16 -23 -17 -118 -71 -216 -123 -62 -34 -181
-76 -257 -91 -62 -12 -99 -6 -169 31 -35 17 -37 18 -53 0 -47 -51 22 -105 149
-116 39 -3 75 5 169 36 67 22 128 47 137 55 8 8 20 14 25 14 5 0 52 25 104 56
111 66 163 88 285 119 101 26 202 62 210 75 3 5 -2 16 -11 24 -17 18 -60 21
-85 6z"/>
<path d="M6120 8425 c-13 -15 -5 -85 12 -119 5 -10 14 -52 19 -95 19 -171 14
-163 98 -167 81 -3 84 3 75 118 -4 51 -8 106 -8 121 -1 41 -29 53 -55 25 -12
-12 -21 -25 -21 -30 0 -4 -6 -8 -12 -8 -13 0 -52 81 -64 132 -7 32 -28 42 -44
23z"/>
<path d="M3923 8364 c-10 -27 -9 -58 2 -94 7 -19 15 -60 19 -90 9 -66 45 -120
81 -120 37 0 46 27 23 71 -11 21 -26 75 -34 121 -11 66 -19 88 -40 106 -30 26
-42 28 -51 6z"/>
<path d="M4281 8324 c-25 -24 -48 -44 -52 -44 -12 0 -41 -71 -35 -86 9 -24 43
-15 72 20 56 67 94 123 94 139 0 30 -34 17 -79 -29z"/>
<path d="M5345 8041 c-16 -4 -43 -15 -60 -23 -16 -9 -45 -19 -64 -23 -18 -4
-54 -16 -80 -27 -25 -10 -57 -24 -71 -30 -14 -5 -38 -16 -55 -24 -16 -8 -50
-14 -75 -14 -25 0 -92 -1 -150 -2 -81 -2 -119 1 -168 16 -58 18 -64 18 -79 3
-22 -22 -12 -39 44 -77 l48 -33 95 8 c52 4 124 8 159 9 60 1 65 -1 87 -30 13
-17 24 -34 24 -38 0 -7 32 -55 68 -99 12 -16 22 -36 22 -46 0 -21 -67 -52
-124 -58 -37 -3 -45 0 -92 44 -74 69 -104 94 -157 131 -46 33 -86 39 -94 16
-4 -13 4 -22 67 -74 23 -19 65 -57 93 -83 28 -27 71 -60 94 -74 37 -21 50 -24
93 -18 28 4 56 13 63 20 7 7 49 15 92 19 192 17 231 26 287 68 29 21 62 56 74
76 12 20 33 55 48 76 14 21 26 44 27 50 0 6 3 20 5 31 3 11 8 41 11 66 4 42 2
48 -34 86 -54 57 -115 74 -198 54z m-14 -111 c-3 -25 -47 -70 -68 -70 -15 0
-33 32 -33 57 0 22 42 42 80 40 21 -2 24 -6 21 -27z"/>
<path d="M7891 7811 c-18 -5 -36 -13 -40 -18 -10 -14 -62 -34 -72 -27 -5 3
-35 -8 -67 -24 -31 -16 -72 -33 -89 -37 -18 -3 -43 -19 -55 -33 -46 -54 -113
-101 -151 -105 -42 -5 -77 -31 -77 -58 0 -10 -22 -47 -50 -83 -55 -71 -62
-104 -34 -157 9 -18 13 -42 9 -57 -14 -66 -16 -81 -21 -142 -6 -80 4 -100 37
-75 13 10 33 32 44 49 23 36 89 76 125 76 29 0 65 29 104 82 27 37 28 38 56
23 16 -8 35 -15 43 -15 7 0 37 29 66 65 29 36 55 65 57 65 3 0 2 -22 -2 -49
-7 -56 2 -67 42 -49 24 11 63 78 64 111 1 7 14 28 30 47 17 19 30 38 30 43 0
18 42 67 56 67 21 0 10 -51 -22 -106 -39 -66 -12 -100 38 -46 31 33 48 65 48
90 0 11 7 25 15 32 9 7 13 15 11 18 -8 7 21 32 38 32 16 0 15 -35 -4 -90 -5
-14 -12 -55 -15 -92 -6 -63 -5 -68 13 -68 12 0 29 14 42 35 12 19 26 35 31 35
5 0 15 -16 23 -35 16 -37 25 -41 58 -24 37 20 47 -9 33 -101 -2 -14 -4 -31 -4
-37 -1 -14 -129 -176 -143 -182 -5 -2 -21 -14 -36 -26 -22 -19 -24 -26 -15
-36 19 -19 95 23 138 75 19 24 35 46 35 49 0 4 20 28 45 54 68 72 86 140 81
298 l-5 124 -42 73 c-23 40 -57 87 -75 103 -68 63 -84 75 -98 75 -7 0 -17 7
-20 16 -3 8 -10 12 -16 9 -6 -3 -13 0 -16 8 -3 8 -17 14 -32 15 -15 0 -61 3
-102 6 -41 3 -90 1 -109 -3z m19 -105 c0 -46 -41 -89 -63 -67 -10 10 8 50 32
68 21 16 31 16 31 -1z m-70 -261 c0 -9 -8 -30 -17 -48 -15 -28 -18 -29 -21
-11 -4 26 14 74 28 74 5 0 10 -7 10 -15z m-420 -52 c0 -21 -7 -46 -15 -56 -7
-11 -11 -25 -8 -33 6 -16 -18 -19 -34 -3 -22 22 17 129 49 129 4 0 8 -17 8
-37z"/>
<path d="M6050 6731 c0 -11 79 -26 88 -16 11 10 -21 25 -55 25 -18 0 -33 -4
-33 -9z"/>
<path d="M6290 6680 c0 -5 8 -10 18 -10 9 0 28 -3 42 -6 24 -5 24 -5 6 10 -22
18 -66 22 -66 6z"/>
<path d="M4067 6700 c-22 -18 -27 -29 -27 -66 0 -56 27 -71 75 -44 16 9 35 15
41 13 5 -2 21 8 34 22 21 22 21 25 6 31 -13 5 -14 9 -6 14 16 10 -24 37 -66
46 -21 4 -37 0 -57 -16z"/>
<path d="M3999 6118 c-25 -21 -69 -96 -69 -117 0 -11 8 -21 18 -23 20 -5 109
29 135 50 18 16 23 58 9 80 -13 19 -74 26 -93 10z"/>
<path d="M4440 5648 c-23 -25 -25 -46 -6 -70 17 -23 39 -23 59 0 21 23 22 56
1 76 -21 21 -29 20 -54 -6z"/>
<path d="M4043 4885 c-6 -18 25 -58 38 -49 15 9 10 52 -7 58 -22 8 -24 8 -31
-9z"/>
<path d="M2030 6233 c-8 -3 -26 -16 -40 -28 -28 -26 -53 -40 -190 -110 -52
-27 -111 -60 -130 -75 -19 -14 -60 -37 -90 -49 -30 -13 -72 -36 -92 -52 -20
-16 -39 -29 -42 -29 -3 0 -22 -11 -42 -25 -20 -14 -33 -25 -29 -25 5 0 -20
-14 -54 -31 -34 -17 -72 -44 -83 -60 -12 -16 -26 -29 -31 -29 -17 0 -97 -63
-103 -82 -3 -11 -8 -17 -11 -14 -3 3 -24 -8 -46 -24 -23 -17 -46 -30 -51 -30
-6 0 -33 -21 -59 -45 -26 -25 -52 -45 -57 -45 -5 0 -34 -25 -65 -55 -30 -30
-58 -55 -62 -55 -14 0 -167 -102 -197 -131 -17 -16 -35 -29 -42 -29 -15 0 -97
-51 -176 -110 -34 -25 -76 -55 -95 -68 -32 -22 -45 -63 -24 -76 13 -8 91 35
102 56 6 10 27 29 47 42 20 14 69 47 107 75 39 28 77 54 85 58 8 3 38 25 65
48 28 23 64 49 80 58 45 25 77 55 70 67 -3 5 0 10 8 10 17 0 120 71 167 116
19 18 63 52 97 76 100 70 213 159 213 169 0 5 4 9 9 9 15 0 151 82 151 91 0 5
5 9 11 9 7 0 36 20 66 44 29 25 77 52 106 62 29 9 68 26 87 37 59 33 147 77
155 77 25 0 132 64 170 102 12 13 34 31 49 41 14 10 26 22 26 27 0 11 -35 12
-60 3z m-620 -393 c0 -5 -5 -10 -11 -10 -5 0 -7 5 -4 10 3 6 8 10 11 10 2 0 4
-4 4 -10z"/>
<path d="M1685 5354 c-63 -67 -97 -119 -40 -61 21 20 41 37 46 37 12 0 63 70
56 77 -4 3 -32 -21 -62 -53z"/>
<path d="M1532 5180 c-27 -25 -27 -30 -4 -30 11 0 24 11 30 25 14 30 3 32 -26
5z"/>
<path d="M1487 5122 c-10 -10 -14 -22 -10 -26 5 -4 2 -6 -6 -4 -24 6 -199
-221 -183 -237 4 -4 2 -5 -5 -3 -9 2 -79 -76 -140 -157 -5 -6 -29 -36 -55 -67
-27 -31 -48 -60 -48 -65 0 -4 -25 -30 -55 -56 -30 -27 -55 -57 -55 -67 0 -10
-4 -20 -9 -22 -14 -5 -101 -110 -118 -142 -11 -21 -12 -26 -1 -20 32 19 81 72
93 101 7 17 34 51 59 74 25 24 46 48 46 54 0 11 22 34 105 112 23 21 75 83
117 138 42 55 106 138 142 185 36 46 66 89 66 95 0 6 20 31 45 55 42 41 57 70
37 70 -5 0 -16 -8 -25 -18z"/>
<path d="M6430 5080 c-42 -43 -37 -47 10 -9 22 18 40 34 40 36 0 12 -25 -2
-50 -27z"/>
<path d="M1515 4181 c-3 -5 -1 -12 5 -16 5 -3 10 1 10 9 0 18 -6 21 -15 7z"/>
<path d="M8044 4032 c-29 -19 -36 -55 -30 -160 5 -106 3 -122 -37 -277 -11
-44 -21 -91 -23 -104 -1 -13 -15 -61 -30 -107 -26 -81 -27 -120 -1 -112 22 8
65 82 71 123 3 22 10 51 15 65 5 14 19 63 31 110 13 47 35 123 51 169 16 46
26 88 23 92 -3 5 3 23 12 40 21 42 12 106 -22 142 -25 28 -40 32 -60 19z"/>
<path d="M8478 3832 c-16 -18 -21 -270 -6 -289 10 -12 11 -164 2 -348 -2 -55
-6 -149 -8 -210 -7 -161 -13 -267 -19 -295 -3 -14 -11 -58 -17 -97 -7 -40 -16
-75 -21 -78 -4 -3 -6 -18 -3 -33 3 -15 0 -47 -6 -72 -6 -25 -16 -74 -21 -109
-4 -35 -13 -69 -19 -76 -10 -12 -40 -96 -77 -210 -8 -27 -29 -72 -47 -100 -50
-80 -54 -87 -82 -145 -15 -30 -42 -78 -61 -106 -18 -28 -33 -55 -33 -59 0 -5
-9 -18 -19 -29 -11 -12 -33 -46 -48 -76 -16 -30 -42 -68 -57 -85 -41 -43 -86
-111 -86 -128 0 -9 -4 -17 -8 -19 -8 -3 -84 -89 -175 -196 -21 -25 -36 -47
-33 -49 13 -13 73 38 144 124 45 54 105 124 134 157 48 53 69 82 163 233 101
162 118 189 126 193 14 10 97 194 105 234 3 21 15 47 26 58 23 23 58 101 58
131 0 12 10 42 21 67 27 58 46 122 70 240 39 189 44 231 30 239 -10 7 -10 9 2
14 15 5 35 148 43 302 2 39 6 120 10 180 3 61 6 160 7 220 1 96 -3 143 -28
305 -3 19 -8 54 -11 76 -5 46 -33 64 -56 36z"/>
<path d="M4930 2614 c0 -13 8 -32 18 -42 9 -10 30 -42 45 -72 15 -30 36 -71
46 -90 11 -19 51 -101 90 -182 44 -92 77 -148 86 -148 21 0 19 37 -4 68 -10
15 -18 34 -18 43 0 8 -9 29 -21 45 -12 16 -23 43 -25 59 -2 17 -16 49 -30 72
-15 24 -27 49 -27 56 0 30 -80 175 -107 193 -40 26 -53 26 -53 -2z"/>
</g>
</svg>
