<?xml version="1.0" standalone="no"?>
<!DOCTYPE svg PUBLIC "-//W3C//DTD SVG 20010904//EN"
 "http://www.w3.org/TR/2001/REC-SVG-20010904/DTD/svg10.dtd">
<svg version="1.0" xmlns="http://www.w3.org/2000/svg"
 width="468pt" height="239pt" viewBox="0 0 468 239"
 preserveAspectRatio="xMidYMid meet">
<metadata>
Created by potrace 1.8, written by Peter Selinger 2001-2007
</metadata>
<g transform="translate(0,239) scale(0.073125,-0.073125)"
fill="#000000" stroke="none">
<path d="M2800 2500 c0 -18 -7 -20 -55 -20 -42 0 -55 -3 -55 -15 0 -11 -12
-15 -50 -15 -38 0 -50 -4 -50 -15 0 -10 -11 -15 -35 -15 -28 0 -35 -4 -35 -20
0 -16 -7 -20 -30 -20 -28 0 -30 -3 -30 -35 0 -33 -2 -35 -35 -35 -24 0 -35 -5
-35 -15 0 -8 -9 -15 -20 -15 -11 0 -20 -7 -20 -15 0 -8 -7 -15 -15 -15 -8 0
-15 -9 -15 -20 0 -11 -7 -20 -15 -20 -8 0 -15 -7 -15 -15 0 -8 -9 -15 -20 -15
-13 0 -20 -7 -20 -20 0 -11 -7 -20 -15 -20 -10 0 -15 -10 -15 -30 0 -23 -4
-30 -20 -30 -13 0 -20 -7 -20 -20 0 -11 -7 -20 -15 -20 -8 0 -15 -7 -15 -15 0
-8 -7 -15 -15 -15 -10 0 -15 -11 -15 -35 0 -28 -4 -35 -20 -35 -17 0 -20 -7
-20 -50 0 -38 -4 -50 -15 -50 -8 0 -15 -9 -15 -20 0 -18 -7 -20 -85 -20 -69 0
-85 -3 -85 -15 0 -13 -51 -15 -395 -15 -344 0 -395 2 -395 15 0 13 -26 15
-170 15 -163 0 -170 1 -170 20 0 18 -7 20 -85 20 -69 0 -85 3 -85 15 0 8 -7
15 -15 15 -8 0 -15 -7 -15 -15 0 -8 7 -15 15 -15 8 0 15 -9 15 -20 0 -16 7
-20 35 -20 24 0 35 -5 35 -15 0 -12 14 -15 70 -15 56 0 70 -3 70 -15 0 -13 42
-15 320 -15 313 0 320 0 320 -20 0 -18 7 -20 70 -20 63 0 70 2 70 20 0 16 7
20 35 20 28 0 35 -4 35 -20 0 -16 7 -20 35 -20 28 0 35 4 35 20 0 11 7 20 15
20 8 0 15 -9 15 -20 0 -13 7 -20 20 -20 13 0 20 7 20 20 0 19 7 20 115 20
l115 0 0 -155 c0 -148 1 -155 20 -155 16 0 20 -7 20 -35 l0 -35 -50 0 c-38 0
-50 -4 -50 -15 0 -8 -9 -15 -20 -15 -11 0 -20 7 -20 15 0 8 -7 15 -15 15 -8 0
-15 -7 -15 -15 0 -13 -39 -15 -290 -15 -251 0 -290 2 -290 15 0 11 -12 15 -50
15 -38 0 -50 -4 -50 -15 0 -8 -9 -15 -20 -15 -11 0 -20 7 -20 15 0 13 -23 15
-150 15 -143 0 -150 1 -150 20 0 19 -7 20 -120 20 -100 0 -120 3 -120 15 0 12
-18 15 -105 15 -87 0 -105 -3 -105 -15 0 -8 9 -15 20 -15 13 0 20 -7 20 -20 0
-18 7 -20 85 -20 69 0 85 -3 85 -15 0 -13 23 -15 150 -15 127 0 150 -2 150
-15 0 -13 35 -15 255 -15 248 0 255 -1 255 -20 0 -13 7 -20 20 -20 13 0 20 7
20 20 0 11 7 20 15 20 8 0 15 -9 15 -20 0 -18 7 -20 70 -20 63 0 70 2 70 20 0
11 7 20 15 20 8 0 15 -9 15 -20 0 -18 7 -20 70 -20 63 0 70 2 70 20 0 19 7 20
120 20 113 0 120 -1 120 -20 0 -11 7 -20 15 -20 11 0 15 -12 15 -50 0 -43 3
-50 20 -50 11 0 20 -7 20 -15 0 -8 7 -15 15 -15 10 0 15 -11 15 -35 0 -24 5
-35 15 -35 10 0 15 -11 15 -35 0 -28 4 -35 20 -35 16 0 20 -7 20 -35 0 -24 5
-35 15 -35 10 0 15 -11 15 -35 0 -28 4 -35 20 -35 11 0 20 -7 20 -15 0 -8 7
-15 15 -15 8 0 15 -7 15 -15 0 -8 7 -15 15 -15 8 0 15 -9 15 -20 0 -13 7 -20
20 -20 16 0 20 -7 20 -35 0 -24 5 -35 15 -35 8 0 15 -7 15 -15 0 -8 9 -15 20
-15 16 0 20 -7 20 -35 0 -24 5 -35 15 -35 8 0 15 -7 15 -15 0 -10 11 -15 35
-15 33 0 35 -2 35 -35 0 -33 2 -35 35 -35 24 0 35 -5 35 -15 0 -10 10 -15 30
-15 23 0 30 -4 30 -20 0 -13 7 -20 20 -20 11 0 20 -7 20 -15 0 -10 11 -15 35
-15 28 0 35 -4 35 -20 0 -17 7 -20 50 -20 38 0 50 -4 50 -15 0 -12 14 -15 65
-15 51 0 65 -3 65 -15 0 -13 39 -15 290 -15 251 0 290 2 290 15 0 12 13 15 55
15 42 0 55 3 55 15 0 10 10 15 30 15 23 0 30 4 30 20 0 18 7 20 55 20 42 0 55
3 55 15 0 10 10 15 30 15 23 0 30 4 30 20 0 16 7 20 35 20 24 0 35 5 35 15 0
10 11 15 35 15 24 0 35 5 35 15 0 8 7 15 15 15 8 0 15 9 15 20 0 13 7 20 20
20 11 0 20 7 20 15 0 8 7 15 15 15 8 0 15 9 15 20 0 13 7 20 20 20 11 0 20 7
20 15 0 8 7 15 15 15 10 0 15 11 15 35 0 24 5 35 15 35 11 0 15 12 15 50 l0
50 70 0 c56 0 70 -3 70 -15 0 -12 16 -15 85 -15 78 0 85 -2 85 -20 0 -18 7
-20 70 -20 56 0 70 -3 70 -15 0 -13 26 -15 170 -15 163 0 170 -1 170 -20 0
-19 7 -20 185 -20 178 0 185 1 185 20 0 13 7 20 20 20 13 0 20 -7 20 -20 0
-18 7 -20 65 -20 51 0 65 -3 65 -15 0 -12 18 -15 105 -15 87 0 105 3 105 15 0
10 10 15 30 15 20 0 30 -5 30 -15 0 -8 9 -15 20 -15 16 0 20 7 20 35 0 28 -4
35 -20 35 -11 0 -20 7 -20 15 0 8 9 15 20 15 19 0 20 7 20 135 0 113 2 135 15
135 12 0 15 13 15 55 0 48 2 55 20 55 16 0 20 7 20 30 0 23 -4 30 -20 30 -13
0 -20 7 -20 20 0 19 -7 20 -220 20 -213 0 -220 -1 -220 -20 0 -19 -7 -20 -185
-20 -178 0 -185 1 -185 20 0 19 -7 20 -140 20 -118 0 -140 2 -140 15 0 12 -14
15 -65 15 -58 0 -65 2 -65 20 0 18 -7 20 -85 20 -69 0 -85 3 -85 15 0 10 -11
15 -35 15 -33 0 -35 2 -35 35 0 24 5 35 15 35 8 0 15 7 15 15 0 8 -7 15 -15
15 -13 0 -15 22 -15 135 0 128 -1 135 -20 135 -16 0 -20 7 -20 35 0 24 -5 35
-15 35 -10 0 -15 11 -15 35 0 24 -5 35 -15 35 -8 0 -15 7 -15 15 0 8 -9 15
-20 15 -13 0 -20 7 -20 20 0 11 -7 20 -15 20 -8 0 -15 7 -15 15 0 8 -9 15 -20
15 -11 0 -20 7 -20 15 0 8 -7 15 -15 15 -10 0 -15 11 -15 35 l0 35 -50 0 c-43
0 -50 3 -50 20 0 16 -7 20 -35 20 -24 0 -35 5 -35 15 0 11 -12 15 -50 15 -38
0 -50 4 -50 15 0 13 -33 15 -240 15 -233 0 -240 1 -240 20 0 11 -7 20 -15 20
-10 0 -15 11 -15 35 0 28 -4 35 -20 35 -11 0 -20 7 -20 15 0 8 -7 15 -15 15
-8 0 -15 7 -15 15 0 8 -7 15 -15 15 -8 0 -15 9 -15 20 0 13 -7 20 -20 20 -11
0 -20 7 -20 15 0 10 -11 15 -35 15 -28 0 -35 4 -35 20 0 11 -7 20 -15 20 -8 0
-15 7 -15 15 0 10 -11 15 -35 15 -24 0 -35 5 -35 15 0 11 -12 15 -50 15 -43 0
-50 3 -50 20 0 19 -7 20 -135 20 -128 0 -135 -1 -135 -20z m270 -65 c0 -11 12
-15 50 -15 43 0 50 -3 50 -20 0 -16 7 -20 35 -20 24 0 35 -5 35 -15 0 -8 7
-15 15 -15 8 0 15 -9 15 -20 0 -16 7 -20 35 -20 24 0 35 -5 35 -15 0 -8 9 -15
20 -15 11 0 20 -7 20 -15 0 -8 7 -15 15 -15 8 0 15 -9 15 -20 0 -11 7 -20 15
-20 11 0 15 -12 15 -50 l0 -50 -85 0 c-69 0 -85 -3 -85 -15 0 -11 -12 -15 -50
-15 -43 0 -50 -3 -50 -20 0 -18 -7 -20 -70 -20 -56 0 -70 -3 -70 -15 0 -11
-12 -15 -50 -15 -43 0 -50 -3 -50 -20 0 -17 -7 -20 -50 -20 -38 0 -50 -4 -50
-15 0 -10 -11 -15 -35 -15 -24 0 -35 -5 -35 -15 0 -8 -7 -15 -15 -15 -8 0 -15
-9 -15 -20 0 -13 -7 -20 -20 -20 -11 0 -20 -7 -20 -15 0 -8 -7 -15 -15 -15
-12 0 -15 -16 -15 -85 0 -69 -3 -85 -15 -85 -12 0 -15 -18 -15 -100 0 -82 3
-100 15 -100 12 0 15 -14 15 -70 0 -56 3 -70 15 -70 11 0 15 -12 15 -50 0 -43
3 -50 20 -50 16 0 20 -7 20 -35 0 -24 5 -35 15 -35 10 0 15 -11 15 -35 0 -28
4 -35 20 -35 11 0 20 -7 20 -15 0 -8 7 -15 15 -15 10 0 15 -11 15 -35 0 -24 5
-35 15 -35 8 0 15 -7 15 -15 0 -8 9 -15 20 -15 13 0 20 -7 20 -20 0 -11 7 -20
15 -20 8 0 15 -7 15 -15 0 -8 9 -15 20 -15 13 0 20 -7 20 -20 0 -11 7 -20 15
-20 8 0 15 -7 15 -15 0 -10 11 -15 35 -15 24 0 35 -5 35 -15 0 -12 16 -15 85
-15 78 0 85 -2 85 -20 0 -19 7 -20 135 -20 128 0 135 1 135 20 0 17 7 20 50
20 38 0 50 4 50 15 0 10 11 15 35 15 24 0 35 5 35 15 0 8 9 15 20 15 13 0 20
7 20 20 0 11 7 20 15 20 8 0 15 7 15 15 0 10 11 15 35 15 24 0 35 -5 35 -15 0
-8 7 -15 15 -15 8 0 15 -9 15 -20 0 -17 7 -20 50 -20 38 0 50 -4 50 -15 0 -8
9 -15 20 -15 11 0 20 7 20 15 0 8 7 15 15 15 8 0 15 -7 15 -15 0 -10 11 -15
35 -15 33 0 35 -2 35 -35 0 -24 -5 -35 -15 -35 -10 0 -15 -11 -15 -35 0 -24 5
-35 15 -35 12 0 15 -14 15 -65 l0 -65 -35 0 c-28 0 -35 -4 -35 -20 0 -16 -7
-20 -35 -20 -24 0 -35 -5 -35 -15 0 -10 -10 -15 -30 -15 -20 0 -30 -5 -30 -15
0 -10 -11 -15 -35 -15 -28 0 -35 -4 -35 -20 0 -17 -7 -20 -50 -20 -38 0 -50
-4 -50 -15 0 -12 -13 -15 -55 -15 -48 0 -55 -2 -55 -20 0 -19 -7 -20 -100 -20
-82 0 -100 -3 -100 -15 0 -8 -7 -15 -15 -15 -8 0 -15 7 -15 15 0 8 -9 15 -20
15 -11 0 -20 -7 -20 -15 0 -10 -11 -15 -35 -15 -24 0 -35 5 -35 15 0 8 -7 15
-15 15 -8 0 -15 -7 -15 -15 0 -8 -9 -15 -20 -15 -11 0 -20 7 -20 15 0 12 -18
15 -100 15 -93 0 -100 1 -100 20 0 18 -7 20 -70 20 -56 0 -70 3 -70 15 0 10
-10 15 -30 15 -23 0 -30 4 -30 20 0 16 -7 20 -35 20 -24 0 -35 5 -35 15 0 8
-9 15 -20 15 -11 0 -20 7 -20 15 0 10 -10 15 -30 15 -23 0 -30 4 -30 20 0 13
-7 20 -20 20 -11 0 -20 7 -20 15 0 10 -11 15 -35 15 -33 0 -35 2 -35 35 0 24
-5 35 -15 35 -8 0 -15 7 -15 15 0 8 -7 15 -15 15 -10 0 -15 11 -15 35 0 28 -4
35 -20 35 -13 0 -20 7 -20 20 0 11 -7 20 -15 20 -8 0 -15 7 -15 15 0 8 -9 15
-20 15 -16 0 -20 7 -20 35 0 24 -5 35 -15 35 -8 0 -15 7 -15 15 0 8 -7 15 -15
15 -10 0 -15 11 -15 35 0 28 -4 35 -20 35 -11 0 -20 7 -20 15 0 8 -7 15 -15
15 -10 0 -15 11 -15 35 0 28 -4 35 -20 35 -16 0 -20 7 -20 35 0 24 -5 35 -15
35 -10 0 -15 11 -15 35 0 24 -5 35 -15 35 -12 0 -15 14 -15 65 0 58 -2 65 -20
65 -19 0 -20 7 -20 105 0 87 -3 105 -15 105 -10 0 -15 10 -15 30 0 20 5 30 15
30 12 0 15 14 15 70 0 63 2 70 20 70 18 0 20 7 20 70 0 56 3 70 15 70 10 0 15
10 15 30 0 20 5 30 15 30 8 0 15 9 15 20 0 13 7 20 20 20 11 0 20 7 20 15 0 8
7 15 15 15 8 0 15 9 15 20 0 13 7 20 20 20 16 0 20 7 20 30 0 20 5 30 15 30 8
0 15 9 15 20 0 11 7 20 15 20 8 0 15 7 15 15 0 8 9 15 20 15 13 0 20 7 20 20
0 16 7 20 35 20 32 0 35 2 35 30 0 20 5 30 15 30 8 0 15 9 15 20 0 16 7 20 35
20 24 0 35 5 35 15 0 11 12 15 50 15 43 0 50 3 50 20 0 17 7 20 50 20 38 0 50
4 50 15 0 13 24 15 155 15 131 0 155 -2 155 -15z m750 -340 c0 -12 18 -15 100
-15 93 0 100 -1 100 -20 0 -16 7 -20 35 -20 24 0 35 -5 35 -15 0 -10 11 -15
35 -15 28 0 35 -4 35 -20 0 -16 7 -20 35 -20 24 0 35 -5 35 -15 0 -8 7 -15 15
-15 8 0 15 -7 15 -15 0 -8 7 -15 15 -15 8 0 15 -9 15 -20 0 -13 7 -20 20 -20
11 0 20 -7 20 -15 0 -8 7 -15 15 -15 10 0 15 -11 15 -35 0 -28 4 -35 20 -35
11 0 20 -7 20 -15 0 -8 7 -15 15 -15 12 0 15 -18 15 -105 0 -87 3 -105 15
-105 12 0 15 -16 15 -85 l0 -85 -85 0 c-78 0 -85 2 -85 20 0 16 -7 20 -30 20
-20 0 -30 5 -30 15 0 10 -11 15 -35 15 -28 0 -35 4 -35 20 0 16 -7 20 -35 20
-24 0 -35 5 -35 15 0 10 -11 15 -35 15 -24 0 -35 5 -35 15 0 10 -11 15 -35 15
-28 0 -35 4 -35 20 0 16 -7 20 -30 20 -20 0 -30 5 -30 15 0 12 -18 15 -105 15
-87 0 -105 3 -105 15 0 8 -7 15 -15 15 -8 0 -15 -7 -15 -15 0 -8 -9 -15 -20
-15 -11 0 -20 7 -20 15 0 8 -7 15 -15 15 -8 0 -15 -7 -15 -15 0 -13 -24 -15
-155 -15 -131 0 -155 -2 -155 -15 0 -12 -18 -15 -100 -15 -93 0 -100 -1 -100
-20 0 -17 -7 -20 -50 -20 -38 0 -50 -4 -50 -15 0 -12 -16 -15 -85 -15 -69 0
-85 -3 -85 -15 0 -12 -13 -15 -55 -15 l-55 0 0 65 c0 51 -3 65 -15 65 -8 0
-15 7 -15 15 0 8 7 15 15 15 12 0 15 16 15 85 0 78 2 85 20 85 13 0 20 7 20
20 0 11 7 20 15 20 8 0 15 7 15 15 0 8 9 15 20 15 13 0 20 7 20 20 0 16 7 20
30 20 20 0 30 5 30 15 0 12 14 15 70 15 56 0 70 3 70 15 0 11 12 15 50 15 43
0 50 3 50 20 0 18 7 20 70 20 56 0 70 3 70 15 0 12 16 15 85 15 78 0 85 2 85
20 0 19 7 20 120 20 100 0 120 3 120 15 0 12 16 15 85 15 69 0 85 -3 85 -15z
m70 -580 c0 -10 10 -15 30 -15 20 0 30 -5 30 -15 0 -10 11 -15 35 -15 28 0 35
-4 35 -20 0 -17 7 -20 50 -20 38 0 50 -4 50 -15 0 -8 9 -15 20 -15 13 0 20 -7
20 -20 0 -16 7 -20 35 -20 24 0 35 -5 35 -15 0 -10 10 -15 30 -15 20 0 30 -5
30 -15 0 -12 14 -15 70 -15 63 0 70 -2 70 -20 0 -18 7 -20 85 -20 69 0 85 -3
85 -15 0 -12 14 -15 70 -15 63 0 70 -2 70 -20 0 -19 7 -20 100 -20 82 0 100
-3 100 -15 0 -13 29 -15 205 -15 176 0 205 -2 205 -15 0 -8 7 -15 15 -15 8 0
15 7 15 15 0 10 11 15 35 15 l35 0 0 -205 0 -205 -220 0 c-213 0 -220 1 -220
20 0 11 -7 20 -15 20 -8 0 -15 -9 -15 -20 0 -18 -7 -20 -55 -20 -48 0 -55 2
-55 20 0 18 -7 20 -65 20 -51 0 -65 3 -65 15 0 12 -16 15 -85 15 -69 0 -85 3
-85 15 0 12 -18 15 -105 15 -98 0 -105 1 -105 20 0 17 -7 20 -50 20 -38 0 -50
4 -50 15 0 12 -14 15 -70 15 -63 0 -70 2 -70 20 0 17 -7 20 -50 20 -38 0 -50
4 -50 15 0 11 -12 15 -50 15 -38 0 -50 4 -50 15 0 12 -14 15 -70 15 -63 0 -70
2 -70 20 0 16 -7 20 -30 20 -20 0 -30 5 -30 15 0 8 -9 15 -20 15 -13 0 -20 7
-20 20 0 16 -7 20 -35 20 -24 0 -35 5 -35 15 0 10 -10 15 -30 15 -20 0 -30 5
-30 15 0 10 -11 15 -35 15 -28 0 -35 4 -35 20 0 13 -7 20 -20 20 -17 0 -20 7
-20 50 0 43 3 50 20 50 11 0 20 7 20 15 0 8 7 15 15 15 8 0 15 9 15 20 0 16 7
20 35 20 24 0 35 5 35 15 0 10 11 15 35 15 28 0 35 4 35 20 0 11 7 20 15 20 8
0 15 7 15 15 0 10 11 15 35 15 24 0 35 5 35 15 0 12 14 15 70 15 56 0 70 -3
70 -15z m-720 -30 c0 -8 7 -15 15 -15 8 0 15 -9 15 -20 0 -13 7 -20 20 -20 11
0 20 -7 20 -15 0 -8 7 -15 15 -15 10 0 15 -11 15 -35 0 -28 4 -35 20 -35 11 0
20 -7 20 -15 0 -8 7 -15 15 -15 8 0 15 -9 15 -20 0 -13 7 -20 20 -20 11 0 20
-7 20 -15 0 -8 7 -15 15 -15 8 0 15 -9 15 -20 0 -11 7 -20 15 -20 8 0 15 -7
15 -15 0 -8 9 -15 20 -15 11 0 20 -7 20 -15 0 -10 11 -15 35 -15 28 0 35 -4
35 -20 0 -16 7 -20 30 -20 20 0 30 -5 30 -15 0 -10 11 -15 35 -15 28 0 35 -4
35 -20 0 -16 7 -20 35 -20 32 0 35 -2 35 -30 0 -20 -5 -30 -15 -30 -8 0 -15
-9 -15 -20 0 -13 -7 -20 -20 -20 -11 0 -20 -7 -20 -15 0 -10 -11 -15 -35 -15
-28 0 -35 -4 -35 -20 0 -16 -7 -20 -30 -20 -20 0 -30 -5 -30 -15 0 -13 -28
-15 -190 -15 -162 0 -190 2 -190 15 0 11 -12 15 -50 15 -43 0 -50 3 -50 20 0
13 -7 20 -20 20 -11 0 -20 7 -20 15 0 8 -7 15 -15 15 -8 0 -15 9 -15 20 0 16
-7 20 -35 20 -24 0 -35 5 -35 15 0 8 -7 15 -15 15 -8 0 -15 7 -15 15 0 8 -9
15 -20 15 -13 0 -20 7 -20 20 0 11 -7 20 -15 20 -10 0 -15 11 -15 35 0 24 -5
35 -15 35 -10 0 -15 10 -15 30 0 23 -4 30 -20 30 -16 0 -20 7 -20 35 0 24 -5
35 -15 35 -12 0 -15 14 -15 70 0 56 3 70 15 70 8 0 15 7 15 15 0 12 16 15 85
15 78 0 85 2 85 20 0 18 7 20 70 20 56 0 70 3 70 15 0 11 12 15 50 15 38 0 50
-4 50 -15z m380 -35 c0 -16 -7 -20 -35 -20 -33 0 -35 -2 -35 -35 0 -33 -2 -35
-35 -35 -24 0 -35 -5 -35 -15 0 -8 -7 -15 -15 -15 -10 0 -15 11 -15 35 0 24 5
35 15 35 8 0 15 7 15 15 0 10 11 15 35 15 28 0 35 4 35 20 0 16 7 20 35 20 28
0 35 -4 35 -20z m2070 -305 c0 -8 -7 -15 -15 -15 -8 0 -15 7 -15 15 0 8 7 15
15 15 8 0 15 -7 15 -15z m310 -20 c0 -28 -4 -35 -20 -35 -16 0 -20 7 -20 35 0
28 4 35 20 35 16 0 20 -7 20 -35z m-240 -15 c0 -11 -7 -20 -15 -20 -8 0 -15 9
-15 20 0 11 7 20 15 20 8 0 15 -9 15 -20z m140 -35 c0 -48 -2 -55 -20 -55 -18
0 -20 7 -20 55 0 48 2 55 20 55 18 0 20 -7 20 -55z m-240 -70 c0 -78 -2 -85
-20 -85 -11 0 -20 -7 -20 -15 0 -8 9 -15 20 -15 13 0 20 -7 20 -20 0 -13 -7
-20 -20 -20 -11 0 -20 -7 -20 -15 0 -8 9 -15 20 -15 16 0 20 -7 20 -35 0 -28
-4 -35 -20 -35 -13 0 -20 7 -20 20 0 11 -7 20 -15 20 -12 0 -15 16 -15 85 0
69 3 85 15 85 12 0 15 14 15 65 0 58 2 65 20 65 18 0 20 -7 20 -85z m300 20
c0 -24 -5 -35 -15 -35 -10 0 -15 11 -15 35 0 24 5 35 15 35 10 0 15 -11 15
-35z m-230 -50 c0 -8 -9 -15 -20 -15 -11 0 -20 7 -20 15 0 8 9 15 20 15 11 0
20 -7 20 -15z m130 -120 c0 -113 -2 -135 -15 -135 -13 0 -15 22 -15 135 0 113
2 135 15 135 13 0 15 -22 15 -135z m-70 85 c0 -11 -7 -20 -15 -20 -8 0 -15 9
-15 20 0 11 7 20 15 20 8 0 15 -9 15 -20z m-60 -70 c0 -13 -7 -20 -20 -20 -13
0 -20 7 -20 20 0 13 7 20 20 20 13 0 20 -7 20 -20z m200 -50 c0 -56 -3 -70
-15 -70 -12 0 -15 14 -15 70 0 56 3 70 15 70 12 0 15 -14 15 -70z m-200 -15
c0 -8 -9 -15 -20 -15 -11 0 -20 7 -20 15 0 8 9 15 20 15 11 0 20 -7 20 -15z"/>
<path d="M3990 805 c0 -8 7 -15 15 -15 8 0 15 -9 15 -20 0 -13 7 -20 20 -20
13 0 20 7 20 20 0 13 -7 20 -20 20 -11 0 -20 7 -20 15 0 8 -7 15 -15 15 -8 0
-15 -7 -15 -15z"/>
<path d="M6100 1210 c0 -16 -7 -20 -35 -20 -24 0 -35 -5 -35 -15 0 -11 12 -15
50 -15 38 0 50 4 50 15 0 8 9 15 20 15 13 0 20 7 20 20 0 16 -7 20 -35 20 -28
0 -35 -4 -35 -20z"/>
<path d="M6130 1060 c0 -63 2 -70 20 -70 16 0 20 7 20 35 0 24 5 35 15 35 10
0 15 11 15 35 0 33 -2 35 -35 35 l-35 0 0 -70z"/>
<path d="M6130 940 c0 -13 7 -20 20 -20 13 0 20 7 20 20 0 13 -7 20 -20 20
-13 0 -20 -7 -20 -20z"/>
<path d="M6100 870 c0 -11 7 -20 15 -20 8 0 15 9 15 20 0 11 -7 20 -15 20 -8
0 -15 -9 -15 -20z"/>
<path d="M6100 785 c0 -24 5 -35 15 -35 10 0 15 11 15 35 0 24 -5 35 -15 35
-10 0 -15 -11 -15 -35z"/>
<path d="M6030 635 c0 -69 3 -85 15 -85 11 0 15 12 15 50 0 43 3 50 20 50 11
0 20 -7 20 -15 0 -8 7 -15 15 -15 10 0 15 10 15 30 0 20 -5 30 -15 30 -8 0
-15 9 -15 20 0 16 -7 20 -35 20 l-35 0 0 -85z"/>
</g>
</svg>
