<?xml version="1.0" encoding="UTF-8" standalone="no"?>
<svg
   xmlns:dc="http://purl.org/dc/elements/1.1/"
   xmlns:cc="http://creativecommons.org/ns#"
   xmlns:rdf="http://www.w3.org/1999/02/22-rdf-syntax-ns#"
   xmlns:svg="http://www.w3.org/2000/svg"
   xmlns="http://www.w3.org/2000/svg"
   xmlns:sodipodi="http://sodipodi.sourceforge.net/DTD/sodipodi-0.dtd"
   xmlns:inkscape="http://www.inkscape.org/namespaces/inkscape"
   version="1.0"
   width="468pt"
   height="269pt"
   viewBox="0 0 468 269"
   preserveAspectRatio="xMidYMid meet"
   id="svg2"
   inkscape:version="0.47pre4 r22446"
   sodipodi:docname="Horizonschets.jpg.svg">
  <defs
     id="defs242">
    <inkscape:perspective
       sodipodi:type="inkscape:persp3d"
       inkscape:vp_x="0 : 168.125 : 1"
       inkscape:vp_y="0 : 1000 : 0"
       inkscape:vp_z="585 : 168.125 : 1"
       inkscape:persp3d-origin="292.5 : 112.08333 : 1"
       id="perspective244" />
  </defs>
  <sodipodi:namedview
     pagecolor="#ffffff"
     bordercolor="#666666"
     borderopacity="1"
     objecttolerance="10"
     gridtolerance="10"
     guidetolerance="10"
     inkscape:pageopacity="0"
     inkscape:pageshadow="2"
     inkscape:window-width="1280"
     inkscape:window-height="950"
     id="namedview240"
     showgrid="false"
     inkscape:zoom="0.76431227"
     inkscape:cx="326.93247"
     inkscape:cy="363.40276"
     inkscape:window-x="0"
     inkscape:window-y="25"
     inkscape:window-maximized="1"
     inkscape:current-layer="svg2" />
  <metadata
     id="metadata4">
Created by potrace 1.8, written by Peter Selinger 2001-2007
<rdf:RDF>
  <cc:Work
     rdf:about="">
    <dc:format>image/svg+xml</dc:format>
    <dc:type
       rdf:resource="http://purl.org/dc/dcmitype/StillImage" />
  </cc:Work>
</rdf:RDF>
</metadata>
  <g
     id="g3186"
     transform="translate(223.99221,338.08171)">
    <path
       d="m -175.81813,-251.19297 c -0.53793,0.8069 4.57242,14.38968 10.22071,26.8966 1.34483,3.22759 2.28621,6.18621 1.88276,6.58966 -0.40345,0.26897 -5.11036,0 -10.48968,-0.80689 -5.37932,-0.94139 -13.58278,-1.88277 -18.28968,-2.28622 l -8.47243,-0.80689 2.15173,4.03449 c 1.74827,3.63104 2.82414,4.03449 9.01036,4.43794 6.45518,0.40344 7.1276,0.67241 6.72415,3.36207 -0.26897,2.15173 0.26896,3.09311 1.61379,3.09311 1.21035,0 2.15173,0.8069 2.15173,1.88276 0,1.21035 -2.28621,2.15173 -6.72415,2.82415 -3.63104,0.53793 -6.72415,1.47931 -6.72415,2.28621 0,0.67241 2.68966,6.3207 6.05174,12.37243 3.36207,6.18622 6.05173,11.96899 6.05173,12.77589 0,0.8069 -1.34483,1.47931 -2.95863,1.47931 -4.97587,0 -6.85863,2.01725 -5.91725,5.91725 0.67242,2.95863 0.40345,3.49656 -2.82414,4.16897 -7.9345,1.74828 -9.14484,2.82415 -9.14484,7.53105 0,4.16898 -0.40345,4.57243 -4.03449,4.57243 -3.2276,0 -4.16898,-0.67242 -4.43794,-3.09311 -0.53794,-4.03449 1.61379,-6.58967 6.58966,-7.66554 4.97587,-1.07586 6.3207,-3.36207 2.68966,-4.30345 -3.09311,-0.8069 -3.49655,-1.88276 -1.34483,-4.03449 1.07587,-1.07586 0.94138,-2.28621 -0.40345,-4.30346 -1.34483,-2.28621 -1.34483,-3.36207 0,-5.5138 2.4207,-3.90001 2.01725,-4.43794 -2.28621,-3.63104 -4.97587,1.07586 -7.26208,-1.47931 -6.05173,-6.45519 0.8069,-3.49655 0.67241,-3.63104 -2.68966,-2.82414 -2.55518,0.67242 -3.49656,0.40345 -3.49656,-1.07586 0,-1.07587 -0.8069,-2.82414 -1.88276,-3.76553 -1.07587,-1.07586 -2.15173,-3.0931 -2.55518,-4.57242 -0.26896,-1.34483 -0.53793,31.06558 -0.53793,72.08289 l -0.10531,18.82762 171.57113,0 c 93.73465,-0.13448 197.15208,-0.26897 229.83145,-0.40345 l 59.57597,-0.26896 0,-27.56902 0,-27.56902 -3.63104,-0.13448 c -7.26208,-0.13448 -41.28628,-7.39656 -42.22766,-8.87588 -1.34483,-2.15172 0.13448,-19.09658 1.74828,-20.03796 0.80689,-0.53793 0.67241,-1.88276 -0.40345,-3.63104 -1.34483,-2.01725 -3.76553,-2.82415 -11.02761,-3.63104 -9.81726,-0.94139 -10.75864,-0.53794 -12.37244,4.30345 -0.67241,2.55518 -0.26896,3.09311 2.01725,3.09311 2.15173,0 2.68966,0.67242 2.15173,2.28621 -0.40345,1.34483 -1.07587,5.37932 -1.6138,8.87588 l -0.8069,6.45518 -8.06898,-0.94138 -7.93449,-0.94138 0.40345,7.9345 c 0.40344,7.53105 0.53793,7.93449 4.16897,8.33794 2.01724,0.26897 3.63104,0.94138 3.63104,1.6138 0,0.53793 -1.34483,0.8069 -2.82414,0.40345 -2.01725,-0.53793 -3.63104,0 -4.70691,1.61379 -2.82414,3.76553 -2.28621,7.53105 0.94138,8.33795 2.82415,0.8069 2.82415,0.94138 0.53793,2.55518 -1.74827,1.34483 -3.0931,1.34483 -4.97587,0.40345 -1.88276,-0.94138 -3.09311,-0.94138 -4.43794,0.13448 -1.21034,1.07586 -2.01724,1.07586 -2.68966,0 -0.40344,-0.8069 -1.47931,-1.07586 -2.15172,-0.67241 -0.67242,0.53793 -1.21035,0 -1.21035,-1.07587 0,-1.21035 1.21035,-1.61379 3.90001,-1.21035 2.15172,0.26897 4.16897,0 4.57242,-0.67241 0.40345,-0.53793 -0.26897,-5.5138 -1.47931,-10.89312 -1.74828,-7.39657 -2.82415,-9.68278 -4.57243,-9.68278 -2.82414,0 -8.06898,9.68278 -7.53104,13.85175 0.26896,2.01724 -0.13449,2.82414 -1.6138,2.42069 -1.07586,-0.26896 -4.84139,-0.40345 -8.33795,-0.26896 l -6.45518,0.26896 0,-7.1276 c 0,-4.7069 -0.8069,-8.20346 -2.42069,-10.2207 l -2.4207,-3.2276 -2.28621,3.49656 c -1.6138,2.4207 -2.28621,6.3207 -2.28621,12.91037 0,7.39657 -0.40345,9.41381 -2.01725,9.54829 -1.07586,0.13449 -2.68966,0.26897 -3.49655,0.40345 -1.74828,0.13449 -13.58279,-29.45177 -13.85175,-34.69661 -0.13449,-4.57242 -2.82415,-5.91725 -11.56554,-6.05174 -7.66553,-0.13448 -10.48967,1.34483 -7.39657,3.90001 3.36208,2.82414 4.16898,4.97587 8.06898,22.05521 4.03449,18.02072 3.76553,21.11383 -1.21034,17.88624 -2.15173,-1.47931 -3.49656,-1.74828 -4.57242,-0.67241 -0.94139,0.94138 -2.55518,0.53793 -5.51381,-1.47932 -3.49656,-2.55517 -4.43794,-2.68966 -6.85863,-1.21034 -2.42069,1.47931 -3.09311,1.34483 -4.16897,-0.67242 -0.8069,-1.21035 -2.95863,-2.28621 -4.84139,-2.28621 -2.55518,0 -3.22759,-0.53793 -2.55518,-2.15173 0.53793,-1.21035 0.13448,-3.09311 -0.67241,-4.16897 -1.34483,-1.47931 -2.01725,-1.47931 -4.03449,0.40345 -1.34483,1.21034 -2.01725,2.95862 -1.6138,4.03449 0.53793,1.47931 -0.94138,1.88276 -6.85863,1.88276 -6.99312,0 -7.66553,0.26897 -9.14485,3.63104 -2.28621,5.24484 -2.15172,5.11036 -5.24483,2.4207 -3.63104,-3.36208 -9.41381,-4.16898 -10.89313,-1.47932 -2.01724,3.63104 -3.49655,2.4207 -4.97587,-4.30345 -1.61379,-7.80002 -0.26896,-9.68278 8.47243,-10.62416 3.36208,-0.40345 6.18622,-1.34483 6.18622,-1.88276 0,-1.6138 -4.97587,-1.47932 -10.48967,0 -3.90001,1.21034 -4.43794,0.94138 -6.18622,-2.28621 -0.94138,-2.01725 -2.28621,-6.58967 -2.68966,-10.08623 -1.07587,-7.39656 -4.30346,-8.06898 -4.03449,-0.8069 0.13448,2.55518 0.26896,6.3207 0.40345,8.60692 0.13448,3.49655 -0.26897,8.87587 -0.94138,15.06209 -0.26897,1.21035 -3.49656,1.74828 -11.56554,1.74828 -9.01036,0 -12.37244,0.53793 -16.00348,2.68966 -3.76552,2.15173 -4.43794,3.36208 -3.90001,6.05174 0.26897,2.01724 0,3.36207 -0.94138,3.36207 -0.8069,0 -1.47931,-0.67242 -1.47931,-1.47931 0,-0.8069 -0.94138,-1.07587 -2.01725,-0.67242 -1.34483,0.53793 -2.55517,-0.26896 -3.22759,-2.28621 -1.47931,-3.76552 -0.8069,-4.84139 2.4207,-4.03449 1.88276,0.40345 2.68966,-0.26896 3.22759,-3.22759 0.40345,-2.01725 0,-4.97587 -0.8069,-6.45519 -0.8069,-1.47931 -1.74828,-4.57242 -2.28621,-6.72415 -0.8069,-3.9 -4.57242,-5.78276 -4.84139,-2.42069 -0.13448,0.94138 -0.26896,2.28621 -0.40345,2.82414 0,0.67242 -1.61379,1.88277 -3.49656,2.68966 -2.82414,1.34483 -3.22759,2.15173 -2.55517,5.24484 0.53793,2.15173 1.47931,3.90001 2.15173,4.16897 0.53793,0.26897 1.07586,1.34483 1.07586,2.4207 0,1.07586 0.67241,1.88276 1.34483,1.88276 0.8069,0 1.34483,1.47931 1.34483,3.36208 0,2.68966 -0.67242,3.36207 -3.36208,3.36207 -1.88276,0 -3.36207,-0.67241 -3.36207,-1.47931 0,-0.8069 -1.34483,-1.34483 -2.95863,-1.21035 -5.24483,0.53793 -6.45518,0.13448 -6.45518,-2.01724 0,-1.21035 1.47931,-2.68966 3.36207,-3.36208 3.76553,-1.47931 3.49656,-2.95863 -3.36207,-17.48279 -1.47931,-3.09311 -3.22759,-2.42069 -4.43794,2.01724 -0.67241,2.15173 -2.15173,5.64829 -3.09311,7.66554 -2.55518,4.7069 -2.55518,4.7069 2.15173,7.1276 4.43794,2.28621 5.5138,5.37932 1.47931,4.30345 -1.61379,-0.40345 -3.9,0.53793 -5.64828,2.15173 l -2.95863,2.68966 -2.15173,-2.82414 c -1.47931,-2.01725 -3.09311,-2.68966 -5.11035,-2.15173 -1.74828,0.53793 -3.09311,0.26896 -3.09311,-0.53793 0,-2.28621 -8.33795,-1.47932 -12.10347,1.07586 -1.88276,1.34483 -5.37932,2.82414 -7.66553,3.36208 -4.30346,0.80689 -4.43794,0.67241 -4.43794,-3.36208 0,-3.63104 0.40345,-4.03449 2.68966,-3.36207 1.88276,0.53793 2.68966,0.26896 2.68966,-1.07587 0,-2.55518 9.54829,-5.11035 12.6414,-3.36207 1.21035,0.67241 2.82414,0.80689 3.49656,0.40345 2.01724,-1.34484 1.6138,-6.05174 -0.67242,-6.72416 -6.99311,-2.15172 -6.58966,-1.88276 -4.16897,-4.43793 3.09311,-3.63105 2.68966,-6.85864 -1.21035,-7.80002 -1.88276,-0.40345 -3.36207,-1.34483 -3.36207,-2.15173 0,-0.67241 0.67241,-0.80689 1.34483,-0.40344 1.74828,1.07586 1.74828,-1.07587 -0.26897,-5.37932 -1.21034,-2.68966 -2.42069,-3.49656 -4.7069,-2.95863 -1.6138,0.26897 -2.68966,0 -2.28621,-0.67242 0.53793,-0.67241 -0.40345,-2.15172 -2.01725,-3.22759 -1.61379,-1.07586 -2.82414,-3.22759 -2.82414,-4.57242 0,-3.76552 -2.42069,-4.57242 -4.30346,-1.34483 -1.21034,1.88276 -3.09311,2.68966 -6.72415,2.68966 -2.68966,0 -5.11035,-0.67241 -5.37932,-1.47931 -0.67241,-1.88276 -13.4483,10.48967 -15.86899,15.46554 -1.07586,2.28621 -2.55518,4.16898 -3.36207,4.16898 -1.21035,0 -5.37932,-10.3552 -9.01037,-22.72763 -1.21034,-4.03449 -3.36207,-7.53105 -5.11035,-8.7414 -3.09311,-2.01724 -3.09311,-2.01724 -2.15173,1.21035 1.07587,3.63104 1.74828,6.18622 6.05174,22.1897 4.16897,15.60002 3.76552,14.79312 6.58966,12.23795 3.90001,-3.36208 4.43794,-2.68966 3.63105,4.57242 -0.53794,5.37932 -0.40345,6.72415 1.21034,6.72415 1.07587,0 3.63104,1.47931 5.64829,3.36208 2.42069,2.28621 4.03449,2.95862 4.57242,1.88276 0.53793,-0.8069 1.21035,0 1.6138,2.01724 0.80689,4.16898 -0.53794,5.37932 -4.70691,4.30346 -4.03449,-0.94138 -10.48967,-6.85863 -10.08622,-8.87588 0.26896,-0.94138 -2.4207,-3.09311 -6.05174,-4.97587 l -6.3207,-3.22759 2.01725,-4.03449 c 2.15172,-3.90001 2.01724,-3.90001 -1.74828,-4.70691 l -3.90001,-0.8069 -1.47931,-16.27244 c -1.47932,-15.06209 -1.34483,-16.54141 0.80689,-18.1552 2.15173,-1.74828 2.15173,-1.88277 0,-3.49656 -2.95862,-2.15173 -3.0931,-3.49656 -0.40344,-3.49656 1.07586,0 2.01724,-0.94138 2.01724,-2.01724 0,-1.6138 -6.85863,-21.51728 -10.75864,-31.06558 -1.07586,-2.68966 -7.53105,-5.24483 -8.60691,-3.36207 z m -3.49656,58.63459 c 0,10.2207 -1.21035,11.0276 -5.5138,3.76552 -4.84139,-8.06898 -4.84139,-9.54829 -0.13449,-10.08623 5.24484,-0.67241 5.64829,-0.26896 5.64829,6.32071 z m -4.03449,24.87935 c 0,1.47931 -0.94138,2.68966 -2.01724,2.68966 -1.07587,0 -2.01725,-0.26897 -2.01725,-0.53793 0,-0.26897 -0.40345,-1.47932 -0.8069,-2.68966 -0.53793,-1.6138 0,-2.15173 2.01725,-2.15173 1.88276,0 2.82414,0.8069 2.82414,2.68966 z m 29.58626,0 c 0,1.47931 -0.94138,2.68966 -2.01724,2.68966 -2.28622,0 -2.4207,-0.26897 -1.21035,-3.22759 1.21035,-3.09311 3.22759,-2.68966 3.22759,0.53793 z m -62.53459,11.02761 c 4.43793,2.01724 3.9,5.64828 -1.07587,6.18621 -3.22759,0.40345 -3.63104,0 -3.63104,-3.63104 0,-4.7069 0,-4.7069 4.70691,-2.55517 z m 98.0381,6.05173 c -1.21035,4.84139 -1.74828,5.37932 -3.22759,3.09311 -2.28621,-3.49656 -1.47931,-6.72415 1.34483,-6.72415 2.28621,0 2.55518,0.53793 1.88276,3.63104 z m 8.87588,-0.13448 c 0,3.09311 -2.68966,7.39656 -4.16897,6.58967 -1.34483,-0.94139 -1.6138,-6.45519 -0.26897,-7.80002 1.6138,-1.74828 4.43794,-0.94138 4.43794,1.21035 z"
       id="path136"
       style="fill:#000000;stroke:none"
       sodipodi:nodetypes="cccccccccsscscssccsscscscccccscccccccccccccccscccccccsccccscccscccsccccccccscccccccscscsccccscccccsccccccsccssccccsccccccssssscsccccccccccsccscscccccsccccsscsccsccccccscccccccccccccsscccccccssssccsccccscccsccccc" />
    <path
       d="m -152.55257,-216.09291 c -0.13449,0.40345 -0.13449,1.21035 0,1.88276 0.13448,0.67242 -0.53793,1.74828 -1.47932,2.28621 -1.34483,0.94138 -1.34483,1.21035 0.13449,1.21035 1.07586,0 2.55517,0.8069 3.36207,1.88276 0.94138,1.07587 5.37932,2.15173 11.96899,2.55518 10.08622,0.67241 10.48967,0.67241 10.08622,-2.01725 -0.26896,-2.42069 -2.42069,-3.36207 -12.10347,-5.78277 -6.58966,-1.47931 -11.96898,-2.42069 -11.96898,-2.01724 z"
       id="path140"
       style="fill:#000000;stroke:none" />
    <path
       d="m -15.11095,-163.24109 c -0.8069,1.07586 -1.21034,2.15173 -0.8069,2.42069 1.21035,1.34483 13.31382,-0.94138 13.85175,-2.55517 0.67242,-2.28622 -11.0276,-2.15173 -13.04485,0.13448 z"
       id="path142"
       style="fill:#000000;stroke:none" />
  </g>
</svg>
