<?xml version="1.0" standalone="no"?>
<!DOCTYPE svg PUBLIC "-//W3C//DTD SVG 20010904//EN"
 "http://www.w3.org/TR/2001/REC-SVG-20010904/DTD/svg10.dtd">
<svg version="1.0" xmlns="http://www.w3.org/2000/svg"
 width="468pt" height="628pt" viewBox="0 0 468 628"
 preserveAspectRatio="xMidYMid meet">
<metadata>
Created by potrace 1.8, written by Peter Selinger 2001-2007
</metadata>
<g transform="translate(0,628) scale(0.090347,-0.090347)"
fill="#000000" stroke="none">
<path d="M4115 6880 c-54 -12 -97 -41 -174 -117 -83 -81 -115 -101 -230 -142
-120 -44 -153 -63 -185 -108 -59 -84 -35 -211 55 -299 32 -31 39 -45 39 -75 0
-52 26 -79 145 -153 95 -59 100 -64 107 -103 4 -23 14 -55 22 -72 9 -16 16
-32 16 -35 0 -2 -31 -11 -69 -20 -100 -23 -117 -31 -163 -78 -42 -43 -80 -117
-92 -178 l-7 -35 38 43 c21 23 43 42 49 42 7 0 26 -16 43 -35 17 -19 33 -35
36 -35 13 0 3 55 -16 78 -22 29 -19 64 8 95 9 9 48 26 87 38 39 11 88 27 109
35 34 13 40 13 53 -1 39 -39 161 5 210 76 35 51 77 53 135 7 85 -68 135 -157
158 -280 8 -45 7 -48 -13 -48 -12 0 -37 5 -56 10 -19 6 -81 17 -137 26 -98 14
-109 14 -230 -6 -157 -26 -231 -59 -312 -139 -96 -94 -115 -206 -56 -327 57
-117 256 -218 470 -238 64 -6 242 11 315 30 65 17 -61 -76 -361 -266 -234
-148 -379 -337 -471 -612 -37 -112 -41 -135 -45 -253 -4 -99 -1 -146 10 -192
21 -79 89 -231 142 -312 l41 -65 -33 -66 c-59 -116 -69 -316 -24 -461 51 -163
208 -354 446 -544 162 -129 234 -204 276 -287 27 -54 56 -154 47 -164 -3 -2
-36 3 -74 11 -128 27 -336 47 -424 42 -94 -6 -212 -34 -281 -66 -25 -12 -83
-54 -130 -94 -68 -59 -90 -86 -119 -142 -34 -68 -35 -73 -35 -191 l0 -122 -49
-12 c-82 -21 -182 -77 -226 -127 -37 -42 -40 -50 -40 -104 0 -33 -2 -59 -4
-59 -3 0 -47 11 -98 25 -312 84 -626 103 -963 60 -231 -30 -500 -118 -761
-248 -271 -135 -528 -232 -651 -244 l-63 -6 0 32 c0 26 -4 31 -24 31 -17 0
-27 -7 -32 -22 -6 -22 -7 -22 -14 -4 -9 27 -46 31 -53 6 -3 -11 -10 -20 -16
-20 -8 0 -7 6 1 20 7 10 9 23 5 27 -12 12 -42 -12 -45 -36 -3 -18 2 -21 30
-21 19 0 39 5 46 12 9 9 12 9 12 0 0 -18 38 -14 49 6 13 22 37 2 27 -24 -6
-15 -18 -16 -99 -11 -50 3 -116 12 -145 20 -87 24 -146 95 -161 192 -8 55 -39
60 -75 12 -22 -28 -26 -44 -26 -99 0 -129 57 -231 173 -311 97 -67 180 -90
342 -95 126 -3 155 -1 290 27 153 31 376 101 520 164 44 19 112 48 150 65 245
107 493 189 610 202 180 20 394 -12 579 -85 34 -13 84 -29 111 -36 28 -6 138
-48 245 -92 239 -98 275 -110 420 -147 455 -114 864 -138 1110 -64 187 56 363
190 396 301 8 26 14 81 14 123 0 62 -5 86 -24 122 l-24 45 23 41 c67 117 92
289 61 411 -19 76 -66 161 -105 193 -27 22 -28 25 -21 83 14 101 11 232 -6
308 -21 90 -86 231 -148 320 -53 75 -223 267 -258 292 -47 32 -242 233 -283
290 -53 74 -70 128 -61 189 8 51 13 53 57 30 104 -53 359 -51 502 4 114 44
240 150 286 239 11 23 22 72 26 119 7 76 6 83 -23 140 -56 108 -213 219 -361
254 -69 16 -280 7 -366 -15 -33 -9 -84 -29 -114 -45 -29 -16 -57 -27 -62 -24
-16 10 -61 170 -71 257 -13 104 -3 176 37 260 47 101 111 153 410 332 252 151
321 208 420 340 66 88 88 165 83 279 -6 106 -32 191 -79 248 -27 34 -29 42
-20 68 17 50 24 239 12 310 -22 119 -63 244 -115 346 l-51 101 32 44 c50 67
46 123 -14 238 -45 87 -46 92 -49 188 -2 108 -10 135 -47 175 -43 46 -164 51
-251 9 -23 -12 -45 -21 -48 -21 -3 0 -13 21 -23 47 -20 51 -75 117 -114 137
-36 18 -81 24 -116 16z m122 -92 c29 -29 48 -59 58 -92 25 -85 43 -92 128 -52
75 36 147 43 186 20 39 -23 51 -63 51 -166 0 -86 13 -128 68 -217 28 -48 33
-63 29 -101 -4 -38 -12 -52 -51 -87 -56 -50 -122 -83 -179 -89 -37 -4 -40 -3
-23 8 42 28 94 79 99 97 8 31 -15 65 -45 68 -20 1 -28 -4 -32 -23 -4 -14 -28
-38 -61 -60 -50 -34 -55 -40 -55 -74 0 -44 -10 -53 -69 -68 -94 -23 -441 58
-564 132 -28 17 -52 36 -54 41 -2 6 17 33 42 60 55 61 59 95 15 133 -19 17
-30 36 -30 54 0 35 -33 47 -61 22 -28 -25 -24 -51 16 -100 19 -23 35 -45 35
-48 0 -7 -56 -36 -69 -36 -19 0 -82 63 -102 101 -26 52 -25 128 2 182 12 23
27 45 33 49 6 4 59 23 118 42 143 47 179 66 230 127 24 28 66 67 95 88 45 33
58 37 99 35 41 -3 54 -9 91 -46z m-504 -438 c3 -11 1 -18 -4 -14 -5 3 -9 12
-9 20 0 20 7 17 13 -6z m67 -92 c0 -13 0 -14 -29 32 l-23 35 26 -28 c14 -15
26 -33 26 -39z m-97 -122 c-4 -19 3 -30 35 -53 114 -83 515 -181 624 -153 24
6 49 19 55 27 15 19 28 11 20 -11 -24 -61 -191 -70 -392 -22 -87 21 -140 40
-190 69 -111 64 -185 117 -185 132 0 11 21 30 36 35 1 0 -1 -11 -3 -24z m837
-31 c-7 -13 -22 -27 -32 -31 -10 -3 -32 -17 -48 -31 -17 -13 -30 -20 -30 -14
0 6 25 29 55 51 30 22 55 46 55 52 0 6 3 8 7 5 3 -4 0 -18 -7 -32z m162 -100
c3 -3 -7 -19 -23 -35 -28 -27 -29 -32 -23 -87 8 -72 33 -146 68 -201 25 -40
28 -42 76 -42 48 0 49 -1 56 -34 7 -42 -1 -59 -28 -51 -60 20 -93 -24 -132
-181 -30 -118 -23 -143 46 -163 64 -19 70 -27 51 -65 -29 -57 -33 -59 -64 -25
-36 39 -46 37 -189 -34 -118 -59 -125 -69 -90 -138 26 -49 18 -63 -42 -73 -38
-7 -38 -7 -38 28 0 81 -45 117 -154 124 -103 6 -148 -9 -190 -64 -19 -25 -36
-50 -38 -56 -5 -13 -60 3 -64 18 -2 5 27 32 64 59 73 55 112 105 112 143 0 22
-14 73 -43 154 -15 45 -68 71 -139 69 -33 -1 -67 -5 -76 -10 -9 -4 -32 -11
-51 -15 -28 -5 -32 -4 -21 8 20 25 105 75 154 92 46 16 47 16 85 -9 22 -14 50
-45 63 -69 28 -52 74 -71 166 -70 92 2 156 42 169 104 6 28 17 33 47 22 16 -6
16 -23 0 -101 -7 -37 -30 -52 -71 -46 -58 8 -123 -14 -160 -54 -54 -56 -57
-67 -28 -102 51 -60 170 -72 255 -25 168 91 236 218 239 444 2 134 -37 295
-98 404 l-21 36 53 24 c55 26 70 30 79 21z m31 -50 c4 -8 2 -17 -3 -20 -11 -7
-13 -106 -4 -153 9 -43 39 -72 75 -72 18 0 32 -6 36 -16 8 -21 -15 -35 -52
-32 -26 3 -34 12 -65 72 -52 105 -55 236 -5 236 7 0 15 -7 18 -15z m-200 -27
c-13 -12 -25 -19 -29 -15 -10 10 16 37 34 37 13 0 12 -4 -5 -22z m37 -22 c0
-7 -72 -47 -77 -43 -2 3 11 14 29 26 32 20 48 26 48 17z m204 -33 c35 -73 49
-125 36 -133 -20 -12 -47 0 -59 26 -13 29 -15 144 -3 144 5 0 16 -17 26 -37z
m-812 -11 c20 -42 8 -65 -16 -31 -16 24 -22 69 -8 69 4 -1 15 -17 24 -38z
m628 9 c0 -11 -119 -91 -137 -91 -29 0 -10 21 55 59 69 42 82 47 82 32z m-554
-36 c-6 -24 -77 -85 -99 -85 -5 0 5 10 24 23 18 12 42 39 53 60 21 41 32 42
22 2z m574 -20 c0 -14 -107 -75 -130 -75 -27 0 -3 29 52 62 62 37 78 39 78 13z
m-475 -4 c-16 -27 -115 -64 -115 -43 0 16 25 32 50 32 14 0 35 6 46 14 21 16
30 14 19 -3z m485 -45 c0 -14 -109 -68 -122 -60 -15 9 4 26 56 50 61 27 66 28
66 10z m-800 -52 c-93 -29 -134 -68 -128 -120 4 -36 -1 -41 -20 -22 -8 8 -15
8 -27 -2 -22 -18 -19 -3 10 45 32 55 81 92 147 109 86 24 99 16 18 -10z m820
11 c0 -15 -53 -42 -102 -52 -47 -9 -31 11 30 39 67 32 72 33 72 13z m10 -53
c0 -23 -106 -60 -123 -43 -7 7 1 15 29 26 21 9 48 20 59 25 30 13 35 12 35 -8z
m10 -51 c0 -14 -13 -24 -47 -35 -59 -20 -75 -20 -71 1 2 9 24 24 53 34 64 22
65 22 65 0z m8 -62 c3 -19 -9 -25 -72 -34 -62 -10 -65 17 -3 38 51 18 71 17
75 -4z m192 -39 c9 -17 6 -22 -27 -37 -32 -15 -42 -29 -65 -83 -14 -36 -27
-73 -27 -82 -1 -10 16 -29 38 -44 43 -28 53 -44 41 -63 -5 -10 -12 -10 -26 -2
-11 6 -37 17 -58 26 l-39 15 6 53 c8 70 42 178 68 211 25 32 73 36 89 6z
m-190 -26 c0 -17 -40 -34 -81 -34 -22 0 -29 5 -29 20 0 14 9 21 38 25 20 4 42
8 47 9 15 5 25 -3 25 -20z m190 -80 c0 -67 -18 -144 -34 -144 -6 0 -24 11 -41
24 l-30 24 24 58 c22 55 52 94 72 94 5 0 9 -25 9 -56z m-715 7 c19 -43 52 -61
113 -61 27 0 42 8 68 35 36 39 49 43 58 19 10 -25 -25 -77 -64 -96 -66 -33
-187 -16 -218 30 -10 14 -32 41 -49 60 -18 18 -33 35 -33 37 0 5 40 12 76 14
27 1 33 -4 49 -38z m155 25 l34 -13 -28 -27 c-24 -25 -33 -28 -74 -23 -46 5
-82 32 -82 63 0 18 100 18 150 0z m360 -10 c0 -23 -17 -28 -60 -21 -65 11 -46
30 33 34 17 1 27 -4 27 -13z m-21 -45 c19 -12 6 -44 -16 -38 -10 3 -30 8 -45
11 -43 10 -36 36 10 36 20 0 43 -4 51 -9z m-16 -58 c4 -2 7 -13 7 -24 0 -21
-10 -21 -72 3 -28 10 -34 19 -21 31 6 7 69 -1 86 -10z m-613 -30 c28 -26 49
-77 66 -168 7 -37 -16 -69 -93 -128 -87 -66 -98 -70 -131 -53 -59 31 -58 41 9
66 70 25 104 56 120 109 13 45 -1 109 -34 146 l-22 26 -99 -25 c-55 -14 -101
-24 -103 -22 -14 13 18 38 66 52 31 8 61 17 66 19 6 2 36 4 67 4 49 1 62 -3
88 -26z m564 -18 c38 -16 46 -32 22 -41 -19 -7 -76 26 -76 43 0 17 10 16 54
-2z m-628 -50 c7 -19 14 -55 14 -81 0 -38 -5 -51 -29 -73 -37 -34 -137 -68
-160 -54 -44 27 -83 152 -59 186 15 20 132 55 186 56 28 1 35 -4 48 -34z m611
-3 c24 -15 22 -32 -4 -32 -20 0 -53 29 -53 46 0 15 21 10 57 -14z m-207 -18
c0 -8 -4 -12 -10 -9 -5 3 -10 10 -10 16 0 5 5 9 10 9 6 0 10 -7 10 -16z m167
-18 c20 -18 25 -28 17 -36 -13 -13 -64 23 -64 46 0 21 15 17 47 -10z m-21 -65
c-11 -17 -24 -13 -42 14 -24 36 -7 53 23 22 14 -14 22 -30 19 -36z m397 35 c3
-8 -5 -24 -19 -37 -22 -21 -24 -30 -24 -115 0 -88 1 -94 26 -113 15 -12 33
-21 40 -21 18 0 18 -46 0 -53 -22 -9 -86 10 -101 30 -17 22 -18 29 -5 91 8 33
8 57 1 75 -9 23 -5 37 25 92 36 66 48 76 57 51z m-454 -32 c12 -28 7 -44 -15
-44 -9 0 -14 11 -14 35 0 41 12 45 29 9z m-58 -57 c-13 -13 -15 11 -4 40 7 16
8 15 11 -6 2 -13 -1 -28 -7 -34z m336 31 c28 -26 29 -40 4 -62 -18 -16 -20
-16 -35 5 l-16 23 -57 -19 c-78 -27 -95 -44 -82 -87 13 -46 12 -48 -16 -48
-19 0 -29 10 -45 39 -11 22 -17 47 -14 55 5 12 88 57 194 104 36 15 41 15 67
-10z m219 -68 c8 -40 14 -87 12 -104 -3 -26 -7 -31 -28 -28 -37 4 -47 24 -49
103 -1 52 3 78 15 96 22 34 31 21 50 -67z m-583 50 c-3 -11 -7 -20 -9 -20 -2
0 -4 9 -4 20 0 11 4 20 9 20 5 0 7 -9 4 -20z m-33 0 c0 -5 -4 -10 -10 -10 -5
0 -10 5 -10 10 0 6 5 10 10 10 6 0 10 -4 10 -10z m355 -75 c0 -21 -89 -89
-109 -82 -14 5 -25 52 -15 68 11 18 68 38 99 36 18 -1 25 -8 25 -22z m-377
-24 c50 -27 70 -101 33 -121 -21 -11 -37 2 -26 20 14 23 -7 49 -52 64 -79 27
-107 22 -160 -29 -50 -48 -83 -58 -83 -26 0 23 42 76 74 93 48 26 164 26 214
-1z m486 -50 c-6 -78 -6 -80 20 -105 15 -13 45 -27 67 -31 21 -4 39 -10 39
-13 0 -4 -10 -20 -23 -36 l-23 -28 -39 21 c-61 32 -82 28 -165 -39 -156 -124
-160 -131 -115 -197 27 -41 26 -47 -18 -69 -30 -16 -31 -16 -52 10 -36 45
-114 30 -213 -43 -56 -41 -67 -72 -46 -117 16 -33 16 -36 -2 -49 -23 -17 -30
-18 -55 -4 -26 14 -76 -19 -137 -90 -67 -79 -80 -138 -41 -190 25 -34 18 -71
-12 -71 -56 0 -94 -61 -111 -178 -9 -65 -9 -86 6 -134 22 -77 38 -91 95 -85
25 3 58 8 72 12 20 5 28 3 33 -11 5 -14 -3 -27 -33 -52 -48 -40 -53 -70 -20
-135 37 -73 58 -95 115 -122 62 -29 94 -28 131 7 31 29 54 18 47 -22 -12 -59
49 -92 171 -93 88 0 139 18 150 54 4 11 5 46 3 77 l-3 57 60 5 c69 6 123 34
132 68 9 38 -25 73 -112 116 -120 60 -215 54 -292 -17 -31 -28 -38 -90 -18
-150 9 -27 14 -51 11 -54 -2 -3 -21 0 -40 7 -26 8 -38 19 -42 38 -19 87 -58
132 -115 132 -112 0 -9 88 134 115 259 48 422 12 567 -124 69 -65 75 -93 38
-168 -30 -60 -154 -176 -220 -206 -118 -54 -160 -62 -261 -49 -113 15 -237 51
-325 94 -49 24 -92 59 -163 130 -154 153 -224 294 -223 448 1 106 44 266 97
355 133 227 237 330 521 520 189 127 299 255 309 363 3 34 12 52 47 87 24 25
48 45 53 45 5 0 5 -36 1 -79z m-540 -6 c30 -13 36 -20 36 -46 l0 -31 -100 4
c-54 2 -102 7 -106 11 -18 17 65 77 107 77 15 0 43 -7 63 -15z m396 -40 c-14
-8 -29 -14 -35 -14 -5 0 1 6 15 14 14 8 30 14 35 14 6 0 -1 -6 -15 -14z m20
-22 c-1 -18 -17 -28 -50 -30 -60 -3 -68 9 -15 22 65 16 65 16 65 8z m-25 -53
c-3 -5 -17 -10 -30 -10 -13 0 -27 5 -30 10 -4 6 8 10 30 10 22 0 34 -4 30 -10z
m-42 -27 c21 -6 23 -23 3 -23 -28 0 -67 20 -61 31 4 6 14 7 24 4 9 -4 24 -10
34 -12z m-25 -37 l23 -12 -30 -33 -31 -33 -30 22 c-31 22 -39 40 -17 40 6 0
21 -7 31 -15 22 -17 36 -19 36 -7 0 5 -11 14 -25 20 -14 6 -25 16 -25 22 0 14
40 12 68 -4z m260 -32 c26 -17 28 -27 7 -44 -11 -9 -20 -8 -44 10 -37 26 -54
19 -123 -48 -38 -36 -48 -53 -48 -79 0 -17 5 -35 12 -39 12 -8 -16 -34 -37
-34 -15 0 -54 71 -48 88 3 6 30 32 61 56 32 24 66 53 77 63 59 56 89 61 143
27z m-339 -86 c-18 -15 -38 -28 -44 -28 -15 0 -56 68 -45 75 6 4 24 -4 41 -15
38 -28 50 -20 14 8 -42 33 -20 45 27 15 l40 -27 -33 -28z m295 26 c9 -8 16
-19 16 -24 0 -13 -79 -80 -116 -98 -31 -14 -36 -14 -44 -2 -16 26 -11 36 44
89 58 54 75 60 100 35z m-354 -66 c0 -10 -101 -78 -116 -78 -13 0 -56 75 -47
84 12 12 23 6 48 -31 30 -45 34 -29 5 20 -18 30 -18 35 -6 40 10 4 23 -5 37
-24 27 -38 36 -31 14 10 -24 48 -8 58 31 20 19 -18 34 -36 34 -41z m-157 -57
c26 -39 26 -40 6 -46 -11 -4 -22 -5 -23 -3 -19 26 -43 78 -39 82 14 14 32 3
56 -33z m-45 -30 c31 -55 10 -64 -37 -17 -30 30 -33 38 -21 46 26 16 36 11 58
-29z m-50 -30 c26 -32 29 -41 18 -50 -11 -9 -19 -2 -40 33 -14 25 -26 47 -26
50 0 16 20 2 48 -33z m-36 -26 c15 -24 23 -47 18 -50 -11 -7 -73 72 -65 85 11
17 19 11 47 -35z m-34 -24 c22 -27 28 -42 20 -47 -12 -7 -78 57 -78 76 0 22
28 8 58 -29z m344 22 c10 -9 18 -22 18 -29 0 -22 -20 -27 -40 -9 -16 15 -24
15 -57 5 -76 -25 -93 -40 -93 -85 0 -49 -6 -58 -31 -44 -19 10 -24 34 -13 63
9 23 95 82 146 100 54 19 48 19 70 -1z m-378 -50 c48 -52 27 -65 -23 -15 -45
44 -49 52 -26 52 8 0 30 -17 49 -37z m-23 -38 c44 -48 16 -56 -31 -10 -47 46
-53 40 -9 -9 45 -52 31 -67 -19 -22 -23 21 -42 42 -42 47 0 4 10 17 22 28 24
23 30 20 79 -34z m369 25 c0 -11 -105 -80 -121 -80 -22 0 -2 46 30 67 34 23
91 31 91 13z m-405 -118 c-2 -3 -15 2 -27 11 -55 38 -71 55 -63 67 5 8 20 -1
51 -31 24 -23 42 -45 39 -47z m-41 -1 c11 -12 17 -24 13 -27 -7 -7 -87 55 -87
68 0 12 52 -16 74 -41z m-44 -11 c19 -17 30 -30 24 -30 -5 0 -25 13 -44 30
-19 16 -30 29 -25 29 6 0 26 -13 45 -29z m-16 -25 c22 -19 35 -35 29 -35 -6 0
-28 16 -49 35 -49 45 -31 45 20 0z m-21 -20 c41 -39 44 -47 23 -64 -13 -11
-32 -4 -99 36 -5 3 -4 10 2 16 7 7 21 2 45 -16 36 -28 46 -32 46 -19 0 4 -16
17 -35 30 -19 12 -35 29 -35 37 0 22 11 18 53 -20z m267 6 c0 -5 -19 -29 -41
-53 -23 -23 -58 -78 -78 -120 -29 -60 -40 -75 -49 -66 -14 14 -16 57 -2 92 12
33 133 156 154 156 9 0 16 -4 16 -9z m-310 -71 c38 -19 53 -40 29 -40 -17 0
-79 40 -79 51 0 13 6 12 50 -11z m19 -57 c3 -2 0 -8 -6 -14 -6 -6 -25 -3 -57
10 -42 18 -45 22 -34 40 11 18 13 18 52 -7 23 -14 43 -28 45 -29z m-63 -19
c47 -19 48 -20 40 -33 -4 -6 -23 -4 -54 6 -56 19 -56 19 -47 32 8 15 16 14 61
-5z m20 -57 c2 -2 -2 -11 -9 -21 -12 -17 -15 -17 -55 -1 -38 16 -51 32 -36 48
5 5 91 -16 100 -26z m-65 -39 c41 -12 44 -15 30 -37 -6 -8 -18 -11 -32 -8 -35
9 -63 32 -55 45 9 15 10 15 57 0z m-3 -59 c34 -13 28 -33 -9 -25 -17 3 -38 6
-45 6 -8 0 -14 9 -14 21 0 21 6 21 68 -2z m6 -49 c13 -13 -3 -30 -27 -30 -43
0 -67 12 -67 32 0 18 5 19 43 13 23 -4 46 -11 51 -15z m226 -30 c0 -16 -4 -30
-10 -30 -19 0 -43 -66 -44 -121 -1 -67 19 -96 68 -101 24 -2 32 -8 34 -27 4
-26 -7 -36 -56 -50 -55 -16 -79 0 -98 65 -35 120 14 294 82 294 20 0 24 -5 24
-30z m-244 -54 c-3 -17 -9 -72 -12 -123 l-7 -91 -34 -7 c-40 -7 -53 -1 -53 26
0 15 7 19 34 19 19 0 37 4 40 9 3 4 -11 8 -32 7 -31 -1 -37 2 -37 19 0 15 9
22 35 26 l35 6 -38 2 c-31 1 -38 4 -35 19 3 13 13 17 41 16 20 -1 34 3 31 7
-3 5 -21 9 -40 9 -28 0 -35 4 -32 18 2 12 15 18 46 20 53 4 55 22 2 22 -26 0
-40 5 -40 13 0 27 20 35 62 24 38 -9 40 -12 34 -41z m259 -63 c11 -103 11
-116 -2 -120 -6 -2 -22 6 -33 17 -19 19 -22 31 -18 80 4 53 19 90 38 90 4 0
10 -30 15 -67z m-265 -171 c0 -9 -58 -32 -79 -32 -24 0 -4 25 25 31 43 10 54
10 54 1z m10 -26 c0 -2 2 -11 5 -18 4 -10 -7 -18 -36 -27 -42 -13 -68 -4 -55
18 9 13 86 38 86 27z m20 -72 c0 -8 -16 -22 -36 -31 -31 -15 -36 -15 -44 -3
-15 23 -12 27 28 43 40 16 52 14 52 -9z m921 -13 c73 -35 113 -70 107 -96 -5
-27 -67 -55 -119 -55 -26 0 -63 -7 -82 -15 -47 -20 -63 -20 -48 -1 7 8 41 26
76 42 54 22 65 31 65 50 0 18 -11 29 -42 45 -38 20 -46 20 -97 9 -83 -18 -93
-30 -85 -107 6 -59 6 -63 -14 -63 -26 0 -40 25 -48 82 -9 65 8 95 68 124 67
32 127 28 219 -15z m-606 -37 c-21 -32 -19 -51 10 -101 28 -47 62 -62 100 -45
20 9 28 7 47 -8 l23 -20 -25 -21 c-58 -49 -163 3 -214 106 -33 68 -29 97 17
125 30 19 33 19 44 3 11 -13 10 -21 -2 -39z m-295 2 c0 -16 -43 -46 -65 -46
-20 0 -19 23 3 42 32 29 62 30 62 4z m850 -11 c17 -9 30 -20 30 -25 0 -5 -28
-24 -62 -41 -35 -17 -76 -43 -93 -57 l-30 -25 -3 58 c-3 63 3 74 51 92 45 16
73 16 107 -2z m-495 -37 c17 -23 34 -47 40 -54 14 -19 -8 -38 -35 -29 -27 9
-60 62 -60 98 0 38 20 33 55 -15z m125 3 c10 -15 21 -40 24 -57 l6 -29 -11 30
c-17 45 -39 65 -71 65 -15 0 -28 4 -28 8 0 30 55 18 80 -17z m-457 12 c6 -5
-65 -53 -79 -53 -15 0 1 21 29 39 35 23 40 24 50 14z m17 -35 c0 -15 -65 -59
-74 -51 -12 13 -5 24 27 43 37 23 47 25 47 8z m427 -3 c9 -25 -2 -27 -22 -5
-17 18 -17 20 -1 20 9 0 19 -7 23 -15z m-404 -21 c3 -4 -8 -24 -25 -45 -29
-36 -33 -38 -47 -24 -15 15 -13 19 19 46 36 30 43 33 53 23z m27 -48 c0 -15
-52 -66 -68 -66 -19 0 -14 13 19 53 29 35 49 41 49 13z m1128 -30 c3 -12 -1
-17 -10 -14 -7 3 -15 13 -16 22 -3 12 1 17 10 14 7 -3 15 -13 16 -22z m-1098
-3 c-1 -20 -44 -73 -59 -73 -23 0 -21 23 4 55 28 38 55 46 55 18z m698 -53
c-4 -63 -33 -81 -130 -81 -110 0 -172 30 -155 76 8 19 59 2 92 -31 55 -55 175
-8 175 68 0 23 3 29 11 21 5 -5 9 -30 7 -53z m-668 19 c0 -13 -44 -79 -53 -79
-20 0 -16 33 8 64 25 33 45 39 45 15z m1057 -4 c3 -9 3 -19 -1 -22 -7 -7 -36
16 -36 28 0 15 30 10 37 -6z m-1022 -24 c6 -10 -44 -90 -56 -91 -19 -1 -15 32
7 64 25 37 38 44 49 27z m996 -10 c19 -16 21 -22 12 -32 -10 -10 -17 -9 -33 6
-20 19 -27 45 -11 45 5 0 19 -9 32 -19z m-441 -2 c0 -14 -41 -21 -78 -13 l-37
8 35 6 c50 9 80 9 80 -1z m-444 -78 l31 -23 -21 -39 c-23 -42 -42 -53 -32 -16
17 53 16 60 -4 25 -13 -24 -25 -35 -34 -32 -16 6 -12 25 11 59 7 11 13 24 13
30 0 5 -11 -7 -25 -28 -14 -20 -30 -37 -35 -37 -20 0 -18 20 5 54 14 20 25 40
25 43 0 12 -40 -30 -45 -48 -7 -20 -35 -27 -35 -8 0 14 19 50 38 72 14 16 17
16 46 -6 17 -13 45 -34 62 -46z m859 37 c24 -22 25 -24 10 -45 -9 -13 -20 -23
-25 -23 -14 0 -42 60 -36 76 8 20 21 18 51 -8z m-1071 -67 c38 -39 39 -41 25
-73 -17 -42 -18 -234 0 -266 17 -32 69 -62 107 -62 17 0 51 7 74 15 40 14 60
13 60 -3 0 -4 -22 -17 -50 -30 -43 -20 -50 -27 -50 -51 0 -33 36 -81 109 -147
65 -59 112 -71 160 -43 34 20 34 20 54 1 18 -18 18 -21 3 -51 -9 -17 -14 -37
-10 -44 22 -37 74 -94 117 -129 45 -35 56 -39 99 -37 41 2 53 -1 75 -23 22
-22 24 -30 14 -42 -10 -12 -8 -28 9 -82 11 -37 27 -99 35 -137 23 -110 72
-163 145 -155 26 3 37 -20 39 -79 1 -31 0 -32 -34 -26 -49 8 -76 -19 -115
-115 -18 -41 -47 -96 -66 -123 -39 -56 -42 -81 -14 -127 20 -32 86 -71 123
-72 21 0 21 -2 3 -44 -20 -48 -29 -50 -72 -15 -34 27 -45 30 -82 26 -24 -3
-48 -9 -54 -15 -6 -6 5 -7 34 -1 37 7 48 4 81 -18 39 -27 47 -52 22 -73 -12
-10 -20 -7 -46 14 -39 33 -74 33 -122 1 -42 -29 -44 -41 -21 -109 15 -45 15
-48 -2 -61 -27 -20 -35 -15 -72 46 -47 78 -42 105 28 146 61 37 60 44 -3 12
-90 -45 -95 -67 -42 -169 38 -75 38 -73 -32 -109 -55 -28 -63 -27 -63 9 0 116
-90 167 -305 171 -71 2 -85 -1 -122 -24 -23 -15 -50 -38 -60 -52 -10 -15 -27
-37 -38 -50 l-20 -24 -63 29 c-57 26 -62 31 -52 49 5 11 27 32 48 48 59 43 93
76 108 105 13 25 11 33 -24 110 -22 46 -48 91 -58 100 -29 25 -92 28 -183 9
l-81 -18 0 22 c0 13 7 38 15 58 11 28 21 36 50 41 47 9 90 0 143 -31 l43 -25
112 16 c127 17 151 30 184 98 19 39 22 57 17 106 -7 59 -18 92 -28 81 -3 -3
-1 -32 5 -65 13 -72 2 -118 -39 -157 -25 -24 -44 -30 -133 -43 l-104 -14 -62
31 c-48 24 -71 30 -106 28 -45 -4 -45 -4 -29 16 31 38 87 84 102 85 9 0 36
-18 60 -41 43 -39 47 -41 98 -36 55 6 115 36 128 65 4 9 10 44 13 77 l6 60 73
3 72 3 1 -28 c1 -15 1 -47 0 -69 -2 -39 0 -43 41 -66 67 -37 135 -53 230 -53
l86 0 -21 -38 c-36 -64 -50 -72 -94 -54 -55 22 -188 40 -236 32 -178 -30 -269
-134 -218 -249 31 -70 69 -87 199 -88 126 -1 164 9 246 65 85 57 131 102 195
187 60 81 61 83 110 176 69 133 48 338 -48 477 -54 79 -251 257 -361 327 -30
19 -57 37 -60 40 -3 4 -33 25 -66 48 -249 168 -346 319 -346 540 1 98 34 222
60 222 4 0 25 -18 46 -39z m1027 7 l23 -31 -34 -29 c-19 -15 -37 -28 -41 -28
-4 0 -17 16 -29 36 -16 28 -18 40 -10 48 9 8 19 2 41 -24 33 -39 39 -30 10 14
-35 53 3 66 40 14z m-751 -28 c0 -26 -27 -80 -40 -80 -20 0 -21 24 -5 61 19
42 45 52 45 19z m40 -10 c0 -24 -34 -90 -46 -90 -18 0 -18 -1 6 54 19 42 40
61 40 36z m620 -25 c21 -35 20 -55 -4 -55 -15 0 -49 67 -41 81 11 17 23 10 45
-26z m-597 -31 c-8 -25 -13 -47 -10 -50 3 -3 10 12 17 33 15 47 24 57 44 50
14 -5 13 -11 0 -52 -20 -56 -26 -60 -64 -40 -36 18 -36 22 -9 75 27 52 42 42
22 -16z m555 -4 c22 -38 22 -39 3 -50 -28 -14 -27 -15 -40 34 -14 56 -14 56 2
56 6 0 22 -18 35 -40z m-808 13 l28 -16 -5 -87 c-6 -83 -5 -88 18 -103 14 -10
43 -17 71 -17 44 0 48 -2 48 -23 0 -18 -10 -28 -40 -42 -60 -27 -108 -22 -145
15 -30 30 -30 31 -30 143 0 105 6 147 21 147 3 0 19 -8 34 -17z m367 0 c-17
-54 -36 -98 -43 -100 -5 -1 -15 1 -22 5 -19 13 27 111 52 112 13 0 17 -5 13
-17z m389 -29 c15 -39 15 -47 3 -55 -28 -17 -37 -9 -41 39 -7 78 11 86 38 16z
m-361 -21 c-16 -52 -31 -72 -44 -57 -12 12 35 118 48 109 6 -3 5 -23 -4 -52z
m50 6 c-7 -53 -21 -80 -41 -72 -8 3 -13 11 -10 17 3 6 10 30 17 54 15 56 41
58 34 1z m255 29 c0 -7 3 -30 6 -50 6 -34 4 -38 -15 -38 -19 0 -21 6 -21 50 0
38 4 50 15 50 8 0 15 -6 15 -12z m-205 -35 c-9 -61 -15 -73 -37 -73 -15 0 -18
4 -12 18 4 9 9 34 12 55 3 29 9 37 24 37 17 0 18 -5 13 -37z m53 13 c2 -10 1
-33 -3 -52 -4 -26 -11 -34 -27 -34 -18 0 -20 4 -14 31 3 17 6 43 6 56 0 18 5
24 17 21 10 -2 19 -12 21 -22z m112 -32 c0 -40 -2 -44 -25 -44 -22 0 -25 4
-25 40 0 27 5 42 17 49 26 14 33 5 33 -45z m-60 12 c0 -44 -9 -66 -26 -66 -10
0 -14 13 -14 43 0 46 5 57 27 57 8 0 13 -12 13 -34z m-434 -90 c-3 -27 -7 -51
-10 -53 -7 -7 -71 -6 -95 2 -19 6 -21 14 -21 79 0 40 3 76 6 79 4 3 33 -8 66
-26 l60 -32 -6 -49z m-349 -168 c-3 -8 -6 -5 -6 6 -1 11 2 17 5 13 3 -3 4 -12
1 -19z m428 -90 l56 -73 -26 -3 c-48 -6 -103 63 -82 103 9 18 9 19 -6 6 -24
-20 -21 -42 13 -89 28 -39 33 -42 79 -42 36 0 53 -5 67 -21 19 -21 18 -21 -5
-40 -47 -38 -87 -21 -183 79 -66 68 -76 85 -60 108 9 13 62 43 79 44 6 0 37
-33 68 -72z m-405 52 c0 -5 -4 -10 -10 -10 -5 0 -10 5 -10 10 0 6 5 10 10 10
6 0 10 -4 10 -10z m23 -36 c9 -9 -4 -35 -14 -28 -5 3 -9 12 -9 20 0 14 12 19
23 8z m27 -43 c0 -12 -20 -25 -27 -18 -7 7 6 27 18 27 5 0 9 -4 9 -9z m20 -30
c0 -12 -20 -25 -27 -18 -7 7 6 27 18 27 5 0 9 -4 9 -9z m23 -27 c3 -4 2 -16
-4 -26 -13 -24 -35 -9 -26 16 7 17 19 21 30 10z m33 -38 c3 -8 0 -25 -6 -37
-11 -20 -13 -20 -22 -5 -10 18 -2 56 13 56 5 0 12 -6 15 -14z m48 -42 c3 -9 6
-21 5 -27 0 -7 -4 -3 -8 8 -8 19 -8 19 -15 -2 -7 -23 -21 -30 -29 -15 -3 4 -1
17 4 30 10 26 34 29 43 6z m36 -29 c0 -12 -24 -55 -32 -55 -11 0 -10 4 4 35 9
21 28 35 28 20z m40 -25 c0 -18 -30 -70 -40 -70 -13 0 -13 36 0 61 11 20 40
26 40 9z m460 -95 c52 -52 92 -96 89 -98 -16 -15 -49 -15 -76 1 -86 48 -160
133 -148 172 12 36 39 21 135 -75z m-425 56 c-4 -9 -9 -28 -12 -43 -5 -28 -32
-39 -34 -15 -4 42 17 88 36 81 10 -4 14 -13 10 -23z m40 -10 c4 -7 -15 -63
-32 -90 -1 -1 -6 0 -12 3 -6 4 -4 22 6 51 15 44 26 55 38 36z m38 -27 c7 -8
-34 -94 -45 -94 -13 0 -9 39 7 70 15 29 26 36 38 24z m37 -34 c0 -6 -4 -18
-10 -28 -5 -9 -14 -30 -20 -45 -10 -28 -30 -29 -30 -2 0 25 33 85 47 85 7 0
13 -5 13 -10z m50 -30 l29 -21 -24 -35 c-13 -19 -25 -40 -27 -46 -2 -6 -10 -8
-16 -4 -9 5 -6 18 9 48 11 22 18 42 15 45 -3 3 -13 -11 -22 -31 -18 -37 -34
-47 -34 -21 0 15 31 85 38 85 2 0 17 -9 32 -20z m50 -45 c-1 -6 -13 -30 -25
-55 -18 -34 -25 -41 -30 -28 -8 19 32 101 46 96 6 -2 10 -8 9 -13z m24 -60
c-36 -68 -67 -75 -39 -9 21 51 36 67 48 55 7 -7 4 -22 -9 -46z m56 10 c0 -3
-13 -28 -29 -56 -24 -43 -30 -47 -41 -34 -10 13 -8 22 14 55 14 22 33 40 41
40 8 0 15 -2 15 -5z m37 -111 c-41 -58 -62 -43 -23 17 36 53 28 62 -9 9 -42
-60 -61 -51 -29 13 30 58 34 60 65 31 l27 -26 -31 -44z m296 27 c18 -22 26
-46 31 -98 13 -130 36 -173 93 -173 27 0 33 -37 8 -46 -55 -21 -100 34 -126
154 -11 48 -26 104 -34 125 -28 70 -15 88 28 38z m-208 -31 l39 -40 -42 -42
c-28 -29 -45 -39 -52 -32 -7 7 1 21 25 44 19 19 35 38 35 44 0 6 -17 -7 -38
-27 -21 -20 -41 -37 -45 -37 -16 0 -5 26 25 57 17 18 29 35 26 39 -4 3 -21
-11 -39 -30 -18 -20 -34 -34 -37 -31 -6 6 47 95 56 95 5 0 26 -18 47 -40z
m311 -141 c18 -41 31 -75 29 -77 -2 -3 -15 -2 -29 2 -27 7 -42 40 -52 119 -8
68 6 55 52 -44z m-226 39 c16 -22 30 -46 30 -52 0 -7 -25 -24 -56 -39 -47 -23
-55 -25 -52 -11 2 10 23 28 48 40 25 13 38 24 30 24 -8 0 -33 -9 -54 -21 -61
-32 -63 -5 -2 32 18 11 24 19 15 19 -9 0 -28 -9 -42 -20 -30 -24 -37 -25 -37
-6 0 14 67 76 82 76 4 0 21 -19 38 -42z m50 -96 c0 -12 -15 -23 -49 -35 -56
-19 -71 -21 -71 -7 0 10 87 59 108 60 6 0 12 -8 12 -18z m29 -114 c6 -46 7
-99 3 -118 -7 -30 -12 -35 -41 -38 -46 -5 -81 5 -81 23 0 11 13 15 50 15 28 0
50 5 50 10 0 6 -22 10 -50 10 -78 0 -66 20 23 36 57 10 44 22 -15 13 -50 -8
-76 -5 -47 6 8 2 32 12 54 20 l40 15 -40 -4 c-22 -2 -45 -5 -51 -7 -7 -2 -13
1 -14 6 -1 6 19 16 45 23 58 17 53 26 -6 13 -43 -10 -59 -7 -59 9 0 8 94 48
116 49 7 1 16 -32 23 -81z m-435 -101 c-18 -54 -13 -60 71 -89 88 -30 125 -29
163 5 l22 20 0 -31 c0 -62 -50 -80 -175 -63 -44 6 -103 22 -132 36 l-53 24 0
59 c0 32 2 61 4 63 2 2 27 2 56 1 47 -4 50 -6 44 -25z m-300 7 c10 -27 7 -74
-8 -103 -17 -31 -51 -49 -110 -57 -38 -6 -47 -2 -88 32 -26 22 -45 43 -44 49
4 15 95 57 166 76 81 22 77 22 84 3z m459 -5 c43 -6 80 -16 83 -21 10 -15 -30
-61 -59 -69 -29 -8 -168 30 -174 48 -2 5 1 22 7 37 8 23 15 27 38 22 15 -3 62
-10 105 -17z m472 -21 c33 -15 36 -58 3 -58 -23 0 -58 -26 -58 -44 0 -6 -16
-37 -36 -69 -43 -70 -41 -91 16 -146 29 -28 38 -43 33 -59 -12 -47 -126 -13
-152 46 -17 36 -13 61 14 96 13 18 43 73 66 122 41 88 64 124 80 124 4 0 20
-5 34 -12z m-217 -63 c5 -5 -21 -55 -29 -55 -5 0 -24 8 -44 17 -32 15 -43 32
-30 45 5 5 96 -1 103 -7z m230 -18 c13 -16 1 -115 -23 -188 -13 -37 -21 -49
-32 -45 -8 3 -16 6 -18 6 -2 0 -13 16 -25 34 l-21 35 41 77 c22 42 43 81 46
86 7 12 20 10 32 -5z m-299 -38 c17 -6 31 -16 31 -21 0 -6 -12 -32 -27 -59
-25 -46 -28 -48 -47 -35 -12 7 -23 21 -24 31 -3 14 2 16 30 11 30 -5 31 -5 11
6 -22 11 -32 55 -16 71 8 9 4 9 42 -4z m-57 -126 c19 -17 24 -33 9 -33 -12 0
-41 29 -41 41 0 14 11 11 32 -8z m-374 -34 c2 -23 2 -23 -13 -5 -18 24 -20 39
-2 34 6 -3 13 -15 15 -29z m42 5 c0 -28 -15 -25 -23 6 -3 13 0 20 9 20 8 0 14
-10 14 -26z m40 1 c0 -14 -4 -25 -10 -25 -5 0 -10 11 -10 25 0 14 5 25 10 25
6 0 10 -11 10 -25z m-160 -5 c6 -11 7 -20 2 -20 -10 0 -32 21 -32 32 0 16 19
8 30 -12z m37 5 c9 -25 -4 -29 -17 -6 -7 15 -7 21 0 21 6 0 13 -7 17 -15z
m171 -7 c-5 -32 -28 -35 -28 -4 0 17 5 26 16 26 10 0 14 -7 12 -22z m23 -25
c-9 -16 -10 -15 -11 8 0 14 3 29 8 33 12 12 14 -22 3 -41z m219 6 c0 -3 -6
-14 -14 -24 -13 -18 -14 -17 -30 13 -21 41 -12 57 19 35 14 -10 25 -21 25 -24z
m-150 2 c3 -2 -2 -2 -11 2 -9 3 -22 0 -28 -6 -12 -12 -14 -7 -5 17 6 16 14 14
44 -13z m-335 3 c36 -24 20 -36 -20 -17 -24 12 -31 19 -23 25 17 10 15 10 43
-8z m902 -10 c4 -11 -2 -23 -18 -35 -29 -22 -33 -19 -24 20 7 33 32 42 42 15z
m-471 -20 c15 -23 16 -27 2 -41 -15 -14 -18 -13 -33 11 -17 26 -15 56 4 56 6
0 18 -12 27 -26z m-746 5 c28 -10 39 -25 72 -96 l39 -84 -21 -34 c-12 -20 -43
-49 -68 -66 -26 -18 -58 -45 -72 -61 -24 -27 -26 -28 -47 -13 -13 9 -23 26
-23 39 0 30 51 99 89 122 41 24 45 39 19 85 -30 54 -53 58 -186 33 -32 -6 -33
-5 -30 22 3 26 9 30 68 45 79 21 117 23 160 8z m281 -5 c38 -19 30 -29 -19
-25 -45 4 -48 6 -32 26 15 18 14 18 51 -1z m439 -70 c0 -7 -7 -14 -15 -17 -20
-8 -51 53 -33 65 13 8 47 -27 48 -48z m534 31 c21 -32 21 -32 -13 -40 -36 -8
-58 -40 -82 -118 -16 -54 -16 -62 -2 -91 10 -22 33 -43 69 -62 49 -26 54 -32
49 -54 -10 -40 -18 -41 -83 -16 -85 34 -122 62 -122 93 0 64 73 260 101 268 9
3 24 14 34 25 23 26 29 25 49 -5z m-976 -1 c36 -10 25 -24 -17 -24 -22 0 -43
-4 -46 -10 -4 -6 5 -10 21 -10 l27 0 -23 -25 c-33 -35 -50 -32 -50 9 0 64 20
78 88 60z m227 -10 c-45 -34 -145 -43 -145 -13 0 16 42 28 105 28 55 0 58 -1
40 -15z m158 -20 c18 -24 18 -26 1 -45 -24 -27 -31 -24 -38 16 -11 58 7 71 37
29z m-690 -41 l18 -32 -32 -28 c-49 -43 -70 -65 -89 -97 l-18 -29 -36 70 c-19
39 -36 83 -38 99 -3 25 2 30 32 41 19 7 60 11 89 10 50 -2 57 -5 74 -34z m643
3 c7 -38 0 -56 -20 -56 -13 0 -26 56 -18 79 8 24 31 9 38 -23z m-351 -26 c-21
-21 -43 -36 -48 -33 -6 4 9 23 33 44 56 48 66 41 15 -11z m305 -15 c0 -23 -3
-27 -10 -15 -5 8 -10 29 -10 45 0 23 3 27 10 15 5 -8 10 -28 10 -45z m717 28
c9 -32 8 -221 -1 -230 -10 -10 -86 29 -107 55 -19 25 -19 29 2 113 20 81 90
121 106 62z m-748 -42 c1 -16 -3 -21 -8 -15 -9 9 -15 48 -11 69 3 16 19 -28
19 -54z m-219 43 c0 -15 -47 -84 -57 -84 -25 0 -22 20 8 54 28 32 49 45 49 30z
m31 -50 c-4 -48 -7 -54 -31 -54 -30 0 -32 17 -8 60 28 49 44 46 39 -6z m154
10 c4 -26 2 -39 -6 -45 -21 -12 -29 -1 -29 42 0 51 25 53 35 3z m-50 -10 c7
-39 -4 -60 -28 -51 -13 5 -14 34 -2 75 8 24 23 12 30 -24z m-55 -14 c0 -33 -3
-40 -20 -40 -22 0 -23 3 -14 49 10 46 34 40 34 -9z m560 -60 c8 -15 0 -26 -48
-64 -31 -25 -62 -46 -68 -46 -6 0 -17 20 -24 45 -14 52 -6 69 44 90 35 15 81
3 96 -25z m-1194 -31 c19 -30 24 -49 19 -68 -16 -63 -16 -93 0 -140 38 -116
133 -191 275 -216 97 -17 262 -19 365 -5 95 13 247 57 298 86 80 44 202 175
262 279 29 52 64 95 75 95 4 0 2 -22 -4 -50 -9 -48 -9 -51 18 -79 16 -16 54
-40 85 -52 99 -39 95 -35 70 -77 -31 -52 -59 -81 -59 -61 0 9 -11 26 -25 39
-33 31 -84 24 -195 -24 -115 -51 -133 -68 -128 -126 3 -25 16 -63 31 -86 l26
-42 -52 -14 c-58 -17 -66 -12 -67 37 -1 65 -43 83 -145 60 -38 -8 -114 -19
-169 -24 -54 -6 -103 -14 -109 -20 -5 -5 -17 -38 -27 -73 -15 -54 -20 -63 -42
-66 -23 -3 -27 2 -37 43 -6 26 -23 57 -37 70 -32 30 -138 58 -222 59 -65 1
-66 1 -72 -29 -10 -47 -29 -75 -51 -75 -28 0 -32 20 -14 63 23 56 20 113 -9
142 -29 29 -127 59 -171 52 -18 -3 -51 -17 -74 -31 -50 -32 -55 -32 -74 -2
-16 24 -16 24 31 36 27 6 72 25 101 41 l52 30 -2 72 c-3 63 0 76 21 105 20 28
22 36 12 52 -16 26 -15 40 3 40 8 0 26 -19 41 -41z m-61 1 c4 -13 -1 -30 -14
-46 -17 -22 -21 -41 -21 -100 l0 -73 -42 -25 c-24 -14 -65 -31 -91 -38 -41
-11 -49 -10 -57 2 -18 29 -5 64 26 72 16 4 45 21 65 37 34 28 37 36 43 100 8
74 19 90 63 91 13 0 24 -8 28 -20z m-110 -67 c-4 -32 -15 -66 -24 -77 -22 -25
-65 -46 -96 -46 -21 0 -25 5 -25 29 0 46 9 60 69 107 76 60 84 58 76 -13z
m925 6 c60 -26 83 -61 78 -122 -3 -39 -5 -42 -41 -50 -21 -5 -40 -7 -42 -5 -2
2 0 19 4 38 4 19 6 41 3 48 -6 20 -86 51 -147 58 -77 9 -118 -2 -175 -47 -36
-28 -57 -38 -70 -34 -27 9 -25 21 12 67 58 74 77 80 210 74 90 -4 129 -10 168
-27z m440 -13 c0 -3 -4 -8 -10 -11 -5 -3 -10 -1 -10 4 0 6 5 11 10 11 6 0 10
-2 10 -4z m-30 -36 c0 -12 -28 -25 -36 -17 -9 9 6 27 22 27 8 0 14 -5 14 -10z
m-492 -15 c61 -18 76 -40 61 -84 -11 -30 -12 -31 -77 -31 -65 0 -157 17 -216
40 l-29 11 24 26 c50 53 137 67 237 38z m452 -30 c0 -16 -35 -21 -44 -6 -8 12
4 21 26 21 10 0 18 -7 18 -15z m-2290 -30 c0 -28 -24 -34 -34 -9 -8 20 1 34
20 34 8 0 14 -10 14 -25z m60 5 c0 -13 -7 -20 -20 -20 -13 0 -20 7 -20 20 0
13 7 20 20 20 13 0 20 -7 20 -20z m68 -2 c3 -13 -3 -18 -22 -18 -20 0 -26 5
-26 21 0 15 5 20 22 17 13 -2 24 -11 26 -20z m47 2 c0 -7 -6 -15 -12 -17 -8
-3 -13 4 -13 17 0 13 5 20 13 18 6 -3 12 -11 12 -18z m-291 -6 c10 -27 7 -34
-19 -34 -20 0 -25 5 -25 25 0 29 34 36 44 9z m64 -6 c2 -13 -3 -18 -17 -18
-12 0 -21 2 -21 4 0 2 -3 12 -6 21 -5 13 -2 16 17 13 13 -1 25 -11 27 -20z
m282 6 c0 -9 -7 -14 -17 -12 -25 5 -28 28 -4 28 12 0 21 -6 21 -16z m60 1 c0
-8 -6 -15 -14 -15 -17 0 -28 14 -19 24 12 12 33 6 33 -9z m55 -6 c0 -7 -8 -15
-17 -17 -18 -3 -25 18 -11 32 10 10 28 1 28 -15z m1900 8 c19 -15 13 -37 -9
-37 -18 0 -39 27 -31 40 8 13 17 13 40 -3z m-2425 -22 c0 -29 -34 -36 -44 -9
-10 27 -7 34 19 34 20 0 25 -5 25 -25z m590 5 c0 -21 -33 -29 -45 -10 -9 15 4
30 26 30 12 0 19 -7 19 -20z m-720 -10 c0 -11 0 -23 1 -27 0 -5 -7 -9 -15 -11
-12 -3 -16 5 -16 27 0 21 5 31 15 31 8 0 15 -9 15 -20z m65 -5 c0 -13 -8 -21
-22 -23 -19 -3 -23 1 -23 23 0 22 4 26 23 23 14 -2 22 -10 22 -23z m716 15 c5
0 9 -7 9 -15 0 -9 -9 -15 -25 -15 -19 0 -25 5 -25 21 0 15 4 19 16 15 9 -3 20
-6 25 -6z m-833 -33 c2 -18 -1 -27 -11 -27 -14 0 -29 44 -19 55 12 12 27 -3
30 -28z m1628 19 c3 -8 0 -25 -7 -37 l-12 -23 -14 27 c-8 15 -11 32 -8 37 9
15 35 12 41 -4z m938 -5 c17 -19 15 -41 -4 -41 -14 0 -40 30 -40 46 0 20 24
17 44 -5z m-2614 -27 c0 -26 -17 -33 -26 -9 -8 20 3 48 16 40 5 -3 10 -17 10
-31z m953 29 c11 -10 -13 -32 -29 -26 -20 8 -17 33 4 33 10 0 22 -3 25 -7z
m-222 -18 c105 -13 180 -28 299 -57 48 -12 176 -61 223 -85 15 -8 60 -43 99
-79 68 -62 174 -125 261 -153 l37 -12 -34 -35 c-19 -19 -40 -49 -47 -67 -7
-18 -13 -33 -15 -35 -1 -2 -27 4 -59 13 -45 14 -55 20 -50 33 15 36 17 93 5
122 -17 42 -133 136 -197 160 -46 17 -60 18 -105 9 -71 -16 -97 -34 -119 -87
-14 -32 -23 -42 -35 -38 -9 3 -20 6 -26 6 -12 0 -6 53 13 97 11 28 11 37 -4
67 -9 19 -28 43 -42 52 -42 27 -312 56 -359 38 -20 -8 -21 -53 -1 -100 l14
-35 -52 7 c-78 9 -79 9 -72 48 17 88 -23 104 -200 81 -134 -17 -201 -34 -240
-59 -21 -14 -25 -24 -25 -66 0 -53 0 -53 -68 -75 -22 -6 -23 -5 -17 34 5 33 2
44 -16 62 -19 19 -29 21 -88 16 -113 -10 -297 -95 -345 -160 -19 -26 -19 -30
-5 -70 9 -23 14 -48 12 -55 -5 -13 -42 -35 -80 -46 -20 -7 -23 -4 -23 23 0 40
-40 71 -93 71 -46 0 -243 -64 -269 -87 -21 -19 -22 -35 -3 -88 8 -21 13 -40
12 -41 -1 -1 -21 -5 -44 -9 -40 -6 -43 -5 -43 17 -1 48 -22 60 -117 65 -48 2
-108 9 -132 15 -39 10 -45 9 -57 -7 -8 -10 -14 -29 -14 -41 0 -13 -5 -35 -12
-49 -11 -24 -16 -26 -47 -20 -20 4 -38 9 -41 11 -2 3 8 27 23 54 15 26 27 57
27 68 0 18 7 19 78 18 143 -1 279 27 417 89 117 53 559 221 665 254 41 13 95
29 120 37 120 37 326 72 570 97 86 9 215 6 321 -8z m287 -11 c3 -18 -1 -21
-22 -17 -15 3 -26 11 -26 17 0 33 43 33 48 0z m1560 -41 c-14 -18 -53 30 -43
55 6 15 10 13 30 -13 18 -21 21 -32 13 -42z m-2625 35 c7 -27 3 -32 -18 -25
-19 8 -20 47 -1 47 7 0 16 -10 19 -22z m1777 13 c0 -13 -40 -61 -51 -61 -16 0
-10 23 13 47 22 24 38 30 38 14z m-1826 -17 c10 -26 7 -34 -14 -34 -15 0 -20
7 -20 25 0 28 24 34 34 9z m1186 2 c0 -20 -16 -29 -40 -21 -11 4 -17 12 -13
21 7 19 53 19 53 0z m1859 -12 c28 -35 26 -48 -7 -85 l-28 -32 -27 27 c-23 23
-33 26 -60 21 -63 -13 -81 -35 -87 -106 -4 -55 -8 -64 -25 -64 -46 0 -84 114
-51 157 21 28 200 104 253 107 6 1 21 -11 32 -25z m-3089 -26 c0 -14 -18 -9
-24 8 -11 28 -6 39 9 20 8 -11 15 -23 15 -28z m1294 34 c8 -14 -21 -43 -38
-36 -16 6 -21 25 -9 37 9 9 41 9 47 -1z m616 -2 c0 -14 -43 -80 -53 -80 -19 0
-17 32 5 59 23 30 48 40 48 21z m760 -17 c22 -25 22 -27 4 -40 -10 -7 -21 -13
-24 -13 -6 0 -30 59 -30 73 0 16 28 5 50 -20z m-2712 -14 c12 -18 11 -20 -5
-17 -10 2 -19 11 -21 21 -5 23 10 21 26 -4z m1385 15 c10 -10 -12 -44 -28 -44
-15 0 -21 31 -8 43 8 9 28 9 36 1z m617 -5 c0 -25 -45 -90 -59 -87 -26 5 -24
33 4 67 27 31 55 41 55 20z m655 -19 c20 -39 19 -50 -4 -50 -23 0 -26 4 -36
48 -9 42 18 45 40 2z m-2697 -21 c-17 -11 -28 -2 -28 23 0 21 1 21 20 3 15
-14 17 -21 8 -26z m2099 19 c-39 -98 -39 -99 -61 -92 -30 9 -29 8 -10 46 24
48 34 58 56 58 12 0 18 -5 15 -12z m551 -24 c9 -29 8 -36 -4 -41 -20 -8 -32 6
-40 45 -6 27 -4 32 13 32 14 0 23 -11 31 -36z m-2698 7 c0 -11 -9 -21 -22 -25
-35 -9 -38 -8 -38 14 0 21 15 27 25 10 10 -16 25 -12 19 5 -4 8 -1 15 5 15 6
0 11 -8 11 -19z m704 13 c9 -4 16 -18 16 -34 0 -48 -9 -60 -46 -60 -31 0 -34
3 -34 29 0 22 -6 32 -22 37 -34 11 -184 7 -207 -6 -12 -6 -31 -30 -42 -53 -35
-69 -64 -77 -75 -21 -6 31 -3 40 17 55 23 18 126 45 199 52 63 7 178 7 194 1z
m371 -9 c151 -23 183 -56 151 -160 -15 -46 -21 -55 -37 -50 -10 3 -28 8 -40
11 -11 3 -18 11 -16 17 3 7 12 29 21 49 21 50 10 60 -104 87 -105 25 -117 21
-122 -37 -2 -24 -8 -37 -18 -37 -22 0 -60 64 -60 101 l0 34 63 0 c34 0 107 -7
162 -15z m1575 -52 c0 -7 -9 -13 -19 -13 -25 0 -40 58 -20 71 10 6 18 1 26
-19 7 -15 12 -33 13 -39z m-1150 47 c0 -5 -5 -10 -11 -10 -5 0 -7 5 -4 10 3 6
8 10 11 10 2 0 4 -4 4 -10z m700 -1 c0 -22 -23 -89 -31 -89 -16 0 -39 13 -39
21 0 5 7 25 14 44 10 24 22 35 35 35 12 0 21 -5 21 -11z m392 -39 c4 -29 -6
-40 -38 -40 -16 0 -18 28 -4 65 8 22 13 25 24 16 8 -7 16 -25 18 -41z m-2669
19 c4 -15 -1 -22 -19 -30 -36 -13 -44 -11 -44 11 0 21 15 27 25 10 11 -18 23
-11 18 10 -3 11 -1 20 5 20 5 0 12 -9 15 -21z m1886 10 c111 -23 129 -80 65
-207 -1 -1 -9 0 -18 4 -12 4 -16 19 -16 53 0 102 -72 133 -151 65 -13 -12 -19
-11 -38 10 -27 29 -23 39 27 66 43 22 63 24 131 9z m712 -72 c-13 -13 -16 -10
-25 25 -4 18 -1 32 11 44 17 17 18 16 21 -20 2 -21 -1 -43 -7 -49z m-261 66
c0 -5 -5 -25 -11 -46 -7 -27 -15 -37 -27 -35 -35 7 -19 88 18 88 11 0 20 -3
20 -7z m48 -35 c-3 -37 -7 -44 -27 -46 -22 -4 -23 -2 -16 35 8 47 12 53 31 53
12 0 14 -10 12 -42z m62 -4 c0 -19 5 -34 11 -34 5 0 7 5 4 11 -11 16 4 59 20
59 11 0 15 -11 15 -40 l0 -40 -50 0 -50 0 0 35 c0 22 6 37 17 44 25 13 33 5
33 -35z m110 22 c0 -13 3 -31 6 -40 5 -13 -1 -16 -25 -16 -28 0 -31 3 -31 33
0 38 6 47 32 47 12 0 18 -7 18 -24z m-1890 5 c16 -4 25 -14 25 -26 0 -18 -14
-22 -120 -37 -65 -9 -121 -16 -123 -13 -6 6 20 50 37 60 38 24 126 31 181 16z
m-746 -17 c8 -20 -1 -34 -20 -34 -8 0 -14 8 -14 18 0 33 23 44 34 16z m3300 0
c9 -8 16 -22 16 -29 0 -16 -119 -96 -132 -89 -16 10 -9 90 10 106 35 31 82 36
106 12z m146 -30 c0 -13 -6 -24 -13 -24 -8 0 -45 -25 -83 -55 -38 -30 -87 -69
-109 -85 -70 -54 -94 -131 -60 -190 29 -50 13 -70 -69 -86 -36 -6 -36 -6 -26
21 19 49 13 71 -22 86 -18 8 -55 14 -83 13 -370 -6 -355 -2 -378 -94 -14 -60
-24 -66 -84 -55 -34 6 -35 8 -30 41 5 27 1 37 -16 49 -12 8 -27 15 -33 15 -17
0 -188 79 -183 85 3 2 47 -3 99 -12 149 -25 191 -26 308 -9 108 16 362 83 475
126 72 27 193 107 249 165 45 46 58 48 58 9z m-3490 0 c0 -8 -7 -14 -15 -14
-15 0 -21 21 -9 33 10 9 24 -2 24 -19z m1262 12 c31 -8 61 -17 67 -21 16 -9
13 -37 -7 -63 l-18 -23 -70 21 c-38 12 -75 23 -81 25 -14 5 -18 57 -6 68 10
11 52 8 115 -7z m-1306 -35 c-10 -16 -36 -13 -36 3 0 17 21 27 34 16 4 -5 5
-13 2 -19z m395 19 c34 -18 19 -103 -20 -113 -16 -4 -21 0 -21 16 0 29 -29 57
-59 57 -14 0 -60 -9 -101 -20 -92 -24 -115 -46 -125 -125 -5 -45 -11 -58 -28
-64 -19 -7 -24 -3 -39 37 -23 60 -12 77 80 131 135 79 257 110 313 81z m1646
-12 c28 -27 33 -98 7 -98 -15 0 -114 66 -114 76 0 6 63 44 74 44 6 0 20 -10
33 -22z m-2087 -18 c0 -5 -9 -14 -20 -20 -15 -8 -20 -8 -20 3 0 8 3 17 7 20
10 10 33 8 33 -3z m-60 -25 c0 -8 -7 -15 -15 -15 -26 0 -18 20 13 29 1 1 2 -6
2 -14z m1877 0 c20 -9 65 -37 99 -63 71 -53 100 -102 89 -150 -9 -44 -24 -53
-62 -37 -29 12 -32 17 -27 44 11 55 -45 107 -156 146 -56 20 -84 13 -107 -25
-31 -53 -62 -34 -43 26 21 63 126 93 207 59z m1773 -21 c0 -29 -3 -34 -17 -30
-24 7 -50 -9 -128 -78 l-67 -59 4 -66 c2 -52 0 -66 -12 -68 -23 -5 -50 49 -50
98 0 36 6 47 38 78 57 54 202 161 218 161 9 0 14 -12 14 -36z m-492 18 c7 -5
15 -32 19 -60 5 -46 4 -52 -13 -52 -10 0 -29 -3 -40 -6 -17 -5 -24 0 -32 25
-14 40 -36 44 -156 32 -107 -11 -126 -20 -125 -60 1 -25 1 -24 10 6 10 35 15
36 157 49 80 7 102 -2 102 -41 0 -18 -9 -25 -42 -34 -112 -30 -228 -40 -228
-20 0 6 -7 3 -16 -5 -18 -19 -54 -21 -54 -3 0 21 29 120 37 128 5 5 60 13 123
19 63 5 129 14 145 19 38 12 96 13 113 3z m-2728 -12 c11 -7 12 -15 5 -35 -8
-22 -30 -35 -115 -71 -57 -24 -109 -44 -116 -44 -16 0 -1 88 19 107 16 16 133
51 172 52 11 1 27 -3 35 -9z m-470 -4 c0 -3 -4 -8 -10 -11 -5 -3 -10 -1 -10 4
0 6 5 11 10 11 6 0 10 -2 10 -4z m2594 -27 c60 -22 82 -46 88 -93 3 -33 -19
-48 -28 -19 -20 63 -41 78 -121 88 -55 7 -96 -10 -101 -40 -3 -18 -2 -18 13 3
19 26 77 30 130 8 32 -14 63 -52 51 -63 -6 -6 -89 7 -201 31 -41 9 -61 18 -63
29 -2 10 4 20 13 23 10 4 13 13 10 25 -4 10 -3 24 1 30 10 17 141 4 208 -22z
m-2634 11 c0 -5 -5 -10 -11 -10 -5 0 -7 5 -4 10 3 6 8 10 11 10 2 0 4 -4 4
-10z m-30 -14 c0 -3 -4 -8 -10 -11 -5 -3 -10 -1 -10 4 0 6 5 11 10 11 6 0 10
-2 10 -4z m1945 -37 c69 -26 125 -72 125 -104 0 -13 -4 -26 -10 -30 -10 -6
-227 81 -235 95 -7 11 34 60 50 60 8 0 40 -9 70 -21z m1810 11 c14 -23 -20
-84 -84 -150 -38 -39 -73 -70 -78 -70 -6 0 -13 10 -17 23 -14 54 -7 70 64 139
66 64 101 81 115 58z m-4782 -37 c8 -7 -11 -33 -24 -33 -5 0 -9 9 -9 20 0 19
20 27 33 13z m16 -49 c-6 -8 -18 -14 -27 -14 -13 0 -12 3 3 20 20 22 43 17 24
-6z m36 -15 c7 -11 -22 -49 -37 -49 -19 0 -20 31 -2 45 23 17 31 18 39 4z
m1014 0 c51 -18 64 -56 31 -89 -27 -27 -50 -26 -50 4 0 39 -23 50 -93 43 -72
-8 -102 -32 -113 -95 -4 -20 -12 -40 -18 -44 -13 -9 -42 -11 -34 -2 4 3 0 21
-8 41 -25 58 -15 67 119 112 141 47 125 44 166 30z m-356 -6 c-7 -2 -19 -2
-25 0 -7 3 -2 5 12 5 14 0 19 -2 13 -5z m-53 -13 c0 -5 -8 -10 -17 -10 -15 0
-16 2 -3 10 19 12 20 12 20 0z m-562 -13 c8 -10 5 -21 -13 -42 -22 -29 -25
-29 -41 -13 -17 17 -17 19 6 43 27 29 33 30 48 12z m3530 -57 c68 -33 130 -60
137 -60 25 0 45 -29 36 -53 -7 -18 -15 -21 -41 -19 -18 2 -40 10 -47 18 -8 8
-18 14 -22 14 -4 0 -41 25 -81 55 -92 69 -125 72 -177 20 -30 -30 -41 -35 -64
-30 -33 7 -36 23 -14 65 40 78 97 76 273 -10z m-3501 3 c-24 -38 -47 -54 -47
-33 0 20 40 70 56 70 11 0 9 -9 -9 -37z m38 -27 c-17 -30 -31 -43 -41 -39 -18
7 -18 7 10 52 45 71 73 59 31 -13z m70 44 c7 -12 -52 -110 -65 -110 -22 0 -18
23 12 69 34 52 42 58 53 41z m790 0 c3 -5 3 -20 0 -33 -5 -20 -19 -28 -80 -46
-40 -11 -76 -21 -79 -21 -3 0 -6 12 -6 28 0 29 25 66 50 75 26 9 109 7 115 -3z
m-740 -27 c-29 -49 -71 -96 -83 -92 -16 6 60 118 81 118 17 1 17 -1 2 -26z
m3311 -50 c35 -27 59 -50 53 -52 -11 -3 -118 14 -181 30 -43 11 -46 21 -18 49
33 33 74 26 146 -27z m784 34 c20 -11 25 -20 24 -51 -2 -46 -18 -63 -64 -68
-27 -2 -37 2 -45 18 -6 12 -17 29 -24 37 -17 21 -102 31 -176 20 -60 -8 -60
-8 -73 -51 -14 -42 -31 -52 -61 -33 -17 11 -8 71 17 101 15 19 29 21 141 25
68 2 126 7 129 10 11 10 107 4 132 -8z m-3828 -26 c110 -7 139 -22 119 -60
-13 -24 -56 -29 -64 -7 -7 18 -114 58 -137 51 -10 -3 -28 -21 -41 -40 -24 -34
-67 -50 -56 -21 3 8 11 33 17 56 10 39 13 41 38 35 15 -4 71 -10 124 -14z
m-271 -9 c-5 -9 -19 -26 -32 -37 -26 -23 -17 -2 14 33 25 27 31 28 18 4z m284
-44 c45 -20 29 -35 -45 -42 -38 -4 -77 -3 -85 2 -14 7 -13 12 6 36 19 25 27
27 60 22 21 -3 50 -11 64 -18z m3699 -10 c9 -12 12 -26 7 -31 -4 -4 -59 -9
-121 -10 -122 -2 -138 5 -101 42 18 18 33 21 110 21 81 0 91 -2 105 -22z"/>
<path d="M4006 6727 c-45 -28 -93 -95 -102 -145 -14 -73 24 -115 120 -133 76
-14 145 -4 211 31 l54 28 46 -94 c39 -82 53 -99 92 -125 63 -39 88 -37 131 8
75 80 96 192 52 271 -38 68 -90 69 -213 6 -76 -39 -104 -38 -113 4 -17 78 -30
100 -82 136 -26 18 -56 28 -97 32 -52 4 -65 2 -99 -19z m93 -40 c-68 -59 -94
-153 -55 -196 30 -34 -5 -27 -37 7 -22 23 -27 37 -27 81 0 50 3 57 44 97 34
35 50 44 77 44 l34 -1 -36 -32z m-108 -22 c-17 -20 -31 -41 -32 -48 0 -7 -3
-25 -5 -40 -3 -16 2 -42 11 -59 19 -39 19 -41 -4 -28 -11 5 -24 25 -30 43 -10
28 -8 42 8 79 10 25 31 55 46 66 40 31 42 27 6 -13z m184 25 c4 -6 -5 -20 -19
-31 -30 -23 -56 -69 -56 -96 0 -10 8 -35 18 -54 l18 -35 -28 4 c-39 6 -71 48
-57 74 6 11 8 22 6 25 -12 11 17 64 49 93 36 31 58 37 69 20z m43 -32 c8 -8 3
-15 -21 -27 -18 -9 -38 -30 -46 -48 -17 -37 -31 -43 -31 -13 0 28 26 77 47 89
24 14 37 13 51 -1z m316 -90 c22 -31 20 -91 -4 -137 -22 -45 -73 -91 -100 -91
-33 0 -30 16 6 29 71 26 108 134 68 196 -15 22 -15 25 -1 25 9 0 23 -10 31
-22z m50 -22 c15 -32 15 -41 1 -104 -17 -73 -59 -132 -96 -132 -30 0 -30 16 2
39 36 27 79 112 79 158 0 17 -4 43 -10 58 -14 37 4 22 24 -19z m-105 15 c7 -5
15 -28 18 -52 4 -35 0 -51 -19 -79 -26 -38 -65 -57 -94 -45 -16 6 -13 10 19
24 65 28 99 108 61 145 -17 17 -8 21 15 7z m45 -266 c-22 -16 -50 -19 -59 -6
-3 5 9 12 27 14 18 2 37 5 42 5 6 1 1 -5 -10 -13z"/>
<path d="M4303 6596 c4 -14 47 -21 47 -8 0 5 -11 12 -25 15 -16 3 -24 0 -22
-7z"/>
<path d="M3656 6439 c-14 -11 -23 -25 -20 -31 4 -5 15 -2 28 10 11 11 35 24
51 30 l30 10 -31 1 c-18 1 -43 -8 -58 -20z"/>
<path d="M4150 6415 c-43 -17 -95 -19 -121 -5 -15 8 -19 7 -19 -4 0 -30 93
-36 155 -10 55 23 77 13 109 -50 33 -64 57 -89 80 -80 23 9 20 23 -8 33 -13 6
-32 28 -44 54 -12 24 -28 52 -37 61 -20 19 -67 20 -115 1z"/>
<path d="M4037 6294 c-38 -21 -52 -60 -32 -90 20 -31 50 -30 81 1 20 20 25 34
22 63 -4 43 -25 51 -71 26z m63 -33 c0 -13 -40 -61 -51 -61 -11 0 -2 38 13 58
12 14 38 16 38 3z"/>
<path d="M4192 6237 c-13 -14 -22 -36 -22 -54 0 -72 70 -66 90 7 18 67 -23 95
-68 47z m49 -50 c-13 -33 -35 -37 -25 -4 8 28 27 52 31 40 2 -6 -1 -22 -6 -36z"/>
<path d="M4625 6180 c8 -16 15 -40 15 -55 0 -16 6 -25 15 -25 13 0 15 7 9 38
-6 37 -29 72 -46 72 -5 0 -2 -13 7 -30z"/>
<path d="M713 455 c-10 -21 -4 -67 10 -66 4 1 12 1 17 1 6 0 10 5 10 10 0 6
-3 9 -7 9 -19 -3 -27 2 -15 9 9 6 10 16 4 32 -9 23 -9 23 -19 5z"/>
<path d="M778 449 c-22 -12 -24 -59 -4 -59 23 0 46 11 46 23 0 7 -4 7 -12 -1
-21 -21 -32 -13 -13 8 22 24 9 44 -17 29z"/>
<path d="M331 441 c-10 -7 -10 -10 -1 -13 10 -3 10 -9 1 -27 -15 -26 -4 -44
10 -18 14 23 33 22 26 -3 -3 -11 -1 -20 4 -20 5 0 9 3 9 8 0 4 3 17 6 30 5 16
2 22 -10 22 -9 0 -16 7 -16 15 0 17 -9 19 -29 6z"/>
<path d="M662 429 c-7 -11 -17 -17 -23 -14 -15 10 -39 -15 -39 -41 0 -17 6
-24 19 -24 11 0 23 5 26 10 3 6 1 10 -6 10 -9 0 -8 4 1 15 11 13 14 12 29 -7
12 -15 20 -18 25 -10 4 7 2 12 -4 12 -7 0 -10 7 -6 15 3 8 2 24 -2 35 -7 20
-7 20 -20 -1z"/>
</g>
</svg>
