<?xml version="1.0" standalone="no"?>
<!DOCTYPE svg PUBLIC "-//W3C//DTD SVG 20010904//EN"
 "http://www.w3.org/TR/2001/REC-SVG-20010904/DTD/svg10.dtd">
<svg version="1.0" xmlns="http://www.w3.org/2000/svg"
 width="468pt" height="474pt" viewBox="0 0 468 474"
 preserveAspectRatio="xMidYMid meet">
<metadata>
Created by potrace 1.8, written by Peter Selinger 2001-2007
</metadata>
<g transform="translate(0,474) scale(0.032773,-0.032773)"
fill="#000000" stroke="none">
<path d="M6833 14238 c-15 -19 -8 -595 8 -614 15 -19 102 -19 118 0 9 10 10
59 5 175 -4 89 -3 161 1 161 19 0 141 -109 310 -277 63 -63 92 -75 114 -49 23
27 10 570 -14 595 -7 7 -31 15 -53 18 -35 4 -43 1 -57 -21 -15 -22 -16 -39
-10 -109 14 -159 14 -218 0 -223 -8 -3 -55 35 -113 93 -164 161 -277 263 -291
263 -5 0 -13 -6 -18 -12z"/>
<path d="M8137 14042 c-10 -10 -17 -25 -17 -32 0 -23 -23 -79 -35 -84 -6 -2
-29 2 -50 10 -56 19 -83 18 -90 -6 -8 -26 3 -44 45 -72 43 -29 48 -49 19 -89
-12 -17 -22 -47 -23 -68 -1 -51 28 -53 84 -6 23 20 48 34 54 32 6 -2 26 -23
45 -48 25 -32 41 -44 60 -44 23 0 26 4 25 35 0 19 -4 54 -9 77 -8 43 -8 43 31
58 61 24 69 30 72 58 4 35 -26 50 -82 42 -52 -8 -57 -3 -63 74 -7 79 -31 102
-66 63z"/>
<path d="M6165 14039 c-4 -5 -8 -37 -9 -69 -1 -32 -4 -61 -6 -64 -3 -2 -34 -7
-69 -10 -36 -3 -69 -10 -75 -16 -16 -16 6 -43 50 -60 71 -27 78 -41 49 -96 -8
-16 -15 -44 -15 -61 0 -51 39 -45 87 12 20 25 44 45 51 45 8 0 32 -16 53 -35
42 -37 73 -45 83 -19 11 27 7 44 -19 82 -14 20 -25 44 -25 53 0 9 20 29 45 44
52 34 59 45 39 74 -18 25 -42 27 -89 4 -32 -15 -37 -15 -51 -1 -9 8 -20 35
-25 59 -6 24 -15 49 -21 56 -13 16 -44 17 -53 2z"/>
<path d="M5541 14011 c-48 -13 -59 -45 -72 -208 -6 -83 -15 -157 -20 -164 -9
-16 -46 22 -104 106 -22 32 -56 81 -75 109 -36 52 -66 68 -81 44 -5 -7 -9 -49
-9 -93 -1 -95 -16 -264 -25 -273 -9 -9 -65 57 -134 158 -77 111 -92 124 -132
116 -40 -8 -59 -23 -59 -48 0 -20 123 -181 192 -252 21 -22 68 -84 104 -138
46 -69 72 -100 90 -104 14 -4 29 -3 34 2 4 5 11 87 14 183 4 96 9 178 13 184
6 9 93 -80 93 -95 0 -4 12 -21 28 -37 15 -16 45 -54 66 -85 42 -60 70 -71 85
-33 5 12 14 99 21 192 6 94 13 188 15 210 16 156 17 218 4 226 -16 10 -15 10
-48 0z"/>
<path d="M8835 13979 c-7 -11 -22 -66 -80 -299 -20 -80 -43 -168 -51 -197 -23
-76 -17 -95 31 -109 62 -17 81 -4 95 68 6 33 18 81 25 107 8 25 17 62 20 81 3
19 10 42 15 50 8 13 11 13 24 0 8 -8 23 -29 33 -47 10 -17 36 -58 58 -90 22
-32 67 -112 101 -178 34 -66 68 -121 77 -123 23 -5 34 22 67 160 17 68 35 137
41 153 6 17 13 44 16 60 3 17 15 70 28 118 24 87 24 88 4 108 -22 22 -81 26
-97 7 -5 -7 -24 -78 -41 -158 -18 -80 -35 -148 -40 -153 -11 -11 -41 3 -41 19
0 8 -12 33 -26 56 -15 23 -34 58 -43 77 -9 20 -47 83 -85 141 -38 58 -73 117
-78 133 -10 27 -41 37 -53 16z"/>
<path d="M9521 13791 c-12 -12 -21 -27 -21 -34 0 -7 -9 -29 -20 -50 -11 -20
-20 -46 -20 -56 0 -11 -9 -41 -21 -68 -12 -26 -34 -86 -51 -132 -16 -46 -37
-100 -48 -120 -10 -20 -21 -53 -25 -72 -5 -28 -2 -38 17 -56 31 -29 80 -40 96
-21 6 8 33 79 59 158 27 79 53 145 59 147 15 5 43 -44 79 -133 15 -38 45 -107
67 -154 22 -47 46 -105 55 -130 8 -25 20 -51 27 -58 16 -17 44 -6 51 21 3 12
14 42 25 67 27 65 84 213 116 300 15 41 35 91 46 110 25 48 23 67 -12 85 -51
27 -100 15 -100 -25 0 -8 -11 -35 -24 -60 -13 -25 -27 -61 -31 -80 -9 -44 -42
-110 -55 -110 -14 0 -34 35 -76 135 -20 50 -42 97 -49 105 -6 8 -31 62 -55
120 -55 131 -61 139 -89 111z"/>
<path d="M4706 13739 c-13 -19 -12 -28 10 -91 13 -39 27 -76 32 -82 18 -25 53
-126 50 -143 -5 -22 -4 -22 -108 23 -47 20 -116 47 -155 60 -38 13 -90 34
-115 46 -76 36 -87 40 -106 36 -29 -5 -28 -30 5 -100 17 -36 31 -70 31 -76 0
-6 17 -53 39 -104 21 -51 51 -133 67 -182 35 -108 45 -120 93 -111 85 16 83
54 -14 261 -19 41 -35 81 -35 89 0 21 26 19 84 -9 28 -14 87 -39 131 -57 44
-17 94 -38 110 -45 17 -7 44 -16 60 -20 17 -3 39 -15 50 -24 36 -33 85 -28 85
8 0 10 -8 33 -18 52 -10 19 -33 73 -52 120 -18 47 -41 101 -51 120 -9 19 -32
77 -49 129 -17 52 -39 100 -48 107 -27 21 -79 17 -96 -7z"/>
<path d="M4079 13465 c-45 -24 -43 -41 20 -143 65 -109 101 -176 101 -192 0
-13 -36 -13 -61 0 -20 11 -125 40 -249 69 -41 10 -100 28 -130 39 -30 12 -67
22 -82 22 -38 0 -37 -31 4 -95 18 -27 53 -90 79 -140 25 -49 58 -110 73 -135
14 -25 41 -76 58 -113 35 -73 55 -86 105 -70 15 5 34 21 42 35 13 22 12 29 -7
69 -12 24 -37 68 -57 97 -19 30 -35 58 -35 64 0 6 -11 23 -25 40 -14 16 -25
34 -25 39 0 13 49 3 169 -33 53 -16 127 -36 166 -44 38 -9 76 -19 85 -24 8 -4
34 -11 57 -15 36 -6 43 -4 53 15 9 17 6 29 -17 68 -16 26 -39 69 -52 96 -12
26 -33 66 -47 88 -14 22 -48 82 -74 134 -82 155 -90 162 -151 129z"/>
<path d="M10210 13441 c-92 -20 -181 -90 -235 -184 -24 -43 -28 -59 -28 -135
0 -78 3 -94 31 -149 58 -113 145 -170 276 -180 72 -6 80 -4 141 27 85 43 117
73 154 144 28 52 31 68 31 143 0 77 -3 91 -32 147 -39 73 -100 137 -148 155
-19 7 -42 16 -51 21 -25 13 -101 19 -139 11z m156 -173 c73 -52 88 -77 87
-150 0 -125 -52 -186 -169 -196 -40 -3 -60 1 -101 22 -65 34 -86 59 -107 126
-17 51 -17 58 -1 110 22 71 33 85 86 110 66 30 145 22 205 -22z"/>
<path d="M7087 13329 c-35 -20 -49 -66 -62 -204 -2 -27 -11 -106 -20 -175 -9
-69 -20 -161 -25 -205 -15 -129 -30 -253 -45 -365 -7 -58 -19 -145 -25 -195
-6 -49 -20 -144 -30 -210 -10 -66 -21 -154 -25 -195 -3 -41 -10 -97 -15 -125
-5 -27 -14 -95 -21 -150 -7 -55 -16 -107 -20 -117 -10 -19 -93 -34 -243 -43
-54 -3 -144 -16 -200 -30 -56 -13 -121 -28 -146 -33 -74 -16 -211 -51 -280
-72 -36 -10 -85 -24 -110 -31 -25 -6 -62 -18 -83 -25 -20 -8 -45 -14 -55 -14
-19 0 -69 99 -108 212 -13 38 -32 81 -43 97 -12 16 -21 35 -21 41 0 7 -13 38
-30 69 -36 68 -100 206 -100 216 0 8 -13 38 -82 183 -26 57 -48 107 -48 110 0
3 -34 74 -75 158 -41 84 -75 159 -75 167 0 9 -18 49 -40 89 -22 40 -40 78 -40
85 0 6 -23 60 -51 120 -71 152 -125 203 -173 164 -24 -20 -20 -46 30 -176 25
-66 52 -140 61 -165 8 -25 21 -58 27 -75 7 -16 27 -70 45 -120 61 -169 84
-230 112 -295 14 -36 32 -83 39 -105 7 -22 28 -80 47 -128 18 -49 47 -132 64
-185 17 -53 34 -101 38 -107 4 -5 29 -77 56 -160 27 -82 55 -158 63 -167 8
-10 12 -18 8 -18 -3 0 0 -12 8 -27 7 -16 17 -42 20 -59 7 -31 6 -32 -66 -69
-218 -110 -310 -163 -473 -271 -75 -50 -112 -76 -265 -182 -34 -24 -98 -79
-143 -123 -45 -43 -87 -79 -94 -79 -13 0 -82 56 -131 106 -18 19 -79 71 -135
115 -129 103 -195 160 -267 229 -51 50 -140 127 -269 233 -25 21 -64 54 -86
72 -111 93 -175 144 -222 179 -29 21 -53 41 -53 45 0 3 -23 24 -52 46 -28 22
-81 67 -117 100 -99 91 -126 108 -161 100 -55 -12 -49 -62 14 -110 19 -14 47
-45 62 -68 23 -33 160 -195 185 -217 3 -3 12 -14 20 -26 14 -21 105 -124 204
-231 28 -30 55 -62 60 -72 16 -28 115 -146 258 -306 16 -19 127 -153 226 -275
49 -60 86 -101 144 -160 20 -21 37 -46 37 -56 0 -9 -24 -43 -52 -75 -80 -88
-124 -142 -136 -164 -6 -12 -27 -39 -47 -60 -39 -43 -145 -197 -145 -212 0 -5
-13 -22 -28 -39 -16 -16 -32 -36 -35 -44 -4 -8 -19 -35 -33 -60 -37 -63 -109
-199 -160 -301 -23 -48 -49 -89 -57 -92 -20 -7 -101 18 -202 63 -32 14 -192
69 -295 102 -52 16 -117 39 -145 50 -27 11 -93 34 -145 52 -52 18 -113 42
-135 53 -22 11 -89 37 -150 58 -60 20 -119 41 -130 46 -11 5 -33 13 -50 18
-16 5 -82 28 -145 51 -63 23 -152 55 -197 70 -45 16 -101 39 -125 51 -25 13
-63 22 -93 23 -48 1 -50 0 -53 -28 -5 -45 14 -70 76 -98 31 -14 95 -42 142
-63 160 -72 341 -158 409 -196 46 -25 224 -109 231 -109 11 0 187 -81 245
-113 22 -12 60 -31 85 -43 25 -12 115 -55 200 -97 85 -41 171 -83 190 -92 19
-8 51 -24 70 -35 19 -10 49 -25 65 -32 40 -18 38 -52 -9 -161 -20 -46 -36 -95
-36 -109 0 -13 -9 -51 -19 -84 -34 -106 -64 -243 -80 -366 -5 -42 -14 -94 -20
-115 -5 -21 -12 -69 -16 -108 -7 -82 -24 -213 -31 -236 -2 -9 -19 -20 -37 -23
-28 -6 -164 -31 -222 -41 -75 -13 -319 -49 -435 -65 -47 -6 -106 -16 -131 -21
-26 -6 -80 -14 -120 -19 -41 -5 -99 -14 -129 -20 -30 -6 -75 -12 -100 -15 -25
-2 -109 -16 -188 -30 -78 -14 -158 -25 -177 -25 -19 0 -44 -4 -57 -10 -13 -5
-61 -14 -108 -19 -47 -5 -94 -12 -105 -14 -11 -2 -46 -8 -77 -11 -59 -8 -88
-29 -88 -67 0 -41 88 -71 245 -84 44 -3 118 -12 164 -20 46 -8 102 -15 124
-15 22 0 74 -6 116 -14 75 -14 179 -31 381 -61 58 -9 124 -20 148 -25 23 -6
59 -10 80 -10 20 -1 55 -8 77 -16 22 -9 60 -15 85 -14 62 3 56 3 140 -10 41
-7 109 -16 150 -21 41 -5 86 -12 100 -14 14 -2 55 -7 92 -11 37 -4 73 -13 79
-20 5 -7 17 -66 25 -131 28 -225 33 -258 52 -343 26 -112 60 -244 77 -300 39
-123 66 -201 89 -262 14 -37 23 -73 20 -80 -4 -12 -57 -40 -149 -78 -22 -9
-128 -60 -235 -112 -213 -105 -307 -148 -318 -148 -9 0 -191 -74 -247 -100
-22 -10 -137 -66 -255 -123 -198 -96 -287 -139 -380 -181 -107 -49 -155 -81
-158 -107 -2 -16 5 -32 18 -44 18 -16 26 -17 58 -8 83 24 234 74 342 113 63
24 142 51 175 62 33 10 89 30 125 43 79 28 238 78 263 82 10 2 40 12 65 22 26
10 76 29 112 41 36 12 151 51 255 87 105 36 210 71 235 78 49 14 133 43 165
56 11 5 31 10 44 11 27 3 45 -23 131 -190 36 -70 74 -129 221 -349 9 -14 40
-52 68 -86 28 -34 87 -107 130 -163 44 -56 98 -117 120 -136 23 -19 41 -38 41
-41 0 -9 -191 -230 -207 -240 -7 -4 -27 -29 -45 -55 -17 -26 -35 -49 -38 -52
-4 -3 -34 -40 -69 -84 -34 -43 -79 -95 -99 -116 -20 -21 -50 -53 -65 -71 -15
-19 -76 -91 -135 -161 -59 -69 -127 -155 -152 -189 -24 -35 -66 -86 -91 -113
-46 -50 -167 -190 -240 -278 -20 -24 -53 -67 -73 -97 -33 -46 -37 -57 -27 -77
19 -42 63 -32 133 29 87 74 189 166 294 266 50 47 133 120 184 161 51 41 116
99 144 128 28 29 74 70 101 90 28 20 64 50 81 67 17 16 59 54 95 82 35 29 93
78 129 109 36 31 87 75 115 98 66 55 159 138 165 147 11 16 83 69 94 69 6 0
72 -52 145 -115 74 -63 149 -121 165 -130 17 -8 49 -28 71 -45 22 -16 54 -37
70 -46 17 -9 39 -24 50 -33 47 -40 425 -241 453 -241 5 0 17 -9 26 -19 21 -23
14 -55 -43 -193 -21 -51 -48 -126 -60 -166 -12 -39 -36 -102 -53 -140 -16 -37
-36 -87 -43 -112 -12 -40 -50 -139 -75 -195 -28 -62 -60 -146 -70 -185 -7 -25
-22 -67 -35 -95 -13 -27 -28 -68 -35 -90 -6 -22 -31 -96 -55 -165 -91 -264
-164 -501 -158 -516 8 -22 43 -33 74 -22 24 8 49 44 49 70 0 6 9 29 19 52 11
23 46 97 79 166 32 69 65 141 72 160 8 19 25 54 38 78 13 24 29 60 36 80 8 20
42 95 76 167 34 71 70 151 81 177 10 25 42 93 72 150 30 56 82 164 116 238 35
74 90 190 122 258 32 67 59 127 59 132 0 24 36 20 152 -18 153 -50 245 -75
373 -102 55 -12 120 -26 145 -32 79 -18 269 -46 365 -54 99 -9 118 -19 127
-74 5 -25 15 -81 23 -125 16 -87 43 -282 69 -495 10 -74 21 -160 26 -190 5
-30 12 -77 15 -105 10 -77 33 -233 44 -300 6 -33 15 -103 21 -155 19 -168 55
-444 65 -488 5 -22 58 -62 83 -62 18 0 39 55 47 125 3 33 13 98 20 145 8 47
21 148 30 225 9 77 23 178 31 225 9 47 20 121 25 165 5 44 16 116 24 160 8 44
15 103 15 131 0 28 6 70 14 95 8 24 19 91 26 149 6 58 16 125 20 150 8 40 39
250 55 371 5 42 9 47 37 53 17 3 60 6 97 6 36 0 118 12 181 26 63 14 135 29
160 33 108 20 161 32 250 57 197 55 306 88 348 106 24 11 50 17 58 14 7 -3 27
-31 43 -63 16 -32 43 -86 60 -121 17 -34 31 -67 31 -73 0 -6 22 -57 49 -112
76 -156 138 -292 188 -406 24 -58 65 -144 89 -193 24 -48 44 -92 44 -98 0 -13
138 -318 197 -435 25 -49 60 -126 79 -170 36 -89 64 -114 99 -91 34 23 29 60
-28 204 -60 152 -110 289 -125 342 -6 19 -19 58 -30 85 -43 109 -112 295 -140
380 -32 98 -85 253 -103 300 -6 17 -32 91 -59 165 -26 74 -66 180 -87 236 -43
108 -54 150 -46 171 6 14 97 64 143 78 23 7 71 36 185 112 28 18 54 33 59 33
5 0 23 11 40 23 39 30 166 107 175 107 4 0 22 16 41 35 19 19 39 35 46 35 14
0 108 75 239 190 44 38 83 70 87 70 4 0 43 -30 87 -67 184 -157 310 -261 371
-307 36 -28 99 -80 140 -116 41 -37 113 -97 160 -135 47 -38 114 -96 150 -130
36 -34 75 -68 86 -76 58 -39 207 -164 356 -299 54 -49 152 -109 180 -110 19 0
38 28 38 56 0 9 -21 42 -47 72 -27 31 -75 87 -107 126 -32 39 -84 98 -115 132
-31 33 -78 89 -106 124 -27 34 -77 93 -110 130 -78 87 -311 360 -350 409 -28
36 -90 108 -309 358 -48 56 -95 104 -102 107 -24 9 -15 40 26 91 22 28 51 64
65 80 235 291 276 348 381 541 48 88 95 171 105 186 11 14 19 29 19 33 0 3 14
35 31 71 20 40 37 64 48 64 18 0 92 -25 119 -40 29 -16 188 -79 291 -114 172
-60 246 -87 266 -96 11 -6 47 -19 80 -29 33 -11 94 -33 135 -50 41 -17 80 -31
86 -31 6 0 62 -20 125 -44 63 -24 155 -58 204 -76 50 -17 119 -43 155 -57 36
-14 88 -34 115 -44 28 -9 86 -31 131 -47 88 -33 111 -31 141 14 12 18 11 24
-6 45 -10 13 -36 30 -57 38 -40 14 -298 131 -477 215 -54 26 -120 55 -145 65
-139 55 -235 96 -298 127 -39 19 -76 34 -81 34 -5 0 -29 13 -54 29 -24 16 -57
33 -74 37 -16 4 -50 19 -75 34 -25 14 -61 32 -80 40 -19 7 -40 17 -46 22 -6 4
-51 24 -100 44 -49 19 -96 41 -104 49 -8 7 -26 16 -40 20 -43 13 -117 54 -122
67 -3 7 14 67 37 133 44 123 48 137 85 285 46 181 110 540 110 620 0 19 4 41
8 47 4 7 73 24 152 38 212 37 249 43 314 50 33 3 62 8 66 10 3 2 67 13 141 25
73 11 186 29 249 39 63 11 140 22 170 26 30 3 96 13 146 21 86 14 414 61 479
69 17 2 50 8 75 14 25 6 64 11 87 11 77 0 132 39 133 92 0 51 -29 65 -148 71
-59 3 -204 17 -322 32 -118 15 -231 28 -250 30 -36 2 -148 18 -255 36 -33 5
-94 12 -135 14 -41 3 -95 10 -120 15 -25 6 -83 14 -130 20 -107 11 -401 56
-458 70 -23 5 -56 10 -73 10 -39 0 -118 20 -125 31 -3 5 -9 44 -14 87 -22 193
-41 327 -49 356 -15 48 -31 134 -31 165 0 15 -9 54 -21 86 -20 58 -99 320 -99
331 0 2 36 22 81 44 44 21 86 43 92 48 7 5 77 40 157 77 240 111 293 138 337
167 23 15 49 28 57 28 9 0 80 31 159 69 142 68 284 129 425 182 19 7 39 17 45
24 11 10 294 152 382 190 61 27 70 50 33 85 -28 26 -63 25 -129 -4 -30 -13
-94 -37 -144 -54 -49 -17 -121 -42 -160 -56 -38 -14 -77 -26 -86 -26 -9 0 -66
-21 -125 -46 -60 -25 -140 -56 -179 -69 -38 -13 -88 -32 -110 -43 -22 -11 -56
-23 -75 -27 -19 -4 -41 -11 -50 -16 -32 -17 -148 -58 -209 -74 -36 -9 -82 -25
-103 -36 -20 -10 -50 -19 -65 -19 -15 0 -55 -12 -88 -26 -109 -47 -323 -114
-361 -114 -8 0 -17 8 -20 18 -13 38 -62 140 -108 223 -17 31 -48 89 -69 129
-83 158 -284 443 -436 619 -39 45 -71 86 -71 90 0 4 17 25 38 47 21 21 62 70
91 108 60 78 133 167 174 210 16 16 47 55 70 85 22 31 52 67 66 81 64 64 139
149 166 190 30 45 46 64 146 175 30 33 68 78 84 100 17 22 40 51 53 65 12 14
71 81 130 149 59 68 142 160 185 204 81 83 95 117 58 137 -35 18 -68 11 -107
-24 -22 -19 -61 -53 -89 -76 -67 -55 -158 -135 -220 -192 -27 -25 -63 -57 -80
-69 -16 -13 -36 -29 -43 -36 -8 -8 -30 -26 -50 -41 -57 -42 -79 -61 -171 -146
-47 -43 -97 -86 -111 -95 -14 -9 -61 -50 -105 -92 -44 -43 -114 -104 -155
-138 -41 -34 -115 -97 -165 -140 -191 -167 -245 -211 -257 -211 -7 0 -31 19
-53 41 -58 60 -161 149 -172 149 -5 0 -20 12 -34 26 -19 22 -157 119 -238 169
-9 6 -29 19 -46 30 -16 11 -37 25 -46 30 -9 6 -54 35 -100 66 -46 31 -155 91
-241 134 -87 42 -158 79 -158 81 0 2 12 29 26 61 14 32 39 96 54 143 16 47 40
117 55 155 24 62 93 252 141 390 9 28 21 59 25 70 13 31 39 106 51 145 5 19
18 51 28 70 16 33 23 48 55 125 15 35 68 185 84 235 52 169 108 327 132 372
16 30 10 57 -16 74 -46 30 -57 20 -106 -91 -12 -27 -38 -86 -59 -130 -21 -44
-55 -118 -76 -165 -64 -144 -122 -267 -219 -465 -51 -104 -128 -262 -171 -350
-42 -88 -80 -162 -84 -165 -8 -6 -160 -318 -160 -329 0 -5 -9 -16 -20 -26 -19
-17 -22 -17 -87 3 -38 11 -104 30 -148 42 -44 12 -93 27 -110 32 -54 17 -138
39 -174 44 -20 3 -49 9 -66 13 -28 8 -85 18 -324 56 -52 8 -109 15 -127 15
-43 0 -53 16 -64 101 -5 41 -18 133 -29 204 -10 72 -27 180 -36 240 -9 61 -22
144 -30 185 -8 41 -17 102 -20 135 -4 33 -12 92 -20 130 -24 126 -38 219 -40
276 -1 31 -4 60 -7 65 -9 14 -28 113 -34 174 -16 171 -54 433 -64 446 -14 16
-47 18 -73 3z m100 -761 c18 -96 47 -281 57 -363 2 -22 12 -80 21 -130 9 -49
23 -133 31 -185 41 -278 82 -525 104 -630 5 -25 14 -85 20 -135 6 -49 15 -106
20 -125 5 -19 16 -91 25 -160 16 -128 34 -248 81 -540 33 -208 43 -275 50
-325 11 -91 65 -446 79 -520 8 -44 17 -100 19 -125 2 -25 14 -99 25 -165 11
-66 32 -196 45 -290 14 -93 32 -210 40 -260 29 -179 58 -351 66 -395 20 -104
5 -139 -37 -87 -49 59 -219 147 -388 200 -56 17 -95 25 -175 32 -30 3 -67 8
-82 11 l-28 6 -1 576 c-1 317 -1 581 0 585 4 23 -2 1673 -8 2147 -1 91 -2 326
-1 524 0 332 5 444 18 432 3 -3 11 -38 19 -78z m-400 -1294 c3 -8 1 -29 -4
-47 -8 -31 -12 -32 -73 -40 -36 -4 -110 -14 -165 -22 -55 -9 -118 -18 -140
-20 -38 -4 -161 -32 -270 -61 -27 -7 -90 -22 -139 -34 -49 -11 -143 -42 -210
-67 -67 -25 -150 -56 -185 -69 -35 -14 -72 -22 -82 -19 -11 4 -19 2 -19 -4 0
-6 -28 -25 -62 -42 -34 -17 -80 -43 -102 -56 -21 -14 -69 -41 -105 -60 -164
-87 -308 -175 -388 -238 -172 -135 -233 -184 -278 -222 -27 -24 -55 -43 -62
-43 -6 0 -24 11 -40 24 -28 24 -28 24 -9 45 11 12 42 37 71 55 28 19 70 55 93
80 23 25 45 46 48 46 3 0 33 19 66 43 105 73 203 137 210 137 4 0 33 17 65 38
141 94 125 84 240 149 50 29 104 55 120 59 15 4 39 15 53 24 14 10 36 21 50
25 14 3 52 19 85 35 117 54 344 128 545 178 173 43 202 49 365 77 83 14 170
30 195 34 76 14 120 13 127 -5z m-33 -219 c-2 -66 -14 -162 -57 -430 -9 -55
-21 -154 -27 -220 -6 -66 -15 -147 -20 -180 -5 -33 -14 -100 -21 -150 -15
-126 -15 -120 -28 -220 -7 -49 -16 -112 -22 -140 -5 -27 -11 -70 -14 -95 -6
-54 -25 -206 -60 -470 -14 -107 -30 -231 -36 -275 -27 -228 -40 -295 -56 -295
-9 0 -48 24 -58 35 -5 6 -32 29 -59 51 -27 21 -84 72 -125 111 -42 40 -79 73
-83 73 -4 0 -22 15 -41 33 -48 47 -241 216 -316 277 -46 37 -136 116 -168 146
-39 38 -110 100 -173 152 -36 29 -74 61 -85 70 -11 9 -29 24 -41 32 -12 8 -49
40 -82 70 -33 30 -84 74 -114 98 -161 130 -208 170 -258 218 -30 29 -94 82
-142 119 -47 36 -89 72 -92 81 -6 16 43 68 118 124 26 19 67 51 91 70 107 84
178 136 213 155 20 11 69 41 107 67 39 25 102 62 140 81 39 19 99 51 135 70
158 87 264 134 420 187 212 71 404 125 550 154 41 8 95 20 120 26 73 17 223
39 255 37 30 -2 30 -2 29 -62z m926 45 c25 -5 99 -19 165 -31 66 -12 154 -30
195 -41 41 -11 87 -21 102 -23 14 -2 35 -8 45 -13 10 -6 41 -15 68 -20 53 -11
199 -57 227 -73 10 -5 25 -9 33 -9 17 0 211 -87 235 -105 8 -6 56 -32 105 -57
143 -72 248 -130 268 -147 11 -9 38 -27 62 -41 24 -14 83 -52 130 -85 48 -33
96 -65 107 -72 11 -6 23 -16 27 -21 3 -5 33 -31 67 -58 92 -74 176 -153 172
-162 -2 -5 -46 -46 -98 -91 -52 -45 -106 -93 -120 -105 -81 -72 -203 -178
-255 -221 -33 -27 -78 -66 -100 -87 -68 -63 -185 -162 -217 -182 -16 -10 -49
-37 -73 -60 -46 -44 -134 -122 -175 -154 -14 -11 -43 -36 -65 -56 -22 -21 -65
-56 -95 -79 -30 -23 -61 -50 -69 -60 -7 -10 -26 -26 -40 -35 -25 -15 -121 -99
-220 -192 -93 -87 -208 -187 -233 -202 -35 -23 -42 -13 -57 82 -6 41 -16 95
-20 120 -5 25 -10 63 -10 85 -1 22 -4 47 -7 57 -2 9 -9 49 -14 90 -5 40 -16
103 -24 140 -8 37 -17 93 -20 125 -3 32 -14 110 -25 173 -11 63 -22 131 -24
151 -2 20 -6 40 -10 45 -5 9 -29 192 -29 224 0 8 -6 42 -13 75 -8 33 -23 125
-34 205 -12 80 -26 174 -31 210 -6 36 -17 110 -25 165 -19 125 -43 263 -57
335 -6 30 -12 84 -13 120 -1 36 -4 70 -5 75 -1 6 -2 14 -1 18 1 9 97 1 171
-13z m-4231 -88 c24 -20 61 -49 82 -64 44 -30 80 -60 194 -163 44 -40 143
-126 220 -191 77 -65 165 -142 195 -170 30 -29 84 -76 120 -105 77 -63 135
-114 170 -149 14 -14 41 -37 60 -51 41 -31 257 -215 350 -299 36 -32 101 -89
145 -127 44 -37 106 -90 139 -118 32 -27 74 -62 93 -77 19 -15 56 -46 82 -70
26 -24 58 -50 71 -59 14 -9 71 -60 128 -113 57 -53 108 -96 113 -96 5 0 33
-21 62 -47 30 -27 63 -55 73 -63 10 -9 78 -67 149 -130 72 -64 143 -125 158
-137 30 -23 126 -107 212 -185 28 -27 56 -48 62 -48 5 0 26 -18 45 -39 34 -38
35 -41 28 -98 -5 -32 -13 -104 -20 -161 -12 -111 -17 -132 -31 -132 -5 0 -42
33 -83 73 -40 39 -109 106 -152 148 -44 42 -118 116 -166 165 -48 49 -112 114
-144 144 -31 30 -75 77 -96 105 -22 27 -53 59 -69 70 -15 11 -70 65 -121 120
-51 55 -115 120 -142 145 -69 62 -221 218 -254 259 -14 18 -51 53 -82 78 -93
76 -670 656 -740 746 -23 28 -58 35 -78 15 -33 -33 -15 -56 242 -311 139 -138
257 -262 260 -274 4 -12 24 -32 44 -45 40 -24 249 -228 1008 -985 266 -265
484 -489 484 -497 0 -8 -12 -17 -27 -20 -45 -9 -144 -24 -198 -31 -27 -3 -69
-11 -93 -17 -52 -13 -50 -14 -144 110 -40 53 -86 111 -103 128 -43 44 -98 113
-132 164 -16 25 -58 74 -92 110 -34 36 -69 77 -76 91 -8 15 -21 29 -29 32 -9
4 -36 34 -62 69 -51 70 -241 300 -319 387 -72 79 -136 159 -172 211 -17 25
-72 88 -122 140 -50 52 -91 97 -91 101 0 3 -12 19 -26 35 -28 32 -117 143
-149 186 -11 15 -67 82 -125 150 -58 68 -114 134 -125 147 -11 14 -36 43 -56
65 -19 23 -51 66 -71 96 -20 30 -45 62 -55 72 -29 26 -132 143 -171 195 -19
26 -47 59 -61 73 -14 14 -50 55 -79 90 -29 36 -63 76 -75 90 -13 14 -38 45
-57 70 -18 25 -40 52 -49 60 -9 8 -36 40 -60 70 -25 30 -49 60 -55 65 -14 13
-56 73 -56 79 0 8 71 -40 119 -82z m7439 6 c-24 -29 -47 -58 -53 -64 -5 -7
-23 -29 -40 -50 -16 -21 -46 -56 -66 -78 -52 -58 -139 -168 -139 -175 0 -4
-32 -38 -70 -76 -39 -39 -84 -93 -100 -122 -16 -28 -47 -66 -69 -84 -22 -17
-52 -50 -68 -73 -15 -22 -48 -65 -73 -95 -25 -30 -55 -68 -67 -84 -12 -16 -41
-50 -65 -75 -24 -25 -58 -64 -75 -87 -18 -22 -46 -56 -63 -75 -17 -19 -58 -69
-91 -110 -123 -153 -138 -171 -217 -255 -21 -22 -58 -67 -82 -100 -25 -32 -51
-66 -58 -75 -7 -8 -40 -49 -74 -90 -33 -41 -84 -102 -112 -135 -87 -99 -160
-186 -176 -209 -39 -56 -108 -144 -147 -185 -23 -25 -43 -50 -43 -55 0 -5 -10
-19 -22 -31 -13 -12 -61 -68 -108 -124 -47 -57 -103 -124 -125 -150 -22 -26
-74 -89 -115 -140 -41 -51 -92 -111 -112 -133 -21 -22 -38 -43 -38 -48 0 -4
-11 -15 -25 -24 -23 -15 -35 -15 -172 3 -140 18 -203 33 -203 47 0 3 84 88
187 187 102 100 193 191 202 201 9 11 52 57 96 103 44 45 100 104 124 130 25
26 153 159 285 294 133 135 329 337 436 448 107 111 309 317 448 459 259 264
277 288 231 312 -28 16 -63 5 -82 -24 -13 -19 -122 -129 -271 -271 -11 -11
-33 -36 -49 -55 -27 -35 -293 -305 -403 -410 -31 -30 -74 -77 -95 -105 -20
-27 -144 -158 -274 -290 -130 -132 -248 -256 -261 -275 -13 -19 -58 -66 -100
-105 -74 -67 -113 -106 -399 -400 -138 -141 -139 -142 -150 -54 -3 24 -12 93
-21 152 -9 59 -13 118 -10 130 3 13 27 38 53 57 41 29 145 116 278 231 16 15
63 55 103 90 41 35 85 73 99 84 13 11 50 43 81 70 31 28 91 78 132 110 41 33
111 94 155 135 91 84 141 126 200 168 22 16 46 36 54 45 7 9 18 17 24 17 5 0
58 48 116 106 58 59 122 117 141 129 19 13 57 43 84 68 47 43 141 126 436 382
70 61 172 149 226 196 84 73 180 153 232 194 8 5 25 20 38 33 14 12 27 22 30
22 7 0 114 91 184 157 61 57 179 153 189 153 3 0 37 30 76 65 38 36 73 65 78
65 4 0 -11 -24 -35 -52z m-722 -1112 c16 -19 43 -53 59 -76 17 -23 53 -68 81
-100 67 -78 215 -297 283 -419 110 -198 131 -236 137 -251 4 -8 15 -35 26 -60
25 -58 32 -75 53 -129 9 -24 23 -54 31 -65 8 -11 14 -30 14 -43 0 -12 4 -24 9
-28 5 -3 17 -27 26 -53 10 -26 31 -81 47 -122 16 -41 35 -102 43 -135 7 -33
21 -87 30 -120 25 -86 44 -169 60 -255 8 -41 19 -97 25 -125 14 -67 30 -249
23 -275 -4 -15 -13 -20 -38 -20 -41 0 -34 -26 -84 325 -10 68 -43 230 -60 290
-71 253 -131 443 -155 485 -7 14 -19 43 -25 65 -7 22 -25 67 -41 100 -16 33
-47 99 -69 146 -23 48 -59 115 -81 150 -21 35 -52 89 -67 119 -15 30 -30 57
-33 60 -4 3 -27 37 -54 75 -26 39 -58 86 -71 105 -14 19 -39 56 -57 83 -18 26
-64 84 -102 130 -80 96 -91 116 -82 151 9 37 38 33 72 -8z m-5812 -175 c48
-55 86 -103 86 -108 0 -4 39 -51 86 -103 78 -85 184 -215 224 -274 7 -11 37
-46 65 -76 27 -30 79 -90 115 -133 36 -44 85 -102 110 -131 25 -29 74 -90 110
-135 36 -45 88 -108 116 -139 55 -62 135 -159 174 -212 14 -19 63 -77 110
-130 47 -54 118 -139 158 -190 92 -116 90 -119 -73 -140 -97 -12 -340 -51
-620 -100 -27 -5 -77 -14 -110 -19 -33 -6 -98 -17 -145 -25 -252 -45 -474 -82
-685 -115 -66 -11 -150 -25 -185 -31 -36 -7 -78 -13 -95 -15 -16 -1 -88 -12
-160 -24 -71 -12 -141 -24 -155 -26 -14 -2 -53 -10 -87 -16 -48 -10 -65 -10
-76 -1 -20 17 -27 72 -16 118 5 22 12 66 14 99 3 33 15 98 26 145 12 47 24
105 29 130 42 244 166 599 326 935 13 28 42 82 65 120 23 39 58 99 77 135 20
35 55 91 79 125 24 33 56 78 71 100 85 127 256 335 275 335 3 0 44 -45 91 -99z
m5776 -42 c0 -4 26 -41 58 -82 115 -154 222 -309 222 -324 0 -5 15 -31 34 -59
74 -110 230 -437 282 -593 14 -41 29 -80 33 -86 36 -51 147 -506 176 -720 8
-55 17 -116 20 -136 9 -46 -3 -54 -63 -40 -26 5 -76 12 -112 15 -66 5 -231 27
-350 45 -36 6 -96 13 -135 16 -38 4 -97 11 -130 17 -64 11 -127 20 -265 38
-47 6 -148 20 -225 31 -215 30 -416 59 -460 65 -22 3 -76 12 -120 20 -44 8
-118 19 -165 24 -208 23 -411 57 -424 70 -6 6 1 21 18 42 14 18 45 58 68 88
37 50 157 190 184 215 5 6 23 28 39 50 16 22 32 42 35 45 3 3 45 52 93 110 48
58 104 125 125 149 20 24 53 65 72 91 64 87 243 301 355 424 14 15 63 75 108
133 121 154 146 185 175 218 15 17 38 44 50 60 23 29 113 132 161 183 l23 25
59 -64 c32 -35 58 -67 59 -70z m-2753 -1424 c87 -23 154 -47 193 -71 19 -11
52 -26 72 -33 20 -7 42 -19 49 -27 7 -9 25 -22 40 -29 15 -8 40 -27 56 -42 16
-15 49 -45 73 -67 67 -59 155 -180 207 -281 50 -98 125 -398 105 -416 -4 -4
-26 -10 -49 -14 -37 -6 -46 -3 -68 19 -14 14 -25 34 -25 45 0 11 -8 55 -19 98
-54 227 -235 471 -418 564 -48 24 -93 49 -100 56 -23 21 -116 50 -212 67 -52
9 -100 21 -107 26 -15 14 -16 100 -1 119 14 16 113 9 204 -14z m-289 3 c16
-16 15 -93 -1 -107 -8 -6 -36 -15 -63 -20 -112 -22 -213 -55 -284 -93 -111
-61 -180 -106 -205 -136 -13 -15 -40 -45 -60 -67 -54 -57 -106 -132 -137 -195
-33 -67 -98 -261 -98 -292 0 -13 -5 -40 -11 -60 -10 -38 -10 -38 -63 -38 -68
0 -85 16 -68 64 7 18 12 44 12 59 0 69 54 246 103 339 43 80 145 229 165 242
8 5 38 32 66 60 28 29 75 68 103 88 29 20 60 43 69 52 8 9 22 16 31 16 8 0 27
8 41 18 47 32 106 50 188 57 43 4 83 11 89 16 13 13 109 11 123 -3z m222 -224
c150 -31 276 -102 402 -226 136 -133 188 -232 232 -443 17 -83 11 -95 -50 -95
-52 0 -51 -1 -83 133 -33 139 -98 251 -196 339 -99 88 -252 159 -370 172 -72
8 -89 25 -82 80 8 61 25 66 147 40z m-1083 -85 c7 -7 8 -18 3 -28 -4 -9 -25
-52 -45 -96 -21 -44 -45 -89 -55 -100 -18 -20 -47 -101 -76 -210 -17 -65 -22
-96 -32 -195 l-7 -65 -40 -6 c-22 -4 -148 -7 -280 -7 -227 -1 -780 -7 -1505
-17 -179 -3 -523 -7 -765 -9 -242 -3 -611 -8 -820 -11 -697 -11 -923 -12 -936
-4 -18 11 -1 17 81 28 36 5 119 19 185 30 66 12 136 24 155 26 19 2 62 9 95
15 63 12 154 26 340 54 61 9 162 26 225 36 123 20 233 37 290 44 19 2 73 11
120 20 47 9 126 23 175 31 50 7 129 21 178 29 48 9 102 18 120 21 62 8 182 28
222 35 92 18 163 30 218 35 32 2 64 8 70 12 7 4 37 10 67 14 55 6 305 46 455
74 73 13 218 37 305 50 19 2 89 14 155 24 66 11 194 31 285 46 91 14 185 30
210 34 47 9 222 44 300 60 25 5 54 9 65 10 11 0 56 7 100 15 103 18 128 19
142 5z m872 -127 c6 -11 10 -118 11 -248 0 -126 3 -244 6 -262 3 -18 1 -39 -5
-46 -8 -9 -78 -12 -293 -12 l-283 1 -3 30 c-3 31 49 187 71 214 7 9 19 28 27
44 20 41 96 126 143 162 69 52 118 76 207 105 104 34 107 34 119 12z m5294
-603 c111 -3 158 -13 105 -23 -102 -19 -156 -27 -238 -36 -52 -6 -126 -17
-165 -25 -38 -8 -108 -19 -155 -25 -47 -7 -107 -16 -135 -21 -27 -6 -99 -17
-160 -25 -60 -8 -159 -23 -220 -34 -60 -11 -139 -25 -174 -30 -35 -6 -67 -13
-72 -16 -5 -3 -26 -7 -47 -9 -54 -6 -103 -14 -135 -21 -16 -3 -38 -7 -50 -8
-85 -10 -222 -31 -332 -51 -71 -14 -168 -29 -215 -35 -93 -12 -104 -14 -230
-37 -47 -8 -112 -19 -145 -24 -33 -5 -87 -14 -120 -19 -84 -14 -261 -39 -319
-46 -27 -3 -57 -9 -67 -15 -10 -5 -29 -9 -44 -9 -14 0 -72 -9 -128 -19 -93
-18 -205 -35 -297 -46 -19 -3 -57 -9 -85 -15 -27 -6 -99 -17 -160 -25 -60 -9
-117 -18 -125 -20 -21 -6 -66 -13 -220 -36 -135 -20 -206 -31 -310 -48 -75
-13 -140 -13 -140 -1 0 6 15 32 33 58 93 133 168 320 211 527 23 108 21 106
80 106 167 0 1551 10 2096 16 778 7 1151 9 1245 5 91 -4 548 8 554 14 3 3 15
3 26 0 11 -3 73 -6 138 -7z m-4631 -93 c-2 -46 -13 -81 -47 -153 -37 -78 -56
-106 -119 -166 -41 -40 -89 -83 -106 -96 -62 -47 -212 -111 -260 -111 -63 0
-61 -13 -60 269 2 280 4 308 29 313 9 2 140 3 291 3 l275 0 -3 -59z m396 30
c7 -61 -57 -304 -101 -386 -17 -30 -45 -83 -64 -117 -73 -137 -257 -330 -353
-369 -8 -3 -33 -14 -55 -24 -40 -17 -60 -24 -162 -55 -30 -10 -94 -17 -150
-18 l-98 -2 -3 42 c-4 48 26 88 58 80 51 -13 307 62 332 98 4 5 27 21 51 35
114 65 232 175 299 282 53 84 109 233 139 373 18 89 24 97 67 93 33 -3 37 -7
40 -32z m-1917 -6 c4 -14 17 -70 28 -126 23 -107 75 -245 110 -291 12 -15 39
-55 61 -88 50 -78 114 -133 225 -198 146 -85 225 -117 337 -135 l103 -18 3
-48 c4 -66 -9 -79 -72 -71 -121 15 -340 80 -377 111 -8 8 -20 14 -25 14 -5 0
-31 18 -59 40 -27 22 -54 40 -58 40 -14 0 -157 151 -157 166 0 7 5 16 11 19
17 11 -21 46 -43 39 -23 -7 -32 4 -88 97 -38 64 -99 214 -119 294 -8 35 -16
129 -12 162 1 15 26 21 81 20 38 -2 46 -5 51 -27z m218 -1 c6 -18 11 -42 11
-54 0 -68 68 -218 139 -308 63 -80 71 -88 111 -119 19 -15 53 -43 75 -63 21
-19 45 -33 52 -30 8 2 30 -1 51 -9 69 -25 107 -34 160 -41 50 -7 52 -8 54 -38
2 -51 -3 -91 -13 -101 -13 -14 -155 12 -214 39 -27 13 -60 26 -72 30 -20 5
-75 39 -183 111 -68 46 -162 168 -225 291 -34 68 -48 111 -61 189 -10 55 -15
108 -11 117 5 13 19 17 61 17 52 0 55 -1 65 -31z m4495 -329 c-6 -138 -85
-577 -114 -632 -5 -9 -19 -53 -30 -98 -21 -82 -45 -151 -80 -226 -10 -23 -22
-55 -26 -70 -11 -50 -178 -392 -225 -462 -16 -24 -29 -45 -29 -48 0 -2 -22
-41 -50 -85 -27 -44 -50 -82 -50 -85 0 -2 -8 -12 -17 -22 -10 -10 -36 -45 -58
-77 -22 -32 -55 -75 -72 -95 -18 -21 -33 -41 -33 -44 0 -10 -78 -104 -110
-133 -33 -30 -43 -29 -73 10 -14 17 -40 48 -59 69 -40 44 -95 107 -218 253
-183 215 -214 251 -261 300 -26 28 -89 102 -139 165 -50 63 -112 137 -139 165
-26 27 -52 57 -57 66 -10 17 -53 72 -119 149 -52 62 -62 74 -125 156 -29 38
-90 110 -135 159 -120 133 -187 225 -175 241 6 6 50 17 98 24 48 6 109 16 137
21 27 5 101 16 165 24 63 9 135 20 160 25 25 5 106 19 180 30 74 11 158 25
185 30 28 5 79 12 115 15 36 4 92 13 125 20 33 8 98 19 145 25 47 7 130 20
185 30 55 11 125 22 155 25 30 4 105 15 165 25 61 10 164 26 230 35 66 10 163
25 215 35 128 25 135 24 134 -20z m-7747 -8 c12 -8 21 -50 53 -262 26 -169 41
-236 119 -515 18 -65 49 -153 71 -200 5 -11 14 -40 21 -65 6 -25 14 -49 19
-55 4 -5 31 -63 59 -127 52 -116 98 -204 173 -325 21 -34 38 -66 38 -71 0 -10
126 -193 217 -315 32 -44 100 -125 150 -180 51 -56 96 -112 99 -125 7 -25 -19
-72 -39 -72 -19 0 -36 19 -177 194 -8 10 -37 44 -64 75 -26 31 -63 79 -82 106
-41 62 -97 143 -121 174 -10 13 -37 58 -59 100 -23 42 -60 107 -83 144 -23 38
-46 78 -50 90 -5 12 -22 45 -38 72 -16 28 -35 66 -42 85 -31 78 -68 166 -92
213 -10 21 -19 44 -19 52 0 8 -11 43 -24 77 -13 35 -36 104 -50 153 -15 50
-32 105 -38 124 -45 143 -129 626 -113 652 7 11 55 12 72 1z m327 -43 c48 -10
78 -14 291 -38 90 -10 170 -23 255 -42 25 -5 61 -11 80 -13 64 -7 145 -18 160
-21 8 -2 49 -8 90 -15 41 -6 113 -17 160 -25 47 -7 126 -19 175 -25 126 -15
447 -58 525 -70 138 -21 234 -33 414 -50 55 -5 104 -14 109 -19 9 -9 -37 -83
-78 -127 -146 -155 -195 -211 -195 -223 0 -20 -65 -87 -91 -94 -20 -5 -29 -14
-29 -29 0 -25 -27 -62 -130 -178 -42 -47 -87 -99 -100 -116 -14 -17 -50 -62
-80 -100 -31 -38 -62 -79 -70 -90 -15 -22 -139 -169 -230 -274 -27 -30 -82
-95 -124 -145 -42 -49 -87 -101 -100 -115 -31 -34 -108 -128 -126 -155 -38
-56 -136 -165 -148 -165 -14 0 -38 23 -92 90 -19 24 -53 65 -75 91 -142 168
-356 500 -446 694 -18 39 -49 106 -70 150 -49 105 -83 187 -103 255 -10 30
-21 63 -26 72 -5 9 -18 50 -29 90 -11 40 -31 114 -46 163 -15 50 -33 128 -41
175 -9 47 -20 110 -25 140 -5 30 -14 78 -19 105 -5 28 -9 67 -9 89 l-1 39 86
-7 c48 -4 110 -12 138 -17z m4936 -351 c82 -94 198 -230 245 -288 28 -35 97
-117 155 -184 58 -66 128 -148 155 -181 28 -32 57 -66 65 -76 8 -9 33 -39 55
-67 22 -29 43 -52 46 -52 4 0 19 -19 33 -42 14 -24 48 -68 76 -98 28 -30 92
-102 141 -160 50 -58 116 -134 148 -170 32 -36 100 -114 152 -175 51 -60 117
-135 145 -165 64 -69 100 -111 148 -175 20 -27 59 -72 85 -100 26 -27 85 -96
132 -153 46 -56 104 -127 129 -157 25 -29 77 -93 115 -141 39 -48 105 -126
149 -173 111 -122 114 -125 208 -236 140 -167 187 -235 162 -235 -8 0 -194
154 -254 209 -25 23 -74 65 -108 94 -35 29 -80 69 -100 90 -19 20 -39 37 -45
37 -14 0 -172 121 -261 200 -28 25 -69 59 -90 75 -22 16 -69 57 -105 90 -36
34 -76 68 -89 74 -23 12 -162 122 -199 157 -11 11 -33 28 -48 39 -53 37 -180
137 -201 159 -48 49 -226 194 -296 241 -21 14 -52 41 -70 61 -41 45 -50 53
-119 106 -31 24 -123 99 -204 168 -82 69 -170 141 -196 160 -103 75 -166 126
-224 181 -33 31 -96 85 -141 120 -44 35 -128 105 -186 154 -58 50 -120 101
-137 114 -23 17 -31 31 -31 53 0 33 47 318 56 342 13 33 -12 54 368 -317 88
-87 168 -165 176 -174 8 -9 62 -62 119 -117 57 -56 267 -263 467 -461 200
-198 434 -428 521 -512 87 -83 203 -197 258 -252 61 -61 108 -101 121 -101 22
0 44 17 44 36 0 10 -282 295 -373 377 -70 63 -406 389 -560 545 -95 95 -336
335 -537 535 -449 446 -510 508 -510 519 0 14 42 26 146 38 54 7 108 16 119
21 11 4 40 8 64 8 39 1 48 -3 81 -41z m-2430 -1 c115 -10 220 -34 220 -50 0
-11 -22 -33 -1076 -1095 -993 -999 -915 -918 -908 -947 5 -20 12 -25 38 -25
24 0 39 10 68 43 20 23 112 118 205 210 92 92 175 175 183 185 8 9 35 35 59
57 25 22 119 116 210 209 91 93 204 206 249 250 46 45 112 110 147 146 90 91
733 743 746 755 5 6 41 41 80 79 45 45 73 66 79 60 6 -6 17 -52 25 -104 8 -52
20 -119 25 -149 6 -30 10 -60 10 -67 0 -8 -64 -68 -142 -135 -79 -67 -199
-170 -267 -228 -69 -58 -145 -126 -170 -151 -43 -43 -159 -140 -221 -186 -28
-20 -148 -124 -179 -155 -9 -9 -54 -47 -101 -84 -47 -37 -114 -93 -150 -125
-36 -33 -94 -82 -130 -110 -64 -51 -84 -69 -251 -221 -46 -43 -109 -96 -139
-120 -30 -23 -69 -56 -85 -73 -49 -49 -126 -118 -175 -156 -59 -46 -163 -134
-255 -215 -38 -34 -146 -121 -206 -165 -19 -14 -68 -57 -109 -97 -41 -39 -136
-124 -210 -189 -74 -64 -144 -127 -155 -138 -27 -28 -107 -86 -118 -86 -5 0 5
17 22 38 72 85 111 134 120 151 6 10 24 33 42 52 18 19 56 67 86 107 30 39 57
72 61 72 4 0 18 17 32 38 13 20 51 66 85 102 33 36 79 88 100 115 22 28 42 52
45 55 3 3 21 25 39 50 19 25 56 68 82 95 26 28 62 69 81 93 18 24 59 73 92
110 32 37 66 78 75 92 9 14 31 41 50 60 18 19 48 56 65 81 17 25 63 82 103
125 114 127 163 184 163 192 0 5 21 30 48 58 26 27 70 78 97 114 27 36 86 106
130 155 45 50 99 113 120 140 83 105 257 303 269 308 7 3 22 21 32 41 22 41
108 149 174 216 25 26 65 75 90 109 68 93 95 129 163 210 103 124 99 121 143
111 22 -5 64 -11 94 -13z m463 -137 c25 -16 49 -30 54 -30 5 0 25 -11 43 -25
19 -14 55 -32 80 -39 26 -8 68 -23 96 -34 62 -26 146 -44 249 -51 l80 -6 6
-110 c4 -60 7 -688 8 -1394 0 -997 3 -1286 13 -1298 9 -12 9 -19 -1 -35 -11
-17 -13 -145 -11 -632 2 -613 2 -673 0 -821 -2 -80 -2 -80 -15 -40 -7 22 -22
119 -34 215 -12 96 -31 231 -41 300 -11 69 -28 195 -40 280 -11 85 -25 182
-30 215 -12 70 -41 256 -70 440 -11 72 -26 184 -34 250 -8 66 -20 142 -26 168
-6 27 -15 83 -21 125 -5 42 -19 133 -29 202 -11 69 -31 206 -45 305 -14 99
-30 209 -35 245 -24 157 -62 415 -76 524 -8 66 -17 123 -19 126 -5 9 -25 132
-31 195 -3 28 -7 57 -11 65 -3 8 -9 44 -13 80 -5 36 -16 108 -24 160 -8 52
-25 163 -36 245 -11 83 -27 193 -35 245 -17 111 -19 160 -6 160 6 0 30 -13 54
-30z m-83 -437 c0 -5 14 -93 30 -198 17 -104 46 -293 65 -420 19 -126 39 -255
45 -285 6 -30 15 -86 19 -125 27 -206 43 -314 75 -510 24 -141 47 -293 61
-390 9 -66 21 -145 26 -175 10 -63 36 -237 44 -292 3 -20 1 -39 -3 -42 -12 -7
-177 10 -277 28 -44 8 -107 20 -140 26 -33 5 -69 15 -80 20 -11 5 -56 19 -100
29 -217 53 -455 131 -554 180 -31 16 -67 32 -81 36 -14 4 -54 25 -89 46 -34
22 -68 39 -75 39 -6 0 -20 6 -31 14 -11 7 -74 42 -140 76 -114 60 -185 105
-320 205 -33 24 -73 52 -89 61 -17 9 -56 38 -88 65 -32 27 -67 53 -78 59 -43
23 -14 68 86 140 44 31 222 176 234 190 15 18 163 142 215 180 33 24 111 89
173 144 62 56 141 123 175 149 33 26 72 60 86 75 34 36 150 135 231 197 64 49
120 97 189 165 20 19 56 51 80 70 78 62 134 111 209 181 66 62 102 83 102 62z
m1555 -45 c33 -29 70 -62 81 -73 12 -11 59 -49 104 -85 46 -36 111 -90 145
-120 74 -65 190 -161 254 -210 25 -19 78 -61 117 -95 84 -71 126 -105 214
-173 36 -28 79 -63 96 -79 62 -57 170 -149 190 -163 75 -52 189 -145 249 -203
38 -37 107 -92 152 -122 74 -49 113 -86 113 -107 0 -8 -229 -194 -288 -233
-20 -14 -91 -63 -157 -110 -70 -49 -195 -122 -300 -175 -99 -50 -184 -96 -190
-101 -5 -5 -16 -9 -25 -9 -8 0 -37 -12 -64 -26 -72 -38 -293 -119 -406 -149
-36 -10 -74 -21 -85 -25 -65 -24 -193 -56 -290 -71 -91 -15 -112 -18 -225 -38
-58 -10 -111 -16 -117 -13 -17 6 -16 30 6 153 11 57 27 162 36 234 9 71 19
133 21 137 3 4 9 51 14 105 6 54 22 166 36 248 14 83 30 186 34 230 5 44 20
152 34 240 14 88 44 282 66 430 22 149 43 277 46 285 4 8 10 51 14 95 9 93 30
244 35 263 8 22 29 13 90 -40z m1830 -1514 c19 -30 29 -19 -158 -177 -144
-120 -179 -145 -317 -227 -69 -40 -145 -88 -170 -105 -84 -59 -214 -129 -295
-160 -44 -17 -92 -38 -106 -48 -15 -10 -52 -27 -84 -38 -31 -11 -89 -35 -129
-54 -39 -19 -107 -45 -151 -59 -44 -13 -91 -28 -105 -34 -27 -12 -196 -51
-330 -78 -109 -21 -263 -43 -366 -50 -74 -6 -81 -5 -86 12 -2 11 -2 30 2 44 6
24 10 25 100 32 52 4 122 12 155 19 33 6 67 12 75 14 8 1 40 6 70 10 30 4 75
13 100 20 25 8 86 25 135 40 252 71 373 117 655 247 122 56 125 58 250 130 52
30 122 69 155 86 74 39 179 116 448 330 50 39 101 72 113 72 12 0 29 -11 39
-26z"/>
<path d="M6733 6601 c-28 -23 -29 -34 -4 -26 11 3 22 1 26 -5 8 -13 55 -13 55
0 0 6 -7 13 -15 16 -8 4 -15 12 -15 20 0 19 -21 17 -47 -5z"/>
<path d="M11004 12841 c-44 -48 -61 -50 -98 -16 -42 39 -61 46 -81 31 -17 -12
-17 -15 -1 -46 9 -19 19 -51 22 -71 6 -37 5 -38 -45 -63 -40 -21 -51 -31 -51
-51 0 -36 30 -48 85 -34 56 14 71 4 86 -58 14 -55 45 -80 70 -57 9 8 19 35 22
59 7 64 21 78 74 70 51 -7 86 8 81 36 -3 20 -25 36 -80 58 -35 13 -37 47 -5
101 17 31 20 43 11 57 -20 32 -49 27 -90 -16z"/>
<path d="M3232 12838 c-17 -17 -15 -33 8 -78 11 -22 20 -46 20 -55 0 -9 -23
-27 -54 -42 -88 -43 -80 -91 14 -80 61 7 80 -8 80 -64 0 -82 47 -109 75 -43 8
20 15 44 15 53 0 40 22 50 78 40 40 -8 57 -7 68 2 24 20 12 50 -30 73 -57 32
-65 49 -39 84 19 26 27 55 24 90 -2 20 -39 14 -63 -10 -31 -31 -66 -48 -83
-41 -8 3 -15 8 -15 12 0 12 -62 71 -74 71 -7 0 -17 -5 -24 -12z"/>
<path d="M11463 12568 c-32 -40 -107 -124 -168 -187 -165 -171 -165 -171 -165
-196 0 -26 58 -75 88 -75 12 0 46 31 90 83 90 106 128 141 141 133 6 -4 11
-28 11 -54 0 -26 5 -76 11 -112 5 -36 12 -121 15 -190 3 -68 10 -132 15 -142
14 -26 44 -22 65 10 9 15 25 34 33 42 9 8 29 31 45 50 15 19 88 96 161 172
148 150 151 157 89 205 -44 33 -71 25 -104 -28 -32 -53 -159 -181 -173 -176
-7 2 -13 24 -14 48 -4 80 -22 373 -27 418 -4 41 -24 71 -47 71 -5 0 -34 -33
-66 -72z"/>
<path d="M2753 12591 c-37 -31 -41 -57 -18 -102 9 -16 26 -60 39 -97 13 -37
32 -88 42 -114 10 -26 15 -50 12 -53 -6 -6 -116 46 -241 114 -65 35 -107 41
-107 14 0 -10 11 -45 24 -78 53 -131 95 -249 91 -254 -3 -2 -20 3 -37 12 -112
55 -270 127 -281 127 -6 0 -27 -9 -44 -20 -48 -29 -45 -65 5 -86 108 -47 130
-57 167 -76 22 -12 87 -45 145 -74 58 -28 127 -65 153 -82 29 -18 56 -28 67
-25 32 8 28 31 -31 178 -36 92 -59 155 -59 164 0 18 19 13 104 -28 44 -22 97
-47 116 -55 19 -9 47 -24 63 -32 34 -19 67 -10 67 18 0 12 -13 49 -29 83 -16
34 -33 79 -36 101 -4 21 -22 71 -41 111 -19 39 -41 99 -50 133 -19 75 -42 133
-58 142 -18 12 -29 9 -63 -21z"/>
<path d="M12005 12070 c-98 -13 -167 -55 -219 -133 -48 -73 -56 -98 -56 -183
0 -100 40 -187 108 -237 84 -61 110 -70 202 -71 74 -1 92 3 135 26 80 42 151
115 168 173 46 148 29 231 -67 328 -44 44 -77 68 -119 85 -60 23 -69 24 -152
12z m146 -154 c51 -35 81 -94 82 -165 0 -31 -6 -68 -13 -81 -35 -66 -135 -117
-194 -98 -17 5 -41 12 -54 15 -13 3 -35 24 -50 46 -15 22 -35 51 -45 66 -14
20 -17 38 -13 77 6 73 28 109 89 144 45 27 59 30 106 26 34 -3 67 -14 92 -30z"/>
<path d="M2124 12052 c-15 -11 -44 -55 -44 -68 0 -6 32 -38 71 -70 112 -93
172 -151 165 -162 -7 -11 -143 -21 -370 -27 -156 -4 -186 -11 -186 -40 0 -7
19 -28 43 -47 51 -40 320 -283 361 -327 17 -17 39 -31 50 -31 25 1 58 27 75
58 17 32 3 52 -92 126 -102 79 -144 123 -131 135 5 5 72 12 149 15 314 14 360
18 372 33 14 18 -2 63 -22 63 -7 0 -19 7 -26 17 -8 9 -64 60 -125 114 -61 54
-129 115 -150 136 -76 76 -111 95 -140 75z"/>
<path d="M1725 11234 c-26 -41 -41 -55 -53 -51 -9 3 -39 14 -65 24 -47 18 -49
18 -63 -1 -13 -18 -12 -23 9 -45 27 -29 57 -72 57 -82 0 -3 -10 -17 -21 -30
-44 -50 -52 -68 -39 -84 16 -19 40 -19 76 0 48 25 71 19 99 -25 31 -49 60 -67
81 -49 11 9 14 22 9 43 -3 17 -7 47 -8 66 l-2 35 53 6 c60 8 84 24 80 53 -3
21 -15 27 -95 46 l-43 11 6 55 c5 57 -5 84 -32 84 -7 0 -30 -25 -49 -56z"/>
<path d="M12472 11177 c1 -35 -1 -68 -5 -74 -4 -6 -31 -14 -61 -17 -57 -8 -80
-23 -74 -53 4 -20 37 -38 93 -50 l40 -8 -3 -61 c-2 -50 1 -64 18 -79 19 -18
21 -18 40 0 12 11 31 36 42 57 26 45 50 49 108 16 31 -18 43 -21 57 -12 30 18
28 59 -4 83 -67 50 -68 55 -11 117 34 37 40 49 31 62 -15 25 -46 26 -92 3 -58
-30 -68 -27 -94 27 -19 40 -27 47 -55 50 l-32 3 2 -64z"/>
<path d="M1203 10934 c-7 -3 -17 -21 -23 -39 -13 -40 -6 -59 49 -122 55 -63
135 -163 144 -180 8 -13 -7 -13 -115 -7 -190 13 -222 12 -226 -7 -3 -17 79
-125 166 -217 28 -31 52 -60 52 -65 0 -6 -32 -7 -77 -3 -78 7 -92 9 -211 22
-62 7 -65 6 -88 -22 -53 -65 -22 -102 92 -109 185 -12 345 -27 427 -41 48 -8
92 -12 97 -9 6 3 10 17 10 31 0 24 -40 74 -130 164 -41 40 -100 114 -100 125
0 11 137 -1 254 -21 77 -13 100 -14 111 -4 26 21 16 52 -28 94 -61 58 -156
165 -197 222 -19 27 -42 57 -51 66 -10 10 -30 34 -46 55 -49 65 -74 81 -110
67z"/>
<path d="M12970 10681 c-8 -5 -43 -21 -77 -36 -164 -74 -231 -248 -161 -415
44 -105 94 -152 184 -176 96 -25 162 -19 242 21 78 39 119 80 159 158 37 74
38 179 1 257 -28 61 -102 150 -124 150 -8 0 -31 8 -52 19 -42 21 -149 35 -172
22z m152 -149 c153 -101 105 -345 -72 -362 -66 -7 -106 4 -143 39 -94 87 -79
258 28 318 51 29 147 32 187 5z"/>
<path d="M830 10160 c-27 -27 -36 -68 -19 -84 16 -15 214 -96 234 -96 7 0 23
-8 35 -18 l23 -18 -39 -24 c-22 -13 -61 -33 -89 -45 -27 -12 -68 -32 -90 -46
-22 -14 -91 -47 -152 -74 -67 -28 -113 -53 -113 -62 0 -7 16 -23 35 -34 39
-24 47 -45 13 -34 -13 4 -34 8 -48 9 -22 1 -26 -4 -34 -46 -11 -57 -3 -69 89
-131 88 -59 152 -114 158 -136 4 -17 -6 -20 -97 -30 -55 -6 -135 -13 -176 -14
-72 -2 -75 -3 -78 -28 -3 -25 11 -37 166 -141 14 -9 28 -20 31 -25 3 -5 21
-19 39 -32 18 -13 31 -28 29 -35 -4 -13 -81 -25 -197 -31 -47 -2 -97 -8 -112
-14 -31 -12 -61 -62 -56 -94 3 -20 9 -22 73 -23 39 0 98 3 132 8 67 8 256 26
361 33 35 3 67 7 73 10 17 11 7 75 -12 75 -5 0 -36 21 -70 48 -34 26 -82 61
-108 78 -53 36 -76 60 -63 68 15 9 180 26 254 26 65 0 98 14 98 41 0 13 -50
57 -135 121 -16 12 -34 27 -40 34 -5 6 -59 48 -118 94 -105 81 -126 110 -85
118 14 3 125 -35 362 -123 62 -23 71 -24 91 -11 29 19 42 71 23 93 -15 19 -52
35 -173 77 -49 17 -99 37 -110 44 -20 12 -20 12 0 24 11 7 73 36 139 65 288
130 326 150 326 176 0 21 -11 28 -87 56 -49 18 -124 46 -168 63 -44 16 -101
41 -128 54 -26 13 -53 24 -61 24 -7 0 -27 7 -42 15 -39 20 -60 19 -84 -5z"/>
<path d="M13426 10121 c-3 -5 -32 -19 -63 -31 -32 -13 -76 -31 -98 -40 -22
-10 -62 -25 -90 -35 -27 -9 -54 -20 -60 -24 -5 -5 -23 -11 -40 -15 -29 -7 -98
-35 -145 -59 -32 -16 -36 -45 -13 -93 28 -61 27 -61 241 38 46 21 88 38 94 38
24 0 -35 -165 -130 -359 -62 -127 -64 -135 -47 -147 24 -18 36 -18 63 1 12 9
68 33 124 55 57 21 126 48 153 60 28 12 84 33 125 47 41 13 84 33 94 43 17 17
18 22 6 52 -25 63 -43 71 -97 44 -51 -27 -143 -66 -153 -66 -5 0 -25 -8 -45
-17 -45 -21 -58 -10 -40 37 31 84 129 321 157 382 17 36 28 73 25 82 -7 17
-52 22 -61 7z"/>
<path d="M13402 9445 c-110 -41 -157 -90 -202 -212 -26 -71 -24 -119 9 -205
64 -166 206 -240 376 -195 70 18 124 56 173 120 39 50 43 62 52 136 16 146
-25 251 -123 315 -93 61 -190 75 -285 41z m188 -127 c62 -43 93 -92 98 -156 9
-127 -66 -215 -183 -213 -62 0 -86 10 -133 54 -64 61 -74 184 -21 258 55 77
169 104 239 57z"/>
<path d="M571 8440 c-9 -5 -13 -26 -13 -56 2 -74 -16 -94 -84 -94 -41 0 -56
-4 -61 -16 -10 -26 10 -47 57 -58 60 -15 68 -32 46 -101 -14 -44 -15 -59 -5
-71 21 -25 47 -15 81 30 18 25 39 47 46 50 8 3 33 -8 57 -24 55 -38 82 -39 91
-4 5 19 -1 36 -25 69 -17 24 -31 50 -31 59 0 9 18 27 39 40 47 30 54 40 46 65
-9 30 -33 33 -91 12 -62 -24 -72 -19 -94 48 -15 45 -38 65 -59 51z"/>
<path d="M13719 8423 c-5 -16 -18 -45 -27 -66 -16 -38 -17 -39 -57 -31 -77 14
-100 11 -103 -13 -2 -16 7 -28 38 -48 22 -14 44 -33 47 -41 3 -8 -6 -32 -20
-53 -38 -57 -43 -87 -19 -100 15 -8 29 -4 66 19 26 17 52 30 59 30 7 0 26 -18
43 -40 16 -22 37 -42 48 -46 34 -11 40 10 21 81 -12 42 -15 69 -9 75 6 6 35
18 64 28 93 29 75 82 -27 82 -29 0 -54 3 -54 8 -1 4 -3 32 -4 63 -1 30 -5 60
-9 67 -13 22 -46 13 -57 -15z"/>
<path d="M207 7562 c-10 -11 -17 -35 -17 -60 0 -48 10 -56 130 -92 41 -13 104
-36 139 -52 54 -24 61 -30 51 -43 -7 -8 -17 -15 -22 -15 -10 0 -117 -45 -194
-81 -22 -10 -47 -19 -55 -19 -15 0 -59 -40 -59 -53 0 -4 8 -7 18 -7 10 0 23
-5 28 -10 6 -6 49 -24 97 -40 47 -16 94 -33 104 -38 10 -6 30 -15 46 -21 43
-17 33 -38 -35 -69 -67 -30 -158 -66 -196 -77 -46 -13 -68 -105 -30 -129 20
-12 92 8 201 58 40 18 92 41 117 51 25 10 81 35 125 56 44 20 90 40 101 43 33
10 53 38 44 62 -6 14 -24 25 -57 33 -63 17 -245 82 -258 93 -15 14 5 25 125
74 181 72 188 76 195 92 10 28 -36 62 -105 77 -19 4 -62 20 -96 36 -34 16 -68
29 -77 29 -9 0 -18 4 -21 9 -3 5 -18 12 -33 15 -16 4 -46 16 -68 26 -34 16
-173 70 -180 70 -1 0 -9 -8 -18 -18z"/>
<path d="M13666 7540 c-57 -22 -113 -74 -159 -145 -29 -45 -32 -56 -32 -130 1
-108 24 -178 81 -243 102 -117 231 -139 381 -66 57 28 117 99 146 170 24 63
24 188 0 244 -27 60 -137 165 -189 179 -62 17 -172 13 -228 -9z m209 -128 c39
-21 57 -39 79 -81 28 -52 28 -57 18 -114 -26 -140 -152 -209 -269 -149 -60 31
-92 84 -97 158 -4 79 19 134 73 170 75 49 128 54 196 16z"/>
<path d="M494 6455 c-6 -15 1 -71 13 -101 3 -8 -1 -14 -10 -14 -8 0 -17 -9
-20 -19 -3 -11 -21 -26 -40 -35 -83 -34 -61 -86 36 -86 63 0 62 3 57 -91 -3
-78 58 -76 86 2 26 70 34 75 95 56 90 -29 124 19 49 69 -54 36 -58 56 -21 101
38 46 40 79 7 95 -21 9 -31 6 -67 -21 -49 -35 -75 -39 -84 -12 -16 53 -88 92
-101 56z"/>
<path d="M13712 6385 c-18 -25 -39 -48 -47 -51 -8 -3 -34 9 -59 26 -24 18 -52
30 -62 28 -31 -6 -29 -49 6 -92 16 -21 30 -42 30 -47 0 -5 -20 -23 -44 -41
-49 -36 -58 -50 -50 -73 10 -24 43 -27 95 -9 50 18 51 18 65 -1 8 -11 19 -36
24 -57 11 -38 43 -59 62 -40 6 6 12 37 15 69 5 64 12 73 61 73 43 0 72 16 72
39 0 25 -17 37 -63 45 -21 4 -40 13 -43 20 -3 8 1 38 8 67 17 67 13 89 -16 89
-15 0 -32 -15 -54 -45z"/>
<path d="M880 5683 c-19 -15 -44 -36 -55 -46 -11 -11 -36 -31 -55 -45 -19 -14
-47 -37 -61 -52 -124 -122 -182 -169 -230 -186 -22 -8 -45 -52 -33 -63 5 -5
56 -12 114 -15 185 -11 240 -20 240 -39 0 -16 -40 -55 -102 -99 -183 -129
-175 -121 -160 -145 12 -19 41 -23 282 -38 47 -3 126 -10 177 -15 150 -16 172
-14 185 15 9 21 8 32 -5 60 -19 40 -24 41 -217 50 -74 4 -139 10 -143 15 -10
9 -11 9 123 110 145 111 151 116 144 134 -8 22 -22 24 -179 31 -228 10 -228 3
-20 168 86 68 106 93 99 124 -8 35 -32 63 -53 63 -9 0 -32 -12 -51 -27z"/>
<path d="M13433 5631 c-113 -19 -232 -175 -233 -307 0 -132 90 -267 201 -298
101 -28 157 -28 233 1 131 49 190 141 190 293 1 162 -82 268 -239 305 -70 16
-85 17 -152 6z m176 -136 c14 -7 41 -29 60 -48 29 -31 34 -44 38 -100 7 -77
-17 -137 -73 -186 -87 -77 -221 -55 -280 44 -23 40 -26 54 -22 113 6 95 38
140 138 189 29 15 101 8 139 -12z"/>
<path d="M13066 5008 c-8 -18 -26 -59 -40 -91 -14 -32 -26 -62 -26 -66 0 -5
-6 -22 -14 -38 -48 -94 -67 -146 -62 -167 7 -27 55 -51 84 -42 19 6 56 79 82
158 6 21 16 40 21 44 14 8 41 -18 91 -88 116 -162 187 -255 204 -270 40 -35
58 -15 109 115 26 67 61 153 78 190 34 76 31 94 -17 112 -41 14 -57 -2 -96
-97 -19 -46 -42 -95 -51 -108 l-15 -23 -17 24 c-10 13 -41 56 -70 96 -28 40
-70 98 -92 129 -116 163 -143 183 -169 122z"/>
<path d="M1152 4894 c-31 -14 -31 -41 -1 -124 16 -46 26 -87 22 -91 -9 -9
-230 13 -368 37 -132 23 -161 19 -152 -20 3 -11 22 -59 42 -106 20 -47 50
-119 67 -160 37 -93 52 -112 87 -103 32 7 61 31 61 50 0 8 -16 44 -35 82 -19
37 -35 80 -35 95 l0 28 58 -7 c31 -3 107 -15 167 -25 61 -10 146 -21 191 -25
107 -8 116 1 80 82 -14 32 -45 110 -70 173 -41 108 -46 115 -73 117 -15 1 -34
-1 -41 -3z"/>
<path d="M1280 4425 c-30 -36 -57 -65 -62 -65 -4 0 -20 -19 -34 -42 -26 -40
-145 -186 -207 -253 -56 -60 -18 -91 88 -69 33 7 102 16 153 19 76 6 92 5 92
-7 0 -15 -35 -57 -147 -175 -40 -42 -73 -81 -73 -88 0 -7 9 -20 19 -29 16 -15
25 -16 58 -7 43 12 406 51 471 51 53 0 112 24 112 45 0 21 -25 68 -44 84 -12
10 -26 11 -63 2 -27 -6 -77 -13 -113 -15 -36 -3 -88 -8 -116 -12 -28 -3 -54
-3 -57 2 -3 5 22 38 55 74 33 36 71 81 86 100 15 19 37 45 49 57 25 24 31 71
9 79 -7 3 -68 -4 -135 -15 -133 -23 -197 -26 -206 -12 -6 11 29 54 132 162 53
56 73 84 73 103 0 31 -40 76 -68 76 -10 0 -41 -28 -72 -65z"/>
<path d="M12875 4466 c-130 -63 -202 -200 -175 -333 23 -108 73 -176 166 -222
107 -54 208 -52 314 7 73 39 110 91 131 180 24 99 24 113 -3 196 -18 55 -31
76 -69 110 -95 85 -258 113 -364 62z m210 -106 c80 -38 119 -95 118 -171 -1
-47 -33 -124 -62 -147 -61 -48 -145 -65 -207 -41 -16 5 -45 27 -65 48 -86 88
-52 248 65 306 60 30 97 31 151 5z"/>
<path d="M12466 3601 c-3 -5 -2 -29 3 -54 11 -59 0 -77 -48 -77 -39 0 -71 -23
-71 -52 0 -14 35 -29 103 -43 28 -6 28 -7 25 -66 -2 -43 1 -62 11 -69 22 -13
39 -1 67 46 14 24 32 44 40 44 7 0 35 -9 62 -19 33 -13 53 -16 65 -10 25 15
21 27 -23 75 -22 24 -40 49 -40 55 0 6 16 29 35 52 37 43 45 81 20 91 -9 3
-40 -6 -70 -19 -29 -14 -56 -25 -59 -25 -2 0 -15 18 -27 40 -19 34 -28 40 -55
40 -18 0 -35 -4 -38 -9z"/>
<path d="M1784 3532 c-12 -10 -29 -35 -39 -56 -10 -21 -24 -40 -31 -43 -8 -3
-33 4 -57 16 -52 25 -70 26 -87 6 -11 -13 -9 -22 6 -51 10 -20 27 -40 37 -45
25 -14 21 -37 -13 -66 -80 -67 -52 -118 43 -78 61 25 73 21 102 -40 17 -37 31
-55 44 -55 31 0 41 24 39 90 l-3 64 59 12 c59 12 78 26 73 54 -2 16 -28 26
-90 35 l-39 6 7 70 c5 49 4 74 -5 84 -16 19 -20 18 -46 -3z"/>
<path d="M11985 3101 c-86 -18 -176 -93 -212 -179 -68 -158 6 -345 165 -419
48 -23 64 -25 140 -21 85 4 94 7 177 56 39 24 91 101 110 165 32 109 13 213
-56 291 -31 36 -119 103 -119 91 0 -3 -13 1 -30 10 -29 15 -116 18 -175 6z
m173 -132 c127 -62 130 -233 6 -328 -95 -72 -229 -39 -275 69 -26 59 -28 91
-7 139 23 55 41 76 89 106 61 39 124 44 187 14z"/>
<path d="M2232 3070 c-43 -18 -41 -64 5 -115 76 -83 103 -116 103 -129 0 -10
-17 -16 -57 -21 -32 -3 -80 -10 -108 -15 -27 -5 -70 -12 -95 -15 -25 -2 -70
-7 -100 -10 -156 -17 -166 -39 -65 -144 70 -72 160 -173 197 -219 10 -12 28
-22 41 -22 25 0 67 37 67 59 0 7 -34 49 -75 94 -41 44 -75 88 -75 98 0 14 14
19 68 28 111 17 122 19 263 44 75 13 141 27 148 31 20 13 12 41 -20 72 -17 16
-68 74 -112 128 -125 152 -131 157 -185 136z"/>
<path d="M2600 2710 c-11 -11 -20 -26 -20 -34 0 -7 -11 -34 -25 -60 -14 -26
-25 -57 -25 -69 0 -18 -19 -77 -59 -182 -4 -11 -21 -59 -36 -108 -15 -48 -34
-92 -41 -98 -19 -16 -17 -37 5 -48 18 -10 94 24 268 120 46 25 83 37 83 26 0
-7 -38 -111 -79 -217 -22 -58 -41 -113 -41 -123 0 -25 24 -31 57 -14 15 8 55
28 88 43 178 86 416 211 434 229 21 20 2 57 -40 77 -37 18 -51 14 -137 -39
-29 -18 -54 -33 -57 -33 -2 0 -27 -13 -55 -30 -91 -54 -110 -36 -67 62 13 30
32 78 42 108 10 30 24 64 31 75 21 30 18 72 -6 80 -18 6 -182 -70 -250 -116
-14 -9 -36 -19 -50 -20 -35 -5 -31 14 30 167 64 160 64 190 0 213 -26 9 -34 7
-50 -9z"/>
<path d="M11540 2683 c-26 -34 -105 -115 -199 -206 -81 -78 -88 -101 -40 -141
36 -30 45 -27 104 34 21 23 56 55 77 72 l38 30 9 -24 c13 -35 27 -88 56 -213
62 -264 65 -273 103 -261 12 4 24 16 28 28 3 11 64 79 135 151 141 142 150
160 100 196 -16 12 -33 21 -37 21 -5 0 -48 -39 -96 -87 -57 -56 -91 -84 -97
-78 -6 6 -21 64 -35 130 -77 369 -79 374 -113 375 -6 0 -21 -12 -33 -27z"/>
<path d="M8246 2485 c-3 -8 2 -19 11 -24 14 -8 15 -12 4 -25 -18 -21 -6 -20
19 1 26 23 25 37 -4 51 -19 8 -25 8 -30 -3z"/>
<path d="M10957 2032 c-8 -9 -18 -36 -22 -60 -11 -68 -31 -80 -107 -63 -28 7
-40 5 -49 -5 -14 -17 6 -43 58 -75 38 -24 41 -44 13 -99 -21 -41 -19 -65 6
-74 19 -7 42 5 73 38 14 14 31 26 38 26 7 0 33 -18 58 -41 26 -24 52 -39 62
-37 26 5 28 49 4 97 -30 58 -27 70 23 91 56 26 73 45 56 65 -9 11 -30 15 -72
14 -63 -2 -78 7 -78 47 0 32 -20 82 -35 88 -7 2 -20 -3 -28 -12z"/>
<path d="M3317 1962 c-9 -9 -18 -30 -22 -47 -15 -67 -11 -64 -88 -67 -93 -4
-101 -23 -28 -69 58 -35 62 -49 30 -110 -43 -84 1 -118 71 -55 22 20 44 36 49
36 5 0 28 -16 52 -35 44 -38 65 -41 83 -13 8 13 5 28 -11 62 -29 59 -21 82 38
112 39 19 49 30 49 49 0 23 -3 24 -77 27 l-77 3 -14 57 c-15 61 -31 76 -55 50z"/>
<path d="M3874 1712 c-12 -9 -27 -27 -34 -40 -16 -31 -1 -47 100 -106 84 -49
92 -56 82 -73 -4 -6 -100 -57 -214 -113 -193 -95 -208 -104 -208 -129 0 -34
62 -83 180 -142 46 -23 105 -55 131 -71 54 -34 80 -29 97 21 13 36 -3 63 -56
91 -45 25 -114 74 -116 83 0 3 19 17 44 30 25 13 99 52 165 87 267 140 268
142 89 240 -43 23 -85 49 -92 57 -8 7 -28 21 -45 30 -18 9 -43 24 -56 34 -29
23 -40 23 -67 1z"/>
<path d="M10189 1639 c-61 -9 -122 -42 -180 -96 -61 -57 -84 -115 -83 -208 1
-105 26 -166 93 -233 72 -73 139 -98 234 -88 105 10 152 32 218 97 49 50 61
70 79 128 24 82 25 107 5 174 -49 163 -195 253 -366 226z m161 -139 c74 -38
111 -127 89 -213 -12 -46 -95 -131 -142 -145 -58 -18 -126 -21 -138 -6 -6 8
-16 14 -20 14 -23 0 -79 66 -94 109 -57 174 136 327 305 241z"/>
<path d="M4296 1436 c-9 -19 -16 -38 -16 -43 0 -14 31 -39 58 -48 35 -10 132
-68 132 -78 0 -12 -34 -38 -128 -100 -43 -27 -102 -69 -132 -92 -30 -23 -71
-50 -90 -60 -73 -37 -67 -53 33 -99 45 -21 135 -65 199 -97 65 -32 124 -56
132 -53 20 8 39 59 32 87 -3 13 -16 28 -28 34 -13 6 -58 27 -100 47 -43 19
-78 39 -78 45 0 5 39 33 88 62 48 29 105 67 127 84 22 18 58 44 80 58 22 14
56 38 75 55 34 29 34 30 17 55 -9 14 -31 30 -50 36 -18 6 -91 40 -162 76 -71
36 -139 65 -151 65 -15 0 -27 -11 -38 -34z"/>
<path d="M1310 1438 c0 -9 5 -20 11 -23 17 -11 20 0 4 21 -13 17 -14 17 -15 2z"/>
<path d="M9760 1424 c-30 -15 -80 -39 -110 -54 -30 -16 -86 -40 -124 -54 -83
-31 -96 -41 -96 -71 0 -27 36 -75 57 -75 8 0 48 16 89 35 40 19 83 35 95 35
20 0 21 -4 16 -57 -3 -32 -17 -140 -32 -241 -35 -235 -29 -245 104 -177 37 19
72 35 77 35 24 2 219 107 222 121 1 9 -2 28 -7 42 -15 40 -55 35 -165 -18 -52
-25 -99 -45 -105 -45 -15 0 -14 34 3 121 41 204 67 401 55 415 -15 18 -15 18
-79 -12z"/>
<path d="M4759 1273 c-24 -6 -26 -23 -18 -153 4 -63 11 -197 15 -298 10 -248
6 -246 155 -77 25 28 62 72 83 98 21 27 42 45 47 40 5 -5 11 -84 14 -177 3
-93 8 -173 11 -178 13 -20 44 -4 78 40 20 26 75 85 120 132 46 47 101 108 121
135 21 28 62 73 92 101 57 55 61 78 16 95 -56 21 -88 12 -133 -38 -110 -124
-141 -160 -159 -183 -36 -46 -43 -17 -45 172 l-1 173 -24 3 c-18 3 -34 -8 -67
-45 -24 -26 -43 -52 -44 -57 0 -13 -100 -126 -123 -137 -25 -14 -38 3 -36 46
1 17 1 82 0 146 -1 96 -4 120 -18 137 -19 21 -56 32 -84 25z"/>
<path d="M9295 1219 c-33 -12 -68 -23 -79 -25 -29 -5 -219 -65 -236 -73 -22
-12 -25 -69 -4 -92 22 -24 53 -24 132 1 35 11 75 20 89 20 22 0 24 -3 18 -32
-3 -18 -10 -44 -15 -58 -5 -14 -18 -63 -30 -110 -11 -47 -27 -107 -34 -135 -8
-27 -20 -69 -27 -92 -14 -48 -2 -73 35 -73 30 0 128 27 135 38 7 10 201 72
225 72 20 0 39 35 31 59 -3 10 -14 26 -25 36 -18 16 -22 16 -72 -1 -29 -10
-58 -24 -64 -30 -6 -7 -34 -16 -62 -20 -50 -6 -52 -6 -52 17 0 28 41 168 80
269 38 100 59 228 39 241 -18 11 -14 12 -84 -12z"/>
<path d="M7217 870 c-203 -5 -207 -6 -207 -62 0 -44 32 -58 133 -58 103 0 114
-10 74 -68 -26 -37 -34 -52 -122 -217 -27 -49 -59 -103 -72 -118 -13 -16 -23
-39 -23 -52 0 -45 16 -48 226 -43 107 3 199 9 204 14 5 5 11 25 15 45 9 48
-23 82 -69 74 -46 -9 -173 -11 -181 -3 -9 8 124 251 217 397 32 51 35 77 11
88 -10 4 -103 6 -206 3z"/>
<path d="M8269 820 c-17 -27 -35 -50 -41 -50 -6 0 -31 16 -55 36 -45 37 -69
40 -86 13 -8 -13 -3 -28 21 -66 18 -27 32 -57 32 -66 0 -10 -18 -30 -39 -45
-41 -28 -54 -51 -41 -72 5 -8 26 -10 72 -5 72 8 72 8 98 -60 16 -41 43 -56 63
-36 7 7 14 38 17 69 l5 57 65 10 c60 9 65 12 65 35 0 20 -10 30 -52 49 -29 14
-55 31 -57 38 -3 7 2 31 10 53 21 53 12 90 -21 90 -19 0 -32 -12 -56 -50z"/>
<path d="M6005 820 c-3 -10 1 -40 9 -65 21 -61 20 -73 -6 -80 -57 -15 -98 -39
-98 -55 0 -26 19 -37 79 -43 29 -4 55 -8 57 -9 2 -2 6 -28 9 -58 7 -63 20 -82
49 -78 14 2 22 12 24 28 8 71 46 105 90 81 12 -6 37 -11 56 -11 32 0 36 3 36
25 0 25 -7 33 -64 78 -33 27 -31 48 10 97 29 33 29 73 1 78 -10 2 -40 -11 -67
-28 -28 -18 -56 -30 -64 -27 -8 3 -24 24 -37 46 -18 32 -28 41 -50 41 -19 0
-30 -6 -34 -20z"/>
</g>
</svg>
