<?xml version="1.0" standalone="no"?>
<!DOCTYPE svg PUBLIC "-//W3C//DTD SVG 20010904//EN"
 "http://www.w3.org/TR/2001/REC-SVG-20010904/DTD/svg10.dtd">
<svg version="1.0" xmlns="http://www.w3.org/2000/svg"
 width="468pt" height="411pt" viewBox="0 0 468 411"
 preserveAspectRatio="xMidYMid meet">
<metadata>
Created by potrace 1.8, written by Peter Selinger 2001-2007
</metadata>
<g transform="translate(0,411) scale(0.060465,-0.060465)"
fill="#000000" stroke="none">
<path d="M4745 6684 c-93 -25 -201 -67 -238 -93 -25 -17 -49 -31 -52 -31 -4 0
-28 -22 -55 -49 -34 -34 -52 -46 -61 -40 -24 15 -93 10 -124 -9 -16 -10 -41
-21 -54 -25 -23 -6 -23 -5 -16 51 9 82 12 89 50 112 39 24 63 17 91 -25 17
-25 54 -35 54 -13 0 6 -19 29 -41 50 -37 35 -45 39 -77 33 -61 -11 -90 -41
-102 -104 -16 -82 -19 -86 -81 -86 -43 0 -54 -3 -57 -17 -3 -16 5 -18 62 -18
36 0 66 -2 66 -5 0 -3 -27 -32 -59 -64 -58 -58 -60 -59 -98 -51 -37 8 -238 23
-318 23 -67 0 -99 -24 -123 -91 -12 -32 -25 -92 -28 -133 -3 -41 -12 -83 -19
-94 -21 -30 -97 -108 -123 -125 -22 -14 -23 -17 -11 -62 7 -26 9 -51 5 -55
-12 -12 -273 -10 -286 3 -6 6 -13 27 -17 48 -13 78 61 102 128 41 39 -35 54
-40 83 -29 25 10 19 24 -10 24 -16 0 -45 15 -70 35 -46 38 -70 43 -112 21 -33
-17 -67 -77 -59 -106 3 -13 -1 -23 -11 -29 -19 -9 -161 -31 -207 -32 -373 -3
-388 -4 -398 -21 -9 -13 -6 -27 11 -61 12 -24 22 -53 22 -63 0 -38 26 -102 47
-120 18 -15 25 -39 37 -121 9 -56 18 -130 21 -165 3 -35 15 -124 25 -198 17
-117 41 -291 56 -410 9 -70 43 -317 53 -380 14 -94 46 -260 70 -370 24 -103
24 -149 1 -161 -49 -26 -169 -79 -180 -79 -8 0 -21 -6 -29 -13 -17 -15 -87
-41 -166 -62 -27 -7 -63 -20 -80 -29 -16 -9 -36 -16 -44 -16 -8 0 -60 -17
-115 -39 -99 -38 -248 -89 -336 -115 -25 -8 -83 -30 -130 -49 -47 -19 -121
-45 -165 -57 -44 -12 -114 -32 -155 -46 -115 -36 -297 -93 -370 -116 -36 -11
-119 -30 -185 -43 -66 -13 -158 -33 -205 -44 -175 -40 -183 -44 -193 -82 -5
-18 -3 -18 11 -7 9 7 19 15 22 18 23 23 49 30 265 76 248 52 439 103 595 159
41 14 107 35 145 45 93 25 305 96 385 129 25 10 63 23 85 29 22 5 72 22 110
37 39 15 79 29 90 32 11 2 29 9 40 14 28 12 147 55 234 84 40 14 89 25 107 25
19 0 72 19 125 45 51 25 97 45 103 45 7 0 17 5 23 11 14 14 106 49 147 57 20
3 27 1 22 -7 -4 -7 0 -11 11 -11 22 0 35 9 49 35 6 12 39 29 85 45 41 14 79
28 84 32 6 3 28 9 50 13 22 4 45 11 50 15 6 4 54 24 109 44 54 20 111 43 127
51 45 24 121 20 147 -7 11 -13 43 -34 69 -48 107 -56 340 -255 373 -320 10
-19 28 -44 40 -55 26 -23 140 -193 140 -208 0 -6 11 -22 24 -36 13 -15 36 -48
51 -76 15 -27 33 -57 40 -65 29 -36 86 -159 105 -230 7 -25 17 -51 22 -57 6
-8 8 -35 3 -68 -6 -53 -6 -55 17 -55 31 0 67 -26 78 -56 12 -31 30 -30 54 2
38 52 -2 133 -65 134 -22 0 -28 6 -33 32 -3 17 -3 35 1 39 5 4 42 11 83 14 91
7 134 13 180 25 22 6 50 5 75 -2 22 -6 65 -11 95 -12 61 -1 76 -19 41 -50 -16
-14 -23 -15 -41 -6 -18 10 -25 7 -49 -19 -16 -17 -33 -31 -38 -31 -4 0 -15 -4
-22 -9 -12 -8 -11 -13 8 -28 21 -17 33 -74 18 -89 -3 -4 -26 -1 -51 5 -65 16
-156 15 -156 -3 0 -17 22 -26 65 -26 19 0 36 -4 39 -9 7 -10 -68 -56 -107 -66
-14 -4 -31 -13 -37 -20 -6 -8 -24 -17 -40 -20 -16 -4 -32 -15 -35 -26 -4 -13
-15 -19 -36 -19 -33 0 -39 15 -9 23 26 7 26 27 -1 27 -31 0 -108 -58 -109 -82
0 -4 10 -10 23 -14 12 -3 35 -22 51 -41 27 -33 31 -34 74 -28 41 6 44 5 37
-12 -14 -31 -9 -76 11 -90 27 -19 35 -16 24 11 -12 32 7 48 49 40 35 -7 61 8
61 36 0 21 -19 30 -65 30 -18 0 -38 6 -44 14 -9 11 -20 12 -47 4 -20 -5 -43
-7 -51 -3 -14 5 -13 9 6 28 11 13 21 30 21 38 0 14 40 37 183 102 42 20 77 41
77 47 0 15 73 12 96 -5 10 -8 26 -15 35 -15 42 -1 336 -100 376 -127 19 -13
39 -23 45 -23 5 0 27 -13 48 -30 21 -16 42 -30 46 -30 5 0 22 -11 38 -23 l29
-24 -23 -84 c-31 -114 -110 -352 -120 -362 -11 -13 -50 2 -50 18 0 17 -31 35
-59 35 -22 0 -41 42 -22 48 22 7 56 40 49 48 -4 4 -27 0 -50 -9 l-42 -17 -23
27 c-22 28 -22 28 -3 42 21 14 27 41 9 41 -6 0 -38 -17 -72 -37 -63 -37 -103
-45 -160 -30 -45 12 -32 41 22 47 51 6 73 29 52 54 -15 18 -73 21 -103 5 -24
-13 -35 -5 -19 15 10 11 7 19 -13 39 -16 16 -21 28 -15 38 24 39 -2 38 -65 -1
-26 -17 -46 -36 -43 -43 4 -11 9 -13 49 -16 14 -1 16 -7 12 -31 -6 -25 -3 -30
13 -30 10 0 24 5 31 12 9 9 12 4 12 -26 0 -54 15 -74 65 -87 24 -6 59 -22 76
-35 18 -13 43 -24 56 -24 15 0 27 -8 32 -24 11 -26 30 -36 72 -36 19 0 29 -5
29 -15 0 -8 11 -22 26 -31 44 -29 39 -31 -238 -61 -40 -4 -46 -2 -45 14 2 13
-7 19 -33 23 -30 4 -34 9 -35 35 0 23 -6 32 -27 39 -45 16 -82 -3 -86 -42 -4
-40 -34 -62 -84 -62 -27 0 -38 -4 -38 -15 0 -20 61 -19 115 1 73 28 75 28 75
5 0 -23 31 -42 38 -23 2 7 11 12 19 12 14 0 14 -2 -1 -19 -15 -16 -16 -28 -9
-78 10 -66 6 -96 -10 -90 -7 2 -24 0 -40 -4 -23 -6 -32 -3 -55 22 -23 25 -32
28 -61 23 -18 -4 -35 -13 -38 -20 -6 -17 23 -64 40 -64 7 0 30 -18 52 -40 21
-21 42 -37 47 -34 4 3 24 -3 44 -12 37 -18 38 -25 14 -88 -11 -31 -78 -106
-94 -106 -19 0 -236 -94 -300 -130 -67 -38 -271 -134 -330 -156 -21 -8 -53
-22 -70 -33 -17 -10 -60 -26 -95 -36 -36 -9 -114 -39 -175 -67 -123 -55 -113
-51 -246 -103 -52 -21 -113 -48 -135 -61 -22 -12 -62 -30 -90 -39 -27 -10 -84
-34 -125 -54 -88 -44 -156 -72 -263 -108 l-77 -27 -38 36 c-20 20 -53 44 -72
53 -19 10 -37 22 -40 26 -9 14 -164 181 -179 193 -7 6 -41 37 -75 68 -67 62
-167 141 -234 185 -24 15 -89 63 -144 106 -56 42 -105 77 -110 77 -4 0 -29 16
-55 36 -25 19 -69 47 -97 61 -28 14 -58 31 -66 38 -8 7 -49 30 -90 52 -41 22
-90 48 -108 59 -33 19 -33 19 -48 0 -10 -14 -17 -17 -25 -9 -24 24 66 113 114
113 40 0 61 114 32 170 -15 30 -15 30 13 30 36 0 66 -48 64 -103 -1 -27 2 -37
11 -35 18 7 20 81 3 122 -14 32 -14 38 -1 43 21 7 83 -42 91 -73 4 -14 1 -31
-6 -39 -15 -18 -7 -30 15 -22 21 8 20 95 -1 125 -14 20 -14 23 2 29 10 4 20 0
25 -9 5 -9 20 -19 33 -22 28 -7 36 -30 24 -65 -10 -28 -5 -36 17 -28 23 9 20
88 -5 120 -18 22 -18 26 -4 38 11 9 20 10 32 3 20 -12 49 -67 57 -108 9 -44
14 -27 6 24 -3 25 -5 56 -3 69 3 21 7 23 40 18 45 -8 65 -28 65 -67 0 -16 4
-30 8 -30 16 0 22 54 10 84 -23 57 -23 62 4 76 24 13 31 12 63 -7 43 -25 60
-68 36 -94 -20 -22 -1 -35 20 -13 26 25 25 87 0 116 -15 16 -15 18 9 29 51 23
107 -19 107 -81 0 -12 5 -18 10 -15 23 14 6 107 -24 127 -24 17 -85 8 -100
-13 -13 -19 -21 -21 -61 -15 -43 7 -47 6 -76 -28 -28 -30 -34 -33 -55 -24 -17
8 -35 8 -61 1 -21 -6 -51 -11 -66 -11 -16 0 -36 -7 -46 -16 -10 -9 -29 -16
-42 -16 -14 0 -34 -7 -45 -15 -10 -8 -32 -15 -47 -15 -15 0 -44 -7 -64 -15
-19 -8 -44 -15 -55 -15 -11 0 -48 -13 -82 -29 -33 -16 -77 -31 -96 -34 -19 -4
-66 -11 -104 -18 l-69 -12 -96 103 c-53 57 -133 141 -178 188 -46 47 -83 88
-83 92 0 4 -27 42 -60 85 -33 43 -60 82 -60 87 0 5 -22 43 -50 84 -27 41 -50
77 -50 80 0 19 -106 136 -217 241 -120 113 -130 126 -139 170 l-9 48 -43 -76
c-23 -42 -42 -81 -42 -87 0 -10 181 -193 217 -217 12 -8 50 -45 85 -82 34 -37
92 -96 128 -131 50 -48 59 -62 40 -56 -14 4 -43 25 -65 46 -22 22 -73 62 -112
89 -40 27 -88 64 -106 82 -18 17 -48 44 -67 58 -19 15 -60 50 -90 78 -30 27
-61 50 -67 51 -26 0 -12 -29 28 -62 23 -18 69 -58 102 -88 32 -30 93 -78 134
-106 65 -46 166 -144 148 -144 -4 0 -39 24 -78 54 -40 30 -110 77 -156 105
-47 28 -92 57 -100 65 -19 16 -124 76 -134 76 -4 0 -7 -8 -7 -17 1 -17 42 -44
235 -154 34 -20 88 -56 118 -80 31 -24 72 -55 92 -69 20 -14 57 -42 82 -63 24
-20 70 -55 101 -76 31 -21 66 -49 77 -61 11 -12 40 -36 64 -53 25 -17 40 -32
35 -34 -11 -4 -64 25 -159 87 -33 22 -80 49 -105 61 -25 12 -83 52 -130 88
-103 81 -203 151 -214 151 -5 0 -23 10 -40 23 -39 30 -175 107 -187 107 -14 0
-11 -16 8 -31 17 -15 87 -54 163 -91 25 -12 47 -25 50 -29 3 -4 41 -31 85 -60
44 -29 82 -56 85 -60 15 -21 310 -219 327 -219 2 0 37 -24 76 -53 40 -30 99
-71 132 -93 33 -21 80 -57 103 -79 40 -37 43 -43 38 -77 -4 -22 -2 -38 3 -38
6 0 13 -15 16 -32 9 -46 41 -81 104 -113 41 -20 63 -26 90 -21 29 4 40 1 56
-17 11 -12 56 -53 100 -91 44 -38 108 -95 142 -126 33 -32 92 -82 129 -112 38
-29 82 -66 99 -83 139 -134 235 -223 256 -236 13 -9 54 -45 90 -81 37 -35 84
-77 105 -93 22 -16 67 -57 102 -90 35 -33 68 -61 73 -63 5 -2 9 -9 9 -15 0 -6
10 -35 22 -64 20 -50 24 -53 57 -53 63 0 82 -9 75 -36 -3 -13 -2 -24 4 -24 5
0 43 18 85 39 42 22 100 44 128 50 49 11 231 83 291 116 14 8 31 15 36 15 5 0
61 24 123 54 63 29 134 61 159 69 25 9 74 27 109 41 36 14 73 26 84 26 19 0
86 32 117 56 8 6 41 21 72 32 63 24 146 65 194 97 17 12 74 36 125 54 104 36
156 57 179 71 8 5 49 26 90 47 41 20 95 49 120 64 111 67 122 54 119 -144 -1
-78 1 -165 5 -193 4 -28 10 -112 14 -187 5 -75 11 -139 14 -143 11 -10 335 -6
463 6 66 7 143 14 171 17 38 3 53 1 63 -11 15 -18 72 -21 117 -7 116 38 462
55 553 27 75 -22 108 -20 134 7 44 45 120 65 282 72 33 2 78 8 101 14 23 6 69
13 103 16 57 4 122 20 146 36 6 3 31 9 56 13 25 4 62 16 82 26 20 11 43 20 51
20 34 0 124 36 151 61 46 41 89 60 124 53 72 -15 145 37 184 131 39 90 31 109
-69 163 -77 41 -207 138 -230 171 -7 9 -33 27 -59 40 -85 42 -152 13 -196 -85
-32 -70 -38 -73 -175 -103 -79 -18 -156 -27 -394 -47 -30 -2 -68 -8 -85 -13
-16 -5 -50 -13 -75 -16 -42 -7 -102 -24 -160 -47 -14 -6 -53 -12 -87 -13 -74
-4 -71 -9 -83 137 -7 89 -14 117 -40 170 -17 35 -38 70 -46 79 -8 8 -14 18
-14 22 0 3 -22 36 -50 73 -27 37 -50 70 -50 75 0 11 186 115 240 134 25 8 63
24 85 34 22 10 51 22 65 26 14 4 30 12 37 17 14 12 10 81 -6 86 -24 8 -12 60
21 85 l31 25 -59 62 c-58 61 -193 160 -219 160 -7 0 -19 7 -26 16 -7 9 -22 20
-34 25 -11 6 -42 23 -70 40 -27 16 -62 34 -77 40 -32 12 -36 24 -12 33 9 3 84
13 168 21 83 9 189 20 236 25 109 13 388 41 465 46 118 9 198 23 213 38 14 13
9 14 -44 10 -32 -3 -97 -12 -144 -20 -47 -8 -168 -17 -270 -20 -102 -3 -195
-6 -207 -8 -25 -4 -31 15 -10 32 20 17 124 34 217 36 70 1 90 5 115 23 35 25
218 56 325 54 156 -2 148 -1 120 -17 -25 -15 -25 -15 10 -8 19 3 67 16 105 29
83 27 93 29 280 60 143 24 169 19 127 -23 -10 -10 -21 -25 -24 -33 -8 -20
-141 -44 -373 -69 -55 -6 -117 -16 -137 -21 -44 -11 -53 -34 -10 -25 15 3 54
8 87 11 33 3 141 17 240 31 99 15 215 27 257 28 90 1 111 13 78 46 -20 20 -22
29 -16 89 4 36 10 113 12 170 3 57 10 114 15 128 12 32 12 33 -6 33 -22 0 -25
16 -45 340 -13 214 -18 246 -32 232 -10 -10 -46 -122 -55 -174 -3 -15 -11 -33
-19 -39 -17 -14 -17 -13 1 69 8 37 16 81 19 97 2 17 12 62 21 100 26 114 45
126 51 34 3 -28 7 -56 11 -62 9 -15 22 23 17 48 -3 11 -6 45 -8 76 -2 31 -6
60 -9 65 -3 5 -8 61 -11 124 -11 226 -16 283 -26 295 -7 9 -8 50 -4 119 6 93
5 106 -10 112 -9 3 -16 12 -16 20 0 7 -6 17 -14 21 -8 4 -16 26 -18 48 -3 37
-5 40 -36 43 -37 4 -275 -32 -315 -47 -14 -5 -27 -7 -31 -4 -3 3 -27 0 -53 -7
-58 -15 -176 -37 -333 -60 -109 -17 -128 -20 -203 -36 -39 -8 -83 -18 -97 -20
-14 -3 -41 -9 -60 -14 -19 -5 -78 -12 -130 -14 -105 -6 -204 -18 -325 -40 -44
-8 -91 -12 -105 -10 -21 4 -33 -5 -78 -61 -35 -43 -51 -71 -48 -83 4 -12 -9
-29 -49 -61 -60 -48 -64 -65 -11 -49 36 11 66 6 66 -11 0 -6 -24 -28 -52 -50
-29 -22 -66 -51 -82 -65 -16 -14 -38 -26 -49 -26 -22 0 -147 -62 -196 -99 -39
-28 -133 -42 -146 -22 -11 18 3 61 20 61 8 0 15 4 15 9 0 5 13 14 29 19 16 6
60 33 97 60 38 27 84 58 103 68 18 11 46 26 60 34 31 17 94 64 131 98 46 41
-1 23 -69 -27 -36 -26 -102 -67 -146 -91 -44 -23 -87 -48 -95 -55 -8 -7 -41
-27 -72 -45 -50 -28 -59 -30 -64 -16 -4 9 -4 75 -1 145 2 71 1 166 -4 210 -4
45 -4 94 1 109 5 15 11 86 14 157 3 72 9 153 15 180 5 28 12 102 16 165 7 123
16 150 33 102 14 -42 41 -55 76 -36 42 21 83 18 89 -6 5 -21 51 -29 62 -10 3
6 21 10 39 10 19 0 44 9 57 19 22 18 23 21 10 53 -7 18 -17 56 -21 83 -15 93
-21 104 -102 179 l-81 73 2 64 c0 40 -5 73 -14 89 -8 14 -25 47 -39 73 l-24
49 21 41 c27 50 53 68 67 47 34 -52 38 152 4 222 -13 29 -15 42 -6 68 15 42 1
64 -61 90 -28 11 -54 20 -59 20 -6 0 -26 7 -45 16 -25 13 -37 14 -46 5 -17
-17 2 -30 74 -47 73 -19 101 -39 97 -68 -2 -16 -10 -21 -32 -19 -16 1 -36 8
-45 16 -9 8 -43 29 -76 46 -33 18 -64 36 -68 40 -4 4 0 33 10 64 12 42 24 59
42 68 14 6 40 27 56 47 28 33 30 41 29 111 -1 107 -35 165 -173 298 -36 34
-80 70 -99 79 -36 17 -132 27 -167 18z m138 -36 c58 -31 218 -205 243 -263 7
-17 16 -54 20 -82 9 -70 -13 -113 -75 -147 -47 -25 -125 -37 -149 -22 -16 10
-4 34 21 42 30 10 84 68 102 111 20 46 14 55 -100 159 -108 100 -145 114 -225
84 -67 -26 -78 -34 -112 -87 -32 -48 -85 -100 -112 -109 -15 -5 -30 6 -62 42
-46 52 -54 74 -28 74 10 0 13 6 10 18 -9 26 92 103 186 144 127 55 224 67 281
36z m-13 -193 c35 -37 14 -44 -23 -7 -22 22 -27 32 -16 32 9 0 26 -11 39 -25z
m-541 -19 c15 -8 39 -33 54 -55 14 -22 46 -62 71 -90 52 -58 72 -129 62 -219
-8 -72 -35 -114 -93 -143 -27 -13 -55 -29 -63 -36 -8 -6 -43 -17 -77 -24 -126
-26 -180 18 -170 138 2 35 1 63 -3 63 -5 0 -18 -12 -29 -26 l-21 -27 0 27 c0
15 5 36 10 47 11 19 12 19 40 3 17 -11 35 -35 45 -61 20 -51 38 -63 95 -63 36
0 47 6 76 37 40 44 54 86 54 169 0 51 -4 65 -25 88 -28 30 -34 31 -61 11 -10
-8 -31 -15 -45 -15 -29 0 -54 -23 -44 -40 3 -5 17 -10 29 -10 19 0 25 -7 31
-37 8 -46 21 -63 46 -63 14 0 19 -7 19 -30 0 -43 -39 -80 -83 -80 -37 0 -50
11 -62 50 -4 14 -19 44 -34 67 -23 37 -31 42 -62 43 -45 0 -62 -22 -79 -105
-12 -56 -13 -58 -25 -35 -11 21 -10 30 5 60 12 23 19 58 19 94 0 39 5 64 15
75 9 10 16 25 16 35 0 21 28 76 38 76 4 0 32 16 62 36 83 55 137 67 189 40z
m505 -31 c30 -20 76 -89 68 -101 -4 -5 -37 -24 -73 -43 -69 -34 -69 -35 -94
-128 -6 -21 -47 -39 -65 -28 -11 7 -13 39 -4 83 5 26 11 30 48 35 29 4 49 15
69 37 29 32 33 62 17 106 -10 26 -7 54 5 54 3 0 16 -7 29 -15z m126 -62 c0
-13 -3 -13 -15 -3 -8 7 -15 19 -15 27 0 13 3 13 15 3 8 -7 15 -19 15 -27z
m-200 -14 c0 -16 -4 -29 -9 -29 -11 0 -24 48 -16 61 11 17 25 -1 25 -32z
m-1090 -39 c0 -5 -8 -10 -17 -10 -10 0 -31 -11 -48 -24 l-30 -24 33 -69 34
-69 -20 -34 c-11 -19 -30 -63 -42 -97 -12 -34 -29 -64 -37 -67 -17 -7 -53 10
-53 24 0 6 -4 10 -10 10 -23 0 -7 -32 25 -51 35 -21 45 -49 27 -76 -11 -17
-58 -33 -98 -33 -28 0 -36 5 -44 26 -12 30 -13 74 -2 74 4 0 34 30 67 67 l60
67 6 91 c7 106 39 185 80 196 37 11 69 10 69 -1z m223 -20 c5 -4 -20 -6 -55
-4 -35 1 -78 3 -95 3 -18 1 -33 6 -33 12 0 13 169 3 183 -11z m713 -7 c-11
-36 -26 -149 -26 -194 0 -45 -22 -91 -36 -76 -4 4 -3 22 4 40 6 18 10 67 7
116 -3 64 0 90 12 107 18 28 47 33 39 7z m314 -27 c0 -20 -20 -31 -51 -28 -38
4 -53 -19 -40 -65 12 -41 4 -57 -25 -51 -24 5 -23 57 1 94 31 47 115 84 115
50z m-590 -27 c0 -11 -4 -17 -10 -14 -5 3 -10 15 -10 26 0 11 5 17 10 14 6 -3
10 -15 10 -26z m-641 -64 c29 -40 35 -75 10 -59 -19 11 -59 104 -46 104 2 0
18 -20 36 -45z m161 -29 c0 -11 -19 -15 -25 -6 -3 5 1 10 9 10 9 0 16 -2 16
-4z m1134 -76 c-14 -27 -29 -50 -34 -50 -22 0 -60 -56 -60 -87 0 -31 -2 -33
-33 -33 -18 0 -41 6 -51 13 -16 12 -16 14 -2 26 9 8 16 20 16 28 0 8 17 21 38
30 49 20 102 72 102 101 0 17 6 22 25 22 l24 0 -25 -50z m-1091 21 c6 -23 -15
-35 -32 -18 -17 17 -13 37 8 37 10 0 21 -9 24 -19z m1011 -8 c-2 -29 -5 -33
-34 -48 -43 -22 -88 -19 -111 8 -37 44 -23 52 91 52 38 0 55 -4 54 -12z
m-1056 -95 c4 -36 -14 -68 -39 -68 -26 0 -32 -20 -19 -55 9 -25 8 -31 -6 -42
-22 -16 -180 -18 -189 -3 -4 6 8 33 26 61 36 57 65 63 87 17 19 -41 42 -36 44
10 3 84 22 114 68 110 19 -2 26 -10 28 -30z m1231 -21 c35 -18 64 -36 65 -42
1 -15 -173 -19 -190 -4 -32 26 -4 79 41 78 11 0 49 -14 84 -32z m-525 -10 c13
-13 25 -28 27 -34 2 -6 15 -13 29 -15 20 -2 26 2 28 20 4 26 24 29 46 6 23
-22 20 -33 -11 -39 -16 -4 -44 -9 -63 -13 -54 -12 -250 -15 -250 -5 0 14 51
49 83 57 15 3 27 11 27 17 0 9 33 27 53 28 4 1 18 -9 31 -22z m-411 -84 l32
-17 -52 -12 c-28 -6 -73 -11 -99 -10 -43 1 -48 4 -55 28 -8 32 -4 38 29 38 29
0 62 26 62 49 0 9 11 -1 25 -22 14 -20 40 -44 58 -54z m-243 -38 c0 -8 -4 -15
-9 -15 -13 0 -22 16 -14 24 11 11 23 6 23 -9z m1339 -9 c9 -11 8 -15 -5 -20
-12 -4 -15 -15 -12 -37 6 -36 -7 -44 -57 -35 -46 9 -44 26 7 70 47 40 51 42
67 22z m-119 -131 c0 -20 -23 -34 -53 -31 -36 4 -43 12 -26 29 28 27 79 28 79
2z m99 -4 c10 -7 8 -12 -10 -24 -24 -18 -49 -8 -49 19 0 15 37 19 59 5z m-261
-81 c3 -38 1 -42 -13 -30 -12 10 -21 10 -40 2 -14 -7 -25 -16 -25 -22 0 -13
31 -45 79 -80 23 -18 35 -37 41 -65 4 -22 14 -55 21 -72 12 -29 11 -35 -3 -49
-14 -14 -19 -14 -54 4 -59 31 -139 107 -162 153 -21 41 -21 43 -2 78 29 57
116 133 145 127 5 -2 11 -22 13 -46z m-333 28 c13 -37 12 -155 -1 -184 -27
-58 -205 -236 -221 -221 -13 14 -20 286 -8 349 11 57 15 59 163 66 44 2 64 -1
67 -10z m85 -4 c0 -14 8 -16 54 -10 50 5 54 5 49 -13 -3 -11 -14 -27 -24 -37
-11 -9 -24 -35 -30 -56 -9 -34 -7 -46 11 -83 12 -25 44 -66 71 -93 47 -45 50
-49 39 -77 -6 -15 -21 -38 -33 -50 -12 -11 -43 -44 -70 -73 -26 -28 -56 -56
-67 -62 -22 -12 -20 -29 -25 280 -1 42 5 92 13 115 17 49 17 72 -1 94 -7 9
-13 23 -12 31 1 8 3 23 3 33 2 22 22 23 22 1z m-375 -34 c9 -15 -29 -65 -126
-162 -88 -89 -108 -102 -110 -70 -6 96 -2 215 6 222 10 8 61 13 177 18 26 1
50 -3 53 -8z m-290 -9 c3 -5 6 -80 7 -167 l1 -158 -87 -83 c-47 -46 -93 -83
-100 -83 -19 0 -31 120 -28 290 0 18 20 44 71 91 66 61 85 89 61 89 -5 0 -26
-15 -47 -32 -57 -49 -63 -56 -63 -67 0 -6 -7 -8 -15 -5 -9 4 -14 17 -13 38 1
17 -1 41 -5 53 -7 20 -4 22 45 27 152 17 166 17 173 7z m-263 -56 c4 -22 7
-61 7 -86 1 -45 -15 -75 -69 -131 -8 -8 -39 -40 -67 -69 -74 -77 -83 -83 -95
-71 -10 10 -23 191 -23 317 l0 70 68 2 c38 1 70 3 72 5 2 1 25 3 52 3 l48 0 7
-40z m1218 14 c0 -18 -2 -19 -15 -9 -8 7 -15 16 -15 21 0 5 7 9 15 9 9 0 15
-9 15 -21z m-1627 -89 c-56 -55 -106 -100 -111 -100 -5 0 -15 33 -21 73 -6 39
-14 82 -17 94 -7 24 -8 24 196 31 l55 2 -102 -100z m-191 42 c10 -20 20 -64
23 -97 4 -33 9 -69 12 -79 4 -15 -14 -38 -73 -94 -44 -41 -89 -81 -102 -90
-36 -23 -39 -16 -57 111 -4 27 -9 59 -12 70 -2 12 -7 42 -10 67 -10 91 51 145
172 149 25 1 33 -5 47 -37z m-281 -20 c7 -18 5 -31 -7 -49 -24 -37 -155 -163
-170 -163 -7 0 -15 21 -19 53 -4 28 -9 61 -12 72 -2 11 -7 39 -10 61 -5 41 -4
42 30 53 27 9 41 9 57 1 14 -7 25 -8 33 -2 18 15 60 19 76 8 7 -6 17 -21 22
-34z m608 -191 c6 -84 7 -159 3 -166 -20 -36 -194 -206 -206 -202 -8 3 -16 33
-21 79 -4 40 -9 84 -10 98 -2 14 -7 64 -10 111 l-8 85 49 55 c53 60 104 110
149 145 l30 24 7 -38 c4 -20 12 -106 17 -191z m-867 195 c4 -6 8 -24 8 -41 0
-16 7 -66 15 -110 8 -44 14 -87 15 -95 0 -19 -99 -95 -110 -83 -6 6 -51 297
-50 326 0 26 106 28 122 3z m1704 -157 l7 -154 -67 -75 c-36 -41 -89 -101
-117 -132 -28 -32 -57 -58 -63 -58 -10 0 -12 43 -11 180 2 206 -13 170 135
323 69 71 96 93 102 83 4 -7 11 -83 14 -167z m742 112 c12 -51 5 -96 -14 -80
-15 12 -29 92 -19 108 12 20 23 11 33 -28z m-444 -249 c0 -152 -2 -181 -17
-202 -35 -50 -192 -200 -209 -200 -20 0 -19 -14 -19 220 l0 154 43 42 c24 24
74 74 112 113 48 48 73 68 80 61 6 -6 10 -81 10 -188z m606 158 c0 -16 -4 -32
-10 -35 -6 -4 -10 10 -10 35 0 25 4 39 10 35 6 -3 10 -19 10 -35z m-2313 -45
c31 -182 34 -227 15 -248 -27 -31 -159 -137 -170 -137 -20 0 -36 73 -48 222
l-7 77 84 81 c46 44 91 79 99 77 10 -1 19 -25 27 -72z m858 16 c3 -5 8 -72 11
-149 l7 -139 -104 -101 c-117 -113 -116 -113 -125 -2 -3 30 -9 87 -15 125
l-10 70 108 102 c59 57 111 103 115 103 4 0 9 -4 13 -9z m1295 -56 c0 -8 -7
-15 -15 -15 -9 0 -12 6 -9 15 4 8 10 15 15 15 5 0 9 -7 9 -15z m-1866 -47 c10
-66 18 -132 21 -182 1 -28 6 -77 10 -108 l7 -58 -83 -96 c-112 -129 -137 -140
-140 -59 0 17 -2 42 -4 57 -9 68 -16 139 -21 212 l-5 79 96 94 c53 51 101 93
106 93 4 0 10 -15 13 -32z m2113 -34 c41 -31 78 -66 83 -78 5 -11 14 -52 19
-91 5 -38 11 -77 12 -85 7 -25 -35 -23 -46 2 -7 16 -23 26 -50 31 -71 15 -87
28 -91 71 -2 25 -11 44 -24 53 -26 18 -26 64 0 81 15 9 18 19 14 42 -4 16 -3
30 1 30 4 0 41 -25 82 -56z m-266 36 c17 0 21 -24 30 -168 1 -14 -24 -52 -71
-108 -40 -47 -74 -83 -77 -81 -8 8 -6 321 2 346 6 21 11 23 52 17 25 -3 54 -6
64 -6z m-166 -72 c4 -29 5 -117 3 -195 l-3 -142 -45 -47 c-39 -40 -133 -118
-166 -137 -10 -6 -11 49 -5 320 1 34 9 51 41 90 51 60 153 163 162 163 4 0 10
-24 13 -52z m-854 -5 c0 -27 0 -109 -1 -183 l-1 -135 -78 -85 c-105 -114 -111
-114 -112 -3 -1 48 -2 130 -4 180 -2 84 0 96 21 125 31 43 145 148 162 148 8
0 12 -17 13 -47z m-1347 -60 c9 -49 20 -117 23 -153 5 -63 4 -66 -26 -99 -41
-44 -71 -86 -71 -101 0 -23 44 -5 60 25 24 43 54 40 58 -5 2 -30 14 -116 39
-288 5 -30 0 -38 -41 -76 -67 -63 -59 -93 11 -40 19 14 36 24 39 21 7 -6 23
-97 34 -190 5 -44 12 -91 15 -106 5 -22 -2 -36 -35 -74 -46 -52 -46 -79 0 -46
15 12 33 18 38 15 14 -8 37 -113 34 -151 -5 -56 -12 -72 -37 -83 -39 -18 -52
-15 -63 16 -12 30 -34 133 -37 172 -1 14 -7 41 -13 60 -13 42 -49 226 -57 295
-4 28 -13 84 -21 125 -7 41 -16 111 -19 155 -3 44 -10 105 -15 135 -5 30 -12
80 -15 110 -3 30 -10 82 -15 115 -21 140 -20 171 6 207 21 28 40 38 85 47 4 0
14 -38 23 -86z m2466 11 c0 -8 -4 -14 -10 -14 -5 0 -10 9 -10 21 0 11 5 17 10
14 6 -3 10 -13 10 -21z m-816 -200 l2 -189 -39 -45 c-22 -25 -56 -63 -76 -86
-20 -22 -51 -57 -69 -77 -18 -20 -36 -37 -41 -37 -14 0 -21 54 -27 220 -5 141
-4 157 13 175 10 11 34 40 54 65 90 111 161 182 172 171 4 -4 9 -93 11 -197z
m-814 80 c20 -206 21 -200 -7 -240 -44 -65 -166 -204 -179 -204 -20 0 -28 20
-25 63 1 21 -2 53 -8 70 -5 18 -12 69 -15 114 l-6 82 106 111 c61 63 111 107
116 102 5 -5 13 -49 18 -98z m-566 27 c4 -5 13 -74 21 -153 8 -78 17 -163 21
-188 6 -45 5 -46 -45 -90 -91 -80 -128 -110 -139 -110 -6 0 -14 17 -17 38 -3
20 -9 48 -12 62 -4 14 -5 29 -4 33 1 5 -3 34 -8 65 -5 32 -13 85 -16 119 l-7
63 49 49 c60 61 132 121 143 121 5 0 11 -4 14 -9z m841 -247 l0 -186 -75 -69
c-41 -38 -83 -69 -92 -69 -18 0 -19 4 -23 75 -1 22 -7 85 -15 140 -11 89 -11
104 3 130 37 70 173 193 192 174 6 -6 10 -87 10 -195z m1288 182 c6 -16 -2
-246 -9 -258 -3 -4 -10 -47 -15 -96 -5 -48 -11 -99 -14 -115 -6 -47 -108 -126
-121 -93 -3 8 -4 102 -2 208 2 153 6 199 18 215 44 59 123 153 130 153 4 0 10
-6 13 -14z m137 -6 c0 -5 -4 -10 -9 -10 -6 0 -13 5 -16 10 -3 6 1 10 9 10 9 0
16 -4 16 -10z m-599 -37 c2 -21 1 -102 -2 -181 l-5 -144 -61 -61 c-34 -34 -71
-72 -82 -84 -23 -25 -46 -30 -56 -12 -11 16 -23 292 -15 309 14 25 194 209
206 209 7 1 13 -16 15 -36z m-1378 -115 c5 -21 21 -154 31 -269 4 -48 -7 -75
-50 -115 -12 -10 -44 -41 -72 -68 -43 -42 -53 -47 -67 -36 -8 7 -15 28 -15 49
0 20 -5 52 -10 71 -6 19 -13 73 -16 120 l-5 85 91 93 c50 50 95 92 100 92 4 0
10 -10 13 -22z m803 -223 l5 -160 -38 -40 c-21 -22 -64 -60 -97 -83 -65 -48
-75 -46 -76 18 -1 19 -3 91 -6 160 l-5 125 97 100 97 100 9 -30 c4 -16 10
-102 14 -190z m830 164 c3 -6 6 -57 4 -113 -1 -55 -2 -151 -2 -213 l0 -112
-47 -47 c-25 -26 -62 -58 -81 -73 -19 -14 -44 -34 -54 -43 -39 -36 -52 -21
-47 57 0 17 2 108 4 203 l2 173 40 37 c162 147 168 152 181 131z m-1332 -54
c4 -14 8 -48 11 -77 2 -29 7 -90 10 -134 l7 -81 -98 -97 c-70 -69 -100 -93
-109 -86 -7 6 -15 43 -19 83 -4 39 -10 90 -12 112 -7 61 -6 73 8 93 40 57 175
211 184 211 7 1 15 -10 18 -24z m800 -56 c3 -18 9 -95 12 -173 l6 -141 -119
-117 c-65 -65 -124 -118 -131 -118 -8 0 -11 41 -10 144 0 79 -2 148 -6 154 -8
13 6 43 32 72 104 114 197 210 203 210 3 0 9 -14 13 -31z m-1330 -110 c3 -19
10 -61 15 -93 6 -33 11 -87 12 -120 l2 -60 -74 -69 c-40 -37 -80 -66 -88 -65
-22 4 -46 113 -57 253 l-6 70 88 73 c94 77 99 78 108 11z m780 -76 c4 -43 7
-116 7 -163 l1 -84 -39 -34 c-21 -19 -52 -48 -70 -63 -38 -35 -53 -37 -54 -6
0 12 -2 33 -4 47 -1 14 -5 75 -9 136 l-6 111 70 67 c39 36 76 66 84 66 10 0
15 -22 20 -77z m808 -50 c3 -128 2 -159 -5 -238 -3 -33 -5 -70 -6 -82 -1 -12
-16 -36 -33 -52 -50 -47 -138 -105 -146 -97 -4 4 -6 93 -5 198 l2 190 38 45
c52 61 135 143 145 143 4 0 9 -48 10 -107z m2723 51 c8 -46 -2 -109 -21 -125
-7 -6 -24 -9 -37 -5 -28 7 -63 -15 -53 -33 5 -8 22 -10 52 -5 l44 6 0 -68 c0
-38 -4 -85 -9 -104 -5 -19 -14 -75 -21 -123 -11 -79 -15 -89 -39 -101 -14 -7
-50 -14 -78 -15 l-53 -2 0 66 c0 76 17 118 57 137 21 10 28 20 28 42 0 16 -5
31 -12 33 -10 4 -97 -93 -105 -118 -7 -22 -57 -1 -64 26 -11 42 18 71 98 98
114 39 148 53 160 65 19 19 2 24 -29 9 -112 -58 -500 -139 -541 -113 -22 14 6
43 53 55 73 18 102 61 75 111 -12 22 -8 25 43 34 l38 7 -2 -56 c-1 -30 1 -58
4 -62 14 -13 54 17 107 80 30 36 61 66 68 66 8 1 12 -15 12 -47 0 -47 12 -72
36 -72 8 0 9 11 1 44 -13 58 12 107 62 117 35 7 59 25 48 35 -3 4 -18 -1 -33
-11 -15 -10 -37 -15 -52 -12 -14 3 -35 -1 -46 -8 -42 -27 -276 -74 -403 -81
-28 -1 -59 -7 -70 -12 -32 -17 -242 -55 -373 -67 -55 -5 -173 -25 -307 -51
-72 -14 -117 -8 -125 16 -2 7 -13 7 -38 -1 -26 -9 -35 -9 -38 -1 -6 18 -31 14
-63 -9 -16 -11 -39 -19 -52 -16 -21 3 -21 4 4 15 15 6 29 16 31 23 4 13 107
38 258 63 87 15 127 20 240 31 53 5 156 25 315 59 11 2 54 10 95 16 41 6 116
20 165 30 84 18 224 41 440 73 50 8 97 10 106 6 9 -5 20 -25 24 -45z m-4031
-51 c3 -16 9 -78 12 -139 l7 -110 -49 -39 c-27 -21 -63 -52 -81 -68 -17 -16
-36 -27 -41 -23 -6 3 -13 34 -17 68 -4 35 -13 83 -21 106 -7 24 -9 51 -5 60
12 28 155 170 172 171 10 1 19 -9 23 -26z m4111 -30 c14 -84 14 -110 4 -173
-6 -36 -13 -77 -15 -91 -12 -89 -53 -210 -73 -217 -11 -4 -12 3 -7 29 21 99
39 223 43 289 3 41 9 79 14 85 5 5 9 33 9 62 0 61 15 71 25 16z m-2365 -157
l0 -184 -35 -31 c-50 -44 -70 -41 -85 13 -7 25 -10 49 -7 54 4 5 7 60 8 123
l1 114 46 48 c26 26 52 47 59 47 10 0 13 -41 13 -184z m-983 -36 l2 -160 -46
-38 c-26 -20 -64 -52 -85 -71 -24 -21 -42 -31 -48 -25 -11 11 -18 87 -21 228
-3 99 -3 100 26 120 15 12 56 44 89 73 38 32 65 48 71 42 5 -5 10 -81 12 -169z
m2963 158 c0 -16 -41 -58 -56 -58 -19 0 3 58 24 63 29 8 32 7 32 -5z m-3430
-147 c7 -82 10 -156 7 -165 -4 -11 -19 -16 -46 -16 -21 0 -69 -9 -106 -21 -37
-11 -70 -18 -73 -14 -4 4 -7 45 -8 93 l-2 87 91 93 c50 50 98 92 107 92 14 0
18 -23 30 -149z m3211 78 c12 -20 -7 -46 -42 -58 -34 -12 -49 -8 -49 15 0 8
-4 14 -10 14 -12 0 -14 33 -2 44 11 12 93 0 103 -15z m-171 -18 c16 -31 12
-117 -6 -135 -8 -9 -17 -16 -19 -16 -10 0 -35 68 -35 97 0 61 38 95 60 54z
m-2275 -1 c7 -12 8 -218 1 -336 l-4 -70 -63 -61 c-71 -68 -153 -133 -167 -133
-9 0 -34 159 -27 170 2 4 5 37 5 76 3 119 10 132 128 253 59 61 110 110 114
111 4 0 10 -5 13 -10z m518 -17 c3 -5 8 -80 11 -167 l7 -160 -88 -84 c-48 -46
-96 -88 -106 -93 -26 -15 -33 16 -41 174 l-6 138 31 38 c16 21 59 60 94 87 35
26 67 54 69 61 6 14 22 17 29 6z m1462 -13 c-3 -5 -11 -10 -16 -10 -6 0 -7 5
-4 10 3 6 11 10 16 10 6 0 7 -4 4 -10z m186 -20 c3 -54 2 -67 -5 -87 -10 -32
-76 -50 -93 -26 -19 25 -16 50 10 85 34 47 86 63 88 28z m-3461 8 c0 -2 7 -41
15 -88 23 -133 21 -148 -29 -201 -48 -50 -125 -114 -131 -108 -2 2 -12 45 -22
96 -10 50 -21 89 -25 87 -12 -8 -9 6 9 45 23 50 183 197 183 169z m3054 -37
c-5 -22 -1 -32 15 -43 l22 -15 -22 -37 c-21 -36 -21 -36 -90 -36 -38 0 -69 4
-69 8 0 5 21 30 46 55 48 49 50 71 6 61 -40 -10 -15 12 28 24 62 18 70 15 64
-17z m161 -5 c33 -31 35 -35 17 -40 -32 -11 -72 10 -72 37 0 20 7 37 15 37 2
0 19 -15 40 -34z m-2461 -73 c12 -102 18 -263 10 -263 -5 0 -35 17 -66 38 -31
20 -71 45 -88 54 -28 16 -31 21 -25 50 4 18 13 40 21 49 8 8 14 20 14 27 0 16
92 92 112 92 12 0 18 -12 22 -47z m-486 -59 c14 -89 18 -84 -89 -128 -59 -24
-72 -27 -80 -15 -16 26 -10 77 14 103 32 35 126 116 136 116 4 0 13 -34 19
-76z m2552 72 c0 -2 -8 -10 -17 -17 -16 -13 -17 -12 -4 4 13 16 21 21 21 13z
m480 -21 c0 -21 -5 -25 -30 -25 -36 0 -40 22 -7 38 33 16 37 14 37 -13z m567
19 c-3 -3 -12 -4 -19 -1 -8 3 -5 6 6 6 11 1 17 -2 13 -5z m-77 -12 c0 -5 -20
-23 -44 -40 -45 -33 -106 -51 -168 -52 -41 0 -123 -55 -123 -82 0 -9 -16 -27
-35 -40 -39 -27 -47 -61 -14 -66 31 -5 75 16 81 38 7 25 53 28 53 4 0 -28 89
-10 115 23 l22 26 58 -28 c32 -15 79 -30 104 -34 l46 -6 -40 -12 c-53 -16
-166 -34 -176 -28 -4 3 -38 1 -76 -4 -108 -15 -323 -25 -323 -15 0 5 6 18 13
29 8 11 24 54 37 95 12 41 31 83 41 92 11 9 15 19 10 22 -13 9 -47 -30 -70
-78 -10 -23 -33 -72 -50 -110 -30 -67 -32 -68 -62 -62 -17 3 -38 6 -45 6 -27
0 -16 56 17 88 31 30 32 33 26 91 -4 33 -3 62 2 65 4 3 51 10 102 16 52 6 108
15 124 20 17 5 67 11 113 14 45 3 87 8 94 12 10 7 95 20 146 23 12 0 22 -3 22
-7z m-910 -6 c0 -3 -4 -8 -10 -11 -5 -3 -10 -1 -10 4 0 6 5 11 10 11 6 0 10
-2 10 -4z m-30 -36 c0 -5 -5 -10 -11 -10 -5 0 -7 5 -4 10 3 6 8 10 11 10 2 0
4 -4 4 -10z m287 -47 c6 -18 -22 -31 -89 -41 -44 -7 -79 -7 -100 -1 -23 6 -48
5 -80 -3 -38 -9 -52 -9 -72 2 -44 23 -82 -13 -88 -85 -3 -37 -1 -40 31 -51
l33 -11 -44 -12 c-25 -7 -56 -12 -69 -11 -39 4 -49 1 -49 -14 0 -18 -31 -26
-107 -26 -40 0 -63 4 -63 11 0 14 130 161 187 212 l40 36 137 0 c76 -1 139 1
141 3 8 8 190 -1 192 -9z m780 -18 c19 -19 32 -39 29 -44 -12 -19 -76 -41
-119 -41 -48 0 -71 14 -82 51 -9 26 2 37 51 54 62 22 84 18 121 -20z m-2373
-47 c4 -29 9 -105 12 -168 l5 -116 -28 -24 c-58 -52 -148 -120 -160 -120 -16
0 -27 91 -27 215 1 91 3 104 27 143 15 23 31 42 35 42 4 0 20 12 36 28 39 36
78 62 87 57 4 -3 10 -28 13 -57z m2803 15 c-4 -40 -31 -169 -50 -238 -6 -22
-18 -49 -28 -60 -10 -11 -19 -36 -21 -55 l-3 -35 -125 -12 c-69 -7 -134 -15
-145 -18 -11 -3 -112 -10 -225 -15 -222 -10 -297 -15 -465 -32 -288 -27 -755
-46 -1073 -43 -159 2 -185 5 -202 20 -18 16 -27 17 -91 6 -75 -12 -104 -5 -92
25 4 10 21 15 57 15 228 1 488 7 626 14 91 5 168 8 173 7 4 -1 71 4 150 12
194 20 236 23 512 36 132 6 313 18 402 26 89 8 186 14 215 14 29 0 66 7 82 15
39 21 41 20 66 -20 20 -32 47 -44 63 -29 4 4 -2 19 -13 34 -11 16 -20 39 -20
53 0 23 -5 26 -56 33 -35 4 -93 1 -157 -9 -56 -9 -108 -12 -115 -8 -18 10 15
17 159 31 58 6 120 14 138 20 25 7 41 5 67 -8 36 -17 37 -24 18 -94 -3 -9 0
-19 6 -23 16 -10 74 127 100 233 12 51 26 95 31 98 5 3 9 14 9 25 0 10 2 19 6
19 3 0 3 -17 1 -37z m-677 15 c-1 -32 -25 -44 -87 -43 -93 1 -100 18 -16 41
63 17 103 17 103 2z m-1702 -50 c5 -58 -11 -101 -42 -117 -35 -17 -46 -5 -46
55 0 32 7 47 32 72 38 40 52 37 56 -10z m-977 5 c0 -16 2 -92 3 -170 2 -79 1
-143 -3 -143 -17 0 -171 162 -171 179 0 18 53 91 72 99 4 2 23 17 44 33 46 36
54 36 55 2z m1527 -15 c-18 -23 -48 -58 -66 -78 -19 -19 -40 -45 -49 -57 -11
-16 -25 -23 -47 -23 -30 1 -28 4 74 100 58 55 109 100 113 100 5 0 -6 -19 -25
-42z m572 -18 c0 -24 -6 -33 -26 -40 -33 -13 -91 -13 -99 0 -3 6 4 10 18 10
26 0 52 22 40 34 -10 10 17 26 45 26 18 0 22 -6 22 -30z m-3042 -2 c-2 -16
-18 -30 -52 -46 -26 -13 -51 -21 -54 -18 -3 3 13 24 34 46 44 45 77 53 72 18z
m2312 -62 c-62 -64 -113 -96 -128 -81 -9 9 50 58 115 95 28 16 54 34 58 40 3
5 9 10 13 10 3 0 -22 -29 -58 -64z m2027 -27 c-10 -28 -17 -59 -17 -68 0 -9
-12 -54 -25 -100 -14 -47 -25 -98 -25 -113 0 -17 -10 -39 -23 -51 -41 -42 -57
-75 -57 -121 0 -70 -5 -76 -64 -76 -48 0 -53 2 -52 23 1 20 -3 22 -38 19 -22
-2 -48 -8 -59 -14 -33 -17 -168 -34 -397 -48 -243 -15 -544 -39 -560 -44 -28
-9 -254 -17 -490 -16 -200 0 -237 2 -246 15 -11 14 -13 14 -27 0 -19 -18 -78
-20 -95 -3 -10 10 -20 9 -46 -6 -18 -10 -46 -16 -62 -14 -25 2 -28 7 -26 28 2
14 5 26 6 27 1 1 74 5 161 8 178 6 525 24 595 30 47 4 472 32 625 40 50 3 133
10 185 15 52 5 122 10 155 11 33 1 80 5 105 10 25 4 86 9 135 10 120 3 136 10
129 49 -5 20 -3 30 6 30 7 0 10 8 7 19 -2 10 -1 25 4 33 12 22 60 33 70 16 18
-29 43 21 61 119 24 138 36 192 50 231 12 31 13 32 22 13 6 -14 4 -37 -7 -72z
m-397 67 c0 -2 -7 -6 -15 -10 -8 -3 -15 -1 -15 4 0 6 7 10 15 10 8 0 15 -2 15
-4z m-2160 -73 c0 -25 -10 -53 -29 -82 -24 -36 -29 -52 -25 -88 4 -44 3 -46
-63 -109 -38 -35 -71 -64 -75 -64 -8 0 -15 39 -23 135 l-6 71 70 64 c135 125
151 132 151 73z m1247 -8 c-7 -17 -67 -22 -67 -5 0 6 11 10 24 10 14 0 28 5
31 11 10 15 19 3 12 -16z m-1781 -76 c1 -35 5 -105 8 -154 5 -67 4 -94 -6
-106 -27 -32 -120 -90 -137 -84 -9 3 -38 40 -64 83 -45 74 -46 79 -35 115 11
36 24 49 168 177 25 22 50 38 55 37 6 -2 11 -33 11 -68z m759 -5 c33 -14 31
-15 -47 -33 -66 -15 -108 -14 -114 4 -19 48 75 65 161 29z m1558 9 c-7 -2 -21
-2 -30 0 -10 3 -4 5 12 5 17 0 24 -2 18 -5z m-68 -12 c-25 -10 -155 -23 -155
-17 0 3 15 9 33 14 41 12 150 14 122 3z m-672 -57 c44 -8 83 -12 87 -9 5 3 11
1 14 -4 4 -5 -24 -13 -61 -16 -38 -4 -79 -9 -93 -11 -14 -2 -90 -6 -170 -9
-80 -3 -167 -8 -195 -11 -82 -9 -549 -4 -559 6 -6 6 -4 15 4 25 10 12 35 15
119 15 58 0 126 5 151 11 55 13 353 25 510 21 63 -2 150 -10 193 -18z m-1309
-63 c3 -5 6 -55 7 -112 l1 -103 -45 -41 c-82 -73 -153 -104 -146 -63 1 7 -1
39 -6 71 -15 114 -12 120 105 208 67 51 75 55 84 40z m206 -132 c12 -44 33
-58 61 -41 27 17 37 15 71 -13 l30 -25 516 7 c467 6 516 5 504 -9 -7 -9 -32
-19 -55 -22 -112 -16 -503 -35 -612 -30 -75 4 -118 8 -350 34 -122 14 -177 -1
-186 -51 -4 -19 -10 -42 -14 -51 -10 -24 22 -24 54 -2 22 16 25 16 51 0 16 -9
36 -16 45 -16 9 0 15 -6 13 -12 -6 -17 -56 -22 -82 -8 -17 9 -28 8 -51 -4 -17
-9 -51 -16 -77 -16 -46 0 -47 1 -57 38 -15 54 -13 109 5 148 19 40 90 114 110
114 7 0 18 -18 24 -41z m2096 -27 c-10 -9 -250 -30 -496 -42 -124 -6 -251 -15
-283 -19 -63 -8 -107 -4 -107 10 0 5 10 10 23 10 12 1 36 3 52 5 59 6 451 34
510 37 140 5 306 5 301 -1z m57 1 c-7 -2 -19 -2 -25 0 -7 3 -2 5 12 5 14 0 19
-2 13 -5z m-2597 -114 c14 -109 13 -113 -24 -117 -27 -3 -36 3 -66 45 -20 26
-36 57 -36 68 0 22 86 98 104 92 6 -2 16 -42 22 -88z m3065 -66 c-19 -25 -21
-44 -22 -172 0 -95 -5 -157 -15 -183 -7 -21 -13 -42 -13 -46 4 -23 -4 -32 -27
-32 -21 0 -24 4 -19 20 3 10 1 29 -5 41 -10 18 -8 27 11 52 l22 30 -25 21
c-14 12 -34 26 -44 32 -17 10 -16 11 8 7 44 -8 61 9 75 78 8 35 16 82 18 104
5 40 22 116 32 145 4 9 10 -3 15 -27 8 -36 6 -47 -11 -70z m-2466 57 c-28 -12
-63 -12 -70 0 -4 6 12 10 42 9 36 0 43 -3 28 -9z m-367 -57 c-3 -45 -5 -48
-32 -51 -39 -5 -76 6 -76 21 1 12 87 77 103 77 4 0 7 -21 5 -47z m480 -20 c-4
-24 -54 -51 -68 -37 -14 14 -3 42 18 47 38 10 53 7 50 -10z m2274 -64 c-6 -69
-19 -80 -27 -21 -7 53 -1 76 18 69 8 -2 11 -21 9 -48z m-614 30 c11 0 8 -4 -8
-10 -26 -11 -214 -24 -194 -14 20 10 158 33 172 29 8 -2 21 -4 30 -5z m538
-14 c8 -30 -16 -85 -36 -84 -10 0 -11 2 -2 6 6 2 12 18 12 34 0 40 -25 44
-162 24 -63 -9 -134 -15 -159 -13 l-44 3 40 11 c47 13 230 38 297 41 43 1 49
-1 54 -22z m-799 -19 c-17 -13 -69 -18 -337 -31 -133 -6 -21 12 175 29 88 7
165 14 170 14 6 1 2 -5 -8 -12z m378 -16 c4 -6 -10 -9 -37 -9 l-43 2 35 7 c19
4 36 8 37 9 1 0 5 -3 8 -9z m-1890 -20 c3 -5 1 -10 -4 -10 -6 0 -11 5 -11 10
0 6 2 10 4 10 3 0 8 -4 11 -10z m910 -10 c-3 -6 -30 -10 -58 -10 -33 0 -47 3
-38 9 19 12 103 13 96 1z m-180 -10 c-95 -10 -513 -12 -518 -2 -3 4 128 7 291
8 172 0 268 -2 227 -6z m-760 -50 c-28 -12 -45 -12 -45 0 0 6 15 10 33 9 27 0
29 -2 12 -9z m2237 -8 c61 -36 25 -45 -231 -61 -211 -14 -358 -14 -366 -2 -9
15 31 32 83 37 26 2 67 6 92 9 25 2 97 9 160 15 63 6 118 12 123 13 34 10 114
4 139 -11z m309 -108 c1 -72 -13 -120 -32 -108 -10 6 -5 143 8 209 l6 30 8
-30 c5 -16 9 -62 10 -101z m-921 107 c3 -1 -6 -8 -19 -15 -17 -9 -70 -14 -173
-15 -82 0 -189 -6 -236 -12 -48 -6 -112 -12 -142 -14 -30 -3 -77 -7 -105 -9
-47 -5 -164 -13 -500 -36 -77 -5 -159 -6 -182 -3 -46 6 -73 27 -56 44 5 5 90
12 189 15 98 3 185 7 192 9 8 3 62 7 120 10 59 3 125 8 147 11 22 3 172 7 334
10 162 3 296 6 298 8 3 2 121 0 133 -3z m722 -141 c-2 -17 -12 -34 -21 -39
-39 -21 -171 -31 -446 -35 -144 -3 -183 -1 -125 4 160 14 305 31 365 41 33 5
89 14 125 19 43 7 70 16 80 29 20 25 28 19 22 -19z m-1566 -2 c17 -32 11 -31
89 -18 33 6 89 13 125 15 36 3 106 9 155 14 50 5 176 6 280 2 105 -3 289 -6
410 -5 121 0 202 -3 180 -7 -87 -16 -182 -30 -230 -34 -27 -2 -113 -11 -190
-19 -77 -8 -196 -17 -265 -21 -157 -8 -355 -23 -397 -31 -43 -8 -56 -26 -48
-64 8 -38 -7 -37 345 -4 254 23 610 37 610 23 0 -3 -35 -9 -77 -12 -43 -3
-154 -13 -248 -21 -93 -9 -201 -18 -240 -20 -185 -12 -307 -27 -328 -41 -12
-8 -48 -17 -80 -21 -53 -6 -57 -5 -57 14 0 11 4 32 10 47 8 20 6 34 -6 58 -12
21 -13 32 -5 35 23 8 10 22 -31 32 -27 8 -91 10 -186 6 -139 -6 -143 -6 -137
13 10 33 -14 34 -44 2 -48 -51 -87 -33 -59 26 15 31 37 36 238 49 58 3 106 7
108 8 1 2 16 3 33 3 23 0 34 -7 45 -29z m-576 -17 c0 -18 -75 -71 -100 -71
-14 0 0 26 34 62 17 18 32 25 46 21 11 -3 20 -9 20 -12z m118 -4 c5 -26 -54
-77 -88 -77 -44 0 -44 14 0 60 42 44 82 52 88 17z m-258 -32 c-39 -40 -60 -47
-33 -11 15 21 46 43 62 45 3 1 -10 -15 -29 -34z m-4672 -117 c24 -22 50 -51
59 -64 8 -13 20 -24 26 -24 16 0 197 -188 197 -204 0 -7 9 -25 20 -39 12 -15
16 -28 11 -32 -11 -6 -190 153 -313 279 -53 53 -78 87 -78 103 0 35 29 29 78
-19z m5270 -20 l-3 -33 -65 1 c-95 1 -206 10 -219 18 -38 24 34 41 187 45
l103 2 -3 -33z m-460 5 c-3 -14 -17 -19 -68 -25 -36 -3 -78 -11 -94 -17 -40
-16 -21 -32 25 -22 42 10 71 -2 62 -25 -7 -18 -44 -15 -106 8 -41 16 -85 53
-74 64 3 4 37 8 74 10 37 2 88 8 113 13 68 13 72 13 68 -6z m88 -8 c-11 -8
-22 -12 -25 -9 -6 6 19 24 34 24 6 -1 1 -7 -9 -15z m2229 4 c10 -15 -1 -23
-20 -15 -9 3 -13 10 -10 16 8 13 22 13 30 -1z m-79 -30 c16 -17 16 -22 4 -29
-8 -6 -27 -10 -41 -10 -15 0 -66 -7 -115 -16 -49 -8 -143 -22 -209 -30 -106
-13 -174 -20 -370 -39 -27 -3 -111 -11 -185 -19 -74 -9 -187 -20 -250 -25
-421 -38 -405 -37 -396 -16 4 12 -4 15 -44 15 -33 0 -50 4 -51 13 -2 22 3 52
9 59 6 6 149 17 282 23 118 4 369 16 450 20 47 3 135 8 195 10 109 6 465 39
580 54 101 14 120 13 141 -10z m-1822 -86 c-1 -16 -8 -45 -17 -64 -8 -19 -20
-48 -27 -66 -18 -48 -35 -59 -68 -44 -43 20 -152 93 -152 102 0 23 56 43 125
45 89 3 112 13 70 30 l-30 12 30 7 c17 4 35 8 40 10 21 7 30 -3 29 -32z m354
-161 c2 -7 -12 -18 -35 -27 -21 -8 -55 -24 -76 -36 -21 -11 -61 -23 -89 -26
l-51 -6 8 29 c8 32 13 55 14 66 2 18 222 19 229 0z m-99 -264 c72 -40 146 -81
164 -90 52 -27 161 -132 155 -149 -3 -8 -41 -30 -84 -49 -44 -19 -101 -48
-129 -66 -55 -35 -170 -94 -182 -94 -4 0 -20 22 -35 48 -27 48 -28 49 -98 62
-39 7 -74 18 -77 23 -7 11 12 104 33 167 9 25 26 81 38 125 12 45 26 87 30 94
12 19 40 8 185 -71z m-729 -143 c0 -10 -10 -15 -32 -15 -31 1 -32 1 -14 15 25
19 46 19 46 0z m55 -55 c3 -5 -1 -10 -10 -10 -9 0 -13 5 -10 10 3 6 8 10 10
10 2 0 7 -4 10 -10z m98 -77 c-7 -2 -19 -2 -25 0 -7 3 -2 5 12 5 14 0 19 -2
13 -5z m37 -37 c0 -11 -19 -15 -25 -6 -3 5 1 10 9 10 9 0 16 -2 16 -4z m815
-24 c0 -19 -10 -27 -53 -42 -30 -11 -68 -28 -85 -39 -62 -39 -143 -79 -182
-89 l-40 -11 35 30 c30 25 84 58 264 162 39 22 61 18 61 -11z m-796 -38 c5 -4
-29 -103 -37 -107 -4 -2 -54 0 -112 4 -111 8 -205 35 -205 59 0 17 92 39 189
45 38 3 71 7 73 9 4 4 85 -4 92 -10z m324 -15 c49 -27 -2 -74 -89 -81 l-39 -3
4 45 c1 25 5 49 8 53 6 10 90 0 116 -14z m487 -23 c0 -14 -19 -24 -130 -71
-74 -30 -148 -66 -203 -96 -21 -12 -41 -19 -44 -16 -15 16 14 39 109 86 56 29
126 65 153 81 53 32 115 40 115 16z m-4535 -46 c13 -14 16 -28 11 -55 -4 -19
-11 -35 -16 -35 -10 0 -70 86 -70 101 0 17 57 9 75 -11z m-167 -46 c37 -26 25
-36 -18 -14 -22 11 -40 23 -40 25 0 11 37 4 58 -11z m3518 -17 c1 -12 5 -50 9
-84 5 -43 4 -63 -3 -63 -6 0 -14 4 -17 10 -7 11 -13 159 -6 165 8 8 16 -6 17
-28z m95 6 c7 -80 8 -173 1 -173 -5 0 -12 30 -16 68 -3 37 -9 77 -12 90 -5 16
-2 22 10 22 9 0 16 -3 17 -7z m108 -2 c17 -11 20 -183 3 -189 -5 -1 -19 9 -31
24 -17 22 -21 41 -21 100 0 64 2 74 18 74 9 0 23 -4 31 -9z m-3616 -23 c12
-18 1 -56 -12 -42 -5 5 -11 22 -15 37 -7 31 9 34 27 5z m4087 18 c0 -2 -3 -11
-6 -20 -9 -23 -24 -20 -24 4 0 11 7 20 15 20 8 0 15 -2 15 -4z m-340 -32 c6
-14 10 -40 10 -57 0 -36 24 -77 45 -77 10 0 13 18 12 78 -2 76 -2 77 23 77 25
0 25 0 23 -85 l-2 -85 -71 -5 c-67 -5 -72 -4 -88 20 -11 16 -17 46 -17 85 -1
73 0 75 31 75 17 0 27 -8 34 -26z m245 -31 c4 -32 15 -66 23 -76 14 -16 14
-19 2 -27 -8 -6 -34 -10 -57 -10 l-41 0 3 73 c1 39 3 78 4 85 0 6 14 12 30 12
28 0 30 -2 36 -57z m-795 27 c0 -5 -4 -10 -10 -10 -5 0 -10 5 -10 10 0 6 5 10
10 10 6 0 10 -4 10 -10z m912 -95 c0 -5 -5 -11 -11 -13 -6 -2 -11 4 -11 13 0
9 5 15 11 13 6 -2 11 -8 11 -13z m-3937 -175 c3 -5 2 -10 -4 -10 -5 0 -13 5
-16 10 -3 6 -2 10 4 10 5 0 13 -4 16 -10z m105 -69 c89 -46 158 -91 275 -178
61 -45 128 -96 151 -113 23 -16 45 -30 51 -30 27 0 312 -281 340 -337 38 -73
47 -87 82 -127 l34 -39 -23 -19 c-29 -23 -36 -23 -54 5 -60 87 -619 642 -714
709 -18 13 -71 50 -118 82 -117 81 -127 101 -24 47z m3951 -18 c7 -37 4 -43
-27 -43 -17 0 -24 8 -29 31 -5 22 -3 34 6 40 24 16 43 5 50 -28z m-118 -18
c18 -37 16 -40 -27 -47 -14 -2 -21 5 -28 27 -10 38 -4 55 20 55 11 0 25 -14
35 -35z m1534 13 c68 -50 110 -85 146 -122 l38 -39 -22 -23 c-37 -39 -57 -40
-93 -2 -71 74 -154 123 -188 113 -26 -9 -23 18 7 54 14 16 36 32 48 34 12 2
24 5 27 6 3 0 20 -9 37 -21z m-2389 -5 c-2 -12 -14 -19 -33 -21 -33 -3 -35 -4
-150 -57 -75 -34 -174 -70 -162 -58 22 21 119 75 152 84 22 6 45 15 51 20 10
8 117 46 137 48 5 1 7 -7 5 -16z m735 0 c3 -5 8 -23 12 -40 6 -31 5 -33 -23
-33 -24 0 -32 6 -40 29 -7 20 -7 32 1 40 13 13 44 15 50 4z m-643 -20 c-1 -21
-19 -35 -36 -29 -18 7 -18 8 0 22 22 15 36 18 36 7z m528 -18 c18 -39 15 -47
-15 -43 -28 3 -40 25 -29 54 9 22 32 16 44 -11z m-3567 -36 c35 -28 87 -66
114 -84 28 -18 64 -47 82 -66 18 -19 102 -104 187 -189 86 -85 152 -156 146
-158 -5 -2 -31 18 -57 44 -26 26 -64 58 -83 73 -50 36 -111 91 -225 201 -55
53 -132 121 -172 153 -78 62 -92 77 -70 77 8 0 43 -23 78 -51z m3387 23 c3
-18 -2 -22 -21 -22 -30 0 -43 26 -19 39 23 14 36 8 40 -17z m-198 -2 c0 -11
-7 -20 -15 -20 -15 0 -21 21 -8 33 12 13 23 7 23 -13z m-90 0 c0 -5 -4 -10
-10 -10 -5 0 -10 5 -10 10 0 6 5 10 10 10 6 0 10 -4 10 -10z m-300 -45 c0 -9
-123 -76 -195 -106 -41 -17 -85 -39 -97 -48 -13 -10 -38 -21 -55 -24 -46 -9
-150 -57 -293 -134 -30 -17 -73 -36 -95 -43 -22 -7 -44 -16 -50 -20 -5 -3 -32
-15 -60 -25 -27 -10 -68 -26 -90 -36 -22 -10 -101 -43 -175 -73 -74 -30 -148
-61 -165 -70 -16 -9 -36 -16 -43 -16 -7 0 -45 -17 -85 -39 -78 -42 -220 -101
-243 -101 -25 0 -15 15 19 29 49 20 160 71 179 81 10 6 23 10 30 10 12 0 51
19 133 64 17 9 37 16 45 16 9 0 21 5 26 10 6 6 42 19 80 30 38 11 94 33 125
50 31 16 64 30 73 30 15 0 157 67 266 127 25 13 74 37 110 53 36 16 79 37 95
46 84 47 172 86 271 118 60 20 123 45 139 56 28 18 55 26 55 15z m2499 -47
c74 -49 103 -85 126 -151 20 -59 14 -81 -28 -100 -134 -63 -189 -84 -236 -90
-29 -3 -58 -10 -65 -15 -6 -5 -22 -12 -36 -15 -14 -3 -65 -15 -115 -27 -49
-12 -126 -25 -170 -30 -44 -5 -127 -16 -184 -24 -58 -8 -108 -13 -112 -11 -3
3 -10 34 -14 70 -3 36 -11 67 -16 70 -4 3 -15 20 -24 38 -8 18 -40 55 -70 82
l-55 48 42 19 c23 11 63 21 88 24 55 6 132 24 145 35 6 4 21 7 35 7 109 -2
449 47 505 73 28 12 98 36 111 38 6 0 39 -18 73 -41z m237 -94 c-37 -35 -51
-43 -57 -33 -5 8 -7 19 -6 24 6 16 68 55 90 55 17 0 11 -9 -27 -46z m148 0
c37 -36 14 -60 -44 -44 -50 13 -75 6 -97 -26 -15 -23 -15 -26 0 -41 15 -15 18
-15 36 9 15 19 27 24 46 20 32 -6 30 -28 -7 -55 -25 -19 -31 -19 -68 -7 -22 7
-40 19 -40 27 0 26 28 68 61 93 59 44 88 50 113 24z m-1427 -96 c58 -37 133
-125 133 -156 0 -23 -8 -27 -103 -43 -42 -7 -66 -15 -64 -23 2 -7 19 -9 43 -6
68 8 137 5 141 -5 2 -6 -43 -17 -109 -27 -113 -17 -113 -17 -131 4 -10 12 -21
35 -24 50 -3 16 -10 31 -14 34 -5 3 -9 14 -9 25 0 14 -9 21 -30 26 -16 3 -30
11 -30 17 0 18 120 136 138 136 4 0 31 -15 59 -32z m-2088 -1 c-2 -2 -33 -16
-69 -32 -36 -15 -83 -40 -105 -56 -23 -15 -69 -36 -102 -47 -34 -11 -88 -34
-120 -50 -32 -16 -88 -39 -125 -51 -62 -20 -103 -37 -310 -135 -42 -20 -79
-36 -82 -36 -3 0 -31 -12 -62 -26 -55 -25 -142 -52 -194 -60 l-25 -4 25 11
c54 24 106 53 121 65 8 8 26 14 38 14 21 0 75 23 216 90 33 16 87 39 120 51
33 12 101 41 150 65 50 24 126 55 170 69 44 15 105 40 135 55 47 24 148 66
200 82 14 5 28 1 19 -5z m3285 -85 c3 -5 -18 -29 -47 -54 -38 -33 -75 -53
-137 -73 -47 -16 -96 -35 -110 -42 -14 -7 -35 -13 -48 -13 -13 0 -33 -5 -45
-12 -12 -6 -51 -15 -87 -19 -36 -4 -108 -12 -160 -18 -52 -6 -140 -15 -195
-20 -55 -6 -112 -13 -127 -17 -24 -5 -28 -3 -28 14 0 23 43 42 99 42 20 0 54
5 76 11 22 6 76 14 120 18 114 11 276 44 330 66 17 7 66 23 110 36 44 13 114
38 155 56 83 36 86 37 94 25z m-1400 -101 c9 -15 -24 -35 -88 -54 -132 -38
-169 -47 -174 -43 -5 5 104 56 119 56 5 0 28 9 52 19 71 32 83 35 91 22z m53
-67 c10 -27 -15 -38 -145 -61 -150 -26 -152 -26 -152 -13 0 6 6 10 14 10 7 0
47 12 87 26 165 57 187 61 196 38z m297 -33 c5 0 3 -8 -4 -16 -14 -16 -67 -19
-146 -8 l-49 7 65 11 c56 10 100 12 134 6z m-290 -50 c3 -4 -3 -16 -14 -26
-15 -14 -43 -18 -152 -20 -135 -3 -136 -2 -23 26 108 28 180 35 189 20z m286
-27 c0 -12 -6 -15 -22 -10 -13 3 -31 6 -41 6 -10 0 -15 5 -12 10 3 6 22 10 41
10 25 0 34 -4 34 -16z m-3445 -75 c4 -5 -3 -9 -13 -9 -17 0 -72 57 -72 75 0 8
77 -52 85 -66z m2830 51 c-3 -5 -21 -10 -38 -10 -24 0 -28 3 -17 10 20 13 63
13 55 0z m-2834 -181 c-13 -11 -26 -17 -29 -14 -8 8 20 35 37 35 12 -1 11 -5
-8 -21z"/>
<path d="M6988 975 c-35 -53 -57 -60 -109 -37 -88 40 -122 14 -83 -63 13 -27
27 -67 31 -88 6 -39 21 -54 47 -44 13 5 13 13 0 59 -22 84 -17 93 37 64 40
-20 75 -9 99 31 27 46 48 40 85 -26 58 -105 85 -69 30 41 -47 93 -51 98 -86
98 -22 0 -34 -8 -51 -35z"/>
<path d="M6640 903 c0 -15 11 -38 24 -52 26 -28 39 -70 28 -87 -4 -6 -20 -14
-35 -18 -34 -8 -45 -32 -24 -53 20 -21 58 -11 100 26 l32 29 -19 54 c-21 59
-70 128 -92 128 -9 0 -14 -10 -14 -27z"/>
<path d="M6554 896 c-10 -27 10 -91 30 -94 29 -6 36 10 24 51 -13 43 -45 68
-54 43z"/>
<path d="M6295 823 c3 -15 19 -43 34 -62 15 -20 33 -51 40 -68 15 -38 16 -38
73 -17 122 45 130 51 103 74 -11 9 -27 9 -72 0 -55 -12 -58 -11 -73 10 -39 56
-74 90 -92 90 -17 0 -19 -4 -13 -27z"/>
<path d="M6735 4459 c-4 -6 -17 -14 -29 -19 -17 -7 -13 -9 20 -9 27 -1 44 4
47 13 10 24 -24 38 -38 15z"/>
<path d="M6273 4393 c9 -2 25 -2 35 0 9 3 1 5 -18 5 -19 0 -27 -2 -17 -5z"/>
<path d="M6165 4378 c-53 -10 -83 -27 -49 -29 11 0 5 -5 -15 -10 -49 -15 -33
-19 24 -7 27 6 54 17 60 25 5 7 24 17 40 22 40 12 5 12 -60 -1z"/>
<path d="M5954 4310 c-73 -15 -126 -31 -120 -37 8 -8 166 29 166 39 0 5 -1 8
-2 7 -2 -1 -22 -5 -44 -9z"/>
<path d="M3475 3748 c-38 -11 -97 -31 -130 -44 -33 -12 -118 -42 -190 -65 -71
-23 -139 -50 -150 -59 -11 -10 -35 -25 -52 -34 -18 -9 -33 -22 -33 -29 0 -6
37 -48 81 -92 45 -44 86 -91 93 -105 46 -98 81 -123 132 -97 16 8 47 18 69 22
21 3 51 13 66 21 41 21 222 73 328 95 137 28 146 34 146 93 1 44 -4 55 -47
106 -26 32 -59 65 -73 74 -14 9 -39 39 -55 65 -23 37 -39 50 -69 59 -21 7 -40
12 -42 11 -2 0 -35 -10 -74 -21z m151 -89 c3 -5 -6 -9 -20 -9 -16 0 -26 6 -26
14 0 15 36 11 46 -5z m-64 -49 c9 0 38 -9 65 -21 45 -19 47 -21 29 -35 -11 -8
-23 -14 -28 -14 -4 0 -5 -13 -2 -30 5 -20 2 -31 -7 -34 -69 -21 -112 -42 -117
-55 -9 -26 -37 -48 -69 -55 -25 -6 -33 -3 -47 19 -9 14 -21 25 -27 25 -6 0
-40 13 -75 30 -64 30 -81 49 -44 51 11 1 29 3 40 4 11 1 48 3 83 4 73 2 97 12
79 34 -7 8 -29 18 -48 22 -44 8 -40 23 14 50 24 12 47 26 54 33 8 8 20 5 47
-9 19 -10 43 -19 53 -19z m-508 -75 c-7 -17 -20 -20 -28 -6 -4 5 0 12 6 14 23
9 28 7 22 -8z m653 -21 c-3 -3 -12 -4 -19 -1 -8 3 -5 6 6 6 11 1 17 -2 13 -5z
m91 -56 c-3 -21 -9 -23 -60 -24 -32 -1 -58 1 -58 5 0 12 63 40 93 40 24 1 28
-3 25 -21z m-661 -19 c6 -6 9 -26 6 -45 -4 -27 -2 -34 11 -34 17 0 22 -15 7
-24 -8 -5 -81 90 -81 107 0 11 45 8 57 -4z m153 -99 c0 -5 -12 -10 -26 -10
-14 0 -23 4 -19 10 3 6 15 10 26 10 10 0 19 -4 19 -10z"/>
<path d="M2740 3404 c-41 -13 -85 -24 -97 -24 -12 0 -25 -4 -28 -10 -3 -5 -21
-10 -40 -10 -19 0 -36 -4 -39 -9 -3 -5 -20 -11 -38 -14 -126 -18 -419 -81
-448 -96 -8 -4 -39 -14 -68 -20 -50 -13 -77 -31 -55 -38 6 -2 9 -12 6 -21 -5
-21 21 -57 116 -158 41 -43 81 -95 89 -114 25 -61 26 -61 115 -16 106 53 181
85 237 102 25 7 108 31 184 54 77 22 180 50 230 62 50 11 99 28 108 37 15 14
16 19 3 41 -7 14 -22 40 -31 59 -15 29 -100 149 -134 189 -14 16 -22 15 -110
-14z m132 -68 c48 -58 112 -159 113 -179 0 -11 -123 -53 -230 -79 -49 -11
-114 -29 -144 -39 -30 -11 -61 -19 -70 -19 -15 0 -61 82 -61 109 0 6 25 -7 57
-29 31 -22 62 -40 70 -40 17 0 17 24 0 42 -55 57 -107 129 -107 146 0 11 -4
24 -10 27 -5 3 -10 14 -10 23 0 24 73 -51 123 -125 23 -35 45 -63 49 -63 16 0
7 42 -17 80 -14 22 -23 40 -20 40 6 0 99 -98 119 -125 8 -11 17 -17 21 -13 12
12 -5 42 -51 93 -25 28 -58 64 -74 80 -51 56 -45 99 11 72 34 -18 140 -160
142 -194 3 -35 21 -37 25 -2 3 27 -30 84 -96 167 -19 24 -33 45 -30 47 7 8
104 43 120 44 9 1 41 -28 70 -63z m-432 -61 c0 -22 -3 -24 -19 -15 -11 5 -24
10 -30 10 -18 0 -12 -40 10 -76 11 -19 19 -41 17 -49 -2 -12 -22 2 -70 46 -38
34 -68 65 -68 69 0 10 47 28 85 33 71 9 75 8 75 -18z m155 -15 c3 -5 1 -10 -4
-10 -6 0 -11 5 -11 10 0 6 2 10 4 10 3 0 8 -4 11 -10z m-350 -10 c-4 -6 0 -24
9 -40 18 -37 11 -37 -33 -1 -37 31 -35 51 5 51 15 0 23 -4 19 -10z m-112 -37
c20 -43 58 -103 66 -103 4 0 13 -11 19 -25 6 -14 9 -25 6 -25 -4 0 -32 24 -63
54 -31 30 -68 64 -83 76 -34 26 -35 37 -5 43 43 8 48 7 60 -20z m-100 -57 c43
-68 97 -135 156 -193 30 -29 52 -55 50 -57 -2 -2 -14 -8 -26 -15 -17 -9 -25
-8 -37 5 -9 8 -16 18 -16 22 0 4 -39 48 -86 97 -95 101 -134 162 -112 176 26
17 43 8 71 -35z m194 7 c11 -10 43 -46 72 -80 58 -69 87 -82 76 -34 -3 16 -15
46 -25 67 -11 21 -18 40 -15 42 6 6 152 -131 152 -143 0 -5 -37 -24 -81 -41
-45 -16 -91 -36 -103 -42 -32 -18 -38 -15 -56 23 -14 29 -14 35 -2 35 7 0 17
-4 20 -10 12 -19 45 -11 45 10 0 18 -54 104 -87 138 -39 40 -35 70 4 35z"/>
<path d="M2750 3329 c0 -12 162 -179 174 -179 23 0 -5 43 -71 111 -74 74 -103
94 -103 68z"/>
<path d="M3700 3247 c-20 -6 -58 -25 -86 -40 -43 -24 -53 -36 -68 -77 -10 -27
-19 -82 -21 -123 -4 -70 -2 -79 33 -148 73 -144 159 -199 311 -199 63 0 77 3
103 25 16 14 35 25 42 25 48 0 146 193 146 288 0 51 -2 55 -57 112 -32 33 -69
71 -81 84 -13 14 -47 33 -75 41 -71 22 -203 28 -247 12z m60 -42 c0 -2 -11
-10 -24 -17 -13 -7 -54 -41 -91 -76 -66 -62 -95 -70 -81 -24 9 28 63 95 89
109 21 12 107 18 107 8z m90 -76 c0 -6 -4 -7 -10 -4 -5 3 -10 11 -10 16 0 6 5
7 10 4 6 -3 10 -11 10 -16z m70 1 c0 -5 -4 -10 -10 -10 -5 0 -10 5 -10 10 0 6
5 10 10 10 6 0 10 -4 10 -10z m-180 -20 c0 -5 -4 -10 -9 -10 -6 0 -13 5 -16
10 -3 6 1 10 9 10 9 0 16 -4 16 -10z m-17 -70 c24 -43 10 -56 -31 -27 -34 24
-39 36 -20 55 17 17 29 11 51 -28z m367 -65 c0 -32 -14 -32 -28 0 -6 14 -18
25 -26 25 -22 0 -28 17 -15 42 l12 22 28 -32 c16 -18 29 -43 29 -57z m-153 59
c-3 -3 -12 -4 -19 -1 -8 3 -5 6 6 6 11 1 17 -2 13 -5z m0 -50 c2 -7 -12 -22
-32 -34 -32 -20 -38 -21 -51 -8 -17 17 -9 45 14 51 28 8 65 3 69 -9z m-197
-60 c0 -19 -12 -23 -39 -13 -18 7 -21 12 -12 23 14 16 51 9 51 -10z m-10 -99
c0 -41 -11 -58 -24 -37 -8 13 5 82 15 82 5 0 9 -20 9 -45z m310 37 c0 -5 -9
-17 -20 -27 -23 -21 -47 -8 -37 19 7 16 57 23 57 8z m-225 -52 c23 -24 26 -32
15 -45 -16 -19 -25 -19 -44 1 -16 16 -22 74 -8 74 5 0 21 -13 37 -30z m196
-71 c-43 -39 -92 -59 -143 -59 -28 0 -39 18 -15 24 89 24 158 50 172 66 10 11
21 17 24 14 3 -3 -14 -23 -38 -45z"/>
<path d="M1743 3183 c-41 -14 -58 -43 -34 -58 5 -3 12 -18 16 -34 6 -30 26
-41 75 -41 l24 0 -23 -16 c-19 -14 -22 -22 -17 -49 4 -21 2 -36 -5 -41 -23
-14 -85 -25 -135 -24 -57 1 -77 -13 -67 -48 5 -21 7 -22 23 -7 15 13 23 14 40
5 24 -13 60 -5 60 14 0 16 130 46 196 46 60 0 54 19 -12 37 -66 20 -75 30 -44
53 20 16 22 20 8 20 -10 0 -18 7 -18 15 0 8 -10 20 -22 26 l-21 11 24 19 c21
16 22 21 11 39 -7 12 -8 20 -2 20 5 0 10 7 10 15 0 18 -30 18 -87 -2z"/>
<path d="M1473 3074 c-7 -3 -13 -14 -13 -24 0 -23 17 -36 60 -45 19 -4 42 -16
51 -27 14 -18 19 -19 40 -7 13 7 37 15 52 18 47 10 30 26 -24 23 -58 -3 -86 9
-91 40 -2 18 -10 23 -33 25 -16 1 -36 0 -42 -3z"/>
<path d="M1289 3063 c-1 -5 -2 -19 -3 -32 -1 -18 -8 -27 -26 -31 -20 -5 -32 0
-58 29 l-34 35 -16 -21 c-9 -12 -44 -29 -77 -39 -63 -19 -81 -32 -65 -48 7 -7
14 -6 22 2 19 19 53 14 84 -14 l29 -25 -22 -16 c-13 -8 -23 -19 -23 -24 0 -14
36 -10 49 5 6 7 24 16 39 19 16 4 34 18 44 36 13 24 29 34 77 47 63 18 78 33
61 65 -8 13 -21 19 -45 19 -19 0 -36 -3 -36 -7z m-99 -77 c0 -21 -17 -29 -46
-22 -42 11 -25 31 29 35 9 0 17 -5 17 -13z"/>
<path d="M3264 3006 c-34 -11 -69 -27 -78 -35 -15 -12 -21 -10 -49 17 -33 32
-57 41 -57 22 0 -5 26 -45 58 -88 64 -87 97 -156 136 -284 30 -97 42 -107 97
-84 36 15 40 16 65 16 8 0 13 3 11 8 -3 4 17 8 44 9 63 1 82 16 73 57 -3 17
-15 40 -25 52 -10 11 -19 25 -19 31 0 6 -7 16 -16 23 -8 8 -35 56 -60 109 -87
188 -80 183 -180 147z m111 -87 c11 -17 -1 -21 -15 -4 -8 9 -8 15 -2 15 6 0
14 -5 17 -11z m-147 -18 c11 -7 10 -10 -3 -15 -20 -7 -38 1 -30 15 7 11 16 11
33 0z m196 -71 c13 -27 20 -50 15 -50 -5 0 -9 3 -9 8 0 4 -11 20 -25 36 -26
30 -33 56 -15 56 5 0 21 -22 34 -50z m-33 -160 c16 -25 17 -25 38 -6 12 11 24
16 29 12 8 -9 -34 -46 -52 -46 -24 0 -87 87 -86 118 1 9 50 -45 71 -78z m-81
15 c0 -8 18 -32 40 -54 22 -22 40 -42 40 -45 0 -3 -15 -6 -34 -6 -33 0 -36 3
-55 56 -20 53 -20 81 0 69 5 -4 9 -12 9 -20z m195 15 c-3 -5 -11 -10 -16 -10
-6 0 -7 5 -4 10 3 6 11 10 16 10 6 0 7 -4 4 -10z m28 -64 c7 -19 -1 -26 -30
-26 -25 0 -29 10 -11 28 16 16 35 15 41 -2z"/>
<path d="M1953 3005 c-3 -9 -3 -18 0 -21 9 -9 27 6 27 22 0 19 -19 18 -27 -1z"/>
<path d="M900 2931 c-55 -34 -62 -55 -21 -69 33 -12 37 -22 20 -53 -8 -16 -7
-25 6 -39 14 -16 28 -18 74 -15 31 2 62 4 69 4 7 1 10 6 7 11 -3 6 -30 10 -60
10 -30 0 -57 4 -60 10 -3 5 6 21 21 35 22 21 25 27 14 40 -7 8 -23 15 -36 15
-35 0 -36 14 -4 39 28 20 40 42 23 40 -5 0 -28 -13 -53 -28z"/>
<path d="M1363 2938 c-27 -13 -29 -26 -7 -56 20 -28 34 -28 31 1 -2 18 2 21
23 19 61 -7 73 -6 77 6 5 13 -54 42 -84 41 -10 0 -28 -5 -40 -11z"/>
<path d="M2781 2929 c-42 -19 -43 -20 -27 -38 20 -22 56 -17 63 10 3 10 14 21
24 24 20 7 17 26 -4 24 -7 0 -32 -9 -56 -20z"/>
<path d="M2515 2910 c-25 -27 -12 -66 30 -91 l34 -20 -20 -20 c-25 -25 -18
-34 25 -31 22 2 38 -4 51 -18 24 -26 39 -25 59 5 22 33 20 48 -9 75 -15 14
-25 35 -25 51 0 57 -105 93 -145 49z m89 -26 c20 -19 20 -28 1 -44 -29 -24
-89 16 -65 45 16 19 44 19 64 -1z"/>
<path d="M1242 2903 c4 -21 33 -25 33 -3 0 8 -8 16 -18 18 -14 3 -18 -1 -15
-15z"/>
<path d="M1960 2890 c0 -5 -10 -10 -23 -10 -43 0 -64 -43 -27 -55 25 -8 80
-63 80 -80 0 -7 -19 -20 -42 -27 -26 -9 -44 -22 -47 -33 -2 -15 1 -17 20 -11
34 10 119 33 152 40 36 8 35 32 -2 39 -20 4 -31 13 -33 28 -2 15 -14 26 -33
32 -40 13 -41 14 -20 37 9 10 15 26 12 35 -7 17 -37 21 -37 5z"/>
<path d="M2875 2885 c-5 -2 -26 -6 -46 -9 -39 -7 -79 -35 -79 -56 0 -8 8 -10
23 -6 65 19 74 18 80 -3 3 -12 -1 -28 -9 -35 -21 -22 -17 -26 20 -26 19 0 38
-5 42 -12 5 -7 10 -4 15 10 6 17 2 28 -16 46 -30 30 -32 52 -5 66 36 19 16 39
-25 25z"/>
<path d="M1422 2828 c-21 -21 -13 -46 23 -74 19 -14 35 -34 35 -43 0 -29 30
-61 57 -61 21 0 23 -2 13 -15 -6 -8 -9 -23 -5 -35 6 -18 13 -21 48 -18 50 4
61 27 22 48 -14 7 -25 19 -25 26 0 7 -17 16 -37 20 -54 10 -57 13 -33 39 24
26 20 45 -11 45 -24 0 -59 17 -59 29 0 4 11 13 25 19 14 6 25 16 25 22 0 14
-63 13 -78 -2z"/>
<path d="M672 2818 c-15 -15 -15 -51 0 -66 16 -16 28 -15 28 3 0 11 11 15 35
15 42 0 58 25 30 46 -23 17 -77 18 -93 2z"/>
<path d="M1198 2819 c-32 -18 -22 -52 22 -77 42 -24 49 -42 25 -62 -25 -21
-17 -39 22 -49 42 -12 56 -5 30 13 -23 18 -22 25 9 36 20 8 31 6 53 -9 l27
-19 -1 26 c0 20 5 28 23 30 12 2 22 7 22 12 0 14 -55 21 -84 10 -30 -11 -69
-5 -103 18 -37 23 -27 34 29 30 62 -4 73 12 24 36 -39 18 -73 20 -98 5z"/>
<path d="M2400 2801 c5 -11 10 -22 10 -25 0 -12 -47 -5 -84 13 -39 19 -66 18
-66 -1 0 -20 31 -68 45 -68 18 0 19 12 3 28 -22 22 0 24 48 3 73 -33 107 -9
68 47 -19 28 -39 30 -24 3z"/>
<path d="M1727 2761 c-42 -14 -76 -30 -74 -35 2 -6 29 -23 59 -38 56 -27 56
-28 45 -57 -9 -25 -8 -33 8 -50 40 -45 141 -9 114 40 -6 12 -24 28 -40 37 -16
10 -29 23 -29 30 0 7 -5 21 -12 32 -10 16 -9 23 12 45 29 31 20 30 -83 -4z
m23 -53 c0 -13 -23 -5 -28 10 -2 7 2 10 12 6 9 -3 16 -11 16 -16z"/>
<path d="M2154 2746 c-8 -22 3 -33 18 -18 9 9 9 15 0 24 -9 9 -13 7 -18 -6z"/>
<path d="M748 2729 c-33 -19 -22 -58 30 -105 42 -39 52 -44 95 -44 26 0 47 -3
47 -7 0 -4 -10 -17 -22 -30 -17 -18 -19 -26 -10 -35 9 -9 19 -4 42 22 34 38
35 43 15 60 -8 7 -13 16 -10 20 11 18 -25 31 -68 25 -32 -5 -53 -2 -76 9 -33
18 -36 23 -21 46 8 13 13 13 41 -2 44 -26 69 -23 69 6 0 18 -8 27 -31 35 -39
14 -78 14 -101 0z"/>
<path d="M1021 2727 c-20 -20 -11 -45 28 -76 30 -24 39 -38 38 -59 -2 -27 -1
-27 52 -25 47 2 57 -1 78 -23 29 -32 29 -44 0 -44 -27 0 -54 -19 -58 -40 -6
-29 11 -68 31 -73 11 -3 24 -16 29 -30 7 -17 20 -26 45 -31 44 -8 53 -22 30
-47 -23 -26 -7 -42 26 -26 14 7 26 21 28 32 3 26 -42 72 -97 99 -52 25 -70 53
-26 42 56 -14 86 18 44 47 -18 13 -19 18 -8 35 16 25 2 45 -52 72 -29 15 -36
24 -32 40 5 17 1 20 -28 20 -26 0 -30 3 -21 12 19 19 14 46 -10 59 -37 20 -85
28 -97 16z m74 -37 c4 -6 4 -18 1 -26 -4 -12 -10 -13 -26 -4 -11 6 -20 17 -20
25 0 17 36 20 45 5z"/>
<path d="M2910 2684 c-13 -33 -13 -34 8 -34 29 0 62 -42 55 -68 -6 -26 12 -52
38 -52 19 0 22 -7 20 -45 0 -14 12 -26 44 -42 34 -17 45 -19 45 -8 0 7 -11 22
-25 32 -13 10 -26 29 -29 43 -2 14 -5 30 -7 35 -1 6 1 18 5 28 13 29 -1 46
-44 53 -31 5 -40 11 -40 26 0 11 9 22 20 25 11 3 20 12 20 19 0 10 -14 14 -50
14 -45 0 -52 -3 -60 -26z"/>
<path d="M2062 2687 c-12 -6 -22 -19 -22 -29 0 -16 6 -18 37 -16 28 2 38 -1
41 -14 2 -10 -5 -19 -18 -23 -12 -4 -19 -12 -17 -18 5 -15 48 -11 65 7 10 10
9 17 -8 38 -11 15 -20 33 -20 41 0 19 -30 26 -58 14z"/>
<path d="M2683 2690 c-51 -8 -61 -15 -46 -38 10 -16 22 -19 52 -11 7 2 16 -1
18 -8 2 -7 -7 -15 -21 -19 -35 -8 -34 -39 2 -52 30 -10 102 -73 102 -88 0 -23
21 -32 51 -21 16 6 29 16 29 21 0 13 -32 35 -52 36 -10 0 -27 9 -38 20 -17 17
-18 24 -8 45 8 19 8 34 -1 63 -16 48 -35 59 -88 52z"/>
<path d="M2444 2673 c1 -15 -8 -18 -54 -18 -63 0 -73 -15 -43 -61 l18 -28 5
29 c4 23 10 29 25 26 57 -10 90 -6 93 12 4 18 -23 57 -38 57 -4 0 -7 -8 -6
-17z"/>
<path d="M4364 2656 c-18 -8 -36 -22 -42 -32 -8 -14 -21 -17 -54 -16 -31 2
-49 -2 -58 -13 -7 -8 -22 -15 -35 -15 -35 0 -89 -21 -107 -41 -9 -11 -24 -19
-33 -19 -21 0 -68 -25 -84 -44 -11 -13 -11 -16 1 -16 8 0 19 5 25 11 20 20 72
13 101 -13 15 -15 36 -28 47 -31 17 -4 18 -5 2 -6 -13 -1 -17 -8 -15 -23 4
-26 26 -35 34 -14 9 24 -3 61 -31 94 -24 28 -24 30 -6 46 37 33 70 11 92 -61
7 -25 18 -43 27 -43 11 0 13 14 11 68 -4 64 -3 67 19 70 30 5 72 -33 72 -65 0
-26 12 -30 30 -8 10 12 10 24 0 61 -11 39 -11 47 2 61 22 21 48 9 82 -38 36
-51 56 -40 37 21 -8 28 -22 47 -44 60 -37 23 -33 23 -73 6z"/>
<path d="M1358 2573 c-10 -2 -18 -13 -18 -24 0 -10 8 -27 18 -37 9 -10 22 -26
27 -35 6 -9 26 -18 45 -20 31 -3 35 -7 32 -30 -3 -32 11 -42 38 -25 28 18 25
33 -10 65 -26 23 -29 31 -24 60 5 29 3 34 -21 43 -27 10 -56 11 -87 3z"/>
<path d="M2611 2534 c-14 -31 -10 -38 17 -30 22 7 36 32 26 47 -10 17 -31 9
-43 -17z"/>
<path d="M1618 2542 c-24 -5 -23 -44 0 -65 23 -21 33 -22 26 -2 -5 12 2 15 30
15 20 0 36 4 36 9 0 21 -62 50 -92 43z"/>
<path d="M1837 2524 c-12 -13 -8 -51 8 -64 8 -7 15 -18 15 -26 0 -17 25 -30
78 -39 34 -5 42 -4 42 8 0 9 3 22 6 30 3 9 -3 17 -18 21 -13 3 -30 20 -38 38
-12 27 -21 34 -50 36 -20 2 -39 0 -43 -4z m64 -59 c1 -17 -18 -17 -25 0 -4 11
-1 15 10 13 8 -2 15 -7 15 -13z"/>
<path d="M987 2488 c-13 -20 -18 -21 -36 -10 -31 18 -41 15 -41 -13 0 -28 31
-49 59 -40 11 3 27 17 36 31 12 19 23 25 41 21 27 -5 34 17 8 27 -30 11 -52 6
-67 -16z"/>
<path d="M2292 2488 c3 -22 7 -23 80 -22 43 1 91 4 108 7 28 6 30 5 20 -13
-16 -31 -12 -54 20 -97 20 -26 42 -44 60 -48 33 -7 39 -19 15 -29 -8 -3 -15
-13 -15 -22 0 -13 7 -15 38 -9 59 11 79 38 47 65 -8 7 -15 21 -15 32 0 12 -11
23 -29 29 -18 6 -32 20 -35 35 -4 14 -20 33 -36 42 -27 17 -28 19 -13 35 22
22 11 22 -87 1 -89 -20 -121 -19 -133 1 -12 23 -29 18 -25 -7z"/>
<path d="M2195 2482 c-45 -8 -49 -11 -31 -30 9 -10 16 -26 16 -35 0 -22 19
-21 48 2 41 35 22 73 -33 63z"/>
<path d="M4683 2453 c-13 -8 -23 -23 -23 -33 0 -21 31 -50 53 -50 8 0 22 -6
29 -14 27 -27 73 -44 106 -39 27 5 32 2 32 -15 0 -45 56 -67 95 -38 14 10 19
24 17 50 -2 25 2 38 13 42 21 8 19 31 -4 37 -32 8 -50 -10 -45 -46 3 -17 1
-38 -5 -46 -15 -22 -61 17 -54 46 3 13 3 30 -1 38 -7 20 -36 8 -36 -15 0 -22
-37 -37 -53 -21 -12 12 14 47 44 56 11 4 19 11 19 17 0 10 -32 7 -77 -7 -17
-5 -24 -1 -35 22 -15 33 -44 39 -75 16z m47 -39 c0 -14 -21 -19 -33 -7 -9 9
13 34 24 27 5 -3 9 -12 9 -20z"/>
<path d="M2870 2433 c0 -25 15 -38 25 -22 4 6 0 18 -9 27 -15 15 -16 15 -16
-5z"/>
<path d="M6815 2435 l-40 -14 40 6 c42 6 85 23 55 22 -8 0 -33 -7 -55 -14z"/>
<path d="M1716 2433 c-3 -4 -25 -9 -48 -12 -56 -8 -63 -31 -9 -31 51 0 91 15
91 35 0 15 -21 21 -34 8z"/>
<path d="M3826 2421 c-15 -16 -22 -18 -41 -9 -26 11 -75 4 -75 -12 0 -5 11
-12 24 -16 34 -8 69 -48 70 -80 1 -38 24 -42 37 -7 8 20 8 36 0 58 -9 23 -8
32 3 43 18 18 43 3 76 -45 13 -18 28 -32 34 -30 21 7 16 33 -14 75 -25 35 -36
42 -64 42 -20 0 -40 -8 -50 -19z"/>
<path d="M6697 2414 c-3 -4 -21 -10 -39 -15 -25 -7 -20 -7 21 -3 65 6 104 23
55 24 -17 0 -33 -3 -37 -6z"/>
<path d="M4250 2386 c-25 -13 -64 -34 -87 -45 -48 -24 -60 -56 -17 -45 19 5
29 1 40 -15 8 -11 23 -21 33 -21 23 0 45 -25 36 -41 -13 -20 17 -28 47 -13 16
8 38 12 53 8 29 -7 30 -10 9 -31 -8 -9 -14 -25 -12 -36 4 -25 62 -57 105 -57
29 0 32 -3 35 -32 2 -28 10 -37 48 -55 24 -13 40 -23 35 -23 -4 0 2 -11 15
-25 13 -14 29 -25 36 -25 7 0 20 -10 28 -22 l16 -23 43 22 c23 12 57 27 75 33
31 12 42 33 22 45 -6 3 -26 1 -45 -6 -31 -12 -37 -11 -57 8 -13 11 -36 25 -53
30 -16 5 -35 20 -42 34 -17 32 -42 49 -74 49 -24 0 -27 4 -26 26 1 17 -6 31
-20 41 -22 15 -23 14 -23 -11 0 -25 -3 -27 -32 -24 -35 3 -52 28 -19 28 28 0
35 17 11 30 -11 6 -20 15 -20 21 0 6 -11 25 -25 44 -18 23 -32 31 -45 28 -14
-4 -21 1 -26 21 -3 14 -14 28 -24 31 -32 10 -31 33 1 44 17 6 28 15 24 21 -9
14 -15 13 -65 -14z m10 -86 c0 -15 -37 -12 -43 4 -3 8 -3 17 0 20 8 7 43 -12
43 -24z m300 -256 c0 -17 -22 -14 -28 4 -2 7 3 12 12 12 9 0 16 -7 16 -16z"/>
<path d="M2243 2373 c-8 -21 54 -140 84 -160 18 -12 20 -18 11 -33 -15 -23 1
-45 38 -54 14 -4 43 -18 65 -31 21 -14 44 -25 50 -25 23 0 0 26 -50 57 -47 28
-62 48 -36 48 24 1 18 20 -7 23 -24 3 -27 8 -30 45 -3 39 -5 42 -35 45 -34 3
-45 25 -18 36 20 7 19 29 -3 49 -24 22 -61 22 -69 0z"/>
<path d="M1062 2360 c-7 -11 -21 -20 -32 -20 -14 0 -20 -7 -20 -24 0 -17 -11
-31 -35 -46 -60 -37 -41 -60 23 -28 40 19 44 19 68 3 21 -13 24 -21 19 -45 -6
-27 -3 -31 34 -46 36 -14 41 -20 41 -48 0 -40 15 -56 53 -56 31 0 57 20 57 43
0 18 -29 44 -55 49 -15 2 -19 10 -17 31 3 21 -3 31 -25 43 -25 15 -28 23 -29
69 -1 28 -7 61 -13 73 -15 28 -52 29 -69 2z m93 -170 c3 -6 -1 -13 -10 -16
-19 -8 -30 0 -20 15 8 14 22 14 30 1z m65 -90 c0 -5 -7 -10 -15 -10 -8 0 -15
5 -15 10 0 6 7 10 15 10 8 0 15 -4 15 -10z"/>
<path d="M1739 2365 c-54 -17 -84 -46 -74 -72 6 -16 9 -15 28 8 12 15 34 29
50 33 24 6 30 2 48 -29 12 -19 24 -35 29 -35 4 0 7 25 6 55 -1 63 -6 65 -87
40z"/>
<path d="M1916 2351 c-22 -24 -10 -51 36 -79 32 -20 35 -20 85 -4 59 19 65 28
27 38 -15 4 -23 12 -20 19 15 41 -95 63 -128 26z m71 -27 c10 -25 -10 -35 -36
-18 -18 13 -20 18 -10 25 21 13 39 11 46 -7z"/>
<path d="M3610 2364 c-8 -4 -22 -16 -31 -27 -15 -18 -20 -19 -46 -8 -37 15
-78 1 -88 -29 -6 -18 -12 -21 -37 -16 -18 3 -41 0 -58 -9 -16 -8 -41 -15 -55
-15 -30 0 -66 -17 -78 -36 -4 -8 -24 -14 -43 -14 -19 0 -51 -9 -71 -20 -21
-11 -45 -20 -54 -20 -10 0 -28 -13 -41 -29 -20 -23 -30 -27 -57 -23 -24 3 -38
-1 -56 -18 -21 -20 -27 -21 -59 -10 -32 10 -39 9 -62 -9 -18 -14 -41 -21 -70
-21 -32 0 -44 -4 -44 -15 0 -9 9 -15 25 -15 35 0 85 -48 94 -90 4 -19 11 -34
16 -32 11 3 11 73 0 115 -6 23 -4 27 12 27 30 0 55 -34 56 -76 3 -51 23 -54
37 -5 8 29 7 46 -2 65 -29 65 54 58 85 -7 31 -63 56 -44 32 25 -20 59 -19 65
16 77 28 10 34 8 59 -19 15 -16 28 -41 28 -55 0 -14 3 -29 7 -33 10 -10 36 29
31 47 -3 9 -8 32 -11 52 -6 34 -5 37 21 43 35 9 74 -27 77 -70 2 -18 8 -29 17
-29 22 0 24 58 4 100 -13 28 -14 38 -4 50 17 20 24 19 59 -11 19 -16 31 -35
31 -50 0 -16 6 -24 16 -24 14 0 16 8 11 55 -5 48 -3 55 12 55 26 0 41 -21 41
-57 0 -26 4 -33 19 -33 27 0 36 35 20 82 -11 34 -10 41 4 55 27 28 64 3 78
-52 9 -34 16 -45 28 -43 12 3 16 15 17 48 1 56 11 87 32 95 25 9 66 -28 76
-68 11 -41 20 -46 36 -18 16 31 12 58 -14 86 -25 27 -84 41 -116 29z"/>
<path d="M1605 2279 c9 -39 -4 -49 -68 -49 -41 0 -50 3 -54 20 -8 30 -61 28
-72 -3 -5 -13 -23 -30 -40 -37 -17 -7 -31 -20 -31 -29 0 -9 22 -40 50 -70 32
-35 50 -64 52 -84 3 -31 28 -52 28 -23 0 11 9 16 29 16 31 0 54 21 32 28 -7 2
-16 15 -21 28 -7 16 -17 24 -34 24 -27 0 -42 15 -26 25 18 11 11 42 -12 52
-22 10 -21 11 13 21 20 5 49 7 63 5 39 -8 142 16 161 37 15 17 15 19 -7 34
-12 9 -28 16 -35 16 -7 0 -13 5 -13 10 0 6 -5 10 -11 10 -7 0 -8 -11 -4 -31z"/>
<path d="M3976 2269 c-33 -26 -34 -57 0 -69 14 -6 37 -24 52 -42 44 -53 65
-69 108 -88 23 -10 45 -23 48 -29 4 -6 25 -11 47 -11 43 0 47 -5 24 -30 -14
-15 -14 -18 0 -30 13 -11 19 -10 35 5 28 26 25 50 -11 85 -26 24 -41 30 -75
30 -44 0 -94 17 -94 32 0 4 15 8 34 8 37 0 62 21 52 45 -3 10 -19 15 -45 15
-25 0 -41 5 -45 15 -4 11 -20 15 -56 15 -53 0 -63 11 -30 32 11 7 20 18 20 25
0 20 -34 15 -64 -8z"/>
<path d="M7114 2258 c-4 -6 7 -22 26 -38 28 -23 32 -30 25 -58 -13 -61 -92
-96 -273 -120 -40 -6 -79 -15 -87 -22 -7 -6 -16 -29 -20 -50 -8 -49 11 -94 43
-98 18 -3 22 -8 17 -20 -4 -9 -12 -32 -17 -51 -5 -18 -19 -51 -30 -73 -18 -35
-24 -39 -47 -34 -48 12 -55 11 -59 -6 -2 -12 5 -21 22 -28 30 -11 33 -31 10
-51 -11 -9 -50 -13 -130 -14 -102 0 -116 -2 -135 -21 -28 -28 -21 -48 38 -107
74 -74 129 -107 178 -107 131 0 260 114 258 229 -1 55 -26 121 -46 121 -19 0
-31 74 -16 101 6 12 8 32 5 45 -5 20 -1 24 31 33 41 10 108 14 216 12 59 -1
67 -3 67 -20 0 -11 5 -23 10 -26 6 -3 10 -15 10 -27 0 -18 -4 -19 -32 -14
-103 20 -128 19 -153 -4 -14 -13 -25 -32 -25 -43 0 -29 73 -94 120 -108 36
-11 47 -10 93 9 29 12 58 22 65 22 6 0 31 18 54 40 24 22 46 40 49 40 3 0 19
-12 34 -26 l27 -25 -21 -23 c-26 -27 -28 -48 -3 -39 24 8 62 44 62 58 0 6 -19
32 -42 57 -24 26 -50 57 -59 70 -15 21 -19 22 -42 9 -23 -12 -29 -12 -52 3
-28 19 -34 56 -8 56 29 0 125 54 149 85 13 17 28 35 33 41 4 5 11 32 15 58 l8
48 -53 49 c-60 56 -90 64 -187 55 -52 -5 -72 -3 -87 8 -24 19 -32 19 -41 4z
m260 -145 c7 -16 15 -48 17 -72 4 -42 1 -47 -30 -68 -44 -30 -65 -30 -57 0 4
12 11 47 17 77 10 52 25 90 34 90 3 0 11 -12 19 -27z m-244 -67 c0 -33 -11
-38 -58 -27 -26 5 -56 4 -86 -3 -59 -15 -71 -27 -57 -54 18 -34 13 -40 -36
-50 -61 -14 -83 -2 -83 43 0 43 22 65 65 65 42 0 195 29 215 41 26 15 40 10
40 -15z m146 -13 c-10 -10 -19 5 -10 18 6 11 8 11 12 0 2 -7 1 -15 -2 -18z
m-208 -82 c10 -6 9 -10 -7 -14 -21 -5 -36 5 -24 17 8 8 15 7 31 -3z m253 -174
c-17 -17 -22 -3 -8 26 11 25 12 25 15 6 2 -12 -1 -26 -7 -32z m-169 1 c28 -10
46 -56 32 -79 -12 -21 -81 -3 -108 27 -30 34 -32 49 -8 63 17 10 35 8 84 -11z
m-268 -141 c28 -20 26 -93 -3 -141 -45 -72 -158 -118 -239 -97 -46 13 -152
118 -152 151 0 25 24 30 137 27 63 -1 96 2 104 11 7 6 21 12 32 12 17 0 18 -5
12 -42 -4 -24 -8 -47 -9 -52 0 -5 4 -10 10 -12 12 -5 44 57 44 85 0 10 7 24
15 31 8 7 15 19 15 26 0 18 11 18 34 1z"/>
<path d="M2031 2231 c-20 -13 -6 -65 15 -57 9 3 27 6 40 6 32 0 43 28 19 46
-21 16 -53 18 -74 5z"/>
<path d="M4995 2230 c-8 -13 3 -30 20 -30 23 0 27 18 6 30 -13 7 -22 7 -26 0z"/>
<path d="M1765 2210 c-7 -12 2 -30 16 -30 12 0 12 27 0 35 -5 3 -12 1 -16 -5z"/>
<path d="M2627 2213 c-11 -11 -8 -20 9 -27 23 -9 37 3 23 20 -13 15 -22 18
-32 7z"/>
<path d="M3762 2194 c-12 -8 -22 -23 -22 -32 0 -9 -12 -28 -26 -43 -24 -25
-24 -27 -8 -44 27 -27 114 -5 114 30 0 6 9 20 20 30 28 25 25 53 -6 65 -35 14
-46 13 -72 -6z"/>
<path d="M1583 2174 c-5 -12 4 -26 28 -46 27 -22 31 -31 20 -37 -23 -14 -5
-38 33 -45 47 -9 54 -24 17 -37 -30 -11 -39 -23 -23 -33 15 -9 87 22 90 39 2
9 -6 23 -17 31 -12 9 -21 23 -21 33 0 9 -5 22 -12 29 -7 7 -17 27 -22 44 -10
29 -16 33 -49 36 -28 2 -39 -1 -44 -14z"/>
<path d="M2050 2145 c-10 -13 -10 -19 5 -35 17 -19 17 -21 -1 -41 -10 -11 -19
-30 -19 -42 0 -18 -8 -23 -47 -30 -27 -5 -48 -14 -48 -19 0 -6 16 -7 38 -3 21
3 80 8 131 9 123 4 140 22 26 28 -65 4 -74 30 -18 54 37 15 37 16 16 27 -27
12 -29 24 -6 49 15 17 14 18 -24 18 -24 0 -46 -6 -53 -15z"/>
<path d="M3530 2094 c0 -3 16 -12 35 -20 45 -18 37 -34 -18 -34 -61 0 -87 -10
-87 -31 0 -19 28 -39 54 -39 9 0 16 9 16 20 0 15 7 20 29 20 40 0 81 17 81 33
0 15 -69 57 -94 57 -9 0 -16 -2 -16 -6z"/>
<path d="M3900 2089 c-31 -13 -38 -24 -32 -55 5 -26 47 -54 82 -54 17 0 20 -4
15 -20 -10 -31 2 -40 33 -24 15 8 44 17 65 20 20 4 37 9 37 13 -1 20 -21 28
-70 27 -79 -1 -130 16 -130 41 0 15 11 15 82 -3 21 -5 29 -2 34 11 14 37 -63
66 -116 44z"/>
<path d="M2265 2070 c3 -5 15 -10 26 -10 10 0 19 5 19 10 0 6 -12 10 -26 10
-14 0 -23 -4 -19 -10z"/>
<path d="M1236 2031 c-50 -10 -45 -32 6 -30 29 2 53 -3 68 -14 32 -22 47 -22
28 1 -8 9 -18 25 -21 35 -7 18 -28 20 -81 8z"/>
<path d="M4120 2011 c0 -12 5 -21 10 -21 6 0 10 6 10 14 0 8 -4 18 -10 21 -5
3 -10 -3 -10 -14z"/>
<path d="M2560 1995 c-25 -13 -24 -14 20 -17 38 -3 47 -7 59 -32 10 -22 11
-37 3 -62 -7 -23 -7 -36 0 -40 20 -12 39 23 40 74 1 43 -3 54 -23 71 -28 24
-64 26 -99 6z"/>
<path d="M3346 1993 c-49 -13 -62 -63 -21 -81 34 -16 67 -15 90 1 14 11 16 21
11 50 -6 32 -10 37 -34 36 -15 -1 -36 -4 -46 -6z m24 -41 c0 -13 -12 -22 -22
-16 -10 6 -1 24 13 24 5 0 9 -4 9 -8z"/>
<path d="M3635 1986 c-27 -10 -30 -15 -27 -46 3 -33 26 -70 43 -70 5 0 6 14 2
31 -6 31 -5 32 22 25 78 -20 85 -19 85 2 0 16 -23 52 -33 52 -1 0 -16 4 -32 8
-18 5 -42 4 -60 -2z"/>
<path d="M1480 1964 c-14 -37 -12 -61 6 -68 24 -9 26 -8 19 14 -7 22 2 25 41
10 30 -12 56 2 48 25 -5 11 -77 45 -97 45 -4 0 -12 -12 -17 -26z"/>
<path d="M2402 1968 c-19 -19 -15 -40 7 -33 42 13 100 -29 101 -72 0 -28 14
-37 30 -18 14 17 7 69 -12 92 -14 17 -73 43 -97 43 -9 0 -22 -5 -29 -12z"/>
<path d="M6650 1961 c0 -22 35 -55 49 -46 7 4 6 14 -5 30 -20 31 -44 40 -44
16z"/>
<path d="M3220 1929 c-7 -13 -8 -25 -3 -30 6 -6 14 0 21 15 14 31 -3 45 -18
15z"/>
<path d="M4094 1926 c-53 -24 -86 -59 -78 -81 6 -15 54 -38 63 -30 3 4 -2 11
-12 16 -22 13 -22 28 1 45 46 35 86 -1 51 -45 -11 -13 -19 -31 -19 -40 0 -24
34 -58 75 -76 23 -9 35 -21 35 -34 0 -28 11 -32 52 -19 46 14 88 4 88 -22 0
-10 -16 -31 -35 -46 -24 -18 -33 -30 -26 -37 15 -15 79 20 96 53 15 29 14 31
-11 52 -15 13 -34 31 -42 40 -9 10 -39 20 -71 24 -68 8 -124 31 -118 47 2 7
17 11 32 9 30 -3 85 15 85 28 0 16 -30 38 -60 45 -36 8 -54 52 -26 67 9 5 16
13 16 18 0 17 -42 10 -96 -14z"/>
<path d="M4361 1906 c-8 -9 -8 -21 -2 -37 13 -30 46 -69 59 -69 5 0 17 -9 27
-20 10 -11 33 -25 51 -32 25 -9 34 -18 34 -35 0 -20 5 -23 35 -23 34 0 85 -18
85 -30 0 -3 -5 -11 -12 -18 -19 -19 3 -30 40 -20 17 5 32 15 32 22 0 8 -15 26
-32 40 -18 15 -38 30 -44 35 -5 4 -20 13 -32 20 -12 6 -29 27 -38 46 -12 26
-23 35 -40 35 -16 0 -24 6 -24 18 -1 55 -106 107 -139 68z m92 -48 c8 -30 -23
-36 -45 -9 -10 13 -16 27 -13 31 9 14 53 -2 58 -22z"/>
<path d="M3125 1884 c-22 -8 -59 -22 -82 -31 -43 -15 -60 -29 -49 -40 10 -10
176 64 176 79 0 10 4 10 -45 -8z"/>
<path d="M3416 1881 c-25 -27 -12 -60 30 -77 54 -23 83 -18 90 13 6 22 2 31
-27 55 -39 33 -69 36 -93 9z m70 -28 c18 -25 17 -33 -5 -33 -22 0 -45 25 -36
40 9 15 26 12 41 -7z"/>
<path d="M1525 1880 c-12 -19 7 -28 48 -23 22 3 36 10 34 17 -5 15 -73 20 -82
6z"/>
<path d="M1350 1857 c0 -14 31 -47 43 -47 17 0 5 29 -18 44 -20 13 -25 14 -25
3z"/>
<path d="M2827 1842 c-52 -32 -45 -71 18 -92 48 -16 71 -1 79 51 5 30 3 45 -6
51 -21 13 -61 9 -91 -10z m61 -44 c4 -20 -36 -34 -52 -18 -8 8 -6 15 9 26 23
17 39 14 43 -8z"/>
<path d="M3160 1818 c-11 -12 -20 -24 -20 -28 0 -19 36 -51 75 -66 38 -14 45
-21 45 -44 0 -31 42 -75 64 -67 8 3 17 19 21 35 5 23 13 31 36 36 32 6 38 26
13 50 -21 21 -41 20 -71 -4 -14 -11 -34 -20 -43 -20 -28 0 -33 30 -10 52 27
25 25 33 -9 57 -38 27 -75 27 -101 -1z m70 -28 c0 -14 -20 -22 -37 -16 -12 5
-13 9 -3 21 11 14 40 10 40 -5z"/>
<path d="M3655 1802 c-33 -3 -125 -41 -125 -52 0 -10 59 -97 76 -110 22 -19
28 -5 14 29 -6 17 -13 34 -14 38 0 4 21 6 47 4 43 -2 48 0 45 16 -2 12 -12 18
-28 18 -32 0 -42 19 -12 23 13 2 26 10 29 18 7 19 4 20 -32 16z"/>
<path d="M3906 1794 c-5 -13 -9 -14 -20 -5 -21 18 -97 10 -110 -11 -19 -30 28
-80 88 -94 25 -6 28 -4 23 9 -4 10 0 22 9 29 43 35 55 51 52 66 -4 23 -34 27
-42 6z m-51 -44 c0 -8 -10 -16 -22 -18 -18 -3 -23 2 -23 18 0 16 5 21 23 18
12 -2 22 -10 22 -18z"/>
<path d="M2530 1763 c-26 -10 -50 -35 -50 -53 0 -23 32 -50 58 -50 25 0 28
-11 10 -40 -17 -27 0 -39 20 -15 10 12 35 28 58 37 61 25 124 62 123 73 0 10
-11 10 -66 -1 -28 -5 -33 -3 -33 13 0 10 -5 24 -12 31 -12 12 -80 15 -108 5z
m88 -28 c3 -3 -5 -16 -18 -30 -26 -28 -71 -33 -89 -11 -18 22 35 59 73 52 16
-4 32 -8 34 -11z"/>
<path d="M2930 1742 c-126 -53 -170 -77 -170 -93 0 -26 31 -33 37 -9 3 11 14
20 25 20 10 0 37 10 59 23 l39 22 22 -27 c33 -38 107 -49 137 -19 12 12 21 24
21 29 -1 19 -77 83 -97 81 -4 0 -37 -12 -73 -27z m129 -38 c11 -10 -12 -34
-32 -34 -31 0 -38 9 -26 32 7 14 16 17 32 12 12 -3 24 -8 26 -10z"/>
<path d="M3971 1701 c-77 -27 -133 -101 -76 -101 15 0 25 6 25 14 0 7 7 19 15
26 12 10 20 9 40 -4 24 -16 25 -16 25 8 0 17 8 29 27 38 32 16 42 38 16 38
-10 -1 -42 -9 -72 -19z"/>
<path d="M2232 1648 c-23 -29 -18 -53 15 -68 21 -10 33 -23 35 -39 l3 -25 29
27 c16 15 41 30 55 33 53 12 75 21 79 32 2 8 -10 12 -35 12 -22 0 -48 8 -63
20 -29 22 -102 27 -118 8z m82 -14 c32 -12 11 -44 -27 -44 -7 0 -19 5 -27 10
-13 8 -12 11 5 24 23 17 27 18 49 10z"/>
<path d="M4022 1605 c-63 -28 -56 -81 17 -122 28 -15 52 -36 55 -46 4 -15 13
-18 55 -16 63 3 74 -6 39 -36 -15 -13 -24 -26 -21 -29 9 -9 43 -7 43 2 0 5 11
14 25 20 33 15 32 28 -10 68 -27 25 -44 33 -73 32 -39 0 -86 15 -111 35 -12
10 -5 13 35 17 43 4 50 9 59 33 8 24 6 31 -10 43 -24 18 -61 17 -103 -1z"/>
<path d="M2705 1600 c-11 -4 -35 -14 -52 -20 -39 -15 -45 -40 -8 -32 22 4 25
1 25 -26 0 -35 2 -37 50 -46 l35 -7 -27 21 c-35 27 -35 45 -2 66 24 16 27 16
56 -1 31 -18 31 -18 26 3 -5 16 0 23 23 31 16 5 29 12 29 15 0 9 -133 6 -155
-4z"/>
<path d="M3732 1583 c-9 -10 -30 -26 -46 -37 -26 -16 -27 -20 -12 -28 11 -6
27 -6 46 0 21 8 33 7 46 -2 17 -13 16 -14 -4 -25 -22 -12 -31 -51 -12 -51 5 0
12 -11 16 -25 8 -33 30 -50 41 -32 11 18 41 29 48 16 4 -5 0 -12 -9 -15 -34
-13 -25 -77 13 -89 12 -3 21 -13 21 -20 0 -24 16 -25 61 -3 24 11 64 26 88 32
24 6 46 16 48 23 5 15 -33 21 -70 12 -23 -7 -29 -4 -42 21 -8 16 -24 31 -35
35 -13 4 -19 14 -17 28 2 20 -3 22 -55 25 -43 2 -58 7 -58 17 0 8 9 15 19 15
35 0 34 20 -3 55 -20 18 -36 41 -36 49 0 21 -26 20 -48 -1z m188 -238 c0 -19
-48 -31 -63 -16 -9 9 -8 14 3 21 23 15 60 12 60 -5z"/>
<path d="M3081 1561 c-9 -6 -8 -11 3 -20 15 -13 36 -7 36 9 0 12 -25 19 -39
11z"/>
<path d="M3569 1556 c-8 -9 -159 -46 -184 -46 -14 0 -25 -4 -25 -10 0 -5 6
-10 14 -10 8 0 22 -10 30 -22 9 -12 25 -27 37 -34 12 -6 27 -27 34 -47 12 -34
11 -37 -11 -52 -13 -8 -28 -15 -34 -15 -7 0 -10 -6 -7 -12 5 -17 29 -14 102
11 33 12 72 23 88 26 30 6 37 30 10 37 -10 2 -29 2 -43 -2 -33 -8 -70 -1 -70
14 0 6 9 19 20 29 19 16 25 38 21 78 -1 10 10 21 29 28 17 6 29 15 25 21 -6
10 -28 14 -36 6z m-49 -77 c0 -5 -11 -14 -25 -21 -19 -8 -28 -8 -41 3 -14 12
-14 14 0 25 17 12 66 7 66 -7z"/>
<path d="M4450 1532 c-68 -33 -62 -101 10 -129 26 -10 40 -23 42 -37 3 -18 9
-21 50 -18 55 3 71 -12 28 -27 -34 -11 -40 -31 -10 -31 32 0 90 28 90 43 0 8
-9 22 -20 32 -11 10 -20 23 -20 30 0 8 -27 14 -74 18 -89 8 -106 14 -106 38 0
24 14 23 64 0 48 -23 63 -19 71 21 9 37 -8 56 -58 67 -25 6 -44 4 -67 -7z m86
-36 c18 -14 18 -15 1 -22 -21 -8 -67 10 -67 26 0 15 43 12 66 -4z"/>
<path d="M7521 1528 c-28 -29 -26 -56 3 -68 13 -5 27 -14 31 -19 3 -6 10 -11
16 -11 15 0 10 26 -7 41 -10 8 -14 23 -12 41 6 38 -6 44 -31 16z"/>
<path d="M2372 1528 c-7 -7 -12 -17 -12 -22 1 -21 45 -64 87 -85 33 -16 42
-26 40 -44 -1 -17 2 -21 18 -19 31 5 107 3 113 -3 3 -3 -7 -18 -22 -34 -38
-39 -15 -53 25 -15 16 15 29 31 29 34 0 3 -16 23 -34 44 -33 36 -37 37 -80 31
-38 -6 -47 -4 -52 10 -4 9 -2 21 5 28 20 20 12 47 -21 67 -37 22 -78 26 -96 8z
m85 -30 c16 -13 5 -38 -18 -38 -23 0 -54 41 -37 51 12 8 35 2 55 -13z"/>
<path d="M3277 1495 c-21 -15 -60 -37 -88 -51 -28 -14 -48 -31 -46 -37 2 -7
33 -14 75 -17 83 -6 105 -20 71 -44 -13 -9 -29 -16 -35 -16 -6 0 -17 -7 -24
-15 -10 -13 -9 -15 11 -15 44 1 94 33 97 61 3 24 -3 29 -42 44 -25 10 -46 21
-46 25 0 10 74 60 89 60 17 0 8 24 -10 28 -8 1 -31 -9 -52 -23z"/>
<path d="M2126 1475 c-15 -14 -31 -25 -37 -25 -5 0 -9 -6 -9 -14 0 -19 31 -28
83 -24 l41 3 9 -45 c9 -46 40 -90 64 -90 7 0 20 -11 29 -25 13 -20 24 -25 60
-25 37 0 44 -3 44 -19 0 -11 -9 -23 -21 -26 -11 -4 -18 -12 -16 -18 7 -22 43
-18 71 8 26 24 27 27 12 48 -9 12 -21 33 -26 46 -9 20 -15 22 -43 16 -68 -15
-75 -14 -70 6 3 10 12 19 19 19 8 0 14 7 14 15 0 8 -4 15 -10 15 -5 0 -10 6
-10 13 0 7 -13 26 -29 41 -25 24 -40 29 -100 34 -54 3 -71 8 -71 20 0 10 7 13
24 10 18 -4 26 0 29 13 10 37 -19 39 -57 4z m169 -126 c10 -15 -1 -23 -20 -15
-9 3 -13 10 -10 16 8 13 22 13 30 -1z"/>
<path d="M2853 1465 c-81 -35 -87 -77 -12 -79 l44 -1 -3 -36 -3 -35 53 -10 53
-9 -3 -37 c-2 -23 1 -38 7 -38 6 0 11 -6 11 -14 0 -7 11 -21 25 -30 22 -15 26
-14 59 5 63 37 56 89 -13 110 -26 8 -38 16 -34 25 4 11 -7 14 -45 14 -60 0
-72 13 -43 44 35 37 27 48 -34 45 -30 -1 -57 0 -60 3 -3 3 10 16 29 28 20 12
36 24 36 26 0 8 -36 3 -67 -11z m221 -201 c24 -9 19 -43 -9 -56 -28 -13 -55 3
-55 32 0 29 26 39 64 24z"/>
<path d="M3655 1451 c-3 -5 -1 -12 5 -16 12 -7 30 2 30 16 0 12 -27 12 -35 0z"/>
<path d="M3637 1310 c-20 -4 -40 -9 -42 -12 -9 -8 6 -38 16 -32 15 9 31 -6 20
-20 -5 -6 -7 -17 -3 -24 6 -8 17 -7 45 5 43 20 55 43 32 60 -10 6 -14 16 -10
22 7 12 -2 12 -58 1z"/>
<path d="M3297 1304 c-4 -4 -7 -23 -7 -41 0 -39 41 -100 76 -113 12 -5 24 -19
26 -32 3 -20 11 -24 53 -29 92 -11 112 -36 41 -52 -41 -10 -44 -34 -3 -29 22
2 27 -3 36 -34 16 -58 91 -124 91 -80 0 7 7 19 16 26 24 21 13 62 -22 85 -21
13 -31 28 -31 45 0 13 -8 29 -18 35 -50 30 -52 34 -26 55 13 11 29 20 37 20 8
0 14 4 14 9 0 22 -24 21 -77 -4 -40 -18 -66 -24 -86 -19 -35 7 -45 29 -22 53
24 27 16 73 -15 88 -37 17 -75 25 -83 17z m73 -49 c16 -19 5 -35 -25 -35 -26
0 -42 29 -23 42 19 12 34 10 48 -7z m225 -290 c0 -30 -39 -27 -43 3 -3 20 0
23 20 20 15 -2 23 -10 23 -23z"/>
<path d="M4140 1296 c0 -9 5 -16 10 -16 6 0 10 4 10 9 0 6 -4 13 -10 16 -5 3
-10 -1 -10 -9z"/>
<path d="M4001 1260 c-36 -9 -69 -35 -57 -47 4 -4 16 -2 26 5 11 7 28 12 38
12 11 0 27 9 37 20 20 22 14 24 -44 10z"/>
<path d="M2632 1248 c6 -18 28 -21 28 -4 0 9 -7 16 -16 16 -9 0 -14 -5 -12
-12z"/>
<path d="M3720 1202 c-34 -12 -40 -57 -13 -100 29 -44 53 -55 53 -24 0 11 11
24 25 30 14 6 25 16 25 22 0 36 -59 83 -90 72z m54 -47 c7 -19 -32 -41 -46
-27 -15 15 -2 42 21 42 10 0 21 -7 25 -15z"/>
<path d="M4015 1185 c-14 -13 -25 -31 -25 -39 0 -16 26 -46 41 -46 13 0 11 14
-3 28 -9 9 -9 15 -1 23 9 9 21 8 46 -5 44 -20 61 -20 78 0 11 14 10 20 -14 40
-38 32 -90 32 -122 -1z"/>
<path d="M3150 1181 c-5 -11 -10 -38 -10 -60 0 -51 -20 -54 -61 -10 -26 28
-29 29 -29 10 0 -20 62 -71 87 -71 18 0 33 34 33 74 0 40 19 59 27 27 5 -20
33 -30 33 -12 0 15 -41 61 -55 61 -8 0 -19 -9 -25 -19z"/>
<path d="M2703 1143 c-16 -6 -17 -33 -3 -33 11 0 26 28 19 34 -2 2 -10 1 -16
-1z"/>
<path d="M4198 1127 c-24 -14 -43 -36 -53 -59 -13 -32 -19 -38 -45 -38 -18 0
-33 6 -36 15 -4 8 -11 12 -16 9 -6 -4 3 -19 21 -34 39 -35 62 -30 103 21 17
22 37 39 45 39 7 0 13 9 13 19 0 12 9 21 25 25 14 4 25 11 25 16 0 17 -43 10
-82 -13z"/>
<path d="M2528 1068 c-50 -32 -130 -49 -142 -29 -10 16 -26 14 -26 -4 0 -15
42 -31 70 -27 77 12 170 58 170 84 0 15 -24 7 -72 -24z"/>
<path d="M3250 1036 c-83 -44 -86 -62 -7 -58 63 4 73 -7 32 -34 -30 -20 -32
-34 -5 -34 17 0 19 -3 10 -19 -5 -11 -10 -28 -10 -39 0 -24 35 -58 45 -43 3 6
-1 14 -9 17 -22 8 -20 31 4 44 15 8 27 7 50 -5 34 -18 65 -13 74 12 9 21 -20
51 -53 55 -19 2 -27 10 -29 26 -3 16 -15 28 -38 38 -37 16 -37 30 3 45 13 5
21 13 18 19 -9 15 -14 13 -85 -24z m150 -141 c0 -8 -6 -15 -14 -15 -8 0 -16 7
-20 15 -4 10 1 15 14 15 11 0 20 -7 20 -15z"/>
<path d="M2575 1030 c-8 -13 19 -72 44 -94 22 -20 22 -20 43 1 28 29 18 67
-24 87 -36 18 -54 20 -63 6z m65 -46 c0 -8 -4 -12 -10 -9 -5 3 -10 10 -10 16
0 5 5 9 10 9 6 0 10 -7 10 -16z"/>
<path d="M2696 914 c-13 -33 -4 -49 50 -100 l56 -51 -43 -24 c-72 -41 -59 -68
16 -32 36 17 36 17 58 -9 27 -32 52 -40 91 -30 34 9 53 54 31 72 -7 6 -11 19
-8 29 7 29 -18 42 -61 30 -46 -13 -66 -6 -66 22 0 27 -36 86 -60 99 -28 15
-57 12 -64 -6z m84 -65 c0 -18 -35 -5 -38 14 -3 16 -1 17 17 7 12 -6 21 -15
21 -21z m144 -115 c24 -9 19 -23 -10 -34 -29 -11 -54 1 -54 26 0 14 36 19 64
8z"/>
<path d="M3795 918 c-16 -5 -41 -13 -54 -16 -13 -4 -26 -13 -28 -19 -4 -10 7
-11 44 -6 65 8 93 20 93 38 0 17 -11 17 -55 3z"/>
<path d="M3445 839 c-36 -10 -100 -73 -91 -88 11 -18 33 -13 39 9 7 26 35 36
58 22 26 -16 27 -16 31 15 2 19 10 29 23 31 11 2 24 8 30 13 12 11 -49 10 -90
-2z"/>
<path d="M3600 815 c0 -8 7 -15 15 -15 8 0 15 7 15 15 0 8 -7 15 -15 15 -8 0
-15 -7 -15 -15z"/>
<path d="M4190 719 c-232 -32 -296 -50 -382 -108 -111 -75 -116 -105 -59 -329
14 -52 38 -92 57 -92 8 0 22 -4 32 -10 71 -41 310 -48 442 -12 85 22 150 47
198 75 30 18 37 29 33 51 -1 4 3 22 8 40 6 17 12 73 14 125 5 106 2 113 -71
193 -37 39 -52 48 -100 57 -99 19 -106 19 -172 10z m214 -70 c27 -21 59 -73
50 -81 -2 -3 -7 -16 -9 -29 -6 -32 -27 -81 -32 -76 -2 2 1 17 7 32 6 16 8 48
4 71 -5 38 -12 47 -50 69 -24 14 -44 28 -44 30 0 13 51 2 74 -16z m-444 -8 c0
-5 -35 -30 -77 -56 -43 -25 -88 -53 -100 -62 -13 -8 -23 -11 -23 -6 0 15 40
63 52 63 6 0 19 7 29 16 9 8 39 24 65 34 59 23 54 22 54 11z m20 -51 c0 -5
-11 -12 -24 -16 -43 -10 -72 -54 -67 -101 0 -6 17 -21 37 -32 28 -17 57 -22
131 -25 52 -2 97 -6 100 -9 10 -11 -47 -20 -85 -14 -20 4 -68 9 -107 13 -83 8
-103 16 -111 49 -12 50 4 88 49 117 43 28 77 36 77 18z m358 -2 c19 -19 14
-72 -10 -98 l-22 -23 -10 22 c-7 16 -6 28 2 42 9 14 9 25 2 39 -5 10 -10 21
-10 24 0 11 36 6 48 -6z m-515 -135 c6 -58 4 -62 -18 -30 -10 16 -14 34 -9 51
10 40 21 31 27 -21z m661 -8 c8 -33 -13 -155 -31 -176 -16 -20 -96 -50 -207
-78 -196 -51 -429 -1 -462 99 -18 55 -5 61 79 38 125 -34 312 -26 437 18 48
17 148 87 157 110 8 22 20 17 27 -11z m-460 -85 c28 -4 72 -1 104 6 66 15 77
12 30 -9 -51 -23 -114 -29 -181 -16 -53 11 -58 14 -42 25 10 7 23 10 29 7 6
-4 33 -10 60 -13z"/>
<path d="M2937 624 c-3 -3 -3 -12 0 -20 6 -16 43 -19 43 -4 0 12 -35 31 -43
24z"/>
</g>
</svg>
