<?xml version="1.0" standalone="no"?>
<!DOCTYPE svg PUBLIC "-//W3C//DTD SVG 20010904//EN"
 "http://www.w3.org/TR/2001/REC-SVG-20010904/DTD/svg10.dtd">
<svg version="1.0" xmlns="http://www.w3.org/2000/svg"
 width="468pt" height="163pt" viewBox="0 0 468 163"
 preserveAspectRatio="xMidYMid meet">
<metadata>
Created by potrace 1.8, written by Peter Selinger 2001-2007
</metadata>
<g transform="translate(0,163) scale(0.073125,-0.073125)"
fill="#000000" stroke="none">
<path d="M1140 2129 c0 -31 -6 -56 -15 -65 -8 -9 -15 -26 -15 -39 0 -12 -7
-25 -15 -29 -12 -4 -15 -24 -13 -98 0 -51 3 -78 5 -60 7 52 22 37 26 -25 2
-32 4 4 5 80 1 83 6 137 12 137 6 0 10 -60 10 -160 0 -100 4 -160 10 -160 6 0
10 -17 10 -39 0 -36 -2 -39 -35 -45 -19 -4 -35 -11 -35 -15 0 -5 -11 -12 -25
-15 -14 -4 -25 -11 -25 -16 0 -6 -9 -10 -20 -10 -11 0 -20 -4 -20 -9 0 -5 -15
-12 -34 -15 -19 -4 -37 -13 -40 -21 -3 -8 -14 -15 -25 -15 -11 0 -22 -9 -26
-20 -4 -12 -19 -22 -40 -26 -18 -3 -36 -12 -39 -20 -3 -8 -13 -14 -22 -14 -14
0 -16 7 -11 42 3 24 11 44 16 46 15 5 14 49 -1 55 -10 4 -10 7 -1 14 9 6 14
46 17 119 2 60 1 96 -1 79 -3 -16 -8 -32 -13 -35 -4 -3 -10 -57 -13 -120 -4
-63 -6 -116 -7 -117 0 -2 -4 -3 -10 -3 -5 0 -10 25 -10 55 0 30 -4 55 -10 55
-6 0 -10 -47 -10 -120 0 -96 -3 -120 -14 -120 -8 0 -16 -7 -20 -15 -3 -10 -19
-15 -46 -15 -22 0 -40 -4 -40 -10 0 -5 -9 -10 -20 -10 -16 0 -20 7 -20 30 0
17 5 30 10 30 6 0 10 47 10 120 0 66 -4 120 -9 120 -4 0 -11 93 -15 207 -5
115 -11 210 -16 213 -4 3 -11 26 -15 53 -15 100 -25 39 -25 -153 0 -127 4
-200 10 -200 6 0 10 -80 10 -219 0 -234 1 -231 -51 -231 -10 0 -19 -4 -19 -9
0 -5 -25 -12 -55 -16 -30 -3 -55 -11 -55 -16 0 -5 -7 -9 -15 -9 -8 0 -15 -4
-15 -9 0 -5 -18 -11 -40 -15 -22 -3 -40 -10 -40 -15 0 -5 -18 -11 -40 -15 -22
-3 -40 -11 -40 -16 0 -6 -11 -10 -25 -10 -14 0 -25 -4 -25 -9 0 -5 -14 -12
-30 -16 -17 -4 -30 -10 -30 -15 0 -5 -8 -11 -17 -13 -10 -2 -5 -3 12 -1 16 3
31 8 35 13 3 4 22 11 43 15 20 4 37 11 37 16 0 6 11 10 25 10 14 0 25 4 25 10
0 5 18 13 40 16 22 4 40 10 40 14 0 5 18 11 40 15 22 4 40 11 40 16 0 5 9 9
20 9 11 0 20 4 20 10 0 5 27 12 60 16 33 4 60 11 60 15 0 5 14 9 30 9 17 0 30
-2 30 -5 0 -7 -39 -45 -45 -45 -13 0 -95 -79 -95 -91 0 -24 -61 -68 -105 -74
-25 -4 -45 -11 -45 -16 0 -5 -7 -9 -15 -9 -8 0 -15 -4 -15 -10 0 -5 -18 -13
-40 -16 -22 -4 -40 -10 -40 -14 0 -5 -14 -11 -30 -15 -17 -4 -30 -11 -30 -16
0 -5 -9 -9 -20 -9 -11 0 -20 -4 -20 -10 0 -5 -18 -13 -40 -16 -44 -7 -55 -24
-15 -24 14 0 25 4 25 10 0 5 16 12 35 16 19 3 35 10 35 15 0 5 7 9 15 9 8 0
15 4 15 9 0 5 18 11 40 15 22 3 40 11 40 16 0 5 18 13 40 16 22 4 40 10 40 15
0 5 6 9 14 9 8 0 17 6 19 13 4 9 8 8 16 -3 11 -16 4 -63 -11 -68 -12 -5 -10
-102 2 -102 6 0 10 -6 10 -14 0 -26 65 -83 103 -90 20 -4 37 -11 37 -16 0 -6
7 -10 15 -10 13 0 15 -32 15 -224 0 -186 2 -225 14 -229 10 -4 13 -1 9 9 -4
10 3 14 27 14 l32 0 -7 48 c-4 26 -12 50 -18 54 -9 6 -9 8 1 8 9 0 12 49 12
210 0 133 -4 210 -10 210 -6 0 -10 35 -10 85 0 47 4 85 9 85 5 0 12 9 16 19 3
11 16 23 28 27 12 4 33 19 46 33 l25 26 186 0 c157 0 189 -2 202 -16 12 -12
18 -46 24 -132 3 -65 11 -117 15 -117 5 0 9 -7 9 -15 0 -8 -4 -15 -10 -15 -5
0 -10 -18 -10 -40 0 -22 5 -40 10 -40 6 0 10 -28 10 -64 0 -35 5 -66 10 -68
15 -5 16 -151 2 -156 -7 -2 -12 -21 -12 -43 0 -37 6 -44 37 -40 6 1 14 -12 18
-29 9 -43 25 -37 25 9 0 22 5 41 11 43 8 3 12 73 13 228 1 180 4 224 15 228
24 8 101 88 101 106 0 9 5 16 10 16 6 0 10 9 10 20 0 11 5 20 10 20 6 0 10 16
10 35 0 19 -4 35 -10 35 -5 0 -10 9 -10 20 0 11 -4 20 -9 20 -5 0 -13 9 -16
21 -10 31 -37 59 -57 59 -9 0 -19 9 -23 19 -3 10 -17 22 -30 25 -24 6 -25 9
-25 96 0 87 1 90 25 96 14 3 25 10 25 15 0 5 7 9 15 9 8 0 15 4 15 9 0 5 14
12 30 16 17 4 30 10 30 15 0 4 18 11 40 15 22 4 40 11 40 16 0 5 11 9 25 9 14
0 25 4 25 10 0 5 16 12 35 16 19 3 35 10 35 15 0 5 9 9 19 9 11 0 26 7 35 15
8 8 19 15 25 15 6 0 11 5 11 10 0 6 -11 10 -25 10 -14 0 -25 -4 -25 -10 0 -5
-7 -10 -15 -10 -8 0 -15 -4 -15 -10 0 -5 -18 -13 -40 -16 -22 -4 -40 -10 -40
-15 0 -5 -18 -12 -40 -15 -22 -4 -40 -10 -40 -15 0 -5 -7 -9 -15 -9 -8 0 -15
-4 -15 -9 0 -5 -13 -12 -30 -16 -16 -4 -30 -10 -30 -15 0 -4 -16 -11 -35 -14
-19 -4 -35 -11 -35 -16 0 -6 -7 -10 -15 -10 -8 0 -15 -4 -15 -9 0 -5 -11 -12
-25 -15 -14 -4 -25 -10 -25 -15 0 -5 -13 -12 -30 -16 -16 -4 -30 -11 -30 -16
0 -5 -7 -9 -15 -9 -8 0 -15 -4 -15 -10 0 -5 -9 -10 -20 -10 -11 0 -23 -7 -26
-15 -3 -8 -21 -17 -40 -21 -20 -4 -36 -13 -39 -25 -4 -11 -20 -21 -41 -25 -19
-3 -34 -10 -34 -15 0 -5 -8 -13 -17 -16 -10 -4 -25 -14 -33 -23 -8 -10 -26
-21 -40 -25 -13 -4 -30 -13 -37 -19 -30 -26 -43 -36 -48 -36 -3 0 -16 -11 -29
-25 -13 -14 -28 -25 -34 -25 -15 0 -92 -79 -92 -95 0 -7 -6 -15 -12 -18 -10
-3 -12 -29 -11 -93 2 -51 -2 -95 -8 -104 -8 -11 -12 -12 -16 -2 -2 6 -16 12
-29 12 -13 0 -24 4 -24 9 0 5 -11 12 -25 15 -15 4 -27 16 -31 31 -3 14 -10 25
-15 25 -5 0 -9 29 -9 65 0 37 4 65 10 65 6 0 10 11 10 24 0 14 12 32 30 46 17
13 30 27 30 32 0 9 16 31 38 51 7 7 21 20 30 30 9 9 20 17 25 17 4 0 19 11 33
25 14 14 29 25 35 25 5 0 24 15 42 33 17 18 40 36 50 40 9 3 17 11 17 17 0 5
9 10 20 10 11 0 23 7 26 15 4 8 12 15 20 15 8 0 14 4 14 10 0 5 11 12 25 16
14 3 25 10 25 14 0 4 11 11 25 14 14 4 25 11 25 16 0 6 7 10 15 10 8 0 15 4
15 10 0 5 11 12 25 16 14 3 25 10 25 14 0 5 14 11 30 15 17 4 30 11 30 16 0 5
9 9 20 9 11 0 20 4 20 9 0 5 14 12 30 16 17 4 30 10 30 15 0 5 14 11 30 15 17
4 30 11 30 16 0 5 9 9 20 9 11 0 20 4 20 9 0 5 14 12 30 16 17 4 30 10 30 15
0 5 14 11 30 15 17 4 30 11 30 16 0 5 9 9 20 9 11 0 20 4 20 10 0 5 18 13 40
16 22 4 40 10 40 14 0 5 14 11 30 15 17 4 30 11 30 16 0 5 11 9 24 9 13 0 27
7 30 15 5 13 0 15 -32 9 -20 -4 -38 -11 -40 -15 -2 -5 -10 -9 -18 -9 -8 0 -14
-4 -14 -9 0 -5 -18 -11 -40 -15 -22 -3 -40 -10 -40 -15 0 -5 -13 -12 -30 -16
-16 -4 -30 -11 -30 -16 0 -5 -7 -9 -15 -9 -8 0 -15 -4 -15 -9 0 -5 -15 -12
-34 -15 -19 -4 -36 -10 -38 -15 -2 -5 -13 -11 -24 -15 -20 -6 -21 -2 -28 96
-3 57 -6 155 -6 218 1 71 -3 116 -10 118 -5 2 -10 12 -10 22 0 25 -10 50 -21
50 -5 0 -9 -23 -9 -51z m-20 -757 c0 -10 9 -24 20 -32 27 -19 25 -30 -5 -30
-14 0 -25 5 -25 10 0 6 -9 10 -20 10 -29 0 -50 21 -36 36 27 26 66 30 66 6z
m40 -2 c0 -5 -4 -10 -10 -10 -5 0 -10 5 -10 10 0 6 5 10 10 10 6 0 10 -4 10
-10z m-52 -77 c4 -5 25 -13 47 -16 22 -4 41 -11 43 -17 2 -5 13 -10 24 -10 11
0 33 -12 48 -27 16 -16 35 -33 42 -40 38 -36 43 -49 43 -118 0 -55 -4 -76 -17
-89 -10 -10 -18 -24 -18 -32 0 -7 -11 -16 -25 -20 -14 -3 -25 -10 -25 -15 0
-5 -7 -9 -15 -9 -10 0 -15 10 -15 30 0 17 -4 30 -10 30 -6 0 -10 27 -10 61 0
53 -3 64 -29 89 -21 21 -42 31 -80 36 -28 4 -51 10 -51 15 0 5 -18 9 -40 9
-22 0 -40 5 -40 10 0 6 -25 10 -55 10 -60 0 -70 13 -35 43 23 19 30 21 30 8 0
-5 -9 -13 -20 -16 -11 -3 -20 -11 -20 -16 0 -5 9 -9 20 -9 11 0 20 6 20 13 0
8 9 24 20 37 11 13 20 29 20 36 0 7 6 15 13 18 20 9 128 1 135 -11z m58 -187
c1 0 -1 -47 -4 -103 -5 -113 -22 -141 -22 -38 0 37 -4 65 -10 65 -5 0 -10 21
-10 46 0 42 1 45 23 38 12 -3 23 -7 23 -8z"/>
<path d="M2720 2100 c0 -27 5 -50 10 -50 6 0 10 -33 10 -80 0 -47 4 -80 10
-80 6 0 10 -11 10 -25 0 -14 -4 -25 -10 -25 -5 0 -10 -18 -10 -40 0 -22 5 -40
10 -40 6 0 10 -7 10 -15 0 -12 -13 -15 -60 -15 -33 0 -60 -4 -60 -9 0 -5 -23
-11 -51 -13 -28 -3 -54 -10 -58 -15 -3 -5 -24 -13 -46 -16 -22 -4 -41 -11 -43
-17 -2 -5 -15 -10 -28 -10 -13 0 -24 -4 -24 -10 0 -5 -16 -12 -35 -16 -19 -3
-35 -10 -35 -14 0 -5 -18 -11 -39 -15 -30 -5 -40 -12 -43 -30 -4 -16 -1 -22 9
-18 7 3 13 9 13 14 0 5 7 9 15 9 8 0 15 4 15 10 0 5 18 13 40 16 22 4 40 10
40 15 0 5 18 12 40 15 22 4 40 10 40 15 0 5 11 9 25 9 14 0 25 4 25 9 0 5 21
12 48 16 26 4 49 10 52 14 3 5 40 11 83 14 l77 7 0 -60 0 -60 -35 0 c-19 0
-35 -4 -35 -10 0 -5 -25 -10 -55 -10 -30 0 -55 -4 -55 -9 0 -5 -22 -12 -50
-16 -27 -4 -50 -11 -50 -15 0 -5 -13 -11 -30 -15 -16 -4 -30 -11 -30 -16 0 -5
-5 -9 -11 -9 -14 0 -39 -25 -39 -39 0 -16 17 -13 24 4 3 8 15 15 26 15 11 0
20 5 20 10 0 6 7 10 15 10 8 0 15 4 15 9 0 5 20 12 45 15 25 4 45 11 45 15 0
5 35 12 78 16 42 4 80 12 84 18 4 7 11 5 21 -4 14 -14 29 -131 20 -156 -4 -10
-63 -13 -250 -13 -261 0 -273 2 -273 50 0 19 -1 20 -16 6 -8 -9 -18 -31 -21
-50 -5 -32 -4 -34 33 -41 22 -4 149 -5 283 -4 261 4 260 5 247 -45 -5 -20 -14
-24 -63 -29 -32 -3 -59 -11 -61 -17 -2 -5 -12 -10 -23 -10 -10 0 -19 -4 -19
-9 0 -5 -22 -12 -50 -16 -27 -4 -50 -11 -50 -15 0 -5 -13 -11 -30 -15 -16 -4
-30 -11 -30 -16 0 -5 -9 -9 -20 -9 -11 0 -20 -4 -20 -9 0 -5 -18 -12 -39 -16
-22 -4 -42 -13 -45 -21 -3 -8 -12 -14 -21 -14 -8 0 -15 -4 -15 -10 0 -5 -8
-10 -18 -10 -16 0 -37 -18 -56 -48 -11 -18 26 -2 45 19 8 10 27 21 42 24 15 4
27 11 27 15 0 4 16 11 35 14 19 4 35 11 35 16 0 4 14 11 30 15 17 4 30 11 30
16 0 5 11 9 25 9 14 0 25 4 25 10 0 5 18 13 40 16 22 4 40 10 40 15 0 5 18 12
40 15 22 4 40 10 40 15 0 5 13 9 29 9 16 0 31 5 33 11 2 6 51 13 116 16 61 3
112 10 112 14 0 5 20 9 45 9 46 0 62 -17 25 -27 -11 -3 -20 -9 -20 -14 0 -5
-9 -9 -20 -9 -11 0 -20 -4 -20 -10 0 -5 -18 -13 -40 -16 -22 -4 -40 -10 -40
-14 0 -5 -13 -11 -30 -15 -16 -4 -30 -11 -30 -16 0 -5 -7 -9 -15 -9 -8 0 -15
-4 -15 -10 0 -5 -15 -12 -34 -16 -19 -3 -37 -12 -40 -20 -3 -9 -20 -14 -46
-14 -22 0 -40 -4 -40 -9 0 -5 -18 -11 -40 -15 -22 -3 -40 -11 -40 -16 0 -6 -7
-10 -15 -10 -8 0 -15 -4 -15 -9 0 -5 -18 -11 -40 -15 -22 -3 -40 -10 -40 -15
0 -5 -15 -12 -34 -15 -22 -4 -37 -14 -41 -26 -4 -11 -15 -20 -25 -20 -11 0
-23 -6 -27 -14 -4 -7 -15 -16 -23 -20 -8 -3 -2 -3 15 0 16 3 32 9 35 13 3 5
15 11 28 15 12 4 22 12 22 17 0 5 7 9 15 9 8 0 15 4 15 9 0 5 18 11 40 15 22
3 40 10 40 15 0 5 14 12 30 16 17 4 30 11 30 16 0 5 11 9 25 9 14 0 25 5 25
10 0 6 7 10 15 10 20 0 19 -15 -2 -35 -18 -18 -29 -99 -19 -139 4 -16 16 -28
31 -32 14 -3 25 -10 25 -14 0 -5 14 -11 30 -15 17 -4 30 -11 30 -16 0 -5 11
-9 25 -9 14 0 25 5 25 10 0 6 5 10 10 10 6 0 10 -63 10 -169 0 -196 5 -231 31
-231 16 0 19 8 19 55 0 30 -4 55 -10 55 -15 0 -13 107 3 114 10 5 10 7 0 12
-15 7 -18 64 -3 64 6 0 10 23 10 50 0 28 -4 50 -10 50 -5 0 -10 14 -10 30 0
17 5 30 10 30 6 0 10 25 10 55 0 42 3 55 15 55 8 0 15 4 15 10 0 5 18 13 40
16 22 4 40 10 40 15 0 5 11 9 25 9 14 0 25 5 25 10 0 6 47 10 120 10 73 0 120
-4 120 -10 0 -5 24 -10 54 -10 39 0 55 -4 60 -15 3 -8 15 -15 26 -15 11 0 20
-4 20 -10 0 -5 -4 -10 -10 -10 -5 0 -10 -13 -10 -30 0 -16 -4 -30 -10 -30 -5
0 -10 -25 -10 -55 0 -30 5 -55 10 -55 6 0 10 -37 10 -90 0 -53 -4 -90 -10 -90
-5 0 -10 -13 -10 -30 0 -16 5 -30 10 -30 6 0 10 -32 10 -75 0 -43 4 -75 10
-75 6 0 10 12 10 26 0 21 2 23 13 12 8 -7 16 -20 20 -28 7 -20 8 529 1 558 -4
12 -13 22 -20 22 -8 0 -14 5 -14 10 0 6 -9 10 -19 10 -11 0 -21 5 -23 10 -2 6
-29 14 -61 17 -31 3 -57 9 -57 12 0 4 9 14 20 24 17 14 20 14 20 2 0 -8 4 -15
9 -15 12 0 71 59 71 71 0 5 23 9 50 9 28 0 50 -4 50 -10 0 -5 7 -10 15 -10 8
0 15 -4 15 -9 0 -5 11 -12 25 -15 14 -4 25 -13 25 -21 0 -8 5 -15 10 -15 6 0
10 -23 10 -51 0 -47 -3 -54 -50 -100 -27 -27 -50 -52 -50 -54 0 -14 25 -2 52
25 16 16 34 30 39 30 5 0 11 11 15 25 3 14 10 25 15 25 5 0 9 23 9 50 0 28 -4
50 -10 50 -5 0 -10 5 -10 11 0 18 -56 68 -85 75 -14 3 -25 10 -25 15 0 5 -12
9 -26 9 -23 0 -24 1 -10 16 9 8 16 20 16 25 0 5 8 9 17 9 9 0 34 19 56 42 l39
42 154 4 c85 3 154 8 154 13 0 5 29 9 65 9 37 0 65 -4 65 -10 0 -5 18 -10 40
-10 22 0 40 5 40 10 0 6 20 10 45 10 33 0 45 4 45 15 0 8 -9 15 -19 15 -11 0
-21 4 -23 9 -5 15 -141 17 -146 3 -2 -8 -33 -12 -88 -12 -49 0 -84 -4 -84 -10
0 -6 -41 -10 -103 -10 l-103 0 1 87 c0 60 -4 88 -12 90 -7 3 -13 11 -13 19 0
8 -5 14 -11 14 -6 0 -17 7 -25 15 -9 8 -24 15 -35 15 -10 0 -19 5 -19 10 0 6
-9 10 -20 10 -11 0 -20 5 -20 10 0 6 -6 10 -14 10 -11 0 -15 38 -21 180 -4 99
-11 180 -16 180 -5 0 -9 23 -9 50 0 53 -15 67 -26 25 -3 -14 -10 -25 -15 -25
-5 0 -9 -20 -9 -45 0 -33 -4 -45 -15 -45 -8 0 -15 9 -15 20 0 11 -4 20 -10 20
-6 0 -10 -60 -10 -160 0 -100 4 -160 10 -160 6 0 10 50 10 130 0 72 4 130 8
130 5 0 12 -57 16 -127 3 -70 9 -129 12 -132 3 -3 9 1 14 9 8 13 10 12 10 -2
0 -10 5 -18 10 -18 6 0 10 -7 10 -15 0 -8 -4 -15 -10 -15 -5 0 -10 -16 -10
-35 0 -19 5 -35 10 -35 6 0 10 -6 10 -14 0 -8 6 -17 13 -20 10 -5 10 -7 0 -12
-7 -3 -13 -14 -13 -25 0 -32 -18 -21 -23 14 -3 17 -4 -5 -3 -50 1 -73 -1 -83
-16 -83 -16 0 -18 13 -18 130 0 80 -4 130 -10 130 -6 0 -10 -50 -10 -130 l0
-130 -240 0 c-153 0 -240 -4 -240 -10 0 -5 -7 -10 -15 -10 -13 0 -15 31 -15
220 0 140 -4 220 -10 220 -5 0 -10 9 -10 20 0 11 5 20 10 20 6 0 10 27 10 60
0 33 -4 60 -10 60 -5 0 -10 22 -10 49 0 76 -10 111 -31 111 -16 0 -19 -8 -19
-50z m630 -210 c0 -47 -4 -80 -10 -80 -6 0 -10 33 -10 80 0 47 4 80 10 80 6 0
10 -33 10 -80z m138 -281 c2 -5 10 -9 17 -9 19 0 65 -47 65 -65 0 -8 5 -15 10
-15 6 0 10 -13 10 -30 0 -16 -4 -30 -10 -30 -5 0 -10 -11 -10 -24 0 -14 -7
-31 -15 -40 -8 -8 -15 -17 -15 -20 0 -15 -91 -96 -114 -102 -14 -3 -26 -10
-26 -15 0 -5 -9 -9 -20 -9 -11 0 -20 -4 -20 -9 0 -5 -13 -12 -30 -16 -16 -4
-30 -10 -30 -15 0 -5 -13 -11 -30 -15 -16 -4 -30 -11 -30 -16 0 -5 -11 -9 -25
-9 -14 0 -25 -4 -25 -9 0 -5 -22 -12 -50 -16 -27 -4 -50 -10 -50 -15 0 -4 -18
-10 -40 -14 -22 -3 -40 -10 -40 -15 0 -5 -18 -11 -40 -15 -22 -3 -40 -11 -40
-16 0 -6 -13 -10 -30 -10 -16 0 -30 -4 -30 -10 0 -5 -6 -10 -13 -10 -8 0 -26
-10 -40 -23 -25 -21 -27 -29 -27 -95 l0 -72 -35 0 c-19 0 -35 5 -35 10 0 6 -9
10 -20 10 -10 0 -31 12 -46 27 -23 23 -26 32 -22 78 3 40 11 59 31 79 14 14
31 26 37 26 6 0 13 6 16 14 3 8 20 17 39 20 18 4 36 13 39 21 3 8 17 15 31 15
14 0 25 5 25 10 0 6 7 10 15 10 8 0 15 4 15 9 0 5 16 12 35 15 19 4 35 11 35
15 0 5 18 11 40 15 22 3 40 11 40 16 0 6 7 10 15 10 8 0 15 4 15 9 0 5 23 11
50 15 28 4 50 11 50 15 0 5 18 12 40 16 22 4 40 11 40 16 0 5 7 9 15 9 8 0 15
4 15 9 0 5 14 12 30 16 17 4 30 10 30 15 0 4 11 11 25 14 14 4 25 11 25 16 0
6 7 10 15 10 8 0 15 7 15 15 0 8 5 15 10 15 6 0 10 39 10 96 l0 96 28 -7 c15
-3 29 -11 30 -16z m-88 -159 c0 -5 -4 -10 -10 -10 -5 0 -10 5 -10 10 0 6 5 10
10 10 6 0 10 -4 10 -10z m-130 -80 c0 -5 -16 -12 -35 -16 -19 -3 -35 -10 -35
-15 0 -5 -6 -9 -14 -9 -8 0 -16 -4 -18 -9 -2 -6 -86 -12 -190 -14 l-188 -4 0
29 0 28 185 0 c117 0 185 4 185 10 0 6 25 10 55 10 30 0 55 -4 55 -10z m137
-402 c-3 -7 -5 -2 -5 12 0 14 2 19 5 13 2 -7 2 -19 0 -25z m0 -350 c-2 -13 -4
-3 -4 22 0 25 2 35 4 23 2 -13 2 -33 0 -45z"/>
<path d="M5300 2066 c0 -48 -4 -65 -15 -70 -11 -4 -15 2 -15 20 0 14 -6 32
-14 40 -13 12 -14 9 -9 -23 3 -21 10 -40 14 -43 4 -3 9 -21 12 -40 l4 -35 1
38 c3 70 22 38 22 -38 0 -43 -4 -75 -10 -75 -6 0 -10 -35 -10 -85 0 -50 4 -85
10 -85 6 0 10 35 10 85 0 50 4 85 10 85 6 0 10 -33 10 -77 0 -43 3 -121 6
-173 7 -105 -2 -130 -51 -130 -13 0 -25 -6 -28 -12 -5 -16 -230 -13 -235 2 -5
13 -52 13 -52 0 0 -14 -37 -12 -44 3 -5 10 -7 10 -12 0 -6 -15 -104 -18 -104
-4 0 5 -13 11 -30 15 l-30 6 0 154 c0 110 -3 155 -12 158 -8 3 -13 44 -16 121
-3 64 -8 117 -13 117 -5 0 -9 11 -9 25 0 16 -6 25 -15 25 -12 0 -15 -15 -15
-79 0 -47 4 -81 11 -83 7 -2 12 -78 16 -211 3 -114 10 -207 14 -207 4 0 9 -12
11 -27 l3 -28 188 -3 c113 -1 187 -6 187 -12 0 -6 16 -10 35 -10 40 0 47 -17
10 -26 -14 -3 -25 -10 -25 -15 0 -4 -16 -11 -35 -15 -19 -3 -35 -10 -35 -15 0
-5 -7 -9 -15 -9 -8 0 -15 -4 -15 -9 0 -5 -18 -11 -40 -15 -22 -3 -40 -11 -40
-16 0 -6 -13 -10 -30 -10 -16 0 -30 5 -30 10 0 6 -18 10 -40 10 -22 0 -40 -4
-40 -10 0 -6 -30 -10 -70 -10 -64 0 -73 3 -95 26 -14 15 -25 33 -25 40 0 8 -4
14 -10 14 -26 0 -6 47 40 91 48 46 61 69 41 69 -5 0 -16 -7 -25 -15 -8 -8 -17
-15 -20 -15 -10 0 -46 -39 -46 -50 0 -5 -4 -10 -10 -10 -6 0 -10 -27 -10 -60
0 -33 4 -60 9 -60 9 0 61 -46 61 -55 0 -3 -7 -5 -15 -5 -8 0 -15 -4 -15 -10 0
-5 -9 -10 -20 -10 -11 0 -23 -7 -26 -15 -4 -8 -12 -15 -20 -15 -7 0 -31 -18
-53 -40 -22 -22 -44 -40 -49 -40 -13 0 -72 -58 -72 -71 0 -5 -8 -9 -18 -9 -10
0 -25 -9 -35 -20 -9 -11 -23 -20 -30 -20 -7 0 -21 -11 -31 -25 -10 -14 -25
-25 -32 -25 -8 0 -14 -4 -14 -10 0 -5 -11 -12 -25 -16 -16 -4 -25 -13 -25 -25
0 -10 -7 -19 -15 -19 -8 0 -28 -14 -45 -30 -17 -16 -35 -30 -40 -30 -6 0 -10
-4 -10 -9 0 -5 -10 -13 -22 -17 -13 -4 -33 -17 -45 -30 -12 -13 -27 -24 -33
-24 -6 0 -21 -11 -33 -24 -12 -13 -32 -26 -44 -30 -12 -4 -25 -16 -28 -27 -4
-10 -12 -19 -19 -19 -7 0 -23 -9 -36 -20 -13 -11 -29 -20 -36 -20 -7 0 -15 -9
-19 -19 -3 -11 -15 -23 -26 -26 -10 -4 -19 -11 -19 -16 0 -5 -6 -9 -14 -9 -7
0 -22 -11 -32 -25 -10 -14 -24 -25 -31 -25 -6 0 -18 -6 -25 -14 -8 -7 -24 -16
-35 -20 -12 -4 -25 -16 -28 -26 -3 -10 -16 -22 -28 -26 -11 -4 -27 -13 -35
-20 -7 -8 -20 -14 -27 -14 -8 0 -16 -9 -20 -19 -3 -11 -16 -23 -28 -27 -12 -4
-32 -17 -44 -30 -12 -13 -28 -24 -35 -24 -7 -1 -24 -14 -38 -30 -13 -17 -32
-30 -41 -30 -10 0 -20 -9 -24 -19 -3 -11 -16 -23 -28 -27 -11 -4 -27 -13 -35
-20 -7 -8 -20 -14 -28 -14 -8 0 -14 -4 -14 -9 0 -5 -8 -17 -17 -27 -17 -17
-16 -17 10 -10 16 4 40 18 53 31 14 14 29 25 35 25 5 0 20 11 33 25 13 14 28
25 35 25 6 0 11 4 11 9 0 5 10 13 23 17 12 4 32 17 44 30 12 13 25 24 28 24 7
0 31 19 53 43 9 9 20 17 25 17 4 0 19 11 33 25 14 14 29 25 35 25 5 0 20 11
33 25 13 14 27 25 31 25 4 0 18 11 31 25 13 14 29 25 37 25 8 0 23 11 33 25
10 14 24 25 31 25 7 0 21 9 30 20 10 11 21 20 26 20 5 0 24 15 42 34 18 19 42
37 54 41 11 3 21 11 21 16 0 5 5 9 11 9 7 0 22 11 35 25 13 14 29 25 37 25 8
0 24 14 37 30 13 17 29 30 37 30 8 0 24 11 37 25 13 14 27 25 31 25 4 0 18 11
31 25 13 14 28 25 33 25 6 0 21 11 35 25 14 14 29 25 33 25 5 0 16 8 25 18 21
22 46 42 52 42 3 0 19 13 36 30 17 16 37 30 45 30 7 0 16 9 20 19 3 11 16 23
28 27 12 4 34 20 50 35 16 16 33 29 39 29 6 0 18 8 27 19 9 10 26 21 39 25 12
4 22 11 22 17 0 5 18 12 40 15 22 4 40 10 40 15 0 5 18 9 40 9 22 0 40 5 40
10 0 6 20 10 45 10 25 0 45 -3 45 -7 -1 -18 -17 -31 -47 -37 -17 -4 -34 -14
-37 -22 -3 -8 -14 -14 -25 -14 -11 0 -22 -9 -26 -20 -3 -11 -12 -20 -19 -20
-16 0 -56 -34 -56 -46 0 -10 -36 -44 -46 -44 -4 0 -24 -18 -45 -40 -22 -22
-45 -40 -53 -40 -8 0 -16 -7 -20 -15 -3 -8 -10 -15 -16 -15 -6 0 -18 -6 -25
-12 -30 -27 -44 -38 -50 -38 -3 0 -16 -11 -28 -24 -12 -13 -32 -26 -44 -30
-12 -4 -25 -16 -28 -27 -4 -10 -14 -19 -23 -19 -10 0 -25 -9 -35 -20 -9 -11
-23 -20 -30 -20 -7 0 -21 -11 -31 -25 -10 -14 -23 -25 -28 -25 -5 0 -16 -6
-23 -12 -29 -27 -44 -38 -49 -38 -3 0 -19 -14 -36 -30 -17 -17 -37 -30 -45
-30 -7 0 -16 -9 -20 -19 -3 -11 -16 -23 -28 -27 -12 -4 -32 -17 -44 -30 -12
-13 -28 -24 -35 -24 -7 -1 -24 -14 -38 -30 -13 -17 -32 -30 -42 -30 -10 0 -18
-4 -18 -9 0 -14 -48 -61 -63 -61 -8 0 -22 -11 -33 -24 -10 -14 -29 -28 -43
-31 -14 -4 -35 -17 -48 -31 -12 -13 -28 -24 -35 -24 -7 -1 -24 -14 -38 -30
-13 -17 -32 -30 -42 -30 -10 0 -20 -10 -24 -25 -3 -14 -11 -25 -16 -25 -5 0
-16 -6 -23 -13 -30 -26 -44 -37 -50 -37 -3 0 -16 -11 -28 -24 -12 -13 -32 -26
-44 -30 -13 -4 -23 -12 -23 -17 0 -5 -7 -9 -15 -9 -8 0 -15 -4 -15 -10 0 -19
48 -11 55 9 3 11 16 23 28 27 12 4 32 17 44 30 12 13 27 24 33 24 6 0 21 11
33 24 12 13 32 26 44 30 12 4 25 16 28 26 3 10 16 22 28 26 12 4 32 17 44 30
12 13 25 24 28 24 4 0 13 6 20 13 33 29 45 37 53 37 5 0 18 11 28 25 10 14 24
25 31 25 7 0 21 9 30 20 10 11 25 20 35 20 10 0 18 4 18 9 0 15 49 61 65 61 9
0 18 7 21 15 4 8 10 15 16 15 5 0 16 6 23 13 33 29 45 37 53 37 5 0 18 11 28
25 10 14 24 25 31 25 7 0 21 9 30 20 10 11 25 20 35 20 9 0 20 9 23 20 3 11
13 20 20 20 8 0 28 14 45 30 17 17 35 30 40 30 6 0 10 4 10 9 0 5 10 13 23 17
12 4 32 17 44 30 12 13 27 24 33 24 6 0 21 11 33 24 12 13 32 26 44 30 12 4
25 16 28 27 4 10 12 19 20 19 7 0 20 6 27 14 8 7 24 17 36 20 12 4 22 12 22
17 0 5 7 9 15 9 9 0 15 -9 15 -25 0 -14 5 -25 10 -25 6 0 10 -6 10 -14 0 -21
44 -62 75 -70 17 -4 33 -13 37 -19 4 -7 8 -69 8 -139 0 -79 4 -128 10 -128 14
0 12 -27 -2 -33 -10 -4 -10 -6 0 -6 6 -1 12 -10 12 -21 0 -11 5 -20 10 -20 6
0 10 5 10 10 0 6 6 10 14 10 27 0 36 68 13 92 -22 22 -27 47 -12 62 16 16 21
132 6 138 -4 2 -11 38 -13 81 -4 66 -3 80 11 85 9 3 23 14 32 24 9 10 21 18
27 18 6 0 18 7 27 17 9 9 39 18 66 21 27 2 49 8 49 13 0 5 36 9 80 9 44 0 80
-4 80 -9 0 -5 25 -12 55 -16 l55 -6 0 -55 c0 -30 5 -54 10 -54 6 0 10 -11 10
-24 0 -14 7 -31 15 -40 8 -8 15 -24 15 -35 0 -12 4 -21 9 -21 5 0 12 -38 16
-85 4 -47 11 -85 16 -85 5 0 9 -22 9 -49 0 -62 7 -81 30 -81 26 0 28 16 28
177 1 111 -3 146 -14 157 -8 9 -14 34 -14 64 0 49 0 49 36 55 36 6 74 38 74
63 0 7 6 14 13 17 7 2 12 22 11 54 l0 50 140 6 c80 4 142 11 144 17 2 5 24 10
48 10 24 0 44 4 44 9 0 4 28 11 62 15 34 3 64 10 68 15 3 5 18 13 33 16 15 4
27 11 27 16 0 5 11 9 25 9 14 0 25 4 25 10 0 5 17 12 37 16 21 4 44 13 51 21
7 7 20 13 28 13 8 0 14 5 14 10 0 6 11 10 25 10 16 0 25 6 25 15 0 10 -10 15
-34 15 -35 0 -46 13 -46 51 0 10 -4 19 -10 19 -5 0 -10 9 -10 20 0 11 5 20 10
20 6 0 10 9 10 20 0 11 -7 20 -15 20 -8 0 -15 -4 -15 -10 0 -5 -10 -10 -21
-10 -12 0 -32 -11 -45 -25 -13 -14 -29 -25 -36 -25 -19 0 -52 -41 -40 -49 6
-3 12 -24 14 -46 3 -35 6 -40 26 -38 14 2 22 -3 22 -12 0 -8 -9 -15 -20 -15
-11 0 -20 -7 -20 -15 0 -8 -9 -15 -20 -15 -11 0 -20 -4 -20 -9 0 -4 -27 -11
-59 -15 -33 -4 -61 -11 -63 -16 -2 -5 -47 -12 -100 -16 -54 -4 -98 -11 -98
-15 0 -5 -40 -9 -90 -9 -53 0 -90 4 -90 10 0 6 -24 10 -52 10 -29 0 -77 3
-105 6 -49 6 -53 9 -53 33 0 20 -2 23 -10 11 -5 -8 -12 -11 -16 -8 -3 4 1 14
9 22 11 12 16 13 19 4 3 -8 15 -1 32 17 l28 30 206 0 c155 0 206 3 209 13 3 7
21 12 44 12 21 0 39 4 39 9 0 5 25 13 55 16 30 4 55 11 55 15 0 5 10 11 23 14
12 3 -7 3 -43 0 -36 -3 -67 -9 -70 -14 -3 -4 -38 -11 -77 -15 -40 -4 -73 -11
-73 -16 0 -5 -54 -9 -120 -9 -73 0 -120 4 -120 10 0 6 -7 10 -16 10 -13 0 -11
6 10 25 22 20 26 32 26 80 0 30 -4 55 -10 55 -5 0 -10 6 -10 13 0 14 -35 47
-50 47 -6 0 -10 5 -10 10 0 6 -17 10 -37 10 -21 0 -43 4 -50 8 -7 5 -12 62
-15 176 -2 124 -6 170 -15 174 -9 2 -13 27 -13 77 0 40 -3 80 -6 89 -13 34
-24 13 -24 -48z m188 -544 c39 -39 37 -126 -4 -136 -13 -4 -24 -10 -24 -15 0
-5 -13 -12 -30 -16 -16 -4 -30 -11 -30 -16 0 -5 -9 -9 -20 -9 -11 0 -20 -4
-20 -10 0 -5 -18 -13 -39 -16 -22 -4 -42 -13 -45 -20 -3 -8 -12 -14 -21 -14
-8 0 -15 -4 -15 -10 0 -5 -9 -10 -20 -10 -11 0 -20 -4 -20 -9 0 -5 -13 -12
-30 -16 -16 -4 -30 -11 -30 -16 0 -5 -11 -11 -25 -15 -14 -3 -25 -10 -25 -15
0 -5 -7 -9 -15 -9 -8 0 -15 -4 -15 -10 0 -5 -6 -10 -14 -10 -8 0 -21 -6 -28
-14 -8 -7 -24 -17 -36 -20 -12 -4 -22 -11 -22 -16 0 -5 -13 -11 -30 -15 -16
-4 -30 -11 -30 -16 0 -5 -7 -9 -15 -9 -8 0 -15 -4 -15 -10 0 -5 -11 -12 -25
-16 -14 -3 -25 -10 -25 -14 0 -4 -11 -11 -24 -14 -14 -3 -27 -15 -31 -26 -3
-10 -15 -22 -26 -25 -15 -5 -19 -16 -20 -58 0 -29 -3 -46 -6 -39 -2 6 -11 12
-18 12 -19 0 -65 47 -65 65 0 8 -4 15 -10 15 -17 0 -12 77 5 84 8 3 15 15 15
26 0 11 4 20 10 20 5 0 24 16 43 35 19 19 41 35 51 35 9 0 16 5 16 10 0 6 6
10 14 10 8 0 16 7 20 15 3 8 15 15 26 15 11 0 20 4 20 9 0 5 14 12 30 16 17 4
30 11 30 16 0 5 7 9 15 9 8 0 15 4 15 10 0 5 18 13 40 16 22 4 40 10 40 15 0
4 16 11 35 15 19 3 35 10 35 15 0 5 7 9 15 9 8 0 15 4 15 9 0 5 14 12 30 16
17 4 30 10 30 15 0 4 11 11 25 14 14 4 25 11 25 16 0 6 7 10 15 10 8 0 15 5
15 10 0 6 11 10 24 10 14 0 31 7 40 15 8 8 18 15 23 15 17 0 43 41 43 66 0 26
2 27 45 21 24 -4 53 -15 63 -25z m692 -112 c0 -16 5 -30 10 -30 6 0 10 -7 10
-16 0 -11 -6 -14 -20 -9 -22 7 -30 -20 -7 -28 6 -2 8 -8 4 -13 -12 -12 -28 18
-22 41 2 11 5 35 5 53 0 17 5 32 10 32 6 0 10 -13 10 -30z m-80 -60 c0 -22 -4
-40 -10 -40 -5 0 -10 18 -10 40 0 22 5 40 10 40 6 0 10 -18 10 -40z m130 15
c0 -8 -4 -15 -10 -15 -5 0 -10 7 -10 15 0 8 5 15 10 15 6 0 10 -7 10 -15z
m-89 -55 c5 0 9 -7 9 -15 0 -8 -4 -15 -9 -15 -10 0 -21 37 -19 65 0 12 3 9 5
-7 2 -16 9 -28 14 -28z m-813 -131 c2 -5 19 -9 38 -9 19 0 34 -4 34 -10 0 -5
18 -13 39 -16 34 -5 41 -11 46 -35 4 -16 3 -39 -1 -51 -8 -27 -41 -58 -61 -58
-7 0 -13 -4 -13 -10 0 -18 -22 -11 -46 16 -14 14 -40 28 -59 31 -19 3 -35 10
-35 14 0 5 -16 9 -35 9 -19 0 -35 5 -35 10 0 6 -10 10 -22 10 -61 1 -85 23
-53 52 30 27 40 37 54 53 11 14 25 15 80 9 36 -3 68 -11 69 -15z m0 -175 c22
-6 32 -44 12 -44 -6 0 -11 -32 -11 -72 -1 -40 -3 -65 -6 -55 -2 9 -9 17 -14
17 -5 0 -9 6 -9 14 0 8 -5 16 -11 18 -6 2 -13 32 -16 66 -6 67 -2 71 55 56z
m72 -219 c0 -8 -4 -15 -10 -15 -5 0 -10 7 -10 15 0 8 5 15 10 15 6 0 10 -7 10
-15z m-20 -220 c0 -8 -4 -15 -10 -15 -5 0 -10 7 -10 15 0 8 5 15 10 15 6 0 10
-7 10 -15z"/>
<path d="M5200 1181 c0 -5 -14 -23 -31 -40 -17 -17 -27 -31 -23 -31 8 0 74 66
74 75 0 3 -4 5 -10 5 -5 0 -10 -4 -10 -9z"/>
<path d="M690 2096 c0 -8 6 -17 13 -19 10 -4 10 -6 0 -6 -20 -1 -18 -131 2
-131 12 0 15 16 15 85 0 69 -3 85 -15 85 -8 0 -15 -6 -15 -14z"/>
<path d="M2850 2090 c0 -11 5 -20 10 -20 6 0 10 -17 10 -37 0 -42 14 -72 27
-59 4 5 2 11 -4 13 -7 3 -13 17 -13 33 0 42 -11 90 -21 90 -5 0 -9 -9 -9 -20z"/>
<path d="M5170 2090 c0 -5 5 -10 10 -10 6 0 10 5 10 10 0 6 -4 10 -10 10 -5 0
-10 -4 -10 -10z"/>
<path d="M5196 1870 c3 -117 8 -196 14 -198 6 -2 10 -19 10 -38 0 -19 5 -34
10 -34 6 0 10 16 10 35 0 19 -4 35 -10 35 -6 0 -10 33 -10 80 0 45 -4 80 -10
80 -5 0 -11 51 -13 118 -2 64 -3 29 -1 -78z"/>
<path d="M4740 2035 c0 -8 5 -15 10 -15 6 0 10 7 10 15 0 8 -4 15 -10 15 -5 0
-10 -7 -10 -15z"/>
<path d="M610 1860 c0 -100 4 -160 10 -160 6 0 10 60 10 160 0 100 -4 160 -10
160 -6 0 -10 -60 -10 -160z"/>
<path d="M4880 1900 c0 -73 4 -120 10 -120 6 0 10 47 10 120 0 73 -4 120 -10
120 -6 0 -10 -47 -10 -120z"/>
<path d="M4766 1836 c2 -88 8 -162 12 -165 5 -3 12 -26 15 -51 3 -24 11 -46
16 -48 6 -2 11 -10 11 -18 0 -8 4 -14 10 -14 5 0 12 -16 16 -35 7 -37 24 -48
24 -15 0 11 -4 20 -9 20 -5 0 -12 14 -16 30 -4 17 -11 30 -16 30 -5 0 -9 6 -9
14 0 8 -5 16 -10 18 -6 2 -13 49 -17 106 -3 56 -10 102 -14 102 -5 0 -10 42
-12 93 -2 50 -3 20 -1 -67z"/>
<path d="M800 1955 c0 -8 5 -15 10 -15 12 0 13 -27 1 -32 -5 -1 -12 -18 -16
-35 -5 -26 -3 -33 9 -33 10 0 16 9 16 25 0 14 5 25 10 25 6 0 10 18 10 40 0
33 -3 40 -20 40 -11 0 -20 -7 -20 -15z"/>
<path d="M2840 1945 c0 -14 -4 -25 -10 -25 -6 0 -10 -42 -10 -105 0 -58 4
-105 9 -105 5 0 12 -18 16 -39 4 -22 13 -42 21 -45 10 -4 14 -25 14 -86 0 -47
4 -80 10 -80 6 0 10 -7 10 -15 0 -8 5 -15 10 -15 6 0 10 9 10 20 0 11 -4 20
-10 20 -6 0 -10 32 -10 76 0 46 -5 81 -12 89 -43 48 -43 46 -43 192 0 79 -1
143 -2 143 -2 0 -3 -11 -3 -25z"/>
<path d="M4820 1905 c0 -19 5 -35 10 -35 6 0 11 -35 12 -82 1 -53 3 -67 6 -38
5 61 -7 190 -19 190 -5 0 -9 -16 -9 -35z"/>
<path d="M711 1874 c0 -11 3 -14 6 -6 3 7 2 16 -1 19 -3 4 -6 -2 -5 -13z"/>
<path d="M713 1745 c0 -27 2 -38 4 -22 2 15 2 37 0 50 -2 12 -4 0 -4 -28z"/>
<path d="M1083 1730 c0 -36 2 -50 4 -32 2 17 2 47 0 65 -2 17 -4 3 -4 -33z"/>
<path d="M580 1725 c0 -30 5 -55 10 -55 6 0 10 -16 10 -35 0 -19 6 -37 14 -42
10 -5 16 -30 19 -68 3 -46 4 -42 3 18 -1 54 -5 80 -15 86 -8 6 -15 35 -19 80
-6 84 -22 95 -22 16z"/>
<path d="M4900 1710 c0 -22 5 -40 10 -40 6 0 10 18 10 40 0 22 -4 40 -10 40
-5 0 -10 -18 -10 -40z"/>
<path d="M720 1650 c0 -11 5 -20 10 -20 6 0 10 9 10 20 0 11 -4 20 -10 20 -5
0 -10 -9 -10 -20z"/>
<path d="M4922 1625 c0 -16 2 -22 5 -12 2 9 2 23 0 30 -3 6 -5 -1 -5 -18z"/>
<path d="M5220 1550 c0 -22 4 -40 9 -40 5 0 12 -8 14 -17 2 -10 3 -5 1 11 -2
16 -4 41 -4 57 0 16 -4 29 -10 29 -5 0 -10 -18 -10 -40z"/>
<path d="M6260 1555 c0 -19 5 -35 10 -35 6 0 10 16 10 35 0 19 -4 35 -10 35
-5 0 -10 -16 -10 -35z"/>
<path d="M6297 1536 c-9 -10 -17 -24 -17 -32 0 -11 5 -10 21 5 12 11 19 25 17
32 -3 8 -9 7 -21 -5z"/>
<path d="M6340 1500 c0 -5 -7 -10 -15 -10 -8 0 -15 -4 -15 -10 0 -5 11 -10 25
-10 18 0 25 5 25 20 0 11 -4 20 -10 20 -5 0 -10 -4 -10 -10z"/>
<path d="M6290 1450 c0 -5 16 -12 35 -16 21 -4 37 -13 40 -25 8 -25 35 -25 35
0 0 13 -9 21 -30 26 -16 4 -30 11 -30 16 0 5 -11 9 -25 9 -14 0 -25 -4 -25
-10z"/>
<path d="M640 1415 c0 -14 5 -25 10 -25 6 0 10 11 10 25 0 14 -4 25 -10 25 -5
0 -10 -11 -10 -25z"/>
<path d="M6290 1424 c0 -4 16 -22 36 -40 45 -43 78 -47 36 -4 -17 17 -35 30
-41 30 -6 0 -11 5 -11 10 0 6 -4 10 -10 10 -5 0 -10 -3 -10 -6z"/>
<path d="M5366 1264 c-18 -18 -21 -34 -5 -34 14 0 39 25 39 39 0 16 -16 13
-34 -5z"/>
<path d="M1000 1087 c0 -15 -4 -27 -10 -27 -5 0 -10 -22 -10 -50 0 -27 4 -50
9 -50 8 0 24 141 16 149 -3 2 -5 -8 -5 -22z"/>
<path d="M660 1011 c0 -72 2 -80 21 -86 29 -10 34 -1 33 64 -1 41 -6 63 -20
79 -10 12 -22 22 -26 22 -5 0 -8 -36 -8 -79z m43 -33 c9 -6 9 -10 1 -15 -6 -5
-14 -15 -17 -23 -3 -8 -5 12 -5 45 1 33 3 47 5 30 3 -16 10 -33 16 -37z"/>
<path d="M2950 980 c0 -33 -4 -50 -12 -50 -9 0 -8 -4 2 -11 11 -8 12 -12 3
-16 -15 -5 -18 -63 -4 -63 6 0 11 -24 13 -52 2 -29 4 13 5 95 1 81 0 147 -3
147 -2 0 -4 -22 -4 -50z"/>
<path d="M5048 1003 c6 -2 12 -20 12 -39 0 -19 4 -34 9 -34 6 0 13 -31 17 -70
3 -38 10 -70 14 -70 5 0 11 -34 15 -75 4 -41 11 -75 16 -75 5 0 9 -20 9 -45 0
-25 5 -45 10 -45 6 0 10 20 10 45 0 25 -4 45 -10 45 -5 0 -10 22 -10 49 0 27
-4 51 -10 53 -5 2 -13 31 -16 66 -4 34 -10 62 -14 62 -4 0 -11 32 -14 70 -7
64 -9 70 -29 69 -12 0 -16 -3 -9 -6z"/>
<path d="M3250 870 c0 -67 4 -110 10 -110 6 0 10 43 10 110 0 67 -4 110 -10
110 -6 0 -10 -43 -10 -110z"/>
<path d="M960 900 c0 -16 5 -30 10 -30 6 0 10 14 10 30 0 17 -4 30 -10 30 -5
0 -10 -13 -10 -30z"/>
<path d="M4842 774 c-2 -156 5 -224 25 -224 11 0 12 16 7 82 -4 46 -11 85 -15
88 -5 3 -10 46 -12 95 -2 75 -3 68 -5 -41z"/>
<path d="M711 854 c0 -11 3 -14 6 -6 3 7 2 16 -1 19 -3 4 -6 -2 -5 -13z"/>
<path d="M956 828 c-3 -13 -6 -42 -6 -65 0 -24 -4 -43 -10 -43 -5 0 -10 -20
-10 -45 0 -82 18 -47 25 50 4 52 11 95 16 95 5 0 9 7 9 15 0 23 -17 18 -24 -7z"/>
<path d="M684 580 c0 -135 2 -190 3 -122 2 67 2 177 0 245 -1 67 -3 12 -3
-123z"/>
<path d="M3280 740 c0 -47 4 -80 10 -80 6 0 10 33 10 80 0 47 -4 80 -10 80 -6
0 -10 -33 -10 -80z"/>
<path d="M720 735 c0 -14 5 -25 10 -25 6 0 10 11 10 25 0 14 -4 25 -10 25 -5
0 -10 -11 -10 -25z"/>
<path d="M2960 700 c0 -11 5 -20 10 -20 6 0 10 -9 10 -20 0 -11 5 -20 10 -20
6 0 10 -18 10 -40 0 -22 -4 -40 -10 -40 -5 0 -10 -20 -10 -45 0 -71 17 -52 24
28 7 75 0 137 -15 137 -5 0 -9 9 -9 20 0 11 -4 20 -10 20 -5 0 -10 -9 -10 -20z"/>
<path d="M3250 705 c0 -8 5 -15 10 -15 6 0 10 7 10 15 0 8 -4 15 -10 15 -5 0
-10 -7 -10 -15z"/>
<path d="M728 683 c7 -2 12 -22 12 -44 0 -21 5 -39 10 -39 6 0 10 18 10 39 0
36 -13 53 -38 50 -4 0 -1 -3 6 -6z"/>
<path d="M3273 585 c0 -33 2 -48 4 -32 2 15 9 27 14 27 5 0 9 7 9 15 0 8 -4
15 -9 15 -5 0 -12 8 -14 18 -3 9 -5 -10 -4 -43z"/>
<path d="M923 565 c0 -22 2 -30 4 -17 2 12 2 30 0 40 -3 9 -5 -1 -4 -23z"/>
<path d="M762 550 c0 -19 2 -27 5 -17 2 9 2 25 0 35 -3 9 -5 1 -5 -18z"/>
<path d="M900 475 c0 -14 -4 -25 -10 -25 -5 0 -10 -20 -10 -45 0 -25 5 -45 10
-45 6 0 10 20 10 45 0 25 5 45 10 45 6 0 10 11 10 25 0 14 -4 25 -10 25 -5 0
-10 -11 -10 -25z"/>
<path d="M5162 453 c-2 -41 1 -53 13 -53 8 0 15 9 15 20 0 11 -4 20 -9 20 -6
0 -12 15 -14 33 -3 22 -4 15 -5 -20z"/>
<path d="M770 435 c0 -25 5 -45 10 -45 6 0 10 -12 10 -27 0 -38 10 -73 21 -73
5 0 9 7 9 15 0 8 -4 15 -9 15 -5 0 -12 36 -16 80 -8 85 -25 110 -25 35z"/>
</g>
</svg>
