<?xml version="1.0" standalone="no"?>
<!DOCTYPE svg PUBLIC "-//W3C//DTD SVG 20010904//EN"
 "http://www.w3.org/TR/2001/REC-SVG-20010904/DTD/svg10.dtd">
<svg version="1.0" xmlns="http://www.w3.org/2000/svg"
 width="468pt" height="278pt" viewBox="0 0 468 278"
 preserveAspectRatio="xMidYMid meet">
<metadata>
Created by potrace 1.8, written by Peter Selinger 2001-2007
</metadata>
<g transform="translate(0,278) scale(0.073125,-0.073125)"
fill="#000000" stroke="none">
<path d="M760 3790 c0 -5 7 -10 15 -10 8 0 15 5 15 10 0 6 -7 10 -15 10 -8 0
-15 -4 -15 -10z"/>
<path d="M4920 3630 c0 -6 -33 -10 -80 -10 -64 0 -80 -3 -80 -15 0 -12 -13
-15 -55 -15 -42 0 -55 -3 -55 -15 0 -12 -13 -15 -55 -15 -30 0 -55 -4 -55 -10
0 -5 -18 -10 -40 -10 -29 0 -40 -4 -40 -15 0 -11 -11 -15 -40 -15 -29 0 -40
-4 -40 -15 0 -9 -9 -15 -25 -15 -16 0 -25 -6 -25 -15 0 -11 -12 -15 -45 -15
-41 0 -45 -2 -45 -25 0 -20 -5 -25 -25 -25 -16 0 -25 -6 -25 -15 0 -8 -5 -15
-11 -15 -14 0 -39 -25 -39 -39 0 -6 -7 -11 -15 -11 -8 0 -15 -7 -15 -15 0 -8
-7 -15 -15 -15 -9 0 -15 -9 -15 -25 0 -14 -4 -25 -10 -25 -5 0 -10 -7 -10 -15
0 -8 -7 -15 -15 -15 -8 0 -15 -4 -15 -10 0 -5 -7 -10 -15 -10 -11 0 -15 -12
-15 -45 0 -33 4 -45 15 -45 8 0 15 7 15 15 0 8 7 15 15 15 9 0 15 10 15 26 0
26 20 54 39 54 6 0 11 14 11 30 0 17 5 30 11 30 14 0 39 25 39 39 0 6 14 11
30 11 17 0 30 5 30 11 0 14 25 39 39 39 6 0 11 7 11 15 0 10 10 15 30 15 20 0
30 5 30 15 0 9 9 15 25 15 14 0 25 5 25 10 0 6 18 10 40 10 29 0 40 4 40 15 0
11 11 15 40 15 29 0 40 4 40 15 0 12 13 15 55 15 42 0 55 3 55 15 0 12 14 15
65 15 37 0 65 4 65 10 0 6 30 10 70 10 56 0 70 3 70 15 0 13 28 15 190 15 162
0 190 -2 190 -15 0 -12 13 -15 55 -15 30 0 55 -4 55 -10 0 -5 18 -10 40 -10
29 0 40 -4 40 -15 0 -9 9 -15 25 -15 16 0 25 -6 25 -15 0 -11 11 -15 40 -15
29 0 40 -4 40 -15 0 -9 10 -15 26 -15 26 0 54 -20 54 -39 0 -6 7 -11 15 -11 8
0 15 -7 15 -15 0 -8 5 -15 11 -15 14 0 39 -25 39 -39 0 -6 7 -11 15 -11 8 0
15 -7 15 -15 0 -8 7 -15 15 -15 9 0 15 -9 15 -25 0 -14 5 -25 10 -25 6 0 10
-7 10 -15 0 -8 7 -15 15 -15 9 0 15 -9 15 -25 0 -16 6 -25 15 -25 10 0 15 -10
15 -30 0 -20 5 -30 15 -30 9 0 15 -9 15 -25 0 -14 5 -25 10 -25 6 0 10 -11 10
-25 0 -16 6 -25 15 -25 11 0 15 -11 15 -40 0 -29 4 -40 15 -40 10 0 15 -10 15
-30 0 -16 5 -30 10 -30 6 0 10 -28 10 -65 0 -51 3 -65 15 -65 11 0 15 -11 15
-40 0 -29 4 -40 15 -40 13 0 15 -25 15 -165 0 -140 -2 -165 -15 -165 -12 0
-15 -17 -15 -95 0 -78 -3 -95 -15 -95 -11 0 -15 -12 -15 -50 0 -27 -4 -50 -10
-50 -5 0 -10 -18 -10 -40 0 -29 -4 -40 -15 -40 -12 0 -15 -16 -15 -85 0 -69
-3 -85 -15 -85 -9 0 -15 -9 -15 -25 0 -14 -4 -25 -10 -25 -5 0 -10 -11 -10
-25 0 -16 -6 -25 -15 -25 -11 0 -15 -11 -15 -40 0 -29 -4 -40 -15 -40 -10 0
-15 -10 -15 -30 0 -20 -5 -30 -15 -30 -8 0 -15 -7 -15 -15 0 -8 -4 -15 -10
-15 -5 0 -10 -11 -10 -25 0 -16 -6 -25 -15 -25 -9 0 -15 -9 -15 -25 0 -16 -6
-25 -15 -25 -8 0 -15 -7 -15 -15 0 -8 -4 -15 -10 -15 -5 0 -10 -7 -10 -15 0
-8 -7 -15 -15 -15 -8 0 -15 -4 -15 -10 0 -5 -7 -10 -15 -10 -8 0 -15 -7 -15
-15 0 -8 -4 -15 -10 -15 -5 0 -10 -7 -10 -15 0 -8 -7 -15 -15 -15 -8 0 -15 -7
-15 -15 0 -8 -7 -15 -15 -15 -8 0 -15 -4 -15 -10 0 -5 -7 -10 -15 -10 -8 0
-15 -7 -15 -15 0 -9 -9 -15 -25 -15 -16 0 -25 -6 -25 -15 0 -8 -5 -15 -11 -15
-14 0 -39 -25 -39 -39 0 -6 -13 -11 -30 -11 -16 0 -30 -5 -30 -11 0 -19 -28
-39 -54 -39 -16 0 -26 -6 -26 -15 0 -9 -9 -15 -25 -15 -16 0 -25 -6 -25 -15 0
-12 -13 -15 -55 -15 -30 0 -55 -4 -55 -10 0 -6 -30 -10 -70 -10 l-70 0 0 50 0
50 45 0 c33 0 45 4 45 15 0 11 11 15 40 15 29 0 40 4 40 15 0 9 9 15 25 15 14
0 25 5 25 10 0 6 7 10 15 10 8 0 15 7 15 15 0 9 9 15 25 15 16 0 25 6 25 15 0
8 7 15 15 15 8 0 15 5 15 10 0 6 11 10 25 10 16 0 25 6 25 15 0 8 7 15 15 15
8 0 15 7 15 15 0 8 7 15 15 15 8 0 15 7 15 15 0 9 9 15 25 15 20 0 25 5 25 25
0 16 6 25 15 25 8 0 15 7 15 15 0 9 9 15 25 15 14 0 25 5 25 10 0 6 7 10 15
10 8 0 15 7 15 15 0 8 7 15 15 15 9 0 15 9 15 25 0 14 5 25 10 25 6 0 10 7 10
15 0 8 7 15 15 15 8 0 15 7 15 15 0 8 7 15 15 15 9 0 15 9 15 25 0 14 5 25 10
25 6 0 10 14 10 30 0 20 5 30 15 30 9 0 15 9 15 25 0 16 6 25 15 25 9 0 15 9
15 25 0 14 5 25 10 25 6 0 10 18 10 40 0 29 4 40 15 40 10 0 15 10 15 30 0 20
5 30 15 30 12 0 15 13 15 55 0 42 3 55 15 55 12 0 15 18 15 105 0 63 4 105 10
105 6 0 10 38 10 95 0 78 3 95 15 95 12 0 15 17 15 95 0 78 -3 95 -15 95 -11
0 -15 11 -15 40 0 22 -4 40 -10 40 -5 0 -10 25 -10 55 0 42 -3 55 -15 55 -11
0 -15 11 -15 40 0 29 -4 40 -15 40 -9 0 -15 9 -15 25 0 16 -6 25 -15 25 -9 0
-15 10 -15 26 0 26 -20 54 -39 54 -6 0 -11 14 -11 30 0 20 -5 30 -15 30 -9 0
-15 9 -15 25 0 14 -4 25 -10 25 -5 0 -10 14 -10 30 0 20 -5 30 -15 30 -8 0
-15 5 -15 10 0 6 -7 10 -15 10 -8 0 -15 7 -15 15 0 8 -4 15 -10 15 -5 0 -10 7
-10 15 0 10 -10 15 -30 15 -16 0 -30 5 -30 10 0 6 -7 10 -15 10 -8 0 -15 7
-15 15 0 9 -9 15 -25 15 -16 0 -25 6 -25 15 0 8 -7 15 -15 15 -8 0 -15 5 -15
10 0 6 -18 10 -40 10 -29 0 -40 4 -40 15 0 9 -9 15 -25 15 -16 0 -25 6 -25 15
0 11 -11 15 -40 15 -22 0 -40 5 -40 10 0 6 -33 10 -80 10 -64 0 -80 3 -80 15
0 8 -7 15 -15 15 -8 0 -15 -7 -15 -15 0 -13 -23 -15 -150 -15 -93 0 -150 -4
-150 -10 0 -6 -33 -10 -80 -10 -64 0 -80 -3 -80 -15 0 -11 -11 -15 -40 -15
-29 0 -40 -4 -40 -15 0 -11 -11 -15 -40 -15 -22 0 -40 -4 -40 -10 0 -5 -13
-10 -30 -10 -20 0 -30 -5 -30 -15 0 -9 -9 -15 -25 -15 -16 0 -25 -6 -25 -15 0
-8 -5 -15 -11 -15 -6 0 -17 -6 -25 -14 -8 -8 -14 -19 -14 -25 0 -6 -13 -11
-30 -11 -20 0 -30 -5 -30 -15 0 -8 -5 -15 -11 -15 -19 0 -39 -28 -39 -54 0
-16 -6 -26 -15 -26 -8 0 -15 -7 -15 -15 0 -8 -7 -15 -15 -15 -9 0 -15 -9 -15
-25 0 -14 -4 -25 -10 -25 -5 0 -10 -11 -10 -25 0 -16 -6 -25 -15 -25 -10 0
-15 -10 -15 -30 0 -20 -5 -30 -15 -30 -12 0 -15 -13 -15 -55 0 -30 -4 -55 -10
-55 -5 0 -10 -18 -10 -40 0 -29 -4 -40 -15 -40 -13 0 -15 -26 -15 -175 0 -149
2 -175 15 -175 12 0 15 -16 15 -80 0 -47 4 -80 10 -80 6 0 10 -18 10 -40 0
-29 4 -40 15 -40 12 0 15 -13 15 -55 0 -42 3 -55 15 -55 9 0 15 -9 15 -25 0
-14 5 -25 10 -25 6 0 10 -11 10 -25 0 -16 6 -25 15 -25 11 0 15 -12 15 -45 0
-41 -2 -45 -25 -45 -14 0 -25 -4 -25 -10 0 -5 -7 -10 -15 -10 -8 0 -15 -7 -15
-15 0 -9 -9 -15 -25 -15 -20 0 -25 5 -25 25 0 16 -6 25 -15 25 -11 0 -15 12
-15 45 0 33 -4 45 -15 45 -12 0 -15 14 -15 65 0 51 -3 65 -15 65 -9 0 -15 9
-15 25 0 14 -4 25 -10 25 -6 0 -10 30 -10 70 0 56 -3 70 -15 70 -12 0 -15 17
-15 95 0 78 -3 95 -15 95 -12 0 -15 16 -15 80 0 64 3 80 15 80 12 0 15 14 15
65 0 51 3 65 15 65 12 0 15 14 15 70 0 40 4 70 10 70 6 0 10 11 10 25 0 16 6
25 15 25 12 0 15 14 15 70 0 56 -3 70 -15 70 -11 0 -15 -11 -15 -40 0 -22 -4
-40 -10 -40 -5 0 -10 -7 -10 -15 0 -8 -7 -15 -15 -15 -12 0 -15 -13 -15 -55 0
-42 -3 -55 -15 -55 -11 0 -15 -11 -15 -40 0 -22 -4 -40 -10 -40 -6 0 -10 -87
-10 -240 0 -153 4 -240 10 -240 6 0 10 -30 10 -70 0 -56 3 -70 15 -70 12 0 15
-13 15 -55 0 -42 3 -55 15 -55 9 0 15 -9 15 -25 0 -14 5 -25 10 -25 6 0 10
-11 10 -25 0 -16 6 -25 15 -25 12 0 15 -14 15 -70 0 -56 3 -70 15 -70 11 0 15
-11 15 -40 0 -29 -4 -40 -15 -40 -9 0 -15 -9 -15 -25 0 -16 -6 -25 -15 -25 -8
0 -15 -7 -15 -15 0 -8 -4 -15 -10 -15 -5 0 -10 -11 -10 -25 0 -16 -6 -25 -15
-25 -12 0 -15 -17 -15 -95 0 -78 3 -95 15 -95 12 0 15 -13 15 -55 0 -30 5 -55
10 -55 6 0 10 -13 10 -30 0 -20 5 -30 15 -30 13 0 15 -24 15 -160 0 -136 2
-160 15 -160 11 0 15 -11 15 -40 0 -29 4 -40 15 -40 8 0 15 -5 15 -11 0 -14
25 -39 39 -39 6 0 11 -7 11 -15 0 -8 7 -15 15 -15 9 0 15 -9 15 -25 0 -20 5
-25 25 -25 16 0 25 -6 25 -15 0 -9 9 -15 25 -15 16 0 25 -6 25 -15 0 -8 7 -15
15 -15 8 0 15 -7 15 -15 0 -8 -7 -15 -15 -15 -12 0 -15 -17 -15 -90 0 -53 -4
-90 -10 -90 -6 0 -10 -57 -10 -150 0 -93 4 -150 10 -150 6 0 10 -7 10 -15 0
-8 7 -15 15 -15 13 0 15 26 15 175 0 149 2 175 15 175 12 0 15 17 15 95 0 78
3 95 15 95 12 0 15 13 15 55 0 30 5 55 10 55 6 0 10 25 10 55 0 42 3 55 15 55
9 0 15 9 15 25 0 16 6 25 15 25 10 0 15 10 15 30 0 25 4 30 25 30 16 0 25 -6
25 -15 0 -8 7 -15 15 -15 8 0 15 -7 15 -15 0 -8 5 -15 10 -15 6 0 10 7 10 15
0 8 -4 15 -10 15 -5 0 -10 7 -10 15 0 8 5 15 10 15 6 0 10 -7 10 -15 0 -8 7
-15 15 -15 8 0 15 -7 15 -15 0 -8 7 -15 15 -15 8 0 15 -7 15 -15 0 -8 -7 -15
-15 -15 -9 0 -15 -9 -15 -25 0 -16 -6 -25 -15 -25 -8 0 -15 -7 -15 -15 0 -8
-4 -15 -10 -15 -5 0 -10 -18 -10 -40 0 -29 -4 -40 -15 -40 -12 0 -15 -13 -15
-55 0 -42 -3 -55 -15 -55 -12 0 -15 -14 -15 -65 0 -37 -4 -65 -10 -65 -6 0
-10 -52 -10 -135 0 -83 4 -135 10 -135 6 0 10 -7 10 -15 0 -8 -4 -15 -10 -15
-5 0 -10 -18 -10 -40 0 -36 3 -40 25 -40 23 0 25 4 25 40 0 29 4 40 15 40 8 0
15 7 15 15 0 8 -7 15 -15 15 -12 0 -15 20 -15 120 0 100 3 120 15 120 12 0 15
14 15 70 l0 70 120 0 c73 0 120 4 120 10 0 6 11 10 25 10 16 0 25 6 25 15 0
10 10 15 30 15 20 0 30 5 30 15 0 8 7 15 15 15 8 0 15 5 15 11 0 14 25 39 39
39 6 0 11 7 11 15 0 8 7 15 15 15 8 0 15 7 15 15 0 8 5 15 10 15 6 0 10 11 10
25 0 16 6 25 15 25 9 0 15 9 15 25 0 14 -5 25 -11 25 -14 0 -39 -25 -39 -39 0
-6 -7 -11 -15 -11 -8 0 -15 -7 -15 -15 0 -8 -5 -15 -11 -15 -19 0 -39 -28 -39
-54 0 -22 -4 -26 -30 -26 -16 0 -30 -4 -30 -10 0 -5 -11 -10 -25 -10 -16 0
-25 -6 -25 -15 0 -10 -10 -15 -30 -15 -20 0 -30 -5 -30 -15 0 -12 -18 -15
-105 -15 -87 0 -105 3 -105 15 0 8 5 15 10 15 6 0 10 11 10 25 0 16 6 25 15
25 10 0 15 10 15 30 0 28 2 30 40 30 22 0 40 5 40 10 0 6 18 10 40 10 29 0 40
4 40 15 0 8 7 15 15 15 8 0 15 7 15 15 0 8 5 15 11 15 14 0 39 25 39 39 0 6 7
11 15 11 8 0 15 7 15 15 0 8 7 15 15 15 12 0 15 18 15 105 0 87 -3 105 -15
105 -8 0 -15 7 -15 15 0 8 -7 15 -15 15 -8 0 -15 5 -15 11 0 14 -25 39 -39 39
-6 0 -11 7 -11 15 0 8 -7 15 -15 15 -8 0 -15 7 -15 15 0 8 -4 15 -10 15 -5 0
-10 7 -10 15 0 9 -10 15 -26 15 -26 0 -54 20 -54 39 0 6 -13 11 -30 11 -20 0
-30 5 -30 15 0 8 -5 15 -11 15 -14 0 -39 25 -39 39 0 6 -7 11 -15 11 -8 0 -15
7 -15 15 0 8 -5 15 -11 15 -22 0 -39 30 -39 69 l0 41 80 0 c64 0 80 -3 80 -15
0 -9 9 -15 25 -15 21 0 25 -5 25 -30 0 -26 4 -30 26 -30 26 0 54 -20 54 -39 0
-6 7 -11 15 -11 8 0 15 -7 15 -15 0 -8 7 -15 15 -15 8 0 15 -4 15 -10 0 -5 11
-10 25 -10 16 0 25 -6 25 -15 0 -8 7 -15 15 -15 8 0 15 -7 15 -15 0 -8 5 -15
11 -15 14 0 39 -25 39 -39 0 -6 7 -11 15 -11 8 0 15 -7 15 -15 0 -8 7 -15 15
-15 8 0 15 -5 15 -11 0 -14 25 -39 39 -39 7 0 11 -50 11 -150 l0 -150 95 0
c78 0 95 3 95 15 0 12 13 15 55 15 42 0 55 3 55 15 0 9 9 15 25 15 14 0 25 5
25 10 0 6 18 10 40 10 38 0 40 2 40 30 0 28 2 30 40 30 22 0 40 5 40 10 0 6 7
10 15 10 8 0 15 7 15 15 0 8 7 15 15 15 8 0 15 5 15 11 0 14 25 39 39 39 6 0
11 7 11 15 0 8 7 15 15 15 8 0 15 7 15 15 0 8 7 15 15 15 8 0 15 5 15 10 0 6
11 10 25 10 21 0 25 5 25 30 0 20 5 30 15 30 8 0 15 7 15 15 0 9 9 15 25 15
20 0 25 5 25 25 0 16 6 25 15 25 8 0 15 7 15 15 0 8 5 15 10 15 6 0 10 11 10
25 0 16 6 25 15 25 8 0 15 7 15 15 0 8 7 15 15 15 11 0 15 11 15 40 0 29 4 40
15 40 9 0 15 9 15 25 0 14 5 25 10 25 6 0 10 14 10 30 0 20 5 30 15 30 11 0
15 12 15 50 0 38 4 50 15 50 11 0 15 11 15 40 0 22 5 40 10 40 6 0 10 25 10
55 0 42 3 55 15 55 11 0 15 11 15 40 0 29 4 40 15 40 12 0 15 13 15 55 0 30 5
55 10 55 6 0 10 47 10 120 0 100 3 120 15 120 12 0 15 16 15 85 0 69 -3 85
-15 85 -12 0 -15 17 -15 90 0 53 -4 90 -10 90 -5 0 -10 18 -10 40 0 29 -4 40
-15 40 -11 0 -15 12 -15 45 0 33 -4 45 -15 45 -9 0 -15 9 -15 25 0 14 -4 25
-10 25 -5 0 -10 18 -10 40 0 29 -4 40 -15 40 -9 0 -15 9 -15 25 0 16 -6 25
-15 25 -8 0 -15 7 -15 15 0 8 -4 15 -10 15 -5 0 -10 18 -10 40 0 29 -4 40 -15
40 -8 0 -15 7 -15 15 0 8 -7 15 -15 15 -9 0 -15 9 -15 25 0 16 -6 25 -15 25
-8 0 -15 7 -15 15 0 8 -4 15 -10 15 -5 0 -10 7 -10 15 0 8 -7 15 -15 15 -9 0
-15 9 -15 25 0 16 -6 25 -15 25 -8 0 -15 5 -15 11 0 19 -28 39 -54 39 -16 0
-26 6 -26 15 0 8 -4 15 -10 15 -5 0 -10 7 -10 15 0 10 -10 15 -30 15 -20 0
-30 5 -30 15 0 9 -9 15 -25 15 -14 0 -25 5 -25 10 0 6 -25 10 -55 10 -42 0
-55 3 -55 15 0 9 -9 15 -25 15 -16 0 -25 6 -25 15 0 12 -13 15 -55 15 -30 0
-55 5 -55 10 0 6 -70 10 -190 10 -120 0 -190 -4 -190 -10z m350 -245 c0 -11
11 -15 40 -15 22 0 40 -4 40 -10 0 -5 18 -10 40 -10 29 0 40 -4 40 -15 0 -10
10 -15 30 -15 17 0 30 -5 30 -11 0 -19 28 -39 54 -39 16 0 26 -6 26 -15 0 -9
9 -15 25 -15 16 0 25 -6 25 -15 0 -8 7 -15 15 -15 8 0 15 -4 15 -10 0 -5 7
-10 15 -10 8 0 15 -7 15 -15 0 -8 5 -15 10 -15 6 0 10 -7 10 -15 0 -8 7 -15
15 -15 9 0 15 -9 15 -25 0 -16 6 -25 15 -25 8 0 15 -7 15 -15 0 -8 5 -15 10
-15 6 0 10 -11 10 -25 0 -16 6 -25 15 -25 10 0 15 -10 15 -30 0 -20 5 -30 15
-30 11 0 15 -11 15 -40 0 -22 5 -40 10 -40 6 0 10 -11 10 -25 0 -16 6 -25 15
-25 10 0 15 -10 15 -30 0 -20 5 -30 15 -30 12 0 15 -14 15 -65 0 -51 3 -65 15
-65 12 0 15 -16 15 -80 0 -64 -3 -80 -15 -80 -13 0 -15 -25 -15 -165 0 -140
-2 -165 -15 -165 -12 0 -15 -14 -15 -65 0 -51 -3 -65 -15 -65 -11 0 -15 -11
-15 -40 0 -22 -4 -40 -10 -40 -5 0 -10 -13 -10 -30 0 -20 -5 -30 -15 -30 -11
0 -15 -11 -15 -40 0 -29 -4 -40 -15 -40 -9 0 -15 -9 -15 -25 0 -14 -4 -25 -10
-25 -5 0 -10 -11 -10 -25 0 -16 -6 -25 -15 -25 -8 0 -15 -7 -15 -15 0 -8 -7
-15 -15 -15 -9 0 -15 -9 -15 -25 0 -14 -4 -25 -10 -25 -5 0 -10 -13 -10 -30 0
-20 -5 -30 -15 -30 -8 0 -15 -7 -15 -15 0 -8 -7 -15 -15 -15 -8 0 -15 -4 -15
-10 0 -5 -7 -10 -15 -10 -8 0 -15 -7 -15 -15 0 -8 -4 -15 -10 -15 -5 0 -10 -7
-10 -15 0 -8 -7 -15 -15 -15 -8 0 -15 -4 -15 -10 0 -5 -7 -10 -15 -10 -8 0
-15 -7 -15 -15 0 -8 -4 -15 -10 -15 -5 0 -10 -7 -10 -15 0 -9 -10 -15 -26 -15
-26 0 -54 -20 -54 -39 0 -6 -7 -11 -15 -11 -8 0 -15 -7 -15 -15 0 -10 -10 -15
-30 -15 -16 0 -30 -5 -30 -11 0 -19 -28 -39 -54 -39 -16 0 -26 -6 -26 -15 0
-9 -9 -15 -25 -15 -16 0 -25 -6 -25 -15 0 -11 -11 -15 -40 -15 -22 0 -40 -4
-40 -10 0 -15 -49 -12 -66 4 -8 8 -14 26 -14 40 0 16 -6 26 -15 26 -11 0 -15
11 -15 40 0 29 -4 40 -15 40 -8 0 -15 5 -15 11 0 19 -28 39 -54 39 -16 0 -26
6 -26 15 0 8 -4 15 -10 15 -5 0 -10 7 -10 15 0 8 -7 15 -15 15 -8 0 -15 5 -15
10 0 6 -7 10 -15 10 -12 0 -15 17 -15 95 0 78 -3 95 -15 95 -10 0 -15 10 -15
30 0 17 -4 30 -10 30 -5 0 -10 11 -10 25 0 16 -6 25 -15 25 -9 0 -15 9 -15 25
0 16 -6 25 -15 25 -8 0 -15 7 -15 15 0 8 -4 15 -10 15 -5 0 -10 7 -10 15 0 8
-7 15 -15 15 -8 0 -15 5 -15 10 0 6 -11 10 -25 10 -16 0 -25 6 -25 15 0 12
-13 15 -55 15 l-55 0 0 55 c0 30 5 55 10 55 6 0 10 33 10 80 0 64 3 80 15 80
8 0 15 7 15 15 0 8 7 15 15 15 11 0 15 11 15 40 0 29 4 40 15 40 9 0 15 9 15
25 0 14 5 25 10 25 6 0 10 14 10 30 0 27 3 30 30 30 30 0 30 -1 30 -55 0 -30
5 -55 10 -55 6 0 10 -13 10 -30 0 -20 5 -30 15 -30 12 0 15 -18 15 -105 0 -87
3 -105 15 -105 11 0 15 -11 15 -40 0 -22 5 -40 10 -40 6 0 10 -25 10 -55 0
-42 3 -55 15 -55 11 0 15 -11 15 -40 0 -29 4 -40 15 -40 12 0 15 -13 15 -55 0
-42 3 -55 15 -55 12 0 15 -14 15 -65 0 -37 4 -65 10 -65 6 0 10 -13 10 -30 0
-20 5 -30 15 -30 8 0 15 -4 15 -10 0 -5 7 -10 15 -10 10 0 15 -10 15 -30 0
-25 4 -30 25 -30 25 0 25 1 25 80 0 64 3 80 15 80 12 0 15 -14 15 -65 0 -63 1
-65 25 -65 20 0 25 5 25 25 0 16 -6 25 -15 25 -12 0 -15 16 -15 85 0 50 -4 85
-10 85 -6 0 -10 42 -10 105 0 87 -3 105 -15 105 -13 0 -15 -22 -15 -135 0
-113 -2 -135 -15 -135 -13 0 -15 26 -15 175 0 110 -4 175 -10 175 -5 0 -10 7
-10 15 0 8 5 15 10 15 6 0 10 -7 10 -15 0 -8 7 -15 15 -15 12 0 15 14 15 70 0
56 -3 70 -15 70 -8 0 -15 -7 -15 -15 0 -8 -4 -15 -10 -15 -6 0 -10 28 -10 65
0 51 -3 65 -15 65 -10 0 -15 10 -15 30 0 20 -5 30 -15 30 -11 0 -15 11 -15 40
0 22 -4 40 -10 40 -5 0 -10 11 -10 25 0 20 5 25 25 25 14 0 25 -4 25 -10 0 -5
18 -10 40 -10 29 0 40 -4 40 -15 0 -11 11 -15 40 -15 l40 0 0 -55 c0 -42 3
-55 15 -55 13 0 15 -20 15 -120 l0 -120 25 0 c26 0 35 24 13 34 -10 5 -10 7 0
12 14 7 17 84 2 84 -6 0 -10 33 -10 80 0 64 -3 80 -15 80 -12 0 -15 13 -15 55
0 42 3 55 15 55 8 0 15 7 15 15 0 8 -7 15 -15 15 -8 0 -15 7 -15 15 0 10 -10
15 -30 15 -20 0 -30 -5 -30 -15 0 -9 -9 -15 -25 -15 -16 0 -25 6 -25 15 0 11
-12 15 -51 15 -49 0 -79 15 -79 39 0 6 -7 11 -15 11 -8 0 -15 7 -15 15 0 8 -7
15 -15 15 -9 0 -15 9 -15 25 0 16 -6 25 -15 25 -8 0 -15 7 -15 15 0 8 -4 15
-10 15 -5 0 -10 7 -10 15 0 8 -7 15 -15 15 -10 0 -15 -10 -15 -30 0 -25 -4
-30 -25 -30 l-25 0 0 120 c0 73 4 120 10 120 6 0 10 25 10 55 0 42 3 55 15 55
11 0 15 11 15 40 0 29 4 40 15 40 8 0 15 7 15 15 0 12 16 15 80 15 64 0 80 3
80 15 0 9 9 15 25 15 14 0 25 5 25 10 0 6 18 10 40 10 29 0 40 4 40 15 0 12
13 15 55 15 52 0 55 1 55 25 0 24 2 25 70 25 40 0 70 -4 70 -10 0 -5 -13 -10
-30 -10 -20 0 -30 -5 -30 -15 0 -11 11 -15 40 -15 29 0 40 4 40 15 0 10 10 15
30 15 20 0 30 -5 30 -15 0 -9 9 -15 25 -15 16 0 25 -6 25 -15 0 -8 7 -15 15
-15 8 0 15 -4 15 -10 0 -5 7 -10 15 -10 8 0 15 -7 15 -15 0 -8 5 -15 10 -15 6
0 10 -11 10 -25 0 -16 6 -25 15 -25 8 0 15 -7 15 -15 0 -8 7 -15 15 -15 12 0
15 -13 15 -55 0 -30 5 -55 10 -55 6 0 10 -11 10 -25 0 -14 -4 -25 -10 -25 -5
0 -10 -18 -10 -40 0 -29 -4 -40 -15 -40 -8 0 -15 5 -15 10 0 6 -11 10 -25 10
-14 0 -25 -4 -25 -10 0 -5 -13 -10 -30 -10 -20 0 -30 -5 -30 -15 0 -10 10 -15
30 -15 20 0 30 -5 30 -15 0 -8 5 -15 10 -15 6 0 10 7 10 15 0 8 7 15 15 15 8
0 15 -7 15 -15 0 -8 7 -15 15 -15 8 0 15 -4 15 -10 0 -5 -7 -10 -15 -10 -8 0
-15 -7 -15 -15 0 -11 -11 -15 -40 -15 -38 0 -40 -2 -40 -30 0 -16 -5 -30 -11
-30 -14 0 -39 -25 -39 -39 0 -6 -7 -11 -15 -11 -8 0 -15 -7 -15 -15 0 -11 -11
-15 -40 -15 -22 0 -40 -4 -40 -10 0 -5 -13 -10 -30 -10 -27 0 -30 -3 -30 -30
0 -20 5 -30 15 -30 12 0 15 -14 15 -65 0 -51 3 -65 15 -65 13 0 15 -23 15
-150 0 -93 4 -150 10 -150 6 0 10 -25 10 -55 0 -42 3 -55 15 -55 11 0 15 11
15 40 0 29 4 40 15 40 8 0 15 7 15 15 0 8 -7 15 -15 15 -11 0 -15 11 -15 40 0
29 -4 40 -15 40 -8 0 -15 7 -15 15 0 8 7 15 15 15 12 0 15 14 15 65 0 51 -3
65 -15 65 -8 0 -15 7 -15 15 0 8 7 15 15 15 8 0 15 7 15 15 0 8 -7 15 -15 15
-11 0 -15 11 -15 40 0 22 -4 40 -10 40 -5 0 -10 11 -10 25 0 23 4 25 40 25
l40 0 0 -55 c0 -52 1 -55 25 -55 21 0 25 5 25 30 0 17 -4 30 -10 30 -5 0 -10
18 -10 40 0 22 5 40 10 40 6 0 10 11 10 25 0 16 6 25 15 25 13 0 15 -20 15
-120 0 -100 -2 -120 -15 -120 -13 0 -15 -31 -15 -215 0 -184 2 -215 15 -215
13 0 15 -20 15 -120 l0 -120 25 0 25 0 0 105 c0 87 3 105 15 105 12 0 15 19
15 110 0 91 3 110 15 110 12 0 15 13 15 55 0 30 5 55 10 55 6 0 10 42 10 105
0 87 3 105 15 105 13 0 15 23 15 150 0 127 2 150 15 150 12 0 15 13 15 55 0
42 -3 55 -15 55 -12 0 -15 14 -15 65 0 51 3 65 15 65 8 0 15 7 15 15 0 8 -7
15 -15 15 -8 0 -15 5 -15 10 0 6 7 10 15 10 8 0 15 7 15 15 0 8 -7 15 -15 15
-10 0 -15 10 -15 30 0 20 -5 30 -15 30 -9 0 -15 9 -15 25 0 14 -4 25 -10 25
-5 0 -10 7 -10 15 0 8 -7 15 -15 15 -8 0 -15 5 -15 10 0 6 -11 10 -25 10 -16
0 -25 6 -25 15 0 8 -7 15 -15 15 -8 0 -15 7 -15 15 0 8 -7 15 -15 15 -9 0 -15
9 -15 25 0 20 -5 25 -25 25 -16 0 -25 6 -25 15 0 12 -13 15 -55 15 -42 0 -55
3 -55 15 0 8 -7 15 -15 15 -8 0 -15 -7 -15 -15 0 -12 -18 -15 -105 -15 -87 0
-105 -3 -105 -15 0 -12 -13 -15 -55 -15 -42 0 -55 -3 -55 -15 0 -11 -11 -15
-40 -15 -22 0 -40 -4 -40 -10 0 -5 -7 -10 -15 -10 -8 0 -15 -7 -15 -15 0 -8
-7 -15 -15 -15 -8 0 -15 -7 -15 -15 0 -9 -9 -15 -25 -15 -14 0 -25 -4 -25 -10
0 -5 -7 -10 -15 -10 -8 0 -15 -7 -15 -15 0 -8 -4 -15 -10 -15 -5 0 -10 -11
-10 -25 0 -16 -6 -25 -15 -25 -12 0 -15 -14 -15 -70 0 -56 -3 -70 -15 -70 -12
0 -15 -20 -15 -120 0 -100 3 -120 15 -120 12 0 15 -13 15 -55 0 -42 3 -55 15
-55 8 0 15 -7 15 -15 0 -10 -10 -15 -30 -15 -26 0 -30 4 -30 26 0 33 -21 54
-54 54 -16 0 -26 6 -26 15 0 8 -7 15 -15 15 -10 0 -15 10 -15 30 0 25 -4 30
-25 30 -16 0 -25 -6 -25 -15 0 -8 -7 -15 -15 -15 -11 0 -15 -11 -15 -40 0 -22
-4 -40 -10 -40 -5 0 -10 -7 -10 -15 0 -8 -7 -15 -15 -15 -9 0 -15 -9 -15 -25
0 -16 -6 -25 -15 -25 -8 0 -15 -7 -15 -15 0 -8 -4 -15 -10 -15 -5 0 -10 -25
-10 -55 0 -42 -3 -55 -15 -55 -9 0 -15 -9 -15 -25 0 -16 -6 -25 -15 -25 -12 0
-15 -16 -15 -80 0 -64 -3 -80 -15 -80 -11 0 -15 -11 -15 -40 0 -22 -4 -40 -10
-40 -5 0 -10 11 -10 25 0 16 -6 25 -15 25 -11 0 -15 11 -15 40 0 29 -4 40 -15
40 -9 0 -15 9 -15 25 0 14 -4 25 -10 25 -5 0 -10 25 -10 55 0 42 -3 55 -15 55
-12 0 -15 20 -15 120 0 100 -2 120 -15 120 -12 0 -15 19 -15 110 0 91 3 110
15 110 12 0 15 16 15 80 0 64 3 80 15 80 10 0 15 10 15 30 0 17 5 30 10 30 6
0 10 11 10 25 0 16 6 25 15 25 9 0 15 9 15 25 0 16 6 25 15 25 10 0 15 10 15
30 0 17 5 30 10 30 6 0 10 11 10 25 0 16 6 25 15 25 8 0 15 7 15 15 0 8 7 15
15 15 8 0 15 7 15 15 0 8 5 15 11 15 14 0 39 25 39 39 0 6 14 11 30 11 20 0
30 5 30 15 0 9 9 15 25 15 14 0 25 5 25 10 0 6 7 10 15 10 8 0 15 7 15 15 0
11 11 15 40 15 29 0 40 4 40 15 0 12 13 15 55 15 30 0 55 5 55 10 0 6 23 10
50 10 38 0 50 4 50 15 0 13 34 15 245 15 211 0 245 -2 245 -15z m-190 -295 c0
-5 -18 -10 -40 -10 -22 0 -40 5 -40 10 0 6 18 10 40 10 22 0 40 -4 40 -10z
m-110 -25 c0 -9 -9 -15 -25 -15 -16 0 -25 -6 -25 -15 0 -9 -9 -15 -25 -15 -16
0 -25 6 -25 15 0 9 9 15 25 15 16 0 25 6 25 15 0 9 9 15 25 15 16 0 25 -6 25
-15z m-430 -635 c0 -20 -5 -30 -15 -30 -8 0 -15 7 -15 15 0 8 -4 15 -10 15 -5
0 -10 7 -10 15 0 9 9 15 25 15 21 0 25 -5 25 -30z m-50 -40 c0 -5 -7 -10 -15
-10 -8 0 -15 5 -15 10 0 6 7 10 15 10 8 0 15 -4 15 -10z m270 0 c0 -5 -7 -10
-15 -10 -8 0 -15 5 -15 10 0 6 7 10 15 10 8 0 15 -4 15 -10z m780 0 c0 -5 -7
-10 -15 -10 -8 0 -15 5 -15 10 0 6 7 10 15 10 8 0 15 -4 15 -10z m-1110 -25
c0 -8 7 -15 15 -15 8 0 15 -7 15 -15 0 -8 -7 -15 -15 -15 -8 0 -15 7 -15 15 0
8 -4 15 -10 15 -5 0 -10 7 -10 15 0 8 5 15 10 15 6 0 10 -7 10 -15z m110 0 c0
-8 -7 -15 -15 -15 -8 0 -15 7 -15 15 0 8 7 15 15 15 8 0 15 -7 15 -15z m270
-25 c0 -29 4 -40 15 -40 8 0 15 -7 15 -15 0 -10 -10 -15 -30 -15 -30 0 -30 1
-30 55 0 42 3 55 15 55 11 0 15 -11 15 -40z m-270 -30 c0 -5 -7 -10 -15 -10
-10 0 -15 -10 -15 -30 0 -16 -4 -30 -10 -30 -5 0 -10 18 -10 40 0 36 3 40 25
40 14 0 25 -4 25 -10z m220 -55 c0 -8 5 -15 10 -15 6 0 10 -25 10 -55 0 -42 3
-55 15 -55 8 0 15 -4 15 -10 0 -5 7 -10 15 -10 12 0 15 -14 15 -70 0 -56 3
-70 15 -70 12 0 15 -13 15 -55 0 -42 -3 -55 -15 -55 -10 0 -15 10 -15 30 0 20
-5 30 -15 30 -12 0 -15 14 -15 65 0 51 -3 65 -15 65 -11 0 -15 11 -15 40 0 22
-4 40 -10 40 -5 0 -10 25 -10 55 0 42 -3 55 -15 55 -8 0 -15 7 -15 15 0 8 7
15 15 15 8 0 15 -7 15 -15z m-380 -55 c0 -5 11 -10 25 -10 16 0 25 -6 25 -15
0 -10 10 -15 30 -15 20 0 30 -5 30 -15 0 -8 -7 -15 -15 -15 -12 0 -15 -14 -15
-65 0 -51 -3 -65 -15 -65 -12 0 -15 -13 -15 -55 l0 -55 -50 0 -50 0 0 145 c0
103 4 150 13 160 14 17 37 20 37 5z m1160 -70 c0 -64 -3 -80 -15 -80 -12 0
-15 16 -15 80 0 64 3 80 15 80 12 0 15 -16 15 -80z m-1130 -280 c0 -6 38 -10
95 -10 78 0 95 -3 95 -15 0 -8 5 -15 10 -15 6 0 10 -7 10 -15 0 -8 7 -15 15
-15 8 0 15 -4 15 -10 0 -5 7 -10 15 -10 8 0 15 -7 15 -15 0 -8 5 -15 10 -15 6
0 10 -7 10 -15 0 -8 7 -15 15 -15 11 0 15 -11 15 -40 0 -29 4 -40 15 -40 12 0
15 -14 15 -65 0 -51 -3 -65 -15 -65 -8 0 -15 5 -15 10 0 6 -7 10 -15 10 -8 0
-15 7 -15 15 0 8 -4 15 -10 15 -5 0 -10 7 -10 15 0 8 -7 15 -15 15 -8 0 -15 7
-15 15 0 8 -7 15 -15 15 -9 0 -15 9 -15 25 0 14 -4 25 -10 25 -5 0 -10 7 -10
15 0 10 -10 15 -30 15 -16 0 -30 5 -30 10 0 6 -42 10 -105 10 -63 0 -105 -4
-105 -10 0 -5 -20 -10 -45 -10 -33 0 -45 -4 -45 -15 0 -9 -9 -15 -25 -15 -16
0 -25 -6 -25 -15 0 -9 -9 -15 -25 -15 -14 0 -25 -4 -25 -10 0 -5 -7 -10 -15
-10 -8 0 -15 -7 -15 -15 0 -8 -7 -15 -15 -15 -11 0 -15 -11 -15 -40 0 -22 -4
-40 -10 -40 -5 0 -10 -18 -10 -40 0 -29 -4 -40 -15 -40 -12 0 -15 -13 -15 -55
0 -42 -3 -55 -15 -55 -11 0 -15 11 -15 40 0 29 -4 40 -15 40 -12 0 -15 19 -15
110 0 91 3 110 15 110 11 0 15 11 15 40 0 29 4 40 15 40 8 0 15 5 15 10 0 6 7
10 15 10 8 0 15 7 15 15 0 8 5 15 10 15 6 0 10 7 10 15 0 8 7 15 15 15 8 0 15
5 15 10 0 6 11 10 25 10 16 0 25 6 25 15 0 10 10 15 30 15 20 0 30 5 30 15 0
12 16 15 80 15 47 0 80 4 80 10 0 6 7 10 15 10 8 0 15 -4 15 -10z m480 -65 c0
-30 -4 -55 -10 -55 -5 0 -10 25 -10 55 0 30 5 55 10 55 6 0 10 -25 10 -55z
m30 -150 c0 -51 -3 -65 -15 -65 -12 0 -15 14 -15 65 0 51 3 65 15 65 12 0 15
-14 15 -65z m-570 -25 c0 -5 -4 -10 -10 -10 -5 0 -10 5 -10 10 0 6 5 10 10 10
6 0 10 -4 10 -10z m-130 -55 c0 -11 11 -15 40 -15 40 0 40 0 40 -40 0 -29 -4
-40 -15 -40 -11 0 -15 -11 -15 -40 0 -29 -4 -40 -15 -40 -12 0 -15 -17 -15
-95 0 -57 -4 -95 -10 -95 -14 0 -12 -27 3 -34 10 -5 10 -7 0 -12 -16 -7 -18
-114 -3 -114 6 0 10 -18 10 -40 0 -29 4 -40 15 -40 8 0 15 -7 15 -15 0 -8 7
-15 15 -15 8 0 15 -7 15 -15 0 -8 7 -15 15 -15 9 0 15 -9 15 -25 0 -16 -6 -25
-15 -25 -11 0 -15 -11 -15 -40 0 -29 -4 -40 -15 -40 -8 0 -15 -7 -15 -15 0 -9
-9 -15 -25 -15 -16 0 -25 6 -25 15 0 8 -7 15 -15 15 -8 0 -15 7 -15 15 0 8 -5
15 -11 15 -14 0 -39 25 -39 39 0 6 -7 11 -15 11 -8 0 -15 7 -15 15 0 8 -7 15
-15 15 -11 0 -15 11 -15 40 0 22 -4 40 -10 40 -6 0 -10 38 -10 95 0 78 -3 95
-15 95 -8 0 -15 5 -15 10 0 6 7 10 15 10 12 0 15 13 15 55 0 30 5 55 10 55 6
0 10 18 10 40 0 29 4 40 15 40 12 0 15 16 15 80 0 64 3 80 15 80 8 0 15 7 15
15 0 8 5 15 10 15 6 0 10 7 10 15 0 10 10 15 30 15 20 0 30 -5 30 -15z m130 0
c0 -8 7 -15 15 -15 11 0 15 -11 15 -40 0 -29 4 -40 15 -40 8 0 15 -5 15 -11 0
-14 25 -39 39 -39 6 0 11 -7 11 -15 0 -8 7 -15 15 -15 8 0 15 -7 15 -15 0 -9
9 -15 25 -15 14 0 25 -4 25 -10 0 -5 7 -10 15 -10 10 0 15 -10 15 -30 0 -20
-5 -30 -15 -30 -8 0 -15 -7 -15 -15 0 -12 -14 -15 -65 -15 -51 0 -65 3 -65 15
0 12 -13 15 -55 15 l-55 0 0 55 c0 42 3 55 15 55 12 0 15 17 15 95 0 57 4 95
10 95 6 0 10 -7 10 -15z m60 -350 c0 -12 18 -15 105 -15 87 0 105 -3 105 -15
0 -12 13 -15 55 -15 30 0 55 -4 55 -10 0 -5 11 -10 25 -10 16 0 25 -6 25 -15
0 -8 7 -15 15 -15 11 0 15 -11 15 -40 0 -29 -4 -40 -15 -40 -8 0 -15 -7 -15
-15 0 -11 -12 -15 -50 -15 -38 0 -50 4 -50 15 0 12 -14 15 -70 15 -56 0 -70 3
-70 15 0 12 -14 15 -65 15 -37 0 -65 4 -65 10 0 6 -25 10 -55 10 -42 0 -55 3
-55 15 0 8 -7 15 -15 15 -12 0 -15 13 -15 55 l0 55 70 0 c56 0 70 -3 70 -15z
m-60 -190 c0 -8 7 -15 15 -15 8 0 15 -4 15 -10 0 -5 -7 -10 -15 -10 -8 0 -15
-7 -15 -15 0 -8 -4 -15 -10 -15 -5 0 -10 7 -10 15 0 8 -7 15 -15 15 -8 0 -15
5 -15 10 0 6 -7 10 -15 10 -8 0 -15 7 -15 15 0 11 11 15 40 15 29 0 40 -4 40
-15z m300 -50 c0 -12 13 -15 55 -15 42 0 55 -3 55 -15 0 -8 -7 -15 -15 -15 -8
0 -15 -7 -15 -15 0 -8 -7 -15 -15 -15 -8 0 -15 -4 -15 -10 0 -5 -18 -10 -40
-10 -29 0 -40 -4 -40 -15 0 -9 -9 -15 -25 -15 -16 0 -25 6 -25 15 0 8 7 15 15
15 9 0 15 9 15 25 0 14 5 25 10 25 6 0 10 14 10 30 0 20 5 30 15 30 8 0 15 -7
15 -15z"/>
<path d="M5430 2890 c0 -47 -4 -80 -10 -80 -5 0 -10 -13 -10 -30 0 -16 5 -30
10 -30 6 0 10 7 10 15 0 8 7 15 15 15 8 0 15 7 15 15 0 8 7 15 15 15 11 0 15
11 15 40 0 29 -4 40 -15 40 -11 0 -15 11 -15 40 0 29 -4 40 -15 40 -12 0 -15
-16 -15 -80z"/>
<path d="M4810 2930 c0 -5 -7 -10 -15 -10 -12 0 -15 -13 -15 -55 0 -42 3 -55
15 -55 8 0 15 5 15 10 0 6 7 10 15 10 12 0 15 13 15 55 0 42 -3 55 -15 55 -8
0 -15 -4 -15 -10z"/>
<path d="M4780 2766 c0 -8 -6 -17 -12 -20 -10 -5 -10 -7 0 -12 6 -3 12 -12 12
-20 0 -9 11 -14 30 -14 25 0 30 4 30 25 0 16 -6 25 -15 25 -8 0 -15 7 -15 15
0 8 -7 15 -15 15 -8 0 -15 -6 -15 -14z"/>
<path d="M5350 2740 c0 -5 -7 -10 -15 -10 -10 0 -15 -10 -15 -30 0 -25 -4 -30
-25 -30 -14 0 -25 -4 -25 -10 0 -5 -25 -10 -55 -10 -42 0 -55 -3 -55 -15 0
-11 -11 -15 -40 -15 -36 0 -40 -2 -40 -25 0 -22 4 -25 40 -25 22 0 40 5 40 10
0 6 25 10 55 10 42 0 55 3 55 15 0 8 7 15 15 15 8 0 15 5 15 11 0 26 30 39 94
39 52 0 66 3 66 15 0 8 7 15 15 15 8 0 15 7 15 15 0 11 -11 15 -40 15 -22 0
-40 5 -40 10 0 6 -13 10 -30 10 -16 0 -30 -4 -30 -10z"/>
<path d="M4840 2660 c0 -5 -7 -10 -15 -10 -10 0 -15 -10 -15 -30 l0 -30 95 0
95 0 0 30 0 30 -65 0 c-37 0 -65 4 -65 10 0 6 -7 10 -15 10 -8 0 -15 -4 -15
-10z"/>
<path d="M4810 2540 c0 -27 3 -30 30 -30 20 0 30 5 30 15 0 8 5 15 10 15 6 0
10 7 10 15 0 11 -11 15 -40 15 -38 0 -40 -2 -40 -30z"/>
<path d="M4870 2470 c0 -5 5 -10 10 -10 6 0 10 5 10 10 0 6 -4 10 -10 10 -5 0
-10 -4 -10 -10z"/>
<path d="M2030 3440 c0 -5 7 -10 15 -10 8 0 15 5 15 10 0 6 -7 10 -15 10 -8 0
-15 -4 -15 -10z"/>
<path d="M1520 3335 c0 -12 -16 -15 -80 -15 -64 0 -80 -3 -80 -15 0 -12 -13
-15 -55 -15 -30 0 -55 -4 -55 -10 0 -5 -18 -10 -40 -10 -29 0 -40 -4 -40 -15
0 -10 -10 -15 -30 -15 -20 0 -30 -5 -30 -15 0 -9 -9 -15 -25 -15 -14 0 -25 -4
-25 -10 0 -5 -13 -10 -30 -10 -20 0 -30 -5 -30 -15 0 -8 -4 -15 -10 -15 -5 0
-10 -7 -10 -15 0 -10 -10 -15 -30 -15 -20 0 -30 -5 -30 -15 0 -9 -9 -15 -25
-15 -14 0 -25 -4 -25 -10 0 -5 -7 -10 -15 -10 -8 0 -15 -7 -15 -15 0 -8 -4
-15 -10 -15 -5 0 -10 -7 -10 -15 0 -8 -7 -15 -15 -15 -8 0 -15 -4 -15 -10 0
-5 -13 -10 -30 -10 -26 0 -30 -4 -30 -26 0 -26 -20 -54 -39 -54 -6 0 -11 -7
-11 -15 0 -8 -7 -15 -15 -15 -8 0 -15 -7 -15 -15 0 -8 -4 -15 -10 -15 -5 0
-10 -7 -10 -15 0 -8 -7 -15 -15 -15 -8 0 -15 -4 -15 -10 0 -5 -7 -10 -15 -10
-9 0 -15 -10 -15 -26 0 -26 -20 -54 -39 -54 -6 0 -11 -13 -11 -30 0 -20 -5
-30 -15 -30 -11 0 -15 -12 -15 -50 0 -38 -4 -50 -15 -50 -12 0 -15 -13 -15
-55 0 -30 -4 -55 -10 -55 -5 0 -10 -25 -10 -55 0 -42 -3 -55 -15 -55 -8 0 -15
-7 -15 -15 0 -8 7 -15 15 -15 8 0 15 -4 15 -10 0 -5 -7 -10 -15 -10 -13 0 -15
-22 -15 -135 0 -113 2 -135 15 -135 8 0 15 -7 15 -15 0 -8 5 -15 10 -15 6 0
10 11 10 25 0 16 6 25 15 25 12 0 15 -14 15 -65 0 -51 3 -65 15 -65 12 0 15
-13 15 -55 0 -42 -3 -55 -15 -55 -8 0 -15 -7 -15 -15 0 -9 -9 -15 -25 -15 -14
0 -25 -4 -25 -10 0 -5 -13 -10 -30 -10 -20 0 -30 -5 -30 -15 0 -8 -4 -15 -10
-15 -5 0 -10 -7 -10 -15 0 -9 -10 -15 -26 -15 -33 0 -54 -21 -54 -54 0 -16 -6
-26 -15 -26 -8 0 -15 -4 -15 -10 0 -5 -7 -10 -15 -10 -10 0 -15 -10 -15 -30 0
-20 -5 -30 -15 -30 -9 0 -15 -9 -15 -25 0 -14 -4 -25 -10 -25 -6 0 -10 -33
-10 -80 0 -47 4 -80 10 -80 6 0 10 -20 10 -45 0 -33 4 -45 15 -45 8 0 15 -4
15 -10 0 -5 7 -10 15 -10 8 0 15 -7 15 -15 0 -8 7 -15 15 -15 8 0 15 -7 15
-15 0 -8 5 -15 10 -15 6 0 10 -11 10 -25 0 -14 -4 -25 -10 -25 -5 0 -10 -18
-10 -40 0 -29 -4 -40 -15 -40 -12 0 -15 -20 -15 -120 0 -100 3 -120 15 -120 9
0 15 -10 15 -26 0 -33 21 -54 54 -54 22 0 26 -4 26 -30 0 -20 -5 -30 -15 -30
-9 0 -15 -9 -15 -25 0 -16 -6 -25 -15 -25 -11 0 -15 -11 -15 -40 0 -22 -4 -40
-10 -40 -5 0 -10 -18 -10 -40 0 -29 -4 -40 -15 -40 -12 0 -15 -13 -15 -55 0
-52 1 -55 25 -55 20 0 25 5 25 25 0 16 6 25 15 25 12 0 15 14 15 70 0 56 3 70
15 70 11 0 15 11 15 40 0 22 5 40 10 40 6 0 10 18 10 40 0 29 4 40 15 40 9 0
15 9 15 25 0 16 6 25 15 25 10 0 15 10 15 30 0 17 5 30 10 30 6 0 10 11 10 25
0 16 6 25 15 25 9 0 15 9 15 25 0 16 6 25 15 25 10 0 15 10 15 30 0 20 5 30
15 30 8 0 15 7 15 15 0 8 5 15 10 15 6 0 10 11 10 25 0 16 6 25 15 25 8 0 15
7 15 15 0 9 9 15 25 15 16 0 25 -6 25 -15 0 -8 7 -15 15 -15 8 0 15 -7 15 -15
0 -8 7 -15 15 -15 9 0 15 -9 15 -25 0 -16 -6 -25 -15 -25 -8 0 -15 -7 -15 -15
0 -8 -7 -15 -15 -15 -9 0 -15 -9 -15 -25 0 -14 -4 -25 -10 -25 -5 0 -10 -13
-10 -30 0 -20 -5 -30 -15 -30 -8 0 -15 -4 -15 -10 0 -5 -7 -10 -15 -10 -11 0
-15 -11 -15 -40 0 -22 -4 -40 -10 -40 -5 0 -10 -13 -10 -30 0 -20 -5 -30 -15
-30 -8 0 -15 -7 -15 -15 0 -8 -7 -15 -15 -15 -11 0 -15 -12 -15 -50 0 -38 -4
-50 -15 -50 -11 0 -15 -11 -15 -40 0 -22 -4 -40 -10 -40 -6 0 -10 -30 -10 -70
0 -68 1 -70 25 -70 24 0 25 2 25 70 0 56 3 70 15 70 11 0 15 12 15 50 0 38 4
50 15 50 8 0 15 7 15 15 0 13 20 15 120 15 100 0 120 3 120 15 0 11 11 15 40
15 22 0 40 5 40 10 0 6 7 10 15 10 8 0 15 7 15 15 0 8 5 15 10 15 6 0 10 7 10
15 0 8 7 15 15 15 12 0 15 17 15 95 0 78 -3 95 -15 95 -9 0 -15 9 -15 25 0 14
-4 25 -10 25 -5 0 -10 7 -10 15 0 8 -7 15 -15 15 -9 0 -15 9 -15 25 0 16 -6
25 -15 25 -8 0 -15 7 -15 15 0 8 -4 15 -10 15 -5 0 -10 11 -10 25 0 20 5 25
25 25 16 0 25 6 25 15 0 12 19 15 110 15 91 0 110 3 110 15 0 12 17 15 90 15
53 0 90 4 90 10 0 6 20 10 45 10 33 0 45 4 45 15 0 11 12 15 50 15 38 0 50 4
50 15 0 10 10 15 30 15 17 0 30 5 30 10 0 6 11 10 25 10 16 0 25 6 25 15 0 11
11 15 40 15 29 0 40 4 40 15 0 10 10 15 30 15 20 0 30 5 30 15 0 9 9 15 25 15
14 0 25 5 25 10 0 6 7 10 15 10 8 0 15 7 15 15 0 9 9 15 25 15 16 0 25 6 25
15 0 8 7 15 15 15 8 0 15 5 15 10 0 6 7 10 15 10 8 0 15 7 15 15 0 9 9 15 25
15 16 0 25 6 25 15 0 9 9 15 25 15 20 0 25 5 25 25 0 16 6 25 15 25 8 0 15 7
15 15 0 8 7 15 15 15 8 0 15 5 15 11 0 14 25 39 39 39 6 0 11 14 11 30 0 20 5
30 15 30 8 0 15 5 15 10 0 6 7 10 15 10 8 0 15 7 15 15 0 8 5 15 10 15 6 0 10
7 10 15 0 8 7 15 15 15 9 0 15 9 15 25 0 16 6 25 15 25 9 0 15 9 15 25 0 14 5
25 10 25 6 0 10 7 10 15 0 8 7 15 15 15 10 0 15 10 15 30 0 20 5 30 15 30 9 0
15 9 15 25 0 14 5 25 10 25 6 0 10 18 10 40 0 29 4 40 15 40 9 0 15 9 15 25 0
16 6 25 15 25 10 0 15 10 15 30 0 20 5 30 15 30 12 0 15 14 15 65 0 37 4 65
10 65 6 0 10 25 10 55 0 42 3 55 15 55 12 0 15 17 15 95 0 78 3 95 15 95 11 0
15 11 15 40 0 29 -4 40 -15 40 -9 0 -15 9 -15 25 0 16 6 25 15 25 8 0 15 7 15
15 0 8 -7 15 -15 15 -12 0 -15 13 -15 55 0 42 -3 55 -15 55 -9 0 -15 9 -15 25
0 14 -4 25 -10 25 -5 0 -10 14 -10 30 0 20 -5 30 -15 30 -11 0 -15 11 -15 40
0 29 -4 40 -15 40 -8 0 -15 5 -15 10 0 6 -11 10 -25 10 -16 0 -25 6 -25 15 0
8 -7 15 -15 15 -10 0 -15 10 -15 30 0 25 -4 30 -25 30 -14 0 -25 5 -25 10 0 6
-13 10 -30 10 -20 0 -30 5 -30 15 0 8 -4 15 -10 15 -5 0 -10 7 -10 15 0 11
-12 15 -45 15 -25 0 -45 5 -45 10 0 6 -11 10 -25 10 -16 0 -25 6 -25 15 0 11
-11 15 -40 15 -29 0 -40 4 -40 15 0 13 -31 15 -215 15 -184 0 -215 -2 -215
-15z m400 -55 c0 -5 18 -10 40 -10 29 0 40 -4 40 -15 0 -11 11 -15 40 -15 29
0 40 -4 40 -15 0 -11 11 -15 41 -15 39 0 69 -17 69 -39 0 -6 7 -11 15 -11 8 0
15 -7 15 -15 0 -9 9 -15 25 -15 16 0 25 -6 25 -15 0 -8 7 -15 15 -15 8 0 15
-4 15 -10 0 -5 7 -10 15 -10 8 0 15 -7 15 -15 0 -8 5 -15 10 -15 6 0 10 -11
10 -25 0 -16 6 -25 15 -25 8 0 15 -7 15 -15 0 -8 7 -15 15 -15 11 0 15 -11 15
-40 0 -29 4 -40 15 -40 12 0 15 -17 15 -95 0 -57 4 -95 10 -95 6 0 10 -11 10
-25 0 -14 -4 -25 -10 -25 -6 0 -10 -48 -10 -125 0 -104 -2 -125 -15 -125 -11
0 -15 -12 -15 -50 0 -38 -4 -50 -15 -50 -12 0 -15 -13 -15 -55 0 -42 -3 -55
-15 -55 -10 0 -15 -10 -15 -30 0 -16 -4 -30 -10 -30 -5 0 -10 -11 -10 -25 0
-16 -6 -25 -15 -25 -11 0 -15 -11 -15 -40 0 -29 -4 -40 -15 -40 -9 0 -15 -9
-15 -25 0 -14 -4 -25 -10 -25 -5 0 -10 -13 -10 -30 0 -20 -5 -30 -15 -30 -9 0
-15 -9 -15 -25 0 -16 -6 -25 -15 -25 -8 0 -15 -7 -15 -15 0 -8 -4 -15 -10 -15
-5 0 -10 -11 -10 -25 0 -16 -6 -25 -15 -25 -8 0 -15 -7 -15 -15 0 -8 -7 -15
-15 -15 -8 0 -15 -7 -15 -15 0 -8 -5 -15 -11 -15 -14 0 -39 -25 -39 -39 0 -6
-7 -11 -15 -11 -8 0 -15 -7 -15 -15 0 -8 -7 -15 -15 -15 -9 0 -15 -9 -15 -25
0 -14 -4 -25 -10 -25 -5 0 -10 -7 -10 -15 0 -8 -7 -15 -15 -15 -8 0 -15 -7
-15 -15 0 -8 -7 -15 -15 -15 -8 0 -15 -4 -15 -10 0 -5 -11 -10 -25 -10 -16 0
-25 -6 -25 -15 0 -8 -7 -15 -15 -15 -8 0 -15 -7 -15 -15 0 -9 -9 -15 -25 -15
-14 0 -25 -4 -25 -10 0 -5 -13 -10 -30 -10 -20 0 -30 -5 -30 -15 0 -9 -9 -15
-25 -15 -16 0 -25 -6 -25 -15 0 -8 -7 -15 -15 -15 -8 0 -15 -4 -15 -10 0 -5
-18 -10 -40 -10 -29 0 -40 -4 -40 -15 0 -9 -9 -15 -25 -15 -16 0 -25 -6 -25
-15 0 -11 -11 -15 -40 -15 -29 0 -40 -4 -40 -15 0 -11 -11 -15 -40 -15 -22 0
-40 -4 -40 -10 0 -5 -25 -10 -55 -10 -42 0 -55 -3 -55 -15 0 -12 -16 -15 -80
-15 -64 0 -80 -3 -80 -15 0 -12 -17 -15 -95 -15 -57 0 -95 -4 -95 -10 0 -6
-30 -10 -70 -10 -40 0 -70 4 -70 10 0 6 -7 10 -15 10 -11 0 -15 11 -15 40 0
22 -4 40 -10 40 -5 0 -10 7 -10 15 0 8 5 15 10 15 6 0 10 7 10 15 0 8 7 15 15
15 8 0 15 -7 15 -15 0 -12 14 -15 70 -15 56 0 70 3 70 15 0 8 5 15 10 15 6 0
10 -7 10 -15 0 -8 7 -15 15 -15 8 0 15 7 15 15 0 12 14 15 70 15 56 0 70 3 70
15 0 12 14 15 65 15 37 0 65 4 65 10 0 6 25 10 55 10 42 0 55 3 55 15 0 12 13
15 55 15 42 0 55 3 55 15 0 11 11 15 40 15 22 0 40 5 40 10 0 6 11 10 25 10
16 0 25 6 25 15 0 10 10 15 30 15 20 0 30 5 30 15 0 9 9 15 25 15 14 0 25 5
25 10 0 6 11 10 25 10 16 0 25 6 25 15 0 10 10 15 30 15 20 0 30 5 30 15 0 8
5 15 10 15 6 0 10 7 10 15 0 8 7 15 15 15 8 0 15 5 15 10 0 6 7 10 15 10 8 0
15 7 15 15 0 8 7 15 15 15 8 0 15 5 15 11 0 14 25 39 39 39 6 0 11 7 11 15 0
8 7 15 15 15 8 0 15 7 15 15 0 8 5 15 10 15 6 0 10 11 10 25 0 16 6 25 15 25
8 0 15 7 15 15 0 8 7 15 15 15 9 0 15 9 15 25 0 14 5 25 10 25 6 0 10 7 10 15
0 8 7 15 15 15 8 0 15 7 15 15 0 8 7 15 15 15 9 0 15 9 15 25 0 16 6 25 15 25
8 0 15 7 15 15 0 8 5 15 10 15 6 0 10 11 10 25 0 16 6 25 15 25 9 0 15 9 15
25 0 16 6 25 15 25 10 0 15 10 15 30 0 17 5 30 10 30 6 0 10 18 10 40 0 29 4
40 15 40 12 0 15 17 15 95 0 78 3 95 15 95 13 0 15 23 15 145 0 122 -2 145
-15 145 -12 0 -15 13 -15 55 0 42 -3 55 -15 55 -10 0 -15 10 -15 30 0 17 -4
30 -10 30 -5 0 -10 11 -10 25 0 16 -6 25 -15 25 -8 0 -15 7 -15 15 0 8 -5 15
-11 15 -14 0 -39 25 -39 39 0 6 -7 11 -15 11 -8 0 -15 7 -15 15 0 10 -10 15
-30 15 -16 0 -30 5 -30 10 0 6 -11 10 -25 10 -16 0 -25 6 -25 15 0 8 -7 15
-15 15 -8 0 -15 7 -15 15 0 12 -14 15 -65 15 -51 0 -65 3 -65 15 0 13 -23 15
-150 15 -127 0 -150 -2 -150 -15 0 -12 -13 -15 -55 -15 -42 0 -55 -3 -55 -15
0 -12 -14 -15 -65 -15 -51 0 -65 -3 -65 -15 0 -11 -11 -15 -40 -15 -22 0 -40
-4 -40 -10 0 -5 -18 -10 -40 -10 -29 0 -40 -4 -40 -15 0 -10 -10 -15 -30 -15
-20 0 -30 -5 -30 -15 0 -9 -9 -15 -25 -15 -14 0 -25 -4 -25 -10 0 -5 -7 -10
-15 -10 -8 0 -15 -7 -15 -15 0 -8 -7 -15 -15 -15 -8 0 -15 -7 -15 -15 0 -9 -9
-15 -25 -15 -14 0 -25 -4 -25 -10 0 -5 -7 -10 -15 -10 -8 0 -15 -7 -15 -15 0
-9 -9 -15 -25 -15 -16 0 -25 -6 -25 -15 0 -8 -7 -15 -15 -15 -9 0 -15 -9 -15
-25 0 -20 -5 -25 -25 -25 -21 0 -25 -5 -25 -30 0 -27 -3 -30 -30 -30 -28 0
-30 -3 -30 -36 0 -35 -18 -64 -39 -64 -6 0 -11 -7 -11 -15 0 -8 -7 -15 -15
-15 -11 0 -15 -11 -15 -40 0 -22 -4 -40 -10 -40 -5 0 -10 -25 -10 -55 0 -42
-3 -55 -15 -55 -12 0 -15 -13 -15 -55 0 -42 -3 -55 -15 -55 -13 0 -15 -23 -15
-145 l0 -145 30 0 30 0 0 175 c0 110 4 175 10 175 6 0 10 18 10 40 0 29 4 40
15 40 11 0 15 11 15 40 0 29 4 40 15 40 9 0 15 9 15 25 0 14 5 25 10 25 6 0
10 14 10 30 0 20 5 30 15 30 8 0 15 5 15 10 0 6 7 10 15 10 10 0 15 10 15 30
0 25 4 30 25 30 20 0 25 5 25 25 0 16 6 25 15 25 8 0 15 7 15 15 0 8 5 15 11
15 14 0 39 25 39 39 0 6 14 11 30 11 20 0 30 5 30 15 0 8 5 15 10 15 6 0 10 7
10 15 0 8 7 15 15 15 8 0 15 5 15 10 0 6 7 10 15 10 8 0 15 7 15 15 0 9 9 15
25 15 16 0 25 6 25 15 0 11 11 15 40 15 22 0 40 5 40 10 0 6 18 10 40 10 29 0
40 4 40 15 0 11 12 15 45 15 33 0 45 4 45 15 0 11 11 15 40 15 22 0 40 5 40
10 0 6 38 10 95 10 78 0 95 3 95 15 0 13 20 15 120 15 100 0 120 -2 120 -15 0
-11 12 -15 51 -15 49 0 79 -15 79 -39 0 -6 14 -11 30 -11 20 0 30 -5 30 -15 0
-9 9 -15 25 -15 14 0 25 -4 25 -10 0 -5 7 -10 15 -10 8 0 15 -7 15 -15 0 -8 7
-15 15 -15 8 0 15 -5 15 -11 0 -14 25 -39 39 -39 6 0 11 -13 11 -30 0 -20 5
-30 15 -30 12 0 15 -13 15 -55 0 -30 5 -55 10 -55 6 0 10 -65 10 -175 0 -110
-4 -175 -10 -175 -6 0 -10 -28 -10 -65 0 -51 -3 -65 -15 -65 -11 0 -15 -11
-15 -40 0 -29 -4 -40 -15 -40 -10 0 -15 -10 -15 -30 0 -16 -4 -30 -10 -30 -5
0 -10 -18 -10 -40 0 -29 -4 -40 -15 -40 -8 0 -15 -4 -15 -10 0 -5 -7 -10 -15
-10 -8 0 -15 -7 -15 -15 0 -8 -7 -15 -15 -15 -8 0 -15 -7 -15 -15 0 -8 -4 -15
-10 -15 -5 0 -10 -11 -10 -25 0 -16 -6 -25 -15 -25 -8 0 -15 -7 -15 -15 0 -8
-7 -15 -15 -15 -9 0 -15 -9 -15 -25 0 -14 -4 -25 -10 -25 -5 0 -10 -7 -10 -15
0 -8 -7 -15 -15 -15 -8 0 -15 -7 -15 -15 0 -8 -5 -15 -11 -15 -14 0 -39 -25
-39 -39 0 -6 -7 -11 -15 -11 -8 0 -15 -7 -15 -15 0 -8 -7 -15 -15 -15 -8 0
-15 -4 -15 -10 0 -5 -7 -10 -15 -10 -8 0 -15 -7 -15 -15 0 -8 -4 -15 -10 -15
-5 0 -10 -7 -10 -15 0 -8 -7 -15 -15 -15 -8 0 -15 -4 -15 -10 0 -5 -11 -10
-25 -10 -16 0 -25 -6 -25 -15 0 -8 -7 -15 -15 -15 -8 0 -15 -7 -15 -15 0 -9
-9 -15 -25 -15 -16 0 -25 -6 -25 -15 0 -10 -10 -15 -30 -15 -16 0 -30 -4 -30
-10 0 -5 -11 -10 -25 -10 -16 0 -25 -6 -25 -15 0 -12 -13 -15 -55 -15 -42 0
-55 -3 -55 -15 0 -11 -11 -15 -40 -15 -22 0 -40 -4 -40 -10 0 -5 -25 -10 -55
-10 -42 0 -55 -3 -55 -15 0 -12 -16 -15 -80 -15 -64 0 -80 -3 -80 -15 0 -12
-13 -15 -55 -15 -42 0 -55 3 -55 15 0 8 7 15 15 15 9 0 15 9 15 25 0 14 5 25
10 25 6 0 10 47 10 121 0 120 -8 149 -39 149 -6 0 -11 7 -11 15 0 8 -7 15 -15
15 -8 0 -15 7 -15 15 0 9 -9 15 -25 15 -14 0 -25 5 -25 10 0 6 -7 10 -15 10
-10 0 -15 10 -15 30 0 20 5 30 15 30 9 0 15 9 15 25 0 16 6 25 15 25 8 0 15 7
15 15 0 8 5 15 10 15 6 0 10 7 10 15 0 8 7 15 15 15 8 0 15 5 15 10 0 6 7 10
15 10 8 0 15 7 15 15 0 8 5 15 10 15 6 0 10 11 10 25 0 21 5 25 30 25 27 0 30
3 30 30 0 20 5 30 15 30 8 0 15 -7 15 -15 0 -11 11 -15 40 -15 36 0 40 3 40
25 0 14 5 25 10 25 6 0 10 14 10 30 0 20 5 30 15 30 8 0 15 5 15 10 0 6 7 10
15 10 8 0 15 7 15 15 0 8 5 15 10 15 6 0 10 7 10 15 0 8 7 15 15 15 8 0 15 7
15 15 0 11 -11 15 -40 15 -29 0 -40 -4 -40 -15 0 -8 -7 -15 -15 -15 -8 0 -15
-7 -15 -15 0 -9 -9 -15 -25 -15 -16 0 -25 -6 -25 -15 0 -8 -7 -15 -15 -15 -8
0 -15 -4 -15 -10 0 -5 -11 -10 -25 -10 -21 0 -25 -5 -25 -30 0 -20 -5 -30 -15
-30 -8 0 -15 -4 -15 -10 0 -5 -7 -10 -15 -10 -8 0 -15 -7 -15 -15 0 -8 -4 -15
-10 -15 -5 0 -10 -7 -10 -15 0 -8 -7 -15 -15 -15 -8 0 -15 -4 -15 -10 0 -5 -7
-10 -15 -10 -8 0 -15 -7 -15 -15 0 -8 -4 -15 -10 -15 -5 0 -10 -7 -10 -15 0
-8 -7 -15 -15 -15 -8 0 -15 -4 -15 -10 0 -5 -7 -10 -15 -10 -10 0 -15 -10 -15
-30 0 -16 -4 -30 -10 -30 -5 0 -10 -7 -10 -15 0 -8 -7 -15 -15 -15 -8 0 -15
-4 -15 -10 0 -5 -7 -10 -15 -10 -8 0 -15 -7 -15 -15 0 -9 -9 -15 -25 -15 -16
0 -25 6 -25 15 0 11 -11 15 -40 15 -29 0 -40 -4 -40 -15 0 -10 -10 -15 -30
-15 l-30 0 0 110 c0 67 -4 110 -10 110 -5 0 -10 18 -10 40 0 38 -2 40 -30 40
-20 0 -30 -5 -30 -15 0 -8 -7 -15 -15 -15 -12 0 -15 20 -15 120 0 100 3 120
15 120 12 0 15 17 15 95 0 78 3 95 15 95 11 0 15 11 15 40 0 29 4 40 15 40 10
0 15 10 15 30 0 17 5 30 10 30 6 0 10 11 10 25 0 16 6 25 15 25 9 0 15 9 15
25 0 16 6 25 15 25 8 0 15 7 15 15 0 8 5 15 10 15 6 0 10 11 10 25 0 16 6 25
15 25 8 0 15 7 15 15 0 8 7 15 15 15 8 0 15 7 15 15 0 8 5 15 10 15 6 0 10 7
10 15 0 8 7 15 15 15 8 0 15 5 15 10 0 6 7 10 15 10 8 0 15 7 15 15 0 9 9 15
25 15 20 0 25 5 25 25 0 21 5 25 30 25 20 0 30 5 30 15 0 9 9 15 25 15 16 0
25 6 25 15 0 8 7 15 15 15 8 0 15 5 15 10 0 6 11 10 25 10 16 0 25 6 25 15 0
8 7 15 15 15 8 0 15 7 15 15 0 9 9 15 25 15 16 0 25 6 25 15 0 11 11 15 40 15
22 0 40 5 40 10 0 6 14 10 30 10 20 0 30 5 30 15 0 12 14 15 65 15 51 0 65 3
65 15 0 12 16 15 80 15 47 0 80 4 80 10 0 6 70 10 190 10 120 0 190 -4 190
-10z m-1080 -1535 c0 -8 7 -15 15 -15 8 0 15 -7 15 -15 0 -8 7 -15 15 -15 8 0
15 -4 15 -10 0 -5 11 -10 25 -10 23 0 25 -4 25 -40 0 -29 4 -40 15 -40 11 0
15 -12 15 -45 0 -33 -4 -45 -15 -45 -11 0 -15 -12 -15 -50 0 -38 -4 -50 -15
-50 -10 0 -15 -10 -15 -30 0 -25 -4 -30 -25 -30 -14 0 -25 -4 -25 -10 0 -5
-25 -10 -55 -10 -52 0 -55 1 -55 25 0 16 6 25 15 25 9 0 15 9 15 25 0 16 6 25
15 25 12 0 15 16 15 85 0 69 -3 85 -15 85 -8 0 -15 5 -15 10 0 6 -18 10 -40
10 -29 0 -40 4 -40 15 0 12 -14 15 -70 15 -56 0 -70 -3 -70 -15 0 -11 -11 -15
-40 -15 -22 0 -40 -4 -40 -10 0 -5 -11 -10 -25 -10 -16 0 -25 -6 -25 -15 0 -8
-7 -15 -15 -15 -8 0 -15 -7 -15 -15 0 -8 -7 -15 -15 -15 -8 0 -15 -7 -15 -15
0 -8 -4 -15 -10 -15 -6 0 -10 -32 -10 -76 0 -74 11 -104 39 -104 6 0 11 -7 11
-15 0 -8 -7 -15 -15 -15 -8 0 -15 -7 -15 -15 0 -8 -4 -15 -10 -15 -5 0 -10
-11 -10 -25 0 -20 -5 -25 -26 -25 -26 0 -54 20 -54 39 0 6 -7 11 -15 11 -11 0
-15 11 -15 40 0 29 -4 40 -15 40 -12 0 -15 13 -15 55 0 42 3 55 15 55 11 0 15
11 15 40 0 29 4 40 15 40 9 0 15 10 15 26 0 26 20 54 39 54 6 0 11 7 11 15 0
8 7 15 15 15 8 0 15 7 15 15 0 9 9 15 25 15 14 0 25 5 25 10 0 6 7 10 15 10 8
0 15 7 15 15 0 11 11 15 40 15 29 0 40 4 40 15 0 13 24 15 160 15 136 0 160
-2 160 -15z m-190 -190 c0 -25 -4 -45 -10 -45 -6 0 -10 -28 -10 -65 0 -37 4
-65 10 -65 15 0 12 -19 -4 -36 -10 -9 -37 -14 -80 -14 l-66 0 0 40 c0 29 4 40
15 40 11 0 15 11 15 40 0 29 4 40 15 40 11 0 15 11 15 40 0 22 5 40 10 40 6 0
10 7 10 15 0 11 11 15 40 15 l40 0 0 -45z m110 -40 c0 -42 -3 -55 -15 -55 -11
0 -15 -11 -15 -40 0 -22 -4 -40 -10 -40 -5 0 -10 -11 -10 -25 0 -16 -6 -25
-15 -25 -12 0 -15 16 -15 80 0 64 3 80 15 80 11 0 15 11 15 40 0 36 3 40 25
40 24 0 25 -3 25 -55z m-270 -15 c0 -5 -7 -10 -15 -10 -11 0 -15 -11 -15 -40
0 -22 -4 -40 -10 -40 -5 0 -10 -7 -10 -15 0 -8 -7 -15 -15 -15 -8 0 -15 7 -15
15 0 8 -7 15 -15 15 -9 0 -15 9 -15 25 0 16 6 25 15 25 8 0 15 7 15 15 0 8 7
15 15 15 8 0 15 5 15 10 0 6 11 10 25 10 14 0 25 -4 25 -10z m160 -245 c0 -8
7 -15 15 -15 11 0 15 -12 15 -50 l0 -50 -95 0 c-57 0 -95 4 -95 10 0 6 -25 10
-55 10 -42 0 -55 3 -55 15 0 8 7 15 15 15 8 0 15 7 15 15 0 8 7 15 15 15 9 0
15 9 15 25 l0 25 105 0 c87 0 105 -3 105 -15z m-100 -159 c0 -8 6 -17 13 -20
10 -5 10 -7 0 -12 -7 -3 -13 -12 -13 -20 0 -8 -7 -14 -15 -14 -9 0 -15 -9 -15
-25 0 -16 -6 -25 -15 -25 -8 0 -15 -7 -15 -15 0 -8 -7 -15 -15 -15 -10 0 -15
-10 -15 -30 0 -16 -4 -30 -10 -30 -5 0 -10 -11 -10 -25 0 -16 -6 -25 -15 -25
-8 0 -15 -7 -15 -15 0 -8 -7 -15 -15 -15 -9 0 -15 -9 -15 -25 0 -14 -4 -25
-10 -25 -5 0 -10 7 -10 15 0 8 -7 15 -15 15 -11 0 -15 11 -15 40 0 29 -4 40
-15 40 -8 0 -15 5 -15 10 0 6 7 10 15 10 8 0 15 7 15 15 0 8 -7 15 -15 15 -8
0 -15 7 -15 15 0 8 7 15 15 15 12 0 15 13 15 55 0 42 3 55 15 55 9 0 15 9 15
25 0 25 0 25 95 25 75 0 95 -3 95 -14z m210 -106 c0 -5 7 -10 15 -10 8 0 15
-7 15 -15 0 -8 7 -15 15 -15 8 0 15 -7 15 -15 0 -8 5 -15 10 -15 6 0 10 -7 10
-15 0 -8 7 -15 15 -15 9 0 15 -9 15 -25 0 -16 6 -25 15 -25 11 0 15 -11 15
-40 0 -29 -4 -40 -15 -40 -11 0 -15 -11 -15 -40 0 -36 -2 -40 -25 -40 -16 0
-25 -6 -25 -15 0 -12 -19 -15 -110 -15 l-110 0 0 40 c0 29 4 40 15 40 10 0 15
10 15 30 0 17 5 30 10 30 6 0 10 11 10 25 0 16 6 25 15 25 8 0 15 7 15 15 0 8
7 15 15 15 9 0 15 9 15 25 0 14 5 25 10 25 6 0 10 18 10 40 0 29 4 40 15 40 8
0 15 -4 15 -10z"/>
<path d="M3650 610 c0 -5 7 -10 15 -10 8 0 15 5 15 10 0 6 -7 10 -15 10 -8 0
-15 -4 -15 -10z"/>
</g>
</svg>
