<?xml version="1.0" standalone="no"?>
<!DOCTYPE svg PUBLIC "-//W3C//DTD SVG 20010904//EN"
 "http://www.w3.org/TR/2001/REC-SVG-20010904/DTD/svg10.dtd">
<svg version="1.0" xmlns="http://www.w3.org/2000/svg"
 width="457pt" height="648pt" viewBox="0 0 457 648"
 preserveAspectRatio="xMidYMid meet">
<metadata>
Created by potrace 1.8, written by Peter Selinger 2001-2007
</metadata>
<g transform="translate(0,648) scale(0.154286,-0.154286)"
fill="#000000" stroke="none">
<path d="M2630 4079 c-358 -90 -421 -99 -880 -120 -292 -13 -731 -7 -1015 15
-104 8 -269 18 -366 22 l-177 7 -15 -29 c-8 -16 -18 -40 -22 -54 -7 -22 -6
-23 9 -8 9 9 16 23 16 32 0 41 39 28 68 -22 l21 -38 -22 -9 c-21 -9 -22 -16
-21 -110 0 -92 3 -105 32 -162 17 -34 35 -64 40 -67 5 -3 58 6 118 20 165 38
507 101 614 113 52 6 176 22 275 36 389 52 467 58 636 46 163 -11 470 -64 594
-102 39 -11 116 -41 172 -65 98 -42 143 -54 143 -36 0 5 -6 9 -14 9 -7 0 -60
20 -117 45 -159 70 -291 104 -569 147 -261 41 -423 37 -810 -19 -74 -11 -196
-27 -270 -35 -138 -16 -346 -52 -595 -105 -77 -17 -143 -30 -146 -30 -3 0 -3
14 -1 31 4 24 12 34 38 45 44 18 44 34 0 27 l-33 -5 -6 48 c-12 101 -21 139
-34 153 -10 10 -11 17 -4 24 15 15 14 27 -3 27 -10 0 -56 59 -56 73 0 4 307
-13 780 -43 189 -12 409 -12 700 0 482 21 558 31 942 126 99 24 185 44 193 44
21 0 45 -42 55 -97 l9 -48 -4 53 c-5 58 -36 113 -63 111 -9 -1 -105 -23 -212
-50z m-2359 -283 c10 -22 19 -51 19 -63 0 -14 6 -23 16 -23 12 0 15 -11 13
-62 -4 -101 -13 -108 -49 -38 -24 47 -25 70 -5 70 24 0 17 19 -10 26 -24 6
-25 10 -25 76 0 78 10 81 41 14z"/>
<path d="M2911 3943 c-1 -18 -7 -23 -27 -23 -32 0 -27 -22 7 -30 16 -4 26 -15
30 -35 l7 -30 0 30 c1 36 -15 119 -17 88z"/>
<path d="M136 3864 c-10 -26 -7 -52 7 -57 7 -3 5 -6 -5 -6 -10 -1 -18 -5 -18
-10 0 -5 -3 -18 -6 -28 -5 -15 -3 -15 8 2 7 11 24 20 37 20 34 0 38 22 6 37
-21 9 -25 17 -20 35 6 26 0 31 -9 7z"/>
<path d="M2912 3740 c0 -14 2 -19 5 -12 2 6 2 18 0 25 -3 6 -5 1 -5 -13z"/>
<path d="M102 3685 c0 -16 2 -22 5 -12 2 9 2 23 0 30 -3 6 -5 -1 -5 -18z"/>
<path d="M2900 3697 c0 -9 -7 -17 -15 -17 -17 0 -18 -4 -8 -39 5 -21 7 -19 20
19 8 23 12 44 9 48 -3 3 -6 -2 -6 -11z"/>
<path d="M93 3621 c3 -12 1 -24 -4 -27 -5 -3 -9 -10 -9 -15 0 -5 11 -2 25 7
31 20 31 25 4 43 -20 12 -21 11 -16 -8z"/>
<path d="M2860 3595 c-7 -9 -11 -18 -8 -20 3 -3 11 1 18 10 7 9 11 18 8 20 -3
3 -11 -1 -18 -10z"/>
<path d="M2761 3514 c0 -11 3 -14 6 -6 3 7 2 16 -1 19 -3 4 -6 -2 -5 -13z"/>
<path d="M73 3445 c0 -33 2 -45 4 -27 2 18 2 45 0 60 -2 15 -4 0 -4 -33z"/>
<path d="M2751 3474 c0 -11 3 -14 6 -6 3 7 2 16 -1 19 -3 4 -6 -2 -5 -13z"/>
<path d="M2742 3365 c0 -16 2 -22 5 -12 2 9 2 23 0 30 -3 6 -5 -1 -5 -18z"/>
<path d="M62 3280 c0 -14 2 -19 5 -12 2 6 2 18 0 25 -3 6 -5 1 -5 -13z"/>
<path d="M2734 3185 c0 -60 1 -84 3 -52 2 32 2 81 0 110 -2 29 -3 3 -3 -58z"/>
<path d="M75 3178 c2 -21 -1 -41 -6 -44 -12 -7 -11 -46 2 -64 8 -11 9 -8 4 14
-4 19 -1 34 11 47 12 13 14 22 6 31 -5 7 -12 22 -15 33 -2 11 -3 3 -2 -17z"/>
<path d="M61 3024 c0 -16 4 -38 9 -49 6 -13 7 -5 3 25 -7 53 -13 66 -12 24z"/>
<path d="M2734 2895 c0 -88 2 -123 3 -77 2 46 2 118 0 160 -1 42 -3 5 -3 -83z"/>
<path d="M64 2920 c2 -20 -2 -47 -9 -60 -11 -21 -11 -28 0 -40 11 -13 11 -24
-1 -72 -14 -55 -14 -59 5 -79 11 -12 17 -28 14 -38 -5 -12 -3 -13 6 -5 10 9 9
18 -3 42 -21 40 -20 77 1 113 16 27 16 29 -2 43 -17 12 -18 17 -6 38 9 19 10
33 2 59 l-11 34 4 -35z"/>
<path d="M2742 2686 c-1 -29 -9 -57 -18 -67 -15 -17 -15 -20 5 -45 12 -16 21
-21 21 -12 0 8 -5 19 -12 26 -8 8 -8 15 1 26 7 9 11 35 8 68 l-3 53 -2 -49z"/>
<path d="M71 2534 c0 -11 3 -14 6 -6 3 7 2 16 -1 19 -3 4 -6 -2 -5 -13z"/>
<path d="M2752 2520 c0 -14 2 -19 5 -12 2 6 2 18 0 25 -3 6 -5 1 -5 -13z"/>
<path d="M74 2475 c3 -11 8 -48 12 -83 4 -34 10 -64 14 -67 4 -2 3 17 -1 43
-13 82 -12 90 18 94 43 5 39 25 -7 30 -37 3 -41 2 -36 -17z"/>
<path d="M2753 2390 c0 -30 2 -43 4 -27 2 15 2 39 0 55 -2 15 -4 2 -4 -28z"/>
<path d="M2711 2287 c-44 -15 -50 -33 -14 -41 15 -4 36 -9 46 -12 28 -9 19 13
-10 24 -27 10 -28 11 -5 17 12 4 22 11 22 16 0 5 -1 9 -2 8 -2 0 -18 -5 -37
-12z"/>
<path d="M100 2265 c0 -8 5 -15 11 -15 8 0 8 -4 2 -12 -7 -9 -6 -44 2 -103
l13 -90 -3 90 c-2 49 1 97 6 107 7 13 4 20 -11 28 -16 9 -20 8 -20 -5z"/>
<path d="M2757 2086 c4 -60 2 -81 -9 -87 -11 -8 -10 -12 4 -22 10 -8 20 -35
24 -66 4 -28 9 -49 12 -47 2 3 -1 40 -7 83 -6 43 -16 110 -21 148 l-9 70 6
-79z"/>
<path d="M130 2009 c0 -15 7 -29 15 -33 19 -7 19 -5 0 30 l-15 29 0 -26z"/>
<path d="M153 1865 c0 -27 2 -38 4 -22 2 15 2 37 0 50 -2 12 -4 0 -4 -28z"/>
<path d="M2793 1795 c0 -33 2 -45 4 -27 2 18 2 45 0 60 -2 15 -4 0 -4 -33z"/>
<path d="M161 1762 c0 -26 4 -65 9 -87 7 -33 8 -28 4 26 -3 42 -1 69 5 74 15
9 14 22 -4 29 -12 4 -15 -4 -14 -42z"/>
<path d="M2800 1705 c-5 -37 2 -140 15 -219 14 -88 9 -121 -17 -121 -29 0 -21
-19 11 -28 22 -5 31 -14 34 -35 4 -25 4 -25 6 5 0 17 -4 35 -10 39 -6 3 -8 16
-5 29 3 12 1 49 -5 81 -6 33 -15 106 -19 164 -4 58 -8 96 -10 85z"/>
<path d="M187 1540 c3 -52 9 -99 14 -104 4 -5 5 -16 1 -25 -4 -9 -5 -36 -2
-61 5 -44 5 -44 13 25 4 44 3 71 -3 73 -6 2 -10 36 -11 75 0 40 -4 81 -8 92
-5 11 -6 -23 -4 -75z"/>
<path d="M216 1175 c3 -60 6 -135 6 -165 0 -39 2 -45 5 -20 3 19 9 41 15 47 7
9 7 17 0 26 -16 18 -27 157 -13 157 6 0 11 7 11 15 0 8 -4 15 -9 15 -5 0 -12
8 -15 18 -3 9 -3 -32 0 -93z"/>
<path d="M2853 1210 c0 -25 2 -35 4 -22 2 12 2 32 0 45 -2 12 -4 2 -4 -23z"/>
<path d="M2857 1113 c-3 -27 -2 -50 3 -53 4 -3 11 -34 16 -70 4 -36 9 -58 11
-49 2 8 -1 42 -7 75 -6 32 -10 78 -10 102 1 56 -6 53 -13 -5z"/>
<path d="M230 941 c0 -5 6 -11 13 -14 10 -4 10 -7 0 -18 -8 -8 -12 -36 -11
-73 l2 -61 3 57 c2 33 10 61 18 68 20 16 19 36 -1 44 -21 8 -24 8 -24 -3z"/>
<path d="M2861 899 c-13 -10 -30 -19 -38 -19 -24 0 -9 -24 28 -42 33 -17 34
-20 40 -90 l5 -73 2 82 2 81 -31 11 -31 11 29 24 c33 29 29 43 -6 15z"/>
<path d="M151 745 c-30 -34 -41 -75 -22 -75 16 0 24 22 12 29 -17 11 35 65 55
57 8 -3 45 -13 82 -21 37 -9 114 -29 172 -45 189 -53 272 -65 840 -116 382
-35 441 -30 770 60 232 63 491 97 599 78 35 -6 66 -14 69 -17 8 -7 -19 -35
-29 -29 -5 3 -9 -4 -9 -16 0 -12 -13 -34 -28 -50 -19 -18 -29 -40 -30 -59 -1
-45 -11 -71 -28 -71 -19 0 -18 -16 1 -24 9 -3 15 -18 15 -37 0 -31 -1 -31 -39
-25 -22 3 -47 9 -56 13 -13 4 -16 2 -13 -8 2 -7 24 -19 48 -26 59 -17 71 -32
73 -87 1 -31 7 -48 17 -51 8 -3 21 -14 28 -25 11 -17 10 -20 -7 -20 -11 0 -60
14 -108 31 -141 49 -254 77 -406 101 -208 32 -666 32 -912 0 -365 -47 -453
-55 -665 -56 -206 -1 -287 7 -413 37 -26 6 -53 17 -58 24 -6 7 -13 39 -16 73
-5 56 -4 60 16 60 11 0 21 5 21 11 0 11 -29 38 -41 39 -8 0 -3 -172 6 -193 8
-20 80 -43 180 -56 216 -30 460 -23 835 24 605 76 1027 56 1393 -66 86 -29
166 -49 191 -49 41 0 46 3 74 48 37 57 85 162 77 170 -3 3 -5 0 -5 -6 0 -7 -6
-12 -14 -12 -21 0 -30 -18 -17 -34 8 -9 2 -28 -25 -72 -19 -32 -39 -63 -45
-68 -11 -12 -59 31 -59 52 0 9 -6 23 -13 31 -23 27 -45 141 -28 141 3 0 32
-16 64 -35 l58 -35 17 37 c24 56 29 218 7 282 -15 46 -20 52 -58 63 -26 8 -94
13 -182 12 -147 -1 -296 -25 -485 -78 -203 -58 -312 -76 -448 -76 -72 0 -175
4 -229 10 -54 5 -201 19 -328 30 -322 28 -379 36 -513 71 -64 17 -162 42 -217
55 -55 13 -110 26 -122 29 -15 3 -29 -4 -52 -30z m2627 -114 c17 -55 15 -71
-8 -71 -26 0 -26 -17 1 -25 19 -6 21 -13 16 -59 -2 -28 -9 -63 -15 -78 l-11
-26 -65 35 c-42 21 -66 41 -66 51 1 62 86 212 121 212 10 0 20 -15 27 -39z"/>
<path d="M111 635 c-1 -16 -4 -41 -8 -54 -6 -23 -6 -23 15 -5 13 11 18 22 13
28 -5 6 -11 22 -14 36 -4 23 -4 22 -6 -5z"/>
<path d="M2883 600 c0 -25 2 -35 4 -22 2 12 2 32 0 45 -2 12 -4 2 -4 -23z"/>
<path d="M91 534 c0 -11 3 -14 6 -6 3 7 2 16 -1 19 -3 4 -6 -2 -5 -13z"/>
<path d="M2871 524 c0 -11 3 -14 6 -6 3 7 2 16 -1 19 -3 4 -6 -2 -5 -13z"/>
<path d="M2862 450 c0 -14 2 -19 5 -12 2 6 2 18 0 25 -3 6 -5 1 -5 -13z"/>
<path d="M2851 404 c0 -11 3 -14 6 -6 3 7 2 16 -1 19 -3 4 -6 -2 -5 -13z"/>
<path d="M2671 289 c0 -9 6 -22 14 -29 10 -9 15 -9 15 -1 0 6 -4 11 -9 11 -5
0 -12 8 -14 18 -4 14 -5 14 -6 1z"/>
</g>
</svg>
