<?xml version="1.0" standalone="no"?>
<!DOCTYPE svg PUBLIC "-//W3C//DTD SVG 20010904//EN"
 "http://www.w3.org/TR/2001/REC-SVG-20010904/DTD/svg10.dtd">
<svg version="1.0" xmlns="http://www.w3.org/2000/svg"
 width="468pt" height="636pt" viewBox="0 0 468 636"
 preserveAspectRatio="xMidYMid meet">
<metadata>
Created by potrace 1.8, written by Peter Selinger 2001-2007
</metadata>
<g transform="translate(0,636) scale(0.065272,-0.065272)"
fill="#000000" stroke="none">
<path d="M443 9702 c-13 -2 -23 -8 -23 -13 0 -6 -9 -5 -21 2 -16 8 -23 8 -29
0 -4 -7 -11 -11 -16 -10 -25 4 -55 -2 -52 -12 2 -6 6 -9 9 -7 3 2 13 -3 22
-11 15 -12 17 -11 17 4 0 14 3 15 14 6 11 -9 16 -9 21 0 6 8 10 7 16 -2 7 -12
9 -12 9 0 0 10 3 11 13 2 8 -6 17 -8 21 -4 4 4 11 1 16 -7 8 -12 10 -11 10 5
0 14 3 16 12 7 9 -9 15 -9 27 1 12 9 13 9 7 0 -4 -7 -2 -13 3 -13 6 0 11 5 11
11 0 6 5 7 13 2 6 -4 15 -8 19 -8 3 0 10 -4 15 -9 5 -5 3 -6 -4 -2 -7 4 -13 2
-13 -4 0 -24 25 -2 28 23 2 18 8 25 15 21 9 -5 9 -4 1 5 -11 12 -112 20 -161
13z"/>
<path d="M617 9675 c-2 -13 -1 -27 2 -32 9 -12 51 -14 51 -2 0 5 -4 7 -10 4
-5 -3 -10 -1 -10 5 0 7 6 10 14 7 7 -3 20 0 27 6 10 10 10 8 0 -6 -8 -9 -11
-21 -7 -25 4 -4 14 2 22 13 14 19 14 19 11 -5 -3 -14 0 -31 6 -38 8 -10 15 -8
36 10 14 13 23 19 19 14 -4 -5 -3 -15 3 -23 10 -11 15 -11 27 -1 13 10 14 10
8 1 -4 -7 -2 -13 3 -13 6 0 11 5 11 11 0 8 4 8 14 0 10 -9 16 -8 26 4 10 12
10 15 -4 15 -9 0 -16 7 -16 16 0 14 1 14 16 0 8 -9 20 -14 25 -10 5 3 8 0 7
-7 -2 -7 5 -13 15 -14 9 0 16 5 15 10 -2 6 -6 9 -10 8 -4 -2 -5 4 -1 12 4 11
9 12 17 5 9 -6 16 -6 24 2 9 9 12 9 12 1 0 -6 8 -14 18 -17 13 -4 13 -4 -3 -3
-11 1 -21 -3 -22 -8 -1 -6 11 -9 27 -8 16 2 32 -2 35 -8 5 -7 12 -6 23 3 12
10 14 10 8 1 -4 -7 -2 -13 3 -13 6 0 11 5 11 12 0 9 3 9 11 1 6 -6 18 -9 25
-6 8 3 14 0 14 -7 0 -6 5 -8 10 -5 6 4 7 12 3 18 -5 9 -3 9 8 0 12 -10 18 -10
29 0 10 9 11 9 6 0 -4 -7 -2 -13 3 -13 6 0 11 5 11 11 0 8 4 8 14 0 10 -9 16
-8 26 4 12 14 16 13 41 -11 24 -23 27 -30 16 -43 -8 -11 -6 -11 9 2 13 11 34
17 54 15 20 -1 35 3 38 10 3 9 7 8 18 -3 17 -16 40 -11 48 12 5 13 4 14 -9 3
-10 -8 -15 -9 -15 -1 0 6 -10 9 -22 7 -13 -1 -31 2 -40 8 -13 8 -22 6 -37 -8
-18 -16 -21 -17 -21 -3 0 11 -6 13 -22 9 -12 -3 -19 -1 -15 4 3 6 2 16 -3 24
-7 11 -11 11 -23 1 -10 -8 -17 -9 -22 -1 -3 5 -16 8 -29 4 -17 -4 -25 1 -34
21 -10 22 -17 26 -35 20 -20 -6 -52 -12 -83 -14 -6 -1 -16 -11 -22 -23 -10
-23 -11 -23 -11 4 -1 26 -3 27 -46 24 -24 -2 -51 -9 -60 -16 -12 -10 -15 -10
-15 3 0 17 -20 17 -41 1 -19 -14 -45 -11 -41 5 2 8 -7 11 -28 7 -21 -3 -34 1
-43 13 -8 12 -27 17 -64 18 -46 1 -52 -2 -56 -22z m490 -36 c9 -9 8 -15 0 -24
-9 -9 -14 -9 -24 1 -7 7 -13 17 -13 23 0 14 23 14 37 0z"/>
<path d="M155 9670 c7 -11 -15 -22 -48 -24 -16 -1 -22 -7 -22 -26 0 -25 1 -26
58 -29 9 -1 17 -6 17 -12 0 -7 8 -17 17 -24 14 -11 15 -16 5 -28 -9 -10 -10
-17 -2 -22 5 -3 10 -3 10 2 0 4 6 -3 13 -17 8 -15 20 -24 31 -22 12 2 16 -1
11 -10 -3 -7 0 -5 8 5 19 22 27 22 27 -3 0 -12 -7 -20 -17 -20 -9 0 -13 -3 -9
-7 4 -5 17 -8 29 -8 18 0 21 -5 19 -25 -5 -44 -22 -68 -45 -62 -17 4 -19 2
-13 -21 3 -15 1 -29 -6 -33 -7 -4 -8 -3 -4 5 9 13 -18 26 -34 16 -8 -5 -6 -14
7 -28 10 -11 14 -18 8 -15 -16 9 -55 -10 -55 -27 0 -9 -4 -14 -9 -11 -17 11
-23 -46 -6 -64 13 -14 13 -19 3 -23 -11 -5 -11 -7 0 -15 7 -5 14 -16 16 -25 3
-24 57 -78 69 -70 6 3 7 1 3 -5 -3 -6 -2 -13 3 -17 11 -6 11 -45 0 -45 -4 0
-9 9 -12 21 -3 12 -10 18 -17 14 -8 -5 -8 -10 0 -20 8 -10 8 -14 -1 -17 -20
-7 1 -30 22 -25 10 3 22 1 25 -4 3 -5 0 -9 -5 -9 -6 0 -11 -4 -11 -9 0 -5 10
-7 22 -4 18 4 20 2 9 -5 -13 -9 -13 -13 0 -28 9 -11 9 -15 2 -10 -7 4 -13 3
-13 -3 0 -17 25 -18 39 -2 7 9 6 4 -3 -11 -9 -15 -16 -36 -16 -48 0 -11 -4
-20 -9 -20 -5 0 -12 -7 -15 -16 -5 -13 -4 -14 7 -6 8 7 17 9 20 5 4 -3 7 2 7
13 1 16 3 16 14 -5 12 -21 11 -27 -2 -40 -9 -9 -19 -16 -23 -16 -4 0 -11 -4
-16 -9 -4 -5 -3 -6 4 -3 6 4 14 1 16 -5 4 -9 6 -9 6 -1 1 16 51 -8 51 -25 0
-7 -4 -10 -10 -7 -5 3 -10 1 -10 -5 0 -6 -5 -8 -12 -4 -6 4 -8 3 -4 -4 3 -6 2
-13 -3 -16 -5 -4 -12 2 -14 11 -3 10 -5 3 -6 -14 0 -18 -4 -32 -8 -32 -18 3
-33 -2 -33 -9 0 -4 10 -8 23 -9 44 -1 81 -13 90 -28 7 -14 11 -13 34 5 14 11
37 20 50 20 16 0 23 5 20 13 -2 6 -9 11 -15 10 -5 -1 -8 6 -5 16 2 10 -3 25
-11 34 -12 11 -13 18 -5 23 9 5 7 11 -5 20 -10 7 -15 17 -11 23 3 7 0 8 -10 5
-10 -4 -14 -2 -10 8 3 8 -2 21 -11 29 -15 12 -17 12 -9 0 5 -9 4 -12 -1 -8 -6
3 -11 24 -12 46 -2 31 3 47 19 63 12 13 23 19 25 13 2 -6 40 -9 89 -9 91 2
100 -3 97 -47 -2 -29 25 -49 34 -25 8 21 -1 67 -15 75 -7 4 -12 27 -13 49 0
37 -3 42 -24 42 -16 0 -22 -4 -18 -14 3 -8 0 -17 -5 -21 -6 -3 -9 -11 -6 -16
4 -5 -29 -9 -79 -9 -47 0 -89 0 -93 -1 -4 0 -11 14 -16 30 -4 19 -14 31 -25
32 -9 0 -12 3 -5 5 9 4 9 11 1 30 -6 13 -15 24 -20 24 -4 0 -8 8 -8 18 0 10
-7 28 -16 40 -8 12 -15 39 -16 60 0 34 -4 40 -34 53 -24 10 -31 18 -25 28 7
10 37 13 127 12 l119 -2 37 -42 c20 -23 32 -43 27 -45 -5 -2 -9 -8 -9 -13 0
-6 5 -7 10 -4 6 3 10 -1 10 -10 0 -10 -5 -13 -12 -9 -7 4 -4 -3 7 -15 10 -12
20 -37 20 -54 0 -19 6 -32 14 -32 7 0 19 -9 27 -19 10 -14 26 -19 59 -19 25 0
45 -3 45 -7 0 -8 66 -6 108 4 39 9 33 26 -10 26 -30 0 -84 25 -103 47 -5 6
-23 13 -40 15 -33 4 -75 35 -75 55 0 7 -6 13 -14 13 -9 0 -14 13 -14 41 -1 23
-7 48 -16 58 -8 9 -16 34 -17 55 -3 32 0 40 16 46 11 4 25 4 31 -1 5 -5 22 -2
39 7 15 8 37 12 47 8 10 -3 26 0 35 8 20 16 17 17 42 -6 25 -23 86 -29 101
-11 15 18 2 24 -54 26 -31 2 -46 7 -46 16 0 10 -26 13 -120 13 -103 0 -120 2
-129 17 -5 10 -12 15 -16 11 -4 -3 -19 -2 -34 3 -25 9 -27 13 -26 65 0 52 -2
57 -32 76 -18 11 -31 23 -28 27 2 5 -5 17 -15 29 -11 12 -20 31 -20 44 0 18
-2 20 -10 8 -8 -12 -11 -12 -28 3 -20 18 -108 25 -97 7z m103 -161 c3 -11 2
-11 -7 1 -10 13 -11 13 -12 0 -1 -8 -1 -18 -1 -21 1 -3 -5 -6 -12 -6 -7 0 -13
6 -13 13 0 7 4 11 9 8 4 -3 8 2 8 11 0 20 22 15 28 -6z m82 -231 c0 -6 -3 -8
-6 -5 -4 3 -15 2 -25 -4 -15 -7 -19 -6 -19 6 0 9 9 15 25 15 14 0 25 -5 25
-12z m-143 -205 c0 -9 -4 -10 -14 -2 -7 6 -13 12 -13 14 0 1 6 2 13 2 8 0 14
-6 14 -14z m403 -79 c0 -8 -5 -12 -10 -9 -6 4 -8 11 -5 16 9 14 15 11 15 -7z
m-263 -270 c-3 -3 -12 -4 -19 -1 -8 3 -5 6 6 6 11 1 17 -2 13 -5z m-2 -84 c-3
-5 3 -10 14 -10 11 0 23 -5 27 -12 4 -6 3 -8 -4 -4 -6 3 -13 2 -17 -4 -7 -11
-65 -10 -65 1 0 4 10 14 23 22 26 19 30 20 22 7z"/>
<path d="M3632 9641 c-7 -4 -12 -12 -11 -17 4 -24 -3 -34 -24 -34 -34 0 -39
-10 -14 -30 19 -15 20 -21 9 -44 -8 -17 -16 -24 -27 -19 -10 3 -22 -3 -32 -16
-14 -20 -17 -21 -32 -7 -14 13 -20 13 -30 3 -6 -6 -22 -12 -34 -12 -19 0 -22
-5 -21 -43 1 -42 -3 -46 -38 -43 -19 2 -25 -25 -7 -31 5 -2 11 -17 12 -33 2
-17 6 -36 10 -43 5 -6 4 -12 -1 -12 -5 0 -9 -11 -9 -25 0 -14 -7 -33 -14 -43
-8 -9 -14 -28 -12 -42 1 -14 3 -49 4 -77 1 -31 7 -58 16 -64 18 -15 27 -6 16
18 -5 10 -8 38 -8 63 1 25 -3 48 -7 51 -5 3 -2 12 7 19 12 10 15 10 15 -4 0
-11 5 -14 12 -10 6 4 8 3 4 -4 -3 -6 -1 -14 4 -17 8 -5 5 -14 -7 -28 -10 -11
-13 -17 -6 -14 7 4 14 -1 18 -13 4 -11 15 -29 26 -39 11 -10 21 -28 22 -40 1
-22 5 -23 95 -23 23 0 40 -4 36 -9 -3 -5 0 -9 5 -9 16 0 26 4 24 11 -1 3 9 5
23 5 13 0 24 -4 24 -9 0 -5 7 -15 15 -23 13 -14 15 -14 15 2 0 13 3 14 15 4 8
-7 15 -9 15 -4 0 5 6 1 14 -8 7 -9 21 -17 32 -17 10 0 53 -2 94 -6 41 -3 87
-5 103 -5 15 0 27 -3 27 -7 0 -5 9 -14 21 -21 16 -10 24 -11 35 -1 8 6 17 9
21 6 3 -4 13 -1 21 6 11 8 14 8 9 0 -4 -6 -3 -14 2 -17 5 -4 13 -2 16 4 5 8
11 7 22 -2 20 -16 53 -21 53 -7 0 5 -4 7 -10 4 -5 -3 -10 2 -10 11 0 13 3 15
11 7 6 -6 18 -9 25 -6 8 3 14 0 14 -7 0 -6 -4 -8 -10 -5 -5 3 -10 1 -10 -5 0
-23 25 -3 28 23 2 15 8 27 13 27 5 0 9 5 9 12 0 6 -7 4 -18 -5 -20 -18 -44
-23 -39 -8 1 5 -2 9 -8 9 -5 0 -9 -3 -8 -7 1 -4 -5 -8 -13 -8 -7 0 -12 3 -9 5
3 3 0 11 -6 19 -9 10 -15 10 -25 2 -11 -9 -14 -8 -14 4 0 17 -18 32 -27 23 -3
-3 0 -14 8 -23 12 -16 12 -17 -2 -6 -11 9 -18 10 -27 1 -6 -6 -18 -7 -29 -3
-10 5 -25 8 -33 7 -11 -1 -11 0 -2 4 10 5 10 9 1 20 -6 8 -16 11 -22 7 -5 -3
-7 -1 -4 4 4 6 0 16 -7 22 -10 8 -16 9 -21 1 -3 -6 -11 -8 -16 -5 -5 4 -9 2
-9 -4 0 -6 -7 -8 -15 -5 -8 4 -12 11 -8 17 3 6 1 7 -5 3 -6 -4 -27 -8 -47 -10
-28 -2 -35 1 -35 16 0 15 3 17 19 8 13 -7 22 -7 26 0 3 5 16 10 29 10 27 0 61
34 51 50 -4 6 1 20 11 31 9 10 14 19 11 19 -4 0 -2 11 3 25 14 37 -14 51 -110
54 -33 1 -40 5 -40 21 0 11 5 20 12 20 9 0 9 3 0 12 -7 7 -12 34 -12 61 0 45
1 48 22 41 21 -6 66 -8 110 -5 21 1 21 46 1 63 -27 22 -14 36 31 35 24 -1 42
-5 40 -8 -9 -16 26 -28 89 -30 37 -1 69 0 72 3 3 3 23 3 44 1 28 -3 40 -1 44
11 4 9 1 16 -4 16 -7 0 -9 9 -6 21 4 16 3 18 -9 8 -8 -6 -14 -7 -14 -2 0 9
-143 8 -167 -1 -7 -3 -15 -1 -18 5 -4 5 -12 6 -18 3 -7 -4 6 11 28 34 37 38
41 39 47 21 7 -17 28 -19 28 -3 0 3 -4 2 -10 -1 -5 -3 -10 1 -10 11 0 12 3 14
13 5 10 -8 17 -7 25 1 9 9 12 8 12 -6 0 -9 -4 -14 -10 -11 -5 3 -10 0 -10 -8
0 -7 6 -14 13 -14 9 0 14 16 16 45 l2 44 -60 -5 c-41 -3 -61 0 -61 7 0 34 -99
72 -116 45 -3 -5 -11 -6 -17 -2 -17 10 -290 14 -305 4z m430 -80 c26 -22 27
-26 12 -42 -11 -13 -32 -17 -79 -18 -53 0 -64 3 -68 18 -2 11 4 26 14 35 23
19 30 20 27 4 -2 -7 5 -12 15 -12 9 1 17 -1 17 -5 0 -4 9 -7 20 -7 13 0 19 6
17 16 -2 8 -9 14 -15 13 -7 -2 -12 6 -12 18 0 23 8 19 52 -20z m-545 -146 c0
-8 -4 -12 -9 -9 -5 3 -6 10 -3 15 9 13 12 11 12 -6z m84 -83 c19 19 38 16 55
-6 8 -11 14 -15 14 -9 0 7 17 11 43 10 37 -1 43 -4 43 -23 0 -13 -4 -20 -8
-18 -5 3 -5 11 -1 17 3 7 -4 3 -16 -8 -24 -20 -27 -21 -48 -4 -7 7 -14 6 -18
-1 -3 -6 -11 -8 -16 -5 -5 4 -9 -1 -9 -10 0 -9 4 -14 9 -11 5 3 12 -2 16 -11
6 -16 8 -15 24 6 14 18 20 21 26 11 5 -8 4 -11 -2 -7 -14 9 -23 -27 -12 -44 6
-10 9 -7 9 11 0 23 1 23 17 7 14 -14 15 -21 6 -36 -10 -16 -8 -22 8 -37 24
-22 26 -62 2 -60 -10 0 -20 -9 -24 -24 -4 -14 -7 -21 -8 -16 -1 5 -9 2 -18 -5
-17 -13 -17 -12 0 7 17 21 17 21 -7 17 -16 -3 -23 -10 -19 -19 3 -8 1 -14 -5
-14 -6 0 -13 6 -15 13 -3 7 -6 4 -6 -7 -1 -14 -4 -16 -14 -7 -11 8 -18 6 -33
-11 -10 -12 -14 -18 -8 -15 16 10 27 -23 13 -39 -13 -16 -33 -8 -23 8 5 7 2 8
-7 2 -20 -12 -38 -14 -45 -3 -3 6 -12 5 -22 -3 -16 -12 -16 -11 -2 6 12 15 12
20 2 23 -6 3 -10 9 -6 14 3 5 0 9 -5 9 -6 0 -11 -5 -11 -11 0 -5 -4 -8 -10 -4
-5 3 -7 12 -3 20 4 11 0 13 -13 8 -18 -6 -18 -5 -2 13 14 15 17 39 17 113 l-1
94 32 25 c18 14 37 31 44 38 9 10 14 9 27 -2 14 -12 19 -13 30 -2z m-168 -58
c-3 -8 -10 -14 -15 -14 -7 0 -6 5 1 13 8 10 7 17 -2 27 -10 12 -9 12 5 1 9 -7
14 -19 11 -27z m327 -235 c0 -6 -4 -7 -10 -4 -5 3 -10 11 -10 16 0 6 5 7 10 4
6 -3 10 -11 10 -16z m-90 -39 c0 -5 -4 -12 -10 -15 -5 -3 -10 0 -10 7 0 10 -2
10 -9 -1 -5 -8 -11 -9 -15 -3 -3 6 -2 13 4 17 6 4 7 11 4 17 -4 6 2 6 15 -1
11 -7 21 -16 21 -21z m147 -5 c0 -8 -4 -12 -9 -9 -5 3 -6 10 -3 15 9 13 12 11
12 -6z m157 -32 c-5 -5 -12 -12 -16 -18 -4 -6 -8 -2 -8 8 0 9 7 17 17 17 9 0
12 -3 7 -7z"/>
<path d="M3592 9278 c-13 -13 -22 -18 -20 -13 3 10 -4 15 -21 15 -5 0 -9 -15
-8 -33 2 -29 5 -33 27 -32 21 1 25 6 22 28 -3 27 14 34 30 12 5 -6 8 -6 8 2 0
6 -5 15 -10 18 -6 4 -8 11 -5 16 10 15 1 10 -23 -13z"/>
<path d="M3666 9222 c-3 -5 1 -9 9 -9 8 0 12 4 9 9 -3 4 -7 8 -9 8 -2 0 -6 -4
-9 -8z"/>
<path d="M3666 9185 c4 -8 10 -12 15 -9 11 6 2 24 -11 24 -5 0 -7 -7 -4 -15z"/>
<path d="M3701 9162 c-1 -13 3 -21 8 -18 5 3 12 -2 15 -11 5 -12 10 -13 18 -5
8 8 8 15 -2 26 -7 9 -16 14 -20 11 -5 -3 -11 1 -13 7 -3 7 -6 3 -6 -10z"/>
<path d="M1705 9610 c-3 -4 -18 -6 -35 -5 -17 1 -33 -1 -36 -6 -5 -9 15 -13
49 -9 10 1 24 -4 32 -10 11 -9 19 -8 35 3 16 11 18 16 8 24 -15 12 -47 13 -53
3z"/>
<path d="M1000 9591 c0 -7 -4 -9 -10 -6 -5 3 -10 1 -10 -4 0 -6 4 -11 9 -11
13 0 25 20 17 27 -3 4 -6 1 -6 -6z"/>
<path d="M2070 9540 c0 -5 5 -10 10 -10 6 0 10 5 10 10 0 6 -4 10 -10 10 -5 0
-10 -4 -10 -10z"/>
<path d="M2174 9538 c-6 -9 3 -10 61 -10 67 1 95 4 95 11 0 10 -150 9 -156 -1z"/>
<path d="M4267 9533 c-10 -10 -17 -12 -17 -6 0 7 -9 11 -19 10 -10 0 -17 -7
-14 -13 7 -19 31 -24 45 -10 11 11 16 11 26 0 13 -14 42 -9 42 7 0 6 6 4 13
-3 12 -10 10 -17 -9 -37 -13 -14 -21 -27 -19 -30 3 -2 12 4 19 15 15 19 15 19
30 -1 8 -11 18 -17 22 -12 4 4 2 13 -4 19 -7 7 -12 18 -12 25 0 17 30 17 30 1
0 -7 5 -5 11 5 8 14 14 15 24 7 9 -8 17 -7 29 5 9 9 16 18 16 20 0 6 -24 0
-39 -9 -9 -6 -12 -5 -7 2 3 6 2 13 -4 17 -5 3 -10 -1 -10 -11 0 -13 -3 -14
-14 -5 -10 9 -16 8 -26 -4 -12 -14 -15 -14 -30 0 -14 13 -20 13 -26 4 -5 -9
-10 -7 -15 7 -7 17 -8 17 -8 1 -1 -10 -6 -15 -11 -12 -6 4 -8 11 -5 16 9 14 1
11 -18 -8z"/>
<path d="M4503 9546 c4 -5 -1 -18 -10 -28 -16 -18 -16 -18 0 -12 9 3 17 10 17
16 0 5 7 2 16 -6 20 -20 19 -21 21 12 0 15 -1 19 -4 9 -5 -18 -5 -18 -26 0
-12 10 -19 14 -14 9z"/>
<path d="M4575 9542 c-16 -11 -15 -29 1 -29 8 0 14 9 14 19 0 20 -1 21 -15 10z"/>
<path d="M4969 9520 c-12 -8 -11 -11 5 -23 32 -23 3 -45 -31 -24 -6 4 -15 2
-19 -5 -5 -8 -10 -6 -15 8 -6 15 -7 14 -6 -8 2 -32 1 -32 19 -15 11 12 16 12
26 0 8 -7 8 -13 2 -13 -5 0 -10 -5 -10 -12 0 -6 9 -3 20 7 14 13 20 14 20 5 0
-9 5 -7 13 5 9 12 16 14 21 7 4 -6 13 -9 21 -5 26 9 16 21 -15 19 -19 -1 -26
2 -21 8 13 17 -12 56 -30 46z"/>
<path d="M4620 9513 c0 -7 -3 -12 -7 -12 -19 3 -33 -2 -33 -12 0 -5 5 -7 10
-4 6 3 10 -1 10 -10 0 -9 -4 -13 -10 -10 -5 3 -10 1 -10 -5 0 -7 7 -10 15 -6
8 3 19 -2 24 -12 9 -15 10 -14 11 6 0 13 -4 21 -8 18 -5 -3 -9 1 -9 9 0 10 4
12 12 5 7 -6 16 -5 25 3 9 8 11 9 6 0 -3 -6 -2 -14 4 -18 6 -4 7 -11 4 -17
-11 -17 19 3 33 22 11 15 67 23 61 9 -2 -3 2 -12 8 -20 9 -11 9 -17 -2 -27
-12 -11 -14 -10 -14 4 0 12 -3 14 -13 5 -10 -8 -17 -7 -25 1 -9 9 -12 8 -12
-4 0 -11 7 -16 20 -13 11 2 22 -1 26 -6 4 -6 16 -1 30 12 19 18 24 19 24 7 0
-9 8 -22 18 -29 9 -7 14 -9 10 -5 -4 5 -2 16 4 24 7 8 13 26 14 41 1 14 0 18
-3 8 -2 -9 -9 -15 -14 -11 -6 4 -5 11 2 20 10 13 14 12 29 -1 15 -13 18 -13
23 -2 9 25 -8 40 -31 28 -14 -7 -23 -8 -27 -1 -8 13 -25 13 -25 -1 0 -5 5 -7
10 -4 18 11 10 -22 -10 -40 -11 -10 -21 -15 -21 -12 -5 25 -4 33 3 44 6 7 2
14 -13 18 -12 4 -24 3 -28 -1 -9 -13 -44 -17 -36 -5 7 12 -8 15 -19 4 -11 -12
-50 -10 -58 2 -5 6 -8 6 -8 -2z m80 -28 c0 -2 -7 -8 -15 -15 -12 -10 -15 -10
-15 2 0 8 7 15 15 15 8 0 15 -1 15 -2z"/>
<path d="M2535 9479 c-6 -9 1 -13 18 -10 4 1 12 -11 18 -26 10 -26 12 -27 19
-8 5 13 3 24 -6 31 -7 6 -12 13 -9 15 2 3 -5 5 -15 6 -11 1 -22 -2 -25 -8z"/>
<path d="M5124 9476 c-4 -11 3 -24 22 -38 33 -26 51 -31 61 -15 3 7 3 9 -2 5
-11 -10 -38 20 -29 33 5 8 3 9 -6 4 -8 -5 -18 -1 -26 10 -12 17 -14 17 -20 1z"/>
<path d="M1973 9465 c0 -8 4 -15 9 -15 4 0 8 4 8 9 0 6 -4 12 -8 15 -5 3 -9
-1 -9 -9z"/>
<path d="M100 9458 c0 -4 7 -8 15 -8 8 0 15 4 15 8 0 5 -7 9 -15 9 -8 0 -15
-4 -15 -9z"/>
<path d="M2060 9460 c0 -5 5 -10 11 -10 5 0 7 5 4 10 -3 6 -8 10 -11 10 -2 0
-4 -4 -4 -10z"/>
<path d="M4550 9455 c-11 -13 -10 -14 4 -9 9 3 16 10 16 15 0 13 -6 11 -20 -6z"/>
<path d="M5066 9434 c-9 -8 -14 -19 -11 -24 3 -5 -1 -10 -7 -12 -7 -3 0 -7 15
-10 25 -5 26 -4 13 11 -14 15 -14 19 1 34 10 9 14 17 11 17 -4 0 -14 -7 -22
-16z"/>
<path d="M200 9429 c0 -5 5 -7 10 -4 6 3 10 8 10 11 0 2 -4 4 -10 4 -5 0 -10
-5 -10 -11z"/>
<path d="M4580 9429 c0 -5 5 -7 10 -4 6 3 10 8 10 11 0 2 -4 4 -10 4 -5 0 -10
-5 -10 -11z"/>
<path d="M4876 9405 c4 -8 11 -15 16 -15 6 0 5 6 -2 15 -7 8 -14 15 -16 15 -2
0 -1 -7 2 -15z"/>
<path d="M5002 9384 c2 -20 13 -24 13 -6 0 4 3 12 7 18 4 6 1 11 -7 11 -9 0
-14 -9 -13 -23z"/>
<path d="M5436 9385 c-11 -8 -17 -17 -14 -20 2 -3 13 4 23 15 21 23 18 25 -9
5z"/>
<path d="M5236 9380 c-25 -4 -27 -7 -14 -18 13 -10 18 -9 28 3 12 14 15 14 30
0 14 -13 20 -13 26 -4 5 9 10 7 15 -7 7 -19 8 -19 8 0 1 19 2 18 24 -2 l23
-22 0 25 c0 14 -4 25 -8 25 -4 0 -8 -6 -8 -12 0 -10 -2 -10 -9 0 -4 7 -12 12
-17 11 -5 -1 -11 0 -14 1 -12 5 -57 5 -84 0z"/>
<path d="M5479 9380 c-17 -4 -20 -8 -11 -14 7 -4 19 -3 26 3 7 6 16 8 20 4 12
-12 35 -12 45 0 10 13 -36 17 -80 7z"/>
<path d="M5600 9374 c0 -8 5 -12 10 -9 6 4 8 11 5 16 -9 14 -15 11 -15 -7z"/>
<path d="M4816 9364 c-5 -14 -4 -15 9 -4 17 14 19 20 6 20 -5 0 -12 -7 -15
-16z"/>
<path d="M4880 9369 c0 -5 5 -7 10 -4 6 3 10 8 10 11 0 2 -4 4 -10 4 -5 0 -10
-5 -10 -11z"/>
<path d="M5630 9376 c0 -2 8 -10 18 -17 15 -13 16 -12 3 4 -13 16 -21 21 -21
13z"/>
<path d="M2575 9350 c-11 -4 -23 -6 -27 -4 -4 3 -9 0 -13 -6 -4 -6 11 -10 39
-10 25 0 46 -5 46 -10 0 -7 7 -7 20 0 23 12 17 32 -8 28 -10 -1 -21 0 -27 3
-5 4 -19 3 -30 -1z"/>
<path d="M114 9340 c-30 -47 -35 -63 -22 -71 9 -6 14 0 16 19 2 15 8 30 14 33
6 4 8 13 6 20 -3 10 -6 10 -14 -1z"/>
<path d="M35 9321 c-3 -5 -1 -12 5 -16 5 -3 10 1 10 9 0 18 -6 21 -15 7z"/>
<path d="M2333 9323 c-18 -6 -16 -33 1 -33 8 0 16 -4 18 -9 2 -5 15 -13 30
-16 24 -6 29 -3 38 19 8 22 13 24 34 16 18 -6 28 -5 36 6 11 12 6 14 -28 14
-26 0 -42 -5 -46 -15 -3 -8 -17 -15 -31 -15 -15 0 -24 4 -21 9 8 12 -16 29
-31 24z"/>
<path d="M139 9313 c0 -4 -2 -16 -4 -25 -2 -11 3 -18 13 -19 11 0 12 -2 5 -6
-7 -2 -13 -9 -13 -15 0 -6 6 -5 16 2 17 15 15 61 -3 68 -7 2 -13 0 -14 -5z"/>
<path d="M5395 9310 c3 -5 8 -10 11 -10 2 0 4 5 4 10 0 6 -5 10 -11 10 -5 0
-7 -4 -4 -10z"/>
<path d="M5724 9248 c-19 -23 -19 -23 2 -6 16 14 23 15 34 5 12 -10 12 -9 1 6
-17 21 -14 21 -37 -5z"/>
<path d="M5896 9261 c-25 -5 -27 -8 -14 -18 12 -11 18 -9 33 7 10 11 16 19 14
19 -2 -1 -17 -4 -33 -8z"/>
<path d="M6203 9262 c-15 -5 -20 -11 -14 -20 6 -9 12 -8 26 8 10 11 16 20 14
19 -2 -1 -14 -4 -26 -7z"/>
<path d="M2630 9250 c0 -5 5 -10 11 -10 5 0 7 5 4 10 -3 6 -8 10 -11 10 -2 0
-4 -4 -4 -10z"/>
<path d="M2966 9253 c-11 -11 -6 -23 9 -23 8 0 15 4 15 9 0 13 -16 22 -24 14z"/>
<path d="M5780 9250 c0 -5 5 -10 10 -10 6 0 10 5 10 10 0 6 -4 10 -10 10 -5 0
-10 -4 -10 -10z"/>
<path d="M5820 9245 c7 -8 16 -12 21 -9 13 8 1 24 -18 24 -13 0 -13 -3 -3 -15z"/>
<path d="M5960 9251 c0 -6 4 -12 8 -15 5 -3 9 1 9 9 0 8 -4 15 -9 15 -4 0 -8
-4 -8 -9z"/>
<path d="M6085 9251 c-3 -5 -2 -12 3 -15 5 -3 9 1 9 9 0 17 -3 19 -12 6z"/>
<path d="M6400 9256 c0 -2 8 -10 18 -17 15 -13 16 -12 3 4 -13 16 -21 21 -21
13z"/>
<path d="M6355 9220 c-3 -5 -1 -10 4 -10 6 0 11 5 11 10 0 6 -2 10 -4 10 -3 0
-8 -4 -11 -10z"/>
<path d="M64 9205 c-4 -8 -1 -21 5 -29 6 -7 8 -16 4 -19 -3 -4 -1 -7 5 -7 12
0 12 27 -1 47 -4 6 -1 14 5 16 10 4 10 6 0 6 -7 1 -15 -6 -18 -14z"/>
<path d="M6701 9174 c0 -11 3 -14 6 -6 3 7 2 16 -1 19 -3 4 -6 -2 -5 -13z"/>
<path d="M6800 9162 c0 -14 6 -22 16 -22 14 0 15 3 3 18 -7 9 -15 19 -16 21
-2 2 -3 -5 -3 -17z"/>
<path d="M2995 9160 c-8 -13 9 -20 24 -11 10 6 9 10 -3 14 -8 3 -18 2 -21 -3z"/>
<path d="M6235 9160 c-3 -5 1 -10 10 -10 9 0 13 5 10 10 -3 6 -8 10 -10 10 -2
0 -7 -4 -10 -10z"/>
<path d="M2635 9139 c-10 -15 3 -25 16 -12 7 7 7 13 1 17 -6 3 -14 1 -17 -5z"/>
<path d="M3022 9119 c1 -13 8 -23 13 -21 15 3 12 35 -3 40 -9 3 -13 -3 -10
-19z"/>
<path d="M5960 9131 c0 -6 4 -12 8 -15 5 -3 9 1 9 9 0 8 -4 15 -9 15 -4 0 -8
-4 -8 -9z"/>
<path d="M97 9104 c-4 -4 -4 -10 -1 -15 6 -10 34 0 34 12 0 10 -24 12 -33 3z"/>
<path d="M6260 9100 c0 -5 5 -10 11 -10 5 0 7 5 4 10 -3 6 -8 10 -11 10 -2 0
-4 -4 -4 -10z"/>
<path d="M3077 9067 c-3 -8 -1 -20 4 -28 8 -12 10 -12 19 1 5 8 8 19 7 24 -5
16 -24 18 -30 3z"/>
<path d="M6600 9071 c0 -10 26 -9 36 2 4 4 -2 7 -14 7 -12 0 -22 -4 -22 -9z"/>
<path d="M6766 9072 c-3 -5 1 -9 9 -9 8 0 12 4 9 9 -3 4 -7 8 -9 8 -2 0 -6 -4
-9 -8z"/>
<path d="M6843 9058 c1 -8 -7 -13 -20 -12 -13 1 -23 -2 -23 -6 0 -4 19 -7 42
-8 40 -2 41 -2 23 18 -21 23 -26 25 -22 8z"/>
<path d="M2600 9040 c0 -5 7 -10 15 -10 8 0 15 5 15 10 0 6 -7 10 -15 10 -8 0
-15 -4 -15 -10z"/>
<path d="M6354 9038 c-3 -4 2 -8 10 -8 8 0 17 4 20 8 3 5 -2 9 -10 9 -8 0 -17
-4 -20 -9z"/>
<path d="M186 9008 c3 -5 10 -6 15 -3 13 9 11 12 -6 12 -8 0 -12 -4 -9 -9z"/>
<path d="M2572 9014 c8 -12 -17 -35 -28 -26 -4 4 -4 1 0 -5 10 -18 19 -16 33
7 9 14 10 21 1 26 -6 4 -9 3 -6 -2z"/>
<path d="M3305 8969 c-4 -6 -5 -12 -2 -15 2 -3 7 2 10 11 7 17 1 20 -8 4z"/>
<path d="M3080 8949 c0 -5 5 -7 10 -4 6 3 10 8 10 11 0 2 -4 4 -10 4 -5 0 -10
-5 -10 -11z"/>
<path d="M6800 8949 c0 -5 5 -7 10 -4 6 3 10 8 10 11 0 2 -4 4 -10 4 -5 0 -10
-5 -10 -11z"/>
<path d="M2660 8925 c-13 -14 -20 -28 -17 -32 4 -3 7 -1 7 6 0 7 4 10 9 6 5
-3 12 -1 16 4 3 6 12 8 19 5 7 -3 16 3 20 13 4 9 4 14 0 10 -4 -4 -12 -2 -19
3 -8 7 -19 2 -35 -15z"/>
<path d="M3275 8940 c-3 -5 -1 -10 4 -10 6 0 11 5 11 10 0 6 -2 10 -4 10 -3 0
-8 -4 -11 -10z"/>
<path d="M2513 8925 c-3 -9 -3 -18 0 -21 9 -9 27 6 27 22 0 19 -19 18 -27 -1z"/>
<path d="M3108 8918 c-2 -7 15 -32 38 -55 38 -38 42 -40 47 -21 4 15 -4 30
-31 54 -41 37 -48 40 -54 22z"/>
<path d="M6950 8911 c0 -17 18 -21 24 -6 3 9 0 15 -9 15 -8 0 -15 -4 -15 -9z"/>
<path d="M2485 8890 c-3 -5 -1 -10 4 -10 6 0 11 5 11 10 0 6 -2 10 -4 10 -3 0
-8 -4 -11 -10z"/>
<path d="M4327 8875 c-10 -14 -13 -25 -7 -25 5 0 10 6 10 13 0 9 3 8 9 -2 5
-7 13 -11 19 -7 6 3 13 3 16 -2 3 -5 18 -7 35 -6 17 1 29 -1 28 -5 -1 -3 3 -7
8 -7 6 -1 9 2 8 7 -2 5 8 8 21 7 14 -1 23 -5 20 -9 -2 -4 0 -10 6 -14 5 -3 10
2 11 12 0 16 1 16 9 -2 5 -11 9 -17 11 -12 10 40 -5 61 -31 45 -14 -9 -22 -9
-32 0 -11 9 -17 9 -26 0 -7 -7 -12 -8 -12 -2 0 12 -29 12 -49 -1 -10 -5 -12
-4 -7 3 4 7 2 12 -3 12 -6 0 -11 -5 -11 -11 0 -5 -5 -7 -10 -4 -8 5 -7 11 1
21 6 8 8 14 3 14 -5 0 -17 -12 -27 -25z"/>
<path d="M4276 8865 c4 -8 11 -15 16 -15 6 0 5 6 -2 15 -7 8 -14 15 -16 15 -2
0 -1 -7 2 -15z"/>
<path d="M6420 8871 c0 -7 -5 -9 -12 -5 -9 5 -8 2 1 -9 8 -10 16 -16 18 -13 2
2 19 0 36 -4 22 -5 37 -3 45 6 15 16 6 21 -46 30 -30 5 -42 3 -42 -5z"/>
<path d="M6980 8865 c0 -8 4 -15 10 -15 5 0 7 7 4 15 -4 8 -8 15 -10 15 -2 0
-4 -7 -4 -15z"/>
<path d="M2206 8858 c3 -4 17 -8 31 -8 15 0 23 3 19 7 -10 10 -56 12 -50 1z"/>
<path d="M2275 8860 c-2 -3 7 -7 21 -8 13 -1 24 2 24 7 0 10 -39 11 -45 1z"/>
<path d="M2455 8860 c-3 -5 1 -10 10 -10 9 0 13 5 10 10 -3 6 -8 10 -10 10 -2
0 -7 -4 -10 -10z"/>
<path d="M2585 8860 c-3 -5 -1 -18 5 -27 10 -16 11 -16 6 -1 -3 9 0 18 7 21 8
2 8 5 0 10 -7 4 -14 3 -18 -3z"/>
<path d="M6610 8850 c-9 -16 -8 -22 5 -26 8 -3 12 -10 9 -16 -6 -9 24 -37 37
-34 3 0 12 -4 20 -10 26 -21 97 1 75 23 -11 11 -70 9 -78 -2 -10 -14 -41 6
-44 28 -1 10 6 23 17 30 26 16 24 27 -6 27 -14 0 -29 -8 -35 -20z"/>
<path d="M6680 8861 c0 -5 6 -11 13 -14 18 -6 48 4 41 14 -7 12 -54 12 -54 0z"/>
<path d="M135 8850 c3 -5 1 -10 -5 -10 -21 0 -5 -23 18 -27 25 -3 27 4 8 30
-14 18 -32 24 -21 7z"/>
<path d="M2338 8848 c-4 -9 -4 -19 -1 -22 10 -10 43 -7 43 4 0 6 -6 10 -14 10
-8 0 -16 5 -18 12 -3 8 -6 6 -10 -4z"/>
<path d="M6566 8834 c-20 -20 -20 -20 4 -20 13 0 20 7 20 18 0 22 -4 22 -24 2z"/>
<path d="M195 8829 c-11 -17 1 -21 15 -4 8 9 8 15 2 15 -6 0 -14 -5 -17 -11z"/>
<path d="M259 8823 c-13 -16 -12 -17 4 -4 9 7 17 15 17 17 0 8 -8 3 -21 -13z"/>
<path d="M560 8829 c0 -5 5 -7 10 -4 6 3 10 8 10 11 0 2 -4 4 -10 4 -5 0 -10
-5 -10 -11z"/>
<path d="M2116 8825 c-4 -10 1 -15 14 -15 11 0 20 7 20 15 0 8 -6 15 -14 15
-8 0 -16 -7 -20 -15z"/>
<path d="M4605 8831 c-3 -7 -3 -10 2 -9 4 2 9 -1 11 -7 3 -15 -21 -13 -43 4
-11 9 -17 12 -13 7 4 -5 3 -15 -3 -23 -6 -7 -10 -13 -8 -14 29 -6 62 -2 71 9
8 10 13 10 18 1 4 -6 25 -11 46 -11 58 0 64 1 64 10 0 4 -21 7 -47 7 -35 -1
-54 4 -69 17 -15 13 -24 16 -29 9z"/>
<path d="M4760 8801 c0 -6 3 -11 8 -12 4 0 15 -2 24 -4 20 -4 33 10 19 19 -5
4 -13 2 -16 -4 -5 -8 -11 -7 -21 1 -10 8 -14 8 -14 0z"/>
<path d="M2250 8795 c0 -2 9 -9 20 -15 16 -9 20 -8 20 5 0 8 -9 15 -20 15 -11
0 -20 -2 -20 -5z"/>
<path d="M2507 8783 c-15 -8 -25 -18 -22 -24 9 -13 20 -11 46 9 28 24 13 33
-24 15z"/>
<path d="M150 8775 c-10 -12 -9 -16 3 -21 17 -6 37 2 37 16 0 15 -29 19 -40 5z"/>
<path d="M4937 8782 c-23 -3 -26 -6 -17 -17 6 -8 18 -11 26 -8 8 3 14 0 14 -7
0 -9 3 -10 13 -1 8 6 17 8 21 4 4 -4 4 0 1 9 -8 20 -21 25 -58 20z"/>
<path d="M180 8745 c-7 -8 -9 -15 -4 -16 5 0 -2 -5 -15 -10 l-24 -10 21 -19
c12 -11 19 -26 16 -34 -7 -18 15 -31 28 -18 15 15 1 65 -15 55 -8 -4 -7 -1 2
10 7 9 10 17 5 17 -5 0 -2 5 6 10 11 7 12 12 4 20 -8 8 -14 7 -24 -5z"/>
<path d="M5040 8745 c-11 -13 -8 -15 15 -15 23 0 26 2 15 15 -7 8 -14 15 -15
15 -1 0 -8 -7 -15 -15z"/>
<path d="M3237 8743 c-11 -10 -8 -20 7 -26 8 -3 13 0 12 8 -3 19 -11 27 -19
18z"/>
<path d="M2375 8730 c3 -5 8 -10 11 -10 2 0 4 5 4 10 0 6 -5 10 -11 10 -5 0
-7 -4 -4 -10z"/>
<path d="M2327 8713 c-4 -3 -2 -12 4 -20 9 -10 15 -10 25 -2 8 6 14 15 14 20
0 10 -34 12 -43 2z"/>
<path d="M5160 8663 c0 -10 4 -14 8 -8 4 6 11 13 16 18 5 4 2 7 -7 7 -10 0
-17 -8 -17 -17z"/>
<path d="M5300 8649 c0 -5 5 -7 10 -4 6 3 10 8 10 11 0 2 -4 4 -10 4 -5 0 -10
-5 -10 -11z"/>
<path d="M5335 8649 c4 -6 10 -8 13 -5 3 3 10 1 17 -4 8 -7 12 -5 12 5 0 9
-10 15 -24 15 -15 0 -22 -4 -18 -11z"/>
<path d="M5399 8647 c11 -13 17 -15 28 -6 7 7 11 15 7 18 -4 3 -9 0 -11 -7 -4
-10 -8 -10 -21 0 -15 12 -16 11 -3 -5z"/>
<path d="M7014 8637 c-8 -21 2 -35 16 -21 5 5 6 15 0 24 -8 12 -10 12 -16 -3z"/>
<path d="M5508 8632 c-34 -4 -36 -15 -4 -30 18 -8 28 -7 42 3 10 7 24 11 31 8
7 -3 13 -1 13 5 0 6 -8 9 -17 7 -10 -1 -22 0 -28 4 -5 4 -22 5 -37 3z"/>
<path d="M6557 8587 c-3 -8 -2 -19 3 -26 5 -10 9 -8 14 4 3 9 6 21 6 26 0 14
-17 11 -23 -4z"/>
<path d="M5860 8496 c0 -9 7 -12 20 -9 11 3 17 9 14 14 -8 14 -34 10 -34 -5z"/>
<path d="M5965 8470 c-3 -5 -1 -10 4 -10 6 0 11 5 11 10 0 6 -2 10 -4 10 -3 0
-8 -4 -11 -10z"/>
<path d="M6866 8473 c-11 -11 -6 -23 9 -23 8 0 15 4 15 9 0 13 -16 22 -24 14z"/>
<path d="M6055 8440 c-3 -5 -1 -10 4 -10 6 0 11 5 11 10 0 6 -2 10 -4 10 -3 0
-8 -4 -11 -10z"/>
<path d="M6896 8441 c-4 -7 -5 -15 -2 -18 9 -9 19 4 14 18 -4 11 -6 11 -12 0z"/>
<path d="M6145 8410 c-7 -12 -7 -12 27 -14 21 -2 25 1 16 11 -12 15 -34 17
-43 3z"/>
<path d="M6860 8410 c0 -5 5 -10 10 -10 6 0 10 5 10 10 0 6 -4 10 -10 10 -5 0
-10 -4 -10 -10z"/>
<path d="M6260 8376 c0 -10 4 -15 9 -11 5 3 12 -3 14 -12 4 -15 5 -15 6 -2 0
9 -6 22 -14 29 -12 10 -15 9 -15 -4z"/>
<path d="M6835 8350 c3 -5 8 -10 11 -10 2 0 4 5 4 10 0 6 -5 10 -11 10 -5 0
-7 -4 -4 -10z"/>
<path d="M6295 8320 c-7 -11 5 -17 33 -14 12 1 32 2 45 3 17 1 19 3 8 10 -18
11 -79 12 -86 1z"/>
<path d="M6421 8295 c0 -5 6 -18 14 -29 15 -20 35 -14 35 11 0 12 -3 13 -14 4
-11 -10 -17 -8 -25 6 -6 10 -10 14 -10 8z"/>
<path d="M6796 8286 c3 -8 14 -16 23 -19 14 -3 17 0 14 14 -3 11 -14 19 -24
19 -12 0 -16 -5 -13 -14z"/>
<path d="M6740 8260 c0 -5 5 -10 11 -10 5 0 7 5 4 10 -3 6 -8 10 -11 10 -2 0
-4 -4 -4 -10z"/>
<path d="M6715 8230 c3 -5 8 -10 11 -10 2 0 4 5 4 10 0 6 -5 10 -11 10 -5 0
-7 -4 -4 -10z"/>
<path d="M685 8170 c-8 -13 9 -20 48 -18 23 1 34 5 30 14 -5 13 -70 17 -78 4z"/>
<path d="M6553 7665 c7 -14 18 -25 26 -25 10 0 7 8 -9 25 -29 31 -31 31 -17 0z"/>
<path d="M6597 7550 c-3 -11 -2 -20 3 -20 12 0 21 28 11 35 -5 2 -11 -4 -14
-15z"/>
<path d="M6625 7500 c3 -5 10 -10 16 -10 5 0 9 5 9 10 0 6 -7 10 -16 10 -8 0
-12 -4 -9 -10z"/>
<path d="M6655 7481 c-3 -5 -1 -12 5 -16 5 -3 10 1 10 9 0 18 -6 21 -15 7z"/>
<path d="M6664 7338 l-19 -23 23 19 c12 11 22 21 22 23 0 8 -8 2 -26 -19z"/>
<path d="M6907 7353 c-12 -12 -7 -22 8 -17 8 4 15 10 15 15 0 11 -14 12 -23 2z"/>
<path d="M397 7224 c-15 -14 -24 -30 -21 -39 8 -21 25 -19 31 4 2 10 16 24 30
30 14 7 23 15 19 18 -14 14 -35 10 -59 -13z"/>
<path d="M6919 7205 c0 -3 -1 -21 -1 -40 0 -51 1 -55 10 -55 5 0 9 15 9 33 0
17 4 40 8 50 5 12 2 17 -9 17 -9 0 -16 -2 -17 -5z"/>
<path d="M6976 7039 c1 -45 11 -60 24 -39 15 23 12 45 -8 63 -16 15 -17 14
-16 -24z"/>
<path d="M6980 6971 c0 -6 5 -13 10 -16 6 -3 10 1 10 9 0 9 -4 16 -10 16 -5 0
-10 -4 -10 -9z"/>
<path d="M7013 6933 c4 -3 2 -11 -3 -18 -7 -8 -5 -12 5 -12 8 0 15 9 15 19 0
10 -5 18 -12 18 -6 0 -8 -3 -5 -7z"/>
<path d="M7015 6880 c-3 -5 -1 -10 4 -10 6 0 11 5 11 10 0 6 -2 10 -4 10 -3 0
-8 -4 -11 -10z"/>
<path d="M6979 6687 c-2 -23 3 -42 13 -52 8 -7 9 -6 4 3 -4 6 -2 12 3 12 17 0
13 37 -4 44 -8 3 -16 0 -16 -7z"/>
<path d="M6980 6609 c0 -5 5 -7 10 -4 6 3 10 8 10 11 0 2 -4 4 -10 4 -5 0 -10
-5 -10 -11z"/>
<path d="M239 6548 c-1 -7 -1 -16 -1 -19 1 -4 2 -36 4 -73 1 -36 6 -66 10 -66
4 0 8 -11 8 -24 0 -14 5 -28 10 -31 6 -4 7 -12 3 -18 -13 -20 -12 -36 3 -48 8
-6 14 -8 14 -5 0 4 6 1 14 -6 8 -7 11 -17 6 -23 -11 -15 -19 -144 -9 -151 17
-10 9 -34 -11 -34 -24 0 -27 -18 -4 -27 10 -4 22 1 30 12 9 11 21 16 38 13 22
-4 25 -1 28 26 3 27 8 31 46 39 23 4 42 14 42 21 0 18 -37 49 -44 38 -8 -14
-41 -8 -40 6 2 28 5 31 24 27 21 -4 36 10 21 19 -5 4 -13 2 -16 -4 -5 -8 -11
-7 -21 1 -11 9 -14 7 -14 -10 0 -14 -4 -20 -12 -15 -7 4 -8 3 -4 -4 4 -7 2
-12 -3 -12 -6 0 -11 7 -11 15 0 8 5 15 10 15 6 0 10 5 10 11 0 5 -4 7 -10 4
-6 -4 -10 6 -10 21 0 27 1 27 14 8 14 -18 15 -18 21 -2 4 10 11 15 16 12 5 -3
9 2 9 10 0 9 -6 15 -12 14 -7 -2 -12 5 -11 16 1 13 -2 15 -10 7 -20 -20 -27
-11 -27 35 0 33 -3 43 -12 38 -8 -5 -7 0 2 11 8 10 10 16 3 12 -6 -4 -14 -3
-17 2 -4 5 -2 12 4 16 6 4 8 11 4 16 -3 5 -2 9 3 8 20 -3 31 2 38 19 5 13 3
14 -5 6 -12 -12 -50 -8 -50 5 1 15 16 28 31 26 9 -2 23 1 30 6 11 7 11 9 1 9
-7 0 -10 5 -7 10 8 14 -30 26 -87 29 -33 1 -48 -2 -49 -11z m101 -246 c0 -10
-7 -19 -14 -19 -11 0 -13 5 -5 19 5 10 12 18 14 18 3 0 5 -8 5 -18z"/>
<path d="M7010 6545 c0 -8 7 -15 15 -15 9 0 12 6 9 15 -4 8 -10 15 -15 15 -5
0 -9 -7 -9 -15z"/>
<path d="M7075 6420 c-3 -5 1 -10 10 -10 9 0 13 5 10 10 -3 6 -8 10 -10 10 -2
0 -7 -4 -10 -10z"/>
<path d="M7077 6386 c-4 -10 -5 -21 -2 -24 9 -9 17 6 13 25 -3 17 -4 17 -11
-1z"/>
<path d="M7099 6339 c0 -8 -2 -21 -4 -30 -1 -9 1 -23 6 -30 8 -12 11 -12 19 1
14 22 12 46 -5 60 -12 10 -15 10 -16 -1z"/>
<path d="M7100 6249 c0 -5 5 -7 10 -4 6 3 10 8 10 11 0 2 -4 4 -10 4 -5 0 -10
-5 -10 -11z"/>
<path d="M470 6215 c-11 -13 -10 -14 4 -9 9 3 16 10 16 15 0 13 -6 11 -20 -6z"/>
<path d="M7100 6189 c0 -5 5 -7 10 -4 6 3 10 8 10 11 0 2 -4 4 -10 4 -5 0 -10
-5 -10 -11z"/>
<path d="M7038 6139 c-3 -22 -8 -24 -65 -25 -42 -1 -69 -8 -87 -20 -26 -20
-34 -48 -16 -59 6 -4 7 -12 3 -18 -4 -7 -8 -27 -9 -45 -1 -18 -9 -38 -19 -45
-33 -25 3 -35 93 -26 69 6 85 11 101 31 17 19 17 24 4 26 -9 3 -13 11 -10 23
3 11 -1 26 -10 34 -9 10 -10 15 -3 15 7 0 10 7 6 18 -5 14 -3 13 9 -3 14 -17
17 -18 25 -5 13 21 12 33 -4 56 -8 11 -11 23 -6 29 5 6 5 17 0 24 -6 11 -9 8
-12 -10z"/>
<path d="M5352 6073 c-17 -7 -5 -23 19 -23 10 0 19 7 19 15 0 15 -14 18 -38 8z"/>
<path d="M6680 6009 c0 -5 5 -7 10 -4 6 3 10 8 10 11 0 2 -4 4 -10 4 -5 0 -10
-5 -10 -11z"/>
<path d="M7075 5920 c-3 -5 -1 -10 4 -10 6 0 11 5 11 10 0 6 -2 10 -4 10 -3 0
-8 -4 -11 -10z"/>
<path d="M6950 5830 c0 -5 4 -10 9 -10 6 0 13 5 16 10 3 6 -1 10 -9 10 -9 0
-16 -4 -16 -10z"/>
<path d="M6544 5578 l-19 -23 23 19 c21 18 27 26 19 26 -2 0 -12 -10 -23 -22z"/>
<path d="M1120 5514 c0 -8 5 -12 10 -9 6 4 8 11 5 16 -9 14 -15 11 -15 -7z"/>
<path d="M6655 5321 c-3 -5 -1 -12 5 -16 5 -3 10 1 10 9 0 18 -6 21 -15 7z"/>
<path d="M5035 5260 c-3 -5 1 -10 10 -10 9 0 13 5 10 10 -3 6 -8 10 -10 10 -2
0 -7 -4 -10 -10z"/>
<path d="M474 5200 c-12 -5 -25 -13 -28 -18 -3 -5 -17 -8 -30 -7 -38 5 -53
-28 -52 -109 1 -50 5 -71 15 -74 10 -3 12 1 8 17 -7 27 1 27 24 -1 21 -24 23
-34 9 -43 -6 -4 -8 -10 -6 -14 3 -4 -1 -8 -9 -8 -8 0 -17 9 -21 19 -9 29 -24
10 -23 -30 1 -20 -6 -50 -15 -67 -14 -26 -21 -27 -17 -2 0 4 -5 7 -13 7 -12 0
-14 -21 -13 -110 2 -91 5 -110 17 -110 13 0 15 -17 15 -103 0 -73 -4 -109 -14
-120 -7 -9 -15 -37 -17 -61 -3 -41 -1 -44 18 -41 11 3 17 1 14 -3 -4 -4 -11
-7 -14 -7 -17 -1 -32 -17 -25 -28 3 -7 -3 -4 -14 6 -16 14 -22 15 -30 5 -11
-14 -11 -213 0 -224 4 -4 7 -18 7 -31 0 -19 3 -22 18 -15 9 5 25 8 35 7 10 -2
23 5 30 16 16 26 41 25 34 -1 -5 -19 15 -50 32 -50 5 0 21 12 36 26 24 22 26
28 16 47 -14 27 -84 51 -109 38 -20 -11 -62 18 -62 42 0 8 -7 20 -15 27 -11 9
-12 16 -5 25 5 6 7 14 4 17 -3 3 13 5 35 4 40 -2 41 -1 41 29 0 20 10 42 30
63 28 31 41 60 21 47 -5 -3 -13 -1 -16 5 -4 7 -12 7 -18 2 -18 -13 -42 -9 -42
8 0 8 -4 19 -10 23 -6 5 0 7 13 4 18 -4 22 -1 22 21 l0 27 25 -28 c30 -31 32
-32 32 -12 0 8 -3 12 -7 10 -4 -2 -18 7 -31 22 -13 14 -18 23 -11 19 7 -4 12
-1 12 9 0 15 2 15 15 1 9 -8 22 -13 30 -10 22 9 18 23 -5 19 -28 -5 -34 12
-15 41 9 14 14 32 11 40 -6 16 -26 19 -26 3 0 -5 5 -7 10 -4 6 3 10 0 10 -7 0
-8 -11 -14 -25 -14 -14 0 -25 4 -25 8 0 4 5 8 10 8 6 0 10 11 10 24 0 21 20
50 31 43 2 -1 1 3 -4 8 -5 6 -12 4 -18 -7 -13 -24 -29 -23 -29 2 0 11 5 20 10
20 6 0 10 5 10 11 0 8 -4 8 -14 0 -10 -9 -16 -8 -26 3 -6 9 -9 20 -5 25 3 6 2
27 -4 46 -6 23 -6 35 0 35 6 0 7 5 3 12 -5 8 -2 9 9 5 18 -7 25 17 8 27 -5 4
-4 16 2 30 13 26 30 26 20 0 -3 -9 6 -4 21 10 15 16 26 38 26 53 0 21 3 24 12
15 7 -7 19 -12 27 -11 11 0 12 2 3 6 -6 2 -9 10 -6 15 4 7 2 8 -4 4 -8 -5 -12
0 -12 14 0 11 6 23 14 26 24 9 28 33 4 26 -16 -4 -19 -1 -16 14 2 11 11 18 21
16 9 -2 17 1 17 6 0 14 -26 33 -34 25 -4 -4 -4 0 0 10 3 9 12 17 20 17 8 0 14
9 14 20 0 17 7 20 40 20 49 0 55 26 10 43 -18 7 -28 17 -26 24 3 7 4 13 3 12
-1 0 -12 -4 -23 -9z m11 -39 c3 -5 1 -12 -5 -16 -5 -3 -10 1 -10 9 0 18 6 21
15 7z m-25 -21 c0 -5 -2 -10 -4 -10 -3 0 -8 5 -11 10 -3 6 -1 10 4 10 6 0 11
-4 11 -10z m-30 -44 c0 -3 -4 -8 -10 -11 -5 -3 -10 -1 -10 4 0 6 5 11 10 11 6
0 10 -2 10 -4z m-13 -68 c-3 -8 -6 -5 -6 6 -1 11 2 17 5 13 3 -3 4 -12 1 -19z
m-54 -511 c3 -8 1 -20 -4 -28 -6 -10 -9 -7 -9 14 0 29 5 35 13 14z m-9 -165
c3 -5 -1 -9 -9 -9 -8 0 -12 4 -9 9 3 4 7 8 9 8 2 0 6 -4 9 -8z m11 -31 c3 -5
1 -12 -5 -16 -5 -3 -10 1 -10 9 0 18 6 21 15 7z m-34 -64 c-17 -17 -41 -17
-41 0 0 13 3 13 18 2 9 -7 14 -9 10 -5 -4 5 -2 16 4 24 9 10 13 11 16 2 2 -6
-1 -17 -7 -23z"/>
<path d="M620 5165 c0 -8 7 -15 15 -15 9 0 12 6 9 15 -4 8 -10 15 -15 15 -5 0
-9 -7 -9 -15z"/>
<path d="M488 5073 c7 -3 16 -2 19 1 4 3 -2 6 -13 5 -11 0 -14 -3 -6 -6z"/>
<path d="M6325 4990 c10 -11 20 -20 23 -20 3 0 -3 9 -13 20 -10 11 -20 20 -23
20 -3 0 3 -9 13 -20z"/>
<path d="M6717 4983 c-2 -5 -5 -27 -6 -50 -1 -33 3 -43 15 -43 12 0 14 7 8 38
-4 20 -7 43 -7 50 0 14 -4 15 -10 5z"/>
<path d="M6475 4840 c-3 -5 -1 -10 4 -10 6 0 11 5 11 10 0 6 -2 10 -4 10 -3 0
-8 -4 -11 -10z"/>
<path d="M6500 4836 c0 -2 8 -10 18 -17 15 -13 16 -12 3 4 -13 16 -21 21 -21
13z"/>
<path d="M5908 4522 c-10 -2 -18 -9 -18 -17 0 -14 26 -23 53 -17 9 2 17 9 17
17 0 14 -26 23 -52 17z"/>
<path d="M6655 4270 c3 -5 8 -10 11 -10 2 0 4 5 4 10 0 6 -5 10 -11 10 -5 0
-7 -4 -4 -10z"/>
<path d="M341 4196 c-1 -14 -4 -16 -15 -7 -10 9 -16 8 -26 -3 -10 -12 -7 -20
17 -43 l28 -28 3 28 c2 15 8 27 13 27 5 0 9 5 9 11 0 5 -4 8 -9 4 -5 -3 -12 3
-14 12 -4 16 -5 16 -6 -1z"/>
<path d="M6844 4041 c-3 -3 -18 -6 -32 -6 -19 0 -30 -8 -40 -27 -7 -16 -20
-28 -28 -28 -8 0 -13 -4 -10 -9 3 -5 0 -14 -8 -20 -9 -7 -14 -33 -15 -67 -1
-78 -11 -125 -25 -117 -7 4 -7 1 1 -8 10 -12 10 -18 0 -29 -10 -10 -9 -11 3
-5 12 6 12 5 3 -5 -9 -9 -9 -17 0 -30 8 -14 8 -22 -3 -35 -12 -14 -12 -18 1
-26 11 -7 9 -9 -8 -9 -16 0 -23 -6 -24 -20 -2 -29 -3 -33 -13 -49 -6 -10 -6
-16 2 -19 7 -2 8 -11 2 -27 -5 -12 -7 -25 -4 -28 6 -6 6 -255 0 -330 -2 -32
-9 -64 -15 -71 -7 -8 -7 -16 -1 -24 6 -7 7 -10 3 -7 -3 3 -14 -12 -23 -32 -12
-28 -16 -57 -13 -108 2 -38 5 -75 8 -82 2 -7 -1 -15 -6 -19 -7 -4 -2 -15 10
-28 12 -12 18 -26 14 -30 -4 -4 -3 -10 2 -14 6 -4 15 -16 22 -27 6 -11 16 -19
22 -18 6 2 11 -3 11 -10 0 -6 15 -17 34 -23 28 -8 37 -7 56 8 18 14 20 21 11
32 -7 8 -23 13 -37 10 -16 -3 -27 1 -30 11 -3 8 -10 13 -14 10 -5 -3 -12 -1
-15 5 -5 8 -11 8 -20 0 -10 -9 -13 -4 -13 24 0 20 7 41 16 48 12 10 14 10 8 1
-4 -8 -1 -13 9 -13 8 0 19 8 23 18 7 17 33 29 31 14 -5 -29 3 -59 16 -59 8 0
12 3 10 7 -2 3 12 7 31 7 29 1 34 -2 34 -23 0 -23 -31 -49 -44 -36 -4 3 -4 -1
0 -11 6 -16 22 -22 53 -17 8 1 18 -4 23 -12 8 -10 9 -9 4 4 -3 10 -1 20 5 23
10 7 9 75 -2 75 -3 0 -6 8 -5 18 1 25 30 52 54 52 17 0 20 7 19 40 -1 47 -13
53 -19 11 -3 -18 0 -28 5 -24 6 3 7 1 3 -6 -6 -9 -11 -9 -24 1 -13 11 -14 11
-7 -2 7 -12 6 -13 -6 -4 -8 6 -24 10 -36 8 -15 -3 -26 3 -34 19 -6 12 -13 23
-14 25 -2 2 -13 -3 -24 -10 -18 -11 -23 -11 -31 2 -14 22 -12 29 8 23 16 -4
18 0 14 27 -2 17 -7 29 -10 26 -3 -3 -11 -1 -18 5 -10 8 -12 6 -9 -10 3 -14
-1 -21 -13 -21 -12 0 -13 3 -5 11 18 18 -7 41 -27 25 -13 -9 -13 -9 -3 5 7 9
11 18 8 21 -3 2 2 5 10 5 8 0 12 -4 9 -8 -2 -4 0 -10 6 -14 5 -3 10 -1 10 5 0
6 5 8 10 5 6 -3 10 -1 10 5 0 6 4 9 9 6 10 -6 22 30 13 38 -3 3 -12 0 -20 -7
-13 -10 -14 -8 -7 12 5 16 4 21 -4 17 -6 -4 -11 0 -11 8 0 9 -4 16 -10 16 -5
0 -10 10 -10 22 0 21 1 21 13 3 11 -14 16 -15 22 -5 6 9 4 11 -4 6 -8 -6 -11
-2 -9 10 2 11 -2 18 -8 17 -6 -1 -11 20 -12 53 0 49 1 54 13 37 13 -17 14 -17
24 7 5 14 10 21 10 15 1 -5 17 -10 36 -10 33 0 35 2 35 32 0 27 -3 30 -22 25
-13 -3 -19 -1 -15 5 4 6 0 16 -8 23 -8 7 -15 20 -15 29 0 14 2 14 10 1 8 -13
11 -13 22 -1 10 11 11 14 0 18 -7 3 -18 11 -26 18 -10 11 -16 11 -27 2 -8 -7
-6 -3 3 7 15 17 19 18 34 5 16 -12 17 -12 11 5 -6 15 -4 17 13 13 17 -4 19 -3
9 9 -8 10 -8 14 0 14 6 0 11 16 11 38 0 20 -4 33 -8 27 -4 -5 -13 -11 -19 -12
-10 -2 -10 3 -1 22 6 13 15 22 19 19 5 -3 9 6 9 20 0 20 -4 24 -17 19 -11 -4
-14 -3 -9 5 4 7 1 12 -8 12 -10 0 -13 -6 -9 -17 4 -11 3 -14 -5 -9 -20 12 -13
36 11 37 12 0 17 3 11 5 -7 3 -10 13 -7 23 3 10 -1 22 -8 27 -9 5 -11 2 -6 -9
7 -19 -1 -21 -23 -7 -12 8 -12 11 3 27 16 18 16 20 -1 37 -9 11 -11 16 -4 12
9 -5 12 9 12 60 0 56 2 65 14 55 16 -13 32 2 21 19 -3 6 -2 10 4 10 5 0 11 -5
13 -11 2 -6 18 -12 36 -13 25 -2 32 2 32 16 0 10 5 18 11 18 8 0 8 5 -1 15 -7
8 -16 13 -19 10 -4 -2 -8 2 -8 10 0 8 4 12 9 9 4 -3 8 2 8 12 0 13 3 14 14 5
10 -9 15 -8 19 4 4 8 3 14 -1 14 -28 -5 -35 2 -19 19 16 17 14 19 -18 34 -19
8 -37 13 -41 9z m33 -57 c-3 -3 -12 -4 -19 -1 -8 3 -5 6 6 6 11 1 17 -2 13 -5z
m-91 -26 c19 -22 19 -22 0 -8 -15 12 -20 12 -23 2 -3 -6 -9 -9 -14 -6 -6 3 -5
11 2 20 14 18 12 18 35 -8z m56 -70 c-9 -9 -12 -7 -12 12 0 19 3 21 12 12 9
-9 9 -15 0 -24z m38 12 c0 -5 -5 -10 -11 -10 -5 0 -7 5 -4 10 3 6 8 10 11 10
2 0 4 -4 4 -10z m-120 -294 c0 -2 -8 -10 -17 -17 -16 -13 -17 -12 -4 4 13 16
21 21 21 13z m0 -63 c0 -19 -3 -24 -10 -17 -6 6 -8 18 -4 27 9 24 14 21 14
-10z m40 -45 c0 -5 5 -6 11 -2 7 4 10 1 7 -6 -2 -7 -14 -17 -26 -21 -19 -7
-22 -5 -22 15 0 13 6 23 15 23 8 0 15 -4 15 -9z"/>
<path d="M7063 4008 c8 -13 17 -22 21 -20 9 3 2 17 -8 14 -5 -2 -6 4 -3 13 4
9 1 15 -10 15 -14 0 -14 -2 0 -22z"/>
<path d="M820 3976 c0 -2 8 -10 18 -17 15 -13 16 -12 3 4 -13 16 -21 21 -21
13z"/>
<path d="M440 3947 c0 -8 7 -18 16 -21 11 -4 14 -1 12 11 -4 21 -28 30 -28 10z"/>
<path d="M6965 3911 c-3 -5 -2 -11 2 -13 7 -4 14 -4 51 0 7 1 10 7 7 12 -8 13
-52 13 -60 1z"/>
<path d="M7042 3903 c2 -10 -1 -18 -7 -18 -16 -1 -55 -29 -55 -39 0 -5 8 -2
18 7 10 10 27 17 38 17 15 0 20 7 20 25 0 14 -4 25 -8 25 -5 0 -8 -8 -6 -17z"/>
<path d="M5655 3822 c-8 -8 5 -22 21 -22 8 0 14 6 14 13 0 13 -25 19 -35 9z"/>
<path d="M6980 3820 c0 -5 5 -10 11 -10 5 0 7 5 4 10 -3 6 -8 10 -11 10 -2 0
-4 -4 -4 -10z"/>
<path d="M6985 3790 c-4 -6 -11 -7 -17 -4 -7 4 -8 2 -4 -5 6 -9 11 -9 22 0 14
11 18 19 10 19 -3 0 -8 -5 -11 -10z"/>
<path d="M6980 3729 c0 -5 5 -7 10 -4 6 3 10 8 10 11 0 2 -4 4 -10 4 -5 0 -10
-5 -10 -11z"/>
<path d="M6980 3700 c0 -5 5 -10 11 -10 5 0 7 5 4 10 -3 6 -8 10 -11 10 -2 0
-4 -4 -4 -10z"/>
<path d="M6979 3667 c6 -8 8 -17 3 -21 -4 -4 1 -12 11 -17 11 -7 17 -22 17
-42 0 -94 -1 -125 -6 -149 -3 -22 0 -28 14 -28 16 0 18 9 14 98 -3 65 -9 102
-19 113 -8 9 -15 26 -16 38 -1 11 -8 21 -15 21 -11 0 -12 -3 -3 -13z"/>
<path d="M6842 3425 c2 -12 -2 -19 -9 -17 -7 1 -13 -5 -13 -15 0 -9 3 -13 7
-10 3 4 12 -1 20 -11 8 -9 11 -11 7 -3 -3 7 -2 16 4 20 7 4 6 14 -4 31 -12 21
-14 22 -12 5z"/>
<path d="M6980 3369 c0 -5 5 -7 10 -4 6 3 10 8 10 11 0 2 -4 4 -10 4 -5 0 -10
-5 -10 -11z"/>
<path d="M6815 3361 c-3 -5 -1 -12 5 -16 5 -3 10 1 10 9 0 18 -6 21 -15 7z"/>
<path d="M6980 3340 c0 -5 5 -10 11 -10 5 0 7 5 4 10 -3 6 -8 10 -11 10 -2 0
-4 -4 -4 -10z"/>
<path d="M6978 3308 c-6 -16 1 -38 12 -38 4 0 7 11 6 25 -1 27 -11 33 -18 13z"/>
<path d="M6920 3241 c0 -11 5 -23 10 -26 6 -3 10 1 10 9 0 9 0 19 1 23 0 4 -4
9 -10 11 -6 2 -11 -5 -11 -17z"/>
<path d="M6916 3133 c-3 -38 -2 -84 2 -103 10 -39 5 -63 -9 -54 -5 3 -9 -2 -9
-11 0 -9 5 -13 10 -10 6 3 10 1 10 -4 0 -6 5 -11 11 -11 7 0 10 19 7 55 -3 33
0 56 6 58 13 4 8 87 -6 105 -7 8 -7 12 0 12 6 0 9 7 6 15 -12 31 -22 13 -28
-52z"/>
<path d="M4279 2988 c-8 -27 -5 -35 12 -31 22 6 26 33 4 33 -8 0 -15 -1 -16
-2z"/>
<path d="M580 2892 c0 -5 7 -9 15 -9 8 0 15 4 15 9 0 4 -7 8 -15 8 -8 0 -15
-4 -15 -8z"/>
<path d="M730 2706 c0 -2 8 -10 18 -17 15 -13 16 -12 3 4 -13 16 -21 21 -21
13z"/>
<path d="M6864 2644 c3 -9 6 -19 6 -22 0 -9 20 21 20 31 0 4 -7 7 -16 7 -11 0
-14 -5 -10 -16z"/>
<path d="M6800 2589 c0 -5 5 -7 10 -4 6 3 10 8 10 11 0 2 -4 4 -10 4 -5 0 -10
-5 -10 -11z"/>
<path d="M1040 2516 c0 -2 8 -10 18 -17 15 -13 16 -12 3 4 -13 16 -21 21 -21
13z"/>
<path d="M3050 2406 c0 -9 7 -16 16 -16 17 0 14 22 -4 28 -7 2 -12 -3 -12 -12z"/>
<path d="M6199 2353 c-13 -16 -12 -17 4 -4 16 13 21 21 13 21 -2 0 -10 -8 -17
-17z"/>
<path d="M435 2230 c3 -5 8 -10 11 -10 2 0 4 5 4 10 0 6 -5 10 -11 10 -5 0 -7
-4 -4 -10z"/>
<path d="M1160 2168 c0 -5 -9 -12 -20 -16 -19 -7 -19 -9 -4 -31 12 -16 19 -20
27 -12 12 12 159 15 171 4 4 -5 11 -8 14 -9 33 -2 74 -18 81 -31 6 -12 23 -16
59 -16 66 1 70 -4 73 -90 0 -15 4 -25 9 -22 5 3 8 -14 8 -37 -2 -25 2 -42 8
-41 6 1 11 -4 11 -12 0 -8 -5 -11 -11 -8 -6 3 -6 0 1 -7 12 -13 3 -37 -24 -67
-7 -8 -10 -20 -7 -28 6 -13 -6 -20 -28 -16 -5 0 -8 -5 -8 -12 0 -15 -50 -66
-50 -51 0 5 -7 1 -15 -10 -13 -17 -15 -17 -30 -2 -17 16 -40 13 -29 -5 3 -5 2
-9 -3 -8 -27 5 -44 -5 -58 -31 -9 -17 -24 -30 -35 -30 -10 0 -26 -7 -34 -16
-9 -8 -16 -12 -16 -7 0 4 -8 -4 -18 -20 -10 -15 -22 -24 -25 -20 -4 3 -7 -1
-7 -10 0 -10 -4 -17 -10 -17 -5 0 -10 -5 -10 -10 0 -22 -36 -48 -69 -52 -31
-4 -35 -8 -39 -39 -2 -19 -9 -46 -17 -61 -9 -19 -10 -29 -2 -37 8 -8 8 -11 0
-11 -16 0 -12 -48 5 -55 12 -5 11 -10 -9 -31 l-23 -25 22 -6 c14 -3 22 -12 20
-22 -3 -13 -16 -15 -83 -13 -47 2 -84 8 -90 15 -5 7 -18 13 -27 14 -33 1 -36
3 -41 24 -3 12 -13 20 -24 19 -10 -1 -23 -2 -28 -1 -14 1 -38 58 -30 71 3 6
-4 10 -17 10 -13 0 -18 4 -13 8 14 9 17 52 4 52 -14 0 -11 26 6 40 14 12 73
22 123 21 95 -1 101 -1 107 8 9 15 -17 25 -52 22 -25 -2 -33 2 -33 13 0 9 -8
16 -17 17 -10 1 -31 2 -48 3 -41 2 -55 13 -55 42 0 32 -12 55 -50 92 -35 36
-40 72 -10 72 22 0 27 15 8 22 -21 7 -240 2 -277 -7 -20 -4 -36 -15 -38 -26
-7 -25 -33 -24 -33 1 0 11 -4 20 -10 20 -14 0 -12 -12 5 -37 14 -21 52 -25 48
-6 -1 5 4 10 12 10 8 0 12 -4 9 -8 -2 -4 0 -10 6 -14 6 -4 7 -11 4 -17 -4 -6
-2 -8 4 -5 5 4 8 16 5 27 -4 15 0 20 13 20 14 0 15 -3 6 -8 -10 -7 -10 -14 1
-35 8 -15 18 -23 22 -19 5 4 5 1 1 -6 -5 -8 -12 -10 -19 -4 -7 5 -20 8 -29 7
-10 -2 -17 0 -17 3 1 4 1 16 -1 27 -1 20 -1 20 -9 0 -5 -11 -7 -23 -5 -26 2
-3 -3 -6 -11 -6 -8 0 -12 8 -9 20 3 19 3 19 -16 2 -18 -17 -19 -20 -4 -36 10
-11 12 -19 5 -24 -6 -3 -11 -1 -11 4 0 6 -5 11 -11 11 -6 0 -9 -8 -7 -17 2
-10 11 -17 19 -15 8 2 11 0 7 -4 -15 -14 13 -33 35 -25 12 5 28 6 35 4 7 -3
19 0 26 6 10 8 17 7 26 -4 7 -9 17 -12 24 -7 14 11 26 9 54 -6 19 -11 21 -16
11 -34 -8 -15 -8 -18 0 -14 7 5 11 -2 11 -18 0 -20 -6 -25 -28 -28 -26 -3 -27
-6 -28 -60 0 -46 2 -55 14 -50 11 4 14 1 9 -11 -3 -9 -2 -19 2 -21 5 -3 6 -17
3 -31 -3 -16 2 -33 14 -46 15 -17 16 -23 5 -41 -9 -15 -10 -23 -2 -27 7 -5 2
-16 -14 -31 -23 -22 -26 -48 -3 -34 6 4 6 -1 -1 -14 -13 -24 -38 -35 -47 -21
-4 6 -11 6 -20 -2 -7 -6 -11 -15 -9 -20 3 -4 -4 -6 -15 -4 -13 2 -20 -1 -20
-11 0 -11 -7 -10 -29 7 -33 24 -52 19 -44 -11 3 -12 10 -17 17 -13 19 13 35
12 47 -3 8 -10 8 -14 0 -14 -6 0 -11 -5 -11 -11 0 -5 5 -7 10 -4 18 11 11 -18
-10 -40 l-20 -21 25 0 c25 0 37 16 13 16 -7 1 -2 9 10 20 16 14 29 17 40 11
10 -5 25 -7 34 -6 10 2 21 -1 24 -6 3 -6 11 -5 20 2 11 9 14 8 14 -5 0 -10 -4
-14 -10 -11 -5 3 -10 -1 -10 -9 0 -9 -5 -16 -11 -16 -5 0 -7 -5 -3 -12 5 -8
11 -6 19 5 7 9 15 13 19 9 4 -4 7 -2 6 3 -1 6 -2 20 -1 33 1 19 4 21 19 13 10
-5 23 -7 29 -3 6 4 28 7 50 7 27 0 38 -4 38 -15 0 -8 -6 -16 -12 -16 -24 -3
-25 -4 -14 -18 14 -16 -6 -36 -38 -39 -12 -1 -21 -7 -21 -14 0 -7 -7 -13 -15
-13 -8 0 -15 -5 -15 -12 0 -6 -7 -20 -16 -29 -15 -17 -15 -18 4 -14 15 2 19 0
15 -11 -3 -8 -11 -14 -19 -14 -8 0 -14 -7 -14 -16 0 -8 -4 -12 -10 -9 -5 3
-10 -2 -10 -12 0 -11 -6 -25 -12 -32 -7 -6 -13 -15 -14 -19 0 -4 -4 -15 -8
-25 -5 -10 -3 -23 5 -33 7 -8 8 -14 3 -13 -28 5 -94 -2 -94 -11 0 -5 10 -10
23 -10 12 0 66 -2 120 -4 93 -3 98 -2 94 15 -5 17 1 19 59 18 35 -1 64 -6 64
-11 0 -5 -6 -6 -12 -2 -7 4 -4 -2 6 -12 11 -11 31 -19 45 -18 14 2 32 3 39 3
6 1 12 10 12 21 0 17 6 20 43 19 23 -1 50 -6 59 -11 15 -7 18 -4 18 13 0 15 4
19 16 15 8 -3 12 -2 9 4 -3 5 10 8 32 6 46 -4 63 2 63 20 0 19 106 20 113 2 4
-9 6 -10 6 -1 1 8 12 10 34 6 25 -4 37 0 47 14 14 16 14 17 -2 4 -11 -8 -18
-9 -18 -3 0 18 20 24 35 12 8 -7 15 -9 15 -4 0 4 6 0 13 -10 12 -16 14 -16 26
-2 10 12 39 15 153 15 185 1 181 4 184 -156 1 -74 6 -119 13 -121 6 -2 11 -19
11 -38 0 -22 6 -37 15 -40 20 -8 19 -34 -1 -34 -8 0 -12 5 -9 10 3 6 4 10 1
10 -10 0 -33 -55 -29 -67 3 -7 15 -13 28 -13 12 0 25 -7 29 -15 4 -11 20 -15
54 -15 32 0 54 -5 62 -15 11 -14 15 -14 29 -1 23 21 194 21 211 0 9 -10 35
-14 95 -14 64 0 84 -3 89 -15 7 -20 56 -20 56 0 0 20 56 20 64 0 7 -19 26 -20
26 -1 0 9 12 16 28 18 21 2 28 9 30 31 3 21 9 27 26 27 13 0 29 7 36 15 7 8
23 15 36 15 15 0 24 6 24 15 0 8 7 15 15 15 8 0 15 7 15 16 0 12 10 15 43 14
64 -3 77 -1 77 11 0 17 43 48 66 49 12 0 24 7 28 15 3 8 11 14 18 13 7 -2 12
5 10 15 -2 14 6 17 50 18 29 1 73 1 98 -1 25 -1 129 -3 231 -3 170 -2 185 -1
186 16 1 9 -5 17 -13 17 -8 0 -14 8 -14 18 0 23 -19 42 -42 42 -10 0 -18 7
-18 16 0 8 -7 22 -15 30 -8 9 -15 26 -15 40 0 14 -7 27 -15 30 -8 4 -15 12
-15 20 0 8 -10 14 -24 14 -14 0 -31 6 -38 13 -9 9 -48 13 -136 14 -99 0 -125
3 -135 16 -15 19 -144 19 -139 -1 2 -13 -19 -16 -117 -13 -50 2 -68 -2 -82
-16 -30 -30 -49 -44 -49 -37 0 4 -9 -1 -21 -12 -11 -10 -30 -19 -41 -19 -16 0
-22 -8 -25 -30 -5 -36 -1 -32 -43 -36 -23 -2 -46 -14 -66 -34 -29 -29 -40 -32
-96 -26 -5 1 -8 35 -8 76 l0 75 67 0 c48 0 72 -5 85 -17 15 -13 23 -14 44 -5
15 8 22 17 18 24 -5 8 -2 9 9 5 13 -5 17 -1 17 14 0 15 5 19 15 15 19 -7 19
11 0 48 -18 33 -19 46 -5 46 6 0 9 -3 9 -8 -5 -27 1 -34 18 -21 10 8 14 9 10
2 -4 -6 -3 -14 3 -18 6 -4 10 14 10 49 0 47 3 56 18 56 13 0 14 -2 3 -9 -9 -6
-10 -11 -2 -15 13 -8 13 -8 16 59 3 67 6 74 15 45 l8 -25 1 25 c0 14 -6 33
-14 44 -12 16 -12 22 2 42 9 14 13 27 9 31 -3 3 -6 0 -6 -7 0 -9 -3 -11 -10
-4 -10 10 -2 56 9 50 4 -3 8 5 8 17 2 15 0 18 -6 8 -14 -22 -20 1 -17 66 2 63
26 110 49 96 5 -3 7 -1 3 5 -3 6 -2 14 4 17 8 5 7 11 -1 21 -6 8 -8 14 -3 14
5 0 9 25 10 55 0 30 -3 55 -7 55 -4 0 -6 9 -4 20 2 11 -1 19 -8 17 -6 -1 -13
9 -15 23 -2 14 -8 30 -14 35 -8 7 -8 6 -3 -4 6 -10 4 -12 -4 -7 -7 5 -10 14
-7 22 3 9 -2 14 -14 14 -15 0 -20 7 -20 26 0 24 -2 25 -17 13 -15 -12 -16 -12
-9 6 4 11 4 16 0 13 -3 -4 -20 0 -36 8 -22 11 -29 21 -25 35 3 10 1 17 -4 13
-5 -3 -9 2 -9 11 0 9 -4 14 -9 11 -5 -4 -11 -2 -13 3 -1 6 -18 13 -37 16 -32
5 -65 28 -55 37 2 3 -2 11 -11 18 -8 7 -15 24 -15 39 0 15 -3 21 -8 14 -5 -8
-13 -6 -30 7 -12 10 -22 21 -22 25 0 4 7 1 16 -6 15 -12 16 -9 10 26 -3 22 -5
47 -6 55 0 13 -1 13 -10 0 -8 -12 -10 -11 -10 8 0 12 -5 22 -11 22 -8 0 -8 4
0 13 8 10 7 17 -1 25 -9 9 -9 12 0 12 7 0 12 5 12 11 0 5 -4 8 -8 5 -5 -3 -9
1 -9 9 0 22 41 33 142 38 22 1 45 5 51 9 6 4 22 1 37 -7 22 -11 28 -11 38 1 6
8 14 12 17 10 2 -3 12 -1 21 4 10 5 23 5 31 0 9 -5 19 -5 27 2 9 7 20 6 39 -7
18 -11 24 -13 19 -4 -6 11 -5 11 5 2 8 -8 20 -9 37 -2 14 5 22 5 19 0 -5 -8
22 -8 32 -1 1 2 11 3 22 4 11 0 20 4 20 9 0 4 0 13 0 20 0 9 -38 13 -161 14
-94 1 -166 6 -173 12 -7 6 -16 8 -19 5 -3 -4 -32 -8 -64 -10 -62 -4 -78 -7
-106 -19 -9 -4 -23 -2 -30 4 -10 8 -17 7 -25 -1 -7 -7 -44 -13 -82 -14 -39 -1
-77 -7 -84 -13 -11 -9 -15 -9 -19 1 -4 10 -8 10 -16 -2 -7 -10 -11 -11 -11 -2
0 6 -7 12 -16 12 -9 0 -12 -5 -8 -12 6 -10 4 -10 -8 0 -12 10 -18 10 -24 1 -5
-8 -12 -3 -21 15 -12 23 -17 25 -30 15 -18 -15 -52 -17 -73 -4 -21 13 -33 13
-50 -1 -15 -11 -96 -11 -107 0 -4 3 -13 0 -21 -7 -12 -10 -16 -9 -20 1 -3 9
-7 10 -17 2 -9 -7 -15 -8 -19 -1 -4 6 -13 8 -21 4 -8 -3 -15 -1 -15 3 0 5 -21
10 -48 12 -26 2 -64 4 -84 6 -39 2 -68 20 -68 42 0 9 -12 14 -32 15 -18 1 -53
2 -77 3 -25 1 -46 7 -48 13 -3 8 -14 9 -33 3 -16 -4 -31 -5 -34 -2 -10 9 -46
9 -46 0z m-753 -624 c10 -21 9 -23 -13 -22 -17 2 -23 8 -22 23 3 29 21 27 35
-1z m37 13 c11 12 56 11 49 0 -4 -6 0 -8 10 -4 10 4 17 1 17 -6 0 -9 2 -9 9 1
6 10 10 10 20 -1 9 -12 8 -16 -6 -22 -37 -16 -101 4 -86 28 3 6 1 7 -6 3 -9
-6 -9 -11 0 -22 9 -11 8 -14 -5 -14 -9 0 -16 7 -16 16 0 8 -4 13 -8 10 -5 -3
-9 1 -9 9 0 10 4 12 12 5 7 -5 15 -7 19 -3z m1227 -16 c8 12 10 12 19 -1 7
-11 5 -16 -8 -19 -9 -2 -20 -8 -24 -15 -5 -7 -8 -7 -8 0 0 6 -7 11 -15 11 -8
0 -12 -4 -9 -8 2 -4 0 -10 -6 -14 -5 -3 -10 -1 -10 5 0 6 -13 2 -30 -10 -26
-19 -30 -19 -30 -5 0 12 -5 15 -16 11 -14 -5 -15 -4 -4 9 7 9 21 13 31 10 11
-4 19 -2 19 4 0 6 11 11 25 11 14 0 25 5 25 11 0 8 5 7 16 -2 13 -10 17 -10
25 2z m440 -43 c6 -10 4 -15 -6 -15 -8 0 -15 3 -15 7 0 4 -13 5 -30 2 -18 -2
-30 0 -30 7 0 6 6 8 14 5 8 -3 17 -1 20 4 9 14 37 8 47 -10z m-588 -44 c-23
-17 -33 -17 -33 0 0 16 19 25 38 18 9 -3 8 -8 -5 -18z m494 -50 c-3 -3 -12 -4
-19 -1 -8 3 -5 6 6 6 11 1 17 -2 13 -5z m-1352 -263 c3 -5 1 -12 -5 -16 -5 -3
-10 1 -10 9 0 18 6 21 15 7z m508 -89 c9 -8 17 -26 17 -39 0 -13 7 -34 16 -48
8 -13 14 -32 12 -42 -2 -10 2 -17 8 -16 6 1 11 -4 11 -12 0 -8 -4 -12 -8 -10
-4 3 -10 -6 -13 -20 -9 -33 -26 -32 -27 3 0 15 -3 22 -5 16 -3 -7 -14 -10 -24
-7 -15 4 -18 1 -15 -16 2 -12 0 -21 -6 -21 -5 0 -9 6 -9 14 0 9 -10 13 -32 11
-37 -4 -162 -7 -224 -6 -34 1 -43 5 -47 22 -3 12 -10 18 -15 15 -6 -3 -13 2
-16 11 -4 9 -2 19 4 23 5 3 11 19 12 34 3 36 21 49 64 48 22 -1 41 5 54 18 11
11 31 20 44 20 14 0 27 4 30 8 2 4 19 9 37 10 18 1 35 5 38 7 9 9 76 -7 94
-23z m2 -212 c-3 -5 1 -10 10 -10 9 0 13 -4 10 -10 -3 -5 1 -10 9 -10 9 0 15
-6 14 -12 -2 -7 3 -12 10 -10 7 1 12 -8 12 -22 0 -16 7 -27 20 -31 11 -4 18
-10 15 -15 -3 -5 -12 -7 -20 -3 -11 3 -15 -2 -15 -18 -1 -22 -2 -22 -11 -6 -6
10 -8 24 -6 31 3 7 -1 13 -9 13 -7 0 -11 -4 -8 -9 3 -4 2 -13 -2 -20 -5 -8
-10 -6 -15 8 -7 18 -8 18 -8 0 -1 -15 -4 -16 -15 -7 -9 8 -16 8 -20 2 -4 -5
-15 -8 -25 -6 -11 2 -22 -3 -25 -11 -8 -20 -26 -18 -27 4 0 16 -1 16 -8 -1 -8
-22 -21 -24 -32 -5 -7 10 -9 10 -9 -2 0 -8 4 -21 9 -28 6 -10 10 -10 21 3 10
12 16 13 26 4 20 -16 17 -27 -8 -40 -19 -9 -21 -9 -10 2 6 7 12 19 12 27 0 12
-3 12 -15 2 -8 -7 -15 -18 -15 -25 0 -7 -8 -12 -17 -10 -10 1 -29 -4 -42 -12
-13 -8 -26 -11 -30 -6 -7 11 -113 14 -106 4 2 -5 -14 -8 -35 -8 -22 0 -40 4
-40 9 0 4 -7 8 -16 8 -8 0 -13 4 -9 9 3 6 -3 15 -14 20 -26 14 -31 14 -31 -4
0 -8 5 -15 10 -15 6 0 2 -10 -9 -21 -22 -24 -51 -20 -51 6 0 9 -4 13 -10 10
-5 -3 -10 0 -10 9 0 8 4 16 10 18 5 2 11 22 12 45 1 34 4 40 14 32 16 -13 37
-2 28 13 -4 6 -2 8 4 4 6 -3 13 -2 17 3 3 6 12 8 20 4 8 -3 15 0 15 7 0 6 -4
9 -9 5 -5 -3 -13 0 -17 7 -4 7 -4 10 1 6 4 -4 14 -3 22 3 10 9 13 8 13 -2 0
-12 2 -12 9 0 6 9 10 10 16 2 5 -9 10 -9 21 0 11 9 14 8 14 -5 0 -10 5 -14 10
-11 6 3 10 -2 10 -12 1 -17 1 -17 15 1 12 15 28 19 97 19 64 0 85 3 94 15 9
12 16 13 25 6 19 -14 45 -11 41 5 -1 7 2 10 7 6 6 -3 20 6 33 20 22 25 34 34
23 15z m1475 -4 c0 -3 -4 -8 -10 -11 -5 -3 -10 -1 -10 4 0 6 5 11 10 11 6 0
10 -2 10 -4z m-30 -52 c0 -22 -2 -25 -15 -14 -8 7 -15 19 -15 26 0 8 7 14 15
14 10 0 15 -10 15 -26z m-49 -90 c5 -7 3 -11 -6 -11 -8 0 -12 4 -9 8 2 4 0 10
-6 14 -6 4 -7 11 -3 18 5 8 8 7 11 -3 3 -8 9 -20 13 -26z m-1370 -47 c-8 -8
-11 -3 -11 19 1 25 2 27 11 11 8 -14 8 -22 0 -30z m71 34 c8 11 9 11 6 1 -4
-16 -22 -18 -24 -3 -2 8 -1 7 3 0 4 -8 8 -7 15 2z m1193 -11 c3 -5 1 -10 -4
-10 -6 0 -11 5 -11 10 0 6 2 10 4 10 3 0 8 -4 11 -10z m-1345 -22 c0 -16 -3
-19 -11 -11 -6 6 -8 16 -5 22 11 17 16 13 16 -11z m1437 7 c0 -8 -4 -12 -9 -9
-5 3 -6 10 -3 15 9 13 12 11 12 -6z m-1943 -46 c-8 -14 -24 -10 -24 6 0 9 6
12 15 9 8 -4 12 -10 9 -15z"/>
<path d="M917 666 c-4 -10 -1 -13 9 -9 15 6 19 23 5 23 -5 0 -11 -7 -14 -14z"/>
<path d="M960 629 c0 -5 5 -7 10 -4 6 3 10 8 10 11 0 2 -4 4 -10 4 -5 0 -10
-5 -10 -11z"/>
<path d="M6475 2140 c-3 -5 -1 -10 4 -10 6 0 11 5 11 10 0 6 -2 10 -4 10 -3 0
-8 -4 -11 -10z"/>
<path d="M6475 2110 c3 -5 8 -10 11 -10 2 0 4 5 4 10 0 6 -5 10 -11 10 -5 0
-7 -4 -4 -10z"/>
<path d="M6415 2080 c-3 -5 -1 -10 4 -10 6 0 11 5 11 10 0 6 -2 10 -4 10 -3 0
-8 -4 -11 -10z"/>
<path d="M6426 2048 c7 -11 34 -10 34 1 0 6 -9 9 -19 8 -11 0 -17 -5 -15 -9z"/>
<path d="M6407 1934 c6 -15 23 -19 23 -5 0 5 -7 11 -14 14 -10 4 -13 1 -9 -9z"/>
<path d="M6552 1860 c-7 -12 -17 -18 -22 -15 -4 3 -15 -2 -23 -10 -9 -8 -18
-15 -22 -15 -9 0 -35 -27 -30 -31 2 -2 -13 -4 -33 -3 -21 0 -56 -9 -80 -23
-24 -13 -47 -21 -51 -18 -10 5 -44 -29 -36 -37 5 -5 -13 -8 -49 -9 -11 0 -36
-13 -57 -29 -24 -19 -48 -30 -69 -30 -18 0 -38 -7 -44 -15 -6 -8 -26 -16 -44
-17 -19 -1 -36 -6 -39 -11 -3 -4 -16 -13 -30 -18 -20 -7 -23 -12 -14 -23 10
-12 9 -14 -6 -11 -10 1 -24 -2 -30 -8 -9 -6 -18 -6 -27 2 -11 9 -18 6 -35 -18
-13 -18 -17 -32 -11 -36 5 -3 10 1 10 11 0 13 3 14 14 5 11 -9 15 -8 22 6 6
14 9 11 14 -17 l7 -35 2 32 c1 23 5 31 15 27 8 -3 17 0 21 5 3 6 10 9 15 6 4
-3 13 2 20 10 7 8 21 15 31 15 11 0 19 5 19 10 0 6 6 10 13 8 6 -1 22 4 35 11
13 7 30 10 39 7 13 -5 13 -9 2 -24 -13 -15 -12 -16 3 -4 13 10 17 10 21 0 4
-9 6 -9 6 -1 1 6 -3 15 -9 18 -5 3 -10 11 -10 16 0 6 4 8 9 4 5 -3 12 -1 16 5
3 5 20 10 36 10 22 0 28 4 23 13 -6 9 -5 9 8 0 8 -7 18 -10 22 -6 4 4 11 1 16
-7 7 -11 10 -5 10 23 0 20 4 37 9 37 5 0 7 -13 6 -30 -3 -30 8 -40 21 -19 4 8
9 7 15 -2 6 -9 9 -10 9 -2 0 7 10 10 25 7 14 -2 25 0 25 6 0 5 -12 10 -26 10
-14 0 -23 4 -19 10 4 6 11 7 17 4 6 -4 8 -2 5 3 -4 6 0 17 9 24 12 10 15 10
12 -1 -6 -23 19 -21 51 5 20 17 31 22 31 13 0 -10 3 -9 10 2 5 8 10 11 10 6 0
-5 11 1 25 14 14 13 25 20 25 15 0 -4 9 0 20 10 11 10 20 23 20 29 0 6 11 16
25 23 14 6 23 7 19 2 -3 -5 2 -9 10 -10 49 -3 63 -2 74 5 6 4 12 4 12 0 0 -3
7 -1 15 6 11 9 15 9 15 1 0 -7 4 -10 9 -7 5 4 21 2 36 -4 23 -9 26 -8 21 6 -3
8 -6 18 -6 20 0 2 -6 4 -13 4 -7 0 -13 11 -12 27 0 23 -5 28 -25 29 -14 1 -28
-3 -31 -8 -3 -5 -17 -5 -33 2 -43 16 -80 12 -94 -10z"/>
<path d="M6790 1746 c6 -8 19 -12 27 -9 14 6 14 8 -3 14 -30 12 -37 10 -24 -5z"/>
<path d="M6735 1720 c-3 -5 1 -10 10 -10 9 0 13 5 10 10 -3 6 -8 10 -10 10 -2
0 -7 -4 -10 -10z"/>
<path d="M6680 1689 c0 -5 5 -7 10 -4 6 3 10 8 10 11 0 2 -4 4 -10 4 -5 0 -10
-5 -10 -11z"/>
<path d="M6400 1669 c0 -5 5 -7 10 -4 6 3 10 8 10 11 0 2 -4 4 -10 4 -5 0 -10
-5 -10 -11z"/>
<path d="M6620 1660 c0 -5 5 -10 11 -10 5 0 7 5 4 10 -3 6 -8 10 -11 10 -2 0
-4 -4 -4 -10z"/>
<path d="M6560 1629 c0 -5 5 -7 10 -4 6 3 10 8 10 11 0 2 -4 4 -10 4 -5 0 -10
-5 -10 -11z"/>
<path d="M3055 1600 c-3 -5 -1 -10 4 -10 6 0 11 5 11 10 0 6 -2 10 -4 10 -3 0
-8 -4 -11 -10z"/>
<path d="M6466 1598 c3 -4 9 -8 15 -8 5 0 9 4 9 8 0 5 -7 9 -15 9 -8 0 -12 -4
-9 -9z"/>
<path d="M6199 1563 c-13 -16 -12 -17 4 -4 16 13 21 21 13 21 -2 0 -10 -8 -17
-17z"/>
<path d="M6361 1523 c0 -11 3 -13 6 -5 2 6 10 9 15 6 7 -4 8 -2 4 4 -11 18
-26 14 -25 -5z"/>
<path d="M5717 1506 c-7 -17 20 -26 47 -16 14 4 16 9 8 14 -7 4 -12 5 -12 1 0
-3 -9 -1 -19 4 -14 8 -20 7 -24 -3z"/>
<path d="M5615 1465 c-22 -12 -43 -20 -47 -18 -5 2 -8 -8 -9 -24 0 -15 -3 -22
-6 -15 -6 15 -33 16 -33 1 0 -5 -4 -8 -9 -4 -6 3 -19 -5 -31 -17 -12 -13 -25
-23 -31 -23 -5 0 -10 -4 -10 -10 -3 -20 -35 -32 -76 -30 -37 2 -43 0 -43 -18
0 -11 7 -25 17 -32 9 -7 13 -17 9 -23 -9 -15 -41 -7 -40 10 1 8 -5 15 -12 15
-9 0 -10 -5 -3 -18 7 -15 6 -17 -6 -13 -8 4 -15 14 -15 24 0 17 -21 29 -57 36
-7 1 -13 -3 -13 -9 0 -5 -3 -8 -6 -4 -10 9 -34 -19 -34 -40 0 -15 -2 -16 -10
-3 -7 11 -10 11 -10 2 0 -7 -4 -11 -9 -8 -11 7 -43 -29 -34 -38 5 -4 1 -6 -7
-4 -11 2 -14 -4 -12 -22 l2 -25 -15 28 c-20 34 -59 37 -76 5 -19 -36 -37 -50
-42 -35 -3 9 -7 9 -18 1 -8 -6 -22 -10 -31 -9 -9 2 -22 -3 -29 -11 -6 -8 -15
-11 -20 -8 -5 3 -9 -2 -9 -10 0 -11 -9 -16 -26 -16 -22 0 -25 -2 -14 -15 9
-11 16 -12 25 -5 8 7 12 5 12 -5 0 -8 -4 -12 -9 -9 -4 3 -8 -2 -8 -10 0 -9 -4
-16 -10 -16 -18 0 1 -26 20 -27 14 -1 20 4 20 18 0 10 3 18 8 18 20 -3 31 2
26 15 -3 8 0 17 7 22 8 4 10 3 5 -4 -4 -7 -2 -12 3 -12 6 0 11 5 11 11 0 8 4
9 13 0 8 -6 17 -8 21 -4 4 4 11 1 16 -7 7 -11 10 -7 10 15 0 23 3 27 10 15 8
-12 10 -11 10 6 0 12 8 28 18 35 14 11 15 11 5 -1 -7 -8 -13 -21 -13 -29 0
-12 2 -12 18 0 36 30 60 39 65 26 4 -8 6 -8 6 2 1 10 4 11 15 2 10 -9 15 -8
20 4 3 8 1 15 -4 15 -15 0 -12 26 5 40 12 10 15 9 16 -6 0 -18 1 -18 8 0 7 18
8 18 25 -5 11 -14 16 -17 13 -6 -4 9 -2 17 3 17 6 0 10 -5 10 -11 0 -5 5 -7
10 -4 6 4 7 12 3 18 -5 8 -2 8 9 -1 12 -10 17 -10 27 1 6 8 9 16 6 18 -2 3 7
5 21 5 16 0 24 -5 23 -15 -3 -30 1 -41 13 -41 9 0 9 3 0 12 -9 9 -8 16 6 32
10 11 11 16 3 11 -10 -6 -12 -4 -6 5 6 10 11 9 21 -4 13 -19 34 -14 34 7 0 7
-4 6 -10 -3 -8 -13 -10 -12 -10 3 0 9 10 26 23 38 12 11 36 34 53 50 22 22 31
26 31 15 0 -9 -9 -18 -19 -22 -10 -3 -18 -12 -18 -20 0 -20 23 -13 33 10 5 14
10 16 21 7 11 -9 13 -4 11 29 -2 40 10 55 18 23 3 -13 5 -10 6 7 1 18 4 21 13
12 8 -8 15 -9 25 -1 10 9 13 8 13 -2 0 -12 2 -12 9 0 6 9 10 10 16 2 5 -9 10
-9 20 -1 15 13 9 43 -7 34 -6 -4 -4 4 3 17 l13 24 7 -25 7 -25 1 25 2 25 21
-25 c14 -16 19 -19 15 -7 -7 19 9 24 16 5 3 -7 6 -4 6 8 1 11 -7 28 -16 36
-16 13 -22 12 -58 -7z m-362 -212 c-7 -2 -13 -12 -13 -20 0 -9 -3 -14 -6 -10
-10 10 4 37 18 36 10 0 10 -2 1 -6z m-233 -71 c0 -5 -7 -9 -15 -9 -8 0 -12 4
-9 9 3 4 9 8 15 8 5 0 9 -4 9 -8z m25 -1 c3 -5 1 -12 -5 -16 -5 -3 -10 1 -10
9 0 18 6 21 15 7z"/>
<path d="M5880 1469 c0 -5 5 -7 10 -4 6 3 10 8 10 11 0 2 -4 4 -10 4 -5 0 -10
-5 -10 -11z"/>
<path d="M480 1451 c0 -18 18 -21 30 -6 10 13 9 15 -9 15 -11 0 -21 -4 -21 -9z"/>
<path d="M2960 1390 c0 -5 5 -10 10 -10 6 0 10 5 10 10 0 6 -4 10 -10 10 -5 0
-10 -4 -10 -10z"/>
<path d="M250 1375 c8 -11 23 -26 32 -33 14 -10 15 -16 5 -26 -6 -8 -15 -12
-19 -9 -5 2 -8 -3 -8 -11 0 -9 -8 -16 -17 -16 -13 0 -10 7 12 30 l29 30 -27 0
c-18 0 -27 5 -27 16 0 9 -6 14 -12 11 -14 -4 -19 -55 -7 -72 10 -15 9 -76 -1
-96 -10 -19 10 -45 25 -31 5 4 5 2 1 -5 -8 -15 11 -27 48 -27 22 -1 32 -7 34
-20 3 -11 0 -16 -7 -12 -19 12 -12 -17 9 -39 23 -25 75 -23 66 1 -3 7 6 22 19
33 14 10 25 22 25 26 0 4 -6 2 -14 -4 -11 -9 -19 -6 -36 16 -13 15 -20 21 -18
13 3 -8 -1 -23 -10 -32 -13 -16 -13 -17 7 -13 25 5 28 -16 6 -35 -12 -10 -15
-9 -15 4 0 10 -4 15 -9 11 -6 -3 -8 3 -6 14 4 23 -43 70 -67 66 -11 -2 -18 3
-18 11 0 9 -4 12 -10 9 -5 -3 -10 -1 -10 4 0 6 5 12 10 12 6 1 16 2 23 3 6 0
12 10 12 21 -1 12 -7 19 -15 17 -11 -3 -10 1 3 16 9 10 15 22 12 25 -3 4 -2 5
2 2 3 -3 15 2 25 12 11 9 18 11 18 5 0 -20 20 -13 28 8 8 20 8 20 29 -4 12
-13 18 -27 15 -31 -4 -4 -7 -12 -7 -18 0 -7 -4 -12 -10 -12 -5 0 -15 -4 -21
-8 -7 -4 -17 0 -24 8 -9 11 -16 12 -25 5 -10 -8 -15 -6 -18 7 -3 10 -4 6 -4
-9 1 -25 3 -26 18 -12 11 10 19 12 24 5 3 -6 -1 -14 -9 -17 -22 -8 -20 -23 2
-19 9 1 16 7 15 12 -1 5 15 9 35 10 35 1 35 1 7 -6 -20 -4 -26 -9 -17 -14 7
-5 9 -13 5 -20 -4 -7 -9 -4 -13 7 -5 16 -8 16 -18 3 -10 -11 -9 -17 1 -26 11
-9 24 -1 61 35 26 27 46 40 46 32 0 -8 6 -15 13 -15 9 0 14 12 14 32 0 27 -3
31 -20 27 -17 -4 -19 -1 -14 17 4 18 3 20 -9 11 -10 -9 -11 -17 -3 -32 8 -16
7 -24 -4 -35 -10 -10 -17 -11 -21 -4 -4 6 -2 11 3 11 16 0 13 36 -4 50 -14 12
-14 15 1 31 8 9 23 16 32 14 12 -2 17 4 17 20 0 21 -2 22 -16 9 -14 -12 -18
-13 -22 -2 -4 10 -6 10 -6 -1 -1 -11 -4 -11 -18 0 -9 8 -14 9 -10 2 4 -6 1
-14 -5 -16 -7 -3 -3 -6 10 -6 19 -1 21 -3 10 -15 -8 -9 -15 -10 -19 -4 -9 14
-29 1 -29 -19 0 -13 -5 -12 -24 7 -22 20 -23 24 -10 37 13 13 11 33 -2 33 -3
0 -3 -4 1 -9 3 -5 1 -12 -5 -16 -5 -3 -10 1 -10 11 0 12 -3 14 -13 5 -10 -8
-17 -7 -27 2 -11 9 -10 7 0 -8z m-13 -127 c-3 -8 -6 -5 -6 6 -1 11 2 17 5 13
3 -3 4 -12 1 -19z m223 6 c0 -8 -5 -12 -10 -9 -6 4 -8 11 -5 16 9 14 15 11 15
-7z"/>
<path d="M5520 1350 c0 -5 7 -7 15 -4 8 4 15 8 15 10 0 2 -7 4 -15 4 -8 0 -15
-4 -15 -10z"/>
<path d="M5720 1329 c0 -5 5 -7 10 -4 6 3 10 8 10 11 0 2 -4 4 -10 4 -5 0 -10
-5 -10 -11z"/>
<path d="M294 1279 c-3 -5 -4 -9 -2 -10 25 -6 39 -6 43 1 3 4 -4 10 -15 13
-11 3 -23 1 -26 -4z"/>
<path d="M6980 1269 c0 -5 5 -7 10 -4 6 3 10 8 10 11 0 2 -4 4 -10 4 -5 0 -10
-5 -10 -11z"/>
<path d="M490 1240 c-12 -8 -10 -10 8 -10 13 0 20 4 17 10 -7 12 -6 12 -25 0z"/>
<path d="M2681 1194 c0 -11 3 -14 6 -6 3 7 2 16 -1 19 -3 4 -6 -2 -5 -13z"/>
<path d="M259 1187 c8 -9 16 -15 19 -12 3 3 11 0 19 -6 7 -6 13 -10 14 -8 0 2
2 11 4 19 1 10 -5 16 -16 17 -11 1 -19 -3 -19 -9 0 -6 -7 -5 -17 3 -16 13 -17
12 -4 -4z"/>
<path d="M5160 1146 c7 -9 17 -13 24 -9 6 4 19 6 30 4 10 -1 16 1 13 6 -3 5
-22 10 -43 11 -32 3 -36 1 -24 -12z"/>
<path d="M5240 1150 c0 -5 5 -10 10 -10 6 0 10 5 10 10 0 6 -4 10 -10 10 -5 0
-10 -4 -10 -10z"/>
<path d="M440 1106 c0 -17 -7 -29 -19 -34 -19 -7 -19 -8 -2 -31 12 -16 21 -20
25 -12 4 6 2 11 -3 11 -16 0 -13 26 3 39 14 12 16 35 3 47 -4 4 -7 -5 -7 -20z"/>
<path d="M530 1115 c-11 -13 -10 -14 4 -9 9 3 16 10 16 15 0 13 -6 11 -20 -6z"/>
<path d="M5024 1088 c-4 -7 -4 -10 1 -6 4 4 14 3 22 -4 11 -8 12 -7 7 6 -7 19
-20 21 -30 4z"/>
<path d="M6890 1090 c0 -5 4 -10 9 -10 6 0 13 5 16 10 3 6 -1 10 -9 10 -9 0
-16 -4 -16 -10z"/>
<path d="M4725 1071 c-3 -6 -12 -8 -20 -5 -8 4 -18 -1 -21 -10 -4 -10 -18 -16
-35 -16 -30 0 -60 -13 -94 -42 -11 -9 -24 -17 -30 -18 -5 0 -19 -8 -30 -18
-11 -9 -40 -18 -64 -19 -25 -2 -48 -8 -51 -14 -4 -6 -10 -10 -14 -10 -24 3
-36 -1 -36 -13 0 -8 -5 -18 -12 -22 -6 -4 -8 -3 -4 4 3 6 2 13 -4 17 -5 3 -10
0 -10 -7 0 -9 -10 -13 -30 -12 -17 1 -37 -5 -45 -13 -8 -8 -15 -11 -15 -7 0 3
-6 2 -13 -5 -10 -8 -17 -7 -25 1 -7 7 -12 8 -12 3 0 -6 -5 -3 -10 5 -7 11 -10
11 -10 2 0 -7 -4 -11 -8 -8 -4 2 -14 0 -22 -5 -12 -8 -12 -12 -2 -16 6 -2 12
-9 12 -15 0 -7 -5 -6 -14 1 -10 8 -16 9 -21 1 -3 -6 -11 -8 -16 -5 -5 4 -9 1
-9 -5 0 -7 -6 -8 -19 -1 -14 8 -22 7 -31 -4 -7 -8 -16 -13 -20 -10 -5 3 -15
-4 -23 -16 -11 -15 -16 -17 -20 -7 -3 8 -6 6 -6 -6 -1 -14 -4 -16 -15 -7 -10
8 -16 8 -25 -2 -6 -8 -9 -16 -6 -19 3 -2 -2 -5 -10 -5 -8 0 -15 4 -15 9 0 4
-6 8 -14 8 -21 0 -27 -27 -8 -42 11 -9 14 -9 8 -1 -5 9 -2 11 10 6 11 -4 13
-8 6 -11 -7 -2 -12 -10 -12 -18 0 -20 -30 -17 -31 4 0 10 -3 12 -6 4 -2 -6 -9
-10 -14 -6 -5 3 -9 1 -9 -3 0 -9 -48 -16 -110 -15 -19 0 -40 -4 -47 -10 -17
-14 -5 -38 20 -38 50 0 57 -3 45 -17 -6 -7 -8 -16 -4 -20 3 -3 6 -1 6 6 0 7 4
9 10 6 11 -7 1 -67 -13 -76 -12 -8 23 -58 41 -59 6 0 12 -6 12 -14 0 -9 7 -13
20 -11 11 2 20 0 20 -5 0 -5 7 -7 15 -4 18 7 37 -4 29 -18 -4 -6 -10 -5 -15 3
-7 11 -9 11 -9 -2 0 -8 5 -20 10 -25 7 -7 6 -11 -5 -12 -8 -1 -21 -3 -29 -4
-8 -1 -12 -6 -10 -13 8 -20 -33 -47 -70 -47 -20 0 -39 -4 -42 -9 -4 -6 -11 -6
-19 1 -9 8 -14 6 -19 -5 -4 -11 1 -15 20 -15 14 0 22 -4 19 -10 -5 -8 19 -15
28 -7 2 1 11 -6 21 -16 16 -16 42 -15 32 2 -3 4 7 8 22 9 21 1 24 0 12 -8 -8
-5 -10 -10 -5 -11 6 0 19 -3 30 -5 11 -2 46 -7 78 -10 48 -5 57 -4 57 10 0 23
175 24 184 1 4 -11 20 -15 54 -15 32 0 54 -5 62 -15 7 -8 21 -15 31 -15 20 0
59 -33 59 -50 0 -5 18 -10 41 -10 32 0 47 -6 71 -30 16 -17 35 -30 42 -30 6 0
30 -18 51 -40 34 -34 45 -40 82 -40 44 0 46 1 46 55 0 43 -4 55 -18 55 -8 0
-15 7 -15 15 0 20 20 19 34 -1 10 -13 39 -16 169 -17 144 -2 157 -1 157 16 0
9 -6 17 -14 17 -8 0 -16 5 -18 11 -2 6 -21 13 -43 16 -26 3 -47 15 -64 34 -14
16 -35 29 -47 29 -12 0 -24 6 -27 13 -3 9 -20 13 -50 11 -36 -2 -51 2 -71 21
-29 27 -33 45 -11 45 8 0 15 7 15 16 0 11 -7 14 -27 11 -43 -7 -76 9 -70 33 3
11 1 20 -4 20 -5 0 -9 -4 -9 -8 0 -5 -7 -9 -15 -9 -8 0 -13 3 -10 5 3 3 0 11
-6 18 -16 19 -2 33 26 28 17 -3 25 0 25 10 0 19 43 26 138 23 l72 -2 -1 35 c0
19 -3 30 -5 23 -3 -7 -12 -9 -20 -6 -7 3 -29 -4 -49 -15 -19 -12 -37 -17 -39
-13 -9 15 -93 12 -99 -3 -3 -8 -14 -12 -24 -10 -10 3 -27 -2 -38 -9 -17 -13
-18 -18 -6 -43 9 -20 9 -30 2 -32 -6 -2 -11 -8 -11 -13 0 -6 5 -7 12 -3 6 4 8
3 5 -3 -4 -6 -18 -13 -32 -15 -25 -5 -25 -5 -8 14 16 17 16 18 0 12 -9 -3 -17
-9 -18 -13 -7 -62 -26 -71 -31 -14 -2 26 -5 30 -19 23 -9 -5 -19 -6 -23 -2 -4
3 -4 -1 -1 -10 4 -9 1 -19 -6 -24 -8 -4 -10 -3 -5 4 4 7 2 12 -3 12 -6 0 -11
-5 -11 -11 0 -8 -4 -8 -13 0 -10 8 -17 7 -25 -1 -9 -9 -12 -8 -12 7 0 18 -1
18 -17 2 -16 -15 -16 -19 -3 -27 13 -8 13 -11 1 -22 -8 -7 -11 -8 -9 -3 3 6
-1 16 -10 24 -13 13 -14 12 -9 -12 4 -15 2 -29 -5 -33 -6 -4 -8 -3 -5 3 4 6
-2 21 -13 33 -24 28 -25 34 -4 51 14 11 18 11 29 -4 11 -16 13 -16 29 1 9 10
16 23 16 29 0 12 31 14 45 2 6 -4 18 -2 28 6 17 12 17 13 0 20 -29 13 -97 15
-111 3 -7 -6 -15 -8 -19 -5 -3 4 -12 2 -19 -3 -11 -10 -98 -14 -137 -7 -22 4
-48 52 -40 72 3 9 -1 15 -11 15 -15 0 -21 17 -17 48 1 6 -2 12 -7 12 -5 0 -12
9 -15 21 -4 14 -10 18 -19 14 -7 -4 1 6 17 22 19 19 33 26 37 19 4 -7 16 -2
33 14 24 22 24 25 8 32 -10 4 9 5 42 3 56 -3 62 -1 92 28 18 17 35 28 39 24 9
-9 32 16 27 30 -3 7 -9 11 -13 8 -5 -3 -12 -1 -15 5 -5 8 -11 8 -20 0 -9 -8
-14 -6 -19 5 -3 9 -2 13 4 10 6 -3 10 -1 10 5 0 6 5 8 10 5 6 -4 10 6 10 22 0
21 3 24 9 13 6 -8 8 -17 6 -20 -2 -4 2 -7 9 -7 8 0 12 6 9 13 -2 6 1 15 8 20
7 4 10 3 6 -2 -3 -6 -2 -16 4 -24 6 -10 9 -11 9 -2 0 6 7 12 15 12 9 0 23 13
32 28 9 15 27 33 40 39 12 6 21 8 18 3 -3 -4 2 -13 10 -20 12 -10 19 -8 36 11
11 13 18 18 14 12 -3 -7 -1 -13 4 -13 6 0 11 9 11 19 0 15 6 19 31 17 23 -2
39 5 57 23 13 14 22 21 19 16 -3 -6 -2 -17 4 -25 7 -12 9 -10 9 8 0 16 4 21
13 15 38 -24 62 -6 32 24 -9 8 -14 18 -11 20 3 3 13 -3 23 -12 21 -22 31 -2
11 23 -11 15 -11 15 3 5 12 -10 18 -10 27 -1 9 9 12 9 12 0 0 -7 -4 -12 -9
-12 -5 0 -11 -14 -13 -31 l-5 -31 33 36 c35 38 49 44 57 24 3 -7 6 -1 6 15 1
15 6 27 11 27 6 0 10 4 10 8 0 5 -7 9 -15 9 -8 0 -15 -6 -15 -12 0 -6 -7 -12
-15 -12 -8 0 -15 6 -15 13 0 17 -17 27 -25 15z m-365 -191 c0 -5 -2 -10 -4
-10 -3 0 -8 5 -11 10 -3 6 -1 10 4 10 6 0 11 -4 11 -10z m-120 -50 c0 -5 -2
-10 -4 -10 -3 0 -8 5 -11 10 -3 6 -1 10 4 10 6 0 11 -4 11 -10z m-84 -33 c4
-3 3 -11 -1 -17 -5 -8 -10 -8 -20 0 -8 7 -15 7 -19 1 -8 -13 -46 -2 -46 14 0
9 13 12 40 10 23 -1 43 -5 46 -8z m47 -35 c-4 -18 -9 -20 -24 -11 -22 12 -26
34 -4 25 11 -4 15 1 15 17 1 18 2 19 10 6 5 -8 7 -25 3 -37z m-158 14 c15 6
28 -23 15 -31 -6 -4 -10 -2 -10 4 0 7 -8 7 -25 -1 -14 -6 -25 -17 -25 -25 0
-7 -4 -13 -9 -13 -4 0 -8 13 -7 29 1 22 4 27 14 19 9 -8 12 -5 12 13 0 17 3
20 11 12 6 -6 17 -9 24 -7z m-116 -53 c12 9 13 9 7 0 -4 -7 -3 -13 3 -13 5 0
11 5 13 12 3 8 7 8 11 2 3 -6 -3 -18 -13 -27 -17 -15 -21 -15 -35 -1 -13 14
-19 11 -17 -7 1 -3 -6 -6 -14 -6 -12 0 -12 3 1 17 8 9 13 19 12 22 -2 3 1 2 6
-3 6 -5 17 -3 26 4z m-118 -117 c7 4 9 3 6 -2 -3 -6 -2 -16 4 -24 6 -10 9 -11
9 -2 0 6 5 12 10 12 6 0 10 -7 10 -15 0 -12 -10 -15 -40 -13 -42 2 -47 7 -28
26 9 9 9 12 0 12 -7 0 -12 5 -12 11 0 8 4 8 15 -1 8 -6 20 -8 26 -4z m180 -93
c8 -9 8 -13 0 -13 -6 0 -11 -5 -11 -11 0 -5 5 -7 10 -4 6 3 10 -1 10 -10 0 -9
4 -14 9 -11 13 8 7 -22 -6 -35 -6 -6 -9 -19 -5 -28 5 -14 3 -14 -10 -3 -19 15
-31 2 -22 -22 3 -9 1 -16 -5 -16 -6 0 -11 5 -11 10 0 6 -13 10 -30 10 -20 0
-30 5 -30 15 0 8 -7 15 -15 15 -9 0 -15 9 -15 24 0 14 -5 28 -10 31 -8 5 -7
11 1 21 6 8 8 14 5 14 -4 0 -1 6 6 14 17 19 114 18 129 -1z m9 -161 c0 -10 -7
-19 -14 -19 -11 0 -13 5 -5 19 5 10 12 18 14 18 3 0 5 -8 5 -18z m205 -40 c8
-22 0 -25 -18 -7 -19 19 -31 20 -24 1 4 -9 0 -13 -11 -12 -9 2 -18 10 -20 18
-4 20 65 21 73 0z m-325 -24 c0 -12 -3 -18 -6 -15 -4 3 -15 2 -25 -4 -27 -14
-24 5 4 24 28 20 27 21 27 -5z"/>
<path d="M6775 1060 c-3 -5 -1 -10 4 -10 6 0 11 5 11 10 0 6 -2 10 -4 10 -3 0
-8 -4 -11 -10z"/>
<path d="M4880 1029 c0 -5 5 -7 10 -4 6 3 10 8 10 11 0 2 -4 4 -10 4 -5 0 -10
-5 -10 -11z"/>
<path d="M6413 965 c0 -8 4 -12 9 -9 4 3 8 9 8 15 0 5 -4 9 -8 9 -5 0 -9 -7
-9 -15z"/>
<path d="M2681 944 c0 -11 3 -14 6 -6 3 7 2 16 -1 19 -3 4 -6 -2 -5 -13z"/>
<path d="M6380 940 c0 -5 5 -10 11 -10 5 0 7 5 4 10 -3 6 -8 10 -11 10 -2 0
-4 -4 -4 -10z"/>
<path d="M306 931 c-4 -5 -2 -12 4 -16 6 -4 8 -11 5 -16 -3 -5 1 -6 9 -3 20 8
20 18 2 33 -9 8 -16 8 -20 2z"/>
<path d="M6613 905 c0 -10 4 -12 12 -5 7 5 16 6 20 2 5 -4 5 -1 1 6 -10 17
-33 15 -33 -3z"/>
<path d="M6968 913 c6 -2 10 -9 6 -14 -9 -15 2 -10 16 6 10 13 9 15 -11 14
-13 0 -18 -3 -11 -6z"/>
<path d="M475 881 c-15 -17 -15 -19 -1 -17 22 3 40 22 28 30 -5 3 -17 -3 -27
-13z"/>
<path d="M2760 885 c-7 -9 -8 -15 -2 -15 5 0 12 7 16 15 3 8 4 15 2 15 -2 0
-9 -7 -16 -15z"/>
<path d="M530 875 c-11 -13 -10 -14 4 -9 9 3 16 10 16 15 0 13 -6 11 -20 -6z"/>
<path d="M2720 874 c0 -8 5 -12 10 -9 6 4 8 11 5 16 -9 14 -15 11 -15 -7z"/>
<path d="M2875 880 c-3 -5 -1 -10 4 -10 6 0 11 5 11 10 0 6 -2 10 -4 10 -3 0
-8 -4 -11 -10z"/>
<path d="M6852 881 c-10 -6 -7 -10 12 -13 21 -4 24 -3 15 8 -13 16 -11 16 -27
5z"/>
<path d="M7014 882 c-14 -10 -16 -60 -3 -68 16 -9 28 15 22 45 -5 31 -6 32
-19 23z"/>
<path d="M316 863 c-6 -14 -5 -15 5 -6 7 7 10 15 7 18 -3 3 -9 -2 -12 -12z"/>
<path d="M608 873 c7 -3 16 -2 19 1 4 3 -2 6 -13 5 -11 0 -14 -3 -6 -6z"/>
<path d="M2815 850 c3 -5 8 -10 11 -10 2 0 4 5 4 10 0 6 -5 10 -11 10 -5 0 -7
-4 -4 -10z"/>
<path d="M305 830 c-9 -15 -1 -23 21 -18 15 3 16 4 1 16 -11 9 -17 10 -22 2z"/>
<path d="M401 832 c-1 -7 -5 -10 -11 -7 -5 3 -10 1 -10 -4 0 -6 5 -11 11 -11
6 0 3 -7 -5 -16 -27 -26 -18 -29 10 -3 28 26 33 27 45 7 7 -10 9 -10 9 0 0 7
5 10 10 7 6 -3 10 4 10 17 0 17 -3 19 -9 9 -6 -9 -10 -10 -16 -2 -5 9 -10 9
-20 1 -10 -8 -14 -7 -18 2 -4 11 -6 10 -6 0z"/>
<path d="M522 820 c0 -14 2 -19 5 -12 2 6 2 18 0 25 -3 6 -5 1 -5 -13z"/>
<path d="M6975 792 c-15 -11 -14 -39 1 -39 16 0 28 27 17 38 -5 5 -13 5 -18 1z"/>
<path d="M6942 770 c0 -14 2 -19 5 -12 2 6 2 18 0 25 -3 6 -5 1 -5 -13z"/>
<path d="M415 760 c-16 -17 -16 -20 -3 -15 9 4 19 13 22 21 7 19 2 18 -19 -6z"/>
<path d="M494 771 c4 -5 0 -11 -6 -13 -7 -3 0 -7 15 -10 27 -5 27 -5 11 13
-18 20 -29 25 -20 10z"/>
<path d="M6778 766 c-18 -13 -25 -32 -9 -22 5 4 11 0 13 -6 3 -7 7 -1 10 15 3
15 5 27 4 27 0 0 -9 -7 -18 -14z"/>
<path d="M6857 764 c7 -19 55 -15 61 6 3 12 2 12 -8 3 -8 -8 -20 -9 -36 -3
-19 7 -22 6 -17 -6z"/>
<path d="M2775 760 c-3 -5 1 -10 9 -10 9 0 16 5 16 10 0 6 -4 10 -9 10 -6 0
-13 -4 -16 -10z"/>
<path d="M6140 763 c0 -6 6 -13 13 -15 16 -7 37 1 37 14 0 7 -4 7 -13 -1 -10
-8 -17 -7 -25 1 -8 8 -12 9 -12 1z"/>
<path d="M6200 761 c0 -5 7 -12 16 -15 14 -5 15 -4 4 9 -14 17 -20 19 -20 6z"/>
<path d="M6720 749 c0 -5 5 -7 10 -4 6 3 10 8 10 11 0 2 -4 4 -10 4 -5 0 -10
-5 -10 -11z"/>
<path d="M6330 740 c-13 -8 -13 -11 3 -27 16 -17 17 -16 15 10 -1 15 -3 27 -3
27 0 0 -7 -5 -15 -10z"/>
<path d="M6815 727 c-6 -12 -17 -22 -25 -22 -8 -1 -14 -7 -12 -13 2 -10 -3
-10 -17 -3 -10 6 -22 7 -26 3 -5 -4 -5 1 -2 11 5 13 3 16 -6 10 -6 -4 -20 -6
-29 -5 -10 2 -18 -2 -18 -7 0 -6 4 -11 9 -11 5 0 11 -12 13 -27 3 -27 6 -28
58 -29 59 -2 70 5 70 47 0 14 5 30 10 35 8 8 7 14 -2 22 -11 8 -16 6 -23 -11z"/>
<path d="M6376 724 c-5 -14 -4 -15 9 -4 13 11 15 9 15 -10 0 -13 -8 -33 -17
-44 -13 -15 -9 -14 11 4 16 14 26 20 23 14 -9 -16 16 -35 32 -25 8 5 11 13 7
19 -3 6 -2 13 4 17 5 3 10 13 10 22 0 13 -3 13 -15 3 -8 -7 -15 -20 -16 -29 0
-12 -2 -13 -6 -2 -7 18 -36 51 -44 51 -4 0 -10 -7 -13 -16z"/>
<path d="M6427 723 c3 -7 6 -13 8 -13 2 0 5 6 8 13 3 8 -1 14 -8 14 -7 0 -11
-6 -8 -14z"/>
<path d="M6926 732 c-3 -5 1 -9 9 -9 8 0 15 4 15 9 0 4 -4 8 -9 8 -6 0 -12 -4
-15 -8z"/>
<path d="M337 715 c-4 -8 -2 -17 3 -20 6 -4 10 3 10 14 0 25 -6 27 -13 6z"/>
<path d="M6570 715 c-12 -14 -12 -18 1 -26 8 -5 9 -9 3 -9 -7 0 -15 -8 -18
-17 -6 -14 -2 -13 16 4 19 17 25 19 35 8 6 -7 9 -17 5 -21 -4 -5 2 -2 12 6 13
10 17 10 12 3 -4 -7 -2 -13 3 -13 6 0 11 9 11 21 0 13 -4 18 -12 13 -9 -5 -8
-2 1 9 8 10 11 20 7 24 -3 3 -6 1 -6 -7 0 -10 -3 -10 -14 -1 -11 9 -16 9 -22
0 -5 -9 -9 -8 -14 5 -6 17 -7 17 -20 1z"/>
<path d="M6240 705 c-7 -8 -11 -15 -9 -16 31 -6 39 -6 39 2 0 5 -5 9 -11 9 -5
0 -7 5 -4 10 9 15 -1 12 -15 -5z"/>
<path d="M6051 697 c-8 -10 -7 -14 4 -14 8 0 15 6 15 14 0 7 -2 13 -4 13 -2 0
-9 -6 -15 -13z"/>
<path d="M6140 701 c0 -5 7 -12 16 -15 14 -5 15 -4 4 9 -14 17 -20 19 -20 6z"/>
<path d="M6529 694 c-8 -10 -23 -14 -41 -12 -27 4 -27 4 -11 -14 19 -21 27
-24 17 -5 -6 10 -4 10 7 0 19 -18 30 -16 27 5 -2 9 3 16 10 15 6 -2 12 4 12
12 0 19 -4 19 -21 -1z"/>
<path d="M6282 645 c0 -16 2 -22 5 -12 2 9 2 23 0 30 -3 6 -5 -1 -5 -18z"/>
<path d="M6640 630 c-33 -29 -57 -34 -53 -13 1 6 -9 8 -22 5 -21 -4 -22 -7
-13 -28 12 -27 52 -33 65 -10 11 19 34 25 60 15 31 -11 41 9 14 27 -12 9 -19
20 -16 25 10 15 2 10 -35 -21z m37 -6 c-3 -3 -12 -4 -19 -1 -8 3 -5 6 6 6 11
1 17 -2 13 -5z"/>
<path d="M395 641 c-3 -5 -1 -12 5 -16 5 -3 10 1 10 9 0 18 -6 21 -15 7z"/>
<path d="M3605 640 c-7 -12 2 -30 16 -30 12 0 12 27 0 35 -5 3 -12 1 -16 -5z"/>
<path d="M5751 636 c-10 -11 -9 -14 1 -12 14 2 23 15 15 22 -2 2 -10 -2 -16
-10z"/>
<path d="M5640 623 c0 -10 4 -14 8 -8 4 6 11 13 16 18 5 4 2 7 -7 7 -10 0 -17
-8 -17 -17z"/>
<path d="M5880 629 c0 -5 5 -7 10 -4 6 3 10 8 10 11 0 2 -4 4 -10 4 -5 0 -10
-5 -10 -11z"/>
<path d="M6120 631 c0 -5 3 -17 6 -26 5 -13 8 -14 15 -3 13 20 11 38 -6 38 -8
0 -15 -4 -15 -9z"/>
<path d="M6395 627 c-22 -24 -27 -38 -14 -35 7 2 14 -5 16 -14 3 -12 -1 -15
-16 -11 -15 4 -21 1 -21 -11 0 -11 8 -15 24 -14 18 2 25 9 28 30 3 15 1 28 -4
28 -5 0 -6 9 -3 20 7 23 5 25 -10 7z"/>
<path d="M5786 614 c-17 -17 -21 -28 -7 -20 5 3 14 -1 22 -10 10 -13 9 -16 -9
-21 -28 -7 -29 -23 -2 -23 11 0 20 7 20 16 0 8 4 13 9 10 5 -3 11 4 14 16 6
21 7 21 27 3 11 -10 18 -20 15 -23 -3 -3 1 -12 7 -21 10 -12 8 -12 -8 2 -25
21 -38 22 -30 1 3 -8 2 -12 -4 -9 -5 3 -13 -2 -19 -12 -8 -17 -4 -18 57 -15
49 2 69 8 76 19 8 15 10 15 20 1 7 -10 30 -17 61 -18 71 -4 75 -2 75 21 0 18
-3 19 -14 10 -19 -16 -58 20 -50 46 5 14 4 15 -4 4 -7 -9 -11 -10 -17 -2 -5 9
-10 9 -21 0 -11 -9 -14 -8 -14 6 0 14 -3 15 -15 5 -8 -7 -15 -18 -15 -24 0 -6
4 -5 9 3 6 9 11 10 15 3 8 -13 -28 -35 -38 -24 -4 3 -4 -2 0 -13 7 -17 5 -18
-7 -8 -12 10 -18 10 -28 0 -10 -10 -11 -6 -6 16 7 26 0 33 -27 28 -5 0 -8 5
-8 13 0 23 -25 26 -39 4 -10 -16 -15 -17 -27 -7 -11 9 -12 15 -3 25 16 19 4
18 -15 -2z m231 -39 c-4 -8 -2 -17 3 -20 4 -3 11 1 13 7 4 9 6 7 6 -3 1 -9 -6
-22 -14 -29 -13 -11 -14 -10 -10 3 4 8 2 18 -4 22 -6 3 -11 1 -11 -4 0 -6 -8
-11 -17 -11 -15 0 -13 4 7 24 29 29 34 31 27 11z"/>
<path d="M6447 618 c-16 -12 -16 -14 3 -26 18 -11 20 -10 18 13 -1 14 -3 25
-3 25 -1 0 -9 -6 -18 -12z"/>
<path d="M6487 603 c3 -7 6 -13 8 -13 2 0 5 6 8 13 3 8 -1 14 -8 14 -7 0 -11
-6 -8 -14z"/>
<path d="M435 601 c-3 -5 -2 -12 3 -15 5 -3 9 1 9 9 0 17 -3 19 -12 6z"/>
<path d="M3562 583 c-23 -34 -19 -61 6 -41 10 7 6 1 -6 -14 -20 -22 -22 -30
-13 -47 8 -14 8 -21 1 -21 -5 0 -10 -3 -10 -7 0 -5 11 -8 25 -8 25 0 25 1 25
83 0 45 -2 82 -4 82 -3 0 -13 -12 -24 -27z"/>
<path d="M5732 598 c-16 -16 -15 -25 4 -32 14 -5 15 -4 5 8 -9 11 -9 15 1 19
7 2 10 7 7 10 -3 4 -11 1 -17 -5z"/>
<path d="M5645 590 c-4 -6 -11 -8 -16 -5 -5 4 -9 -1 -9 -10 0 -9 4 -14 9 -11
5 4 12 0 14 -6 4 -10 6 -10 6 0 1 7 6 10 11 7 6 -3 10 -1 10 4 0 6 -5 11 -11
11 -5 0 -7 5 -4 10 3 6 4 10 1 10 -3 0 -8 -5 -11 -10z"/>
<path d="M6220 588 c0 -20 26 -24 33 -5 4 10 6 10 6 0 1 -20 91 -17 91 3 0 11
-6 14 -21 9 -37 -12 -54 -13 -66 -3 -7 6 -14 5 -18 -3 -6 -8 -10 -7 -16 2 -7
11 -9 10 -9 -3z"/>
<path d="M6520 584 c0 -8 -5 -12 -10 -9 -6 4 -16 2 -23 -3 -13 -11 -16 -12
-49 -12 -35 0 -8 -17 40 -24 35 -5 44 -3 49 11 4 10 11 21 16 24 11 8 1 29
-14 29 -5 0 -9 -7 -9 -16z"/>
<path d="M377 563 c5 -12 3 -14 -7 -8 -8 5 -11 4 -7 -1 8 -13 67 -17 67 -4 0
5 -9 10 -20 10 -11 0 -20 5 -20 10 0 6 -4 10 -10 10 -5 0 -6 -7 -3 -17z"/>
<path d="M5701 564 c0 -11 3 -14 6 -6 3 7 2 16 -1 19 -3 4 -6 -2 -5 -13z"/>
<path d="M6148 562 c-29 -6 -21 -19 12 -20 17 0 30 3 30 8 0 11 -21 17 -42 12z"/>
<path d="M5671 537 c-15 -15 -34 -16 -43 -2 -5 6 -8 3 -8 -6 0 -13 13 -18 58
-22 31 -2 61 -1 66 4 13 12 3 20 -25 22 -13 0 -27 5 -30 9 -3 4 -11 2 -18 -5z"/>
<path d="M5520 509 c0 -5 -4 -7 -10 -4 -5 3 -10 -1 -10 -11 0 -12 7 -15 29
-12 17 2 28 1 25 -4 -3 -5 7 -7 23 -6 22 1 28 7 28 25 0 18 -4 23 -17 19 -57
-18 -61 -19 -54 -8 4 7 2 12 -3 12 -6 0 -11 -5 -11 -11z"/>
<path d="M5135 502 c-6 -4 -12 -17 -12 -29 -2 -27 33 -32 51 -8 6 9 24 17 40
18 48 4 40 23 -9 23 -34 0 -44 -4 -40 -14 3 -8 2 -19 -2 -25 -5 -7 -10 -1 -13
15 -3 16 -9 25 -15 20z"/>
<path d="M5441 494 c0 -11 3 -14 6 -6 3 7 2 16 -1 19 -3 4 -6 -2 -5 -13z"/>
<path d="M5256 484 c-8 -21 1 -34 25 -34 24 0 25 22 0 37 -16 10 -20 9 -25 -3z"/>
<path d="M5466 488 c3 -5 10 -6 15 -3 13 9 11 12 -6 12 -8 0 -12 -4 -9 -9z"/>
<path d="M5320 471 c0 -12 6 -21 15 -21 8 0 15 4 15 9 0 5 -7 14 -15 21 -13
10 -15 9 -15 -9z"/>
<path d="M4985 471 c-3 -6 -14 -8 -25 -6 -11 2 -20 -1 -20 -7 0 -5 7 -8 15 -5
8 4 17 2 20 -4 4 -5 3 -9 -2 -8 -17 3 -33 -1 -33 -9 0 -4 27 -8 61 -9 50 -2
60 0 55 13 -3 8 -2 12 3 9 5 -3 12 -1 16 4 3 6 12 8 20 4 8 -3 15 0 15 7 0 6
-4 8 -10 5 -5 -3 -10 -2 -10 3 0 7 -33 8 -50 2 -3 -1 -8 -2 -12 -1 -5 0 -8 -6
-8 -14 0 -8 -7 -15 -16 -15 -11 0 -15 6 -11 20 5 21 2 26 -8 11z"/>
<path d="M5365 470 c-3 -5 0 -16 6 -23 11 -11 16 -11 31 2 10 8 18 19 18 23 0
12 -48 10 -55 -2z"/>
<path d="M4840 459 c0 -6 -4 -8 -9 -5 -4 3 -16 -1 -27 -8 -10 -8 -24 -12 -31
-9 -7 3 -13 1 -13 -4 0 -11 50 -11 68 0 6 5 12 4 12 -1 0 -5 7 -9 15 -9 8 0
15 6 15 14 0 7 1 16 3 20 1 3 -6 7 -15 9 -10 1 -18 -2 -18 -7z"/>
<path d="M4890 440 c-8 -5 -12 -12 -9 -15 4 -3 12 1 19 10 14 17 11 19 -10 5z"/>
<path d="M4661 424 c0 -11 3 -14 6 -6 3 7 2 16 -1 19 -3 4 -6 -2 -5 -13z"/>
<path d="M4692 428 c-14 -14 -16 -42 -3 -34 7 5 23 46 17 46 -1 0 -7 -5 -14
-12z"/>
<path d="M4600 408 c0 -22 26 -24 34 -2 3 9 6 17 6 18 0 1 -9 2 -20 2 -13 0
-20 -7 -20 -18z"/>
<path d="M3572 377 c-7 -8 -6 -19 3 -37 14 -25 14 -25 15 13 0 40 -2 43 -18
24z"/>
<path d="M3605 310 c3 -5 8 -10 11 -10 2 0 4 5 4 10 0 6 -5 10 -11 10 -5 0 -7
-4 -4 -10z"/>
</g>
</svg>
