<?xml version="1.0" standalone="no"?>
<!DOCTYPE svg PUBLIC "-//W3C//DTD SVG 20010904//EN"
 "http://www.w3.org/TR/2001/REC-SVG-20010904/DTD/svg10.dtd">
<svg version="1.0" xmlns="http://www.w3.org/2000/svg"
 width="468pt" height="112pt" viewBox="0 0 468 112"
 preserveAspectRatio="xMidYMid meet">
<metadata>
Created by potrace 1.8, written by Peter Selinger 2001-2007
</metadata>
<g transform="translate(0,112) scale(0.108585,-0.108585)"
fill="#000000" stroke="none">
<path d="M386 886 c3 -8 17 -17 31 -21 l26 -6 -22 -23 c-25 -27 -28 -44 -3
-25 15 12 16 12 5 -1 -15 -20 -59 -24 -66 -6 -3 8 3 22 13 31 10 9 16 23 13
31 -5 14 -24 20 -22 7 1 -5 0 -11 -1 -15 -1 -5 -3 -11 -5 -15 -1 -5 -6 -17
-10 -27 -6 -13 -4 -21 4 -24 6 -2 24 -14 39 -26 43 -35 100 -65 166 -88 34
-11 65 -24 69 -28 4 -4 -11 -22 -35 -40 -77 -59 -175 -204 -184 -272 l-7 -48
-98 0 c-89 0 -248 -16 -258 -26 -11 -10 8 -12 50 -4 25 5 88 10 140 11 l94 2
21 -37 c11 -20 24 -33 27 -29 4 3 7 2 7 -4 0 -6 -60 -12 -153 -16 -234 -9
-229 -23 8 -20 l206 4 58 -51 c95 -82 173 -94 311 -46 54 19 76 22 111 15 68
-13 189 -10 241 5 64 20 79 29 132 79 l45 44 98 -13 c54 -7 130 -22 169 -33
71 -19 140 -26 224 -21 25 2 -7 6 -70 11 -63 4 -135 15 -160 24 -55 19 -196
42 -315 50 -70 5 -102 2 -145 -11 -74 -22 -183 -29 -249 -14 l-55 12 38 19
c44 21 218 65 313 79 102 15 184 12 286 -9 50 -11 103 -22 117 -24 14 -3 56
-13 95 -21 38 -9 99 -15 135 -14 36 0 49 3 30 5 -70 7 -217 33 -310 54 -52 12
-110 24 -127 26 -33 5 -33 6 -33 62 -1 82 -36 148 -113 208 -26 21 -176 56
-289 68 -37 4 -66 11 -63 15 16 26 240 89 318 90 20 0 37 4 37 10 0 5 7 7 15
4 8 -4 22 -4 30 -1 12 5 12 12 3 39 -12 33 -12 33 -19 8 l-7 -25 -1 26 c-1 19
5 29 22 34 47 17 -41 16 -130 0 -130 -23 -186 -41 -309 -97 l-111 -50 -109 32
c-105 31 -187 74 -229 120 -21 23 -47 27 -39 6z m814 -54 l0 -38 -62 -14
c-198 -43 -408 -155 -553 -293 -25 -24 -45 -49 -45 -55 0 -6 21 10 47 36 27
26 66 61 88 77 22 17 46 36 53 43 17 16 35 15 107 -4 33 -8 111 -22 174 -30
118 -14 181 -37 235 -84 l30 -25 -15 25 c-31 50 -126 84 -296 105 -29 4 -53
10 -53 14 0 4 18 17 40 30 22 12 40 19 40 15 0 -3 6 -2 13 3 21 16 66 14 150
-8 89 -22 112 -34 152 -76 35 -37 55 -86 62 -154 l6 -56 -122 -6 c-128 -7
-213 -26 -358 -78 l-83 -30 -112 25 c-62 13 -130 27 -151 31 -42 7 -45 17 -22
72 19 45 19 64 0 39 -18 -23 -29 -97 -21 -131 9 -35 60 -90 98 -105 18 -7 44
-23 58 -34 21 -18 22 -18 10 -2 -14 18 -14 18 5 9 11 -6 30 -22 42 -36 18 -21
19 -26 6 -31 -46 -18 -153 5 -191 41 -11 10 -34 31 -51 47 -73 65 -87 161 -37
253 77 141 201 246 407 345 100 48 150 65 309 107 19 5 36 10 38 10 1 1 2 -16
2 -37z m17 -4 c-3 -7 -5 -2 -5 12 0 14 2 19 5 13 2 -7 2 -19 0 -25z m40 0 c-3
-7 -5 -2 -5 12 0 14 2 19 5 13 2 -7 2 -19 0 -25z m-793 -7 c3 -4 -4 -17 -17
-27 -22 -19 -22 -19 -4 2 9 11 14 24 10 27 -3 4 -4 7 0 7 3 0 8 -4 11 -9z
m165 -67 c124 -36 115 -32 99 -47 -7 -7 -27 -21 -44 -31 -31 -19 -32 -19 -110
9 -44 15 -83 31 -88 36 -10 9 30 59 48 59 5 0 48 -11 95 -26z m16 -503 c50
-10 133 -29 185 -41 97 -22 234 -31 281 -18 20 6 36 2 64 -18 29 -19 36 -21
31 -8 -5 13 -4 14 7 6 7 -6 18 -7 26 -3 11 7 9 11 -5 20 -11 6 -14 11 -7 11 6
0 15 -5 18 -10 4 -6 10 -8 15 -5 4 3 3 -6 -3 -20 -22 -45 -165 -82 -271 -70
-34 4 -131 22 -217 40 -166 35 -213 56 -242 107 -16 27 -15 28 6 28 12 -1 63
-9 112 -19z m535 -51 c0 -5 -4 -10 -9 -10 -6 0 -13 5 -16 10 -3 6 1 10 9 10 9
0 16 -4 16 -10z"/>
<path d="M1005 630 c-4 -6 -10 -8 -14 -5 -5 2 -17 -5 -27 -18 -18 -20 -18 -21
0 -7 10 8 25 15 33 16 20 3 42 24 26 24 -7 0 -15 -5 -18 -10z"/>
<path d="M1263 395 c0 -22 2 -30 4 -17 2 12 2 30 0 40 -3 9 -5 -1 -4 -23z"/>
<path d="M1355 884 c-20 -20 -15 -38 11 -42 15 -2 19 3 19 28 0 34 -6 37 -30
14z"/>
<path d="M1360 820 c20 -6 21 -8 6 -9 -16 -1 -17 -4 -8 -13 10 -10 15 -10 22
2 15 24 12 30 -17 29 l-28 -1 25 -8z"/>
<path d="M2140 763 c0 -11 7 -27 16 -34 15 -12 16 -11 9 11 -10 35 -25 49 -25
23z"/>
<path d="M2086 727 c-11 -23 -22 -45 -24 -49 -2 -5 1 -8 6 -8 5 0 15 14 22 30
7 17 19 30 27 30 10 0 13 6 9 16 -3 9 -6 18 -6 20 0 2 -3 4 -7 4 -5 0 -17 -19
-27 -43z"/>
<path d="M2152 661 c-49 -61 -40 -89 38 -125 19 -9 56 -30 83 -47 51 -33 198
-89 234 -89 12 0 24 -4 27 -8 9 -15 -169 -32 -338 -32 -109 0 -165 -3 -161
-10 8 -14 251 -13 392 1 101 11 115 10 131 -5 10 -9 22 -13 27 -9 4 5 4 -3 1
-17 -6 -19 -5 -21 3 -10 7 10 11 11 11 3 0 -7 6 -13 14 -13 8 0 16 -7 20 -15
3 -9 0 -15 -9 -15 -8 0 -15 5 -15 11 0 6 -6 4 -14 -4 -22 -21 -140 -32 -354
-32 -105 0 -192 -3 -192 -7 0 -22 285 -22 485 2 l110 12 39 -35 c45 -42 110
-75 170 -86 48 -9 146 8 196 34 46 24 87 21 144 -9 91 -48 206 -28 287 51 l37
35 153 -26 c166 -28 416 -44 544 -35 44 3 78 6 75 8 -3 1 -86 4 -184 7 -214 6
-301 14 -506 47 -85 14 -206 30 -268 35 -85 7 -130 17 -182 38 -39 16 -70 32
-70 35 0 16 128 27 205 19 44 -5 134 -9 200 -9 88 -1 167 -9 295 -32 181 -32
382 -48 460 -38 l45 6 -50 3 c-51 2 -93 5 -225 15 -42 3 -123 14 -180 25 -58
11 -117 20 -132 20 -16 0 -28 3 -28 8 0 6 219 52 284 59 16 2 46 8 67 13 l38
10 -2 75 -2 75 -35 0 c-51 -1 -107 -15 -125 -33 -36 -36 -383 -78 -393 -47 -9
26 -56 70 -95 89 -54 26 -144 28 -216 4 -56 -18 -65 -16 -176 31 -128 54 -245
28 -319 -71 -51 -70 -57 -70 -271 -10 -84 24 -122 44 -146 76 -12 17 -28 31
-35 31 -6 0 -14 7 -18 15 -10 27 -42 16 -74 -24z m62 -43 c-16 -18 -32 -37
-36 -42 -5 -6 -8 -6 -8 0 0 13 52 74 64 74 5 0 -3 -15 -20 -32z m826 -3 l55
-28 -60 -19 c-33 -10 -86 -20 -118 -23 -80 -7 -121 -39 -146 -118 -16 -48 -6
-90 31 -133 24 -27 38 -34 65 -34 29 0 43 -8 74 -42 39 -43 49 -45 28 -5 -12
22 -12 22 10 3 49 -44 17 -66 -94 -66 -62 0 -113 19 -168 63 -50 40 -64 69
-72 143 -8 69 11 131 64 207 49 71 88 88 191 84 69 -3 96 -10 140 -32z m353
-19 c35 -14 87 -59 87 -74 0 -5 -57 -12 -127 -15 -100 -3 -147 -10 -213 -31
-160 -49 -350 -73 -350 -43 0 7 13 28 28 46 24 29 37 35 87 42 58 8 232 52
270 69 51 23 171 26 218 6z m-1008 -37 c39 -12 96 -28 127 -36 50 -14 59 -20
73 -52 9 -21 14 -26 11 -12 -4 21 -3 22 8 10 24 -24 29 -58 11 -65 -52 -20
-365 89 -365 127 0 20 35 59 50 55 8 -3 47 -15 85 -27z m1630 -29 c4 -22 14
-44 22 -49 10 -5 12 -11 5 -15 -16 -10 -42 4 -42 23 0 9 -3 34 -7 55 -4 27 -3
37 5 33 5 -4 13 -25 17 -47z m-38 8 c-3 -7 -5 -2 -5 12 0 14 2 19 5 13 2 -7 2
-19 0 -25z m-86 -30 c0 -22 1 -22 8 -3 8 19 8 19 16 -5 4 -14 16 -32 26 -40
19 -15 19 -16 -7 -18 -15 -1 -72 -11 -128 -23 -141 -28 -321 -42 -456 -34
-148 8 -163 11 -150 36 6 10 20 24 33 30 20 11 21 11 8 -4 -19 -24 -8 -21 52
13 53 30 56 30 203 30 82 1 169 5 194 10 25 5 70 12 100 16 30 4 57 8 59 10
15 13 41 1 42 -18z m-694 -66 c-10 -10 -17 -24 -17 -30 0 -6 -7 -9 -15 -6 -11
4 -8 11 13 30 32 28 42 31 19 6z m-122 -22 c3 -5 20 -13 38 -18 l32 -8 -50
-17 c-49 -16 -51 -15 -100 7 l-50 23 45 10 c60 14 78 15 85 3z m-89 -54 c25
-14 51 -26 56 -26 5 0 46 -16 89 -35 44 -19 88 -35 98 -35 10 0 32 -13 49 -30
32 -30 59 -41 46 -17 -4 6 3 3 14 -8 11 -11 22 -29 24 -40 3 -18 -3 -20 -53
-23 -47 -2 -70 3 -150 38 -105 46 -189 73 -264 85 -64 9 -81 19 -100 55 -31
60 -18 71 82 66 44 -3 76 -11 109 -30z m404 -197 c0 -6 -4 -7 -10 -4 -5 3 -10
11 -10 16 0 6 5 7 10 4 6 -3 10 -11 10 -16z"/>
<path d="M3330 201 c0 -5 5 -13 10 -16 6 -3 10 -2 10 4 0 5 -4 13 -10 16 -5 3
-10 2 -10 -4z"/>
<path d="M2057 654 c-11 -11 5 -34 25 -34 14 0 18 5 14 16 -3 9 -6 18 -6 20 0
6 -26 5 -33 -2z"/>
<path d="M4086 634 c-24 -23 -20 -44 9 -44 14 0 25 5 25 10 0 6 -9 10 -21 10
-21 0 -21 0 2 20 13 10 19 19 12 20 -6 0 -19 -7 -27 -16z"/>
<path d="M4088 573 c6 -2 18 -2 25 0 6 3 1 5 -13 5 -14 0 -19 -2 -12 -5z"/>
<path d="M4085 511 c0 -27 3 -53 8 -57 10 -11 37 29 27 41 -4 5 -10 21 -12 34
-6 45 -23 32 -23 -18z"/>
</g>
</svg>
