<?xml version="1.0" standalone="no"?>
<!DOCTYPE svg PUBLIC "-//W3C//DTD SVG 20010904//EN"
 "http://www.w3.org/TR/2001/REC-SVG-20010904/DTD/svg10.dtd">
<svg version="1.0" xmlns="http://www.w3.org/2000/svg"
 width="468pt" height="309pt" viewBox="0 0 468 309"
 preserveAspectRatio="xMidYMid meet">
<metadata>
Created by potrace 1.8, written by Peter Selinger 2001-2007
</metadata>
<g transform="translate(0,309) scale(0.154455,-0.154455)"
fill="#000000" stroke="none">
<path d="M40 1012 c0 -523 3 -957 6 -966 6 -15 118 -16 1183 -14 l1176 3
-1172 2 -1173 3 -2 70 c-1 39 -2 85 -2 102 l-1 33 65 -2 c36 -1 696 -2 1467
-3 l1402 0 0 -58 c0 -31 -2 -76 -5 -99 l-6 -43 -287 -3 -286 -2 297 -3 298 -2
-1 157 c0 87 -4 174 -9 193 -7 29 -8 22 -9 -42 l-1 -78 -550 0 c-465 0 -549 2
-544 14 3 8 14 12 27 9 21 -4 21 -4 -3 16 -30 25 -40 26 -40 5 0 -15 -2 -15
-26 1 -14 9 -28 14 -31 11 -8 -8 28 -47 38 -41 4 3 10 1 14 -5 4 -7 -38 -10
-122 -10 -325 -1 -600 -1 -1125 -1 l-568 1 0 103 c0 67 4 107 12 115 9 9 9 12
0 12 -8 0 -12 18 -12 51 0 53 13 62 34 24 6 -11 18 -26 26 -33 8 -7 10 -11 5
-8 -6 2 -16 -4 -23 -15 -14 -22 -9 -24 19 -9 28 16 24 33 -21 79 l-40 41 0
225 c0 230 3 248 38 213 17 -17 15 -28 -5 -29 -10 -1 -2 -5 17 -9 37 -9 53 -4
31 9 -8 5 -12 19 -9 33 3 18 0 24 -14 24 -10 0 -18 -3 -18 -7 0 -4 -8 -5 -19
-2 -17 4 -18 21 -20 309 -1 282 1 304 17 305 63 3 1659 -3 1927 -7 181 -3 326
-1 321 3 -9 10 -11 10 -412 12 -268 1 -321 3 -321 15 0 10 11 13 36 11 45 -3
71 10 71 35 0 19 -12 26 -35 20 -5 -2 -20 -2 -32 -2 -13 1 -23 -4 -23 -11 0
-6 -5 -4 -11 6 -8 13 -14 15 -30 7 -23 -13 -25 -45 -4 -54 8 -3 15 -10 15 -16
0 -10 -815 -12 -1338 -2 l-183 3 2 45 c2 24 6 49 10 56 5 8 79 10 291 5 155
-4 811 -7 1456 -7 l1173 0 -3 -57 -3 -58 -102 2 c-57 1 -105 -2 -108 -7 -4 -6
36 -10 105 -10 l110 0 0 -196 c-1 -108 1 -199 4 -202 3 -3 6 146 6 331 l0 337
-327 0 c-181 0 -844 3 -1475 7 l-1148 6 0 -951z m2183 928 l757 0 0 -61 0 -62
-942 6 c-519 4 -1176 7 -1460 7 l-518 0 0 61 0 62 703 -6 c386 -4 1043 -7
1460 -7z m-653 -185 c0 -8 -4 -15 -10 -15 -5 0 -7 7 -4 15 4 8 8 15 10 15 2 0
4 -7 4 -15z m50 0 c0 -8 -4 -15 -10 -15 -5 0 -7 7 -4 15 4 8 8 15 10 15 2 0 4
-7 4 -15z m60 5 c0 -12 -28 -25 -36 -17 -9 9 6 27 22 27 8 0 14 -5 14 -10z"/>
<path d="M822 1918 c-7 -7 -12 -22 -12 -34 0 -20 5 -22 45 -22 48 1 71 18 61
43 -4 12 -14 14 -42 9 -27 -5 -35 -4 -30 5 9 15 -7 14 -22 -1z m78 -28 c0 -5
-7 -10 -16 -10 -8 0 -12 5 -9 10 3 6 10 10 16 10 5 0 9 -4 9 -10z"/>
<path d="M920 1920 c0 -5 5 -10 10 -10 6 0 10 5 10 10 0 6 -4 10 -10 10 -5 0
-10 -4 -10 -10z"/>
<path d="M960 1911 c-5 -11 -7 -27 -4 -35 9 -24 51 -20 65 6 10 18 8 24 -7 35
-25 18 -42 16 -54 -6z m50 -15 c0 -17 -27 -29 -35 -16 -4 6 -3 15 0 20 9 15
35 12 35 -4z"/>
<path d="M1647 1924 c-14 -14 -7 -35 11 -32 9 2 17 10 17 17 0 16 -18 25 -28
15z"/>
<path d="M2185 1909 c-6 -19 -7 -19 -20 -3 -11 16 -15 16 -29 5 -22 -19 -20
-40 6 -50 36 -13 70 -7 82 14 6 11 18 25 26 32 13 11 13 12 -2 13 -10 0 -18
-4 -18 -10 0 -5 -7 -7 -15 -4 -8 4 -12 10 -9 15 3 5 1 9 -5 9 -5 0 -13 -9 -16
-21z m25 -34 c-7 -8 -16 -12 -21 -9 -13 8 -1 24 18 24 13 0 13 -3 3 -15z"/>
<path d="M2282 1918 c-19 -19 -15 -58 7 -58 27 0 47 28 35 48 -14 21 -27 25
-42 10z m32 -17 c7 -10 -22 -37 -30 -28 -9 8 3 37 15 37 5 0 12 -4 15 -9z"/>
<path d="M145 1913 c-11 -3 -26 -10 -33 -16 -10 -8 -16 -7 -23 4 -6 10 -9 7
-9 -13 0 -27 2 -28 49 -28 28 0 53 5 57 11 5 8 9 8 14 -1 6 -9 13 -9 28 -1 15
8 22 8 25 -2 3 -6 6 3 6 22 1 32 0 33 -16 18 -16 -13 -20 -14 -37 -1 -20 14
-27 15 -61 7z m34 -29 c-6 -8 -15 -14 -20 -14 -14 0 -11 28 4 33 20 7 29 -4
16 -19z m-39 6 c0 -5 -5 -10 -11 -10 -5 0 -7 5 -4 10 3 6 8 10 11 10 2 0 4 -4
4 -10z"/>
<path d="M277 1913 c-4 -3 -7 -17 -7 -31 0 -21 2 -23 15 -12 12 10 13 15 4 20
-8 5 -8 9 0 14 6 4 13 -3 16 -17 5 -18 13 -24 34 -24 26 0 27 2 17 28 -7 20
-13 25 -22 18 -8 -7 -14 -7 -19 1 -7 11 -28 13 -38 3z"/>
<path d="M364 1908 c-4 -6 0 -16 8 -22 8 -6 13 -18 10 -26 -3 -11 -1 -12 7 -4
8 7 29 8 62 3 28 -4 60 -4 72 0 12 4 28 6 36 3 10 -3 12 0 8 11 -3 9 1 18 9
21 26 10 32 7 37 -16 4 -21 4 -20 6 3 0 15 -5 29 -13 32 -21 8 -56 -4 -56 -19
0 -20 -13 -17 -30 6 -13 18 -15 19 -34 2 -11 -9 -16 -12 -12 -5 12 22 -42 28
-64 8 -18 -16 -20 -17 -20 -2 0 19 -15 22 -26 5z m93 -20 c-3 -8 -6 -5 -6 6
-1 11 2 17 5 13 3 -3 4 -12 1 -19z m52 -14 c-14 -18 -24 -11 -15 11 3 9 11 13
16 10 8 -5 7 -11 -1 -21z"/>
<path d="M660 1900 c0 -19 -2 -22 -10 -10 -5 8 -12 11 -16 7 -4 -4 1 -16 11
-27 13 -14 25 -18 44 -13 50 11 74 50 26 41 -20 -4 -23 -3 -14 8 8 10 8 14 1
14 -6 0 -14 -5 -18 -11 -4 -8 -9 -7 -15 2 -6 10 -9 7 -9 -11z"/>
<path d="M755 1911 c-3 -5 -1 -12 5 -16 5 -3 10 1 10 9 0 18 -6 21 -15 7z"/>
<path d="M1045 1899 c-9 -28 9 -46 29 -30 11 9 20 10 35 2 14 -8 22 -8 27 0 4
8 9 7 15 -2 6 -10 9 -4 9 19 0 33 -14 43 -23 17 -5 -12 -10 -12 -34 0 -38 20
-50 19 -58 -6z m35 -9 c0 -5 -4 -10 -10 -10 -5 0 -10 5 -10 10 0 6 5 10 10 10
6 0 10 -4 10 -10z"/>
<path d="M1550 1895 c-14 -36 -6 -45 39 -45 36 0 37 1 38 35 1 22 -4 35 -11
35 -7 0 -12 -10 -12 -21 1 -12 -4 -24 -10 -26 -6 -2 -10 6 -10 18 1 32 -22 35
-34 4z"/>
<path d="M1690 1899 c-7 -11 -9 -27 -6 -35 6 -16 42 -19 51 -4 4 6 10 8 14 6
11 -7 10 27 -2 42 -15 19 -45 14 -57 -9z m50 -3 c0 -21 -29 -41 -41 -29 -7 7
-5 16 6 27 20 20 35 21 35 2z"/>
<path d="M1785 1904 c-12 -12 -13 -20 -5 -28 14 -14 83 -16 92 -2 5 7 8 7 8
-1 0 -7 4 -13 9 -13 4 0 6 11 3 25 -5 29 -17 33 -26 8 -6 -14 -8 -14 -21 3 -8
10 -15 15 -15 10 0 -5 -6 -3 -14 3 -11 9 -18 8 -31 -5z m30 -14 c3 -5 -1 -10
-10 -10 -9 0 -13 5 -10 10 3 6 8 10 10 10 2 0 7 -4 10 -10z"/>
<path d="M2349 1898 c-10 -18 -8 -24 7 -35 15 -11 21 -10 37 5 10 9 22 16 26
14 3 -2 7 3 9 11 3 13 -25 27 -55 27 -7 0 -18 -10 -24 -22z m39 -10 c-6 -18
-28 -21 -28 -4 0 9 7 16 16 16 9 0 14 -5 12 -12z"/>
<path d="M2442 1889 c-7 -12 -10 -24 -6 -27 4 -4 9 -1 11 6 3 6 9 10 14 6 5
-3 9 4 9 15 0 27 -12 27 -28 0z"/>
<path d="M153 1793 c-7 -3 -13 -16 -13 -31 0 -20 3 -23 12 -14 15 15 58 16 58
2 0 -5 -5 -10 -12 -10 -6 0 -9 -2 -6 -5 3 -3 13 -3 22 1 21 8 21 34 -1 35 -15
0 -15 2 2 9 11 5 18 9 15 10 -13 5 -66 7 -77 3z m24 -19 c-3 -3 -12 -4 -19 -1
-8 3 -5 6 6 6 11 1 17 -2 13 -5z"/>
<path d="M253 1793 c-15 -5 -18 -63 -3 -63 6 0 10 11 10 24 0 13 5 26 12 28 7
3 8 7 3 10 -6 3 -16 3 -22 1z"/>
<path d="M91 1772 c-15 -29 -15 -50 1 -34 9 9 15 9 26 -1 13 -10 14 -8 7 13
-11 38 -22 44 -34 22z"/>
<path d="M286 1769 c-16 -24 -16 -24 16 -31 20 -4 35 -2 40 5 5 8 11 7 22 -2
13 -11 16 -11 16 0 0 12 2 12 9 0 7 -11 13 -9 30 8 28 28 19 42 -25 39 -23 -1
-34 -7 -34 -18 0 -13 -2 -13 -11 0 -8 12 -12 12 -16 2 -4 -10 -8 -9 -17 4 -12
16 -14 15 -30 -7z m134 2 c0 -6 -4 -13 -10 -16 -5 -3 -10 1 -10 9 0 9 5 16 10
16 6 0 10 -4 10 -9z"/>
<path d="M814 1775 c-8 -19 15 -48 32 -41 7 3 16 2 18 -3 3 -4 23 -8 45 -9 32
-1 43 3 52 19 8 15 8 24 0 32 -13 13 -82 10 -95 -3 -15 -15 -26 -12 -20 5 4
10 0 15 -10 15 -9 0 -19 -7 -22 -15z m72 -32 c-10 -10 -19 5 -10 18 6 11 8 11
12 0 2 -7 1 -15 -2 -18z m64 13 c0 -14 -29 -31 -38 -22 -2 3 -2 12 1 21 8 19
37 20 37 1z"/>
<path d="M1033 1773 c-10 -15 -14 -16 -21 -4 -6 8 -12 9 -16 3 -13 -21 5 -37
45 -39 30 -1 38 2 30 10 -6 6 -11 19 -11 29 0 23 -12 23 -27 1z"/>
<path d="M2155 1780 c-3 -5 -1 -10 5 -10 6 0 8 -10 5 -23 -5 -20 -3 -22 29
-21 19 1 39 5 45 8 5 4 12 2 15 -3 8 -12 42 -3 57 16 17 19 -1 35 -43 39 -44
3 -68 -4 -68 -21 0 -8 -5 -17 -10 -20 -7 -4 -9 2 -4 19 5 20 2 26 -9 26 -9 0
-19 -4 -22 -10z m84 -26 c-6 -8 -15 -14 -20 -14 -14 0 -11 28 4 33 20 7 29 -4
16 -19z m59 4 c-7 -19 -38 -22 -38 -4 0 10 9 16 21 16 12 0 19 -5 17 -12z"/>
<path d="M1755 1770 c-4 -6 -14 -9 -23 -8 -9 2 -17 -3 -17 -11 0 -17 32 -24
41 -9 4 6 10 5 15 -3 6 -10 9 -6 9 14 0 27 -13 36 -25 17z"/>
<path d="M2330 1766 c0 -18 14 -27 44 -30 19 -2 24 2 24 21 0 27 -13 30 -23 6
-6 -17 -7 -17 -19 0 -16 21 -26 22 -26 3z"/>
<path d="M2124 1754 c3 -9 6 -18 6 -20 0 -2 4 -4 9 -4 5 0 7 9 4 20 -3 11 -10
20 -15 20 -6 0 -7 -7 -4 -16z"/>
<path d="M2350 1690 c-10 -7 48 -10 193 -9 114 0 207 4 207 8 0 11 -383 13
-400 1z"/>
<path d="M370 1656 c0 -2 9 -6 20 -9 11 -3 20 -1 20 4 0 5 -9 9 -20 9 -11 0
-20 -2 -20 -4z"/>
<path d="M371 1595 c1 -19 18 -51 18 -35 0 8 -4 22 -9 30 -5 8 -9 11 -9 5z"/>
<path d="M186 1455 c4 -8 8 -15 10 -15 2 0 4 7 4 15 0 8 -4 15 -10 15 -5 0 -7
-7 -4 -15z"/>
<path d="M228 1463 c7 -3 16 -2 19 1 4 3 -2 6 -13 5 -11 0 -14 -3 -6 -6z"/>
<path d="M303 1453 c26 -7 15 -27 -19 -34 -16 -4 -21 -7 -11 -8 10 -1 17 -9
17 -21 0 -11 5 -20 10 -20 6 0 10 -4 10 -10 0 -5 -18 -10 -40 -10 -22 0 -40
-5 -40 -10 0 -6 16 -42 36 -80 39 -73 39 -96 2 -102 -17 -2 -22 -8 -20 -22 2
-11 -4 -26 -15 -34 -17 -13 -16 -14 7 -7 14 4 67 9 117 12 80 5 99 3 138 -16
25 -11 58 -21 74 -21 16 0 31 -5 33 -11 2 -6 16 -11 31 -11 22 0 27 -5 27 -25
0 -22 -3 -25 -30 -21 -17 3 -27 1 -23 -3 4 -4 25 -10 47 -12 21 -3 42 -11 47
-18 6 -10 9 -3 10 21 2 30 3 31 6 8 6 -39 18 -35 18 5 0 22 5 32 15 32 8 0 14
-8 14 -17 -1 -10 4 -14 12 -11 8 3 14 9 14 15 0 5 6 8 13 6 6 -1 26 6 44 15
18 9 42 16 55 14 29 -3 37 28 9 36 -17 4 -20 10 -15 36 5 23 2 32 -10 37 -9 3
-13 10 -10 16 10 16 -6 58 -22 58 -20 0 -53 39 -54 63 0 23 -31 22 -37 -1 -4
-18 -39 -22 -75 -7 -13 5 -21 0 -29 -18 -6 -14 -20 -27 -30 -30 -10 -3 -25
-22 -34 -43 -15 -36 -16 -37 -29 -18 -8 10 -23 51 -35 90 -20 68 -44 105 -58
90 -3 -3 6 -58 22 -122 26 -109 29 -115 49 -110 18 4 22 1 21 -14 -2 -33 -19
-42 -49 -28 -24 10 -27 16 -22 41 5 23 2 30 -13 34 -15 4 -20 18 -25 71 -3 37
-6 84 -6 105 l0 38 63 -6 c34 -3 79 -8 100 -10 39 -5 47 6 26 35 -9 12 -10 12
-5 -4 6 -17 1 -18 -60 -14 -42 3 -69 9 -75 19 -7 11 -11 11 -17 1 -7 -10 -11
-10 -22 3 -7 8 -9 15 -4 15 17 1 -31 25 -51 26 -11 1 -42 4 -70 6 -27 3 -42 4
-32 1z m64 -34 c-14 -8 -22 -8 -30 0 -8 8 -3 11 19 11 25 -1 27 -2 11 -11z
m12 -25 c2 -2 -15 -4 -38 -4 -25 0 -40 4 -36 10 5 8 63 3 74 -6z m46 -4 c3 -5
-1 -10 -9 -10 -9 0 -16 5 -16 10 0 6 4 10 9 10 6 0 13 -4 16 -10z m10 -97 c12
-131 18 -117 -50 -114 -33 1 -61 4 -62 5 -1 1 0 41 4 89 l6 87 48 0 47 0 7
-67z m89 -38 c27 -85 31 -105 18 -105 -4 0 -20 46 -34 101 -31 118 -22 120 16
4z m-214 30 c0 -25 -2 -45 -5 -45 -5 0 -45 75 -45 85 0 3 11 5 25 5 23 0 25
-4 25 -45z m480 -15 c0 -11 4 -20 9 -20 4 0 7 -13 5 -30 -2 -16 1 -30 6 -30 6
0 9 3 9 8 -5 27 3 40 20 35 14 -3 18 -13 17 -35 -1 -17 3 -32 11 -35 7 -3 13
-12 13 -20 0 -8 -5 -11 -10 -8 -6 3 -17 -1 -26 -9 -8 -9 -24 -16 -35 -16 -10
0 -19 -5 -19 -11 0 -5 5 -7 10 -4 6 3 13 -1 16 -9 5 -13 9 -12 24 7 17 20 19
21 37 6 10 -9 25 -19 33 -23 8 -3 4 -4 -9 -2 -13 3 -36 -1 -52 -9 -52 -27
-149 -11 -149 25 0 6 -5 8 -10 5 -6 -4 -17 -1 -25 5 -12 10 -15 9 -15 -2 0 -8
10 -19 22 -25 20 -9 19 -10 -10 -10 -18 0 -32 4 -32 9 0 4 -3 7 -7 7 -5 -1
-16 -1 -27 0 -14 1 -16 4 -7 14 6 8 8 17 4 21 -11 11 -10 46 1 46 6 0 17 9 24
21 8 12 9 18 3 14 -15 -9 -14 10 2 23 8 7 18 7 27 2 18 -11 37 0 19 11 -12 8
-11 11 1 19 8 5 11 10 7 10 -5 0 -6 4 -3 9 3 4 23 5 45 1 30 -5 41 -4 45 6 8
21 26 17 26 -6z m-422 -128 c2 -7 -3 -12 -12 -12 -9 0 -16 7 -16 16 0 17 22
14 28 -4z m42 3 c0 -8 -7 -15 -15 -15 -8 0 -15 7 -15 15 0 8 7 15 15 15 8 0
15 -7 15 -15z m40 1 c0 -8 -4 -18 -10 -21 -5 -3 -10 3 -10 14 0 12 5 21 10 21
6 0 10 -6 10 -14z m-170 -11 c0 -8 -4 -15 -10 -15 -5 0 -10 7 -10 15 0 8 5 15
10 15 6 0 10 -7 10 -15z m36 -12 c-10 -10 -19 5 -10 18 6 11 8 11 12 0 2 -7 1
-15 -2 -18z m384 -103 c0 -11 -4 -20 -10 -20 -5 0 -10 9 -10 20 0 11 5 20 10
20 6 0 10 -9 10 -20z"/>
<path d="M228 1423 c7 -3 16 -2 19 1 4 3 -2 6 -13 5 -11 0 -14 -3 -6 -6z"/>
<path d="M518 1423 c7 -3 16 -2 19 1 4 3 -2 6 -13 5 -11 0 -14 -3 -6 -6z"/>
<path d="M2563 1343 c-15 -6 -17 -43 -3 -43 6 0 10 -25 10 -56 l0 -57 -37 6
c-21 2 -45 6 -53 8 -12 3 -15 -10 -17 -69 -1 -40 -4 -80 -7 -88 -3 -8 1 -17 9
-20 28 -11 15 -21 -25 -20 -43 1 -52 11 -21 21 16 5 18 12 14 48 -8 58 -20 87
-37 87 -21 0 -56 -64 -49 -91 5 -18 3 -21 -11 -16 -10 4 -33 7 -52 7 -30 0
-34 3 -34 25 0 29 -29 105 -40 105 -14 0 -30 -61 -30 -111 0 -39 -4 -49 -21
-54 -25 -8 -21 -14 -48 65 -53 149 -60 164 -83 176 -44 25 -129 11 -101 -17 7
-7 17 -8 29 -1 24 12 84 4 84 -12 0 -7 9 -31 20 -53 52 -108 107 -336 130
-538 11 -102 40 -238 53 -251 10 -10 38 16 30 29 -4 6 0 8 9 4 25 -9 28 35 6
74 -15 27 -18 29 -13 9 20 -76 20 -76 -1 -59 -10 9 -24 15 -30 12 -7 -2 -19
52 -33 149 -13 84 -31 198 -41 253 -11 62 -15 104 -9 110 5 5 94 9 202 10
l192 0 -1 -80 c0 -44 -3 -81 -7 -82 -4 -2 -27 -3 -52 -3 l-45 0 0 59 c0 33 -4
63 -10 66 -6 4 -10 -18 -10 -60 l0 -67 -30 7 c-28 6 -32 4 -45 -29 -20 -47
-20 -46 20 -46 39 0 48 -17 13 -22 -17 -2 -23 -10 -23 -28 0 -21 7 -27 38 -34
32 -8 37 -13 37 -38 0 -32 30 -211 36 -217 10 -11 12 8 5 44 -5 22 -12 77 -15
123 l-6 82 42 -6 c24 -4 44 -7 44 -8 1 -1 4 -43 7 -94 5 -82 4 -92 -9 -81 -13
11 -14 9 -3 -17 24 -56 29 -47 29 53 0 100 0 101 26 107 15 4 47 0 74 -9 l48
-16 7 -79 c4 -44 12 -80 17 -80 7 0 8 18 4 47 -3 27 -9 74 -12 106 l-7 57 49
0 c27 0 84 -5 126 -12 l77 -11 4 -81 c1 -45 4 29 5 164 l2 245 -28 1 c-15 1
-67 9 -117 19 -82 15 -131 23 -309 54 -69 12 -70 13 -61 40 5 15 15 21 37 21
37 0 33 24 -5 28 -23 3 -27 8 -27 38 0 26 4 34 18 34 26 0 191 -27 344 -56
l137 -27 4 -71 3 -71 2 83 c1 48 -2 81 -7 78 -5 -4 -22 -1 -38 5 -15 6 -75 18
-133 28 l-105 18 -3 66 c-2 42 1 67 8 67 15 0 12 16 -6 34 -17 18 -104 23
-104 6 0 -5 17 -10 38 -10 20 0 44 -5 52 -10 10 -6 11 -10 3 -10 -9 0 -13 -21
-13 -71 0 -69 -1 -71 -22 -65 -13 3 -33 6 -45 6 -21 0 -23 5 -23 59 0 33 -5
63 -10 66 -6 4 -8 15 -5 26 4 10 5 19 3 18 -2 0 -9 -3 -15 -6z m-343 -193 c0
-5 -4 -10 -10 -10 -5 0 -10 5 -10 10 0 6 5 10 10 10 6 0 10 -4 10 -10z m200
-72 c0 -10 -4 -17 -9 -14 -5 3 -8 -2 -7 -12 1 -11 -6 -17 -19 -17 -29 0 -35
43 -12 83 l19 33 14 -27 c8 -14 14 -35 14 -46z m-192 34 c2 -7 -6 -12 -17 -12
-21 0 -27 11 -14 24 9 9 26 2 31 -12z m2 -66 c0 -29 -3 -33 -20 -29 -14 4 -20
14 -20 34 0 22 5 29 20 29 16 0 20 -7 20 -34z m106 -7 c9 -16 -16 -29 -51 -26
-19 2 -31 9 -33 20 -3 14 4 17 37 17 22 0 43 -5 47 -11z m-126 -39 c0 -5 -13
-10 -30 -10 -16 0 -30 5 -30 10 0 6 14 10 30 10 17 0 30 -4 30 -10z m387 -25
c0 -8 -4 -15 -9 -15 -4 0 -8 7 -8 15 0 8 4 15 8 15 5 0 9 -7 9 -15z m256 -31
l127 -27 0 -62 0 -63 -112 4 c-62 3 -155 7 -206 10 l-93 6 3 66 c2 41 8 67 16
70 6 2 12 -5 12 -15 0 -13 3 -15 8 -5 7 10 15 10 36 2 34 -13 39 -13 31 0 -3
6 -2 10 3 10 5 0 12 -27 16 -60 10 -86 24 -74 18 15 -2 41 -1 75 4 75 5 0 66
-12 137 -26z m-263 -154 c63 -5 149 -10 191 -10 42 0 104 -3 138 -6 l61 -7 0
-64 0 -65 -47 6 c-27 4 -102 9 -168 11 -159 5 -378 25 -389 35 -14 14 4 30 35
30 22 0 29 5 29 19 0 15 -10 21 -39 26 -32 5 -38 10 -34 26 5 18 12 19 57 14
28 -3 103 -10 166 -15z"/>
<path d="M2665 690 c3 -5 10 -10 16 -10 5 0 9 5 9 10 0 6 -7 10 -16 10 -8 0
-12 -4 -9 -10z"/>
<path d="M71 1314 c0 -11 3 -14 6 -6 3 7 2 16 -1 19 -3 4 -6 -2 -5 -13z"/>
<path d="M84 1281 c4 -5 14 -7 24 -4 14 6 15 4 5 -8 -15 -18 8 -52 29 -44 13
5 15 -5 12 -60 -3 -57 -1 -66 13 -63 22 4 29 28 8 28 -14 0 -15 3 -5 15 10 12
10 18 -1 31 -10 12 -10 20 -1 35 13 20 12 20 -28 23 -9 1 -15 11 -15 26 0 19
-6 26 -24 28 -14 2 -21 0 -17 -7z"/>
<path d="M1461 1208 c1 -27 3 -28 6 -9 4 19 7 21 14 10 7 -11 9 -9 9 9 0 13
-6 22 -15 22 -11 0 -15 -10 -14 -32z"/>
<path d="M1965 1195 c13 -39 35 -150 35 -180 0 -22 -3 -26 -12 -17 -7 7 -26
12 -43 12 -17 0 -36 5 -42 11 -7 7 -19 8 -30 4 -10 -5 -22 -7 -28 -6 -5 1 -4
-3 3 -10 18 -19 15 -28 -9 -24 -12 2 -65 5 -119 6 -68 1 -100 5 -104 14 -8 22
-45 24 -69 4 -12 -10 -16 -18 -9 -19 6 0 12 4 12 9 0 5 14 9 30 9 17 -1 30 -7
30 -13 0 -20 25 -25 123 -25 51 0 115 -3 144 -6 49 -6 51 -8 41 -29 -8 -19 -2
-33 46 -96 31 -41 61 -89 68 -106 10 -28 28 -45 28 -28 0 16 -54 108 -91 155
-36 45 -41 57 -33 79 13 36 69 43 77 9 8 -29 1 -35 -20 -16 -43 36 -44 27 -3
-16 24 -25 48 -46 53 -46 5 0 5 6 -1 13 -5 6 -13 39 -16 72 -12 104 -38 224
-53 242 -14 17 -14 17 -8 -2z m-31 -199 c47 -2 59 -16 13 -16 -19 0 -42 -3
-50 -6 -8 -3 -17 2 -21 11 -8 22 4 42 14 24 5 -6 24 -13 44 -13z"/>
<path d="M1487 1174 c-3 -3 -3 -13 0 -22 5 -11 2 -14 -8 -10 -10 4 -15 -3 -16
-23 -2 -23 2 -29 17 -29 11 0 23 0 27 -1 14 -1 14 19 0 32 -7 7 -11 23 -9 36
4 23 1 28 -11 17z"/>
<path d="M1175 1124 c-19 -21 -29 -43 -27 -57 5 -32 21 -45 33 -27 9 13 10 12
5 -2 -3 -10 -2 -19 2 -22 12 -7 54 13 47 23 -3 5 -1 12 4 15 8 5 -16 86 -29
100 -3 2 -19 -11 -35 -30z m41 -82 c-11 -11 -16 -12 -17 -4 -3 26 -4 31 -12
39 -5 4 -7 2 -5 -6 2 -7 -3 -16 -9 -18 -21 -8 -15 27 10 56 l22 28 14 -40 c12
-34 11 -41 -3 -55z"/>
<path d="M1053 1131 c-6 -10 -15 -34 -18 -54 -6 -30 -4 -37 15 -47 20 -11 21
-10 10 9 -6 12 -8 36 -4 56 7 39 24 57 24 26 0 -11 5 -23 10 -26 6 -3 10 -17
10 -31 0 -13 -4 -24 -10 -24 -5 0 -10 -4 -10 -9 0 -5 9 -7 20 -4 20 5 29 47
11 57 -4 3 -11 19 -14 36 -7 34 -27 39 -44 11z"/>
<path d="M1555 1120 c-27 -7 -25 -8 18 -9 30 -1 46 3 42 9 -7 11 -16 11 -60 0z"/>
<path d="M2650 1120 c0 -5 5 -10 10 -10 6 0 10 5 10 10 0 6 -4 10 -10 10 -5 0
-10 -4 -10 -10z"/>
<path d="M1375 1100 c-4 -6 -11 -8 -16 -5 -5 4 -9 1 -9 -6 0 -7 9 -9 23 -5 12
3 34 6 50 6 15 0 27 5 27 10 0 13 -67 13 -75 0z"/>
<path d="M178 1083 c6 -2 18 -2 25 0 6 3 1 5 -13 5 -14 0 -19 -2 -12 -5z"/>
<path d="M1757 1074 c-14 -14 -7 -22 18 -20 14 0 23 6 22 11 -4 12 -31 18 -40
9z"/>
<path d="M415 1050 c-10 -11 -15 -20 -10 -20 4 0 13 8 20 17 12 16 14 16 29 0
10 -9 28 -17 40 -17 12 0 26 -3 30 -7 4 -4 20 -8 36 -9 26 -1 27 0 17 17 -14
22 -24 24 -30 7 -3 -10 -7 -10 -18 -1 -8 7 -25 10 -37 6 -15 -3 -24 0 -28 11
-8 22 -27 20 -49 -4z"/>
<path d="M1449 1056 c-3 -3 -37 -7 -76 -9 -76 -4 -129 -27 -119 -52 3 -8 -3
-16 -12 -19 -9 -3 -5 -4 10 -2 16 2 33 -3 39 -10 8 -10 35 -14 88 -14 46 0 71
4 62 9 -9 6 -10 11 -2 15 6 4 16 4 21 1 6 -3 10 1 10 9 0 25 28 19 32 -6 3
-21 9 -23 78 -26 41 -2 77 -7 80 -12 4 -6 24 -6 50 -1 l45 8 -68 8 c-38 4 -93
8 -122 8 -49 0 -54 1 -52 21 2 19 -3 21 -68 24 -89 4 -135 -4 -135 -24 0 -8
-4 -13 -10 -9 -5 3 -7 12 -3 20 3 8 -1 15 -8 15 -7 0 -9 3 -5 8 4 4 48 9 96
12 69 4 88 8 82 18 -5 7 -10 10 -13 8z m-29 -81 c0 -10 -10 -15 -30 -15 -20 0
-30 5 -30 15 0 10 10 15 30 15 20 0 30 -5 30 -15z m-73 -11 c-3 -3 -12 -4 -19
-1 -8 3 -5 6 6 6 11 1 17 -2 13 -5z"/>
<path d="M170 1031 c0 -12 5 -21 10 -21 6 0 10 6 10 14 0 8 -4 18 -10 21 -5 3
-10 -3 -10 -14z"/>
<path d="M2607 1043 c-4 -3 -7 -11 -7 -17 0 -6 5 -5 12 2 6 6 9 14 7 17 -3 3
-9 2 -12 -2z"/>
<path d="M1655 1029 c-11 -16 -1 -19 13 -3 7 8 8 14 3 14 -5 0 -13 -5 -16 -11z"/>
<path d="M248 1023 c7 -3 16 -2 19 1 4 3 -2 6 -13 5 -11 0 -14 -3 -6 -6z"/>
<path d="M876 1022 c-3 -6 1 -13 10 -16 23 -9 28 -2 10 13 -8 7 -17 8 -20 3z"/>
<path d="M1760 1020 c0 -5 7 -10 15 -10 8 0 15 5 15 10 0 6 -7 10 -15 10 -8 0
-15 -4 -15 -10z"/>
<path d="M930 1010 c8 -5 26 -9 40 -9 l25 1 -25 8 c-14 4 -32 8 -40 9 -13 1
-13 0 0 -9z"/>
<path d="M1031 1006 c-7 -8 -1 -11 20 -11 33 0 39 10 9 18 -10 3 -24 0 -29 -7z"/>
<path d="M835 990 c-11 -4 -30 -6 -42 -3 -14 3 -23 0 -23 -6 0 -15 76 -9 92 7
14 14 2 14 -27 2z"/>
<path d="M1100 989 c-12 -8 -10 -9 7 -4 12 3 24 1 27 -4 4 -5 24 -9 45 -8 28
1 35 4 27 13 -8 8 -15 8 -28 0 -13 -8 -21 -7 -30 2 -15 15 -28 15 -48 1z"/>
<path d="M994 964 c9 -8 16 -19 16 -24 0 -11 103 -33 128 -28 9 2 -8 8 -40 12
-43 5 -60 13 -74 32 -11 13 -25 24 -32 24 -10 0 -10 -4 2 -16z"/>
<path d="M2348 932 c-43 -26 -78 -51 -78 -55 0 -10 105 46 131 69 8 8 23 14
33 14 9 0 14 5 11 10 -9 15 -13 13 -97 -38z"/>
<path d="M1783 953 c9 -2 23 -2 30 0 6 3 -1 5 -18 5 -16 0 -22 -2 -12 -5z"/>
<path d="M412 893 l1 -48 6 45 6 45 18 -25 c13 -19 17 -20 17 -8 0 15 -27 38
-44 38 -3 0 -5 -21 -4 -47z"/>
<path d="M656 911 c3 -16 1 -37 -5 -48 -9 -15 -10 -11 -11 25 0 71 -19 47 -22
-30 -3 -67 -5 -73 -28 -78 -13 -3 30 -6 95 -6 66 0 96 2 68 4 -29 1 -53 5 -53
8 0 3 8 14 18 25 32 34 47 68 35 80 -13 13 -33 -6 -69 -66 l-24 -40 6 71 c4
48 3 74 -5 78 -7 5 -9 -2 -5 -23z m84 -43 c-1 -18 -28 -53 -36 -46 -5 6 24 58
32 58 2 0 4 -6 4 -12z"/>
<path d="M1608 923 c6 -2 18 -2 25 0 6 3 1 5 -13 5 -14 0 -19 -2 -12 -5z"/>
<path d="M1480 904 l-25 -15 25 6 c14 4 41 10 60 15 l35 8 -35 0 c-19 1 -46
-6 -60 -14z"/>
<path d="M1400 900 c-23 -7 -23 -8 -3 -9 12 -1 27 -3 35 -4 7 -2 10 -2 5 0 -4
3 -5 9 -1 14 6 10 -1 10 -36 -1z"/>
<path d="M1278 883 c12 -2 32 -2 45 0 12 2 2 4 -23 4 -25 0 -35 -2 -22 -4z"/>
<path d="M442 860 c-1 -14 -5 -43 -7 -65 -5 -35 -4 -37 5 -15 6 13 9 42 7 65
-2 22 -4 29 -5 15z"/>
<path d="M1155 870 l-30 -8 35 0 c19 0 46 4 60 8 24 8 24 8 -5 8 -16 0 -43 -4
-60 -8z"/>
<path d="M2250 860 c0 -5 5 -10 11 -10 5 0 7 5 4 10 -3 6 -8 10 -11 10 -2 0
-4 -4 -4 -10z"/>
<path d="M1083 853 c9 -2 23 -2 30 0 6 3 -1 5 -18 5 -16 0 -22 -2 -12 -5z"/>
<path d="M1247 850 c-16 -5 -34 -13 -41 -19 -22 -18 -170 -63 -194 -58 -12 2
-25 0 -28 -4 -3 -5 -20 -9 -37 -10 -28 -1 -26 -2 16 -12 29 -7 45 -16 40 -21
-5 -5 0 -6 10 -3 10 4 30 7 43 7 14 0 23 4 20 9 -3 5 -15 7 -26 4 -11 -3 -20
-1 -20 5 0 5 39 22 88 37 48 15 101 33 117 41 17 7 46 17 65 23 35 9 35 9 5 9
-16 0 -43 -4 -58 -8z"/>
<path d="M2287 825 c3 -22 7 -42 9 -44 8 -9 2 45 -6 64 -7 14 -8 8 -3 -20z"/>
<path d="M1028 843 c6 -2 18 -2 25 0 6 3 1 5 -13 5 -14 0 -19 -2 -12 -5z"/>
<path d="M950 830 c-12 -8 -11 -10 7 -10 12 0 24 -8 26 -17 4 -14 5 -13 6 4 0
12 7 24 14 26 6 3 1 6 -13 6 -14 0 -32 -4 -40 -9z"/>
<path d="M1130 830 c-13 -9 -13 -10 0 -9 8 0 24 4 35 9 20 9 20 9 0 9 -11 0
-27 -4 -35 -9z"/>
<path d="M403 775 c0 -33 2 -45 4 -27 2 18 2 45 0 60 -2 15 -4 0 -4 -33z"/>
<path d="M898 813 c7 -3 16 -2 19 1 4 3 -2 6 -13 5 -11 0 -14 -3 -6 -6z"/>
<path d="M1088 813 c7 -3 16 -2 19 1 4 3 -2 6 -13 5 -11 0 -14 -3 -6 -6z"/>
<path d="M808 793 c7 -3 16 -2 19 1 4 3 -2 6 -13 5 -11 0 -14 -3 -6 -6z"/>
<path d="M480 771 c0 -6 -7 -11 -15 -11 -8 0 -15 -5 -15 -10 0 -11 44 -9 55 2
3 3 -1 11 -10 18 -10 8 -15 9 -15 1z"/>
<path d="M528 759 c-7 -4 1 -9 18 -12 l29 -4 -32 -2 c-59 -2 -34 -17 32 -18
72 -2 95 -10 74 -25 -9 -6 -6 -7 11 -2 29 9 92 7 135 -4 l30 -8 -50 -17 c-83
-28 -286 -110 -282 -113 2 -2 82 25 178 61 96 36 180 65 188 65 28 0 3 10 -60
25 -53 12 -56 14 -19 10 25 -2 65 -7 90 -10 32 -4 39 -3 25 4 -30 14 -354 58
-367 50z m115 -26 c-7 -2 -21 -2 -30 0 -10 3 -4 5 12 5 17 0 24 -2 18 -5z m65
-10 c-10 -2 -26 -2 -35 0 -10 3 -2 5 17 5 19 0 27 -2 18 -5z"/>
<path d="M823 763 c9 -2 25 -2 35 0 9 3 1 5 -18 5 -19 0 -27 -2 -17 -5z"/>
<path d="M2299 745 c-3 -5 -2 -55 3 -110 5 -55 10 -120 12 -145 4 -51 14 -82
26 -75 4 2 1 44 -7 92 -8 49 -17 124 -21 168 -4 44 -10 76 -13 70z"/>
<path d="M195 696 c1 -11 8 -21 15 -21 21 0 22 19 2 32 -16 9 -18 8 -17 -11z"/>
<path d="M455 710 c-20 -9 -20 -9 0 -9 11 0 27 4 35 9 13 9 13 10 0 9 -8 0
-24 -4 -35 -9z"/>
<path d="M163 681 c10 -12 9 -14 -8 -8 -19 7 -19 7 -1 -8 22 -17 35 -12 33 13
0 10 -9 18 -18 18 -15 0 -16 -3 -6 -15z"/>
<path d="M365 680 c-3 -6 1 -7 9 -4 18 7 21 14 7 14 -6 0 -13 -4 -16 -10z"/>
<path d="M561 667 c-6 -6 -36 -11 -65 -11 -30 0 -54 -4 -53 -9 1 -5 -6 -14
-15 -20 -14 -9 -23 -9 -38 1 -15 9 -20 9 -20 0 0 -9 -3 -9 -12 0 -20 20 -32
13 -13 -8 10 -11 16 -21 14 -23 -2 -2 -15 -8 -29 -15 l-25 -12 25 6 c14 3 30
12 35 19 6 6 24 14 40 17 17 3 44 11 60 17 17 6 53 17 80 24 28 7 45 16 39 19
-6 4 -16 2 -23 -5z"/>
<path d="M2066 580 c2 -58 7 -123 10 -145 l7 -40 -52 50 c-55 53 -71 52 -19
-2 40 -42 32 -51 -16 -18 -47 32 -71 33 -31 1 17 -13 35 -25 40 -26 6 -1 23
-12 40 -23 16 -12 36 -23 45 -24 17 -2 18 -15 -19 257 l-10 75 5 -105z"/>
<path d="M141 610 c13 -16 24 -28 27 -26 6 6 -29 56 -39 56 -5 0 0 -13 12 -30z"/>
<path d="M2822 565 c-26 -54 -27 -62 -7 -41 17 17 40 74 33 81 -2 3 -14 -16
-26 -40z"/>
<path d="M2620 590 c36 -11 52 -11 45 0 -3 6 -21 10 -38 9 -31 -1 -31 -1 -7
-9z"/>
<path d="M2782 573 c-5 -16 -13 -37 -18 -47 -5 -14 -4 -17 5 -11 10 6 11 2 7
-16 -5 -17 -4 -20 2 -9 10 17 26 110 19 110 -3 0 -10 -12 -15 -27z"/>
<path d="M246 568 c4 -6 -6 -8 -23 -5 -22 4 -29 1 -29 -13 0 -14 5 -16 21 -10
11 5 32 11 48 14 34 8 36 24 2 24 -13 0 -22 -5 -19 -10z"/>
<path d="M2620 566 c0 -2 7 -6 15 -10 8 -3 15 -1 15 4 0 6 -7 10 -15 10 -8 0
-15 -2 -15 -4z"/>
<path d="M405 524 c-63 -28 -86 -41 -47 -29 35 11 128 54 117 54 -5 0 -37 -11
-70 -25z"/>
<path d="M2503 517 c3 -22 2 -35 -4 -32 -5 4 -9 -2 -9 -12 0 -11 8 -19 18 -20
16 -1 18 4 12 43 -4 24 -10 48 -15 52 -4 4 -5 -10 -2 -31z"/>
<path d="M148 523 c6 -2 18 -2 25 0 6 3 1 5 -13 5 -14 0 -19 -2 -12 -5z"/>
<path d="M2845 517 c-4 -10 -5 -21 -1 -24 10 -10 18 4 13 24 -4 17 -4 17 -12
0z"/>
<path d="M2810 479 c-12 -44 -8 -62 8 -32 9 17 14 73 6 73 -2 0 -8 -18 -14
-41z"/>
<path d="M271 497 c-6 -6 -11 -17 -11 -23 0 -7 -9 -16 -21 -19 -11 -4 -19 -8
-17 -10 5 -5 91 24 101 35 5 4 3 11 -5 16 -20 13 -35 13 -47 1z"/>
<path d="M2865 470 c-4 -6 -11 -8 -16 -5 -5 4 -9 2 -9 -3 0 -5 9 -12 20 -15
15 -4 20 0 20 14 0 21 -6 24 -15 9z"/>
<path d="M2896 464 c-3 -8 1 -14 9 -14 20 0 28 17 11 23 -8 3 -17 -1 -20 -9z"/>
<path d="M152 458 c-7 -7 -12 -17 -12 -24 0 -7 -16 -22 -35 -34 -19 -12 -35
-24 -35 -26 0 -10 45 9 75 30 17 12 36 22 43 21 6 0 12 3 12 8 0 4 0 12 0 18
0 5 -4 7 -10 4 -5 -3 -10 -1 -10 4 0 14 -13 14 -28 -1z"/>
<path d="M2952 462 c-6 -2 -12 -8 -12 -14 0 -5 6 -8 13 -5 6 2 17 -3 24 -12 9
-12 12 -12 13 -3 0 19 -23 39 -38 34z"/>
<path d="M2010 383 c0 -6 5 -15 10 -18 6 -4 8 -15 5 -25 -3 -11 0 -20 10 -24
22 -8 19 23 -5 54 -11 14 -20 20 -20 13z"/>
<path d="M1948 354 c40 -32 42 -50 2 -29 -16 9 -30 12 -30 8 1 -15 29 -58 30
-45 0 8 10 12 28 10 23 -3 27 1 27 22 0 19 -9 29 -39 43 -52 23 -57 21 -18 -9z"/>
<path d="M1798 273 c7 -3 16 -2 19 1 4 3 -2 6 -13 5 -11 0 -14 -3 -6 -6z"/>
<path d="M79 214 c-9 -11 -10 -20 -2 -32 8 -13 23 -16 68 -14 31 1 62 5 68 9
5 3 7 2 4 -3 -8 -14 103 -17 119 -3 10 8 14 8 14 1 0 -7 20 -10 50 -9 38 1 50
5 50 17 0 9 5 21 12 28 16 16 -9 16 -49 1 -15 -6 -30 -10 -32 -9 -2 1 -8 -4
-12 -12 -7 -10 -9 -9 -9 3 0 9 -7 19 -15 23 -10 3 -15 -1 -15 -14 0 -10 -4
-22 -10 -25 -5 -3 -10 3 -10 13 0 27 -39 36 -64 14 -18 -16 -19 -16 -13 0 8
23 -16 30 -42 11 -12 -8 -27 -12 -34 -10 -7 3 -5 6 6 6 9 1 17 6 17 11 0 14
-12 13 -35 -4 -11 -7 -31 -16 -45 -20 -23 -6 -23 -6 -7 7 9 8 17 17 17 21 0
11 -17 6 -31 -10z m354 -20 c11 -11 -3 -24 -18 -18 -8 4 -12 10 -9 15 6 11 18
12 27 3z"/>
<path d="M527 199 c-15 -24 -24 -24 -30 -1 -3 11 -5 8 -6 -9 l-1 -26 95 1 c87
1 95 3 106 23 15 27 7 39 -18 28 -10 -5 -22 -9 -26 -9 -4 -1 -12 -7 -16 -15
-7 -11 -11 -10 -19 5 -14 25 -70 28 -85 3z m45 -21 c-7 -7 -12 -8 -12 -2 0 14
12 26 19 19 2 -3 -1 -11 -7 -17z"/>
<path d="M706 188 c-21 -35 -20 -41 5 -27 17 8 23 8 29 -2 7 -10 15 -8 37 7
28 19 28 19 5 22 -19 3 -21 6 -12 17 10 12 6 14 -18 12 -21 -1 -36 -10 -46
-29z"/>
<path d="M810 200 c0 -5 5 -10 10 -10 6 0 10 5 10 10 0 6 -4 10 -10 10 -5 0
-10 -4 -10 -10z"/>
<path d="M1867 204 c-4 -4 -7 -18 -7 -32 0 -21 2 -23 15 -12 13 11 13 15 3 22
-8 6 -5 7 11 3 17 -5 22 -4 19 6 -5 16 -30 23 -41 13z"/>
<path d="M1993 203 c-7 -2 -13 -12 -13 -21 -1 -15 -2 -15 -11 1 -14 23 -39 22
-39 -3 0 -11 -4 -20 -10 -20 -5 0 -10 -4 -10 -10 0 -18 17 -10 28 13 9 18 11
19 11 4 1 -10 5 -16 10 -12 5 3 13 0 18 -7 5 -9 10 -3 14 17 l6 30 10 -25 c10
-24 10 -24 15 8 4 31 -2 37 -29 25z"/>
<path d="M2368 192 c-15 -22 -17 -23 -27 -5 -11 17 -12 17 -26 -1 -8 -11 -15
-22 -15 -25 0 -3 36 -7 80 -8 l81 -1 -23 21 c-16 14 -18 18 -6 14 23 -8 34 11
12 20 -10 4 -22 0 -29 -10 -16 -22 -23 -21 -27 1 -3 15 -5 14 -20 -6z"/>
<path d="M2513 203 c-7 -2 -13 -12 -13 -21 -1 -15 -3 -14 -15 2 -15 19 -15 19
-15 -1 0 -11 7 -24 16 -27 22 -8 22 -8 27 12 4 16 5 16 6 0 1 -19 41 -26 41
-8 0 5 -6 7 -13 4 -7 -2 -13 4 -14 15 -1 11 6 22 15 24 13 4 12 5 -3 5 -11 0
-26 -2 -32 -5z"/>
<path d="M2721 191 c-7 -13 -6 -24 4 -37 13 -17 14 -18 15 -1 0 9 5 17 11 17
5 0 7 -6 3 -12 -5 -9 -2 -9 9 1 26 20 21 34 -10 26 -23 -5 -25 -4 -14 9 9 10
10 16 3 16 -6 0 -16 -8 -21 -19z"/>
<path d="M2090 187 c0 -20 -16 -23 -23 -4 -4 7 -6 6 -6 -4 -1 -9 6 -22 14 -29
12 -10 15 -7 21 15 3 14 4 29 0 32 -3 4 -6 -1 -6 -10z"/>
<path d="M2113 183 c-3 -10 -8 -21 -9 -24 -2 -4 14 -6 36 -5 22 1 40 -2 40 -7
0 -4 4 -6 9 -2 6 3 9 14 8 24 -1 21 -36 25 -49 6 -5 -6 -8 -3 -8 8 0 9 -5 17
-10 17 -6 0 -13 -8 -17 -17z"/>
<path d="M2250 191 c0 -7 -6 -11 -14 -8 -10 4 -12 0 -9 -14 6 -21 23 -26 23
-6 1 7 6 5 14 -5 19 -26 26 -22 26 15 0 24 -3 28 -10 17 -9 -13 -11 -13 -20 0
-7 12 -10 12 -10 1z"/>
<path d="M2578 183 c-7 -27 26 -38 47 -16 12 11 15 11 15 1 0 -8 13 -14 34
-15 31 -1 33 0 27 25 -4 21 -6 23 -9 8 -3 -15 -6 -16 -14 -5 -8 11 -11 11 -15
1 -4 -10 -9 -9 -19 5 -13 17 -15 17 -27 1 -12 -15 -14 -15 -23 0 -9 14 -11 14
-16 -5z"/>
<path d="M1027 132 c-29 -32 -19 -61 18 -52 6 1 15 3 21 3 20 1 5 67 -15 67
-4 0 -15 -8 -24 -18z m36 -8 c11 -11 -5 -34 -24 -34 -22 0 -24 11 -7 28 13 13
22 15 31 6z"/>
<path d="M177 134 c-3 -3 -23 -7 -44 -7 -33 -2 -38 -5 -41 -28 -3 -25 -3 -25
70 -25 40 1 79 5 86 9 7 5 12 4 12 -2 0 -6 5 -11 11 -11 6 0 8 7 5 16 -4 10 1
22 11 29 14 11 10 12 -28 10 -24 -1 -52 -5 -61 -9 -10 -4 -23 -6 -30 -3 -8 4
-6 6 5 6 9 1 17 6 17 11 0 11 -4 13 -13 4z m57 -41 c-12 -9 -21 -10 -28 -3
-14 14 11 31 32 22 12 -4 12 -7 -4 -19z"/>
<path d="M843 133 c-7 -3 -13 -9 -13 -14 0 -6 5 -7 12 -3 8 5 9 2 5 -9 -3 -10
-2 -17 4 -17 6 0 8 -4 5 -8 -6 -10 95 -14 110 -4 14 9 27 62 15 62 -5 0 -11
-4 -13 -9 -1 -4 -13 -12 -25 -15 -18 -6 -23 -3 -23 10 0 15 -4 14 -25 -6 -20
-19 -25 -20 -25 -7 0 19 -10 26 -27 20z m119 -38 c0 -5 -5 -11 -11 -13 -6 -2
-11 4 -11 13 0 9 5 15 11 13 6 -2 11 -8 11 -13z m-42 1 c0 -3 -4 -8 -10 -11
-5 -3 -10 -1 -10 4 0 6 5 11 10 11 6 0 10 -2 10 -4z"/>
<path d="M380 124 c0 -7 9 -22 20 -35 25 -31 26 -12 0 21 -11 14 -20 20 -20
14z"/>
<path d="M415 120 c-12 -20 18 -48 52 -48 18 0 33 4 33 10 0 5 -4 6 -10 3 -5
-3 -10 1 -10 9 0 23 17 20 25 -4 3 -11 12 -20 20 -20 26 0 44 12 39 25 -3 8
-12 11 -20 8 -8 -3 -14 0 -14 5 0 6 8 12 18 15 9 2 -2 4 -26 3 -31 0 -46 -5
-53 -18 -11 -21 -31 -25 -23 -4 6 15 -22 30 -31 16z"/>
<path d="M588 119 c-26 -15 -12 -37 20 -32 21 4 24 2 12 -6 -13 -9 -13 -11 3
-11 9 0 17 7 17 15 0 9 -9 15 -22 15 -22 1 -23 1 -4 15 23 17 2 21 -26 4z"/>
<path d="M645 121 c-3 -5 -1 -12 5 -16 12 -7 30 2 30 16 0 12 -27 12 -35 0z"/>
<path d="M752 119 c-13 -5 -28 -6 -33 -3 -12 7 -39 -14 -39 -31 0 -17 30 -28
44 -16 6 5 13 10 16 10 3 1 16 5 30 8 l25 7 -25 7 c-24 7 -24 7 -2 8 12 1 22
6 22 11 0 12 -7 12 -38 -1z m-27 -30 c-4 -5 -13 -9 -22 -9 -13 0 -13 3 -3 15
13 15 35 11 25 -6z"/>
<path d="M1104 115 c-10 -26 3 -47 23 -37 10 5 28 8 41 7 12 -1 22 3 22 8 0 5
7 4 15 -3 13 -11 15 -8 15 14 0 30 -14 34 -28 9 -9 -16 -11 -16 -27 0 -20 21
-54 22 -61 2z m36 -4 c0 -12 -20 -25 -27 -18 -7 7 6 27 18 27 5 0 9 -4 9 -9z"/>
<path d="M2517 123 c-13 -13 -7 -33 11 -33 12 0 13 -3 5 -8 -7 -5 4 -8 27 -9
44 -2 72 19 51 40 -9 9 -16 9 -31 -1 -11 -6 -28 -12 -37 -11 -11 0 -13 3 -5 6
6 2 12 9 12 14 0 10 -23 12 -33 2z m88 -34 c-4 -5 -13 -9 -22 -9 -13 0 -13 3
-3 15 13 15 35 11 25 -6z"/>
<path d="M301 101 c-15 -27 -15 -28 18 -28 25 0 28 3 22 21 -11 28 -28 31 -40
7z"/>
<path d="M2145 100 c-9 -29 5 -42 50 -46 29 -3 38 1 45 19 7 17 9 18 9 5 1
-10 5 -18 10 -18 5 0 16 -3 24 -6 20 -7 58 31 51 51 -8 19 -38 19 -54 0 -8
-10 -18 -12 -29 -6 -9 5 -35 12 -58 16 -37 6 -42 4 -48 -15z m29 -14 c-3 -9
-10 -13 -15 -10 -5 3 -3 11 4 19 15 16 19 13 11 -9z m149 17 c11 -10 -14 -33
-36 -33 -19 0 -20 1 -2 20 19 21 28 24 38 13z m-93 -18 c0 -8 -7 -15 -15 -15
-16 0 -20 12 -8 23 11 12 23 8 23 -8z"/>
<path d="M2402 108 c-25 -25 -4 -60 23 -38 10 8 19 8 33 1 22 -12 42 3 42 31
0 21 -30 24 -48 6 -9 -9 -12 -9 -12 0 0 7 -6 12 -13 12 -7 0 -18 -5 -25 -12z
m18 -23 c-7 -9 -15 -13 -18 -10 -3 2 1 11 8 20 7 9 15 13 18 10 3 -2 -1 -11
-8 -20z m70 16 c0 -12 -20 -25 -27 -18 -7 7 6 27 18 27 5 0 9 -4 9 -9z"/>
<path d="M355 100 c3 -5 8 -10 11 -10 2 0 4 5 4 10 0 6 -5 10 -11 10 -5 0 -7
-4 -4 -10z"/>
<path d="M650 80 c0 -5 5 -10 11 -10 5 0 7 5 4 10 -3 6 -8 10 -11 10 -2 0 -4
-4 -4 -10z"/>
</g>
</svg>
