<?xml version="1.0" standalone="no"?>
<!DOCTYPE svg PUBLIC "-//W3C//DTD SVG 20010904//EN"
 "http://www.w3.org/TR/2001/REC-SVG-20010904/DTD/svg10.dtd">
<svg version="1.0" xmlns="http://www.w3.org/2000/svg"
 width="468pt" height="228pt" viewBox="0 0 468 228"
 preserveAspectRatio="xMidYMid meet">
<metadata>
Created by potrace 1.8, written by Peter Selinger 2001-2007
</metadata>
<g transform="translate(0,228) scale(0.160274,-0.160274)"
fill="#000000" stroke="none">
<path d="M285 1393 c4 -10 18 -49 32 -86 14 -37 27 -66 30 -64 3 4 -21 83 -42
139 -5 13 -2 15 12 12 15 -4 27 -30 49 -105 16 -55 30 -94 32 -87 1 7 -10 56
-26 108 -27 94 -28 95 -61 98 -28 2 -32 0 -26 -15z"/>
<path d="M349 1210 c-3 -14 -9 -24 -15 -23 -118 22 -214 29 -214 16 1 -22 33
-45 69 -50 31 -4 41 -10 41 -24 0 -11 5 -19 10 -19 6 0 10 -4 10 -10 0 -5 -20
-10 -45 -10 -25 0 -45 -2 -45 -4 0 -3 18 -38 40 -78 45 -83 48 -98 21 -98 -23
0 -36 -17 -36 -45 0 -14 -9 -21 -33 -26 -18 -4 -36 -9 -39 -13 -11 -10 30 -6
87 9 87 23 181 20 241 -10 29 -13 56 -22 61 -19 15 9 95 -33 95 -50 0 -9 -6
-16 -14 -16 -15 0 -64 29 -75 45 -5 6 -11 5 -17 -4 -8 -12 -12 -12 -25 -2 -8
7 -24 10 -36 6 -13 -4 -22 -1 -26 9 -9 23 -25 20 -64 -14 -40 -34 -33 -40 11
-10 21 15 33 18 46 11 20 -11 69 -24 93 -26 8 0 29 -8 47 -18 18 -9 48 -17 68
-17 21 0 35 -5 36 -12 1 -7 5 -2 9 12 8 24 8 24 9 3 1 -13 5 -23 11 -23 5 0 8
17 7 38 -1 27 2 37 13 37 16 0 16 -7 4 -39 -5 -14 -4 -17 4 -12 7 4 12 2 12
-4 0 -17 91 -6 101 12 8 14 23 14 92 5 15 -2 27 0 27 4 0 5 -8 9 -18 9 -10 0
-22 3 -25 7 -14 13 -63 9 -82 -7 -24 -21 -59 -30 -74 -20 -14 8 -3 41 13 38 6
-1 22 4 35 11 12 7 37 14 54 14 22 1 33 8 35 20 2 10 -3 17 -12 17 -17 0 -19
8 -16 53 1 20 -3 27 -16 27 -14 0 -15 3 -7 11 9 9 8 19 -3 40 -8 16 -19 29
-25 29 -15 0 -35 22 -43 48 -8 24 -46 31 -46 8 0 -10 -13 -13 -50 -10 -39 3
-50 0 -50 -11 0 -8 -12 -22 -26 -32 -15 -9 -33 -33 -41 -52 -18 -43 -22 -38
-63 85 l-29 86 74 -7 75 -7 0 25 c0 26 -22 37 -70 36 -27 -1 -22 -4 23 -13 15
-4 27 -11 27 -18 0 -7 -18 -9 -57 -5 -61 6 -88 27 -50 39 18 5 16 6 -11 7 -18
1 -31 -3 -27 -8 7 -13 -12 -24 -26 -15 -8 5 -8 9 1 14 9 6 7 10 -8 14 -11 4
-25 19 -30 34 l-9 27 -4 -25z m-116 -20 c28 0 30 -2 16 -15 -18 -18 -100 -7
-107 14 -4 11 3 13 28 8 18 -4 46 -7 63 -7z m78 -29 c-8 -5 -20 -7 -28 -4 -21
8 -15 13 15 13 20 0 23 -3 13 -9z m-31 -21 c12 -8 11 -10 -7 -10 -13 0 -23 5
-23 10 0 13 11 13 30 0z m126 -28 c-5 -8 49 -225 60 -244 3 -4 10 -5 16 -2 15
10 28 -17 15 -31 -10 -10 -18 -10 -39 1 -29 15 -35 28 -18 39 14 9 0 35 -20
35 -15 0 -18 14 -24 95 -7 86 -4 115 10 115 3 0 3 -4 0 -8z m-32 -73 c12 -124
15 -119 -55 -119 l-61 0 6 31 c3 17 6 58 6 90 l0 59 49 0 48 0 7 -61z m-124
-16 c0 -53 0 -53 -29 5 l-21 42 25 0 c23 0 25 -3 25 -47z m240 -122 c0 -10 -3
-11 -9 -5 -9 9 -42 123 -40 140 0 14 49 -119 49 -135z m240 103 c0 -8 4 -14
10 -14 6 0 6 -9 -1 -26 -5 -15 -8 -28 -7 -29 17 -14 48 -24 48 -15 0 5 -4 10
-10 10 -5 0 -10 11 -10 25 0 24 1 24 20 8 13 -12 18 -24 14 -40 -5 -17 -2 -23
10 -23 9 0 16 -7 16 -15 0 -9 -6 -12 -15 -9 -8 4 -15 1 -15 -6 0 -6 -4 -8 -10
-5 -5 3 -10 1 -10 -4 0 -6 -9 -11 -20 -11 -11 0 -20 -4 -20 -10 0 -5 7 -10 15
-10 8 0 15 -4 15 -10 0 -5 9 -1 21 11 22 22 17 24 69 -20 3 -2 -3 -1 -13 2
-10 4 -28 2 -40 -5 -28 -15 -67 -19 -67 -7 0 5 6 9 13 9 8 0 7 4 -3 10 -21 14
-30 12 -30 -4 0 -25 -39 -26 -59 0 -10 13 -21 21 -24 17 -4 -3 -13 0 -22 7
-20 17 -32 5 -15 -15 12 -14 10 -16 -13 -13 -34 5 -35 7 -40 49 -3 28 1 39 15
48 12 7 17 18 14 28 -9 23 3 34 24 23 13 -7 21 -7 25 0 3 5 1 10 -4 10 -6 0
-11 5 -11 11 0 5 5 7 12 3 7 -5 9 -2 5 8 -8 23 0 27 41 17 28 -6 39 -5 45 7
10 17 27 9 27 -12z m-430 -119 c0 -8 -4 -15 -10 -15 -5 0 -10 7 -10 15 0 8 5
15 10 15 6 0 10 -7 10 -15z m50 0 c0 -8 -7 -15 -15 -15 -8 0 -15 7 -15 15 0 8
7 15 15 15 8 0 15 -7 15 -15z m-130 -16 c0 -6 -4 -7 -10 -4 -5 3 -10 11 -10
16 0 6 5 7 10 4 6 -3 10 -11 10 -16z m31 -2 c-10 -9 -11 -8 -5 6 3 10 9 15 12
12 3 -3 0 -11 -7 -18z m389 -108 c0 -11 -4 -17 -10 -14 -5 3 -10 13 -10 21 0
8 5 14 10 14 6 0 10 -9 10 -21z"/>
<path d="M2491 1068 c-6 -16 -4 -25 5 -31 9 -5 14 -26 14 -59 l0 -50 -37 6
c-21 4 -46 9 -56 12 -16 5 -18 -1 -17 -58 1 -34 -1 -78 -5 -95 -6 -27 -4 -33
9 -33 9 0 16 -3 16 -8 0 -4 -18 -7 -40 -7 -39 0 -40 0 -19 15 19 15 20 20 10
75 -6 32 -11 60 -11 62 0 2 -9 3 -19 3 -23 0 -66 -64 -57 -85 4 -12 -5 -15
-44 -15 -47 0 -50 2 -50 25 0 28 -29 105 -39 105 -18 0 -40 -71 -36 -114 4
-36 1 -46 -10 -46 -8 0 -18 -1 -21 -2 -4 -2 -20 33 -36 77 -52 141 -55 148
-74 162 -26 19 -109 13 -109 -7 0 -11 13 -14 58 -14 43 1 57 -3 57 -13 0 -8
14 -46 31 -85 40 -92 85 -271 104 -422 9 -66 26 -169 38 -228 18 -91 24 -108
40 -108 10 0 21 9 24 20 3 11 9 17 14 14 5 -3 9 3 9 13 1 15 3 15 21 -6 11
-13 22 -21 25 -19 3 3 -2 46 -10 94 -9 49 -18 126 -22 172 -4 45 -11 82 -16
82 -10 0 -1 -172 13 -235 13 -63 10 -73 -11 -33 -11 20 -24 40 -30 43 -13 8
-13 4 5 -38 21 -50 19 -64 -6 -41 -12 10 -24 17 -28 14 -3 -3 -12 33 -18 80
-23 154 -65 405 -70 413 -2 4 2 9 9 12 12 4 268 13 268 9 0 -1 -36 -23 -80
-50 -73 -45 -95 -64 -71 -64 5 0 40 20 77 45 36 25 69 45 73 45 3 0 4 -29 3
-65 l-4 -65 -32 0 c-27 0 -34 -5 -44 -33 -16 -45 -16 -47 11 -47 12 0 29 -5
37 -10 12 -8 9 -10 -12 -10 -18 0 -29 -7 -33 -20 -9 -29 1 -39 46 -46 36 -6
39 -9 39 -40 0 -37 29 -216 36 -223 2 -3 10 1 17 8 9 9 9 14 0 19 -6 4 -14 45
-18 92 -3 47 -8 95 -11 108 -4 20 -1 22 41 22 l45 0 0 -92 c0 -64 -3 -88 -10
-78 -16 25 -11 -5 8 -46 l17 -39 3 108 c1 59 7 107 12 107 4 0 10 -4 12 -9 2
-5 23 -12 48 -15 33 -5 41 -4 30 3 -8 6 -25 11 -37 11 -13 0 -23 5 -23 10 0
14 13 13 59 -6 41 -16 45 -23 56 -109 10 -74 17 -86 25 -40 4 22 4 42 0 45 -4
3 -10 35 -14 73 l-7 67 43 -1 c24 0 80 -6 126 -13 63 -9 82 -9 82 0 0 19 -42
25 -204 30 -83 2 -184 9 -224 14 -40 6 -96 10 -123 10 -36 0 -49 4 -49 14 0 9
12 16 28 18 19 2 28 9 30 25 3 22 -3 26 -61 35 -15 3 -16 6 -5 20 11 15 22 16
87 8 41 -6 170 -14 288 -20 118 -5 218 -12 223 -15 6 -4 10 0 10 8 0 21 -32
27 -146 27 -56 0 -135 3 -177 6 l-77 7 0 63 c0 34 4 66 10 69 6 3 7 -1 4 -9
-4 -11 0 -16 11 -16 10 0 13 5 9 12 -5 8 -2 9 12 3 10 -5 29 -9 42 -9 17 -1
22 -7 22 -27 0 -43 12 -89 23 -89 6 0 7 28 3 80 -4 44 -6 80 -4 80 8 0 244
-51 256 -55 6 -2 12 2 12 10 0 7 -8 16 -17 19 -26 8 -408 76 -426 76 -9 0 -27
4 -41 9 -18 8 -23 15 -19 31 4 17 12 20 37 18 22 -2 31 1 31 12 0 10 -12 16
-32 18 -30 3 -33 6 -33 38 0 22 5 34 14 34 19 0 351 -57 406 -69 60 -14 87
-14 74 -1 -10 10 -116 34 -236 55 l-38 6 0 55 c0 30 6 63 13 75 10 17 9 22 -7
35 -22 16 -106 19 -106 4 0 -5 13 -10 29 -10 54 0 56 -4 53 -86 -3 -62 -6 -74
-19 -70 -8 3 -28 6 -44 6 l-29 0 0 64 c0 42 -4 66 -12 70 -10 5 -10 7 0 12 17
8 15 24 -3 24 -9 0 -19 -10 -24 -22z m-331 -178 c0 -5 -4 -10 -10 -10 -5 0
-10 5 -10 10 0 6 5 10 10 10 6 0 10 -4 10 -10z m177 -14 c-3 -8 -1 -16 4 -18
6 -2 12 -16 13 -30 3 -23 1 -26 -15 -18 -22 12 -39 13 -20 1 10 -6 11 -13 3
-27 -9 -17 -11 -16 -18 10 -5 20 -1 39 11 63 18 33 32 45 22 19z m-167 -26 c0
-5 -6 -10 -14 -10 -8 0 -18 5 -21 10 -3 6 3 10 14 10 12 0 21 -4 21 -10z m0
-61 c0 -24 -4 -30 -17 -27 -11 2 -19 14 -21 31 -3 22 1 27 17 27 17 0 21 -6
21 -31z m100 -9 c19 -12 11 -19 -28 -24 -35 -4 -58 7 -48 23 9 13 55 14 76 1z
m-150 -40 c0 -5 -7 -10 -15 -10 -8 0 -15 5 -15 10 0 6 7 10 15 10 8 0 15 -4
15 -10z m370 -101 l0 -80 -47 3 -48 3 -5 80 -5 80 53 -3 52 -4 0 -79z"/>
<path d="M10 1052 c0 -23 23 -45 35 -34 5 4 5 -1 2 -11 -8 -22 17 -51 38 -43
8 3 15 1 15 -3 0 -5 -5 -11 -11 -13 -7 -2 -7 -12 0 -30 7 -19 7 -29 0 -34 -6
-3 -8 -12 -5 -20 3 -7 -2 -20 -10 -29 -19 -18 -38 -20 -29 -2 4 6 1 5 -7 -4
-7 -9 -19 -14 -25 -12 -7 3 -13 0 -13 -5 0 -6 9 -14 20 -17 26 -8 26 -25 -1
-25 -11 0 -18 -4 -15 -9 3 -4 33 -9 66 -10 58 -1 60 0 60 24 0 14 -4 25 -10
25 -5 0 -10 -7 -10 -15 0 -20 -39 -19 -47 0 -7 20 24 55 49 55 12 0 18 7 18
21 0 15 -4 19 -16 15 -14 -5 -15 -4 -4 9 10 12 10 18 0 30 -10 12 -10 19 -2
27 21 21 14 41 -12 36 -27 -5 -40 11 -30 37 4 10 0 15 -15 15 -12 0 -21 6 -21
14 0 8 -4 18 -10 21 -5 3 -10 -3 -10 -13z"/>
<path d="M1397 973 c-2 -5 0 -21 4 -38 6 -28 7 -28 9 -5 1 14 4 19 7 12 3 -7
1 -20 -3 -30 -4 -9 -8 -33 -9 -52 -4 -66 -9 -70 -94 -70 -80 -1 -121 -19 -121
-54 0 -11 -7 -15 -22 -12 -26 3 -38 36 -13 36 23 0 38 46 24 73 -7 12 -12 30
-13 41 -1 28 -33 33 -41 7 -3 -12 -15 -26 -26 -31 -26 -15 -24 -49 6 -80 23
-24 24 -28 10 -40 -12 -10 -18 -10 -29 0 -8 6 -23 10 -33 9 -10 -1 -27 2 -37
6 -17 8 -16 10 15 20 37 13 40 31 14 82 -8 15 -12 30 -9 35 3 4 -4 8 -16 8
-30 0 -68 -87 -47 -108 12 -12 11 -17 -9 -37 -12 -13 -28 -25 -34 -27 -7 -2
-4 -13 9 -30 21 -26 60 -38 144 -43 66 -4 39 12 -32 19 -57 6 -72 11 -85 30
-11 17 -12 26 -3 35 14 14 44 14 53 0 3 -6 17 -8 29 -5 13 3 26 2 30 -4 3 -5
27 -10 53 -10 26 0 55 -1 66 -1 10 0 29 -7 41 -15 24 -16 151 -18 161 -3 3 5
0 9 -5 9 -6 0 -11 4 -11 10 0 5 7 7 15 4 8 -4 15 -1 15 5 0 21 29 11 32 -11 3
-22 7 -23 78 -21 l75 2 -43 -14 c-23 -7 -75 -16 -115 -19 -39 -3 -85 -9 -102
-14 l-30 -9 43 -6 c28 -5 59 -2 90 7 26 9 94 23 152 32 193 30 196 32 55 34
-71 2 -144 2 -162 1 -31 -2 -32 -1 -23 30 5 18 7 36 4 41 -4 6 -6 27 -6 49 0
21 -3 41 -8 44 -5 3 -12 30 -15 60 -5 36 -12 55 -21 55 -7 0 -15 -3 -17 -7z
m-366 -137 c14 -16 10 -53 -6 -60 -9 -3 -15 0 -15 10 0 8 -4 12 -10 9 -13 -8
-13 15 2 56 10 27 13 30 16 14 2 -11 8 -24 13 -29z m135 -43 c-2 -2 -14 -6
-27 -8 -21 -4 -22 -3 -8 8 15 11 15 14 1 27 -14 13 -15 12 -10 -2 4 -10 1 -19
-8 -22 -22 -9 -17 32 6 44 11 6 20 18 21 28 1 9 7 -3 15 -27 8 -25 12 -46 10
-48z m282 -10 c2 -20 -1 -31 -10 -30 -7 0 -52 -1 -100 -1 -82 -2 -88 -3 -88
-23 0 -11 -4 -18 -8 -15 -5 3 -8 15 -7 28 2 22 5 23 93 23 85 0 106 5 82 20
-15 9 1 36 19 33 10 -2 17 -15 19 -35z m-88 -68 c0 -10 -10 -15 -30 -15 -20 0
-30 5 -30 15 0 10 10 15 30 15 20 0 30 -5 30 -15z m-73 -11 c-3 -3 -12 -4 -19
-1 -8 3 -5 6 6 6 11 1 17 -2 13 -5z"/>
<path d="M1901 950 c0 -8 6 -36 13 -61 8 -26 17 -73 21 -105 8 -58 7 -59 -12
-42 -11 11 -27 15 -41 11 -12 -3 -29 0 -37 7 -8 6 -23 9 -35 5 -13 -4 -22 -1
-26 9 -3 9 -13 16 -22 16 -12 0 -10 -6 8 -25 13 -14 21 -27 18 -30 -3 -3 -49
-4 -102 -3 -92 3 -96 4 -83 21 7 10 29 23 47 27 34 8 34 9 -10 7 -38 -2 -45
-5 -50 -26 -7 -29 -27 -39 -32 -15 -5 26 -60 28 -76 4 -12 -19 -3 -28 12 -12
15 14 55 8 59 -10 5 -16 18 -18 119 -19 128 -1 210 -10 191 -22 -22 -14 -15
-37 31 -95 77 -101 94 -146 106 -278 5 -66 13 -132 16 -149 6 -30 6 -29 -47
20 -29 28 -58 57 -65 65 -7 8 -16 12 -19 8 -4 -4 10 -24 32 -45 66 -65 72 -78
18 -44 -57 36 -72 32 -28 -7 40 -35 70 -82 53 -82 -10 0 -10 -3 0 -15 34 -41
42 8 8 50 l-22 28 27 -18 c15 -9 27 -22 27 -27 0 -6 7 -8 15 -4 8 3 15 1 15
-4 0 -6 5 -10 11 -10 7 0 9 9 6 23 -3 12 -13 90 -22 172 -19 171 -42 235 -113
324 -35 42 -42 57 -35 73 8 18 12 17 55 -21 53 -47 61 -50 48 -18 -5 12 -16
74 -25 137 -14 99 -52 225 -54 180z m-15 -216 c8 3 16 1 19 -4 4 -6 -13 -10
-39 -10 -34 0 -46 4 -46 15 0 12 5 13 27 4 14 -5 32 -8 39 -5z m64 -44 c0 -23
-8 -25 -32 -6 -25 18 -22 26 7 26 18 0 25 -5 25 -20z"/>
<path d="M1477 863 c-14 -13 -6 -18 31 -17 55 1 64 3 57 14 -7 11 -78 14 -88
3z"/>
<path d="M2590 860 c0 -5 4 -10 9 -10 6 0 13 5 16 10 3 6 -1 10 -9 10 -9 0
-16 -4 -16 -10z"/>
<path d="M1294 835 c-18 -13 -17 -14 16 -15 44 0 80 10 80 21 0 15 -75 10 -96
-6z"/>
<path d="M1702 818 c-18 -18 -14 -28 11 -28 21 -1 21 -1 3 -15 -21 -16 -16
-31 7 -22 18 7 27 53 14 66 -14 14 -20 14 -35 -1z"/>
<path d="M2540 780 c-8 -5 -11 -12 -8 -16 10 -9 38 3 38 16 0 12 -10 13 -30 0z"/>
<path d="M180 760 c0 -5 6 -10 14 -10 8 0 18 5 21 10 3 6 -3 10 -14 10 -12 0
-21 -4 -21 -10z"/>
<path d="M260 760 c0 -5 9 -10 21 -10 11 0 17 5 14 10 -3 6 -13 10 -21 10 -8
0 -14 -4 -14 -10z"/>
<path d="M816 711 c-4 -5 3 -7 14 -4 23 6 26 13 6 13 -8 0 -17 -4 -20 -9z"/>
<path d="M347 673 c-3 -5 -5 -48 -6 -96 -1 -49 -5 -95 -7 -102 -3 -7 -1 -16 4
-19 9 -5 29 160 23 192 -1 6 3 12 9 12 9 0 10 -28 7 -97 -5 -84 -4 -90 4 -43
5 30 13 73 18 96 5 28 4 44 -5 52 -15 13 -41 16 -47 5z"/>
<path d="M560 612 c0 -72 -7 -86 -45 -94 -11 -3 21 -5 70 -6 50 -1 148 -8 220
-17 71 -8 134 -15 140 -15 5 0 3 -5 -5 -10 -13 -8 -13 -10 1 -10 33 0 79 13
79 22 0 6 -11 8 -25 6 -14 -3 -25 -2 -25 1 0 8 319 111 342 111 9 0 20 5 24
11 4 8 -3 9 -22 6 -16 -3 -61 -11 -101 -18 -40 -7 -71 -17 -70 -22 3 -15 -163
-67 -197 -61 -16 3 -32 0 -36 -6 -5 -8 -43 -7 -133 5 -69 8 -129 15 -134 15
-4 0 0 5 10 11 20 12 59 84 50 93 -13 13 -42 5 -47 -12 -4 -10 -17 -33 -29
-50 l-24 -31 1 67 c1 62 -1 67 -21 70 -22 3 -23 0 -23 -66z m32 8 c-6 -41 -12
-38 -12 6 0 19 4 33 8 30 5 -3 7 -19 4 -36z m74 -32 c-9 -12 -16 -19 -16 -15
0 11 24 47 28 42 2 -2 -3 -14 -12 -27z"/>
<path d="M1138 643 c7 -3 16 -2 19 1 4 3 -2 6 -13 5 -11 0 -14 -3 -6 -6z"/>
<path d="M1200 628 c-135 -19 -356 -61 -370 -70 -10 -6 1 -7 33 -3 39 5 47 3
47 -9 0 -10 8 -16 23 -15 12 0 16 3 10 6 -7 2 -13 10 -13 17 0 16 66 30 230
52 69 9 129 20 135 25 11 11 -5 10 -95 -3z"/>
<path d="M2186 612 c-3 -5 1 -15 9 -22 16 -14 20 -3 6 19 -5 8 -11 9 -15 3z"/>
<path d="M2221 575 c0 -16 4 -39 9 -50 7 -16 9 -14 9 15 0 19 -4 42 -9 50 -7
11 -10 8 -9 -15z"/>
<path d="M1040 565 c-30 -12 -32 -13 -10 -13 14 0 43 5 65 13 38 12 38 13 10
13 -16 0 -46 -6 -65 -13z"/>
<path d="M960 541 c0 -5 9 -7 20 -4 11 3 20 7 20 9 0 2 -9 4 -20 4 -11 0 -20
-4 -20 -9z"/>
<path d="M748 533 c6 -2 18 -2 25 0 6 3 1 5 -13 5 -14 0 -19 -2 -12 -5z"/>
<path d="M401 509 c-14 -24 -13 -27 17 -32 29 -4 40 -17 15 -17 -25 0 -124
-30 -137 -42 -16 -13 7 -10 75 13 75 24 156 34 195 25 21 -6 25 -9 14 -16 -22
-13 -5 -23 18 -11 23 12 93 13 132 2 20 -5 1 -15 -105 -55 -72 -26 -182 -69
-245 -96 -63 -27 -119 -46 -125 -42 -23 15 -43 10 -55 -13 -16 -30 -34 -37
-66 -25 -30 12 -68 -4 -60 -25 3 -9 -10 -22 -34 -36 -35 -20 -52 -39 -35 -39
12 0 90 43 96 53 4 5 13 7 20 5 8 -3 21 0 29 7 21 16 101 47 108 41 3 -3 10 0
16 7 6 8 40 25 76 40 117 47 446 167 460 168 8 1 -3 7 -25 14 l-40 14 60 -5
c97 -8 43 11 -80 29 -131 19 -198 27 -248 31 -20 2 -42 8 -50 14 -10 8 -16 6
-26 -9z m176 -35 c-3 -3 -12 -4 -19 -1 -8 3 -5 6 6 6 11 1 17 -2 13 -5z"/>
<path d="M863 523 c9 -2 23 -2 30 0 6 3 -1 5 -18 5 -16 0 -22 -2 -12 -5z"/>
<path d="M2547 503 c-12 -11 -8 -23 8 -23 8 0 15 7 15 15 0 16 -12 20 -23 8z"/>
<path d="M128 459 c18 -19 15 -34 -5 -18 -14 12 -15 12 -9 0 7 -10 3 -12 -15
-6 l-24 8 20 -19 c12 -11 15 -15 8 -11 -7 5 -18 7 -25 5 -8 -3 -4 -9 11 -17
16 -9 26 -10 34 -2 6 6 16 7 28 1 27 -15 35 8 12 38 -11 14 -26 28 -34 30 -11
4 -12 2 -1 -9z"/>
<path d="M2600 436 c0 -9 7 -16 16 -16 17 0 14 22 -4 28 -7 2 -12 -3 -12 -12z"/>
<path d="M500 426 c9 -12 4 -17 -30 -26 -29 -8 -51 -8 -71 -1 -18 6 -29 6 -29
0 0 -5 6 -9 13 -9 6 0 3 -7 -8 -16 -11 -8 -26 -11 -35 -8 -8 4 -22 6 -32 6 -9
0 -24 8 -34 19 -9 10 -24 19 -32 19 -10 0 0 -14 23 -35 l39 -34 -30 -12 c-16
-6 -44 -12 -61 -12 -19 1 -30 -3 -27 -9 14 -23 -43 7 -78 40 -21 20 -41 32
-45 28 -5 -4 11 -25 35 -45 34 -30 40 -40 30 -48 -31 -25 -53 -19 -86 25 -41
53 -50 50 -20 -7 20 -35 21 -43 8 -51 -28 -17 -1 -23 34 -6 19 9 40 16 48 16
8 0 19 5 25 11 6 6 33 15 60 20 26 5 70 20 96 34 27 14 55 25 63 25 7 0 28 6
46 14 18 8 49 17 68 21 52 8 67 20 51 39 -8 9 -18 16 -23 16 -6 0 -5 -6 2 -14z"/>
<path d="M540 424 c0 -8 5 -12 10 -9 6 3 10 10 10 16 0 5 -4 9 -10 9 -5 0 -10
-7 -10 -16z"/>
<path d="M2716 302 c-12 -35 -14 -56 -7 -73 5 -13 10 -19 10 -13 1 7 8 15 17
18 14 5 15 1 10 -31 -6 -35 -5 -37 9 -19 8 11 15 25 16 30 0 6 4 1 9 -11 13
-33 40 -30 40 5 0 21 -2 24 -10 12 -7 -11 -10 -5 -10 25 -1 40 -1 40 -15 15
-18 -31 -20 -7 -4 38 20 57 2 58 -24 2 -26 -56 -35 -52 -18 7 15 53 -6 48 -23
-5z"/>
<path d="M2555 311 c-3 -5 4 -13 16 -16 28 -9 36 1 10 14 -12 7 -22 7 -26 2z"/>
<path d="M2433 278 c16 -44 18 -60 8 -54 -7 5 -11 -2 -11 -16 0 -16 6 -24 19
-25 16 -1 18 5 15 43 -2 25 -6 49 -9 55 -9 14 -28 11 -22 -3z"/>
<path d="M2840 210 c-14 -27 -9 -34 13 -17 11 8 14 17 8 26 -7 11 -11 9 -21
-9z"/>
<path d="M2885 196 c-17 -12 -17 -13 8 -18 28 -5 32 -1 19 19 -7 10 -12 10
-27 -1z"/>
<path d="M1890 92 c25 -23 30 -31 18 -32 -9 0 -20 5 -23 10 -13 20 -25 9 -19
-16 l7 -27 -33 19 c-24 14 -34 16 -37 7 -3 -10 -10 -10 -25 -2 -25 14 -35 4
-17 -17 12 -15 11 -16 -10 -9 -17 5 -22 4 -18 -6 2 -8 11 -12 18 -10 33 8 44
7 52 -3 5 -8 11 -6 21 6 8 12 16 14 23 7 11 -11 43 -2 43 12 0 5 13 6 30 3 28
-6 29 -5 27 25 -1 23 -9 33 -27 40 -14 5 -34 12 -45 16 -12 5 -7 -4 15 -23z"/>
<path d="M2878 3 c7 -3 16 -2 19 1 4 3 -2 6 -13 5 -11 0 -14 -3 -6 -6z"/>
</g>
</svg>
