<?xml version="1.0" standalone="no"?>
<!DOCTYPE svg PUBLIC "-//W3C//DTD SVG 20010904//EN"
 "http://www.w3.org/TR/2001/REC-SVG-20010904/DTD/svg10.dtd">
<svg version="1.0" xmlns="http://www.w3.org/2000/svg"
 width="469pt" height="480pt" viewBox="0 0 469 480"
 preserveAspectRatio="xMidYMid meet">
<metadata>
Created by potrace 1.8, written by Peter Selinger 2001-2007
</metadata>
<g transform="translate(0,480) scale(0.027368,-0.027368)"
fill="#000000" stroke="none">
<path d="M7990 17165 l0 -215 25 0 25 0 2 170 3 170 106 -167 c97 -154 108
-168 137 -171 l32 -3 0 215 0 216 -25 0 -25 0 -2 -172 -3 -172 -108 172 c-100
159 -111 172 -138 172 l-29 0 0 -215z"/>
<path d="M9470 17304 l0 -75 -26 20 c-81 64 -184 -17 -184 -144 0 -131 106
-209 189 -139 30 25 31 25 31 5 0 -14 6 -21 20 -21 19 0 20 7 20 215 l0 215
-25 0 c-24 0 -25 -2 -25 -76z m-29 -110 c20 -22 24 -36 24 -89 0 -53 -4 -67
-24 -89 -60 -64 -139 2 -129 106 9 89 77 127 129 72z"/>
<path d="M8484 17260 c-89 -36 -112 -199 -39 -278 31 -35 37 -37 93 -37 50 0
65 4 87 25 57 52 72 149 35 226 -31 63 -109 91 -176 64z m113 -64 c25 -22 28
-30 28 -91 0 -61 -3 -69 -28 -91 -66 -56 -147 -6 -147 91 0 97 81 147 147 91z"/>
<path d="M8814 17260 c-89 -36 -112 -199 -39 -278 31 -35 37 -37 93 -37 50 0
65 4 87 25 57 52 72 149 35 226 -31 63 -109 91 -176 64z m113 -64 c25 -22 28
-30 28 -91 0 -61 -3 -69 -28 -91 -66 -56 -147 -6 -147 91 0 97 81 147 147 91z"/>
<path d="M9159 17241 l-29 -29 0 24 c0 19 -5 24 -25 24 l-25 0 0 -155 0 -155
25 0 25 0 0 100 c0 131 18 170 81 170 14 0 19 7 19 25 0 35 -34 33 -71 -4z"/>
<path d="M9167 16566 c-37 -118 -67 -217 -67 -220 0 -3 6 -6 14 -6 10 0 24 30
41 87 15 48 44 143 66 212 44 142 44 141 26 141 -9 0 -37 -75 -80 -214z"/>
<path d="M8034 16751 c-30 -18 -54 -64 -54 -102 0 -14 7 -19 25 -19 20 0 25 5
25 24 0 54 90 86 130 46 44 -44 13 -110 -52 -110 -23 0 -28 -4 -28 -25 0 -20
5 -25 26 -25 28 0 65 -16 76 -34 16 -23 8 -67 -17 -91 -43 -44 -125 -27 -139
30 -5 18 -13 25 -31 25 -30 0 -32 -17 -9 -65 27 -58 107 -81 177 -51 48 20 69
50 75 105 4 45 2 53 -25 79 l-29 30 24 28 c32 37 27 104 -11 142 -35 35 -118
42 -163 13z"/>
<path d="M8389 16747 c-47 -31 -70 -83 -76 -175 -9 -139 32 -220 117 -229 92
-9 155 56 147 150 -8 94 -103 145 -182 99 -32 -19 -35 -20 -35 -4 0 66 46 132
92 132 27 0 68 -30 68 -50 0 -5 11 -10 25 -10 30 0 31 14 5 58 -34 55 -103 68
-161 29z m116 -212 c52 -51 16 -145 -55 -145 -63 0 -109 76 -79 131 23 43 98
51 134 14z"/>
<path d="M8730 16763 c-105 -38 -124 -317 -28 -398 27 -23 39 -26 76 -22 57 6
89 37 109 106 19 67 14 202 -11 248 -30 60 -90 86 -146 66z m94 -76 c18 -25
21 -42 21 -132 0 -90 -3 -107 -21 -132 -25 -34 -63 -40 -93 -16 -53 43 -56
238 -4 295 24 27 71 20 97 -15z"/>
<path d="M9540 16763 c-105 -38 -124 -317 -28 -398 27 -23 39 -26 76 -22 57 6
89 37 109 106 19 67 14 202 -11 248 -30 60 -90 86 -146 66z m94 -76 c18 -25
21 -42 21 -132 0 -90 -3 -107 -21 -132 -25 -34 -63 -40 -93 -16 -53 43 -56
238 -4 295 24 27 71 20 97 -15z"/>
<path d="M8536 15762 c-3 -5 -206 -1213 -451 -2683 -245 -1471 -446 -2677
-448 -2681 -1 -4 -603 393 -1337 882 -734 490 -1342 889 -1350 888 -8 -2 -16
-10 -18 -18 -1 -8 398 -616 888 -1350 l890 -1335 -67 -13 c-38 -7 -97 -16
-133 -21 -36 -5 -173 -28 -305 -51 -132 -22 -280 -47 -330 -55 -49 -8 -157
-26 -240 -40 -82 -15 -177 -30 -210 -35 -33 -4 -168 -27 -300 -50 -132 -22
-280 -47 -330 -55 -49 -8 -157 -26 -240 -40 -82 -15 -177 -30 -210 -35 -33 -4
-168 -27 -300 -50 -132 -22 -280 -47 -330 -55 -49 -8 -157 -26 -240 -40 -82
-15 -177 -30 -210 -35 -33 -4 -168 -27 -300 -50 -132 -22 -280 -47 -330 -55
-49 -8 -157 -26 -240 -40 -82 -15 -177 -30 -210 -35 -33 -4 -193 -31 -355 -58
-162 -28 -315 -52 -340 -54 l-45 -3 -3 113 -3 112 26 0 c18 0 25 5 25 20 0 15
-7 20 -25 20 -23 0 -25 4 -25 45 0 41 -2 45 -25 45 -23 0 -25 -4 -25 -45 0
-38 -3 -45 -20 -45 -13 0 -20 -7 -20 -20 0 -13 7 -20 20 -20 20 0 20 -5 18
-122 -3 -120 -4 -123 -26 -126 -25 -4 -40 -28 -26 -42 7 -7 5327 -900 5359
-900 10 0 -11 -38 -59 -108 -28 -41 -55 -81 -61 -90 -5 -9 -32 -49 -60 -90
-27 -41 -54 -81 -60 -90 -5 -9 -32 -49 -60 -90 -27 -41 -54 -81 -60 -90 -5 -9
-32 -49 -60 -90 -27 -41 -54 -81 -60 -90 -5 -9 -32 -49 -60 -90 -27 -41 -54
-81 -60 -90 -5 -9 -32 -49 -60 -90 -27 -41 -54 -81 -60 -90 -5 -9 -32 -49 -60
-90 -27 -41 -54 -81 -60 -90 -5 -9 -32 -49 -60 -90 -27 -41 -54 -81 -60 -90
-5 -9 -32 -49 -60 -90 -27 -41 -54 -81 -60 -90 -5 -10 -29 -44 -51 -77 -212
-308 -628 -944 -628 -960 -1 -11 6 -21 14 -22 8 -2 614 394 1345 880 732 486
1333 881 1337 878 4 -3 14 -49 22 -101 15 -91 30 -186 61 -372 8 -49 22 -128
30 -178 8 -49 22 -132 30 -182 20 -118 42 -249 60 -360 8 -49 22 -130 30 -180
20 -118 42 -249 60 -360 8 -49 22 -128 30 -178 8 -49 22 -130 30 -180 8 -49
22 -130 30 -180 8 -49 22 -130 30 -180 8 -49 22 -132 30 -182 9 -51 22 -132
30 -180 8 -49 22 -128 30 -178 8 -49 22 -129 30 -177 8 -49 21 -130 30 -180 8
-51 22 -135 30 -185 9 -51 22 -132 30 -180 8 -49 22 -128 30 -178 8 -49 22
-130 30 -180 8 -49 22 -130 30 -180 8 -49 22 -129 30 -177 8 -49 21 -130 30
-180 8 -51 22 -133 30 -183 8 -49 22 -130 30 -180 8 -49 22 -132 30 -182 9
-51 19 -111 22 -133 3 -22 10 -48 15 -57 9 -19 33 -24 42 -9 3 4 206 1211 451
2682 245 1470 447 2674 448 2676 2 1 165 -106 363 -238 301 -201 520 -347 592
-394 9 -5 394 -262 856 -569 463 -308 850 -560 861 -560 14 -1 20 5 19 19 0
11 -397 616 -882 1344 -485 729 -880 1326 -879 1328 2 1 1206 203 2676 448
1471 245 2678 448 2682 451 12 7 12 31 0 38 -4 3 -1211 206 -2682 451 -1470
245 -2675 447 -2676 449 -3 3 452 692 1426 2156 185 278 336 514 336 525 0 14
-6 20 -20 19 -11 0 -617 -399 -1346 -887 l-1326 -886 -442 2657 c-244 1461
-446 2670 -450 2687 -7 29 -34 45 -45 27z m-10 -5959 c-2 -3 -193 122 -423
276 l-420 280 421 2525 421 2526 3 -2802 c1 -1540 0 -2803 -2 -2805z m2244
997 c-639 -639 -1164 -1159 -1167 -1156 -4 3 -32 160 -64 348 -41 247 -54 345
-45 350 6 3 556 371 1221 816 666 445 1212 808 1213 806 2 -1 -519 -525 -1158
-1164z m-4453 -52 c634 -634 1151 -1153 1149 -1155 -3 -4 -410 -73 -541 -93
-38 -6 -89 -14 -113 -19 l-44 -9 -809 1214 c-445 668 -806 1214 -802 1214 4 0
526 -518 1160 -1152z m3393 -2201 c0 -4 -261 -269 -580 -588 l-580 -579 -580
582 -579 583 582 582 582 583 577 -577 c318 -318 578 -581 578 -586z m2903 25
c-1538 -1 -2798 0 -2800 2 -2 2 121 192 274 423 l277 419 2523 -421 2523 -420
-2797 -3z m-5323 -64 c-1 -7 -14 -31 -30 -53 -16 -22 -36 -55 -46 -72 -9 -18
-20 -33 -24 -33 -4 0 -18 -19 -30 -42 -12 -24 -30 -52 -39 -63 -9 -11 -23 -32
-31 -47 -7 -16 -17 -28 -21 -28 -4 0 -17 -19 -29 -42 -12 -24 -30 -52 -39 -63
-9 -11 -23 -32 -31 -47 -7 -16 -17 -28 -21 -28 -4 0 -17 -19 -29 -42 -12 -24
-30 -52 -39 -63 -9 -11 -23 -32 -31 -47 -7 -16 -17 -28 -21 -28 -4 0 -17 -19
-29 -42 -12 -24 -32 -54 -44 -68 l-21 -26 -2525 422 -2525 422 2803 1 c2236 1
2802 -2 2802 -11z m3867 -2116 c446 -672 810 -1222 807 -1222 -9 0 -2323 2324
-2318 2329 5 6 676 119 689 117 5 -2 375 -552 822 -1224z m-3623 913 c8 -49
22 -133 31 -185 9 -52 23 -135 31 -185 8 -49 18 -110 20 -135 l5 -45 -837
-555 c-460 -305 -1013 -671 -1228 -813 l-391 -259 1170 1171 1170 1170 7 -37
c4 -20 14 -77 22 -127z m1471 -292 c371 -247 415 -279 414 -302 0 -14 -188
-1151 -419 -2526 l-418 -2500 -1 2803 c-1 1541 1 2802 4 2802 3 0 192 -124
420 -277z"/>
<path d="M12255 13357 c-52 -21 -80 -45 -106 -89 -20 -36 -24 -57 -24 -123 0
-69 4 -86 27 -127 41 -68 87 -93 173 -93 86 0 132 25 173 93 23 41 27 58 27
127 0 96 -25 151 -85 191 -45 30 -137 41 -185 21z m153 -64 c54 -40 67 -69 67
-148 0 -82 -14 -111 -76 -153 -61 -43 -150 -20 -203 52 -30 40 -30 162 0 203
39 52 83 75 137 70 27 -2 60 -13 75 -24z"/>
<path d="M10520 13145 l0 -215 25 0 25 0 2 170 3 170 106 -167 c97 -154 108
-168 137 -171 l32 -3 0 215 0 216 -25 0 -25 0 -2 -172 -3 -172 -108 172 c-100
159 -111 172 -138 172 l-29 0 0 -215z"/>
<path d="M12000 13284 l0 -75 -26 20 c-81 64 -184 -17 -184 -144 0 -131 106
-209 189 -139 30 25 31 25 31 5 0 -14 6 -21 20 -21 19 0 20 7 20 215 l0 215
-25 0 c-24 0 -25 -2 -25 -76z m-29 -110 c20 -22 24 -36 24 -89 0 -53 -4 -67
-24 -89 -60 -64 -139 2 -129 106 9 89 77 127 129 72z"/>
<path d="M13240 13285 c0 -38 -3 -45 -20 -45 -13 0 -20 -7 -20 -20 0 -13 7
-20 20 -20 19 0 20 -7 20 -124 0 -140 7 -156 66 -156 29 0 34 3 34 24 0 18 -6
25 -22 28 -22 3 -23 7 -26 116 l-3 112 26 0 c18 0 25 5 25 20 0 15 -7 20 -25
20 -23 0 -25 4 -25 45 0 41 -2 45 -25 45 -23 0 -25 -4 -25 -45z"/>
<path d="M11014 13240 c-89 -36 -112 -199 -39 -278 31 -35 37 -37 93 -37 50 0
65 4 87 25 57 52 72 149 35 226 -31 63 -109 91 -176 64z m113 -64 c25 -22 28
-30 28 -91 0 -61 -3 -69 -28 -91 -66 -56 -147 -6 -147 91 0 97 81 147 147 91z"/>
<path d="M11344 13240 c-89 -36 -112 -199 -39 -278 31 -35 37 -37 93 -37 50 0
65 4 87 25 57 52 72 149 35 226 -31 63 -109 91 -176 64z m113 -64 c25 -22 28
-30 28 -91 0 -61 -3 -69 -28 -91 -66 -56 -147 -6 -147 91 0 97 81 147 147 91z"/>
<path d="M11689 13221 l-29 -29 0 24 c0 19 -5 24 -25 24 l-25 0 0 -155 0 -155
25 0 25 0 0 100 c0 131 18 170 81 170 14 0 19 7 19 25 0 35 -34 33 -71 -4z"/>
<path d="M12664 13240 c-89 -36 -112 -199 -39 -278 31 -35 37 -37 93 -37 50 0
65 4 87 25 57 52 72 149 35 226 -31 63 -109 91 -176 64z m113 -64 c25 -22 28
-30 28 -91 0 -61 -3 -69 -28 -91 -66 -56 -147 -6 -147 91 0 97 81 147 147 91z"/>
<path d="M12973 13235 c-35 -15 -53 -41 -53 -77 0 -41 27 -67 88 -83 86 -24
102 -33 102 -54 0 -38 -66 -63 -115 -45 -9 4 -21 17 -26 30 -6 17 -16 24 -35
24 -24 0 -25 -3 -19 -27 11 -47 47 -75 103 -81 83 -8 142 34 142 102 0 33 -37
63 -95 77 -88 20 -114 48 -79 83 25 25 79 20 102 -9 19 -24 62 -35 62 -16 0
72 -94 112 -177 76z"/>
<path d="M3190 12965 l0 -215 25 0 25 0 2 170 3 170 106 -167 c97 -154 108
-168 137 -171 l32 -3 0 215 0 216 -25 0 -25 0 -2 -172 -3 -172 -108 172 c-100
159 -111 172 -138 172 l-29 0 0 -215z"/>
<path d="M4670 13104 l0 -75 -26 20 c-81 64 -184 -17 -184 -144 0 -131 106
-209 189 -139 30 25 31 25 31 5 0 -14 6 -21 20 -21 19 0 20 7 20 215 l0 215
-25 0 c-24 0 -25 -2 -25 -76z m-29 -110 c20 -22 24 -36 24 -89 0 -53 -4 -67
-24 -89 -60 -64 -139 2 -129 106 9 89 77 127 129 72z"/>
<path d="M4827 13003 c24 -98 48 -195 54 -215 8 -33 14 -38 39 -38 33 0 30 -7
90 224 27 101 36 124 41 105 4 -13 27 -93 50 -177 l42 -153 30 3 31 3 46 185
c26 102 50 197 53 213 7 25 5 27 -22 27 -35 0 -32 7 -77 -202 -15 -71 -30
-128 -33 -128 -3 0 -26 74 -51 165 l-45 166 -30 -3 -30 -3 -45 -167 c-24 -92
-46 -166 -47 -164 -2 1 -20 77 -41 167 l-38 164 -31 3 -31 3 45 -178z"/>
<path d="M6010 13105 c0 -38 -3 -45 -20 -45 -13 0 -20 -7 -20 -20 0 -13 7 -20
20 -20 19 0 20 -7 20 -124 0 -140 7 -156 66 -156 29 0 34 3 34 24 0 18 -6 25
-22 28 -22 3 -23 7 -26 116 l-3 112 26 0 c18 0 25 5 25 20 0 15 -7 20 -25 20
-23 0 -25 4 -25 45 0 41 -2 45 -25 45 -23 0 -25 -4 -25 -45z"/>
<path d="M3684 13060 c-89 -36 -112 -199 -39 -278 31 -35 37 -37 93 -37 50 0
65 4 87 25 57 52 72 149 35 226 -31 63 -109 91 -176 64z m113 -64 c25 -22 28
-30 28 -91 0 -61 -3 -69 -28 -91 -66 -56 -147 -6 -147 91 0 97 81 147 147 91z"/>
<path d="M4014 13060 c-89 -36 -112 -199 -39 -278 31 -35 37 -37 93 -37 50 0
65 4 87 25 57 52 72 149 35 226 -31 63 -109 91 -176 64z m113 -64 c25 -22 28
-30 28 -91 0 -61 -3 -69 -28 -91 -66 -56 -147 -6 -147 91 0 97 81 147 147 91z"/>
<path d="M4359 13041 l-29 -29 0 24 c0 19 -5 24 -25 24 l-25 0 0 -155 0 -155
25 0 25 0 0 100 c0 131 18 170 81 170 14 0 19 7 19 25 0 35 -34 33 -71 -4z"/>
<path d="M5423 13050 c-46 -28 -64 -61 -70 -129 -12 -133 80 -213 192 -167 30
13 65 58 65 86 0 5 -11 10 -25 10 -14 0 -25 -4 -25 -10 0 -21 -41 -50 -71 -50
-36 0 -89 47 -89 79 0 20 5 21 110 21 l110 0 0 36 c0 111 -108 179 -197 124z
m129 -60 c35 -43 25 -50 -67 -50 -47 0 -85 2 -85 5 0 14 31 64 42 69 27 12 93
-3 110 -24z"/>
<path d="M5743 13055 c-35 -15 -53 -41 -53 -77 0 -41 27 -67 88 -83 86 -24
102 -33 102 -54 0 -38 -66 -63 -115 -45 -9 4 -21 17 -26 30 -6 17 -16 24 -35
24 -24 0 -25 -3 -19 -27 11 -47 47 -75 103 -81 83 -8 142 34 142 102 0 33 -37
63 -95 77 -88 20 -114 48 -79 83 25 25 79 20 102 -9 19 -24 62 -35 62 -16 0
72 -94 112 -177 76z"/>
<path d="M12822 12621 c-69 -96 -92 -137 -92 -160 l0 -31 85 0 85 0 0 -50 c0
-47 2 -50 25 -50 23 0 25 3 25 50 0 49 1 50 30 50 25 0 30 4 30 25 0 21 -5 25
-30 25 l-30 0 0 135 c0 178 -6 178 -128 6z m78 -51 l0 -90 -65 0 -64 0 62 89
c34 50 63 90 65 90 1 1 2 -39 2 -89z"/>
<path d="M13105 12718 c-13 -81 -25 -164 -25 -180 0 -24 35 -23 67 2 37 29 79
26 114 -9 61 -62 21 -161 -65 -161 -28 0 -76 35 -76 56 0 8 -10 14 -25 14 -47
0 -19 -77 39 -104 125 -59 247 67 192 199 -27 64 -121 96 -174 59 -22 -15 -23
-15 -18 8 3 12 8 40 11 61 l6 37 84 0 c84 0 85 0 85 25 l0 25 -105 0 -104 0
-6 -32z"/>
<path d="M3234 12551 c-30 -18 -54 -64 -54 -102 0 -14 7 -19 25 -19 20 0 25 5
25 24 0 54 90 86 130 46 44 -44 13 -110 -52 -110 -23 0 -28 -4 -28 -25 0 -20
5 -25 26 -25 28 0 65 -16 76 -34 16 -23 8 -67 -17 -91 -43 -44 -125 -27 -139
30 -5 18 -13 25 -31 25 -30 0 -32 -17 -9 -65 27 -58 107 -81 177 -51 48 20 69
50 75 105 4 45 2 53 -25 79 l-29 30 24 28 c32 37 27 104 -11 142 -35 35 -118
42 -163 13z"/>
<path d="M3640 12546 c-11 -30 -47 -56 -77 -56 -16 0 -23 -6 -23 -20 0 -17 7
-20 45 -20 l45 0 0 -150 0 -150 25 0 25 0 0 210 c0 182 -2 210 -15 210 -9 0
-20 -11 -25 -24z"/>
<path d="M3875 12538 c-13 -81 -25 -164 -25 -180 0 -24 35 -23 67 2 37 29 79
26 114 -9 61 -62 21 -161 -65 -161 -28 0 -76 35 -76 56 0 8 -10 14 -25 14 -47
0 -19 -77 39 -104 125 -59 247 67 192 199 -27 64 -121 96 -174 59 -22 -15 -23
-15 -18 8 3 12 8 40 11 61 l6 37 84 0 c84 0 85 0 85 25 l0 25 -105 0 -104 0
-6 -32z"/>
<path d="M15855 9157 c-52 -21 -80 -45 -106 -89 -20 -36 -24 -57 -24 -123 0
-69 4 -86 27 -127 41 -68 87 -93 173 -93 86 0 132 25 173 93 23 41 27 58 27
127 0 96 -25 151 -85 191 -45 30 -137 41 -185 21z m153 -64 c54 -40 67 -69 67
-148 0 -82 -14 -111 -76 -153 -61 -43 -150 -20 -203 52 -30 40 -30 162 0 203
39 52 83 75 137 70 27 -2 60 -13 75 -24z"/>
<path d="M16840 9085 c0 -38 -3 -45 -20 -45 -13 0 -20 -7 -20 -20 0 -13 7 -20
20 -20 19 0 20 -7 20 -124 0 -140 7 -156 66 -156 29 0 34 3 34 24 0 18 -6 25
-22 28 -22 3 -23 7 -26 116 l-3 112 26 0 c18 0 25 5 25 20 0 15 -7 20 -25 20
-23 0 -25 4 -25 45 0 41 -2 45 -25 45 -23 0 -25 -4 -25 -45z"/>
<path d="M16264 9040 c-89 -36 -112 -199 -39 -278 31 -35 37 -37 93 -37 50 0
65 4 87 25 57 52 72 149 35 226 -31 63 -109 91 -176 64z m113 -64 c25 -22 28
-30 28 -91 0 -61 -3 -69 -28 -91 -66 -56 -147 -6 -147 91 0 97 81 147 147 91z"/>
<path d="M16573 9035 c-35 -15 -53 -41 -53 -77 0 -41 27 -67 88 -83 86 -24
102 -33 102 -54 0 -38 -66 -63 -115 -45 -9 4 -21 17 -26 30 -6 17 -16 24 -35
24 -24 0 -25 -3 -19 -27 11 -47 47 -75 103 -81 83 -8 142 34 142 102 0 33 -37
63 -95 77 -88 20 -114 48 -79 83 25 25 79 20 102 -9 19 -24 62 -35 62 -16 0
72 -94 112 -177 76z"/>
<path d="M207 8803 c24 -98 48 -195 54 -215 8 -33 14 -38 39 -38 33 0 30 -7
90 224 27 101 36 124 41 105 4 -13 27 -93 50 -177 l42 -153 30 3 31 3 46 185
c26 102 50 197 53 213 7 25 5 27 -22 27 -35 0 -32 7 -77 -202 -15 -71 -30
-128 -33 -128 -3 0 -26 74 -51 165 l-45 166 -30 -3 -30 -3 -45 -167 c-24 -92
-46 -166 -47 -164 -2 1 -20 77 -41 167 l-38 164 -31 3 -31 3 45 -178z"/>
<path d="M803 8850 c-46 -28 -64 -61 -70 -129 -12 -133 80 -213 192 -167 30
13 65 58 65 86 0 5 -11 10 -25 10 -14 0 -25 -4 -25 -10 0 -21 -41 -50 -71 -50
-36 0 -89 47 -89 79 0 20 5 21 110 21 l110 0 0 36 c0 111 -108 179 -197 124z
m129 -60 c35 -43 25 -50 -67 -50 -47 0 -85 2 -85 5 0 14 31 64 42 69 27 12 93
-3 110 -24z"/>
<path d="M1123 8855 c-35 -15 -53 -41 -53 -77 0 -41 27 -67 88 -83 86 -24 102
-33 102 -54 0 -38 -66 -63 -115 -45 -9 4 -21 17 -26 30 -6 17 -16 24 -35 24
-24 0 -25 -3 -19 -27 11 -47 47 -75 103 -81 83 -8 142 34 142 102 0 33 -37 63
-95 77 -88 20 -114 48 -79 83 25 25 79 20 102 -9 19 -24 62 -35 62 -16 0 72
-94 112 -177 76z"/>
<path d="M16411 8533 c-68 -36 -91 -130 -48 -194 41 -60 105 -76 165 -39 29
18 32 18 32 2 0 -66 -46 -132 -92 -132 -27 0 -68 30 -68 50 0 6 -11 10 -25 10
-29 0 -31 -10 -10 -50 45 -88 171 -73 219 25 24 48 33 173 17 233 -26 94 -111
137 -190 95z m102 -44 c14 -6 30 -22 36 -36 28 -61 0 -111 -66 -120 -35 -5
-45 -2 -67 20 -70 70 7 177 97 136z"/>
<path d="M16770 8543 c-105 -38 -124 -317 -28 -398 27 -23 39 -26 76 -22 57 6
89 37 109 106 19 67 14 202 -11 248 -30 60 -90 86 -146 66z m94 -76 c18 -25
21 -42 21 -132 0 -90 -3 -107 -21 -132 -25 -34 -63 -40 -93 -16 -53 43 -56
238 -4 295 24 27 71 20 97 -15z"/>
<path d="M243 8356 c-36 -16 -53 -44 -63 -98 -7 -37 -6 -38 21 -38 24 0 29 4
29 25 0 14 11 37 25 50 68 69 178 -26 117 -102 -9 -12 -44 -37 -77 -56 -89
-52 -125 -99 -125 -163 l0 -24 135 0 135 0 0 25 c0 24 -1 24 -110 27 l-109 3
12 25 c7 13 46 45 87 71 94 58 124 97 117 158 -7 62 -49 102 -114 108 -28 2
-61 -3 -80 -11z"/>
<path d="M510 8345 l0 -25 110 0 c61 0 110 -3 110 -6 0 -3 -13 -24 -29 -47
-59 -86 -131 -253 -131 -304 0 -7 10 -13 23 -13 19 0 26 13 55 105 23 70 52
133 88 191 80 127 82 124 -86 124 l-140 0 0 -25z"/>
<path d="M930 8363 c-105 -38 -124 -317 -28 -398 27 -23 39 -26 76 -22 57 6
89 37 109 106 19 67 14 202 -11 248 -30 60 -90 86 -146 66z m94 -76 c18 -25
21 -42 21 -132 0 -90 -3 -107 -21 -132 -25 -34 -63 -40 -93 -16 -53 43 -56
238 -4 295 24 27 71 20 97 -15z"/>
<path d="M13140 4936 c-11 -30 -47 -56 -77 -56 -16 0 -23 -6 -23 -20 0 -17 7
-20 45 -20 l45 0 0 -150 0 -150 25 0 25 0 0 210 c0 182 -2 210 -15 210 -9 0
-20 -11 -25 -24z"/>
<path d="M13394 4941 c-30 -18 -54 -64 -54 -102 0 -14 7 -19 25 -19 20 0 25 5
25 24 0 54 90 86 130 46 44 -44 13 -110 -52 -110 -23 0 -28 -4 -28 -25 0 -20
5 -25 26 -25 28 0 65 -16 76 -34 16 -23 8 -67 -17 -91 -43 -44 -125 -27 -139
30 -5 18 -13 25 -31 25 -30 0 -32 -17 -9 -65 27 -58 107 -81 177 -51 48 20 69
50 75 105 4 45 2 53 -25 79 l-29 30 24 28 c32 37 27 104 -11 142 -35 35 -118
42 -163 13z"/>
<path d="M13705 4928 c-13 -81 -25 -164 -25 -180 0 -24 35 -23 67 2 37 29 79
26 114 -9 61 -62 21 -161 -65 -161 -28 0 -76 35 -76 56 0 8 -10 14 -25 14 -47
0 -19 -77 39 -104 125 -59 247 67 192 199 -27 64 -121 96 -174 59 -22 -15 -23
-15 -18 8 3 12 8 40 11 61 l6 37 84 0 c84 0 85 0 85 25 l0 25 -105 0 -104 0
-6 -32z"/>
<path d="M3243 4766 c-36 -16 -53 -44 -63 -98 -7 -37 -6 -38 21 -38 24 0 29 4
29 25 0 14 11 37 25 50 68 69 178 -26 117 -102 -9 -12 -44 -37 -77 -56 -89
-52 -125 -99 -125 -163 l0 -24 135 0 135 0 0 25 c0 24 -1 24 -110 27 l-109 3
12 25 c7 13 46 45 87 71 94 58 124 97 117 158 -7 62 -49 102 -114 108 -28 2
-61 -3 -80 -11z"/>
<path d="M3573 4766 c-36 -16 -53 -44 -63 -98 -7 -37 -6 -38 21 -38 24 0 29 4
29 25 0 14 11 37 25 50 68 69 178 -26 117 -102 -9 -12 -44 -37 -77 -56 -89
-52 -125 -99 -125 -163 l0 -24 135 0 135 0 0 25 c0 24 -1 24 -110 27 l-109 3
12 25 c7 13 46 45 87 71 94 58 124 97 117 158 -7 62 -49 102 -114 108 -28 2
-61 -3 -80 -11z"/>
<path d="M3875 4748 c-13 -81 -25 -164 -25 -180 0 -24 35 -23 67 2 37 29 79
26 114 -9 61 -62 21 -161 -65 -161 -28 0 -76 35 -76 56 0 8 -10 14 -25 14 -47
0 -19 -77 39 -104 125 -59 247 67 192 199 -27 64 -121 96 -174 59 -22 -15 -23
-15 -18 8 3 12 8 40 11 61 l6 37 84 0 c84 0 85 0 85 25 l0 25 -105 0 -104 0
-6 -32z"/>
<path d="M12855 4367 c-52 -21 -80 -45 -106 -89 -20 -36 -24 -57 -24 -123 0
-69 4 -86 27 -127 41 -68 87 -93 173 -93 86 0 132 25 173 93 23 41 27 58 27
127 0 96 -25 151 -85 191 -45 30 -137 41 -185 21z m153 -64 c54 -40 67 -69 67
-148 0 -82 -14 -111 -76 -153 -61 -43 -150 -20 -203 52 -30 40 -30 162 0 203
39 52 83 75 137 70 27 -2 60 -13 75 -24z"/>
<path d="M11580 4345 c0 -24 0 -24 115 -27 l115 -3 -125 -163 c-82 -107 -125
-171 -125 -187 l0 -25 160 0 160 0 0 25 0 25 -120 0 c-66 0 -120 2 -120 5 0 3
54 77 120 165 80 106 120 168 120 185 l0 25 -150 0 -150 0 0 -25z"/>
<path d="M12280 4340 c0 -25 4 -30 25 -30 21 0 25 5 25 30 0 25 -4 30 -25 30
-21 0 -25 -5 -25 -30z"/>
<path d="M12600 4294 l0 -75 -26 20 c-81 64 -184 -17 -184 -144 0 -131 106
-209 189 -139 30 25 31 25 31 5 0 -14 6 -21 20 -21 19 0 20 7 20 215 l0 215
-25 0 c-24 0 -25 -2 -25 -76z m-29 -110 c20 -22 24 -36 24 -89 0 -53 -4 -67
-24 -89 -60 -64 -139 2 -129 106 9 89 77 127 129 72z"/>
<path d="M13840 4295 c0 -38 -3 -45 -20 -45 -13 0 -20 -7 -20 -20 0 -13 7 -20
20 -20 19 0 20 -7 20 -124 0 -140 7 -156 66 -156 29 0 34 3 34 24 0 18 -6 25
-22 28 -22 3 -23 7 -26 116 l-3 112 26 0 c18 0 25 5 25 20 0 15 -7 20 -25 20
-23 0 -25 4 -25 45 0 41 -2 45 -25 45 -23 0 -25 -4 -25 -45z"/>
<path d="M13264 4250 c-89 -36 -112 -199 -39 -278 31 -35 37 -37 93 -37 50 0
65 4 87 25 57 52 72 149 35 226 -31 63 -109 91 -176 64z m113 -64 c25 -22 28
-30 28 -91 0 -61 -3 -69 -28 -91 -66 -56 -147 -6 -147 91 0 97 81 147 147 91z"/>
<path d="M13573 4245 c-35 -15 -53 -41 -53 -77 0 -41 27 -67 88 -83 86 -24
102 -33 102 -54 0 -38 -66 -63 -115 -45 -9 4 -21 17 -26 30 -6 17 -16 24 -35
24 -24 0 -25 -3 -19 -27 11 -47 47 -75 103 -81 83 -8 142 34 142 102 0 33 -37
63 -95 77 -88 20 -114 48 -79 83 25 25 79 20 102 -9 19 -24 62 -35 62 -16 0
72 -94 112 -177 76z"/>
<path d="M11950 4117 c0 -120 2 -135 20 -155 41 -43 124 -41 160 5 l20 26 0
-27 c0 -21 5 -26 25 -26 l25 0 0 155 0 155 -25 0 -25 0 0 -104 c0 -98 -2 -106
-26 -135 -29 -35 -66 -40 -102 -15 -21 14 -22 22 -22 135 l0 119 -25 0 -25 0
0 -133z"/>
<path d="M12280 4095 l0 -155 25 0 25 0 0 155 0 155 -25 0 -25 0 0 -155z"/>
<path d="M3180 4165 c0 -24 0 -24 115 -27 l115 -3 -125 -163 c-82 -107 -125
-171 -125 -187 l0 -25 160 0 160 0 0 25 0 25 -120 0 c-66 0 -120 2 -120 5 0 3
54 77 120 165 80 106 120 168 120 185 l0 25 -150 0 -150 0 0 -25z"/>
<path d="M3880 4160 c0 -25 4 -30 25 -30 21 0 25 5 25 30 0 25 -4 30 -25 30
-21 0 -25 -5 -25 -30z"/>
<path d="M4200 4114 l0 -75 -26 20 c-81 64 -184 -17 -184 -144 0 -131 106
-209 189 -139 30 25 31 25 31 5 0 -14 6 -21 20 -21 19 0 20 7 20 215 l0 215
-25 0 c-24 0 -25 -2 -25 -76z m-29 -110 c20 -22 24 -36 24 -89 0 -53 -4 -67
-24 -89 -60 -64 -139 2 -129 106 9 89 77 127 129 72z"/>
<path d="M4357 4013 c24 -98 48 -195 54 -215 8 -33 14 -38 39 -38 33 0 30 -7
90 224 27 101 36 124 41 105 4 -13 27 -93 50 -177 l42 -153 30 3 31 3 46 185
c26 102 50 197 53 213 7 25 5 27 -22 27 -35 0 -32 7 -77 -202 -15 -71 -30
-128 -33 -128 -3 0 -26 74 -51 165 l-45 166 -30 -3 -30 -3 -45 -167 c-24 -92
-46 -166 -47 -164 -2 1 -20 77 -41 167 l-38 164 -31 3 -31 3 45 -178z"/>
<path d="M5540 4115 c0 -38 -3 -45 -20 -45 -13 0 -20 -7 -20 -20 0 -13 7 -20
20 -20 19 0 20 -7 20 -124 0 -140 7 -156 66 -156 29 0 34 3 34 24 0 18 -6 25
-22 28 -22 3 -23 7 -26 116 l-3 112 26 0 c18 0 25 5 25 20 0 15 -7 20 -25 20
-23 0 -25 4 -25 45 0 41 -2 45 -25 45 -23 0 -25 -4 -25 -45z"/>
<path d="M4953 4060 c-46 -28 -64 -61 -70 -129 -12 -133 80 -213 192 -167 30
13 65 58 65 86 0 5 -11 10 -25 10 -14 0 -25 -4 -25 -10 0 -21 -41 -50 -71 -50
-36 0 -89 47 -89 79 0 20 5 21 110 21 l110 0 0 36 c0 111 -108 179 -197 124z
m129 -60 c35 -43 25 -50 -67 -50 -47 0 -85 2 -85 5 0 14 31 64 42 69 27 12 93
-3 110 -24z"/>
<path d="M5273 4065 c-35 -15 -53 -41 -53 -77 0 -41 27 -67 88 -83 86 -24 102
-33 102 -54 0 -38 -66 -63 -115 -45 -9 4 -21 17 -26 30 -6 17 -16 24 -35 24
-24 0 -25 -3 -19 -27 11 -47 47 -75 103 -81 83 -8 142 34 142 102 0 33 -37 63
-95 77 -88 20 -114 48 -79 83 25 25 79 20 102 -9 19 -24 62 -35 62 -16 0 72
-94 112 -177 76z"/>
<path d="M3550 3937 c0 -120 2 -135 20 -155 41 -43 124 -41 160 5 l20 26 0
-27 c0 -21 5 -26 25 -26 l25 0 0 155 0 155 -25 0 -25 0 0 -104 c0 -98 -2 -106
-26 -135 -29 -35 -66 -40 -102 -15 -21 14 -22 22 -22 135 l0 119 -25 0 -25 0
0 -133z"/>
<path d="M3880 3915 l0 -155 25 0 25 0 0 155 0 155 -25 0 -25 0 0 -155z"/>
<path d="M7980 1165 c0 -24 0 -24 115 -27 l115 -3 -125 -163 c-82 -107 -125
-171 -125 -187 l0 -25 160 0 160 0 0 25 0 25 -120 0 c-66 0 -120 2 -120 5 0 3
54 77 120 165 80 106 120 168 120 185 l0 25 -150 0 -150 0 0 -25z"/>
<path d="M8680 1160 c0 -25 4 -30 25 -30 21 0 25 5 25 30 0 25 -4 30 -25 30
-21 0 -25 -5 -25 -30z"/>
<path d="M9000 1114 l0 -75 -26 20 c-81 64 -184 -17 -184 -144 0 -131 106
-209 189 -139 30 25 31 25 31 5 0 -14 6 -21 20 -21 19 0 20 7 20 215 l0 215
-25 0 c-24 0 -25 -2 -25 -76z m-29 -110 c20 -22 24 -36 24 -89 0 -53 -4 -67
-24 -89 -60 -64 -139 2 -129 106 9 89 77 127 129 72z"/>
<path d="M8350 937 c0 -120 2 -135 20 -155 41 -43 124 -41 160 5 l20 26 0 -27
c0 -21 5 -26 25 -26 l25 0 0 155 0 155 -25 0 -25 0 0 -104 c0 -98 -2 -106 -26
-135 -29 -35 -66 -40 -102 -15 -21 14 -22 22 -22 135 l0 119 -25 0 -25 0 0
-133z"/>
<path d="M8680 915 l0 -155 25 0 25 0 0 155 0 155 -25 0 -25 0 0 -155z"/>
<path d="M8110 556 c-11 -30 -47 -56 -77 -56 -16 0 -23 -6 -23 -20 0 -17 7
-20 45 -20 l45 0 0 -150 0 -150 25 0 25 0 0 210 c0 182 -2 210 -15 210 -9 0
-20 -11 -25 -24z"/>
<path d="M8372 561 c-55 -35 -68 -101 -29 -147 l24 -27 -29 -26 c-58 -51 -45
-149 25 -191 86 -53 207 10 207 108 0 39 -23 87 -46 96 -14 5 -12 10 10 37 35
42 35 89 -2 130 -37 42 -110 51 -160 20z m118 -51 c42 -42 11 -100 -52 -100
-33 0 -68 31 -68 60 0 29 36 60 70 60 17 0 39 -9 50 -20z m5 -175 c52 -51 15
-135 -60 -135 -46 0 -85 36 -85 80 0 44 39 80 85 80 25 0 44 -8 60 -25z"/>
<path d="M8730 573 c-105 -38 -124 -317 -28 -398 27 -23 39 -26 76 -22 57 6
89 37 109 106 19 67 14 202 -11 248 -30 60 -90 86 -146 66z m94 -76 c18 -25
21 -42 21 -132 0 -90 -3 -107 -21 -132 -25 -34 -63 -40 -93 -16 -53 43 -56
238 -4 295 24 27 71 20 97 -15z"/>
</g>
</svg>
