<?xml version="1.0" standalone="no"?>
<!DOCTYPE svg PUBLIC "-//W3C//DTD SVG 20010904//EN"
 "http://www.w3.org/TR/2001/REC-SVG-20010904/DTD/svg10.dtd">
<svg version="1.0" xmlns="http://www.w3.org/2000/svg"
 width="468pt" height="468pt" viewBox="0 0 468 468"
 preserveAspectRatio="xMidYMid meet">
<metadata>
Created by potrace 1.8, written by Peter Selinger 2001-2007
</metadata>
<g transform="translate(0,468) scale(0.073125,-0.073125)"
fill="#000000" stroke="none">
<path d="M2860 6294 c-695 -75 -1357 -391 -1851 -884 -522 -520 -834 -1179
-904 -1907 -100 -1042 329 -2059 1145 -2716 946 -762 2256 -902 3335 -357 973
491 1610 1430 1705 2510 139 1584 -951 3019 -2521 3319 -261 50 -639 65 -909
35z m340 -249 c0 -33 -2 -35 -34 -35 -25 0 -35 -5 -39 -20 -4 -17 0 -20 29
-20 32 0 34 -2 34 -35 0 -32 -2 -35 -30 -35 -25 0 -30 -4 -30 -25 0 -22 4 -25
40 -25 37 0 40 -2 40 -29 l0 -28 -92 -7 c-50 -3 -94 -3 -97 0 -3 3 -8 68 -11
145 -4 118 -3 139 10 143 8 2 52 4 98 5 l82 1 0 -35z m282 19 c4 -3 -13 -50
-38 -105 -24 -55 -42 -104 -39 -110 4 -5 19 -9 36 -9 25 0 29 -4 29 -28 0 -16
-2 -31 -4 -33 -5 -5 -218 10 -224 15 -1 2 18 47 43 101 25 54 45 101 45 106 0
5 -13 9 -30 9 -28 0 -30 3 -30 36 l0 36 103 -7 c56 -4 105 -9 109 -11z m-554
-26 c-3 -28 -7 -33 -33 -36 -48 -5 -82 -21 -93 -46 -20 -44 18 -140 47 -122
17 11 13 34 -9 53 -20 18 -27 48 -12 57 4 2 35 8 68 11 l61 7 11 -83 c14 -94
15 -92 -61 -109 -66 -14 -111 -13 -152 4 -64 27 -100 122 -71 189 29 70 91
105 189 106 l58 1 -3 -32z m798 -3 c71 -29 94 -149 44 -229 -26 -43 -63 -61
-120 -60 -113 4 -168 79 -140 193 17 72 63 111 131 111 27 0 65 -7 85 -15z
m216 -54 c16 -6 29 -26 42 -62 26 -75 32 -78 46 -19 13 55 14 55 82 26 l26
-11 -38 -122 c-20 -67 -40 -128 -43 -137 -5 -12 -12 -13 -43 -3 -38 12 -62 50
-79 125 -9 42 -20 33 -35 -28 -13 -54 -16 -55 -73 -39 -29 8 -38 15 -34 27 2
9 22 72 43 140 42 134 37 130 106 103z m-1481 -27 c5 -15 8 -28 7 -29 -2 -1
-13 -7 -25 -13 l-21 -12 29 -92 c16 -51 29 -99 29 -106 0 -13 -25 -25 -76 -36
l-31 -7 -32 106 c-31 100 -33 105 -57 99 -19 -5 -26 -1 -34 22 -13 33 -10 36
85 64 39 12 75 23 80 25 24 9 36 3 46 -21z m-256 -95 c6 -24 3 -28 -28 -38
-27 -9 -34 -16 -30 -31 6 -22 24 -25 54 -10 16 9 21 7 29 -15 14 -38 13 -42
-15 -49 -15 -4 -25 -14 -25 -25 0 -28 10 -31 46 -16 33 14 34 13 49 -15 19
-37 0 -53 -25 -20 -12 16 -19 19 -25 10 -5 -7 -19 -10 -40 -6 -42 8 -52 -7
-30 -40 12 -18 23 -25 39 -22 21 4 21 2 16 -49 -3 -29 -11 -58 -18 -65 -18
-18 -14 -31 8 -25 11 3 18 2 15 -3 -3 -4 2 -13 10 -20 8 -7 15 -18 15 -24 0
-7 5 -17 12 -24 6 -6 13 -26 15 -44 2 -21 15 -44 33 -61 30 -28 37 -39 23 -35
-8 3 -13 -5 -13 -20 0 -4 8 -8 19 -8 11 0 17 5 14 13 -4 9 0 11 11 7 9 -3 16
-10 16 -16 0 -5 5 -6 10 -3 6 3 10 2 10 -3 0 -6 23 -24 50 -42 28 -18 50 -37
50 -43 0 -6 3 -8 6 -4 4 3 32 -7 63 -23 64 -32 221 -80 261 -80 81 0 234 126
264 218 19 55 38 82 61 82 13 0 14 -10 2 -40 -14 -37 -29 -122 -24 -140 3 -12
1 -18 -5 -14 -6 4 -9 1 -6 -7 3 -8 15 -16 28 -17 13 -2 47 -21 76 -43 29 -21
59 -39 65 -39 7 0 10 -3 6 -6 -7 -7 51 -49 81 -58 17 -6 19 -3 15 13 -3 11
-14 23 -24 26 -25 8 -24 22 1 35 15 8 20 8 20 -2 0 -7 12 -23 28 -36 15 -13
21 -21 15 -17 -7 3 -13 1 -13 -4 0 -6 4 -11 9 -11 9 0 24 -38 22 -54 -1 -4 1
-17 4 -27 6 -18 9 -17 50 11 25 17 72 56 105 86 33 31 60 53 60 50 0 -4 -13
-33 -30 -66 -33 -66 -37 -85 -16 -77 9 4 13 1 10 -6 -8 -22 35 -17 52 6 16 22
16 22 10 -5 -9 -38 10 -44 29 -8 8 16 18 30 21 30 2 0 0 -9 -6 -20 -15 -29 3
-26 110 14 83 31 90 32 95 15 3 -10 1 -28 -5 -39 -6 -12 -9 -29 -6 -37 4 -10
-2 -21 -14 -30 -15 -11 -20 -25 -20 -63 0 -27 -4 -52 -10 -55 -15 -10 -12 -46
7 -67 20 -22 56 -23 77 -3 8 8 22 15 32 15 15 0 16 -8 10 -69 -6 -74 4 -121
28 -121 18 0 45 41 53 80 5 27 23 43 23 21 0 -5 12 -23 26 -40 34 -40 79 -43
88 -6 4 14 2 33 -2 43 -5 9 -12 30 -16 45 l-7 29 31 -35 c28 -32 31 -43 34
-113 3 -83 19 -110 60 -98 44 13 61 41 60 99 -1 50 0 53 19 46 16 -6 22 -18
24 -51 3 -45 36 -110 56 -110 17 0 33 13 40 32 4 11 16 16 36 16 17 -1 31 -2
31 -3 0 -2 -11 -28 -25 -59 -26 -59 -35 -159 -15 -171 6 -3 10 -11 10 -16 0
-6 -6 -7 -12 -2 -7 4 -5 -5 5 -20 14 -21 14 -25 2 -21 -10 4 -15 0 -15 -10 0
-9 -5 -16 -11 -16 -6 0 -9 -6 -6 -12 2 -7 11 -12 18 -10 11 3 12 1 2 -9 -21
-21 -16 -42 5 -30 14 7 19 6 19 -4 0 -8 -3 -13 -6 -11 -3 2 -12 -2 -19 -10
-11 -12 -10 -14 3 -14 11 0 14 -6 10 -23 -7 -28 33 -67 89 -86 32 -11 40 -11
47 0 7 11 9 10 9 -3 0 -19 55 -52 70 -43 6 3 10 -1 10 -10 0 -15 20 -26 47
-28 4 0 13 -7 20 -16 6 -9 14 -13 18 -9 4 4 16 -2 28 -13 28 -26 40 -24 33 6
-6 23 -5 24 12 14 13 -8 17 -20 15 -38 -4 -22 -3 -24 7 -8 10 16 13 14 38 -14
32 -39 36 -58 15 -82 -14 -15 -15 -17 -1 -12 11 5 15 -1 16 -25 0 -16 -4 -30
-9 -30 -5 0 -9 5 -9 10 0 6 -4 10 -10 10 -5 0 -10 -9 -10 -20 0 -11 -6 -20
-12 -21 -10 0 -10 -2 0 -6 6 -2 10 -9 6 -14 -3 -5 7 -9 21 -9 15 0 24 4 20 10
-4 6 -3 10 2 9 4 -1 17 -1 28 0 17 1 18 3 5 11 -8 5 -12 10 -8 10 4 0 3 11 -2
25 -11 28 2 34 26 11 9 -9 10 -17 4 -21 -18 -11 -11 -27 10 -22 11 3 18 1 15
-3 -3 -5 -19 -11 -35 -15 -33 -7 -38 -25 -15 -49 13 -13 14 -20 4 -38 -9 -16
-9 -23 0 -26 6 -2 11 -11 11 -20 -1 -15 -2 -15 -13 -1 -7 8 -34 31 -62 50 -45
31 -69 69 -43 69 6 0 5 6 -2 15 -15 18 -30 10 -30 -16 0 -19 -4 -20 -52 -14
-68 8 -91 -7 -93 -61 -2 -45 23 -73 64 -75 17 -1 20 -3 9 -6 -22 -6 -22 -10
-1 -31 16 -16 15 -17 -13 -22 -17 -3 -29 -11 -29 -20 0 -8 6 -14 13 -13 22 5
13 -16 -15 -34 -39 -25 -53 -39 -53 -55 0 -7 -10 -18 -22 -23 -24 -11 -36 -35
-18 -35 12 0 45 -29 39 -34 -16 -15 -84 -2 -74 14 6 10 -36 0 -51 -12 -6 -4
-19 -5 -29 -2 -16 6 -16 8 -1 16 24 13 22 128 -2 158 -11 13 -24 20 -30 16
-18 -11 -14 -26 6 -20 9 3 5 -2 -9 -10 -15 -8 -29 -22 -33 -31 -3 -10 -14 -14
-29 -11 -21 4 -23 1 -19 -20 2 -13 8 -24 13 -24 5 0 6 8 3 18 -4 11 1 8 15 -8
11 -14 21 -31 21 -39 0 -8 7 -23 17 -33 31 -34 -2 -18 -52 26 -48 42 -52 43
-105 39 -92 -7 -177 53 -179 126 -1 28 33 87 59 101 24 13 80 13 80 0 0 -5 -5
-10 -11 -10 -5 0 -8 -4 -5 -9 3 -5 -1 -14 -9 -21 -13 -11 -14 -10 -10 2 3 8
-1 21 -10 28 -13 11 -15 9 -15 -13 0 -14 8 -33 17 -43 16 -15 17 -15 24 2 4
11 8 13 8 7 1 -7 8 -13 17 -13 12 0 14 7 9 30 -4 17 -2 30 3 30 5 0 14 17 20
39 17 55 117 120 163 106 27 -9 25 17 -15 137 -178 543 -676 930 -1253 974
l-93 7 0 182 0 183 -34 21 c-46 29 -56 26 -56 -12 0 -19 -2 -36 -5 -39 -3 -3
-34 1 -68 8 -34 7 -71 13 -82 13 -11 -1 5 -7 35 -13 l55 -12 -22 -19 c-25 -21
-31 -65 -10 -65 6 -1 -11 -11 -39 -23 -28 -12 -58 -28 -66 -35 -9 -7 -20 -12
-24 -11 -21 4 -47 -2 -40 -8 4 -4 -8 -13 -26 -19 -25 -10 -28 -13 -12 -13 12
-1 33 -7 47 -14 33 -17 144 -4 198 24 54 27 59 25 59 -25 l0 -44 -67 -7 c-145
-15 -347 -69 -471 -127 -23 -12 -45 -18 -47 -16 -3 3 13 32 35 66 72 112 105
232 80 296 -7 21 -7 32 1 42 19 24 3 40 -58 57 -44 12 -62 22 -70 40 -14 29
-62 48 -183 71 -88 16 -123 14 -152 -12 -10 -8 -34 -16 -54 -18 -20 -2 -50
-12 -67 -22 -66 -38 -101 -132 -59 -159 11 -6 29 -33 42 -60 27 -58 24 -143
-8 -216 -26 -58 -20 -104 19 -148 15 -17 30 -36 31 -41 2 -5 24 -12 48 -15 25
-3 52 -11 60 -19 8 -7 28 -17 43 -23 l29 -11 -58 -53 c-32 -28 -83 -78 -113
-110 -30 -31 -61 -57 -67 -57 -7 0 -26 19 -41 43 -28 40 -34 44 -176 92 -143
48 -175 65 -121 65 14 0 63 17 108 38 111 53 195 139 208 217 2 14 -3 21 -19
23 -16 2 -23 -2 -23 -13 0 -9 -4 -14 -9 -10 -5 3 -15 -1 -23 -8 -7 -8 -19 -12
-26 -9 -6 2 -12 -2 -12 -10 0 -7 -11 -14 -25 -14 -14 -1 -43 -11 -65 -23 -42
-22 -66 -28 -144 -40 -28 -5 -52 -14 -54 -21 -3 -9 -6 -9 -12 -1 -5 9 -14 9
-34 1 l-27 -10 29 -25 c36 -30 52 -33 27 -5 -10 11 -15 20 -11 20 10 0 50 -24
58 -35 9 -13 -12 -37 -28 -31 -8 3 -11 0 -8 -9 3 -7 15 -16 27 -19 12 -3 18
-8 15 -11 -9 -9 -74 26 -174 95 -49 33 -110 74 -135 90 -41 27 -47 36 -60 87
-8 32 -14 81 -14 110 0 42 5 58 31 90 76 93 248 172 380 174 60 1 68 4 126 48
57 42 112 79 218 147 19 13 47 28 61 34 21 10 28 21 31 54 3 23 17 61 33 85
26 42 48 141 38 168 -3 7 -15 10 -32 7 -28 -6 -29 -4 -81 127 -30 73 -49 134
-44 136 5 2 45 19 89 37 44 18 83 30 87 27 4 -3 10 -18 13 -32z m2125 -7 c94
-47 122 -118 81 -208 -39 -87 -120 -109 -221 -62 -100 47 -98 40 -50 148 23
52 48 110 56 128 13 31 16 33 46 27 18 -3 58 -18 88 -33z m-2371 -89 c13 -28
12 -29 -31 -54 -19 -10 -24 -34 -9 -44 5 -3 22 0 36 7 24 11 29 10 41 -7 20
-27 17 -40 -11 -53 -27 -12 -30 -19 -16 -40 7 -11 14 -11 41 3 32 17 34 16 47
-1 7 -10 13 -23 13 -30 0 -15 -145 -97 -161 -92 -18 6 -140 241 -131 250 10
10 154 87 163 88 3 0 11 -12 18 -27z m2659 -71 c1 -5 -20 -38 -48 -75 l-50
-67 -35 17 c-41 20 -42 25 -14 95 12 29 25 63 30 76 l9 23 52 -30 c29 -17 54
-34 56 -39z m-1058 -2 c0 -5 -4 -11 -8 -14 -5 -3 -7 -41 -5 -85 l4 -79 -30 -7
c-30 -6 -30 -7 -15 -31 28 -42 13 -54 -68 -54 l-72 0 44 46 c25 25 57 53 72
62 27 15 27 17 21 92 l-6 77 32 1 c17 0 31 -3 31 -8z m-832 -55 c2 -45 2 -45
-30 -44 -18 0 -42 5 -53 10 -15 7 -10 8 18 4 20 -3 42 -3 48 0 15 10 -57 46
-78 39 -15 -5 -16 -4 -3 5 12 9 6 10 -25 5 -22 -4 -36 -3 -32 2 5 5 32 11 60
15 99 12 94 14 95 -36z m254 7 c51 -23 72 -40 97 -76 18 -26 31 -52 28 -59 -2
-7 -11 2 -20 19 -28 53 -82 94 -127 94 -21 0 -47 3 -57 6 -13 4 -14 3 -5 -3
19 -14 5 -40 -21 -38 -12 1 -40 -2 -61 -7 -25 -6 -43 -5 -50 2 -7 7 -6 10 3
10 7 0 9 5 6 10 -9 14 5 71 15 65 5 -3 12 0 16 6 11 19 104 4 176 -29z m416
-29 c45 -3 82 -10 82 -15 0 -5 -6 -8 -12 -7 -28 3 -38 -3 -84 -56 -29 -35 -48
-67 -50 -87 -5 -37 -26 -88 -36 -88 -5 0 -8 -20 -8 -44 0 -38 4 -48 30 -66
l30 -22 6 30 c5 26 11 30 47 35 23 3 47 14 54 23 15 21 17 58 3 49 -6 -4 -8
-11 -5 -16 3 -5 -2 -6 -11 -2 -13 5 -15 3 -9 -7 5 -9 4 -11 -3 -6 -19 12 -14
23 16 34 54 21 165 52 170 48 6 -7 -8 -46 -16 -44 -4 1 -17 -3 -29 -10 -12 -7
-32 -11 -45 -9 -18 2 -23 -3 -23 -24 -1 -50 -65 -112 -65 -63 0 17 -20 3 -105
-75 -57 -51 -72 -52 -59 -5 4 15 12 20 29 17 12 -3 26 0 29 6 8 13 -39 45 -53
36 -7 -4 -8 5 -4 26 7 37 -9 52 -49 43 l-27 -5 -3 155 -3 156 60 0 c33 0 97
-3 143 -7z m362 -39 c0 -23 -2 -24 -15 -10 -8 8 -15 19 -15 25 0 6 7 11 15 11
9 0 15 -10 15 -26z m730 -34 c23 -23 24 -33 10 -61 -22 -40 -110 -10 -110 39
0 43 64 58 100 22z m-1760 -31 c12 -9 13 -12 1 -16 -11 -5 -11 -7 0 -14 10 -6
11 -9 2 -9 -7 0 -13 -7 -13 -15 0 -11 -11 -15 -37 -16 -21 0 -48 -2 -59 -5
-26 -4 -49 19 -40 41 3 8 16 15 29 15 13 0 32 7 43 15 23 17 53 19 74 4z
m1180 1 c0 -5 -4 -10 -9 -10 -6 0 -13 5 -16 10 -3 6 1 10 9 10 9 0 16 -4 16
-10z m-140 -19 c0 -12 -20 -25 -27 -18 -7 7 6 27 18 27 5 0 9 -4 9 -9z m-641
-116 c-1 -75 -6 -61 -12 30 -3 41 -1 62 4 50 4 -11 8 -47 8 -80z m1001 60
c302 -129 570 -313 790 -541 155 -161 340 -399 294 -379 -45 19 -233 64 -271
64 -44 1 -120 -27 -141 -51 -9 -11 -35 -15 -102 -16 -72 0 -98 -5 -125 -20
l-34 -20 -10 30 c-14 39 -14 38 3 38 24 0 41 32 46 88 l5 55 52 -70 c29 -39
61 -73 72 -76 31 -8 61 20 61 57 0 32 -41 108 -72 134 -15 12 -14 16 5 47 16
24 31 34 52 37 29 3 30 5 33 54 2 32 -2 57 -10 65 -7 8 -20 27 -28 42 -20 40
-47 52 -77 36 -19 -10 -31 -10 -57 -1 -18 7 -40 12 -49 12 -11 0 -17 8 -17 24
0 29 -26 95 -48 119 -19 21 -60 22 -89 2 -14 -10 -24 -12 -28 -5 -18 29 -85
-12 -85 -52 0 -24 29 -81 46 -91 24 -14 15 -28 -13 -25 -21 2 -27 8 -25 22 2
10 -9 30 -25 46 -25 25 -37 28 -108 31 -66 4 -85 8 -107 28 -22 19 -25 29 -21
57 5 31 4 34 -21 34 -19 0 -26 5 -26 18 0 32 12 32 47 2 33 -29 71 -38 107
-24 24 9 19 27 -14 59 -29 28 -30 30 -10 37 39 14 16 72 -51 131 -23 20 -39
37 -36 37 3 0 42 -16 87 -35z m-1743 -17 c-3 -8 -6 -5 -6 6 -1 11 2 17 5 13 3
-3 4 -12 1 -19z m990 -14 c-3 -3 -12 -4 -19 -1 -8 3 -5 6 6 6 11 1 17 -2 13
-5z m-984 -76 c3 -35 8 -74 13 -87 5 -18 4 -22 -5 -16 -14 8 -91 124 -91 136
0 7 45 27 66 28 7 1 14 -24 17 -61z m1322 32 c-3 -5 -11 -10 -16 -10 -6 0 -7
5 -4 10 3 6 11 10 16 10 6 0 7 -4 4 -10z m-330 -10 c3 -5 1 -10 -4 -10 -6 0
-11 5 -11 10 0 6 2 10 4 10 3 0 8 -4 11 -10z m307 -32 c-6 -6 -15 -8 -19 -4
-4 4 -1 11 7 16 19 12 27 3 12 -12z m-8 -76 c-1 -18 3 -32 7 -32 5 0 9 -6 9
-13 0 -7 11 -28 24 -46 14 -19 22 -40 19 -49 -4 -8 -2 -13 3 -9 5 3 25 -19 43
-48 19 -29 43 -57 55 -63 18 -8 14 -11 -36 -27 -44 -14 -58 -23 -58 -38 0 -17
-2 -17 -15 -3 -14 14 -14 19 6 54 l22 38 -71 118 c-69 117 -76 141 -44 149 29
8 37 1 36 -31z m-478 -41 c-3 -4 6 -19 19 -31 14 -13 25 -33 25 -45 0 -27 34
-59 55 -52 11 5 15 -1 15 -24 l0 -30 -30 21 c-16 11 -32 25 -35 30 -4 6 -17
10 -30 10 -27 0 -45 26 -45 65 0 26 16 65 26 65 3 0 3 -4 0 -9z m777 -53 c22
-3 22 -3 -5 -32 l-28 -29 1 49 c1 27 3 41 6 32 2 -9 14 -18 26 -20z m-673 -48
c0 -13 -1 -13 -10 0 -5 8 -10 22 -10 30 0 13 1 13 10 0 5 -8 10 -22 10 -30z
m543 13 c-3 -7 -9 -10 -14 -7 -14 8 -11 21 5 21 8 0 12 -6 9 -14z m-1629 -8
c4 -11 -1 -15 -19 -15 -24 0 -32 10 -18 23 11 12 31 8 37 -8z m2146 -31 c0
-19 -16 -10 -31 17 -10 19 -9 20 10 9 12 -6 21 -18 21 -26z m-1938 -4 c7 -11
20 -20 30 -20 9 0 20 -4 23 -10 3 -6 -4 -10 -18 -10 -41 0 -127 -41 -127 -60
0 -25 -10 -31 -32 -19 -18 10 -17 13 21 46 23 19 41 40 40 46 -1 7 -1 20 0 30
1 24 47 22 63 -3z m938 -13 c0 -5 -4 -5 -10 -2 -5 3 -10 14 -10 23 0 15 2 15
10 2 5 -8 10 -19 10 -23z m1037 -9 c-3 -8 -6 -5 -6 6 -1 11 2 17 5 13 3 -3 4
-12 1 -19z m-448 -82 c-9 -8 -10 -7 -5 7 3 10 7 24 7 30 1 7 3 4 6 -7 3 -10
-1 -23 -8 -30z m-1369 18 c0 -8 -5 -12 -10 -9 -6 4 -8 11 -5 16 9 14 15 11 15
-7z m1420 -29 c0 -5 -5 -3 -10 5 -5 8 -10 20 -10 25 0 6 5 3 10 -5 5 -8 10
-19 10 -25z m-1882 -7 c4 -22 -38 -34 -67 -18 -26 13 -27 27 -3 33 33 10 67 2
70 -15z m352 12 c-19 -13 -30 -13 -30 0 0 6 10 10 23 10 18 0 19 -2 7 -10z
m600 -10 c8 -5 12 -12 8 -15 -9 -9 -48 4 -48 16 0 12 21 11 40 -1z m1055 -42
c-7 -33 -25 -62 -25 -41 0 15 21 73 27 73 2 0 2 -15 -2 -32z m-488 -14 c-3 -3
-12 -4 -19 -1 -8 3 -5 6 6 6 11 1 17 -2 13 -5z m-1362 -53 c0 -8 -8 -19 -17
-25 -14 -8 -22 -7 -35 7 -16 16 -16 19 -3 27 21 14 55 8 55 -9z m1784 -43 c-2
-2 -19 -13 -36 -26 -27 -18 -33 -20 -33 -7 0 8 11 21 25 27 14 6 25 16 25 22
0 6 5 5 12 -2 6 -6 10 -13 7 -14z m61 -12 c0 -3 -4 -8 -10 -11 -5 -3 -10 -1
-10 4 0 6 5 11 10 11 6 0 10 -2 10 -4z m-3284 -28 c-1 -20 4 -23 33 -21 18 1
30 -1 27 -4 -7 -8 41 -33 63 -33 14 0 14 2 1 10 -8 5 -12 12 -9 15 12 11 52
-32 46 -48 -5 -14 -11 -14 -37 -6 -16 6 -30 15 -30 19 0 4 -22 13 -50 20 -49
12 -62 21 -73 53 -5 12 -1 17 12 17 12 0 17 -7 17 -22z m3444 7 c-7 -9 -15
-13 -17 -11 -7 7 7 26 19 26 6 0 6 -6 -2 -15z m-71 -86 c13 -18 17 -28 10 -24
-24 14 -49 38 -49 47 0 17 17 7 39 -23z m-308 -42 c-10 -9 -11 -8 -5 6 3 10 9
15 12 12 3 -3 0 -11 -7 -18z m597 -2 c-3 -3 -9 2 -12 12 -6 14 -5 15 5 6 7 -7
10 -15 7 -18z m170 0 c-3 -3 -9 2 -12 12 -6 14 -5 15 5 6 7 -7 10 -15 7 -18z
m-3442 -70 c36 -25 71 -45 77 -45 7 0 30 -15 52 -32 21 -18 47 -31 57 -30 13
2 16 -1 11 -15 -5 -15 -3 -16 8 -5 7 6 18 12 24 12 5 0 4 -4 -3 -9 -10 -6 -4
-16 25 -38 21 -17 49 -34 63 -38 14 -4 41 -18 60 -31 19 -13 41 -24 50 -24 8
-1 42 -16 75 -35 70 -40 143 -75 157 -75 5 0 7 -4 4 -9 -6 -10 49 -36 79 -37
61 -2 73 -5 79 -20 12 -30 -6 -35 -39 -10 -36 28 -45 31 -45 17 0 -5 29 -28
65 -52 36 -23 65 -46 65 -49 0 -13 -25 -30 -43 -30 -10 0 -56 17 -101 39 -44
21 -112 48 -151 61 -99 31 -136 48 -170 76 -26 22 -27 25 -7 19 42 -12 22 4
-58 46 -44 23 -100 62 -125 86 -27 28 -48 42 -56 37 -7 -4 -10 -3 -5 4 3 6 -3
14 -15 17 -17 6 -19 9 -8 16 21 13 -9 31 -40 23 -21 -5 -23 -3 -12 10 12 14
10 16 -13 16 -14 0 -26 5 -26 11 0 5 -4 8 -9 5 -5 -4 -7 3 -4 13 3 13 -2 21
-18 26 -12 4 -32 16 -43 26 -11 11 -26 19 -33 19 -7 0 -13 7 -13 15 0 9 -7 18
-15 21 -8 4 -15 11 -15 16 0 18 50 -2 116 -47z m944 8 c7 -20 9 -43 5 -60 -5
-16 -7 -34 -6 -42 1 -7 -3 -11 -10 -9 -7 2 -12 31 -13 80 -1 80 2 85 24 31z
m-1260 -49 c0 -2 -7 -4 -15 -4 -8 0 -15 4 -15 10 0 5 7 7 15 4 8 -4 15 -8 15
-10z m-86 -29 c-32 -28 -40 -30 -49 -14 -4 6 0 9 10 7 10 -2 20 2 22 9 3 7 -9
13 -29 16 -23 3 -16 4 21 5 l54 2 -29 -25z m-101 8 c-7 -2 -19 -2 -25 0 -7 3
-2 5 12 5 14 0 19 -2 13 -5z m357 -5 c0 -3 15 -10 33 -13 40 -9 131 -54 123
-62 -7 -7 -146 38 -146 48 0 4 -9 6 -20 4 -11 -2 -20 0 -20 6 0 5 -6 9 -14 9
-8 0 -18 5 -21 10 -4 6 8 9 29 8 20 -2 36 -6 36 -10z m-220 -23 c-10 -12 -6
-18 24 -36 32 -19 46 -46 30 -61 -6 -6 -79 12 -132 33 -46 19 -37 42 20 54 25
5 50 13 54 18 13 13 17 7 4 -8z m3730 -9 c0 -3 -4 -8 -10 -11 -5 -3 -10 -1
-10 4 0 6 5 11 10 11 6 0 10 -2 10 -4z m343 -33 c-7 -2 -19 -2 -25 0 -7 3 -2
5 12 5 14 0 19 -2 13 -5z m-3855 -53 c46 -1 195 -38 237 -59 21 -12 47 -21 57
-21 9 0 20 -5 24 -11 3 -6 20 -17 38 -25 30 -13 30 -13 -32 -14 -54 0 -65 -3
-69 -19 -5 -20 -70 -31 -191 -31 -57 0 -63 2 -57 18 18 44 17 47 -37 66 -67
23 -80 33 -68 54 5 10 11 25 14 34 5 17 48 29 54 16 2 -5 16 -8 30 -8z m3812
-50 c0 -5 -8 -10 -17 -10 -15 0 -16 2 -3 10 19 12 20 12 20 0z m-1190 -111 l0
-90 -37 3 c-31 2 -39 8 -47 31 -13 37 3 81 32 85 17 3 22 10 22 33 0 19 5 29
15 29 12 0 15 -17 15 -91z m-372 69 c-3 -7 -11 -13 -18 -13 -7 0 -15 6 -17 13
-3 7 4 12 17 12 13 0 20 -5 18 -12z m1265 -28 c-3 -20 -1 -30 6 -30 8 0 10 -8
6 -21 -5 -15 -4 -19 5 -14 8 5 11 1 9 -11 -2 -11 0 -25 4 -31 5 -8 4 -13 -2
-13 -6 0 -11 -7 -11 -15 0 -8 4 -15 10 -15 13 0 0 -93 -14 -102 -6 -4 -15 1
-20 10 -5 9 -14 21 -20 25 -7 5 -3 6 8 3 15 -5 17 -2 12 18 -3 13 0 36 8 50
16 31 2 106 -19 106 -8 0 -10 9 -7 25 2 14 8 25 13 25 5 0 5 7 2 17 -4 11 -3
14 5 9 7 -4 9 -19 5 -36z m-1922 15 c0 -8 0 -40 0 -70 0 -77 1 -75 -16 -75
-12 0 -15 13 -15 61 0 50 -3 60 -15 55 -24 -9 -17 18 8 30 31 16 37 16 38 -1z
m236 -2 c3 -6 -8 -13 -24 -15 -30 -3 -44 -35 -33 -77 9 -34 30 -39 30 -7 0 14
-4 26 -10 26 -5 0 -10 5 -10 10 0 6 11 10 25 10 23 0 25 -4 25 -45 0 -44 0
-45 -34 -45 -40 0 -56 17 -63 67 -6 50 26 96 65 91 14 -2 27 -8 29 -15z m1741
-18 c-3 -28 -11 -24 -13 5 -1 11 2 20 7 20 4 0 7 -11 6 -25z m62 13 c0 -9 4
-8 11 2 9 13 10 13 6 0 -2 -8 -10 -14 -17 -12 -8 2 -10 -3 -6 -13 3 -9 -3 -24
-14 -35 -18 -18 -20 -18 -20 -2 0 9 7 26 15 36 8 10 12 23 9 27 -3 5 0 9 5 9
6 0 11 -6 11 -12z m-2864 -13 c16 -8 36 -15 45 -15 20 0 69 -23 69 -32 0 -10
-5 -10 -58 2 -24 6 -54 22 -68 35 -29 29 -27 31 12 10z m3117 0 c4 -8 2 -17
-3 -20 -6 -4 -10 3 -10 14 0 25 6 27 13 6z m-3453 -5 c18 -12 2 -12 -25 0 -13
6 -15 9 -5 9 8 0 22 -4 30 -9z m1692 -14 c4 -6 8 -32 8 -58 l0 -48 -39 0 c-30
0 -41 5 -46 19 -8 27 4 50 31 57 32 8 31 24 -1 24 -26 0 -34 15 -12 23 16 7
50 -3 59 -17z m78 9 c0 -8 -4 -15 -10 -15 -5 0 -10 -22 -10 -50 0 -38 -4 -50
-15 -50 -24 0 -21 117 3 123 30 8 32 7 32 -8z m330 1 c0 -8 -6 -16 -14 -19 -9
-4 -12 -18 -9 -51 5 -42 3 -46 -16 -46 -19 0 -21 6 -21 55 0 41 4 56 18 64 24
15 42 13 42 -3z m1140 -18 c-14 -5 -19 -15 -18 -33 1 -14 6 -25 11 -25 5 0 3
-8 -4 -17 -12 -14 -12 -15 0 -9 10 7 12 0 7 -32 -3 -22 -1 -42 4 -44 11 -4 -9
-88 -21 -88 -16 0 -9 -30 11 -50 11 -11 15 -20 9 -20 -6 0 -20 11 -31 25 -10
13 -25 24 -31 22 -8 -1 -12 11 -11 36 1 30 -1 35 -12 26 -10 -8 -15 -5 -20 15
-9 36 0 53 30 58 28 6 33 -1 14 -20 -9 -9 -8 -12 4 -12 20 0 30 37 12 44 -8 3
-14 11 -14 18 0 9 3 8 10 -2 8 -12 10 -10 9 10 -1 34 16 97 32 116 10 12 14
12 20 2 5 -8 1 -15 -11 -20z m-1742 10 c7 -7 12 -22 12 -35 0 -19 -5 -23 -31
-23 -35 0 -36 -23 -1 -28 32 -5 27 -22 -6 -22 -37 0 -52 17 -52 60 0 41 14 60
45 60 12 0 26 -5 33 -12z m59 -20 l10 -33 7 33 c4 18 14 32 22 32 10 0 14 -6
10 -17 -2 -10 -10 -37 -17 -61 -16 -55 -37 -52 -55 8 -17 57 -17 70 0 70 7 0
17 -15 23 -32z m261 -31 c3 -52 1 -57 -18 -57 -18 0 -20 6 -20 61 0 52 2 60
18 57 13 -2 18 -15 20 -61z m97 51 c13 -41 10 -53 -17 -56 -36 -4 -38 -32 -3
-32 14 0 25 -4 25 -10 0 -5 -16 -10 -35 -10 -49 0 -67 37 -45 94 7 20 16 26
40 26 17 0 33 -6 35 -12z m105 -7 c19 -36 12 -51 -21 -51 -35 0 -36 -23 -1
-28 12 -2 22 -8 22 -13 0 -13 -54 -11 -68 3 -16 16 -16 80 0 96 18 18 56 14
68 -7z m1281 -5 c5 3 9 0 9 -6 0 -15 -23 -7 -26 8 -1 7 0 8 3 2 2 -5 9 -8 14
-4z m89 10 c0 -3 -4 -8 -10 -11 -5 -3 -10 -1 -10 4 0 6 5 11 10 11 6 0 10 -2
10 -4z m-246 -49 c2 -15 8 -37 11 -50 5 -16 1 -13 -14 10 -11 18 -17 40 -14
52 7 26 10 24 17 -12z m254 16 c-3 -40 2 -55 17 -49 10 4 15 -1 15 -16 0 -17
-3 -19 -12 -10 -9 9 -16 8 -30 -5 -22 -20 -33 -11 -41 35 -6 27 -4 32 14 32
11 0 22 7 25 15 8 20 14 19 12 -2z m486 -9 c3 -8 2 -12 -4 -9 -6 3 -10 10 -10
16 0 14 7 11 14 -7z m-814 -39 c0 -5 -5 -3 -10 5 -5 8 -10 20 -10 25 0 6 5 3
10 -5 5 -8 10 -19 10 -25z m240 20 c0 -8 -4 -15 -10 -15 -5 0 -10 7 -10 15 0
8 5 15 10 15 6 0 10 -7 10 -15z m-130 -16 c0 -6 -4 -7 -10 -4 -5 3 -10 11 -10
16 0 6 5 7 10 4 6 -3 10 -11 10 -16z m-3475 -13 l80 -11 -60 -14 c-33 -7 -82
-17 -110 -22 -27 -6 -60 -12 -72 -15 -27 -5 -28 1 -7 51 15 36 16 37 52 30 20
-4 73 -12 117 -19z m1528 -1 c1 -5 -6 -11 -15 -13 -11 -2 -18 3 -18 13 0 17
30 18 33 0z m2086 -33 c-5 -2 -9 -12 -9 -23 0 -10 -4 -19 -10 -19 -5 0 -10 8
-10 18 0 14 -2 15 -10 2 -8 -12 -10 -11 -10 8 0 13 6 22 15 22 8 0 15 5 15 10
0 6 6 5 14 -2 8 -7 10 -14 5 -16z m605 -17 c3 -8 1 -15 -3 -15 -5 0 -11 7 -15
15 -3 8 -1 15 3 15 5 0 11 -7 15 -15z m-4307 -21 c-3 -3 -12 -4 -19 -1 -8 3
-5 6 6 6 11 1 17 -2 13 -5z m156 -9 c53 -7 163 -52 153 -62 -4 -4 -21 0 -39 9
-52 26 -89 37 -141 43 -26 3 -56 10 -65 16 -12 8 -9 9 14 5 17 -3 51 -8 78
-11z m-228 -24 c-16 -14 -55 -23 -55 -12 0 9 20 17 50 20 8 1 10 -2 5 -8z
m180 -10 c-9 -7 -91 -37 -135 -48 -8 -2 12 10 45 27 56 28 111 41 90 21z
m3563 -4 c11 -12 8 -29 -18 -122 -4 -16 -9 -25 -10 -20 -1 6 -3 15 -4 20 -1 6
-6 18 -10 28 -6 13 -3 22 10 32 11 8 14 14 7 15 -15 0 -18 30 -3 30 5 0 7 7 4
15 -7 18 10 20 24 2z m-3191 -23 c10 -15 30 -38 46 -53 15 -14 27 -31 27 -38
0 -7 5 -13 10 -13 10 0 80 -142 80 -161 0 -26 -24 -2 -46 46 -14 31 -41 79
-60 108 -19 28 -40 61 -47 71 -7 11 -20 28 -29 38 -20 20 -22 28 -8 28 5 0 17
-12 27 -26z m150 -20 c-9 -9 -27 6 -27 22 0 13 2 13 16 -1 9 -9 14 -18 11 -21z
m3097 -21 c-1 -25 -9 -50 -16 -55 -10 -6 -10 -10 2 -18 8 -5 10 -10 4 -10 -5
0 -15 -10 -20 -22 -6 -13 -9 -17 -7 -9 2 8 -2 18 -9 23 -8 6 -9 11 -2 14 5 2
9 22 8 44 -1 26 2 38 9 33 5 -3 7 -1 4 5 -10 14 2 42 18 42 9 0 12 -14 9 -47z
m-230 22 c-4 -8 -8 -15 -10 -15 -2 0 -4 7 -4 15 0 8 4 15 10 15 5 0 7 -7 4
-15z m353 -35 c0 -25 -2 -33 -4 -18 -4 29 -33 61 -33 38 0 -8 -2 -11 -5 -8
-11 10 6 34 24 34 15 0 18 -8 18 -46z m-3900 -4 c-3 -8 -22 -16 -44 -19 -26
-3 -20 -4 22 -5 33 0 74 -5 90 -10 l30 -10 -42 -7 c-24 -4 -40 -11 -37 -16 2
-5 18 -6 34 -2 18 3 30 1 30 -5 0 -13 -87 -34 -111 -27 -12 4 -37 -2 -61 -15
-22 -11 -43 -18 -46 -15 -8 8 19 107 32 120 18 18 90 43 100 34 5 -4 6 -14 3
-23z m436 14 c18 -8 30 -24 34 -42 3 -15 10 -28 15 -28 5 0 6 6 2 13 -4 6 6 0
21 -15 20 -19 26 -32 21 -45 -7 -17 -9 -16 -28 7 -11 14 -36 43 -57 65 -40 43
-59 70 -45 63 5 -2 22 -10 37 -18z m-273 0 c-8 -5 -28 -9 -45 -9 -30 2 -30 2
5 9 51 11 57 11 40 0z m563 -54 c27 -55 35 -88 18 -70 -16 15 -61 124 -52 124
4 0 20 -24 34 -54z m-656 28 c-3 -3 -12 -4 -19 -1 -8 3 -5 6 6 6 11 1 17 -2
13 -5z m103 -3 c0 -5 -9 -7 -20 -4 -11 3 -20 7 -20 9 0 2 9 4 20 4 11 0 20 -4
20 -9z m3705 -50 c3 -30 0 -43 -10 -47 -8 -4 -13 -10 -10 -14 3 -4 -3 -14 -12
-21 -14 -13 -15 -11 -9 21 4 19 7 45 6 58 0 12 5 22 10 22 6 0 10 8 10 17 0
31 11 5 15 -36z m-3645 18 c98 -20 105 -21 94 -26 -6 -2 -44 0 -85 5 -43 6
-78 6 -83 1 -6 -5 -24 -8 -40 -8 l-31 1 30 7 30 7 -25 7 c-24 8 -24 9 -5 17
11 5 29 7 40 4 11 -3 45 -10 75 -15z m3592 4 c-4 -10 -8 -44 -7 -76 2 -55 1
-56 -17 -40 -20 18 -25 63 -7 63 6 0 9 -7 5 -15 -3 -8 -1 -15 4 -15 6 0 10 12
10 26 0 14 -4 23 -8 20 -5 -3 -9 8 -9 24 0 23 5 30 19 30 14 0 17 -4 10 -17z
m-3402 -43 c24 -8 24 -8 -7 -9 -17 -1 -35 4 -38 9 -7 11 9 11 45 0z m2235
-105 c0 -73 -3 -90 -15 -90 -12 0 -16 18 -18 93 -3 85 -1 93 15 90 16 -3 18
-15 18 -93z m-795 70 c0 -8 -7 -15 -15 -15 -8 0 -15 7 -15 15 0 8 7 15 15 15
8 0 15 -7 15 -15z m-295 -19 c15 -23 15 -27 -4 -65 -26 -50 -26 -51 -1 -51 19
0 29 -18 13 -21 -81 -14 -90 -7 -59 45 32 54 34 86 7 86 -24 0 -36 16 -19 23
28 11 48 6 63 -17z m187 -18 l23 -43 3 43 c5 72 27 45 30 -38 4 -102 -14 -114
-53 -35 l-19 40 -6 -45 c-8 -68 -25 -54 -28 24 -5 108 12 126 50 54z m389 25
c6 -164 5 -168 -25 -137 -20 20 -23 140 -3 147 22 9 27 7 28 -10z m-1881 -1
c0 -12 34 -11 42 1 4 8 15 7 33 -1 14 -7 37 -9 51 -6 14 4 35 2 47 -3 12 -6
35 -16 51 -22 19 -8 26 -15 19 -22 -12 -12 -165 -15 -213 -5 -22 5 -30 4 -22
-2 10 -7 -1 -16 -41 -35 -53 -26 -99 -73 -130 -132 -22 -43 -40 -146 -27 -159
5 -5 10 -24 10 -41 1 -74 76 -167 168 -206 26 -11 60 -27 76 -35 41 -20 119
-18 201 6 38 11 71 20 72 20 2 0 3 -18 3 -40 0 -37 -2 -40 -27 -40 -52 0 -248
-32 -251 -41 -9 -23 -94 12 -100 41 -5 22 -22 40 -39 40 -8 0 -13 8 -11 17 2
12 -16 31 -59 58 -34 22 -60 45 -59 50 2 6 9 9 15 7 19 -4 12 18 -14 50 -14
16 -28 42 -31 56 -4 15 -10 32 -14 37 -14 18 -21 199 -11 259 12 68 23 85 45
67 21 -17 39 -4 31 23 -15 53 -18 51 61 48 40 -2 81 1 91 7 22 13 33 14 33 3z
m290 -7 c-7 -8 -14 -15 -15 -15 -2 0 -5 7 -9 15 -4 10 1 15 16 15 17 0 18 -2
8 -15z m1471 3 c4 -78 4 -148 -1 -148 -24 1 -48 107 -33 146 6 17 33 19 34 2z
m-1428 -52 l16 -35 -32 11 c-41 14 -40 13 -25 37 17 28 22 27 41 -13z m1267
-26 c0 -47 -3 -60 -15 -60 -12 0 -15 13 -15 60 0 47 3 60 15 60 12 0 15 -13
15 -60z m100 34 c15 -39 13 -44 -20 -44 -20 0 -30 -5 -30 -15 0 -9 9 -15 25
-15 26 0 33 -14 14 -25 -21 -14 -57 5 -67 35 -17 47 2 90 39 90 22 0 32 -6 39
-26z m284 10 c13 -34 6 -53 -19 -56 -31 -4 -38 -21 -10 -26 34 -7 39 -21 10
-28 -49 -12 -83 54 -55 107 13 24 65 26 74 3z m106 -8 c0 -35 18 -42 22 -9 2
16 10 29 19 31 15 3 15 -2 0 -60 -20 -76 -40 -82 -58 -19 -7 24 -15 52 -18 62
-5 14 -1 19 14 19 16 0 21 -6 21 -24z m138 12 c7 -7 12 -22 12 -34 0 -17 -7
-24 -25 -26 -14 -2 -26 -7 -26 -13 0 -5 12 -11 26 -13 33 -4 32 -20 -2 -28
-47 -12 -80 55 -53 107 12 21 50 25 68 7z m112 -7 c17 -32 12 -49 -15 -53 -33
-4 -37 -22 -7 -26 13 -2 21 -9 19 -15 -6 -19 -43 -20 -61 -2 -19 19 -22 85 -4
103 18 18 56 14 68 -7z m1280 4 c0 -8 -4 -15 -8 -15 -5 0 -9 7 -9 15 0 8 4 15
9 15 4 0 8 -7 8 -15z m100 -34 c0 -6 -4 -13 -10 -16 -5 -3 -10 1 -10 9 0 9 5
16 10 16 6 0 10 -4 10 -9z m-3260 -78 c28 -63 21 -75 -14 -24 -16 22 -26 47
-22 56 8 23 13 19 36 -32z m910 23 c0 -21 -21 -31 -30 -15 -5 7 -6 17 -4 21 9
14 34 9 34 -6z m2679 -66 c17 0 13 -17 -6 -24 -9 -4 -20 -1 -25 6 -9 15 -11 6
-2 -16 3 -8 12 -12 20 -9 10 3 14 -2 14 -18 l-1 -24 -24 28 c-15 17 -25 40
-25 58 0 18 -4 28 -10 24 -5 -3 -10 4 -10 15 0 21 2 20 29 -9 16 -17 34 -31
40 -31z m-301 32 c2 -7 -3 -12 -12 -12 -9 0 -16 7 -16 16 0 17 22 14 28 -4z
m-4071 -64 c-3 -8 -6 -5 -6 6 -1 11 2 17 5 13 3 -3 4 -12 1 -19z m-17 -23 c0
-8 -7 -15 -15 -15 -26 0 -18 20 13 29 1 1 2 -6 2 -14z m-200 -19 c0 -11 -19
-15 -25 -6 -3 5 1 10 9 10 9 0 16 -2 16 -4z m521 -86 c26 -25 36 -40 26 -40
-8 0 -18 6 -20 13 -4 9 -7 9 -14 0 -6 -9 -14 -4 -27 17 -9 17 -23 30 -29 30
-7 0 -6 4 3 10 8 5 16 10 17 10 2 0 22 -18 44 -40z m-571 10 c0 -5 -2 -10 -4
-10 -3 0 -8 5 -11 10 -3 6 -1 10 4 10 6 0 11 -4 11 -10z m4705 -6 c18 -12 37
-14 78 -9 l54 7 6 -63 c4 -34 7 -82 7 -106 l0 -44 -21 20 c-26 24 -92 41 -158
41 -28 0 -51 4 -51 9 0 5 7 28 15 52 9 24 17 57 20 74 2 16 4 31 4 33 2 7 25
0 46 -14z m-4415 -44 c0 -20 -2 -22 -10 -10 -5 8 -10 26 -10 40 0 20 2 22 10
10 5 -8 10 -26 10 -40z m363 -2 c4 -10 8 -9 16 2 9 13 11 13 11 0 0 -9 -5 -21
-12 -28 -9 -9 -14 -7 -24 6 -8 9 -14 20 -14 25 0 12 18 8 23 -5z m1377 -117
c0 -80 -2 -90 -20 -96 -25 -8 -57 9 -65 35 -11 36 4 79 31 86 16 4 24 13 24
28 0 24 8 36 22 36 4 0 8 -40 8 -89z m778 2 c3 -92 -9 -114 -56 -97 -36 13
-51 64 -28 99 9 14 23 25 31 25 9 0 15 9 15 23 0 13 3 27 7 31 18 18 28 -7 31
-81z m260 -3 c3 -86 -2 -100 -40 -100 -26 0 -48 28 -48 61 0 41 17 69 40 69
16 0 20 7 20 31 0 20 4 29 13 27 8 -3 13 -32 15 -88z m-1248 65 c0 -8 -7 -15
-15 -15 -8 0 -15 7 -15 15 0 8 7 15 15 15 8 0 15 -7 15 -15z m1031 0 c-1 -15
-24 -12 -29 3 -3 9 2 13 12 10 10 -1 17 -7 17 -13z m-2981 -5 c0 -5 -5 -10
-11 -10 -5 0 -7 5 -4 10 3 6 8 10 11 10 2 0 4 -4 4 -10z m1624 -12 c9 -13 12
-27 7 -36 -5 -8 -3 -27 3 -43 9 -25 7 -32 -11 -50 -16 -16 -28 -20 -47 -15
-29 7 -26 26 4 26 25 0 31 21 12 43 -12 13 -13 20 -4 29 18 18 14 38 -8 38
-35 0 -20 27 17 29 6 1 19 -9 27 -21z m191 -28 c4 -22 10 -40 15 -40 5 0 11
18 15 40 5 29 12 40 24 40 14 0 20 -11 25 -52 9 -80 8 -98 -8 -98 -10 0 -16
14 -18 43 l-3 42 -13 -42 c-7 -24 -17 -43 -22 -43 -5 0 -15 19 -22 43 l-13 42
-3 -42 c-2 -31 -8 -43 -19 -43 -13 0 -15 8 -9 46 3 26 6 60 6 75 0 22 5 29 19
29 15 0 21 -10 26 -40z m1685 26 c0 -8 6 -17 13 -20 10 -5 10 -7 0 -12 -16 -7
-17 -66 -1 -82 9 -9 9 -15 0 -24 -27 -27 -50 43 -43 135 1 20 31 23 31 3z
m-3365 -16 c3 -5 1 -10 -4 -10 -6 0 -11 5 -11 10 0 6 2 10 4 10 3 0 8 -4 11
-10z m365 -52 c0 -4 -4 -8 -10 -8 -5 0 -10 7 -10 15 0 8 -4 15 -9 15 -5 0 -12
8 -15 17 -5 13 0 11 18 -6 15 -14 26 -28 26 -33z m1450 -8 c0 -47 -3 -60 -15
-60 -12 0 -15 13 -15 60 0 47 3 60 15 60 12 0 15 -13 15 -60z m98 48 c7 -7 12
-34 12 -60 0 -41 -3 -48 -20 -48 -17 0 -20 7 -20 50 0 28 -4 50 -10 50 -5 0
-10 -22 -10 -50 0 -38 -4 -50 -15 -50 -12 0 -15 13 -15 60 l0 60 33 0 c18 0
38 -5 45 -12z m210 0 c7 -7 12 -22 12 -34 0 -16 -8 -23 -31 -28 -33 -6 -31
-26 2 -26 12 0 19 -5 16 -12 -5 -16 -58 -13 -69 4 -12 20 -10 82 4 96 7 7 21
12 33 12 12 0 26 -5 33 -12z m82 2 c0 -5 -4 -10 -10 -10 -5 0 -10 -22 -10 -50
0 -38 -4 -50 -15 -50 -12 0 -15 13 -15 60 0 57 1 60 25 60 14 0 25 -4 25 -10z
m95 -27 l8 -38 10 38 c5 22 15 37 24 37 9 0 12 -6 9 -17 -3 -10 -10 -37 -16
-59 -16 -63 -36 -64 -55 -2 -19 64 -19 78 -1 78 8 0 17 -16 21 -37z m145 11
c15 -37 13 -42 -17 -46 -35 -4 -43 -28 -9 -28 31 0 35 -16 6 -25 -56 -18 -88
59 -47 113 17 22 57 14 67 -14z m150 17 c0 -5 -6 -27 -14 -49 -13 -37 -13 -40
4 -45 13 -3 19 2 23 23 4 19 14 30 32 34 29 7 25 26 -6 26 -10 0 -19 5 -19 10
0 14 54 12 68 -2 7 -7 12 -33 12 -59 0 -52 -18 -68 -62 -53 -13 4 -42 6 -66 5
l-43 -3 16 37 c22 55 20 67 -12 63 -26 -3 -28 -7 -31 -50 -2 -34 -7 -48 -18
-48 -10 0 -14 13 -14 53 0 30 3 57 7 60 10 10 123 8 123 -2z m259 -51 c0 -53
-2 -60 -20 -60 -17 0 -19 7 -19 60 0 52 2 60 19 60 17 0 19 -8 20 -60z m101
-20 c0 -76 -1 -81 -24 -92 -26 -11 -56 -5 -56 12 0 5 9 10 19 10 11 0 23 5 26
10 3 6 -1 10 -9 10 -19 0 -46 38 -46 65 0 35 28 65 61 65 l29 0 0 -80z m208
47 c4 -34 22 -36 22 -3 0 24 16 43 27 33 9 -10 -20 -116 -33 -121 -16 -6 -19
-2 -34 52 -6 24 -14 50 -17 59 -4 11 -1 14 13 11 12 -2 20 -13 22 -31z m140
21 c7 -7 12 -22 12 -34 0 -16 -8 -23 -31 -28 -35 -7 -30 -26 7 -26 29 0 32
-16 4 -25 -33 -10 -70 20 -70 56 0 17 5 39 10 50 12 21 50 25 68 7z m-3513
-18 c3 -5 1 -10 -4 -10 -6 0 -11 5 -11 10 0 6 2 10 4 10 3 0 8 -4 11 -10z
m4335 -35 c0 -18 -1 -18 -36 0 l-29 15 33 0 c22 0 32 -5 32 -15z m-3968 -3 c3
8 6 9 11 1 4 -6 0 -16 -7 -23 -12 -9 -17 -7 -27 12 -11 20 -11 22 3 10 13 -10
17 -10 20 0z m4408 -3 c0 -7 9 -9 22 -6 12 4 33 4 46 0 19 -4 23 -11 19 -29
-2 -13 0 -24 4 -24 16 0 10 -20 -11 -37 -19 -17 -27 -43 -14 -43 4 0 13 8 20
18 13 16 13 16 14 0 0 -10 -4 -18 -10 -18 -5 0 -10 -10 -10 -22 0 -30 -14 -50
-31 -46 -8 2 -13 -3 -11 -10 1 -7 -5 -20 -13 -29 -9 -8 -14 -21 -12 -27 3 -8
-6 -10 -29 -8 -38 5 -43 -6 -20 -50 15 -28 14 -28 -15 -28 -19 0 -40 10 -57
27 -20 20 -35 26 -62 25 -19 -2 -150 13 -290 33 -140 19 -256 35 -257 35 -2 0
-3 7 -3 16 0 12 5 14 18 8 41 -20 182 8 182 36 0 6 11 10 26 10 14 0 57 7 96
16 54 12 80 25 110 52 39 36 42 36 109 33 56 -2 70 0 75 13 6 15 80 66 97 66
4 0 7 -5 7 -11z m-4925 -19 c3 -5 1 -10 -4 -10 -6 0 -11 5 -11 10 0 6 2 10 4
10 3 0 8 -4 11 -10z m1918 -7 c9 -9 -13 -34 -24 -27 -14 8 -11 34 4 34 8 0 17
-3 20 -7z m2547 -3 c0 -5 -5 -10 -11 -10 -5 0 -7 5 -4 10 3 6 8 10 11 10 2 0
4 -4 4 -10z m-4441 -54 c-3 -3 -11 5 -18 17 -13 21 -12 21 5 5 10 -10 16 -20
13 -22z m399 19 c3 -3 -14 -5 -37 -5 -23 0 -40 4 -36 9 5 9 63 6 73 -4z m-188
-5 c0 -5 -4 -10 -10 -10 -5 0 -10 5 -10 10 0 6 5 10 10 10 6 0 10 -4 10 -10z
m300 1 c0 -10 124 -56 178 -66 24 -5 32 -3 32 8 0 9 -6 17 -12 20 -7 3 0 10
17 16 20 8 36 9 50 2 11 -5 14 -10 8 -10 -19 -1 -16 -19 5 -24 13 -4 11 -5 -5
-6 -31 -1 -29 -29 2 -37 31 -8 31 -15 -1 -53 -22 -27 -31 -31 -58 -26 -17 4
-82 -1 -144 -9 -153 -22 -142 -24 -142 33 0 46 1 49 31 55 17 3 49 6 71 6 32
0 39 3 36 18 -2 9 -17 22 -33 27 -47 16 -68 31 -61 44 9 13 26 15 26 2z m5143
-46 c-4 -16 -145 -13 -151 3 -3 10 14 12 75 10 45 -2 77 -7 76 -13z m-5488
-14 c-3 -6 -11 -8 -17 -5 -6 4 -5 9 3 15 16 10 23 4 14 -10z m5275 -1 c16 -31
-3 -59 -40 -58 -56 2 -50 78 6 78 13 0 28 -9 34 -20z m-4610 -14 c0 -3 -4 -8
-10 -11 -5 -3 -10 -1 -10 4 0 6 5 11 10 11 6 0 10 -2 10 -4z m-750 -10 c0 -3
-4 -8 -10 -11 -5 -3 -10 -1 -10 4 0 6 5 11 10 11 6 0 10 -2 10 -4z m143 -10
c16 -13 16 -14 -6 -18 -17 -3 -23 0 -24 14 -2 21 6 22 30 4z m189 -11 c-5 -17
-102 -49 -113 -38 -7 7 1 13 26 17 20 4 39 14 42 22 6 16 50 15 45 -1z m5243
0 c0 -5 -19 -11 -42 -13 -29 -2 -43 -8 -43 -18 0 -10 12 -14 40 -14 29 0 40
-4 40 -15 0 -11 -12 -15 -50 -15 l-50 0 0 38 c0 21 3 42 7 46 11 10 98 3 98
-9z m-215 -55 c0 -5 -12 -10 -26 -10 -14 0 -23 -4 -19 -10 3 -5 16 -10 28 -10
15 0 18 -3 10 -11 -15 -15 -63 0 -63 20 0 10 3 21 7 24 10 11 63 8 63 -3z
m-4074 -68 c6 -29 8 -54 5 -56 -7 -4 -248 68 -257 77 -3 3 25 8 63 12 37 4 88
11 113 15 25 4 49 7 54 6 6 -1 15 -26 22 -54z m-505 22 c27 -9 47 -20 44 -24
-3 -5 -14 -6 -24 -3 -22 6 -85 -35 -114 -73 l-18 -24 27 11 c36 13 54 5 47
-20 -6 -23 -28 -28 -39 -10 -4 7 -24 9 -49 7 -34 -4 -44 -2 -54 15 -15 24 -2
41 33 42 28 2 92 40 100 61 3 8 2 13 -3 10 -5 -3 -11 1 -15 9 -7 19 4 19 65
-1z m4304 -44 l-7 -50 -51 6 c-29 4 -61 10 -72 15 -19 7 -19 8 -1 8 24 1 108
49 119 68 15 25 19 6 12 -47z m-4435 5 c-19 -19 -42 -35 -51 -35 -9 0 -25 -12
-34 -27 -19 -28 -55 -63 -106 -103 l-33 -24 25 -7 c13 -3 33 0 44 8 29 20 142
13 129 -8 -3 -5 17 -9 44 -9 27 0 63 -7 78 -15 16 -8 40 -15 54 -15 29 0 75
-32 75 -52 0 -7 10 -14 22 -16 17 -3 21 -10 21 -33 -1 -26 -4 -30 -22 -24 -12
4 -38 10 -60 12 -30 4 -37 2 -34 -8 3 -9 20 -14 44 -14 55 -1 154 -56 121 -68
-6 -2 -23 0 -36 5 -14 5 -31 6 -39 3 -8 -3 -21 0 -29 6 -10 9 -16 8 -26 -4 -7
-9 -25 -17 -42 -19 -26 -4 -27 -5 -10 -12 68 -26 79 -40 63 -86 l-9 -24 25 27
c14 15 34 27 46 27 25 0 25 -1 -1 -44 -11 -19 -21 -48 -21 -65 -1 -31 -13 -40
-83 -65 -22 -8 -39 -19 -37 -25 1 -6 -6 -11 -15 -11 -25 0 -96 -68 -90 -85 3
-7 -1 -16 -9 -19 -8 -3 -14 -1 -14 4 0 6 -4 10 -10 10 -5 0 -10 -9 -10 -20 0
-26 -21 -71 -30 -65 -5 3 -10 -2 -14 -10 -5 -14 6 -20 28 -16 5 1 6 -5 3 -13
-4 -10 -1 -13 9 -9 10 3 14 -2 14 -19 0 -13 5 -29 11 -35 15 -15 1 -36 -18
-29 -9 4 -17 -1 -20 -13 -3 -12 -11 -17 -19 -14 -10 4 -14 -3 -14 -23 l-1 -29
-13 25 c-10 18 -11 30 -4 44 8 15 7 18 -5 13 -26 -10 -34 73 -11 112 l18 30
-48 103 c-27 57 -52 107 -57 113 -5 5 -32 18 -60 30 -55 22 -80 55 -99 130 -7
28 -18 45 -40 57 -16 9 -30 23 -30 30 0 8 25 40 56 72 43 44 54 63 50 79 -10
43 -37 209 -34 212 6 6 228 35 267 35 29 0 46 7 69 30 44 42 63 38 22 -5z
m4920 26 c0 -14 -18 -23 -30 -16 -6 4 -8 11 -5 16 8 12 35 12 35 0z m-247 -19
c-2 -7 2 -12 7 -12 6 0 10 8 10 17 0 12 3 14 11 6 12 -12 -4 -53 -21 -53 -24
0 -40 15 -40 37 0 18 5 23 18 21 9 -2 16 -10 15 -16z m-868 -20 c114 -40 179
-107 195 -199 l8 -48 1 43 c1 44 -16 89 -43 111 -16 13 -23 36 -8 28 4 -3 88
-15 187 -27 99 -12 182 -24 185 -26 7 -7 -28 -167 -57 -264 -81 -272 -213
-531 -392 -770 -52 -71 -274 -301 -351 -366 -132 -110 -299 -217 -465 -299
-137 -67 -274 -120 -284 -110 -12 13 -49 158 -44 173 5 11 0 11 -23 -4 -16
-10 -37 -24 -46 -32 -10 -8 -18 -11 -18 -7 0 4 -8 -2 -19 -13 -10 -12 -21 -22
-25 -22 -4 0 -19 -11 -34 -25 -15 -14 -32 -25 -39 -25 -7 0 -13 -4 -13 -10 0
-5 -5 -10 -10 -10 -6 0 -20 -9 -32 -20 -12 -11 -29 -20 -37 -20 -13 1 -12 4 3
15 11 8 16 15 10 15 -5 1 5 7 21 15 17 7 44 25 60 40 l30 26 -30 -14 c-16 -8
-59 -28 -95 -45 -205 -96 -225 -104 -281 -104 -57 -1 -57 -1 -48 -27 11 -29
45 -58 75 -62 27 -4 217 93 201 103 -9 5 -6 11 8 22 11 8 24 11 30 8 5 -4 2
-8 -8 -10 -9 -2 -15 -7 -12 -12 3 -5 62 18 131 51 69 33 128 59 129 57 9 -9
52 -174 46 -180 -7 -7 -143 -41 -236 -58 -100 -18 -334 -40 -435 -40 -273 0
-591 56 -845 150 l-111 41 48 51 c26 29 48 56 48 60 0 5 16 22 35 39 19 17 35
37 35 45 0 8 5 14 10 14 6 0 10 7 10 15 0 8 5 15 11 15 6 0 8 7 5 16 -3 8 -2
13 3 10 12 -8 22 20 14 41 -4 10 -2 14 4 10 8 -5 8 5 0 34 -7 31 -7 47 1 60
21 33 14 66 -22 101 -44 42 -57 52 -78 61 -19 7 -25 -7 -8 -18 6 -3 10 -11 10
-17 0 -7 -4 -7 -13 1 -24 20 -28 -2 -5 -27 l23 -25 -25 16 c-27 19 -44 22 -35
7 3 -5 3 -10 -2 -11 -4 0 -16 -2 -25 -4 -30 -5 -21 33 17 78 67 81 115 152
115 172 0 15 -2 17 -9 6 -5 -8 -18 -12 -30 -8 -11 3 -25 -1 -32 -9 -7 -8 -20
-12 -29 -9 -9 3 -30 -2 -46 -10 l-29 -16 40 7 c36 6 39 6 26 -9 -7 -9 -16 -15
-20 -13 -4 3 -22 1 -41 -3 -34 -8 -34 -8 -11 -18 35 -14 10 -24 -30 -13 -49
14 -57 12 -29 -8 l25 -17 -22 -45 c-13 -24 -23 -37 -23 -28 0 9 -7 18 -14 21
-10 4 -13 1 -9 -8 4 -12 -1 -14 -25 -9 -33 7 -97 -18 -106 -42 -3 -8 -10 -14
-15 -14 -23 0 16 50 44 56 17 4 25 9 18 11 -6 2 -28 -3 -49 -12 -20 -8 -39
-13 -42 -10 -3 2 12 12 33 20 44 19 40 32 -6 16 -26 -9 -29 -8 -20 3 17 20
114 40 168 33 32 -4 41 -3 26 3 -55 22 -147 12 -194 -21 -29 -21 -43 -55 -25
-63 6 -2 -1 -5 -15 -5 -53 -2 -92 -66 -79 -128 4 -18 4 -33 -1 -33 -5 0 -9 5
-9 11 0 5 -4 8 -9 5 -9 -6 -7 29 4 63 9 30 -2 26 -18 -6 -19 -35 -4 -81 28
-89 16 -4 21 -11 18 -25 -3 -10 -10 -19 -15 -19 -5 0 -6 -5 -3 -10 4 -6 14
-10 23 -9 21 3 87 -25 97 -41 10 -16 -1 -24 -22 -15 -10 5 -25 9 -34 11 -8 2
-33 9 -55 16 -33 12 -39 18 -36 38 1 17 -1 21 -7 12 -7 -11 -11 -11 -23 2 -9
8 -18 12 -22 9 -3 -3 2 -12 12 -20 16 -14 16 -14 0 -9 -21 6 -23 -5 -6 -22 9
-9 8 -12 -6 -12 -9 0 -15 4 -12 9 3 5 -42 49 -102 99 -132 111 -362 348 -362
373 0 8 135 29 185 29 81 0 185 74 204 146 16 61 50 104 105 132 l49 26 -7 89
c-3 50 -6 119 -6 153 l0 64 -37 16 c-75 32 -224 22 -288 -20 -13 -9 -27 -16
-31 -15 -3 0 -12 -8 -20 -18 -14 -16 -14 -16 -4 5 7 13 14 21 17 19 3 -3 40
38 83 91 42 53 105 131 138 172 35 41 69 95 77 121 19 56 62 119 69 98 18 -60
54 -155 81 -214 25 -56 31 -79 28 -117 -5 -46 -5 -46 -49 -53 -24 -3 -46 -10
-49 -15 -6 -9 6 -13 65 -23 14 -2 33 -8 44 -12 16 -7 17 -6 7 13 -6 11 -11 22
-11 24 0 2 46 3 102 3 57 0 123 3 148 8 79 13 124 14 163 1 31 -10 37 -9 37 2
0 8 5 14 10 14 13 0 13 -17 0 -25 -16 -10 -12 -32 5 -32 9 0 14 6 11 14 -8 21
12 5 25 -19 10 -18 9 -20 -7 -14 -37 15 -54 15 -81 0 -16 -7 -40 -14 -55 -14
-16 0 -28 -5 -28 -11 0 -6 -6 -9 -12 -6 -7 2 -25 -2 -40 -9 -14 -8 -47 -15
-73 -17 -32 -2 -52 -9 -61 -22 -8 -10 -14 -14 -14 -7 0 6 -6 9 -13 6 -9 -3
-13 -32 -15 -96 -2 -93 13 -182 27 -159 4 6 15 9 23 6 11 -4 22 4 34 24 13 21
20 27 26 18 6 -9 8 -8 8 3 0 13 1 13 10 0 7 -11 10 -11 10 -2 0 7 5 10 10 7 6
-3 10 -2 10 2 0 24 113 62 125 43 10 -17 21 -11 34 16 9 21 14 24 26 14 12
-10 16 -9 21 4 4 11 56 46 68 46 1 0 0 -56 -2 -123 l-4 -124 88 -45 c49 -25
106 -51 127 -58 20 -6 35 -15 32 -20 -3 -4 2 -10 10 -14 20 -7 19 -36 -2 -53
-16 -13 -16 -13 4 -4 16 8 22 7 27 -4 5 -15 36 -21 36 -7 0 4 3 17 6 30 5 17
2 22 -12 22 -26 1 -54 24 -54 43 0 9 18 29 40 43 22 15 40 30 40 33 0 4 15 12
34 19 l33 12 -4 68 c-2 37 0 73 6 81 14 21 120 27 146 8 26 -20 16 -28 -52
-42 -64 -13 -76 -26 -38 -43 21 -10 23 -15 15 -37 -8 -22 -7 -25 13 -25 26 0
41 10 45 30 5 22 23 41 33 34 5 -3 7 -15 3 -28 -4 -17 2 -25 28 -39 18 -10 24
-15 14 -12 -11 3 -45 0 -75 -6 -64 -13 -54 -22 41 -33 35 -5 67 -15 80 -27 20
-17 20 -19 3 -10 -31 14 -131 34 -146 29 -8 -3 5 -11 29 -17 48 -13 58 -26 12
-16 -26 6 -30 4 -30 -14 0 -13 8 -23 24 -27 31 -7 61 -39 47 -49 -6 -3 -11 1
-11 10 0 9 -5 13 -10 10 -7 -4 -7 -13 0 -26 9 -16 7 -19 -10 -19 -11 0 -20 -4
-20 -10 0 -5 6 -10 14 -10 8 0 18 5 21 10 9 15 32 12 39 -5 3 -8 -5 -25 -19
-39 -25 -25 -34 -66 -15 -66 6 0 10 6 9 13 -4 30 2 47 17 47 10 0 14 -6 10
-15 -3 -8 -1 -15 5 -15 18 0 -3 -22 -35 -36 -26 -11 -27 -13 -9 -14 12 0 25 5
28 10 3 6 13 10 22 10 13 0 13 -3 3 -15 -7 -8 -9 -15 -4 -15 4 0 -7 -11 -26
-25 -22 -16 -28 -25 -17 -25 9 0 21 8 26 18 9 15 10 14 10 -8 0 -31 -14 -50
-56 -73 -30 -16 -37 -17 -90 -3 -138 34 -180 30 -61 -5 42 -13 50 -17 24 -13
-55 8 -151 45 -137 53 6 4 -1 11 -18 17 -22 9 -28 8 -28 -3 0 -8 6 -12 15 -8
12 4 13 3 2 -10 -9 -11 -9 -15 -1 -15 7 0 10 -4 6 -9 -3 -5 -1 -12 4 -15 5 -4
11 2 13 11 3 15 7 14 27 -9 13 -15 46 -35 73 -44 77 -25 48 -29 -33 -4 -39 12
-80 31 -91 42 -19 19 -19 19 -15 -11 3 -16 8 -35 12 -40 8 -14 35 -14 35 -1 0
16 17 12 24 -6 4 -10 2 -13 -6 -8 -6 4 -8 3 -4 -4 3 -6 29 -18 57 -27 28 -9
49 -19 46 -21 -2 -2 -34 6 -70 18 -37 11 -69 19 -71 17 -2 -2 -6 -27 -10 -56
l-7 -52 71 -32 c38 -18 70 -39 70 -47 0 -16 -34 -11 -88 15 -18 9 -35 13 -38
10 -3 -2 3 -22 12 -44 14 -33 28 -45 83 -71 36 -17 85 -34 107 -38 23 -3 47
-10 55 -15 25 -15 1 -20 -42 -8 -24 7 -54 11 -67 11 -13 -1 -21 2 -18 7 6 9
-23 25 -32 17 -5 -5 47 -54 61 -57 4 -1 12 -3 17 -4 6 -1 17 -3 25 -4 8 0 15
-8 15 -16 0 -18 -50 -21 -50 -2 0 6 -7 3 -15 -8 -14 -17 -13 -20 7 -31 12 -7
29 -9 37 -6 10 4 12 1 6 -8 -5 -9 -4 -11 3 -6 7 4 12 14 12 21 0 9 6 12 17 8
11 -4 14 -3 9 5 -4 7 -1 12 8 12 9 0 16 4 16 10 0 5 7 6 17 3 12 -5 14 -3 8 7
-5 8 -4 11 2 7 5 -3 17 3 27 14 10 12 20 18 23 15 4 -3 0 -14 -8 -23 -9 -10
-20 -30 -27 -45 -18 -43 8 -25 42 29 22 34 26 47 16 53 -7 4 -10 12 -6 18 3 5
-4 12 -16 15 -12 4 -19 9 -15 13 4 4 1 17 -6 28 -8 12 -22 42 -31 68 -16 40
-16 51 -5 85 7 21 14 41 15 46 1 4 3 10 4 15 1 4 2 10 1 15 0 4 7 7 16 7 30 1
56 26 48 48 -5 17 -2 19 16 15 18 -5 20 -3 15 15 -4 12 -2 31 5 44 7 12 14 40
15 62 2 22 6 49 9 60 3 12 2 15 -1 9 -8 -18 -27 -16 -20 2 3 8 1 15 -4 15 -6
0 -10 5 -10 11 0 6 6 9 14 6 17 -7 30 19 15 29 -6 4 -4 15 6 30 29 45 -4 23
-36 -23 l-16 -23 0 30 c0 19 6 32 17 35 9 3 22 17 28 31 15 31 15 37 2 29 -8
-5 -30 32 -30 51 0 14 19 0 25 -18 7 -22 8 -22 16 7 6 23 7 17 5 -27 -3 -67
-14 -63 132 -48 86 9 225 34 257 46 9 4 18 -11 29 -50 9 -31 23 -81 32 -111
13 -45 19 -55 37 -55 12 0 34 -7 50 -14 15 -8 27 -13 27 -10 0 3 -12 46 -26
96 -14 49 -22 93 -18 97 5 5 29 16 54 25 25 10 83 37 129 62 l83 44 28 -30
c15 -17 34 -30 42 -30 8 0 33 -9 56 -20 22 -11 50 -20 62 -20 11 0 20 -5 20
-11 0 -7 -7 -8 -17 -4 -10 3 -31 8 -48 11 -16 2 -3 -5 30 -17 110 -38 250 -35
340 6 l30 14 -35 -5 -35 -4 37 12 c48 16 77 54 57 73 -19 17 -76 35 -112 35
-27 0 -29 -2 -22 -27 6 -24 5 -25 -11 -12 -18 15 -184 21 -184 7 0 -5 -4 -8
-9 -8 -5 0 -7 9 -4 20 5 17 0 20 -32 20 -39 0 -118 -37 -109 -52 3 -4 1 -8 -5
-8 -17 0 -48 53 -55 94 -6 29 -10 36 -17 25 -14 -22 -10 -1 5 29 8 15 22 34
32 43 36 32 120 69 179 80 45 8 69 19 93 42 55 52 166 206 217 300 46 85 47
91 42 147 -4 38 -3 60 4 62 8 3 8 15 0 43 -13 47 5 92 53 131 17 14 39 32 49
40 9 8 35 14 57 14 22 0 40 4 40 9 0 9 38 15 125 19 17 1 53 -7 80 -16z
m-3517 -8 c29 -20 28 -30 -8 -49 -25 -13 -38 -14 -71 -5 -41 11 -56 29 -45 55
7 20 94 20 124 -1z m1004 -73 c4 -92 1 -114 -15 -108 -12 4 -23 148 -13 174
13 34 25 6 28 -66z m888 74 c0 -3 -6 -14 -12 -25 -11 -17 -10 -22 2 -31 11 -8
12 -12 3 -16 -8 -3 -13 -24 -13 -54 0 -37 -4 -49 -15 -49 -23 0 -25 141 -3
167 10 13 38 18 38 8z m648 -28 c2 -18 9 -27 21 -27 24 0 44 -49 35 -84 -7
-30 -43 -52 -68 -43 -13 5 -16 24 -16 98 0 68 3 90 13 87 6 -3 13 -17 15 -31z
m430 -59 c-3 -92 -3 -93 -29 -96 -34 -4 -59 21 -59 59 0 41 17 69 40 69 16 0
20 7 20 30 0 20 5 30 15 30 13 0 15 -15 13 -92z m1644 84 c28 -11 5 -32 -33
-29 -47 3 -49 -17 -2 -23 25 -3 38 -10 38 -20 0 -12 -10 -14 -44 -12 -33 3
-42 1 -39 -10 3 -7 21 -14 41 -16 53 -5 51 -32 -2 -32 -48 0 -75 23 -65 54 4
11 7 30 6 40 -3 48 43 70 100 48z m-2507 -11 c7 -12 -12 -24 -25 -16 -11 7 -4
25 10 25 5 0 11 -4 15 -9z m69 -43 c8 -5 7 -11 -2 -20 -14 -14 -16 -78 -2 -78
6 0 10 -7 10 -15 0 -19 -24 -20 -39 -2 -18 22 -19 136 -1 147 11 7 16 5 19 -8
2 -9 8 -20 15 -24z m2217 27 c15 5 20 3 17 -6 -6 -17 -58 -23 -78 -9 -13 9
-13 11 0 19 9 6 19 6 27 0 6 -6 22 -8 34 -4z m-4238 -20 c17 -8 36 -15 43 -15
7 0 15 -13 19 -30 7 -33 19 -38 33 -14 5 9 16 14 26 13 14 -4 13 -7 -6 -30
-33 -37 -58 -42 -96 -19 -33 20 -40 34 -22 45 20 12 9 31 -23 43 -47 17 -65
16 -41 -3 18 -15 18 -16 -6 -13 -14 1 -35 -4 -47 -10 -32 -18 -30 3 4 34 30
28 59 28 116 -1z m389 -36 c1 -33 0 -69 -4 -80 -9 -23 -28 -25 -28 -4 0 9 -9
15 -25 15 -32 0 -33 24 -3 85 33 67 55 61 60 -16z m152 45 c3 -9 6 -27 6 -40
0 -39 18 -28 25 16 4 25 12 40 21 40 17 0 17 0 -4 -85 -21 -81 -40 -91 -58
-30 -23 81 -26 115 -11 115 8 0 18 -7 21 -16z m907 4 c5 -109 3 -148 -8 -148
-19 0 -31 31 -26 66 3 18 0 35 -6 38 -7 5 -7 14 1 31 12 26 38 34 39 13z
m-763 -30 c24 -24 14 -54 -20 -65 -34 -10 -32 -12 18 -28 22 -7 7 -25 -21 -25
-47 0 -72 60 -45 111 12 21 50 25 68 7z m106 -10 c23 -33 20 -45 -14 -51 -37
-8 -40 -27 -4 -27 30 0 28 -23 -2 -28 -32 -5 -58 22 -58 61 0 63 47 90 78 45z
m216 -57 c0 -85 -10 -105 -51 -99 -33 4 -36 28 -5 28 14 0 26 5 26 10 0 6 -6
10 -14 10 -23 0 -46 29 -46 58 0 41 26 72 61 72 l29 0 0 -79z m68 65 c-13 -10
-18 -27 -18 -65 0 -78 -24 -62 -28 17 l-3 62 33 0 c30 -1 31 -2 16 -14z m92
-5 c23 -45 3 -111 -35 -111 -23 0 -45 30 -45 61 0 43 17 69 45 69 14 0 29 -8
35 -19z m110 -7 c15 -37 13 -41 -20 -47 -37 -8 -40 -27 -4 -27 31 0 28 -24 -5
-28 -29 -5 -48 12 -56 49 -14 64 63 112 85 53z m104 10 c3 -9 6 -38 6 -65 0
-36 -4 -49 -14 -49 -11 0 -16 15 -18 52 -4 74 -28 77 -28 3 0 -41 -3 -56 -12
-53 -13 5 -23 89 -14 114 8 20 72 18 80 -2z m164 4 c7 -7 12 -22 12 -34 0 -17
-8 -24 -30 -29 -35 -8 -31 -25 6 -25 34 0 26 -24 -8 -28 -18 -2 -31 4 -42 20
-18 26 -20 46 -6 82 10 28 47 35 68 14z m250 -2 c-13 -10 -18 -27 -18 -65 0
-39 -4 -51 -15 -51 -12 0 -15 14 -15 65 l0 65 33 0 c29 -1 30 -2 15 -14z m52
-36 c0 -27 5 -50 10 -50 6 0 10 23 10 50 0 38 4 50 15 50 12 0 15 -13 15 -60
0 -66 -9 -77 -55 -66 -23 6 -25 11 -25 66 0 47 3 60 15 60 11 0 15 -12 15 -50z
m108 -12 c-2 -48 -7 -63 -18 -63 -11 0 -16 15 -18 63 -3 57 -1 62 18 62 19 0
21 -5 18 -62z m210 50 c7 -7 12 -22 12 -34 0 -16 -8 -23 -32 -28 -32 -6 -30
-21 5 -28 26 -5 22 -22 -6 -26 -47 -6 -74 57 -47 109 12 21 50 25 68 7z m110
-57 c2 -48 0 -62 -10 -59 -8 3 -12 17 -10 36 2 17 1 41 -3 52 -12 38 -25 20
-25 -35 0 -42 -3 -55 -15 -55 -12 0 -15 14 -15 66 l0 65 38 -3 37 -3 3 -64z
m242 59 c0 -5 -7 -10 -15 -10 -12 0 -15 -13 -15 -56 0 -40 -3 -55 -12 -52 -8
3 -14 28 -16 66 l-3 62 31 0 c16 0 30 -4 30 -10z m78 -2 c7 -7 12 -31 12 -55
0 -41 -17 -63 -49 -63 -34 0 -53 68 -31 111 12 21 50 25 68 7z m110 -13 c16
-35 15 -56 -4 -83 -31 -44 -76 -19 -76 43 0 20 6 42 12 50 20 24 55 18 68 -10z
m-2981 3 c15 -6 31 -11 36 -10 11 3 8 -16 -4 -24 -8 -4 -7 -9 2 -15 8 -5 20
-2 31 8 22 20 36 10 18 -12 -19 -23 -75 -16 -76 10 -2 36 -4 37 -28 22 -23
-15 -24 -15 -22 8 1 28 4 29 43 13z m4493 -8 c0 -25 17 -26 24 -2 3 10 4 6 3
-8 -2 -19 -8 -26 -30 -28 -31 -4 -46 20 -27 43 17 21 30 19 30 -5z m-4641 -26
c-17 -21 -31 -17 -17 5 7 11 16 17 20 14 5 -2 4 -11 -3 -19z m-54 6 c-3 -5
-12 -10 -18 -10 -7 0 -6 4 3 10 19 12 23 12 15 0z m349 -20 c28 -10 35 -30 12
-30 -8 0 -17 -6 -20 -12 -3 -10 -8 -8 -16 4 -6 11 -17 15 -28 11 -15 -6 -15
-4 2 15 22 26 18 25 50 12z m106 -42 c0 -5 -9 -6 -21 -3 -18 6 -20 4 -14 -14
6 -20 4 -21 -22 -15 -15 4 -32 9 -36 11 -13 8 24 43 46 43 17 0 18 2 6 18 -7
9 -1 6 14 -7 15 -14 27 -29 27 -33z m465 2 c0 -22 -29 -18 -33 3 -3 14 1 18
15 15 10 -2 18 -10 18 -18z m1165 3 c0 -10 -9 -29 -20 -43 l-20 -25 0 23 c0
28 17 62 30 62 6 0 10 -8 10 -17z m-1604 -26 c1 -7 5 -20 9 -29 6 -16 4 -16
-24 -7 -36 13 -37 16 -14 41 17 18 25 17 29 -5z m4224 -19 c0 -5 -7 -7 -16 -4
-9 3 -22 6 -30 6 -8 0 -14 9 -14 19 0 18 2 19 30 5 17 -9 30 -20 30 -26z m214
22 c11 -11 -2 -67 -17 -73 -7 -2 -31 -2 -55 1 -53 5 -51 27 3 28 52 1 56 20 6
29 -40 7 -49 14 -34 29 9 8 84 -3 97 -14z m-4653 -27 c13 -15 12 -15 -11 -3
-34 17 -36 20 -18 20 9 0 22 -7 29 -17z m4409 -25 c8 -21 9 -21 9 -3 1 13 4
16 11 9 16 -16 1 -44 -24 -44 -32 0 -47 19 -35 42 13 24 28 23 39 -4z m-4308
-33 c0 -5 5 -16 11 -24 10 -12 9 -12 -10 0 -13 8 -18 16 -12 20 6 3 -3 12 -20
19 -17 7 -31 17 -31 22 0 5 14 2 32 -9 17 -10 31 -22 30 -28z m68 35 c0 -5 -4
-10 -10 -10 -5 0 -10 5 -10 10 0 6 5 10 10 10 6 0 10 -4 10 -10z m4385 -50
c-3 -6 12 -13 35 -16 31 -5 40 -11 40 -26 0 -13 -5 -18 -14 -15 -8 3 -31 9
-50 13 -29 5 -36 11 -36 28 0 13 3 26 6 29 10 9 25 -3 19 -13z m-138 -35 c-5
-14 -67 -19 -67 -6 0 6 8 11 17 11 13 0 14 3 5 12 -22 22 -12 27 18 10 16 -9
28 -21 27 -27z m-3464 11 c-4 -21 -8 -23 -22 -14 -25 15 -22 38 4 38 18 0 21
-5 18 -24z m-106 -2 c-3 -3 -12 -4 -19 -1 -8 3 -5 6 6 6 11 1 17 -2 13 -5z
m50 0 c-3 -3 -12 -4 -19 -1 -8 3 -5 6 6 6 11 1 17 -2 13 -5z m-808 -25 c-16
-10 -23 -4 -14 10 3 6 11 8 17 5 6 -4 5 -9 -3 -15z m566 -19 c-3 -5 -18 -9
-33 -9 l-27 1 30 8 c17 4 31 8 33 9 2 0 0 -3 -3 -9z m3745 -26 c0 -20 -5 -24
-30 -24 -25 0 -30 4 -30 24 0 26 14 36 43 28 10 -3 17 -14 17 -28z m142 24 c3
-7 21 -12 42 -12 28 0 36 -4 34 -15 -4 -20 -96 -23 -115 -4 -24 22 -15 34 29
42 3 0 8 -4 10 -11z m32 -78 c14 -5 26 -17 26 -26 0 -11 -5 -14 -17 -9 -10 3
-31 9 -47 12 -44 9 -28 -20 17 -31 20 -5 37 -15 37 -23 0 -16 -13 -16 -62 -2
-32 8 -38 14 -38 37 0 48 30 63 84 42z m-4471 -20 c-3 -11 -9 -17 -14 -14 -5
3 -9 -5 -9 -18 0 -21 -1 -21 -17 -5 -16 15 -16 18 2 37 24 26 45 26 38 0z
m4262 -6 c8 3 15 1 15 -5 0 -5 -7 -12 -16 -16 -12 -4 -13 -7 -3 -14 24 -15 4
-18 -39 -6 -23 6 -42 17 -42 24 0 9 6 10 24 3 21 -8 23 -6 18 13 -5 20 -4 20
11 8 9 -7 24 -11 32 -7z m-2425 -95 c0 -72 -3 -89 -15 -89 -12 0 -15 16 -15
88 0 49 3 92 6 95 17 17 24 -11 24 -94z m-50 76 c0 -8 -7 -15 -15 -15 -8 0
-15 7 -15 15 0 8 7 15 15 15 8 0 15 -7 15 -15z m100 0 c0 -8 -7 -15 -15 -15
-8 0 -15 7 -15 15 0 8 7 15 15 15 8 0 15 -7 15 -15z m-462 -17 c-3 -7 -14 -14
-26 -16 -29 -4 -28 -25 1 -37 25 -11 35 -58 16 -81 -15 -19 -69 -19 -69 0 0 8
10 16 23 18 31 4 30 42 -1 46 -19 3 -23 8 -18 25 3 12 6 30 6 40 0 13 8 17 36
17 24 0 34 -4 32 -12z m158 -15 c13 -65 21 -70 28 -20 5 31 12 47 22 47 17 0
17 0 -4 -85 -12 -44 -23 -70 -32 -70 -9 0 -20 26 -32 70 -22 85 -21 85 -3 85
8 0 17 -12 21 -27z m2661 -14 c21 -8 38 -27 31 -35 -3 -2 -24 6 -49 18 -24 12
-47 21 -51 20 -5 -1 -8 3 -8 8 0 10 32 6 77 -11z m-2519 -1 c7 -7 12 -22 12
-34 0 -17 -8 -24 -30 -29 -35 -8 -31 -25 6 -25 33 0 27 -24 -7 -28 -40 -4 -54
13 -54 63 0 30 5 49 15 55 21 13 44 12 58 -2z m62 -53 c0 -51 -3 -65 -15 -65
-12 0 -15 14 -15 65 0 51 3 65 15 65 12 0 15 -14 15 -65z m100 0 c0 -51 -3
-65 -15 -65 -12 0 -15 14 -15 65 0 51 3 65 15 65 12 0 15 -14 15 -65z m108
-13 c2 -46 -2 -79 -9 -88 -16 -19 -69 -19 -69 1 0 8 9 15 19 15 11 0 23 5 26
10 3 6 -3 10 -14 10 -24 0 -41 28 -41 69 0 38 25 63 59 59 25 -3 26 -5 29 -76z
m2424 21 l3 -38 16 29 c10 18 19 25 23 17 11 -17 -3 -50 -26 -62 -23 -12 -73
4 -82 27 -9 25 15 64 40 64 19 0 23 -6 26 -37z m-203 16 c20 -7 29 -15 23 -21
-11 -11 -62 7 -62 22 0 12 0 12 39 -1z m-22 -31 c29 -10 45 -28 27 -28 -19 0
-84 24 -84 32 0 11 18 10 57 -4z m-2711 -29 c10 -17 -13 -36 -27 -22 -12 12
-4 33 11 33 5 0 12 -5 16 -11z m2728 -41 c-5 -8 -64 11 -64 21 0 17 13 18 40
3 16 -9 26 -20 24 -24z m143 18 c-3 -7 0 -19 6 -25 14 -14 47 -15 47 -1 0 6 7
10 16 10 21 0 14 -29 -11 -46 -30 -19 -85 6 -85 39 0 25 7 37 23 37 5 0 7 -6
4 -14z m-183 -48 c-6 -21 -5 -22 11 -8 16 13 17 12 14 -5 -5 -25 -41 -31 -58
-11 -18 21 -7 46 19 46 18 0 20 -4 14 -22z m150 -43 c-7 -18 0 -19 26 -5 37
20 61 -9 44 -54 -9 -23 -27 -20 -21 4 7 25 -7 34 -23 15 -9 -11 -17 -12 -31
-4 -26 14 -25 59 2 59 5 0 6 -7 3 -15z m-174 -17 c0 -18 2 -20 10 -8 11 18 23
8 14 -14 -8 -20 -53 -21 -60 -1 -9 21 3 45 21 45 9 0 15 -9 15 -22z m200 -71
c48 -24 60 -49 40 -88 -8 -15 -15 -18 -23 -10 -7 7 -6 15 3 26 20 24 4 29 -20
5 -21 -21 -49 -20 -77 2 -26 21 -9 89 22 87 5 0 30 -10 55 -22z m-246 -22 c-4
-8 -10 -15 -15 -15 -4 0 -6 7 -3 15 4 8 10 15 15 15 4 0 6 -7 3 -15z m-4441
-35 c3 -11 1 -18 -4 -14 -5 3 -9 12 -9 20 0 20 7 17 13 -6z m4418 -30 c22 -12
26 -35 4 -26 -43 17 -49 17 -25 -2 28 -24 22 -39 -9 -22 -26 13 -29 -5 -4 -19
27 -14 8 -25 -19 -10 -12 6 -25 13 -27 15 -6 5 40 74 50 74 6 0 19 -5 30 -10z
m-3866 -10 c8 -13 -5 -13 -25 0 -13 8 -13 10 2 10 9 0 20 -4 23 -10z m4082 -8
c23 -12 30 -21 24 -30 -7 -12 -14 -11 -39 2 -36 18 -52 20 -52 6 0 -6 16 -18
35 -27 36 -17 43 -27 25 -38 -11 -7 -90 32 -90 45 0 5 5 21 12 35 13 29 39 32
85 7z m-2657 -42 c0 -11 -48 -25 -57 -16 -4 3 3 6 15 6 12 0 22 5 22 10 0 6 5
10 10 10 6 0 10 -4 10 -10z m-77 -7 c-7 -2 -21 -2 -30 0 -10 3 -4 5 12 5 17 0
24 -2 18 -5z m2597 -18 c0 -8 -4 -15 -10 -15 -5 0 -10 7 -10 15 0 8 5 15 10
15 6 0 10 -7 10 -15z m-120 -37 c0 -36 -56 -35 -68 1 -3 10 0 10 16 2 32 -17
40 -12 15 8 -27 23 -20 34 13 19 13 -6 24 -20 24 -30z m-2356 16 c5 -14 4 -15
-9 -4 -17 14 -19 20 -6 20 5 0 12 -7 15 -16z m2549 -9 c20 -10 37 -25 37 -32
0 -18 -14 -16 -60 7 -28 14 -38 25 -33 35 3 9 8 14 12 13 3 -2 23 -12 44 -23z
m-4478 -5 c-3 -5 -14 -10 -23 -10 -15 0 -15 2 -2 10 20 13 33 13 25 0z m4426
-32 c60 -33 67 -44 49 -79 -13 -22 -57 -26 -85 -6 -13 10 -17 22 -12 43 4 23
1 33 -14 42 -11 7 -17 17 -14 22 9 14 11 13 76 -22z m-198 -12 c29 -29 25 -39
-9 -24 -13 6 -24 19 -24 30 0 24 4 23 33 -6z m-2358 3 c11 -17 -1 -21 -15 -4
-8 9 -8 15 -2 15 6 0 14 -5 17 -11z m-20 -20 c11 -16 1 -19 -13 -3 -7 8 -8 14
-3 14 5 0 13 -5 16 -11z m2340 -10 c4 -6 17 -14 29 -19 18 -7 19 -9 4 -15 -17
-7 -68 20 -68 36 0 13 27 11 35 -2z m-1192 -26 c-7 -2 -21 -2 -30 0 -10 3 -4
5 12 5 17 0 24 -2 18 -5z m150 0 c-24 -2 -62 -2 -85 0 -24 2 -5 4 42 4 47 0
66 -2 43 -4z m1043 -27 c10 -8 16 -18 11 -22 -4 -4 -13 -2 -19 4 -7 7 -19 12
-27 11 -12 0 -10 -4 7 -16 21 -15 30 -33 15 -33 -5 0 -19 9 -33 19 -20 16 -22
21 -11 35 17 20 31 20 57 2z m188 -12 c11 -4 13 -11 5 -31 -14 -39 -10 -50 10
-25 22 26 31 28 31 8 0 -41 -59 -59 -92 -29 -22 20 -23 46 -2 67 17 17 25 19
48 10z m-242 -57 c-2 -11 2 -15 13 -11 11 5 14 2 9 -10 -8 -20 -53 -21 -60 -1
-4 8 -3 22 0 31 8 21 42 13 38 -9z m-54 -39 c-2 -8 7 -13 20 -12 12 0 22 -5
22 -13 0 -10 -9 -13 -27 -11 -20 2 -29 9 -31 26 -2 12 1 22 7 22 6 0 10 -6 9
-12z m267 -22 c29 -43 -11 -86 -60 -64 -30 13 -43 52 -25 73 20 24 67 19 85
-9z m-301 -20 c-4 -11 0 -13 15 -9 16 4 21 1 21 -15 0 -12 -4 -24 -10 -27 -5
-3 -10 1 -10 9 0 9 -9 16 -20 16 -19 0 -27 20 -13 33 12 12 23 7 17 -7z m9
-64 c17 -18 15 -52 -4 -52 -4 0 -6 6 -3 13 3 10 -3 13 -25 9 -23 -3 -30 0 -36
17 -9 29 11 54 34 42 9 -5 24 -18 34 -29z m210 -2 c42 -60 20 -74 -67 -40 -42
16 -20 37 24 22 l31 -11 -20 26 c-19 23 -20 43 -3 43 4 0 20 -18 35 -40z
m-2351 -12 c-7 -7 -12 -8 -12 -2 0 14 12 26 19 19 2 -3 -1 -11 -7 -17z m2082
-33 c28 -21 12 -30 -18 -10 -14 10 -26 13 -26 7 0 -5 10 -16 22 -24 13 -9 18
-17 11 -21 -17 -11 -57 27 -50 46 8 21 35 21 61 2z m-3141 -2 c-7 -2 -19 -2
-25 0 -7 3 -2 5 12 5 14 0 19 -2 13 -5z m307 -24 c0 -6 -4 -7 -10 -4 -5 3 -10
11 -10 16 0 6 5 7 10 4 6 -3 10 -11 10 -16z m-230 7 c0 -3 -4 -8 -10 -11 -5
-3 -10 -1 -10 4 0 6 5 11 10 11 6 0 10 -2 10 -4z m2970 -7 c0 -5 4 -8 9 -5 11
7 57 -42 47 -51 -3 -4 -23 10 -44 30 -20 20 -31 37 -24 37 6 0 12 -5 12 -11z
m-3210 -9 c28 15 41 3 17 -15 -11 -8 -25 -31 -33 -52 l-14 -38 1 35 c2 52 0
64 -8 56 -4 -3 -8 -12 -10 -19 -1 -7 -5 -24 -9 -38 -4 -17 0 -31 10 -42 9 -9
12 -18 7 -22 -14 -8 -33 32 -33 72 0 37 30 82 42 62 6 -8 13 -8 30 1z m1070 0
c11 -8 7 -9 -15 -4 -37 8 -45 14 -19 14 10 0 26 -5 34 -10z m2148 -33 l32 -33
-20 -19 c-19 -18 -22 -18 -37 -2 -16 16 -27 87 -13 87 3 0 21 -15 38 -33z
m262 -8 c34 -47 30 -64 -11 -55 -29 5 -29 5 -14 -18 11 -17 13 -26 5 -31 -15
-9 -100 27 -100 43 0 15 15 15 41 2 21 -12 26 -1 8 17 -7 7 -9 19 -5 28 4 12
10 14 25 5 30 -15 36 -12 17 9 -15 17 -15 41 0 41 2 0 17 -19 34 -41z m70 11
c0 -5 -5 -12 -11 -16 -14 -8 -33 11 -25 25 7 11 36 4 36 -9z m-3523 -31 c-8
-21 -13 -26 -15 -14 -5 21 5 45 17 45 5 0 4 -13 -2 -31z m193 21 c0 -5 7 -10
15 -10 21 0 19 -33 -2 -52 -10 -8 -32 -18 -48 -21 -30 -6 -31 -5 -27 31 4 37
24 62 49 62 7 0 13 -4 13 -10z m290 -15 c0 -8 -2 -15 -4 -15 -2 0 -6 7 -10 15
-3 8 -1 15 4 15 6 0 10 -7 10 -15z m-437 -44 c-6 -8 -31 34 -26 42 3 5 11 -2
17 -15 7 -12 11 -25 9 -27z m3092 -8 c-5 -23 -4 -25 9 -14 9 8 16 9 16 3 0 -5
-7 -15 -15 -22 -13 -10 -19 -10 -35 5 -32 29 -24 52 19 54 9 1 11 -6 6 -26z
m-3155 -23 c0 -5 -5 -10 -11 -10 -5 0 -7 5 -4 10 3 6 8 10 11 10 2 0 4 -4 4
-10z m3365 -36 c30 -51 24 -75 -14 -55 -22 12 -27 5 -11 -19 5 -9 5 -19 -1
-26 -7 -9 -21 -6 -55 13 -33 19 -42 29 -34 37 7 7 16 7 30 -2 23 -14 25 -9 10
19 -17 30 -3 41 31 23 l30 -15 -16 25 c-14 21 -14 46 0 46 2 0 15 -21 30 -46z
m-241 14 c8 -14 7 -22 -7 -35 -16 -16 -18 -16 -39 4 -18 19 -19 24 -8 38 16
19 39 16 54 -7z m-3099 -9 c11 -16 1 -19 -13 -3 -7 8 -8 14 -3 14 5 0 13 -5
16 -11z m105 3 c0 -5 -9 -17 -20 -27 -11 -10 -20 -23 -20 -29 0 -6 -9 -17 -20
-23 -17 -11 -18 -10 -13 5 4 9 18 32 32 49 25 32 41 41 41 25z m2930 -31 c24
-49 13 -58 -34 -30 -37 21 -41 48 -5 29 18 -10 19 -9 13 14 -9 38 3 32 26 -13z
m-3000 -1 c0 -5 -2 -10 -4 -10 -3 0 -8 5 -11 10 -3 6 -1 10 4 10 6 0 11 -4 11
-10z m195 -21 c15 -15 -17 -10 -45 7 l-25 15 30 -6 c17 -4 34 -11 40 -16z m39
6 c-4 -8 -11 -12 -16 -9 -6 4 -5 10 3 15 19 12 19 11 13 -6z m42 -20 c-3 -9
-10 -13 -16 -10 -5 3 -10 1 -10 -4 0 -6 -10 -11 -22 -10 -20 0 -19 2 10 16 17
9 32 21 32 26 0 6 3 8 6 4 4 -3 4 -13 0 -22z m-466 -25 c8 -5 11 -10 5 -10 -5
0 -17 5 -25 10 -8 5 -10 10 -5 10 6 0 17 -5 25 -10z m520 -1 c0 -14 -64 -39
-97 -38 -16 1 -21 3 -11 6 9 2 34 13 55 23 44 22 53 24 53 9z m2864 -31 c19
-32 22 -45 14 -55 -9 -11 -15 -11 -34 2 -27 17 -29 14 -13 -17 20 -37 -5 -43
-56 -13 -33 20 -43 31 -35 39 7 7 16 7 30 -2 28 -17 31 -15 18 13 -14 32 -5
41 27 27 24 -11 36 0 15 13 -13 8 -13 35 -1 35 6 0 21 -19 35 -42z m-3424 8
c0 -11 -19 -15 -25 -6 -3 5 1 10 9 10 9 0 16 -2 16 -4z m104 -11 c15 -15 41
-21 33 -7 -3 4 12 8 32 8 36 2 36 2 34 -38 -1 -27 3 -41 13 -45 8 -3 13 -13
12 -22 -2 -9 2 -15 9 -14 6 1 28 -18 49 -44 37 -45 37 -46 12 -40 -16 4 -28 3
-30 -5 -4 -11 -34 -3 -124 33 -27 11 -34 10 -47 -3 -14 -14 -13 -17 11 -37 15
-13 37 -27 50 -32 28 -11 28 -33 -1 -52 -20 -13 -26 -13 -50 0 -27 13 -29 13
-62 -20 -22 -22 -35 -45 -35 -60 0 -25 18 -51 40 -59 6 -2 8 -16 4 -37 -6 -30
-9 -32 -37 -27 -81 16 -134 85 -123 159 13 79 78 147 141 147 26 0 27 1 20 42
-8 44 -24 78 -37 78 -5 0 -8 5 -8 11 0 7 -7 17 -17 24 -26 19 -6 38 33 32 33
-6 47 6 22 16 -7 3 -1 6 14 6 15 1 33 -6 42 -14z m183 -28 c12 -11 27 -16 34
-12 8 5 10 4 5 -3 -4 -7 5 -28 20 -47 29 -39 43 -41 24 -3 -10 19 -8 18 14 -6
14 -16 26 -39 26 -50 0 -24 -36 -60 -45 -46 -4 6 -14 10 -24 10 -9 0 -34 18
-56 40 -21 21 -43 36 -48 33 -6 -4 -7 -1 -3 6 5 7 0 21 -10 32 -39 43 1 15 59
-41 40 -40 68 -60 81 -58 32 5 29 25 -4 31 -33 7 -166 127 -140 127 9 0 33
-20 53 -45 21 -25 43 -45 50 -45 6 0 -12 24 -41 53 -72 73 -69 89 5 24z m263
-7 c-23 -15 -78 -23 -97 -15 -13 6 -2 11 36 17 30 4 57 11 60 13 2 3 7 3 10
-1 3 -3 -1 -9 -9 -14z m2504 4 c9 -8 16 -21 16 -27 0 -6 -7 -1 -16 11 -8 12
-25 21 -37 21 -17 -1 -18 -2 -4 -6 10 -3 17 -14 17 -29 0 -13 5 -24 11 -24 5
0 7 5 3 12 -4 7 -3 8 5 4 9 -6 9 -11 0 -22 -13 -15 -34 -20 -24 -5 3 5 0 13
-6 16 -5 4 -8 14 -5 22 3 8 2 12 -3 8 -5 -3 -12 1 -14 7 -3 7 -6 4 -6 -7 -1
-12 5 -27 12 -34 10 -11 9 -13 -3 -9 -8 3 -16 15 -18 27 -7 45 40 67 72 35z
m-3181 -23 c14 -6 42 -27 62 -47 l37 -37 -23 -18 c-26 -20 -49 -24 -49 -9 0
13 -38 32 -50 25 -6 -4 -2 -22 10 -45 26 -50 25 -90 0 -118 -46 -50 -118 -41
-187 23 l-48 45 30 25 30 24 25 -24 c44 -42 65 -27 35 25 -50 88 29 169 128
131z m621 -31 c27 0 12 -12 -18 -15 -14 -2 -31 4 -38 13 -11 14 -10 15 12 9
14 -4 34 -7 44 -7z m803 -15 c-4 -8 -11 -15 -17 -15 -6 0 -6 7 2 20 14 22 24
19 15 -5z m1683 -27 c0 -4 -13 -15 -30 -25 -33 -19 -34 -21 -20 -43 8 -13 13
-13 38 3 29 17 30 16 47 -9 17 -26 16 -27 -9 -48 l-27 -21 30 -47 30 -47 -25
-15 c-13 -9 -35 -23 -49 -32 l-24 -16 -76 116 c-41 64 -75 121 -75 126 0 6 35
33 78 60 l77 49 17 -22 c10 -12 18 -25 18 -29z m-2537 -6 c-9 -2 -19 2 -24 10
-16 24 -9 29 15 11 19 -14 21 -19 9 -21z m2370 -205 c81 -149 85 -177 31 -237
-41 -45 -58 -50 -75 -19 -8 16 -8 28 0 46 10 22 4 38 -53 141 -36 65 -68 124
-71 132 -4 11 7 22 37 37 24 12 48 22 53 22 6 1 40 -55 78 -122z m-2503 2 c0
-5 -9 -28 -21 -51 -16 -32 -18 -42 -8 -49 18 -11 26 -4 48 46 11 25 23 45 26
45 3 0 28 -11 55 -25 50 -25 50 -25 36 -54 -8 -15 -36 -72 -61 -127 -26 -54
-48 -100 -49 -101 -2 -3 -96 35 -104 42 -1 1 7 23 18 49 24 58 25 66 3 66 -12
0 -25 -16 -36 -45 -11 -25 -23 -45 -27 -45 -14 0 -100 39 -100 45 0 6 94 214
111 247 9 17 13 16 59 -7 28 -14 50 -30 50 -36z m2350 -85 c33 -70 60 -128 60
-129 0 -5 -100 -48 -104 -44 -9 9 -127 251 -124 254 11 10 85 44 96 45 7 0 39
-57 72 -126z m-180 -82 l0 -157 -45 -16 -45 -17 -101 117 -101 116 39 16 c79
34 76 35 122 -33 l42 -63 -6 50 c-4 28 -8 62 -11 76 -4 23 0 28 48 47 29 11
54 21 56 21 1 1 2 -70 2 -157z m-1883 63 c9 -3 -1 -42 -34 -137 -25 -73 -47
-135 -49 -137 -7 -8 -104 32 -104 44 0 11 42 135 85 252 4 12 16 9 102 -22z
m144 -43 l27 -11 -34 -128 c-40 -155 -46 -167 -80 -189 -25 -17 -117 -24 -130
-11 -3 3 -3 19 1 36 4 21 13 31 25 31 26 0 31 13 70 164 l33 128 31 -5 c17 -3
43 -10 57 -15z m168 -38 c47 -9 89 -19 93 -22 3 -4 4 -20 1 -35 -5 -27 -8 -28
-43 -22 -30 5 -39 3 -44 -11 -7 -19 9 -34 37 -34 15 0 18 -7 15 -32 -3 -29 -6
-32 -37 -33 -33 0 -35 -2 -45 -50 -6 -27 -15 -49 -21 -48 -5 1 -32 5 -58 8
-43 6 -48 9 -44 29 3 11 16 76 28 144 12 67 25 122 27 122 3 0 44 -7 91 -16z
m1152 -121 c28 -152 28 -151 -36 -152 -22 -1 -41 10 -77 46 -26 26 -50 44 -53
41 -3 -3 0 -28 7 -56 6 -29 10 -54 7 -56 -2 -2 -24 -7 -49 -11 l-46 -7 -26
138 c-15 76 -25 141 -22 145 2 3 22 9 45 13 39 6 46 4 92 -35 l49 -42 -7 51
c-7 55 -4 58 60 61 l30 1 26 -137z m-351 -53 c35 -77 61 -142 59 -144 -2 -2
-30 -6 -61 -9 -50 -5 -58 -3 -63 14 -9 27 -75 27 -82 0 -7 -26 -113 -46 -113
-21 0 5 18 71 40 146 22 75 40 138 40 140 0 2 26 5 58 7 31 2 57 4 58 5 0 1
29 -61 64 -138z m-426 113 c2 -10 10 -45 17 -78 l12 -60 19 73 20 72 58 0 58
0 -56 -141 c-32 -78 -60 -141 -65 -140 -4 1 -27 1 -51 1 l-45 0 -45 139 c-25
77 -46 142 -46 145 0 3 27 6 59 6 48 0 61 -3 65 -17z"/>
<path d="M3640 5960 c-16 -29 -18 -132 -3 -137 19 -7 34 33 36 94 2 60 -13 80
-33 43z"/>
<path d="M2226 5344 c-3 -8 -2 -12 4 -9 6 3 10 -3 10 -15 0 -28 16 -17 22 15
4 19 1 25 -12 25 -10 0 -21 -7 -24 -16z"/>
<path d="M3112 5235 c0 -16 2 -22 5 -12 2 9 2 23 0 30 -3 6 -5 -1 -5 -18z"/>
<path d="M3383 4930 c-26 -11 -31 -30 -7 -30 23 0 55 20 49 31 -7 11 -13 11
-42 -1z"/>
<path d="M1990 4675 c-10 -12 -10 -15 4 -15 9 0 16 7 16 15 0 8 -2 15 -4 15
-2 0 -9 -7 -16 -15z"/>
<path d="M4513 3486 c-17 -17 -19 -23 -8 -33 7 -6 15 -9 18 -6 4 3 9 -6 12
-20 4 -14 17 -33 30 -41 22 -14 24 -14 40 10 14 22 14 26 1 39 -8 9 -21 14
-28 13 -15 -4 -18 24 -3 34 5 4 0 8 -12 8 -12 0 -23 4 -25 9 -1 4 -13 -1 -25
-13z"/>
<path d="M4449 3457 c-22 -17 -32 -48 -13 -40 10 4 14 -3 15 -23 1 -29 1 -29
8 -4 5 17 3 28 -6 33 -12 7 -11 11 4 22 10 7 16 16 13 18 -3 3 -12 0 -21 -6z"/>
<path d="M4742 3338 c-14 -14 -16 -38 -3 -38 10 0 26 39 19 46 -2 2 -10 -2
-16 -8z"/>
<path d="M4800 3340 c0 -5 5 -10 11 -10 5 0 7 5 4 10 -3 6 -8 10 -11 10 -2 0
-4 -4 -4 -10z"/>
<path d="M4260 3275 c0 -16 27 -32 37 -22 5 6 -21 37 -31 37 -3 0 -6 -7 -6
-15z"/>
<path d="M4355 3268 c-38 -13 -38 -14 -30 -28 4 -7 17 -4 39 10 l33 20 11 -25
c11 -23 32 -35 32 -17 0 15 -31 52 -43 51 -7 0 -25 -5 -42 -11z"/>
<path d="M4287 5773 c-2 -10 -17 -44 -31 -76 l-26 -58 22 3 c41 6 87 134 52
145 -6 2 -14 -4 -17 -14z"/>
<path d="M3457 5473 c-11 -10 13 -33 34 -33 22 0 24 11 7 28 -13 13 -31 16
-41 5z"/>
<path d="M3460 5299 c-7 -11 -9 -23 -6 -26 8 -9 36 17 36 33 0 21 -18 17 -30
-7z"/>
<path d="M3640 5250 c0 -5 7 -10 15 -10 8 0 15 5 15 10 0 6 -7 10 -15 10 -8 0
-15 -4 -15 -10z"/>
<path d="M3197 5154 c-12 -12 -8 -31 9 -48 19 -20 34 -21 34 -2 0 19 -34 59
-43 50z"/>
<path d="M3655 4210 c-7 -23 2 -60 16 -60 5 0 9 18 9 40 0 42 -14 54 -25 20z"/>
<path d="M3165 4180 c-7 -12 2 -30 16 -30 5 0 9 9 9 20 0 21 -15 27 -25 10z"/>
<path d="M4731 4019 c-7 -16 -20 -29 -29 -29 -14 0 -14 -2 -3 -9 13 -8 40 5
38 19 0 3 3 13 8 23 4 10 6 20 3 22 -2 2 -9 -9 -17 -26z"/>
<path d="M2977 4223 c-12 -11 -8 -23 8 -23 8 0 15 7 15 15 0 16 -12 20 -23 8z"/>
<path d="M3387 4223 c-12 -11 -8 -23 8 -23 8 0 15 7 15 15 0 16 -12 20 -23 8z"/>
<path d="M3490 4216 c0 -9 7 -16 16 -16 9 0 14 5 12 12 -6 18 -28 21 -28 4z"/>
<path d="M2996 3755 c-4 -10 1 -15 14 -15 13 0 18 5 14 15 -4 8 -10 15 -14 15
-4 0 -10 -7 -14 -15z"/>
<path d="M3287 3763 c-12 -11 -8 -23 8 -23 8 0 15 7 15 15 0 16 -12 20 -23 8z"/>
<path d="M3537 3763 c-12 -11 -8 -23 8 -23 8 0 15 7 15 15 0 16 -12 20 -23 8z"/>
<path d="M3637 3755 c-5 -10 0 -15 14 -15 12 0 19 5 17 12 -6 18 -25 20 -31 3z"/>
<path d="M2736 3286 c-7 -27 1 -56 15 -56 5 0 9 18 9 40 0 44 -14 54 -24 16z"/>
<path d="M3517 3303 c-11 -10 -8 -73 3 -73 6 0 10 18 10 40 0 41 -2 45 -13 33z"/>
<path d="M3774 3296 c-8 -22 -1 -59 14 -64 8 -2 12 9 12 37 0 40 -15 55 -26
27z"/>
<path d="M2844 3296 c-8 -22 -2 -27 16 -16 12 7 12 12 3 21 -10 10 -14 9 -19
-5z"/>
<path d="M3157 3295 c-4 -8 -3 -16 1 -19 13 -8 35 11 28 23 -10 15 -23 14 -29
-4z"/>
<path d="M3413 3263 c-18 -7 -16 -33 2 -33 8 0 15 9 15 20 0 11 -1 20 -2 19
-2 0 -9 -3 -15 -6z"/>
<path d="M3665 3290 c-7 -23 2 -60 16 -60 5 0 9 18 9 40 0 42 -14 54 -25 20z"/>
<path d="M4023 3295 c-3 -9 -3 -18 0 -21 9 -9 27 6 27 22 0 19 -19 18 -27 -1z"/>
<path d="M5196 3160 c-14 -17 -30 -50 -37 -72 -12 -46 -4 -128 13 -128 6 0 8
11 5 26 -2 14 2 31 9 39 12 11 12 14 -1 17 -13 3 -13 6 0 32 8 15 15 37 15 47
0 10 9 24 20 31 20 13 28 38 11 38 -5 0 -21 -14 -35 -30z"/>
<path d="M5807 3133 c-10 -9 -9 -41 2 -47 4 -3 6 7 4 22 l-4 27 13 -24 c16
-31 34 -37 42 -15 11 30 -35 60 -57 37z m44 -36 c-10 -9 -11 -8 -5 6 3 10 9
15 12 12 3 -3 0 -11 -7 -18z"/>
<path d="M997 2726 c-4 -10 -5 -21 -2 -24 9 -9 17 6 13 25 -3 17 -4 17 -11 -1z"/>
<path d="M1120 2719 c0 -12 -11 -15 -47 -15 -28 1 -48 -4 -50 -11 -3 -7 3 -13
12 -13 25 0 47 -27 40 -50 -6 -20 -35 -28 -35 -10 0 6 -5 10 -12 10 -6 0 -3
-10 8 -21 l19 -21 -32 7 c-18 3 -33 5 -33 2 0 -4 87 -37 140 -52 24 -8 24 -8
-3 16 l-28 24 43 0 c24 -1 54 -4 68 -8 14 -4 39 -3 55 2 l30 8 -27 7 c-16 3
-40 9 -55 12 l-28 6 23 11 c16 7 36 7 68 0 36 -8 47 -8 51 3 9 23 -7 34 -47
34 -43 0 -92 18 -84 31 3 5 -7 9 -22 9 -15 0 -33 8 -40 18 -11 14 -13 15 -14
1z m31 -59 c23 0 29 -4 29 -21 0 -16 -4 -19 -17 -14 -10 4 -26 7 -36 7 -9 0
-15 3 -12 9 4 5 -1 9 -9 9 -9 0 -16 5 -16 11 0 6 7 8 16 5 9 -3 29 -6 45 -6z"/>
<path d="M880 2695 c-11 -13 -10 -14 4 -9 9 3 16 10 16 15 0 13 -6 11 -20 -6z"/>
<path d="M860 2655 c0 -3 19 -14 41 -26 34 -17 43 -18 50 -7 5 8 4 14 -4 16
-7 2 -19 6 -27 10 -19 7 -60 12 -60 7z"/>
<path d="M870 2609 c0 -5 5 -7 10 -4 6 3 10 8 10 11 0 2 -4 4 -10 4 -5 0 -10
-5 -10 -11z"/>
<path d="M1173 2529 c30 -18 77 -28 94 -22 29 11 -16 33 -66 33 -37 -1 -43 -3
-28 -11z"/>
<path d="M1290 2520 c0 -5 6 -10 14 -10 8 0 18 5 21 10 3 6 -3 10 -14 10 -12
0 -21 -4 -21 -10z"/>
<path d="M1064 2017 c3 -11 0 -20 -9 -23 -16 -6 -21 -44 -7 -44 17 0 33 50 21
68 -10 16 -10 15 -5 -1z"/>
<path d="M4806 2774 c-4 -10 -1 -14 6 -12 15 5 23 28 10 28 -5 0 -13 -7 -16
-16z"/>
<path d="M4910 2779 c0 -5 5 -7 10 -4 6 3 10 8 10 11 0 2 -4 4 -10 4 -5 0 -10
-5 -10 -11z"/>
<path d="M4970 2775 c0 -5 5 -17 10 -25 5 -8 10 -10 10 -5 0 6 -5 17 -10 25
-5 8 -10 11 -10 5z"/>
<path d="M4610 2709 c0 -5 5 -7 10 -4 6 3 10 8 10 11 0 2 -4 4 -10 4 -5 0 -10
-5 -10 -11z"/>
<path d="M4903 2693 c9 -2 15 -8 12 -13 -3 -4 6 -7 20 -6 23 1 24 2 8 14 -9 6
-26 11 -37 11 -17 -1 -18 -2 -3 -6z"/>
<path d="M4640 2670 c0 -5 5 -10 10 -10 6 0 10 5 10 10 0 6 -4 10 -10 10 -5 0
-10 -4 -10 -10z"/>
<path d="M4847 2673 c-14 -13 -6 -23 19 -23 22 0 25 2 14 15 -14 16 -23 19
-33 8z"/>
<path d="M5078 2674 c-5 -4 -8 -19 -8 -33 0 -18 3 -22 11 -14 6 6 9 21 7 33
-1 12 -6 18 -10 14z"/>
<path d="M5138 2635 c-4 -20 -3 -23 8 -14 16 13 19 39 5 39 -5 0 -11 -11 -13
-25z"/>
<path d="M4580 2646 c0 -2 7 -9 15 -16 9 -7 15 -8 15 -2 0 5 -7 12 -15 16 -8
3 -15 4 -15 2z"/>
<path d="M4820 2589 c0 -5 5 -7 10 -4 6 3 10 8 10 11 0 2 -4 4 -10 4 -5 0 -10
-5 -10 -11z"/>
<path d="M4651 2578 c8 -7 20 -20 27 -28 12 -13 13 -13 10 0 -4 20 -24 40 -39
40 -9 0 -9 -3 2 -12z"/>
<path d="M4769 2563 c-1 -5 -1 -11 -1 -14 1 -3 -12 -3 -29 -1 -32 5 -40 -11
-11 -23 22 -9 155 -25 164 -19 4 2 2 19 -5 37 -11 32 -11 32 -17 7 -6 -24 -11
-26 -62 -22 -11 1 -18 10 -18 22 0 18 -19 29 -21 13z"/>
<path d="M5097 2452 c-10 -10 -17 -22 -17 -27 0 -5 -7 -17 -17 -27 -13 -15
-14 -18 -1 -18 18 0 54 38 63 68 8 27 -6 29 -28 4z"/>
<path d="M2356 2415 c4 -8 10 -12 15 -9 11 6 2 24 -11 24 -5 0 -7 -7 -4 -15z"/>
<path d="M4915 2320 c-3 -5 1 -10 10 -10 9 0 13 5 10 10 -3 6 -8 10 -10 10 -2
0 -7 -4 -10 -10z"/>
<path d="M4910 2283 c0 -10 4 -14 8 -8 4 6 11 13 16 18 5 4 2 7 -7 7 -10 0
-17 -8 -17 -17z"/>
<path d="M4706 2261 c-3 -5 1 -11 9 -15 8 -3 15 -1 15 4 0 13 -18 22 -24 11z"/>
<path d="M2430 2118 c0 -12 1 -19 3 -17 1 2 9 12 16 22 12 14 11 17 -3 17 -10
0 -16 -8 -16 -22z"/>
<path d="M2210 2100 c-13 -11 -18 -20 -12 -20 5 0 8 -9 5 -19 -3 -11 0 -28 6
-38 10 -17 10 -17 11 2 0 16 2 17 10 5 8 -12 10 -12 16 4 5 14 9 15 15 4 6 -9
9 -2 9 20 0 17 -4 32 -10 32 -5 0 -10 -6 -10 -14 0 -8 -4 -17 -9 -20 -5 -3 -8
5 -7 19 0 14 4 25 9 25 4 0 7 5 7 10 0 16 -15 12 -40 -10z"/>
<path d="M2375 2110 c-3 -6 -12 -10 -18 -9 -29 4 -38 -2 -35 -23 4 -27 23 -34
32 -12 4 12 2 15 -9 10 -8 -3 -15 -1 -15 5 0 7 10 9 25 5 18 -5 27 -2 31 9 8
19 -1 31 -11 15z"/>
<path d="M2401 2104 c0 -11 3 -14 6 -6 3 7 2 16 -1 19 -3 4 -6 -2 -5 -13z"/>
<path d="M4950 2083 c0 -7 7 -13 15 -13 8 0 15 6 15 13 0 8 -7 14 -15 14 -8 0
-15 -6 -15 -14z"/>
<path d="M2285 2069 c-4 -11 -4 -23 -1 -26 3 -4 6 2 7 13 0 18 1 18 9 -1 8
-19 9 -19 9 2 1 30 -16 38 -24 12z"/>
<path d="M4790 2085 c0 -2 14 -8 31 -14 22 -8 29 -7 27 1 -3 9 -58 22 -58 13z"/>
<path d="M2420 2069 c0 -6 -5 -7 -10 -4 -6 3 -13 -1 -16 -9 -3 -9 -15 -16 -25
-16 -10 0 -19 -4 -19 -9 0 -5 -16 -12 -35 -15 -20 -4 -39 -16 -46 -27 -12 -23
-3 -41 10 -20 5 7 14 10 20 7 6 -4 11 0 12 11 0 11 3 13 6 5 4 -9 8 -10 18 -2
8 6 16 7 19 2 3 -5 -6 -14 -19 -20 -24 -11 -36 -52 -16 -52 5 0 39 14 75 31
54 25 66 35 66 55 0 21 -3 22 -25 14 -22 -8 -25 -7 -24 13 0 12 3 17 5 10 7
-15 34 -5 34 12 0 7 -7 15 -15 19 -8 3 -15 1 -15 -5z m-26 -58 c3 -5 -1 -11
-9 -14 -9 -4 -12 -1 -8 9 6 16 10 17 17 5z"/>
<path d="M4740 2055 c0 -7 9 -20 20 -30 11 -10 20 -15 20 -11 0 3 15 0 34 -8
21 -9 37 -11 43 -5 5 5 31 11 58 12 38 2 49 6 55 23 5 13 4 21 -3 21 -7 0 -24
3 -40 6 -15 3 -39 0 -54 -8 -18 -10 -32 -11 -44 -4 -10 5 -22 9 -26 8 -4 -1
-10 0 -13 1 -19 8 -50 5 -50 -5z"/>
<path d="M4758 1989 c25 -23 33 -24 26 -5 -3 8 -15 16 -26 19 l-20 6 20 -20z"/>
<path d="M4941 1996 l-23 -13 23 -7 c20 -5 21 -8 9 -16 -13 -8 -13 -10 2 -10
20 0 48 26 48 46 0 17 -27 18 -59 0z m44 -16 c-3 -5 -10 -10 -16 -10 -5 0 -9
5 -9 10 0 6 7 10 16 10 8 0 12 -4 9 -10z"/>
<path d="M4632 1990 c-1 -9 -11 -33 -22 -55 -23 -45 -11 -71 15 -32 10 16 15
39 12 64 -2 21 -4 31 -5 23z"/>
<path d="M4885 1960 c3 -5 0 -7 -8 -4 -8 3 -17 -2 -21 -12 -9 -24 0 -29 29
-16 28 13 34 42 9 42 -8 0 -12 -4 -9 -10z"/>
<path d="M2397 1864 c-48 -25 -49 -26 -30 -46 18 -21 18 -21 -5 -9 -22 12 -62
7 -62 -7 0 -10 59 -40 94 -48 27 -6 27 -5 16 15 -10 20 -8 23 19 34 27 10 31
16 31 49 0 21 -3 38 -7 38 -5 -1 -30 -12 -56 -26z m-43 -69 c11 -8 15 -15 9
-15 -19 0 -43 12 -43 21 0 13 12 11 34 -6z"/>
<path d="M3010 1835 c0 -9 6 -12 15 -9 8 4 15 7 15 9 0 2 -7 5 -15 9 -9 3 -15
0 -15 -9z"/>
<path d="M4597 1800 c-11 -18 -16 -39 -12 -50 5 -15 2 -20 -12 -20 -14 0 -18
7 -17 32 1 18 0 36 -2 40 -2 3 -28 -3 -56 -15 -43 -17 -76 -21 -173 -21 -129
-1 -158 3 -219 29 l-39 16 5 -25 c3 -14 0 -27 -6 -30 -7 -3 -6 -8 4 -15 20
-14 6 -25 -18 -12 -18 10 -18 8 -6 -58 7 -38 23 -92 35 -122 12 -30 29 -76 39
-102 40 -110 154 -150 289 -101 51 18 94 64 94 101 0 7 14 17 30 21 32 8 39
24 37 91 0 42 28 183 40 195 5 5 6 14 3 21 -2 8 0 23 7 34 17 33 -4 24 -23 -9z"/>
<path d="M2928 1803 c7 -3 16 -2 19 1 4 3 -2 6 -13 5 -11 0 -14 -3 -6 -6z"/>
<path d="M2978 1803 c6 -2 18 -2 25 0 6 3 1 5 -13 5 -14 0 -19 -2 -12 -5z"/>
<path d="M2265 1780 c3 -5 8 -10 11 -10 2 0 4 5 4 10 0 6 -5 10 -11 10 -5 0
-7 -4 -4 -10z"/>
<path d="M2133 1752 c-63 -21 -73 -29 -73 -49 0 -12 2 -23 5 -23 4 0 33 18
141 87 29 18 7 14 -73 -15z"/>
<path d="M2733 1756 c9 -7 17 -16 17 -20 0 -3 -8 -6 -17 -6 -10 -1 -3 -7 16
-15 42 -19 39 -19 39 10 0 14 -1 25 -2 25 -1 0 -17 4 -36 10 -30 8 -33 7 -17
-4z"/>
<path d="M2220 1750 c0 -5 5 -10 11 -10 5 0 7 5 4 10 -3 6 -8 10 -11 10 -2 0
-4 -4 -4 -10z"/>
<path d="M2470 1747 c0 -16 31 -67 40 -67 6 0 10 3 10 8 -1 10 -50 69 -50 59z"/>
<path d="M2510 1736 c0 -8 5 -18 10 -21 6 -3 10 1 10 9 0 8 -4 18 -10 21 -5 3
-10 -1 -10 -9z"/>
<path d="M2270 1730 c20 -13 33 -13 25 0 -3 6 -14 10 -23 10 -15 0 -15 -2 -2
-10z"/>
<path d="M2451 1710 c0 -19 37 -65 46 -56 4 3 0 12 -9 19 -9 6 -20 21 -26 32
-8 14 -11 15 -11 5z"/>
<path d="M2735 1690 c3 -5 2 -10 -3 -10 -23 0 -5 -27 23 -36 30 -10 33 -9 33
14 0 16 -8 26 -25 33 -31 12 -36 11 -28 -1z m25 -20 c0 -5 -2 -10 -4 -10 -3 0
-8 5 -11 10 -3 6 -1 10 4 10 6 0 11 -4 11 -10z"/>
<path d="M2065 1640 c-4 -6 6 -7 27 -3 44 8 48 13 10 13 -17 0 -34 -4 -37 -10z"/>
<path d="M2020 1625 c-7 -8 -8 -15 -2 -15 5 0 15 7 22 15 7 8 8 15 2 15 -5 0
-15 -7 -22 -15z"/>
<path d="M2741 1623 c11 -3 15 -11 12 -24 -3 -10 0 -19 6 -19 6 0 11 5 11 11
0 5 5 7 10 4 13 -8 8 18 -5 27 -5 4 -19 7 -30 7 -15 -1 -16 -2 -4 -6z"/>
<path d="M2463 1590 c-1 -11 2 -22 8 -25 5 -4 9 -2 9 4 0 5 3 16 6 25 4 10 1
16 -8 16 -7 0 -14 -9 -15 -20z"/>
<path d="M2385 1590 c-3 -5 -1 -10 4 -10 6 0 11 5 11 10 0 6 -2 10 -4 10 -3 0
-8 -4 -11 -10z"/>
<path d="M2095 1580 c14 -6 16 -9 5 -10 -8 -2 -19 -2 -25 0 -5 1 -5 -4 1 -10
9 -9 17 -9 34 0 12 6 28 9 37 6 9 -4 13 -1 11 6 -3 7 -22 14 -44 15 -30 2 -34
0 -19 -7z"/>
<path d="M2935 1575 c28 -8 57 -15 65 -15 33 1 -15 18 -65 24 l-50 6 50 -15z"/>
<path d="M2408 1563 c6 -2 12 -10 12 -16 0 -7 14 -25 30 -41 l30 -29 0 25 c0
29 -38 68 -66 67 -10 0 -13 -3 -6 -6z"/>
<path d="M1784 1355 c-8 -20 2 -32 31 -37 13 -3 22 -1 19 3 -3 5 -12 9 -20 9
-13 0 -18 12 -15 33 2 13 -9 7 -15 -8z"/>
<path d="M4283 1303 c15 -2 37 -2 50 0 12 2 0 4 -28 4 -27 0 -38 -2 -22 -4z"/>
<path d="M2750 1159 c0 -5 5 -7 10 -4 6 3 10 8 10 11 0 2 -4 4 -10 4 -5 0 -10
-5 -10 -11z"/>
<path d="M2770 1135 c0 -8 8 -11 23 -8 16 3 18 2 8 -5 -8 -6 -9 -12 -3 -16 5
-3 15 0 21 8 9 11 6 16 -19 24 -24 9 -30 8 -30 -3z"/>
<path d="M2770 1072 c0 -12 19 -26 26 -19 2 2 -2 10 -11 17 -9 8 -15 8 -15 2z"/>
<path d="M2821 1064 c0 -11 3 -14 6 -6 3 7 2 16 -1 19 -3 4 -6 -2 -5 -13z"/>
<path d="M1344 2918 c-10 -16 24 -38 58 -38 32 0 49 27 27 41 -20 13 -77 11
-85 -3z"/>
<path d="M3990 2804 c0 -27 4 -43 10 -39 6 3 10 24 10 46 0 21 -4 39 -10 39
-5 0 -10 -21 -10 -46z"/>
<path d="M4364 2825 c-7 -28 0 -55 16 -55 5 0 10 18 10 40 0 44 -16 54 -26 15z"/>
<path d="M1940 2820 c-9 -16 -8 -20 5 -20 8 0 15 9 15 20 0 11 -2 20 -5 20 -2
0 -9 -9 -15 -20z"/>
<path d="M2244 2836 c-8 -22 -2 -27 16 -16 12 7 12 12 3 21 -10 10 -14 9 -19
-5z"/>
<path d="M2347 2836 c-6 -16 2 -28 14 -20 12 7 11 34 0 34 -5 0 -11 -6 -14
-14z"/>
<path d="M2556 2834 c-9 -24 -7 -39 9 -60 13 -18 14 -15 15 29 0 46 -12 62
-24 31z"/>
<path d="M2726 2843 c-3 -3 -6 -21 -6 -40 0 -23 5 -33 15 -33 10 0 15 10 15
34 0 34 -11 52 -24 39z"/>
<path d="M2830 2829 c0 -11 5 -17 10 -14 6 3 10 13 10 21 0 8 -4 14 -10 14 -5
0 -10 -9 -10 -21z"/>
<path d="M3104 2836 c-8 -22 3 -33 18 -18 9 9 9 15 0 24 -9 9 -13 7 -18 -6z"/>
<path d="M3724 2836 c-8 -22 3 -33 18 -18 9 9 9 15 0 24 -9 9 -13 7 -18 -6z"/>
<path d="M4154 2836 c-8 -22 -1 -59 14 -64 8 -2 12 8 12 32 0 37 -16 57 -26
32z"/>
<path d="M4267 2844 c-4 -4 -7 -23 -7 -41 0 -38 23 -42 28 -5 4 25 -11 56 -21
46z"/>
<path d="M1458 2783 c7 -3 16 -2 19 1 4 3 -2 6 -13 5 -11 0 -14 -3 -6 -6z"/>
<path d="M5770 2680 c0 -5 5 -10 11 -10 5 0 7 5 4 10 -3 6 -8 10 -11 10 -2 0
-4 -4 -4 -10z"/>
<path d="M5740 2550 c0 -5 10 -10 23 -10 18 0 19 2 7 10 -19 13 -30 13 -30 0z"/>
<path d="M3176 2383 c-12 -12 -6 -33 9 -33 8 0 15 6 15 14 0 17 -14 28 -24 19z"/>
<path d="M3434 2366 c-7 -29 4 -69 17 -61 12 8 12 85 -1 85 -5 0 -12 -11 -16
-24z"/>
<path d="M5870 2345 c0 -8 5 -15 10 -15 6 0 10 7 10 15 0 8 -4 15 -10 15 -5 0
-10 -7 -10 -15z"/>
<path d="M5610 2169 c0 -5 5 -7 10 -4 6 3 10 8 10 11 0 2 -4 4 -10 4 -5 0 -10
-5 -10 -11z"/>
<path d="M5770 2087 c0 -15 44 -39 54 -30 11 12 6 20 -19 31 -33 15 -35 15
-35 -1z"/>
<path d="M5640 1832 c0 -14 23 -32 42 -32 23 0 23 9 1 26 -20 15 -43 18 -43 6z"/>
<path d="M5580 1724 c0 -17 22 -14 28 4 2 7 -3 12 -12 12 -9 0 -16 -7 -16 -16z"/>
<path d="M5525 1641 c-5 -9 31 -41 47 -41 14 0 8 23 -9 36 -22 16 -30 17 -38
5z"/>
<path d="M5250 1562 c0 -5 7 -13 16 -16 10 -4 14 -1 12 6 -5 15 -28 23 -28 10z"/>
<path d="M5140 1415 c7 -9 15 -13 17 -11 7 7 -7 26 -19 26 -6 0 -6 -6 2 -15z"/>
<path d="M5040 1315 c7 -9 15 -13 17 -11 7 7 -7 26 -19 26 -6 0 -6 -6 2 -15z"/>
<path d="M1877 1153 c-9 -2 -15 -9 -12 -14 9 -14 22 -11 29 6 3 8 4 14 3 14
-1 -1 -10 -3 -20 -6z"/>
<path d="M1820 1130 c20 -13 33 -13 25 0 -3 6 -14 10 -23 10 -15 0 -15 -2 -2
-10z"/>
<path d="M1936 1095 c-9 -26 -7 -32 5 -12 6 10 9 21 6 23 -2 3 -7 -2 -11 -11z"/>
<path d="M1956 1047 c3 -10 9 -15 12 -12 3 3 0 11 -7 18 -10 9 -11 8 -5 -6z"/>
<path d="M1981 1034 c0 -11 3 -14 6 -6 3 7 2 16 -1 19 -3 4 -6 -2 -5 -13z"/>
<path d="M3366 500 c-13 -57 -12 -65 12 -68 25 -4 27 7 7 58 -12 34 -13 34
-19 10z"/>
</g>
</svg>
