<?xml version="1.0" standalone="no"?>
<!DOCTYPE svg PUBLIC "-//W3C//DTD SVG 20010904//EN"
 "http://www.w3.org/TR/2001/REC-SVG-20010904/DTD/svg10.dtd">
<svg version="1.0" xmlns="http://www.w3.org/2000/svg"
 width="468pt" height="163pt" viewBox="0 0 468 163"
 preserveAspectRatio="xMidYMid meet">
<metadata>
Created by potrace 1.8, written by Peter Selinger 2001-2007
</metadata>
<g transform="translate(0,163) scale(0.073125,-0.073125)"
fill="#000000" stroke="none">
<path d="M4590 2060 c0 -5 -11 -10 -25 -10 -16 0 -25 -6 -25 -15 0 -12 -17
-15 -90 -15 -53 0 -90 -4 -90 -10 0 -6 -28 -10 -65 -10 -51 0 -65 -3 -65 -15
0 -11 -11 -15 -40 -15 -29 0 -40 -4 -40 -15 0 -11 -12 -15 -50 -15 -27 0 -50
-4 -50 -10 0 -5 -11 -10 -25 -10 -16 0 -25 -6 -25 -15 0 -11 -11 -15 -40 -15
-22 0 -40 -4 -40 -10 0 -5 -11 -10 -25 -10 -16 0 -25 -6 -25 -15 0 -8 -7 -15
-15 -15 -8 0 -15 -4 -15 -10 0 -5 -11 -10 -25 -10 -16 0 -25 -6 -25 -15 0 -9
-9 -15 -25 -15 -14 0 -25 -4 -25 -10 0 -5 -16 -10 -35 -10 -19 0 -35 5 -35 10
0 6 -28 10 -65 10 -51 0 -65 3 -65 15 0 9 -9 15 -25 15 -16 0 -25 -6 -25 -15
0 -11 -11 -15 -40 -15 -29 0 -40 4 -40 15 0 8 -7 15 -15 15 -8 0 -15 -7 -15
-15 0 -12 -15 -15 -75 -15 -43 0 -75 -4 -75 -10 0 -6 -28 -10 -65 -10 -51 0
-65 -3 -65 -15 0 -11 -12 -15 -50 -15 -38 0 -50 -4 -50 -15 0 -11 -11 -15 -40
-15 -22 0 -40 -4 -40 -10 0 -5 -16 -10 -35 -10 -24 0 -35 -5 -35 -15 0 -9 -9
-15 -25 -15 -14 0 -25 -4 -25 -10 0 -5 -18 -10 -40 -10 -22 0 -40 5 -40 10 0
6 -18 10 -40 10 -29 0 -40 4 -40 15 0 13 -27 15 -180 15 -153 0 -180 -2 -180
-15 0 -9 -9 -15 -25 -15 -14 0 -25 -4 -25 -10 0 -5 -11 -10 -25 -10 -14 0 -25
-5 -25 -11 0 -14 -25 -39 -39 -39 -6 0 -11 -7 -11 -15 0 -8 -5 -15 -11 -15
-21 0 -39 -29 -39 -64 0 -25 -4 -36 -15 -36 -8 0 -15 -5 -15 -11 0 -17 -27
-39 -49 -39 -12 0 -21 -6 -21 -15 0 -11 -11 -15 -40 -15 -29 0 -40 4 -40 15 0
13 -27 15 -180 15 -113 0 -180 4 -180 10 0 6 -45 10 -115 10 -96 0 -115 3
-115 15 0 11 -12 15 -50 15 -27 0 -50 5 -50 10 0 6 -33 10 -80 10 -64 0 -80 3
-80 15 0 9 -9 15 -25 15 -16 0 -25 6 -25 15 0 10 -11 15 -35 15 -19 0 -35 5
-35 10 0 6 -7 10 -15 10 -8 0 -15 7 -15 15 0 9 -9 15 -25 15 -14 0 -25 5 -25
10 0 6 -7 10 -15 10 -8 0 -15 5 -15 11 0 14 -25 39 -39 39 -6 0 -11 7 -11 15
0 12 -17 15 -90 15 -89 0 -90 0 -90 25 0 20 -5 25 -25 25 -20 0 -25 5 -25 25
0 14 -4 25 -10 25 -5 0 -10 18 -10 40 0 29 -4 40 -15 40 -12 0 -15 -14 -15
-65 0 -51 3 -65 15 -65 8 0 15 -7 15 -15 0 -9 -9 -15 -25 -15 -16 0 -25 6 -25
15 0 8 -7 15 -15 15 -8 0 -15 7 -15 15 0 9 -9 15 -25 15 -20 0 -25 -5 -25 -26
0 -26 20 -54 39 -54 6 0 11 -7 11 -15 0 -8 6 -15 14 -15 8 0 17 -6 20 -12 5
-10 7 -10 12 0 7 14 84 17 84 2 0 -5 -7 -10 -15 -10 -9 0 -15 -9 -15 -25 0
-14 -4 -25 -10 -25 -5 0 -10 -11 -10 -25 0 -16 -6 -25 -15 -25 -11 0 -15 -11
-15 -40 0 -22 -4 -40 -10 -40 -6 0 -10 -28 -10 -65 l0 -65 -30 0 c-20 0 -30 5
-30 15 0 8 -4 15 -10 15 -6 0 -10 27 -10 60 0 33 4 60 10 60 6 0 10 14 10 30
0 27 3 30 30 30 28 0 30 3 30 35 0 32 -2 35 -30 35 -16 0 -30 5 -30 11 0 17
-27 39 -49 39 -12 0 -21 -4 -21 -10 0 -5 5 -10 10 -10 6 0 10 -7 10 -15 0 -8
7 -15 15 -15 9 0 15 -9 15 -25 0 -22 -4 -25 -40 -25 -40 0 -40 0 -40 -40 0
-29 4 -40 15 -40 8 0 15 -4 15 -10 0 -5 -11 -10 -25 -10 -22 0 -25 -4 -25 -40
0 -22 5 -40 10 -40 6 0 10 -16 10 -35 0 -19 -4 -35 -10 -35 -5 0 -10 -11 -10
-25 0 -20 5 -25 25 -25 14 0 25 5 25 10 0 6 16 10 35 10 24 0 35 5 35 15 0 10
10 15 29 15 16 0 32 6 35 13 5 10 7 10 12 0 3 -7 12 -13 20 -13 8 0 14 -10 14
-25 0 -23 3 -25 50 -25 38 0 50 -4 50 -15 0 -8 5 -15 10 -15 6 0 10 -7 10 -15
0 -8 7 -15 15 -15 8 0 15 -4 15 -10 0 -5 11 -10 25 -10 16 0 25 -6 25 -15 0
-11 11 -15 40 -15 22 0 40 -4 40 -10 0 -5 18 -10 40 -10 29 0 40 -4 40 -15 0
-11 12 -15 50 -15 28 0 50 -4 50 -10 0 -5 11 -10 25 -10 16 0 25 -6 25 -15 0
-12 17 -15 90 -15 53 0 90 -4 90 -10 0 -6 32 -10 75 -10 60 0 75 -3 75 -15 0
-8 -4 -15 -10 -15 -5 0 -10 -7 -10 -15 0 -11 -11 -15 -40 -15 -29 0 -40 4 -40
15 0 13 -49 15 -385 15 -336 0 -385 2 -385 15 0 13 -21 15 -125 15 -104 0
-125 -2 -125 -15 0 -8 -7 -15 -15 -15 -8 0 -15 -7 -15 -15 0 -13 24 -15 155
-15 97 0 155 -4 155 -10 0 -6 130 -10 370 -10 322 0 370 -2 370 -15 0 -11 11
-15 40 -15 29 0 40 4 40 15 0 8 5 15 10 15 6 0 10 -7 10 -15 0 -12 16 -15 80
-15 64 0 80 3 80 15 0 10 11 15 35 15 24 0 35 -5 35 -15 0 -13 44 -15 335 -15
217 0 335 -4 335 -10 0 -5 23 -10 50 -10 38 0 50 -4 50 -15 0 -9 9 -15 25 -15
24 0 25 -2 25 -65 0 -37 -4 -65 -10 -65 -5 0 -10 -11 -10 -25 0 -14 5 -25 10
-25 6 0 10 7 10 15 0 8 7 15 15 15 11 0 15 11 15 40 0 36 3 40 25 40 23 0 25
-4 25 -40 0 -29 -4 -40 -15 -40 -9 0 -15 -9 -15 -25 0 -20 -5 -25 -25 -25 -16
0 -25 -6 -25 -15 0 -11 -11 -15 -40 -15 -22 0 -40 -4 -40 -10 0 -6 -48 -10
-125 -10 -104 0 -125 -2 -125 -15 0 -12 -18 -15 -105 -15 -87 0 -105 3 -105
15 0 12 -13 15 -60 15 -47 0 -60 -3 -60 -15 0 -13 -29 -15 -205 -15 -176 0
-205 2 -205 15 0 11 -11 15 -40 15 -29 0 -40 -4 -40 -15 0 -8 -7 -15 -15 -15
-8 0 -15 7 -15 15 0 13 -25 15 -165 15 -103 0 -165 4 -165 10 0 6 -18 10 -40
10 -22 0 -40 -4 -40 -10 0 -5 -11 -10 -25 -10 -14 0 -25 5 -25 10 0 6 -100 10
-280 10 -180 0 -280 -4 -280 -10 0 -5 7 -10 15 -10 8 0 15 -7 15 -15 0 -12 19
-15 115 -15 96 0 115 3 115 15 0 8 5 15 10 15 6 0 10 -7 10 -15 0 -13 31 -15
220 -15 140 0 220 -4 220 -10 0 -6 70 -10 190 -10 162 0 190 -2 190 -15 0 -13
34 -15 245 -15 211 0 245 2 245 15 0 11 12 15 50 15 47 0 50 -2 50 -25 0 -14
5 -25 10 -25 6 0 10 -7 10 -15 0 -8 7 -15 15 -15 8 0 15 -7 15 -15 0 -8 7 -15
15 -15 9 0 15 -9 15 -25 0 -14 5 -25 10 -25 6 0 10 -11 10 -25 0 -20 5 -25 25
-25 14 0 25 -4 25 -10 0 -5 7 -10 15 -10 8 0 15 -7 15 -15 0 -11 12 -15 50
-15 28 0 50 -4 50 -10 0 -5 18 -10 40 -10 22 0 40 5 40 10 0 6 23 10 50 10 38
0 50 4 50 15 0 11 11 15 40 15 22 0 40 5 40 10 0 6 11 10 25 10 14 0 25 -4 25
-10 0 -5 16 -10 35 -10 24 0 35 -5 35 -15 0 -12 14 -15 65 -15 37 0 65 -4 65
-10 0 -6 28 -10 65 -10 51 0 65 -3 65 -15 0 -11 11 -15 40 -15 29 0 40 -4 40
-15 0 -12 19 -15 115 -15 70 0 115 -4 115 -10 0 -6 58 -10 155 -10 97 0 155 4
155 10 0 6 32 10 75 10 60 0 75 3 75 15 0 11 11 15 40 15 29 0 40 4 40 15 0
10 11 15 35 15 19 0 35 5 35 10 0 6 11 10 25 10 16 0 25 6 25 15 0 9 9 15 25
15 14 0 25 5 25 10 0 6 18 10 40 10 29 0 40 4 40 15 0 8 5 15 11 15 14 0 39
25 39 39 0 6 5 11 11 11 14 0 39 25 39 39 0 6 7 11 15 11 8 0 15 7 15 15 0 8
5 15 11 15 17 0 39 27 39 49 0 12 6 21 15 21 9 0 15 9 15 25 0 14 5 25 10 25
6 0 10 7 10 15 0 8 7 15 15 15 9 0 15 9 15 25 0 14 5 25 10 25 6 0 10 11 10
25 0 16 6 25 15 25 11 0 15 11 15 40 l0 40 330 0 c287 0 330 -2 330 -15 0 -8
7 -15 15 -15 8 0 15 7 15 15 0 11 12 15 50 15 38 0 50 -4 50 -15 0 -9 9 -15
25 -15 16 0 25 6 25 15 0 8 7 15 15 15 8 0 15 -7 15 -15 0 -12 19 -15 115 -15
70 0 115 -4 115 -10 0 -6 88 -10 245 -10 211 0 245 -2 245 -15 0 -12 18 -15
100 -15 82 0 100 3 100 15 0 8 7 15 15 15 8 0 15 -7 15 -15 0 -9 9 -15 25 -15
16 0 25 6 25 15 0 10 11 15 35 15 24 0 35 -5 35 -15 0 -11 11 -15 40 -15 36 0
40 3 40 25 0 25 0 25 -100 25 -82 0 -100 3 -100 15 0 9 9 15 25 15 14 0 25 5
25 10 0 6 11 10 25 10 16 0 25 6 25 15 0 9 9 15 25 15 20 0 25 5 25 25 0 20 5
25 25 25 16 0 25 -6 25 -15 0 -11 11 -15 40 -15 36 0 40 3 40 25 0 23 -3 25
-50 25 -38 0 -50 4 -50 15 0 8 -7 15 -15 15 -8 0 -15 -7 -15 -15 0 -9 -9 -15
-25 -15 -16 0 -25 6 -25 15 0 13 -49 15 -385 15 -336 0 -385 2 -385 15 0 13
-24 15 -155 15 -97 0 -155 4 -155 10 0 6 -83 10 -230 10 -198 0 -230 2 -230
15 0 13 -25 15 -165 15 l-165 0 0 60 c0 47 -3 60 -15 60 -11 0 -15 12 -15 51
0 49 -15 79 -39 79 -6 0 -11 7 -11 15 0 8 -4 15 -10 15 -5 0 -10 11 -10 25 0
14 -5 25 -11 25 -17 0 -39 27 -39 49 0 12 -6 21 -15 21 -8 0 -15 7 -15 15 0 8
-4 15 -10 15 -5 0 -10 7 -10 15 0 8 -7 15 -15 15 -8 0 -15 5 -15 10 0 6 -7 10
-15 10 -8 0 -15 7 -15 15 0 9 -9 15 -25 15 -14 0 -25 5 -25 10 0 6 7 10 15 10
8 0 15 7 15 15 0 9 9 15 25 15 14 0 25 5 25 10 0 6 11 10 25 10 16 0 25 6 25
15 0 11 12 15 50 15 28 0 50 5 50 10 0 6 18 10 40 10 29 0 40 4 40 15 0 11 12
15 50 15 38 0 50 4 50 15 0 12 14 15 65 15 37 0 65 4 65 10 0 6 45 10 115 10
70 0 115 -4 115 -10 0 -5 7 -10 15 -10 8 0 15 5 15 10 0 6 16 10 35 10 19 0
35 -4 35 -10 0 -6 37 -10 90 -10 73 0 90 -3 90 -15 0 -9 9 -15 25 -15 16 0 25
-6 25 -15 0 -11 11 -15 40 -15 40 0 40 0 40 40 0 29 4 40 15 40 9 0 15 9 15
25 0 14 5 25 10 25 6 0 10 11 10 25 0 20 -5 25 -25 25 -16 0 -25 6 -25 15 0
11 11 15 40 15 36 0 40 3 40 25 0 20 -5 25 -25 25 -16 0 -25 6 -25 15 0 8 5
15 10 15 6 0 10 11 10 25 0 20 -5 25 -25 25 -16 0 -25 -6 -25 -15 0 -9 -9 -15
-25 -15 -14 0 -25 -4 -25 -10 0 -5 -11 -10 -25 -10 -14 0 -25 5 -25 10 0 6
-18 10 -40 10 -29 0 -40 4 -40 15 0 11 -11 15 -40 15 -22 0 -40 5 -40 10 0 6
-27 10 -60 10 -33 0 -60 -4 -60 -10 0 -6 -33 -10 -80 -10 -47 0 -80 4 -80 10
0 6 -4 10 -10 10 -5 0 -10 -4 -10 -10z m250 -50 c0 -6 28 -10 65 -10 51 0 65
-3 65 -15 0 -9 9 -15 25 -15 20 0 25 -5 25 -25 0 -14 -4 -25 -10 -25 -5 0 -10
-22 -10 -50 0 -29 -5 -50 -11 -50 -21 0 -39 29 -39 64 0 33 -2 36 -30 36 -16
0 -30 5 -30 10 0 6 -4 10 -10 10 -5 0 -10 -16 -10 -35 0 -24 -5 -35 -15 -35
-11 0 -15 12 -15 50 0 28 -4 50 -10 50 -5 0 -10 -11 -10 -25 0 -16 -6 -25 -15
-25 -11 0 -15 -11 -15 -40 0 -22 -4 -40 -10 -40 -5 0 -10 18 -10 40 0 22 5 40
10 40 6 0 10 18 10 40 0 29 4 40 15 40 8 0 15 5 15 10 0 6 5 10 10 10 6 0 10
-4 10 -10z m-180 -25 c0 -9 -9 -15 -25 -15 -20 0 -25 -5 -25 -25 0 -14 -4 -25
-10 -25 -5 0 -10 -7 -10 -15 0 -8 -5 -15 -11 -15 -14 0 -39 -25 -39 -39 0 -6
-7 -11 -15 -11 -8 0 -15 -4 -15 -10 0 -5 -18 -10 -40 -10 -22 0 -40 5 -40 10
0 6 7 10 15 10 9 0 15 9 15 25 0 14 5 25 10 25 6 0 10 7 10 15 0 8 7 15 15 15
8 0 15 5 15 10 0 6 7 10 15 10 8 0 15 7 15 15 0 8 5 15 10 15 6 0 10 7 10 15
0 11 12 15 50 15 38 0 50 -4 50 -15z m110 0 c0 -8 -7 -15 -15 -15 -8 0 -15 7
-15 15 0 8 7 15 15 15 8 0 15 -7 15 -15z m-290 -26 c0 -14 -25 -39 -39 -39 -6
0 -11 -5 -11 -11 0 -14 -25 -39 -39 -39 -6 0 -11 -11 -11 -25 0 -14 -4 -25
-10 -25 -5 0 -10 -7 -10 -15 0 -11 -11 -15 -40 -15 -22 0 -40 -4 -40 -10 0 -5
-7 -10 -15 -10 -9 0 -15 9 -15 25 0 16 6 25 15 25 9 0 15 9 15 25 0 16 6 25
15 25 8 0 15 5 15 10 0 6 11 10 25 10 14 0 25 5 25 11 0 14 25 39 39 39 6 0
11 7 11 15 0 10 11 15 35 15 19 0 35 -5 35 -11z m670 -4 c0 -9 -9 -15 -25 -15
-14 0 -25 -4 -25 -10 0 -5 5 -10 10 -10 14 0 12 -27 -2 -34 -10 -5 -10 -7 0
-12 7 -3 12 -25 12 -55 l0 -49 -35 0 -35 0 0 85 c0 50 4 85 10 85 6 0 10 7 10
15 0 11 11 15 40 15 29 0 40 -4 40 -15z m-840 -25 c0 -5 -7 -10 -15 -10 -8 0
-15 -7 -15 -15 0 -8 -5 -15 -11 -15 -14 0 -39 -25 -39 -39 0 -6 -7 -11 -15
-11 -10 0 -15 -11 -15 -35 0 -19 -4 -35 -10 -35 -5 0 -10 -7 -10 -15 0 -11
-11 -15 -40 -15 -36 0 -40 3 -40 25 0 16 6 25 15 25 8 0 15 7 15 15 0 8 5 15
10 15 6 0 10 11 10 25 0 14 5 25 11 25 14 0 39 25 39 39 0 6 7 11 15 11 8 0
15 5 15 10 0 6 18 10 40 10 22 0 40 -4 40 -10z m410 -40 l0 -50 -65 0 c-40 0
-65 4 -65 11 0 14 25 39 39 39 6 0 11 5 11 10 0 20 25 39 53 40 26 0 27 -2 27
-50z m-590 -10 c0 -5 -7 -10 -15 -10 -9 0 -15 -9 -15 -25 0 -14 -4 -25 -10
-25 -5 0 -10 -11 -10 -25 0 -16 -6 -25 -15 -25 -11 0 -15 -11 -15 -40 0 -36
-2 -40 -25 -40 -16 0 -25 -6 -25 -15 0 -9 -9 -15 -25 -15 -14 0 -25 -4 -25
-10 0 -5 -11 -10 -25 -10 -14 0 -25 5 -25 10 0 6 5 10 10 10 6 0 10 18 10 40
0 29 4 40 15 40 8 0 15 5 15 11 0 14 25 39 39 39 6 0 11 11 11 25 0 14 5 25
10 25 6 0 10 7 10 15 0 10 10 15 30 15 17 0 30 5 30 10 0 6 11 10 25 10 14 0
25 -4 25 -10z m790 0 c0 -5 -7 -10 -15 -10 -8 0 -15 5 -15 10 0 6 7 10 15 10
8 0 15 -4 15 -10z m-970 -50 c0 -5 -7 -10 -15 -10 -9 0 -15 -9 -15 -25 0 -14
-4 -25 -10 -25 -5 0 -10 -13 -10 -30 0 -20 -5 -30 -15 -30 -11 0 -15 -12 -15
-50 0 -47 -2 -50 -25 -50 -14 0 -25 -4 -25 -10 0 -5 -7 -10 -15 -10 -8 0 -15
-7 -15 -15 0 -8 -4 -15 -10 -15 -5 0 -10 11 -10 25 0 14 5 25 10 25 6 0 10 23
10 50 0 38 4 50 15 50 8 0 15 7 15 15 0 8 5 15 10 15 6 0 10 7 10 15 0 8 7 15
15 15 8 0 15 5 15 10 0 6 7 10 15 10 8 0 15 5 15 10 0 15 23 39 38 40 6 0 12
-4 12 -10z m970 0 c0 -5 -7 -10 -15 -10 -8 0 -15 5 -15 10 0 6 7 10 15 10 8 0
15 -4 15 -10z m-1430 -75 c0 -12 17 -15 90 -15 73 0 90 -3 90 -15 0 -8 -7 -15
-15 -15 -8 0 -15 -4 -15 -10 0 -5 -11 -10 -25 -10 -16 0 -25 -6 -25 -15 0 -8
-7 -15 -15 -15 -8 0 -15 -4 -15 -10 0 -5 -11 -10 -25 -10 -14 0 -25 -5 -25
-11 0 -17 -27 -39 -49 -39 -12 0 -21 -6 -21 -15 0 -8 -7 -15 -15 -15 -8 0 -15
-4 -15 -10 0 -5 -7 -10 -15 -10 -8 0 -15 -7 -15 -15 0 -9 -9 -15 -25 -15 -20
0 -25 -5 -25 -25 0 -20 -5 -25 -25 -25 -14 0 -25 -5 -25 -11 0 -14 -25 -39
-39 -39 -6 0 -11 5 -11 10 0 6 -18 10 -40 10 -29 0 -40 4 -40 15 0 9 -9 15
-25 15 -14 0 -25 5 -25 10 0 6 -11 10 -25 10 -16 0 -25 6 -25 15 0 8 -4 15
-10 15 -5 0 -10 7 -10 15 0 11 -11 15 -40 15 -22 0 -40 5 -40 10 0 6 -7 10
-15 10 -8 0 -15 7 -15 15 0 10 -11 15 -35 15 -19 0 -35 5 -35 10 0 6 5 10 10
10 6 0 10 7 10 15 0 11 11 15 40 15 22 0 40 5 40 10 0 6 11 10 25 10 16 0 25
6 25 15 0 12 14 15 65 15 37 0 65 4 65 10 0 6 28 10 65 10 51 0 65 3 65 15 0
12 18 15 100 15 82 0 100 3 100 15 0 8 7 15 15 15 8 0 15 -7 15 -15z m300 -30
c0 -8 -4 -15 -10 -15 -5 0 -10 -16 -10 -35 0 -24 -5 -35 -15 -35 -11 0 -15
-12 -15 -50 0 -27 -4 -50 -10 -50 -5 0 -10 -7 -10 -15 0 -8 -7 -15 -15 -15 -8
0 -15 -7 -15 -15 0 -9 -9 -15 -25 -15 -14 0 -25 -4 -25 -10 0 -5 -7 -10 -15
-10 -11 0 -15 11 -15 40 0 29 4 40 15 40 9 0 15 9 15 25 0 16 6 25 15 25 9 0
15 9 15 25 0 14 5 25 10 25 6 0 10 11 10 25 0 16 6 25 15 25 8 0 15 5 15 10 0
6 11 10 25 10 16 0 25 6 25 15 0 8 5 15 10 15 6 0 10 -7 10 -15z m-3070 -96
c0 -14 -25 -39 -39 -39 -6 0 -11 -7 -11 -15 0 -8 -5 -15 -11 -15 -19 0 -39
-28 -39 -54 0 -16 -6 -26 -15 -26 -10 0 -15 10 -15 30 0 20 5 30 15 30 9 0 15
9 15 25 0 14 5 25 10 25 6 0 10 11 10 25 0 23 4 25 40 25 22 0 40 -5 40 -11z
m1670 -4 c0 -8 -7 -15 -15 -15 -8 0 -15 -4 -15 -10 0 -5 -7 -10 -15 -10 -8 0
-15 -5 -15 -11 0 -6 -6 -17 -14 -25 -8 -8 -19 -14 -25 -14 -6 0 -11 -7 -11
-15 0 -8 -4 -15 -10 -15 -5 0 -10 -18 -10 -40 0 -29 -4 -40 -15 -40 -11 0 -15
11 -15 40 0 29 4 40 15 40 8 0 15 7 15 15 0 8 5 15 10 15 6 0 10 11 10 25 0
16 6 25 15 25 8 0 15 5 15 10 0 6 11 10 25 10 16 0 25 6 25 15 0 8 7 15 15 15
8 0 15 -7 15 -15z m150 0 c0 -8 -7 -15 -15 -15 -8 0 -15 -4 -15 -10 0 -5 -11
-10 -25 -10 -14 0 -25 -5 -25 -11 0 -6 -6 -17 -14 -25 -8 -8 -19 -14 -25 -14
-6 0 -11 -7 -11 -15 0 -8 -4 -15 -10 -15 -5 0 -10 -7 -10 -15 0 -8 -7 -15 -15
-15 -8 0 -15 -4 -15 -10 0 -5 -7 -10 -15 -10 -8 0 -15 -7 -15 -15 0 -9 -9 -15
-25 -15 -16 0 -25 6 -25 15 0 8 5 15 11 15 6 0 17 6 25 14 8 8 14 19 14 25 0
6 7 11 15 11 8 0 15 7 15 15 0 8 5 15 11 15 6 0 17 6 25 14 8 8 14 19 14 25 0
6 7 11 15 11 8 0 15 5 15 10 0 6 11 10 25 10 16 0 25 6 25 15 0 9 9 15 25 15
16 0 25 -6 25 -15z m1070 -10 c0 -14 -4 -25 -10 -25 -5 0 -10 -11 -10 -25 0
-16 -6 -25 -15 -25 -12 0 -15 -14 -15 -65 0 -37 -4 -65 -10 -65 -5 0 -10 -7
-10 -15 0 -8 -5 -15 -11 -15 -14 0 -39 -25 -39 -39 0 -6 -7 -11 -15 -11 -11 0
-15 12 -15 50 0 38 4 50 15 50 11 0 15 11 15 40 0 22 5 40 10 40 6 0 10 11 10
25 0 16 6 25 15 25 8 0 15 5 15 11 0 14 25 39 39 39 6 0 11 7 11 15 0 8 5 15
10 15 6 0 10 -11 10 -25z m-940 -15 c0 -5 -11 -10 -25 -10 -16 0 -25 -6 -25
-15 0 -8 -7 -15 -15 -15 -8 0 -15 -4 -15 -10 0 -5 -11 -10 -25 -10 -16 0 -25
-6 -25 -15 0 -8 -7 -15 -15 -15 -8 0 -15 -5 -15 -11 0 -21 -29 -39 -64 -39
-20 0 -36 5 -36 10 0 6 7 10 15 10 8 0 15 7 15 15 0 9 9 15 25 15 14 0 25 5
25 11 0 17 27 39 49 39 12 0 21 6 21 15 0 10 10 15 30 15 17 0 30 5 30 10 0 6
11 10 25 10 14 0 25 -4 25 -10z m-440 -25 c0 -8 -4 -15 -10 -15 -5 0 -10 -11
-10 -25 0 -16 -6 -25 -15 -25 -11 0 -15 -12 -15 -50 0 -27 -4 -50 -10 -50 -5
0 -10 23 -10 50 0 28 5 50 10 50 6 0 10 11 10 25 0 16 6 25 15 25 8 0 15 7 15
15 0 8 5 15 10 15 6 0 10 -7 10 -15z m540 -10 c0 -20 -5 -25 -25 -25 -16 0
-25 -6 -25 -15 0 -9 -9 -15 -25 -15 -16 0 -25 -6 -25 -15 0 -9 -9 -15 -25 -15
-14 0 -25 -4 -25 -10 0 -5 -13 -10 -30 -10 -16 0 -30 5 -30 10 0 6 7 10 15 10
8 0 15 7 15 15 0 8 7 15 15 15 8 0 15 7 15 15 0 9 9 15 25 15 14 0 25 5 25 10
0 6 11 10 25 10 16 0 25 6 25 15 0 9 9 15 25 15 20 0 25 -5 25 -25z m1150 10
c0 -9 9 -15 25 -15 14 0 25 -4 25 -10 0 -5 7 -10 15 -10 8 0 15 -7 15 -15 0
-8 5 -15 10 -15 6 0 10 -7 10 -15 0 -9 10 -15 26 -15 26 0 54 -20 54 -39 0 -6
7 -11 15 -11 10 0 15 -11 15 -35 0 -19 5 -35 10 -35 6 0 10 -7 10 -15 0 -8 7
-15 15 -15 10 0 15 -11 15 -35 0 -19 5 -35 10 -35 6 0 10 -13 10 -30 0 -20 5
-30 15 -30 11 0 15 -12 15 -49 0 -30 5 -52 13 -55 10 -5 10 -7 0 -12 -7 -3
-13 -12 -13 -19 0 -7 6 -16 13 -19 10 -5 10 -7 0 -12 -9 -4 -13 -28 -13 -70 0
-50 -3 -64 -15 -64 -11 0 -15 -11 -15 -40 0 -22 -4 -40 -10 -40 -5 0 -10 -11
-10 -25 0 -16 -6 -25 -15 -25 -9 0 -15 -9 -15 -25 0 -14 -4 -25 -10 -25 -5 0
-10 -11 -10 -25 0 -16 -6 -25 -15 -25 -9 0 -15 -9 -15 -25 0 -14 -4 -25 -10
-25 -5 0 -10 -11 -10 -25 0 -16 -6 -25 -15 -25 -8 0 -15 -7 -15 -15 0 -8 -5
-15 -11 -15 -14 0 -39 -25 -39 -39 0 -6 -7 -11 -15 -11 -8 0 -15 -7 -15 -15 0
-9 -9 -15 -21 -15 -22 0 -49 -22 -49 -39 0 -6 -13 -11 -30 -11 -16 0 -30 -4
-30 -10 0 -5 -11 -10 -25 -10 -16 0 -25 -6 -25 -15 0 -10 -11 -15 -35 -15 -19
0 -35 -4 -35 -10 0 -5 -18 -10 -40 -10 -29 0 -40 -4 -40 -15 0 -11 -11 -15
-40 -15 -22 0 -40 -4 -40 -10 0 -6 -27 -10 -60 -10 -47 0 -60 -3 -60 -15 0
-13 -23 -15 -145 -15 -122 0 -145 2 -145 15 0 12 -19 15 -115 15 -70 0 -115 4
-115 10 0 6 -16 10 -35 10 -24 0 -35 5 -35 15 0 12 -14 15 -65 15 -37 0 -65 4
-65 10 0 6 -33 10 -80 10 -64 0 -80 3 -80 15 0 8 -4 15 -10 15 -5 0 -10 5 -10
10 0 6 11 10 25 10 16 0 25 6 25 15 0 9 9 15 25 15 14 0 25 5 25 10 0 6 18 10
40 10 29 0 40 4 40 15 0 8 5 15 10 15 6 0 10 7 10 15 0 8 7 15 15 15 8 0 15 5
15 10 0 6 11 10 25 10 16 0 25 6 25 15 0 8 7 15 15 15 9 0 15 9 15 25 0 20 5
25 25 25 14 0 25 5 25 10 0 6 11 10 25 10 14 0 25 -4 25 -10 0 -6 62 -10 165
-10 103 0 165 4 165 10 0 6 23 10 50 10 38 0 50 4 50 15 0 12 13 15 55 15 30
0 55 5 55 10 0 6 16 10 35 10 24 0 35 5 35 15 0 8 7 15 15 15 8 0 15 5 15 10
0 6 11 10 25 10 16 0 25 6 25 15 0 8 7 15 15 15 8 0 15 7 15 15 0 9 9 15 21
15 26 0 49 23 49 49 0 12 6 21 15 21 8 0 15 7 15 15 0 8 5 15 10 15 6 0 10 62
10 165 0 103 -4 165 -10 165 -5 0 -10 7 -10 15 0 8 -5 15 -11 15 -14 0 -39 25
-39 39 0 6 -7 11 -15 11 -8 0 -15 5 -15 10 0 6 -22 10 -50 10 -38 0 -50 4 -50
15 0 8 5 15 10 15 6 0 10 11 10 25 0 20 5 25 26 25 26 0 54 20 54 39 0 6 11
11 25 11 14 0 25 5 25 10 0 6 7 10 15 10 8 0 15 7 15 15 0 8 5 15 10 15 6 0
10 7 10 15 0 8 7 15 15 15 8 0 15 5 15 10 0 6 11 10 25 10 16 0 25 6 25 15 0
9 9 15 25 15 16 0 25 -6 25 -15z m-3100 -25 c0 -5 -4 -10 -10 -10 -5 0 -10 -7
-10 -15 0 -8 -7 -15 -15 -15 -8 0 -15 -5 -15 -11 0 -14 -25 -39 -39 -39 -6 0
-11 -11 -11 -25 0 -14 -4 -25 -10 -25 -5 0 -10 -11 -10 -25 0 -16 -6 -25 -15
-25 -9 0 -15 -9 -15 -25 0 -16 -6 -25 -15 -25 -9 0 -15 9 -15 25 0 16 6 25 15
25 9 0 15 9 15 25 0 16 6 25 15 25 9 0 15 9 15 25 0 14 5 25 10 25 6 0 10 11
10 25 0 16 6 25 15 25 8 0 15 5 15 10 0 19 24 39 48 40 12 0 22 -4 22 -10z
m-430 -25 c0 -8 -7 -15 -15 -15 -8 0 -15 7 -15 15 0 8 7 15 15 15 8 0 15 -7
15 -15z m2510 0 c0 -8 -7 -15 -15 -15 -8 0 -15 -7 -15 -15 0 -9 -9 -15 -25
-15 -14 0 -25 -4 -25 -10 0 -5 -11 -10 -25 -10 -16 0 -25 -6 -25 -15 0 -9 -9
-15 -25 -15 -14 0 -25 -4 -25 -10 0 -15 -19 -12 -36 4 -21 22 -17 36 11 36 14
0 25 5 25 10 0 6 11 10 25 10 16 0 25 6 25 15 0 11 11 15 40 15 29 0 40 4 40
15 0 9 9 15 25 15 16 0 25 -6 25 -15z m-2200 -30 c0 -8 -7 -15 -15 -15 -8 0
-15 -4 -15 -10 0 -5 -7 -10 -15 -10 -8 0 -15 5 -15 10 0 6 7 10 15 10 8 0 15
7 15 15 0 8 7 15 15 15 8 0 15 -7 15 -15z m2740 -35 c0 -38 -4 -50 -15 -50
-11 0 -15 -11 -15 -40 0 -36 -2 -40 -25 -40 -24 0 -25 3 -25 61 0 59 13 89 39
89 6 0 11 7 11 15 0 8 7 15 15 15 11 0 15 -12 15 -50z m-2900 10 c0 -5 -4 -10
-10 -10 -5 0 -10 -11 -10 -25 0 -16 -6 -25 -15 -25 -9 0 -15 9 -15 25 0 16 6
25 15 25 8 0 15 5 15 10 0 6 5 10 10 10 6 0 10 -4 10 -10z m440 0 c0 -5 16
-10 35 -10 24 0 35 -5 35 -15 0 -12 16 -15 80 -15 47 0 80 -4 80 -10 0 -5 23
-10 50 -10 38 0 50 -4 50 -15 0 -12 19 -15 115 -15 70 0 115 -4 115 -10 0 -6
67 -10 180 -10 153 0 180 -2 180 -15 0 -9 9 -15 25 -15 16 0 25 6 25 15 0 12
19 15 115 15 96 0 115 -3 115 -15 0 -8 7 -15 15 -15 8 0 15 7 15 15 0 9 9 15
25 15 14 0 25 5 25 10 0 6 28 10 65 10 51 0 65 3 65 15 0 12 16 15 85 15 69 0
85 -3 85 -15 0 -10 10 -15 30 -15 24 0 30 -4 30 -21 0 -22 22 -49 39 -49 6 0
11 -18 11 -40 0 -36 3 -40 25 -40 16 0 25 -6 25 -15 0 -8 5 -15 10 -15 6 0 10
14 10 30 0 20 5 30 15 30 8 0 15 -7 15 -15 0 -8 7 -15 15 -15 8 0 15 -6 15
-14 0 -8 6 -17 13 -20 10 -5 10 -7 0 -12 -7 -3 -13 -12 -13 -20 0 -10 -12 -14
-40 -14 -22 0 -40 -4 -40 -10 0 -5 -11 -10 -25 -10 -16 0 -25 -6 -25 -15 0
-11 -11 -15 -40 -15 -22 0 -40 -4 -40 -10 0 -5 -11 -10 -25 -10 -16 0 -25 -6
-25 -15 0 -11 -11 -15 -40 -15 -22 0 -40 -4 -40 -10 0 -5 -16 -10 -35 -10 -24
0 -35 -5 -35 -15 0 -12 -19 -15 -115 -15 -96 0 -115 -3 -115 -15 0 -13 -27
-15 -180 -15 -153 0 -180 2 -180 15 0 12 -18 15 -105 15 -87 0 -105 3 -105 15
0 10 -11 15 -35 15 -19 0 -35 5 -35 10 0 6 -37 10 -90 10 -73 0 -90 3 -90 15
0 12 -16 15 -80 15 -47 0 -80 4 -80 10 0 6 -28 10 -65 10 -51 0 -65 3 -65 15
0 11 -12 15 -50 15 -27 0 -50 5 -50 10 0 6 -16 10 -35 10 -24 0 -35 5 -35 15
0 9 -10 15 -26 15 -14 0 -32 6 -40 14 -16 17 -19 66 -4 66 6 0 10 16 10 35 0
24 5 35 15 35 8 0 15 7 15 15 0 8 7 15 15 15 9 0 15 9 15 21 0 22 22 49 39 49
6 0 11 5 11 10 0 15 23 39 38 40 6 0 12 -4 12 -10z m2070 -25 c0 -8 7 -15 15
-15 8 0 15 -4 15 -10 0 -5 -11 -10 -25 -10 -16 0 -25 -6 -25 -15 0 -10 -10
-15 -30 -15 -16 0 -30 -4 -30 -10 0 -6 -27 -10 -60 -10 -33 0 -60 4 -60 10 0
6 -11 10 -25 10 -14 0 -25 5 -25 11 0 17 27 39 49 39 12 0 21 6 21 15 0 12 17
15 90 15 73 0 90 -3 90 -15z m-2410 -25 c0 -5 -4 -10 -10 -10 -5 0 -10 -11
-10 -25 0 -16 -6 -25 -15 -25 -9 0 -15 9 -15 25 0 16 6 25 15 25 8 0 15 5 15
10 0 6 5 10 10 10 6 0 10 -4 10 -10z m210 0 c0 -5 -7 -10 -15 -10 -8 0 -15 5
-15 10 0 6 7 10 15 10 8 0 15 -4 15 -10z m1250 0 c0 -5 -4 -10 -10 -10 -5 0
-10 5 -10 10 0 6 5 10 10 10 6 0 10 -4 10 -10z m1100 -50 c0 -5 18 -10 40 -10
22 0 40 -5 40 -11 0 -21 -29 -39 -64 -39 -25 0 -36 -4 -36 -15 0 -11 -11 -15
-40 -15 -22 0 -40 -4 -40 -10 0 -5 -16 -10 -35 -10 -19 0 -35 5 -35 10 0 6 -7
10 -15 10 -8 0 -15 7 -15 15 0 9 -9 15 -25 15 -14 0 -25 5 -25 10 0 6 18 10
40 10 29 0 40 4 40 15 0 12 13 15 60 15 33 0 60 4 60 10 0 6 11 10 25 10 14 0
25 -4 25 -10z m-2400 -25 c0 -8 -7 -15 -15 -15 -8 0 -15 7 -15 15 0 8 7 15 15
15 8 0 15 -7 15 -15z m-80 -25 c0 -5 -4 -10 -10 -10 -5 0 -10 5 -10 10 0 6 5
10 10 10 6 0 10 -4 10 -10z m2840 0 c0 -5 11 -10 25 -10 16 0 25 -6 25 -15 0
-9 10 -15 26 -15 26 0 54 -20 54 -39 0 -6 -18 -11 -40 -11 -29 0 -40 4 -40 15
0 9 -9 15 -25 15 -14 0 -25 5 -25 10 0 6 -11 10 -25 10 -16 0 -25 6 -25 15 0
8 7 15 15 15 8 0 15 5 15 10 0 6 5 10 10 10 6 0 10 -4 10 -10z m-2790 -50 c0
-22 -4 -40 -10 -40 -5 0 -10 18 -10 40 0 22 5 40 10 40 6 0 10 -18 10 -40z
m2670 0 c0 -5 -13 -10 -30 -10 -20 0 -30 -5 -30 -15 0 -10 -11 -15 -35 -15
-24 0 -35 -5 -35 -15 0 -9 -9 -15 -25 -15 -14 0 -25 -4 -25 -10 0 -16 -99 -12
-116 4 -16 17 -19 36 -4 36 6 0 10 7 10 15 0 12 13 15 55 15 30 0 55 5 55 10
0 6 37 10 90 10 53 0 90 -4 90 -10z m70 -55 c0 -8 5 -15 11 -15 11 0 39 -25
39 -35 0 -17 -32 -35 -64 -35 -25 0 -36 -4 -36 -15 0 -11 -11 -15 -40 -15 -29
0 -40 4 -40 15 0 9 -9 15 -25 15 -14 0 -25 5 -25 10 0 6 -11 10 -25 10 -16 0
-25 6 -25 15 0 11 12 15 50 15 28 0 50 5 50 10 0 6 18 10 40 10 29 0 40 4 40
15 0 9 9 15 25 15 16 0 25 -6 25 -15z m-460 -40 c0 -20 -5 -25 -25 -25 -20 0
-25 -5 -25 -25 0 -14 -5 -25 -11 -25 -14 0 -39 -25 -39 -39 0 -6 -5 -11 -11
-11 -14 0 -39 -25 -39 -39 0 -6 -7 -11 -15 -11 -8 0 -15 -7 -15 -15 0 -8 -4
-15 -10 -15 -5 0 -10 -11 -10 -25 0 -20 -5 -25 -25 -25 -14 0 -25 -4 -25 -10
0 -5 -7 -10 -15 -10 -8 0 -15 -7 -15 -15 0 -8 -5 -15 -11 -15 -14 0 -39 -25
-39 -39 0 -6 -18 -11 -40 -11 -29 0 -40 4 -40 15 0 11 -11 15 -40 15 -22 0
-40 5 -40 10 0 6 -11 10 -25 10 -16 0 -25 6 -25 15 0 11 -12 15 -50 15 -27 0
-50 5 -50 10 0 6 -11 10 -25 10 -16 0 -25 6 -25 15 0 8 7 15 15 15 8 0 15 5
15 10 0 6 23 10 50 10 38 0 50 4 50 15 0 9 9 15 25 15 16 0 25 6 25 15 0 11
11 15 40 15 22 0 40 5 40 10 0 6 11 10 25 10 16 0 25 6 25 15 0 10 11 15 35
15 19 0 35 5 35 10 0 6 14 10 30 10 20 0 30 5 30 15 0 9 9 15 25 15 14 0 25 5
25 10 0 6 11 10 25 10 16 0 25 6 25 15 0 9 9 15 25 15 14 0 25 5 25 10 0 6 23
10 50 10 47 0 50 -2 50 -25z m540 -70 c0 -22 -4 -25 -40 -25 -22 0 -40 5 -40
10 0 6 11 10 25 10 16 0 25 6 25 15 0 8 7 15 15 15 9 0 15 -9 15 -25z m-230
-40 c0 -12 14 -15 65 -15 37 0 65 -4 65 -10 0 -5 16 -10 35 -10 24 0 35 -5 35
-15 0 -12 13 -15 55 -15 42 0 55 -3 55 -15 0 -10 11 -15 35 -15 33 0 35 -2 35
-35 0 -19 -4 -35 -10 -35 -5 0 -10 -7 -10 -15 0 -8 -5 -15 -11 -15 -14 0 -39
-25 -39 -39 0 -6 -7 -11 -15 -11 -8 0 -15 -4 -15 -10 0 -5 -11 -10 -25 -10
-16 0 -25 -6 -25 -15 0 -9 -9 -15 -25 -15 -16 0 -25 -6 -25 -15 0 -11 -11 -15
-40 -15 -22 0 -40 -4 -40 -10 0 -5 -18 -10 -40 -10 -29 0 -40 -4 -40 -15 0
-12 -13 -15 -60 -15 -33 0 -60 -4 -60 -10 0 -6 -45 -10 -115 -10 -70 0 -115 4
-115 10 0 6 -13 10 -30 10 -25 0 -30 4 -30 25 0 16 6 25 15 25 8 0 15 7 15 15
0 8 7 15 15 15 8 0 15 5 15 11 0 14 25 39 39 39 6 0 11 5 11 11 0 14 25 39 39
39 6 0 11 7 11 15 0 8 5 15 10 15 6 0 10 11 10 25 0 14 5 25 11 25 14 0 39 25
39 39 0 6 7 11 15 11 8 0 15 7 15 15 0 8 7 15 15 15 8 0 15 5 15 10 0 6 11 10
25 10 16 0 25 6 25 15 0 9 9 15 25 15 16 0 25 -6 25 -15z m330 -25 c0 -5 -4
-10 -10 -10 -5 0 -10 5 -10 10 0 6 5 10 10 10 6 0 10 -4 10 -10z m-660 -25 c0
-8 5 -15 10 -15 6 0 10 -32 10 -75 0 -73 -1 -75 -25 -75 -20 0 -25 -5 -25 -25
0 -20 -5 -25 -25 -25 -23 0 -25 3 -25 50 0 28 5 50 10 50 6 0 10 23 10 50 0
38 4 50 15 50 8 0 15 7 15 15 0 8 7 15 15 15 8 0 15 -7 15 -15z m1430 0 c0 -8
-7 -15 -15 -15 -8 0 -15 -5 -15 -11 0 -14 -25 -39 -39 -39 -6 0 -11 -5 -11
-11 0 -24 -30 -39 -79 -39 -48 0 -51 2 -51 25 0 21 5 25 30 25 17 0 30 5 30
10 0 6 11 10 25 10 16 0 25 6 25 15 0 9 9 15 25 15 16 0 25 6 25 15 0 9 9 15
25 15 16 0 25 -6 25 -15z m-3020 -30 c0 -11 -11 -15 -40 -15 -29 0 -40 4 -40
15 0 11 11 15 40 15 29 0 40 -4 40 -15z m3200 0 c0 -8 -5 -15 -11 -15 -14 0
-39 -25 -39 -39 0 -6 -7 -11 -15 -11 -8 0 -15 -4 -15 -10 0 -6 -32 -10 -75
-10 -43 0 -75 4 -75 10 0 6 11 10 25 10 14 0 25 5 25 11 0 19 28 39 54 39 16
0 26 6 26 15 0 11 12 15 50 15 38 0 50 -4 50 -15z m180 0 c0 -8 -7 -15 -15
-15 -8 0 -15 -4 -15 -10 0 -5 -11 -10 -25 -10 -14 0 -25 -5 -25 -11 0 -24 -30
-39 -79 -39 -28 0 -51 5 -51 10 0 6 7 10 15 10 8 0 15 7 15 15 0 9 9 15 25 15
14 0 25 5 25 10 0 6 11 10 25 10 16 0 25 6 25 15 0 11 11 15 40 15 29 0 40 -4
40 -15z m230 0 c0 -8 -7 -15 -15 -15 -8 0 -15 -4 -15 -10 0 -5 -16 -10 -35
-10 -24 0 -35 -5 -35 -15 0 -8 -7 -15 -15 -15 -8 0 -15 -4 -15 -10 0 -6 -28
-10 -65 -10 -37 0 -65 4 -65 10 0 6 11 10 25 10 16 0 25 6 25 15 0 9 9 15 25
15 14 0 25 5 25 10 0 6 18 10 40 10 29 0 40 4 40 15 0 11 11 15 40 15 29 0 40
-4 40 -15z m-2130 -115 c0 -82 3 -100 15 -100 8 0 15 -7 15 -15 0 -8 -5 -15
-11 -15 -14 0 -39 -25 -39 -39 0 -6 -7 -11 -15 -11 -8 0 -15 -4 -15 -10 0 -5
-11 -10 -25 -10 -14 0 -25 5 -25 10 0 6 7 10 15 10 12 0 15 19 15 115 0 70 4
115 10 115 6 0 10 7 10 15 0 8 7 15 15 15 8 0 15 5 15 10 0 6 5 10 10 10 6 0
10 -40 10 -100z m2280 90 c0 -5 -4 -10 -10 -10 -5 0 -10 -7 -10 -15 0 -10 -10
-15 -30 -15 -16 0 -30 -4 -30 -10 0 -5 -22 -10 -50 -10 -27 0 -50 5 -50 10 0
6 11 10 25 10 16 0 25 6 25 15 0 11 11 15 40 15 22 0 40 5 40 10 0 6 11 10 25
10 14 0 25 -4 25 -10z m180 0 c0 -5 -4 -10 -10 -10 -5 0 -10 -7 -10 -15 0 -10
-10 -15 -30 -15 -16 0 -30 -4 -30 -10 0 -5 -11 -10 -25 -10 -16 0 -25 -6 -25
-15 0 -10 -11 -15 -35 -15 -19 0 -35 5 -35 11 0 17 27 39 49 39 12 0 21 6 21
15 0 12 13 15 55 15 30 0 55 5 55 10 0 6 5 10 10 10 6 0 10 -4 10 -10z m210
-25 c0 -8 -7 -15 -15 -15 -8 0 -15 -4 -15 -10 0 -5 -11 -10 -25 -10 -16 0 -25
-6 -25 -15 0 -8 -7 -15 -15 -15 -8 0 -15 -4 -15 -10 0 -6 -27 -10 -60 -10 -57
0 -60 1 -60 25 0 20 5 25 25 25 14 0 25 5 25 10 0 6 11 10 25 10 16 0 25 6 25
15 0 12 14 15 65 15 51 0 65 -3 65 -15z m300 0 c0 -9 -9 -15 -25 -15 -14 0
-25 -4 -25 -10 0 -5 -11 -10 -25 -10 -16 0 -25 -6 -25 -15 0 -8 -7 -15 -15
-15 -8 0 -15 -4 -15 -10 0 -6 -40 -10 -100 -10 -60 0 -100 4 -100 10 0 6 7 10
15 10 8 0 15 7 15 15 0 9 9 15 25 15 14 0 25 5 25 10 0 6 11 10 25 10 16 0 25
6 25 15 0 12 18 15 100 15 82 0 100 -3 100 -15z m230 4 c0 -14 -25 -39 -39
-39 -6 0 -11 -7 -11 -15 0 -9 -9 -15 -25 -15 -14 0 -25 -4 -25 -10 0 -5 -11
-10 -25 -10 -16 0 -25 -6 -25 -15 0 -12 -15 -15 -75 -15 -47 0 -75 4 -75 11 0
17 27 39 49 39 12 0 21 6 21 15 0 11 11 15 40 15 22 0 40 5 40 10 0 6 7 10 15
10 8 0 15 7 15 15 0 12 13 15 60 15 36 0 60 -4 60 -11z m-3320 -234 l0 -115
-26 0 c-26 0 -54 -20 -54 -39 0 -6 -7 -11 -15 -11 -8 0 -15 -4 -15 -10 0 -5
-4 -10 -10 -10 -5 0 -10 16 -10 35 0 19 5 35 10 35 6 0 10 18 10 40 0 29 4 40
15 40 9 0 15 9 15 25 0 14 5 25 10 25 6 0 10 18 10 40 0 29 4 40 15 40 8 0 15
5 15 10 0 6 7 10 15 10 12 0 15 -19 15 -115z m-130 -40 c0 -16 -6 -25 -15 -25
-10 0 -15 -11 -15 -35 0 -19 -4 -35 -10 -35 -14 0 -12 -27 3 -34 10 -5 10 -7
0 -12 -7 -3 -13 -12 -13 -20 0 -8 -7 -14 -15 -14 -8 0 -15 -7 -15 -15 0 -11
-11 -15 -40 -15 -22 0 -40 -4 -40 -10 0 -5 -4 -10 -10 -10 -5 0 -10 11 -10 25
0 14 5 25 10 25 6 0 10 11 10 25 0 16 6 25 15 25 9 0 15 9 15 25 0 14 5 25 10
25 6 0 10 7 10 15 0 8 7 15 15 15 9 0 15 9 15 25 0 16 6 25 15 25 8 0 15 5 15
10 0 6 11 10 25 10 20 0 25 -5 25 -25z m-160 -50 c0 -14 -4 -25 -10 -25 -5 0
-10 -11 -10 -25 0 -16 -6 -25 -15 -25 -11 0 -15 -11 -15 -40 0 -22 -4 -40 -10
-40 -5 0 -10 -11 -10 -25 0 -16 -6 -25 -15 -25 -8 0 -15 -4 -15 -10 0 -5 -18
-10 -40 -10 -29 0 -40 -4 -40 -15 0 -8 -4 -15 -10 -15 -5 0 -10 7 -10 15 0 8
5 15 10 15 6 0 10 11 10 25 0 16 6 25 15 25 8 0 15 5 15 10 0 6 7 10 15 10 8
0 15 7 15 15 0 8 5 15 10 15 6 0 10 11 10 25 0 20 5 25 25 25 20 0 25 5 25 25
0 16 6 25 15 25 9 0 15 9 15 25 0 14 5 25 10 25 6 0 10 -11 10 -25z m-100 -35
c0 -5 -4 -10 -10 -10 -5 0 -10 -7 -10 -15 0 -8 -7 -15 -15 -15 -9 0 -15 -9
-15 -25 0 -16 -6 -25 -15 -25 -8 0 -15 -5 -15 -11 0 -14 -25 -39 -39 -39 -6 0
-11 -11 -11 -25 0 -14 -4 -25 -10 -25 -5 0 -10 -7 -10 -15 0 -8 -6 -15 -14
-15 -8 0 -17 -6 -20 -12 -5 -10 -7 -10 -12 0 -3 6 -17 12 -30 12 -13 0 -24 5
-24 11 0 14 25 39 39 39 6 0 11 5 11 11 0 14 25 39 39 39 6 0 11 7 11 15 0 8
5 15 10 15 6 0 10 7 10 15 0 8 5 15 11 15 17 0 39 27 39 49 0 18 6 21 40 21
22 0 40 -4 40 -10z m-250 -25 c0 -8 -7 -15 -15 -15 -8 0 -15 -4 -15 -10 0 -5
-11 -10 -25 -10 -16 0 -25 -6 -25 -15 0 -8 -7 -15 -15 -15 -8 0 -15 -7 -15
-15 0 -9 -9 -15 -25 -15 -21 0 -25 5 -25 30 0 25 4 30 25 30 14 0 25 5 25 10
0 6 11 10 25 10 16 0 25 6 25 15 0 10 10 15 30 15 20 0 30 -5 30 -15z m100 0
c0 -8 -6 -15 -14 -15 -8 0 -17 -6 -20 -12 -5 -10 -7 -10 -12 0 -3 6 -12 12
-20 12 -8 0 -14 7 -14 15 0 11 11 15 40 15 29 0 40 -4 40 -15z m-50 -50 c0 -8
-7 -15 -15 -15 -8 0 -15 -5 -15 -11 0 -14 -25 -39 -39 -39 -6 0 -11 -11 -11
-25 0 -16 -6 -25 -15 -25 -8 0 -15 -7 -15 -15 0 -8 -4 -15 -10 -15 -5 0 -10 7
-10 15 0 8 -7 15 -15 15 -8 0 -15 5 -15 10 0 6 7 10 15 10 8 0 15 5 15 11 0
14 25 39 39 39 6 0 11 7 11 15 0 9 9 15 25 15 16 0 25 6 25 15 0 8 7 15 15 15
8 0 15 -7 15 -15z"/>
</g>
</svg>
