<?xml version="1.0" standalone="no"?>
<!DOCTYPE svg PUBLIC "-//W3C//DTD SVG 20010904//EN"
 "http://www.w3.org/TR/2001/REC-SVG-20010904/DTD/svg10.dtd">
<svg version="1.0" xmlns="http://www.w3.org/2000/svg"
 width="432pt" height="648pt" viewBox="0 0 432 648"
 preserveAspectRatio="xMidYMid meet">
<metadata>
Created by potrace 1.8, written by Peter Selinger 2001-2007
</metadata>
<g transform="translate(0,648) scale(0.114286,-0.114286)"
fill="#000000" stroke="none">
<path d="M134 5518 c-3 -4 11 -7 30 -6 19 1 33 5 30 9 -6 10 -54 8 -60 -3z"/>
<path d="M240 5521 c0 -5 9 -7 20 -4 11 3 20 7 20 9 0 2 -9 4 -20 4 -11 0 -20
-4 -20 -9z"/>
<path d="M310 5520 c-12 -8 -12 -10 5 -10 11 0 27 5 35 10 12 8 12 10 -5 10
-11 0 -27 -5 -35 -10z"/>
<path d="M390 5521 c0 -4 11 -6 25 -3 14 2 25 6 25 8 0 2 -11 4 -25 4 -14 0
-25 -4 -25 -9z"/>
<path d="M470 5520 c0 -5 7 -7 15 -4 8 4 15 8 15 10 0 2 -7 4 -15 4 -8 0 -15
-4 -15 -10z"/>
<path d="M510 5520 c0 -12 8 -12 35 0 18 8 17 9 -7 9 -16 1 -28 -3 -28 -9z"/>
<path d="M720 5520 c0 -5 5 -10 10 -10 6 0 10 5 10 10 0 6 -4 10 -10 10 -5 0
-10 -4 -10 -10z"/>
<path d="M830 5526 c0 -2 9 -6 20 -9 11 -3 18 -1 14 4 -5 9 -34 13 -34 5z"/>
<path d="M929 5517 c5 -5 28 -7 52 -5 l44 3 -52 5 c-29 3 -48 1 -44 -3z"/>
<path d="M1300 5519 c-41 -3 60 -6 224 -7 165 -1 296 1 293 5 -9 8 -414 10
-517 2z"/>
<path d="M1840 5516 c0 -7 -6 -19 -13 -25 -8 -6 -13 -24 -12 -41 1 -16 2 -46
3 -65 2 -41 21 -39 40 4 12 27 14 100 4 129 -6 16 -22 15 -22 -2z m12 -78 c-9
-9 -12 -7 -12 12 0 19 3 21 12 12 9 -9 9 -15 0 -24z"/>
<path d="M1900 5519 c-14 -4 138 -5 338 -3 219 3 362 2 362 -4 0 -11 -38 -59
-92 -117 -21 -22 -38 -48 -38 -58 0 -10 -4 -16 -9 -12 -5 3 -22 -7 -36 -21
-19 -19 -23 -29 -15 -34 8 -5 9 -10 2 -14 -6 -4 -9 -13 -5 -21 8 -22 -6 -67
-18 -59 -6 3 -9 22 -7 42 3 41 -14 52 -46 29 -15 -11 -17 -20 -9 -57 7 -35 14
-45 32 -50 18 -4 27 -17 37 -50 16 -54 17 -70 4 -70 -5 0 -10 6 -10 14 0 7 -7
31 -16 52 -15 36 -17 37 -25 17 -9 -24 -5 -179 6 -229 4 -19 3 -34 -4 -38 -21
-13 -11 -26 14 -20 14 3 31 2 38 -4 13 -11 67 -5 67 8 0 4 -6 10 -13 13 -18 7
-31 175 -16 194 7 8 8 27 4 50 -4 21 -8 72 -9 113 -1 67 2 79 26 111 16 20 25
39 20 44 -4 5 -2 5 5 1 7 -4 19 6 30 24 11 19 24 29 34 27 12 -3 15 1 12 17
-3 13 4 32 17 46 l21 25 -4 -50 c-3 -27 -10 -51 -16 -53 -14 -5 -15 -42 -1
-42 6 0 10 4 10 10 0 5 8 19 18 30 12 15 17 38 17 78 l0 57 498 -1 c299 -1
497 2 497 7 0 12 -1684 10 -1720 -2z m499 -536 c0 -25 -1 -26 -10 -8 -7 17 -8
16 -7 -10 1 -37 -11 -67 -24 -59 -5 3 -6 13 -2 23 3 9 6 31 5 49 -1 26 2 32
19 32 15 0 20 -6 19 -27z m18 -10 c-3 -10 -5 -4 -5 12 0 17 2 24 5 18 2 -7 2
-21 0 -30z m8 -75 c1 -30 -3 -38 -17 -38 -24 0 -33 25 -20 54 16 36 37 28 37
-16z"/>
<path d="M1063 5513 l37 -4 0 -52 c0 -37 5 -57 18 -68 9 -9 22 -25 29 -35 11
-17 12 -16 13 11 0 17 5 37 10 45 11 16 11 17 89 -80 59 -73 60 -78 57 -283
-2 -150 -5 -190 -16 -197 -25 -15 -3 -23 31 -11 21 7 36 8 44 1 6 -5 21 -7 33
-3 18 4 20 8 11 19 -7 8 -9 27 -5 45 3 18 1 49 -5 70 -7 22 -8 45 -3 56 4 10
9 54 10 98 1 44 3 91 5 105 3 20 -1 26 -18 28 -14 2 -24 -2 -24 -10 -1 -7 -3
-20 -4 -28 -1 -8 -3 -25 -4 -38 0 -13 -5 -20 -11 -17 -15 9 -13 102 3 108 10
4 10 6 0 6 -7 1 -13 12 -13 26 0 19 5 25 21 25 17 0 20 -5 17 -25 -6 -31 5
-33 18 -2 13 27 7 54 -12 61 -24 9 -42 -4 -56 -40 l-14 -34 -34 45 c-18 25
-37 45 -42 45 -5 0 -13 11 -18 25 -5 14 -15 25 -23 25 -7 0 -30 18 -51 39
l-39 40 54 4 c30 2 9 3 -46 3 -55 1 -83 -1 -62 -3z m85 -55 c7 -7 12 -21 12
-32 -1 -20 -1 -20 -20 3 -29 34 -22 59 8 29z m112 -103 c7 -9 8 -15 2 -15 -5
0 -12 7 -16 15 -3 8 -4 15 -2 15 2 0 9 -7 16 -15z m125 -232 c-3 -16 -9 -43
-12 -61 -3 -18 -9 -35 -14 -38 -12 -7 -11 -34 1 -34 6 0 10 9 10 19 0 37 18
31 23 -7 3 -20 8 -48 12 -62 5 -20 1 -27 -21 -37 -29 -14 -44 -9 -44 12 0 7
-5 15 -10 17 -6 2 -8 21 -4 50 4 26 11 45 16 42 5 -3 8 0 7 7 -2 8 0 38 4 67
6 38 12 52 24 52 12 0 14 -6 8 -27z m-35 -259 c0 -8 -4 -12 -10 -9 -5 3 -10
13 -10 21 0 8 5 12 10 9 6 -3 10 -13 10 -21z"/>
<path d="M1340 4971 c0 -7 8 -21 18 -32 18 -19 19 -19 19 13 0 18 -2 27 -5 20
-3 -10 -7 -10 -18 -1 -11 9 -14 9 -14 0z"/>
<path d="M842 5368 c-18 -18 -14 -30 7 -23 13 4 24 -1 35 -17 l16 -22 0 26 c0
17 -8 31 -19 38 -24 13 -24 13 -39 -2z"/>
<path d="M347 5352 c-20 -22 -21 -33 -4 -56 12 -16 13 -15 12 11 0 21 5 28 20
28 15 0 19 -6 18 -23 -2 -13 1 -21 7 -17 14 9 13 48 -2 63 -17 17 -32 15 -51
-6z"/>
<path d="M3348 5359 c-21 -12 -24 -59 -6 -77 7 -7 20 -12 31 -12 11 0 17 -5
14 -12 -2 -7 0 -23 4 -35 10 -28 -3 -73 -16 -53 -4 7 -8 28 -7 46 2 40 -21 62
-43 44 -18 -15 -19 -33 -3 -77 7 -20 19 -33 30 -33 9 0 21 -8 26 -17 15 -28
24 -93 14 -93 -6 0 -13 15 -16 33 -3 19 -13 42 -20 53 -13 17 -15 15 -21 -28
-10 -63 -4 -84 22 -81 23 3 40 -27 28 -47 -10 -16 -25 -12 -26 8 0 13 -3 12
-11 -6 -8 -16 -8 -36 -1 -69 8 -34 8 -51 0 -64 -15 -24 -2 -35 25 -22 16 7 28
7 39 0 9 -6 24 -7 33 -4 16 6 16 9 2 28 -8 12 -12 28 -9 35 3 8 -1 14 -11 14
-11 0 -16 9 -16 31 0 17 4 28 10 24 6 -3 10 -16 10 -28 0 -16 3 -18 12 -9 8 8
8 15 -2 27 -9 10 -11 32 -7 68 4 30 1 76 -6 107 -7 30 -11 63 -9 73 4 21 25
22 42 2 7 -8 21 -15 32 -15 16 0 12 8 -24 50 -24 27 -48 49 -54 50 -8 0 -9 13
-4 39 5 31 3 40 -11 50 -22 13 -29 13 -51 0z m36 -35 c18 -7 21 -30 6 -39 -5
-3 -18 0 -29 7 -15 9 -17 15 -9 25 12 15 11 15 32 7z m34 -334 c0 -16 -4 -30
-9 -30 -5 0 -9 14 -9 30 0 17 4 30 8 30 5 0 9 -13 10 -30z m-18 -62 c0 -13 3
-33 6 -45 5 -18 2 -23 -14 -23 -15 0 -21 6 -20 23 0 39 8 67 18 67 6 0 10 -10
10 -22z"/>
<path d="M1842 5335 c-11 -13 -22 -21 -26 -18 -10 11 -7 -7 7 -30 7 -13 13
-65 14 -127 3 -129 12 -212 24 -205 4 3 15 -8 24 -25 15 -30 15 -30 -10 -30
-19 0 -25 5 -26 23 -1 15 -3 17 -6 5 -2 -9 3 -30 11 -46 15 -30 15 -30 -17
-36 -24 -5 -29 -9 -17 -16 8 -5 18 -6 23 -3 5 3 37 5 71 5 46 -1 57 1 43 9
-13 8 -17 22 -16 58 1 26 -3 56 -9 67 -6 10 -12 15 -12 10 0 -21 -30 19 -30
41 0 20 4 24 20 20 18 -5 20 0 20 36 0 23 -4 48 -9 55 -13 21 -34 -12 -36 -55
0 -20 -6 -38 -13 -41 -14 -4 -14 -2 -2 58 8 41 1 125 -16 217 -5 29 -4 31 15
26 31 -8 35 -22 15 -44 -16 -18 -16 -19 -1 -13 10 3 17 1 17 -5 0 -6 -5 -11
-10 -11 -13 0 -3 -68 13 -87 16 -22 24 -15 31 29 6 34 3 45 -13 61 -16 16 -17
24 -9 43 23 49 -35 74 -70 29z m55 -387 c-3 -7 -5 -2 -5 12 0 14 2 19 5 13 2
-7 2 -19 0 -25z m33 -39 c0 -31 -4 -48 -10 -44 -5 3 -10 26 -10 51 0 24 5 44
10 44 6 0 10 -23 10 -51z"/>
<path d="M2351 5346 c-13 -15 -1 -59 19 -71 9 -6 9 -2 0 15 -6 12 -9 24 -6 28
12 11 41 11 48 -1 5 -8 8 -4 8 9 0 33 -47 46 -69 20z"/>
<path d="M2847 5353 c-18 -18 -5 -33 29 -33 30 0 35 -3 29 -17 -9 -23 -12 -46
-14 -112 -1 -72 -25 -54 -25 19 0 46 -2 51 -20 48 -18 -3 -21 -10 -22 -53 -1
-62 4 -75 22 -68 9 3 19 -7 29 -31 17 -40 20 -111 5 -101 -5 3 -10 -3 -10 -14
0 -11 -4 -23 -10 -26 -6 -4 -10 7 -10 24 0 17 5 31 10 31 6 0 10 9 10 19 0 11
-4 23 -10 26 -5 3 -10 17 -10 31 0 13 -5 24 -10 24 -7 0 -10 -34 -9 -87 0 -49
0 -95 -1 -103 0 -8 2 -28 6 -43 5 -20 1 -33 -12 -48 -16 -17 -16 -22 -4 -29
24 -16 40 -11 49 12 8 22 8 22 26 -5 10 -15 15 -30 13 -33 -7 -7 -248 -7 -255
0 -3 3 0 13 7 22 11 13 11 17 1 24 -10 6 -9 10 5 19 17 10 17 11 -6 9 -22 -3
-25 -7 -22 -40 l4 -38 -44 0 c-257 0 -1173 -12 -1177 -16 -2 -2 156 -4 353 -4
l357 0 -33 -40 c-18 -22 -41 -42 -50 -46 -10 -3 -18 -11 -18 -19 0 -8 -9 -17
-20 -20 -11 -3 -20 -10 -20 -15 0 -14 -71 -80 -80 -75 -5 3 -11 1 -15 -5 -3
-5 -1 -10 5 -10 7 0 8 -5 3 -12 -4 -7 -8 -30 -9 -50 -1 -66 -23 -67 -27 -2 -4
52 -29 56 -73 12 -18 -18 -34 -37 -34 -42 0 -5 -8 -18 -17 -29 -10 -12 -12
-17 -4 -12 9 5 12 4 10 -4 -3 -7 -9 -13 -14 -14 -14 -1 -45 -42 -45 -58 0 -7
-12 -25 -26 -40 -23 -25 -25 -31 -18 -88 l7 -61 22 30 23 31 -24 26 c-28 30
-29 36 -9 53 12 10 16 8 23 -11 21 -56 20 -55 21 -36 1 10 -4 28 -10 39 -9 17
-5 30 30 79 23 32 41 62 41 66 0 4 14 21 31 38 24 23 32 27 39 15 8 -13 5 -94
-5 -110 -3 -4 -6 -52 -9 -106 -2 -55 0 -86 4 -69 4 17 8 44 9 62 3 76 43 28
43 -52 1 -33 2 -35 8 -15 4 14 5 42 2 63 -4 32 -2 37 16 37 21 0 21 4 19 121
-2 110 0 122 18 138 11 9 33 32 50 50 23 25 26 31 10 25 -18 -7 -18 -6 -6 9 7
9 17 15 21 12 4 -2 15 4 25 15 10 11 22 17 26 14 5 -3 9 3 9 14 0 10 10 27 21
38 22 19 22 19 14 -6 -4 -14 -13 -35 -21 -47 -23 -37 -16 -45 17 -21 28 21 30
27 26 65 -2 22 -2 46 2 51 4 6 274 11 748 13 409 2 743 7 743 12 0 4 -98 7
-219 7 -210 0 -219 1 -224 20 -3 11 -12 20 -21 20 -10 0 -13 -6 -10 -15 4 -8
1 -15 -5 -15 -6 0 -11 14 -11 30 0 20 5 30 15 30 8 0 15 5 15 10 0 6 -7 10
-15 10 -20 0 -38 -37 -31 -66 l6 -24 -105 0 c-65 0 -105 4 -105 10 0 6 7 13
15 16 10 4 12 11 7 18 -18 24 -33 140 -22 176 6 21 8 73 4 131 -4 62 -3 98 4
103 25 15 162 23 183 10 6 -3 15 -2 22 3 11 9 57 16 57 9 0 -2 -7 -17 -15 -33
-20 -40 -43 -49 -47 -20 -3 17 -5 15 -9 -10 -5 -32 -5 -33 32 -33 34 0 37 3
42 33 3 17 8 42 12 55 7 21 4 22 -46 24 -30 1 -98 1 -153 -1 l-99 -3 6 24 c11
41 -2 68 -32 68 -15 0 -31 -3 -34 -7z m39 -400 c-10 -10 -19 5 -10 18 6 11 8
11 12 0 2 -7 1 -15 -2 -18z m-22 -26 c0 -9 -1 -36 -2 -59 -3 -55 -8 -46 -17
26 -5 46 -4 57 7 54 7 -3 13 -12 12 -21z m50 -39 c5 -29 4 -38 -7 -38 -16 0
-32 63 -21 81 9 16 21 -1 28 -43z"/>
<path d="M825 5308 c5 -27 4 -28 -35 -28 -22 0 -40 -4 -40 -10 0 -5 11 -10 25
-10 32 0 38 -23 33 -132 -3 -80 -2 -83 20 -86 20 -3 22 1 22 37 0 51 18 91 41
91 27 0 38 79 13 97 -12 9 -21 10 -28 3 -16 -16 -49 -12 -42 5 3 8 1 25 -5 37
-9 21 -9 21 -4 -4z m34 -112 c-14 -49 -22 -41 -13 13 4 23 11 38 15 34 5 -5 4
-26 -2 -47z"/>
<path d="M2850 5290 c6 -11 16 -20 22 -20 6 0 3 9 -7 20 -10 11 -20 20 -22 20
-2 0 1 -9 7 -20z"/>
<path d="M581 5273 c-49 -4 -53 -6 -46 -26 4 -12 9 -34 12 -49 5 -24 8 -26 47
-23 34 3 40 7 37 22 -12 54 -9 58 47 61 28 2 52 7 52 13 0 9 -38 9 -149 2z
m31 -43 c5 -34 2 -36 -24 -13 -23 21 -23 43 1 43 13 0 20 -9 23 -30z"/>
<path d="M302 5231 c-18 -22 -32 -43 -32 -48 -1 -4 -14 -24 -30 -43 -17 -19
-30 -40 -30 -48 0 -7 -14 -31 -32 -53 -30 -37 -31 -42 -20 -72 7 -19 12 -41
12 -51 0 -12 9 -8 35 19 29 28 34 39 26 53 -9 15 -10 15 -11 -5 0 -20 -2 -21
-25 -11 -28 13 -33 39 -9 59 13 10 17 10 26 -2 8 -11 9 -10 4 5 -8 22 92 178
107 169 5 -3 6 -36 3 -72 -6 -59 -4 -71 14 -93 20 -27 27 -54 11 -44 -15 10
-19 -18 -4 -32 20 -20 16 -42 -8 -42 -16 0 -19 4 -14 23 5 20 5 20 -6 3 -9
-15 -8 -26 6 -54 15 -33 15 -37 1 -48 -21 -15 -20 -24 4 -24 21 0 39 26 41 62
1 13 5 5 8 -16 3 -22 11 -41 17 -43 16 -5 21 70 14 207 -3 63 -2 139 3 169 5
33 4 58 -2 64 -18 18 -31 -4 -31 -51 0 -35 -3 -43 -12 -34 -6 6 -12 28 -12 48
-1 21 -6 39 -12 41 -6 2 -25 -14 -42 -36z m88 -80 c0 -5 -7 -22 -15 -37 -8
-16 -15 -38 -15 -48 0 -13 -3 -16 -9 -10 -11 10 16 104 30 104 5 0 9 -4 9 -9z
m12 -173 c3 -35 1 -74 -3 -88 -7 -23 -7 -22 -8 10 -1 19 -4 59 -7 88 -4 33 -3
52 3 52 6 0 13 -28 15 -62z m-27 -18 c3 -5 1 -10 -4 -10 -6 0 -11 5 -11 10 0
6 2 10 4 10 3 0 8 -4 11 -10z"/>
<path d="M3500 5160 c-10 -6 -11 -10 -2 -10 6 0 12 -6 12 -12 0 -7 12 -24 26
-38 23 -21 25 -29 20 -72 -6 -46 -5 -51 29 -86 l35 -37 0 35 c0 19 3 45 6 56
4 16 -4 33 -30 62 -20 22 -36 46 -36 53 -1 13 -33 59 -42 59 -1 0 -10 -5 -18
-10z m100 -125 c17 -20 5 -45 -21 -45 -15 0 -19 4 -15 16 3 9 6 22 6 30 0 18
14 18 30 -1z"/>
<path d="M883 5118 c-6 -7 -13 -29 -17 -50 -6 -33 -5 -36 14 -31 16 4 20 14
20 49 0 47 -2 51 -17 32z"/>
<path d="M880 5000 l-2 -35 -7 30 -7 30 -17 -30 -16 -30 -1 28 c0 15 -4 27
-10 27 -6 0 -8 -33 -6 -85 2 -47 0 -88 -5 -91 -20 -12 -7 -22 20 -14 15 4 39
6 52 3 24 -4 24 -3 22 59 -2 35 -7 81 -12 103 l-9 40 -2 -35z m-41 -52 c0 -7
-4 -22 -9 -33 -7 -17 -9 -15 -9 13 -1 17 4 32 9 32 6 0 10 -6 9 -12z m51 -15
c0 -22 -2 -25 -10 -13 -13 20 -13 40 0 40 6 0 10 -12 10 -27z m-20 -20 c0 -7
-4 -13 -10 -13 -5 0 -10 12 -10 28 0 21 2 24 10 12 5 -8 10 -21 10 -27z m-20
-59 c0 -8 -4 -12 -10 -9 -5 3 -10 10 -10 16 0 5 5 9 10 9 6 0 10 -7 10 -16z"/>
<path d="M147 4874 c-4 -4 -7 -23 -7 -42 0 -30 2 -33 16 -21 13 10 17 10 25
-2 7 -10 9 -2 7 26 -3 38 -23 57 -41 39z m23 -26 c0 -16 -3 -19 -11 -11 -6 6
-8 16 -5 22 11 17 16 13 16 -11z"/>
<path d="M1127 4872 c-14 -3 -17 -12 -15 -40 2 -30 8 -38 26 -40 12 -2 22 1
22 7 0 6 -7 8 -15 5 -11 -5 -15 1 -15 24 0 17 6 32 13 35 18 6 5 14 -16 9z"/>
<path d="M628 4830 c4 -34 8 -40 27 -40 30 0 38 13 30 50 -5 24 -12 30 -34 30
-25 0 -26 -2 -23 -40z m42 -12 c0 -10 -4 -18 -9 -18 -5 0 -9 14 -9 31 1 32 18
20 18 -13z"/>
<path d="M1632 4830 c-2 -33 1 -40 17 -40 10 0 24 7 31 15 17 21 -2 65 -28 65
-15 0 -19 -8 -20 -40z m38 0 c0 -10 -4 -22 -10 -25 -6 -4 -10 7 -10 25 0 18 4
29 10 25 6 -3 10 -15 10 -25z"/>
<path d="M2140 4830 c0 -35 3 -40 23 -40 12 0 18 4 12 8 -16 12 -15 45 3 59
15 11 14 12 -10 13 -26 0 -28 -3 -28 -40z"/>
<path d="M150 4770 c-11 -7 2 -10 44 -10 33 0 57 3 54 6 -11 11 -83 14 -98 4z"/>
<path d="M270 4770 c-13 -8 -12 -10 3 -10 9 0 17 5 17 10 0 12 -1 12 -20 0z"/>
<path d="M313 4768 c-2 -5 232 -8 521 -8 488 0 551 -3 516 -25 -9 -6 -7 -26 7
-78 7 -26 24 -9 17 18 -7 27 3 65 17 65 5 0 9 -12 9 -27 0 -16 9 -43 20 -61
12 -19 16 -31 10 -27 -6 4 -10 -7 -10 -29 0 -19 -5 -38 -12 -42 -7 -5 -9 0 -6
14 8 30 -13 55 -43 50 -20 -2 -25 -9 -27 -42 -2 -21 0 -42 5 -47 4 -4 8 6 8
24 0 26 4 33 24 35 l24 4 -8 -84 c-8 -96 -20 -128 -30 -85 -4 15 -4 38 -1 51
3 14 2 27 -3 30 -11 7 -61 -32 -61 -48 0 -6 -18 -29 -39 -49 -22 -20 -42 -51
-46 -68 -5 -20 -11 -29 -21 -25 -9 3 -14 -1 -14 -13 0 -10 -9 -26 -21 -37 -31
-28 -42 -53 -31 -67 6 -7 14 -27 19 -45 l8 -32 29 37 c21 26 25 35 12 30 -21
-8 -56 9 -56 27 0 8 6 19 14 25 11 10 17 7 30 -11 18 -25 21 -17 5 13 -12 22
3 46 80 130 22 24 43 52 46 62 4 9 10 17 15 17 13 0 17 -69 5 -103 -6 -18 -11
-86 -10 -152 0 -95 -3 -123 -15 -132 -13 -10 -10 -12 18 -13 28 0 32 3 32 28
0 18 -3 23 -9 14 -6 -10 -10 -4 -15 18 -3 18 -6 39 -6 46 0 20 28 17 34 -3 3
-11 4 -7 3 7 -1 15 -8 25 -17 25 -11 0 -14 9 -12 35 2 19 6 37 8 40 3 2 25 3
50 2 l46 -2 -9 63 c-11 86 -7 172 12 209 23 48 19 103 -15 173 l-30 63 -187 1
c-104 1 -345 2 -536 4 -192 1 -351 -1 -354 -5z m942 -388 c-10 -11 -20 -18
-23 -15 -7 6 18 35 31 35 5 0 2 -9 -8 -20z"/>
<path d="M641 4715 c-18 -52 -13 -76 23 -111 l35 -34 3 32 c2 25 8 32 26 33
13 1 25 -2 28 -7 3 -4 -2 -8 -10 -8 -17 0 -17 -1 40 -64 29 -32 29 -32 4 -39
-11 -3 -20 -14 -20 -25 0 -11 -7 -25 -16 -32 -8 -8 -19 -21 -24 -31 -8 -14 -6
-16 10 -12 12 3 25 14 31 25 19 36 29 5 19 -57 -15 -89 -13 -97 13 -95 62 5
67 2 67 -40 0 -45 -17 -55 -22 -13 -4 39 -28 42 -28 4 0 -17 -4 -31 -10 -31
-5 0 -10 10 -10 22 0 12 -2 19 -6 16 -3 -3 -5 -41 -5 -84 0 -61 -4 -80 -17
-90 -16 -12 -15 -13 3 -14 34 0 42 13 50 74 5 41 10 55 16 45 7 -11 9 -10 9 4
0 10 5 17 11 15 6 -2 10 -7 10 -11 -1 -4 -2 -31 -2 -59 -2 -49 -2 -51 -9 -18
l-7 35 -2 -42 c-1 -41 0 -43 29 -43 31 0 41 14 16 23 -12 5 -14 30 -12 133 2
69 0 143 -5 163 -5 21 -4 53 3 78 8 34 7 46 -6 65 -9 13 -20 22 -24 20 -16 -7
-26 26 -12 42 18 23 34 15 40 -20 6 -29 6 -29 18 -7 10 18 10 27 0 43 -17 26
-55 26 -63 0 -8 -25 -17 -25 -38 -2 -10 9 -46 47 -81 83 l-63 65 -12 -31z m53
-24 c16 -17 16 -22 3 -47 -16 -30 -22 -25 -32 29 -8 41 2 48 29 18z m101 -111
c22 -23 25 -30 12 -30 -9 0 -23 14 -32 30 -9 17 -14 30 -12 30 2 0 16 -13 32
-30z m50 -80 c8 -14 -4 -70 -15 -70 -13 0 -22 37 -15 60 7 22 20 26 30 10z
m-8 -287 c-3 -10 -5 -2 -5 17 0 19 2 27 5 18 2 -10 2 -26 0 -35z m-18 -35 c0
-13 -4 -32 -9 -43 -7 -15 -9 -10 -9 23 -1 23 4 42 9 42 6 0 10 -10 9 -22z"/>
<path d="M2356 4619 c-3 -17 -2 -38 4 -47 8 -14 9 -12 10 11 0 22 4 27 26 27
21 0 25 -4 22 -22 -2 -12 -14 -28 -28 -36 l-25 -13 25 3 c14 2 31 14 39 29 13
24 13 29 -2 53 -25 38 -63 35 -71 -5z"/>
<path d="M2871 4621 c-15 -27 -14 -44 5 -67 15 -18 15 -18 5 3 -18 36 -14 46
17 38 15 -3 29 -11 30 -16 8 -22 20 4 13 29 -9 35 -54 43 -70 13z"/>
<path d="M1860 4620 c-11 -6 -15 -20 -12 -49 2 -23 7 -41 11 -41 4 0 6 14 3
30 -4 27 -1 30 21 30 16 0 27 -7 30 -17 4 -17 5 -16 12 1 6 14 2 24 -14 38
-26 20 -30 21 -51 8z"/>
<path d="M336 4605 c-4 -11 2 -15 24 -15 25 0 30 -4 30 -25 0 -14 -6 -25 -12
-25 -10 0 -10 -2 0 -9 9 -5 11 -17 6 -35 -9 -36 -28 -47 -22 -12 4 22 2 26
-18 26 -13 0 -24 4 -24 9 0 13 -53 23 -81 16 -22 -5 -24 -10 -21 -53 l4 -47
-32 30 c-19 18 -29 37 -26 47 2 11 -1 18 -10 18 -10 0 -14 -14 -14 -50 0 -49
1 -50 29 -50 16 0 36 -3 45 -6 13 -5 16 2 16 44 0 57 12 67 59 49 33 -12 39
-28 18 -49 -8 -7 -16 -18 -18 -23 -9 -22 -92 -162 -114 -193 l-24 -33 21 -45
c12 -24 24 -44 27 -44 13 0 42 79 38 101 -4 22 -4 22 -6 -4 -1 -25 -4 -27 -28
-21 -16 4 -29 8 -31 9 -7 6 23 45 34 45 6 0 11 6 11 13 0 7 17 37 39 67 21 30
33 51 26 47 -16 -11 -15 5 3 29 10 14 14 15 15 5 0 -11 4 -10 14 4 13 18 14
18 20 -3 4 -12 3 -29 -2 -39 -16 -30 -22 -87 -12 -103 6 -10 10 -11 10 -2 0 6
5 12 10 12 6 0 10 -11 10 -25 0 -14 4 -25 9 -25 5 0 12 -12 15 -26 5 -17 12
-24 21 -20 11 4 15 -3 15 -28 0 -19 -6 -37 -12 -39 -10 -4 -10 -8 1 -15 11 -8
11 -10 0 -14 -21 -7 0 -28 29 -28 23 1 25 2 9 11 -13 8 -17 23 -17 62 1 29 -3
70 -8 92 l-10 40 -1 -39 c-1 -49 -19 -37 -28 19 -6 35 -4 38 15 33 28 -8 30 2
24 95 -3 55 -1 85 9 103 12 23 11 28 -4 39 -13 9 -15 20 -11 45 5 22 3 35 -7
41 -22 14 -56 11 -63 -6z"/>
<path d="M340 4545 c0 -8 4 -15 10 -15 5 0 7 7 4 15 -4 8 -8 15 -10 15 -2 0
-4 -7 -4 -15z"/>
<path d="M2909 4543 c-13 -16 -12 -17 4 -4 16 13 21 21 13 21 -2 0 -10 -8 -17
-17z"/>
<path d="M2439 4536 c-20 -10 -24 -19 -21 -48 1 -19 -2 -48 -8 -64 -10 -27
-12 -27 -22 -10 -6 10 -7 36 -4 57 5 32 3 40 -14 49 -27 14 -54 5 -69 -23 -25
-46 -38 -67 -55 -86 -19 -20 -56 -90 -56 -104 0 -5 -9 -22 -21 -38 -20 -28
-20 -33 -7 -85 l13 -56 29 44 c25 38 27 47 17 74 -16 44 -15 49 24 110 19 30
35 59 35 64 0 6 6 10 13 10 8 0 19 11 25 25 6 14 16 25 21 25 12 0 24 -87 14
-102 -11 -19 -10 -199 2 -187 5 5 8 25 6 45 l-3 35 46 -3 c25 -2 46 -1 47 2 1
3 -2 46 -6 95 -4 56 -3 100 4 117 9 25 15 28 53 26 24 -1 43 3 46 10 2 7 15
12 28 12 27 0 48 -37 38 -65 -4 -8 -1 -15 5 -15 6 0 11 13 11 29 0 23 5 30 28
34 46 9 45 -7 -3 -52 -26 -24 -44 -45 -42 -47 2 -2 24 -1 49 2 l46 6 5 52 c3
28 4 52 3 53 0 1 -54 4 -119 7 -65 3 -122 8 -126 10 -4 3 -18 -1 -32 -8z
m-186 -152 c-9 -15 -19 -21 -21 -15 -4 13 16 41 29 41 5 0 2 -12 -8 -26z m-43
-140 c13 -34 13 -34 -14 -34 -28 0 -37 17 -24 43 12 24 27 21 38 -9z"/>
<path d="M2922 4522 c-7 -5 -10 -16 -6 -25 7 -20 -14 -77 -29 -77 -6 0 -8 19
-4 50 6 47 5 50 -17 50 -24 0 -56 -28 -56 -48 0 -7 -5 -12 -10 -12 -6 0 -14
-8 -17 -17 -4 -9 -13 -24 -20 -32 -23 -26 -63 -91 -63 -102 0 -6 -14 -28 -31
-49 -31 -39 -32 -40 -15 -74 21 -45 22 -98 1 -90 -12 5 -15 -2 -15 -30 l0 -36
-210 0 -210 0 -1 28 c0 15 -4 36 -8 47 -8 19 -8 19 -20 -4 -12 -22 -13 -22
-26 -4 -13 16 -14 14 -15 -24 l0 -43 -97 -1 c-54 -1 -165 -5 -248 -8 -88 -4
158 -8 593 -9 491 -1 742 2 742 8 0 7 -50 10 -132 9 -73 0 -174 0 -224 0 l-92
1 -5 48 c-3 35 0 54 14 74 21 30 25 78 8 95 -8 8 -6 19 5 41 8 16 12 32 9 36
-4 3 0 6 8 6 15 0 56 47 61 71 3 13 46 59 55 59 3 0 3 -29 0 -64 -3 -35 -3
-95 0 -133 5 -58 9 -69 24 -70 15 -1 19 5 18 25 -1 17 -3 21 -6 10 -8 -31 -23
-19 -23 18 0 28 3 35 15 30 8 -3 15 -1 15 3 0 5 9 7 20 4 16 -4 20 -14 20 -43
0 -24 -5 -40 -15 -44 -8 -3 -15 -11 -14 -18 0 -10 2 -10 6 0 2 6 11 12 19 12
10 0 14 -14 14 -55 0 -30 -4 -55 -10 -55 -16 0 -12 -20 5 -26 8 -4 22 -3 32 0
15 6 15 7 0 19 -13 10 -17 36 -21 132 -2 66 -8 150 -12 188 -4 37 -4 67 0 67
10 0 86 -74 86 -84 0 -5 -8 -2 -17 5 -10 7 -2 -5 17 -26 19 -22 39 -43 45 -47
6 -4 5 -19 -3 -41 -17 -48 -15 -75 7 -87 11 -5 23 -20 27 -32 8 -27 19 -10 28
48 7 37 3 47 -56 135 -75 113 -85 130 -93 149 -19 46 -31 55 -53 42z m-152
-137 c-7 -9 -15 -13 -18 -10 -3 2 1 11 8 20 7 9 15 13 18 10 3 -2 -1 -11 -8
-20z m335 -136 c5 -14 1 -25 -12 -34 -34 -26 -41 -17 -23 29 12 31 26 33 35 5z
m-395 -41 c0 -19 -16 -23 -39 -9 -13 8 -13 14 -2 38 12 27 13 27 27 8 8 -10
14 -27 14 -37z m-500 -170 c0 -5 -11 -8 -25 -8 -14 0 -25 5 -25 11 0 6 7 9 15
5 10 -3 15 1 15 12 0 15 2 15 10 2 5 -8 10 -18 10 -22z m463 12 c3 -13 0 -20
-9 -20 -8 0 -14 9 -14 20 0 11 4 20 9 20 5 0 11 -9 14 -20z"/>
<path d="M730 4380 c-6 -11 -8 -20 -6 -20 3 0 10 9 16 20 6 11 8 20 6 20 -3 0
-10 -9 -16 -20z"/>
<path d="M697 4383 c-4 -3 -7 -15 -7 -25 0 -10 -4 -18 -10 -18 -5 0 -10 -12
-10 -26 0 -14 -11 -40 -25 -58 -28 -36 -25 -61 11 -114 l22 -34 7 31 c3 17 11
33 16 36 14 9 11 49 -6 71 -20 26 -19 47 6 78 12 15 16 26 9 26 -7 0 -10 8 -7
20 5 21 4 24 -6 13z m-13 -145 c23 -32 20 -48 -8 -48 -30 0 -40 14 -32 46 8
30 20 31 40 2z"/>
<path d="M2902 4250 c0 -14 2 -19 5 -12 2 6 2 18 0 25 -3 6 -5 1 -5 -13z"/>
<path d="M321 4244 c0 -11 3 -14 6 -6 3 7 2 16 -1 19 -3 4 -6 -2 -5 -13z"/>
<path d="M1914 4214 c6 -67 -4 -140 -16 -122 -6 9 -8 6 -6 -11 2 -20 9 -24 36
-25 42 -1 51 11 18 24 -27 10 -33 36 -18 68 5 10 3 38 -5 67 l-13 50 4 -51z"/>
<path d="M1352 4225 c0 -16 2 -22 5 -12 2 9 2 23 0 30 -3 6 -5 -1 -5 -18z"/>
<path d="M1377 4156 c2 -49 6 -93 9 -98 3 -4 19 -8 36 -8 29 0 30 1 15 18 -18
20 -23 57 -8 66 5 4 5 18 -2 35 -7 20 -16 27 -28 24 -13 -4 -19 2 -22 24 -3
15 -3 -12 0 -61z m33 -26 c0 -27 -4 -50 -10 -50 -5 0 -10 8 -10 19 0 10 -3 33
-6 50 -5 24 -3 31 10 31 13 0 16 -11 16 -50z"/>
<path d="M1402 4230 c0 -14 2 -19 5 -12 2 6 2 18 0 25 -3 6 -5 1 -5 -13z"/>
<path d="M2400 4229 c0 -11 4 -18 10 -14 5 3 7 12 3 20 -7 21 -13 19 -13 -6z"/>
<path d="M2431 4234 c0 -11 3 -14 6 -6 3 7 2 16 -1 19 -3 4 -6 -2 -5 -13z"/>
<path d="M1863 4190 c0 -25 2 -35 4 -22 2 12 2 32 0 45 -2 12 -4 2 -4 -23z"/>
<path d="M2382 4210 c0 -14 2 -19 5 -12 2 6 2 18 0 25 -3 6 -5 1 -5 -13z"/>
<path d="M345 4151 c-4 -39 -10 -69 -14 -67 -4 3 -4 30 -1 60 3 31 2 56 -2 56
-4 0 -8 -23 -8 -50 0 -36 -4 -52 -15 -56 -25 -10 -17 -24 14 -24 28 0 29 1 35
71 4 39 5 73 3 76 -3 2 -8 -28 -12 -66z"/>
<path d="M2436 4202 c-4 -7 -12 -10 -17 -7 -5 4 -9 0 -9 -8 0 -8 6 -14 13 -13
17 2 20 -9 11 -57 -5 -34 -8 -38 -15 -22 -6 16 -8 14 -8 -12 -1 -31 1 -33 35
-33 21 0 33 4 29 10 -3 6 -13 10 -21 10 -12 0 -14 8 -9 36 3 20 7 40 10 44 2
3 1 20 -4 35 -5 19 -10 25 -15 17z"/>
<path d="M2844 4159 c18 -65 18 -79 2 -85 -26 -10 -18 -26 12 -22 26 3 27 5
28 68 l1 65 -6 -55 -6 -55 -8 47 c-5 26 -13 51 -19 54 -8 5 -9 -1 -4 -17z"/>
<path d="M2348 4165 c-3 -3 1 -22 8 -43 12 -34 11 -38 -7 -51 -27 -19 -24 -28
11 -23 24 3 30 9 30 29 0 13 -4 21 -10 18 -6 -3 -10 4 -11 17 -1 29 -13 61
-21 53z"/>
<path d="M1861 4135 c-2 -5 -3 -17 -2 -26 1 -8 -10 -21 -24 -29 -33 -18 -32
-32 3 -24 35 9 34 6 29 50 -2 22 -5 35 -6 29z"/>
<path d="M2911 4124 c0 -11 3 -14 6 -6 3 7 2 16 -1 19 -3 4 -6 -2 -5 -13z"/>
<path d="M1831 4114 c0 -11 3 -14 6 -6 3 7 2 16 -1 19 -3 4 -6 -2 -5 -13z"/>
<path d="M140 4105 c-2 -5 -3 -27 -4 -47 -1 -36 1 -38 29 -38 30 0 30 1 27 46
-2 25 -7 42 -11 39 -3 -4 -6 -12 -6 -17 0 -22 -24 -18 -28 4 -2 13 -6 19 -7
13z m26 -72 c-10 -10 -19 5 -10 18 6 11 8 11 12 0 2 -7 1 -15 -2 -18z"/>
<path d="M1151 4093 c-6 -10 -11 -12 -11 -5 0 6 -5 12 -11 12 -6 0 -10 -12 -9
-27 4 -50 2 -51 -52 -49 -29 1 -69 -1 -88 -5 -19 -3 117 -7 304 -8 314 -1 337
-2 325 -18 -8 -9 -13 -25 -11 -36 5 -28 -7 -69 -18 -62 -6 3 -10 20 -10 37 0
29 -1 30 -22 16 -12 -8 -25 -28 -29 -44 -8 -29 -8 -29 8 -6 17 24 33 29 33 10
0 -7 7 -22 15 -32 14 -19 15 -18 37 10 18 23 22 38 20 76 -3 34 0 48 9 48 7 0
9 3 6 6 -3 4 -108 7 -232 8 -188 1 -227 4 -235 16 -10 15 -14 35 -11 58 3 17
-6 15 -18 -5z m9 -53 c0 -11 -4 -20 -10 -20 -5 0 -10 9 -10 20 0 11 5 20 10
20 6 0 10 -9 10 -20z"/>
<path d="M1639 4073 c3 -20 11 -38 18 -40 8 -3 8 6 1 36 -13 51 -27 54 -19 4z"/>
<path d="M628 4066 c3 -27 0 -35 -15 -39 -12 -3 -8 -5 12 -7 17 -1 40 -4 53
-5 12 -1 22 2 22 6 0 5 -11 9 -25 9 -18 0 -26 7 -31 24 -3 14 -3 30 1 35 3 6
0 11 -7 11 -10 0 -13 -10 -10 -34z"/>
<path d="M211 4025 c8 -7 319 -10 319 -2 0 4 -73 7 -162 7 -89 0 -159 -2 -157
-5z"/>
<path d="M546 4021 c-3 -4 6 -6 19 -3 14 2 25 6 25 8 0 8 -39 4 -44 -5z"/>
<path d="M715 4020 c-3 -5 1 -10 9 -10 9 0 16 5 16 10 0 6 -4 10 -9 10 -6 0
-13 -4 -16 -10z"/>
<path d="M780 4020 c-12 -8 -11 -10 8 -10 12 0 22 5 22 10 0 13 -11 13 -30 0z"/>
<path d="M840 4020 c0 -5 5 -10 10 -10 6 0 10 5 10 10 0 6 -4 10 -10 10 -5 0
-10 -4 -10 -10z"/>
<path d="M892 3971 c0 -42 4 -61 14 -65 8 -3 14 0 14 6 0 9 3 9 12 0 7 -7 15
-12 18 -12 12 0 -3 75 -18 93 -8 9 -11 17 -6 17 10 0 -17 20 -27 20 -4 0 -7
-27 -7 -59z m25 -13 c-3 -8 -6 -5 -6 6 -1 11 2 17 5 13 3 -3 4 -12 1 -19z"/>
<path d="M161 3945 c-12 -33 -11 -36 16 -60 l28 -24 20 24 c25 30 41 32 50 6
3 -11 11 -18 18 -15 7 2 18 -5 25 -16 12 -20 5 -27 -13 -12 -6 4 -1 -3 10 -14
11 -12 23 -19 28 -17 4 2 7 -3 7 -11 0 -23 -4 -31 -13 -28 -14 4 -111 12 -147
12 -46 -1 -52 -9 -48 -61 3 -42 5 -44 36 -47 30 -3 33 -1 27 16 -3 11 -3 32 1
46 5 23 11 26 49 26 24 0 47 -5 50 -10 4 -6 11 -8 16 -5 5 4 8 -47 7 -129 -1
-75 1 -139 5 -142 4 -4 7 5 7 19 0 24 4 26 35 25 34 -1 35 -2 34 -42 0 -32 -2
-37 -9 -21 -8 18 -9 18 -9 -5 -1 -18 4 -26 17 -26 15 0 17 11 17 81 0 44 -4
97 -9 118 -6 27 -4 52 5 79 10 31 10 44 1 59 -10 16 -9 24 4 45 16 24 16 26
-2 44 -21 22 -64 17 -64 -6 0 -21 -3 -19 -60 38 -49 49 -53 51 -61 31 -14 -37
-29 -36 -45 2 -18 44 -12 55 16 30 11 -10 20 -15 20 -10 0 10 -32 34 -45 35
-6 0 -17 -16 -24 -35z m245 -110 c4 -8 3 -23 -1 -32 -8 -17 -8 -17 -12 0 -3 9
-9 17 -14 17 -5 0 -9 7 -9 15 0 8 7 15 15 15 9 0 18 -7 21 -15z m-214 -85 c-3
-31 -11 -38 -22 -20 -16 25 -12 52 8 48 11 -3 16 -12 14 -28z m198 -9 c0 -37
-10 -62 -21 -55 -10 6 -12 67 -2 77 14 15 23 6 23 -22z"/>
<path d="M843 3883 c-7 -2 -13 -9 -13 -14 0 -6 5 -7 10 -4 6 4 22 0 35 -9 32
-21 37 -20 33 6 -3 21 -37 33 -65 21z"/>
<path d="M1351 3881 c-10 -6 -12 -21 -9 -49 l6 -40 -57 -5 c-31 -2 -63 -1 -72
4 -8 4 -22 3 -30 -2 -7 -5 -38 -9 -68 -9 -50 0 -53 -1 -47 -22 3 -13 6 -37 6
-54 0 -30 1 -31 45 -31 l45 0 0 50 0 49 73 -7 c47 -4 76 -12 84 -22 9 -12 11
-47 7 -127 -6 -100 -5 -109 9 -92 13 18 16 19 31 4 11 -11 16 -34 16 -72 0
-79 19 -143 44 -150 27 -7 32 0 14 21 -14 16 -18 52 -20 171 0 12 -4 22 -8 22
-5 0 -7 -13 -5 -30 2 -16 0 -30 -5 -30 -6 0 -10 11 -10 24 0 13 -3 32 -6 41
-5 12 -2 16 12 13 17 -3 19 3 17 47 -9 181 -7 191 51 245 14 14 26 29 26 35 0
5 -5 4 -11 -2 -6 -6 -17 -9 -24 -7 -7 3 -21 -8 -31 -23 l-19 -28 -5 40 c-5 42
-28 56 -59 36z m44 -61 c-9 -27 -39 -23 -43 7 -2 14 3 23 15 25 25 6 36 -6 28
-32z m-3 -67 c5 -37 -7 -91 -18 -80 -3 3 -9 30 -13 61 -7 49 -6 56 10 56 12 0
18 -10 21 -37z m-232 -23 c0 -22 -3 -40 -7 -40 -8 0 -63 65 -63 74 0 4 16 6
35 6 34 0 35 -1 35 -40z m263 -306 c2 -14 2 -35 -1 -47 -5 -20 -6 -20 -13 -1
-11 27 -11 74 0 74 5 0 11 -12 14 -26z"/>
<path d="M1862 3878 c-15 -15 -15 -48 -1 -68 8 -12 9 -9 5 11 -5 22 -2 28 17
33 35 9 37 8 37 -21 0 -16 4 -23 9 -17 5 5 7 24 4 42 -4 27 -10 32 -32 32 -15
0 -32 -5 -39 -12z"/>
<path d="M2440 3865 c-8 -9 -11 -30 -8 -53 l6 -38 -62 3 c-33 1 -63 3 -66 3
-6 1 -179 7 -250 8 -25 1 -64 0 -88 -2 -23 -2 -45 0 -48 5 -2 4 -12 5 -20 2
-9 -3 -11 -8 -6 -12 17 -10 19 -111 3 -111 -12 0 -34 57 -26 69 3 6 4 20 0 30
-5 18 -14 19 -102 15 -53 -2 -98 -5 -100 -7 -2 -2 0 -12 3 -21 5 -14 9 -15 15
-4 10 16 127 12 147 -5 14 -11 12 -85 -4 -166 -8 -38 9 -56 37 -40 10 5 20 5
23 0 3 -4 16 -8 28 -7 22 1 23 4 20 91 -4 114 1 135 33 135 13 0 27 5 30 10 3
6 27 10 53 9 35 0 42 -3 27 -9 -17 -7 -17 -9 -2 -9 13 -1 17 -10 17 -36 0 -34
1 -35 40 -35 38 0 40 2 40 29 0 17 5 33 10 36 6 4 10 -8 10 -29 0 -34 2 -36
35 -36 48 0 50 2 47 29 -6 45 1 49 65 39 32 -5 62 -13 66 -17 14 -14 15 -94 1
-126 -7 -17 -10 -43 -7 -58 5 -26 8 -28 52 -25 l46 3 1 75 c0 41 1 83 2 93 2
18 28 24 34 6 2 -5 11 -11 20 -12 22 -4 49 -27 46 -41 -2 -6 10 -24 26 -39 21
-21 26 -34 21 -50 -17 -54 -16 -65 8 -100 l25 -37 16 42 17 41 -36 53 c-19 30
-35 58 -35 63 0 10 -119 133 -152 158 -12 9 -18 9 -27 0 -9 -9 -14 -8 -21 3
-16 25 -11 37 15 42 18 4 25 1 25 -11 1 -14 2 -14 11 1 23 40 -32 78 -61 43z
m43 -106 c-9 -9 -9 -16 0 -30 8 -13 8 -24 -2 -46 l-13 -28 -10 24 c-12 34 -6
85 12 92 20 8 27 2 13 -12z m-313 2 c0 -5 -12 -19 -27 -31 -25 -19 -28 -20
-31 -5 -6 28 6 45 33 45 14 0 25 -4 25 -9z m100 -21 c0 -36 -9 -38 -38 -7 -25
26 -20 37 15 37 19 0 23 -5 23 -30z m434 -231 c-7 -13 -54 -11 -54 2 0 6 5 20
11 32 l12 21 18 -23 c11 -13 16 -27 13 -32z"/>
<path d="M932 3840 c0 -19 2 -27 5 -17 2 9 2 25 0 35 -3 9 -5 1 -5 -18z"/>
<path d="M821 3840 c0 -8 4 -22 9 -30 12 -18 12 -2 0 25 -6 13 -9 15 -9 5z"/>
<path d="M875 3810 c-19 -8 -19 -9 -1 -9 14 -1 16 -4 7 -14 -6 -8 -8 -17 -5
-20 4 -4 1 -20 -6 -37 -15 -37 -33 -21 -24 21 4 23 1 27 -28 31 -42 7 -214 2
-210 -6 1 -3 2 -24 2 -46 l0 -40 45 0 c43 0 45 1 44 28 -2 23 -2 24 -6 5 -6
-30 -14 -29 -46 5 -35 37 -34 42 8 42 21 0 35 -5 35 -12 0 -9 3 -9 9 1 6 10
22 12 55 9 26 -3 50 -8 53 -11 3 -4 7 -86 8 -184 1 -99 7 -190 13 -205 9 -22
8 -30 -5 -43 -19 -20 -12 -28 19 -20 21 6 24 12 25 63 1 54 1 55 -9 22 -10
-33 -11 -33 -19 -13 -13 34 -6 166 8 170 10 4 12 -10 9 -54 -2 -32 -2 -48 1
-35 7 36 23 15 23 -31 0 -84 10 -115 39 -120 14 -3 28 -3 30 -1 7 7 -33 33
-41 28 -12 -8 -9 11 3 23 14 14 14 91 -1 123 l-10 25 5 -27 c6 -33 -10 -38
-19 -5 -9 35 -7 77 4 77 6 0 10 -5 10 -12 0 -8 3 -9 10 -2 6 6 6 30 0 69 -13
81 -12 135 4 164 11 20 11 27 1 38 -15 15 -13 15 -40 3z m35 -400 c0 -16 -4
-30 -10 -30 -5 0 -10 14 -10 30 0 17 5 30 10 30 6 0 10 -13 10 -30z"/>
<path d="M1599 3776 c-2 -3 -3 -25 -1 -50 l4 -46 49 0 c37 0 49 4 49 15 0 8
-8 15 -18 15 -25 0 -56 35 -49 55 4 10 0 15 -12 15 -10 0 -20 -2 -22 -4z"/>
<path d="M1903 3445 c0 -44 2 -61 4 -37 2 23 8 42 14 42 15 0 10 -64 -7 -88
-20 -29 -10 -62 20 -62 34 0 38 10 13 30 -19 16 -21 22 -11 47 14 38 6 96 -12
89 -8 -3 -14 6 -17 27 -2 18 -4 -4 -4 -48z"/>
<path d="M2409 3465 c-2 -33 0 -73 5 -89 7 -22 5 -31 -8 -38 -25 -14 -19 -30
12 -26 25 3 27 6 28 53 2 48 2 49 -5 10 l-6 -40 -8 34 c-11 54 -9 74 8 67 12
-4 15 2 14 27 -1 18 -3 24 -6 15 -7 -29 -21 -21 -25 15 -3 22 -6 13 -9 -28z"/>
<path d="M1337 3473 c-14 -52 -16 -72 -7 -78 16 -10 11 -53 -7 -64 -24 -13 -5
-32 25 -25 21 6 22 11 20 93 l-2 86 -5 -70 c-6 -65 -7 -68 -14 -32 -4 20 -5
53 -1 72 6 36 -1 49 -9 18z"/>
<path d="M2471 3456 c-1 -23 2 -26 13 -17 18 15 23 2 17 -52 -5 -41 -5 -41
-12 -12 -6 25 -7 23 -6 -15 2 -41 4 -45 30 -48 28 -3 38 15 12 24 -11 5 -14
22 -14 71 1 66 -6 88 -20 64 -7 -11 -10 -11 -14 0 -3 8 -6 1 -6 -15z"/>
<path d="M360 3460 c0 -5 -7 -7 -15 -4 -11 5 -15 -1 -14 -22 0 -16 4 -38 9
-49 7 -14 8 -9 4 18 -5 30 -3 37 10 37 9 0 16 7 16 15 0 8 -2 15 -5 15 -3 0
-5 -4 -5 -10z"/>
<path d="M1837 3444 c-2 -14 2 -38 9 -53 19 -36 18 -47 -8 -71 l-22 -20 27 0
c16 0 30 8 37 19 12 24 13 44 1 37 -10 -6 -31 45 -31 75 0 27 19 24 24 -3 3
-13 7 -32 9 -43 3 -11 5 -4 5 15 1 44 -8 64 -29 68 -11 1 -18 -7 -22 -24z"/>
<path d="M430 3408 c0 -7 -3 -23 -6 -35 -4 -15 -2 -23 6 -23 6 0 10 6 7 13 -2
6 0 20 4 29 6 10 5 19 -1 23 -5 3 -10 0 -10 -7z"/>
<path d="M396 3380 c8 -43 14 -51 14 -19 0 13 -5 31 -10 39 -7 11 -8 5 -4 -20z"/>
<path d="M362 3379 c-1 -9 -11 -28 -22 -42 -25 -32 -25 -37 0 -37 25 0 33 17
27 62 -2 18 -5 26 -5 17z"/>
<path d="M635 3358 c-2 -7 0 -29 4 -48 5 -19 9 -28 10 -19 1 9 8 20 17 23 21
8 14 50 -9 54 -9 2 -19 -2 -22 -10z m35 -23 c0 -8 -4 -15 -10 -15 -5 0 -10 7
-10 15 0 8 5 15 10 15 6 0 10 -7 10 -15z"/>
<path d="M140 3326 c0 -19 4 -37 8 -40 4 -2 8 13 7 35 0 21 -3 39 -7 39 -5 0
-8 -15 -8 -34z"/>
<path d="M174 3326 c0 -19 4 -32 8 -30 10 7 10 64 0 64 -4 0 -8 -15 -8 -34z"/>
<path d="M1124 3346 c-3 -8 -4 -25 -2 -38 2 -18 10 -24 38 -26 28 -3 33 -1 23
9 -7 7 -13 26 -13 41 0 21 -5 28 -20 28 -11 0 -23 -6 -26 -14z m36 -26 c0 -25
-18 -36 -26 -16 -8 21 3 49 16 41 5 -3 10 -15 10 -25z"/>
<path d="M1648 3347 c-5 -10 -5 -30 -2 -44 4 -16 2 -28 -7 -34 -9 -6 1 -9 31
-10 25 0 60 -2 78 -4 17 -2 32 1 32 6 0 5 -15 9 -34 9 -40 0 -56 16 -53 55 1
15 -4 30 -11 32 -9 4 -11 -2 -6 -21 4 -16 2 -26 -4 -26 -6 0 -12 12 -14 28 -2
22 -4 24 -10 9z m36 -62 c3 -9 0 -15 -9 -15 -8 0 -15 7 -15 15 0 8 4 15 9 15
5 0 11 -7 15 -15z"/>
<path d="M2153 3344 c-4 -11 2 -23 16 -33 23 -17 19 -34 -5 -24 -8 3 -14 0
-14 -6 0 -8 -55 -11 -180 -11 -108 0 -180 -4 -180 -10 0 -6 164 -8 440 -7 242
1 440 5 440 10 0 4 -108 7 -240 7 -218 0 -239 1 -233 16 4 11 -1 23 -13 32
-13 10 -15 16 -6 19 17 7 15 23 -3 23 -9 0 -18 -7 -22 -16z"/>
<path d="M422 3332 c-19 -6 -14 -32 7 -32 11 0 22 3 24 8 7 10 -16 29 -31 24z"/>
<path d="M273 3272 l-122 -3 -6 -44 c-5 -33 -2 -54 11 -84 23 -48 34 -52 34
-10 0 16 -4 28 -9 25 -5 -3 -11 4 -15 17 -9 33 -7 49 4 42 7 -4 9 2 4 19 l-6
26 112 0 c103 0 112 -2 117 -20 3 -11 9 -20 14 -20 5 0 9 -7 9 -16 0 -9 -5
-12 -12 -8 -8 5 -9 2 -5 -10 4 -10 7 -24 7 -32 0 -8 9 -14 20 -14 16 0 19 6
18 38 0 20 -5 42 -10 49 -20 25 4 32 105 30 l102 -2 -3 -51 c-3 -39 2 -59 19
-89 l24 -39 8 41 c5 26 12 40 20 37 12 -5 57 -68 57 -81 0 -5 11 -18 24 -30
18 -18 25 -36 28 -85 3 -35 1 -75 -4 -90 -5 -14 -8 -41 -6 -60 3 -28 7 -33 26
-30 16 2 25 -3 30 -19 l9 -23 5 22 c4 14 11 20 21 16 19 -7 28 50 14 89 -11
32 -4 108 12 147 6 14 23 40 37 58 l27 33 -27 -11 c-16 -6 -35 -19 -45 -30
-26 -30 -67 -36 -81 -11 -14 27 -5 41 26 41 16 0 24 -6 24 -17 0 -13 3 -14 11
-6 9 9 8 18 -5 38 -21 33 -46 29 -65 -9 l-14 -29 -38 42 c-22 23 -39 46 -39
51 0 6 -5 10 -11 10 -7 0 -18 8 -26 18 -11 13 -13 14 -12 2 3 -31 -1 -51 -10
-46 -13 9 -19 65 -7 69 7 3 7 9 -2 20 -11 13 -10 16 5 20 14 4 320 2 401 -2
17 -1 15 -51 -4 -97 -16 -38 -17 -38 -27 -16 -8 17 -8 29 1 43 23 37 11 30
-38 -22 -48 -51 -65 -74 -37 -50 8 6 17 8 20 4 4 -3 9 2 13 11 10 26 34 18 40
-13 l6 -29 29 33 c24 27 29 42 29 83 0 31 5 51 13 54 6 2 112 3 235 2 123 -1
222 2 222 7 0 8 -1043 17 -1307 11z m610 -282 c7 -30 -9 -90 -23 -90 -9 0 -16
54 -12 93 4 36 28 35 35 -3z"/>
<path d="M1590 3260 c0 -5 4 -10 9 -10 6 0 13 5 16 10 3 6 -1 10 -9 10 -9 0
-16 -4 -16 -10z"/>
<path d="M1140 3201 c-11 -34 -10 -44 6 -80 11 -22 21 -41 24 -41 3 0 13 18
22 40 12 29 21 38 32 34 9 -3 16 -12 16 -19 0 -7 8 -21 18 -32 9 -10 13 -12 7
-4 -8 11 -6 13 4 9 8 -2 18 -16 22 -30 4 -14 17 -39 29 -56 23 -31 24 -62 6
-197 -6 -44 2 -55 35 -48 28 5 29 4 30 -33 1 -38 16 -102 18 -76 1 6 6 12 11
12 13 0 13 -40 0 -60 -8 -12 -10 -10 -10 9 0 13 -3 22 -6 18 -3 -3 -3 -23 1
-45 5 -32 11 -41 31 -45 27 -5 31 5 9 23 -17 14 -20 41 -5 56 6 6 7 25 4 43
-5 22 -9 28 -15 20 -12 -19 -20 -6 -26 41 -5 37 -4 41 13 38 18 -3 19 4 16 99
-4 121 -6 120 115 119 46 -1 83 2 83 7 0 4 16 7 35 7 43 0 44 -10 5 -38 -35
-27 -37 -27 -44 -4 -2 9 -4 4 -3 -13 2 -29 4 -30 52 -31 l50 -1 -3 48 -4 49
-106 1 c-59 1 -116 3 -127 4 -11 1 -28 2 -38 3 -13 2 -17 7 -12 21 17 54 -34
103 -70 67 -15 -15 -15 -16 3 -16 35 0 52 -11 52 -35 0 -12 -7 -28 -15 -35 -9
-8 -13 -21 -9 -36 3 -13 3 -36 0 -50 -11 -43 -30 -12 -29 46 0 35 -3 50 -12
50 -8 0 -23 12 -33 28 -20 27 -159 172 -165 172 -2 0 -10 -18 -17 -39z m54
-55 c-21 -33 -34 -19 -34 39 l0 40 26 -26 c26 -26 26 -27 8 -53z"/>
<path d="M190 3189 c1 -18 35 -59 49 -59 6 0 15 -9 21 -20 8 -14 8 -20 0 -20
-6 0 3 -17 20 -38 30 -38 31 -43 31 -136 0 -112 4 -129 30 -121 21 7 22 -3 9
-45 -5 -16 -8 -19 -9 -8 -1 9 -5 19 -9 22 -4 2 -7 -36 -6 -85 3 -82 1 -89 -17
-89 -10 0 -19 -5 -19 -11 0 -6 14 -9 32 -7 28 3 32 7 33 33 3 75 9 88 14 30 4
-42 10 -61 21 -63 13 -2 15 28 16 218 0 212 1 220 22 243 25 26 32 57 9 38
-17 -14 -27 -4 -27 26 0 19 -5 23 -30 23 -32 0 -50 -22 -50 -62 l-1 -23 -17
22 c-9 12 -27 34 -39 50 -44 57 -83 96 -83 82z m200 -110 c9 -16 8 -24 -5 -39
-9 -10 -19 -39 -23 -64 -8 -51 -28 -60 -25 -11 1 17 2 49 2 73 0 23 3 47 6 52
10 17 34 11 45 -11z m0 -325 c0 -21 -4 -33 -10 -29 -5 3 -10 19 -10 36 0 16 5
29 10 29 6 0 10 -16 10 -36z m-38 -74 c-6 -15 -11 -19 -16 -12 -10 17 4 56 15
45 6 -6 6 -19 1 -33z m48 2 c0 -9 -5 -24 -10 -32 -7 -11 -10 -5 -10 23 0 23 4
36 10 32 6 -3 10 -14 10 -23z"/>
<path d="M431 3104 c0 -11 3 -14 6 -6 3 7 2 16 -1 19 -3 4 -6 -2 -5 -13z"/>
<path d="M1339 2705 c-3 -33 -2 -64 3 -69 13 -16 9 -53 -7 -60 -28 -10 -15
-22 20 -18 34 4 52 32 21 32 -9 0 -17 16 -21 41 -8 46 -2 57 20 39 12 -10 15
-10 15 4 0 9 -8 16 -19 16 -16 0 -21 8 -23 38 -3 30 -5 26 -9 -23z"/>
<path d="M822 2710 c-7 -27 -7 -50 -2 -59 7 -12 9 -6 10 22 0 28 4 37 18 37
10 0 13 3 6 8 -6 4 -13 14 -16 22 -2 8 -9 -5 -16 -30z"/>
<path d="M1372 2730 c0 -14 2 -19 5 -12 2 6 2 18 0 25 -3 6 -5 1 -5 -13z"/>
<path d="M901 2727 c-1 -10 -5 -15 -11 -12 -6 4 -9 -17 -8 -57 l1 -63 7 55 c4
40 8 50 14 37 11 -23 1 -100 -13 -105 -21 -7 1 -22 32 -22 l32 0 -23 18 c-19
15 -21 22 -13 49 6 22 5 45 -4 75 -8 24 -14 35 -14 25z"/>
<path d="M1378 2625 c-3 -14 -1 -25 3 -25 5 0 9 11 9 25 0 14 -2 25 -4 25 -2
0 -6 -11 -8 -25z"/>
<path d="M1172 2594 c-6 -11 -11 -13 -16 -5 -16 25 -25 9 -11 -19 20 -38 20
-38 -17 -49 -23 -6 53 -10 245 -12 152 -2 277 -1 277 4 0 4 -108 7 -241 7
-226 0 -241 1 -234 18 11 28 18 72 12 72 -3 0 -10 -7 -15 -16z"/>
<path d="M158 2593 c15 -6 16 -55 1 -70 -9 -9 -7 -11 7 -8 11 2 22 4 26 4 4 1
3 13 -3 28 -5 14 -8 32 -5 40 4 8 -2 13 -17 12 -12 0 -16 -3 -9 -6z"/>
<path d="M644 2555 l1 -45 40 0 c30 0 36 3 27 12 -7 7 -13 28 -13 48 l-2 35
-10 -37 c-13 -48 -27 -49 -27 -3 0 19 -4 35 -9 35 -5 0 -8 -20 -7 -45z"/>
<path d="M809 2573 c-11 -13 -9 -14 16 -11 16 1 30 8 32 13 5 17 -34 15 -48
-2z"/>
<path d="M322 2492 c-18 -27 -22 -46 -20 -93 1 -39 5 -54 11 -44 4 9 12 13 17
10 11 -7 22 68 18 121 l-3 41 -23 -35z m14 -69 c-11 -11 -17 4 -9 23 7 18 8
18 11 1 2 -10 1 -21 -2 -24z"/>
<path d="M827 2524 c-4 -5 -22 -8 -40 -8 -24 1 -26 0 -6 -3 25 -4 25 -6 23
-69 -2 -35 1 -64 6 -64 4 0 6 -10 2 -22 -3 -14 -2 -19 6 -14 8 5 12 0 12 -13
0 -26 -17 -36 -23 -14 -4 14 -5 13 -6 -4 0 -12 7 -29 17 -39 15 -16 17 -41 17
-240 0 -215 1 -221 19 -214 11 4 22 13 24 20 3 9 -1 11 -11 7 -12 -4 -16 4
-19 41 -2 26 -2 71 0 100 4 50 6 52 33 52 26 0 29 -3 29 -35 0 -19 -4 -35 -10
-35 -5 0 -10 14 -10 32 0 37 -17 27 -20 -12 -5 -60 1 -121 10 -115 6 4 10 -7
10 -24 0 -23 5 -31 18 -31 14 0 17 10 18 55 0 33 -3 50 -8 43 -4 -7 -8 -22 -8
-33 -1 -35 -20 6 -20 43 0 31 14 44 23 20 2 -7 7 26 11 75 4 48 4 92 1 98 -9
13 3 99 13 99 4 0 18 -18 32 -40 16 -26 27 -35 32 -27 5 8 8 6 8 -7 0 -11 12
-37 27 -58 23 -34 26 -47 24 -108 -2 -60 0 -70 19 -80 27 -14 36 -7 44 34 5
28 1 44 -21 78 -31 50 -58 94 -71 123 -5 11 -19 29 -31 39 -11 11 -21 23 -21
28 0 17 -44 68 -58 68 -10 0 -13 7 -9 21 3 12 2 18 -2 13 -5 -5 -11 -37 -13
-71 -6 -95 -30 -104 -33 -13 -1 28 -7 56 -13 62 -15 15 -16 31 -1 22 7 -4 9 0
5 14 -6 17 -2 23 18 28 14 3 30 3 36 -1 8 -5 11 -1 8 11 -4 21 -42 21 -67 1
-12 -10 -13 -7 -7 16 5 21 4 27 -5 21 -9 -5 -10 -2 -6 9 3 10 2 17 -3 17 -6 0
-10 11 -10 25 0 31 20 33 21 3 1 -14 3 -17 5 -8 7 23 -10 93 -19 84z m272
-525 c11 -19 10 -24 -8 -43 l-21 -20 0 42 c0 47 8 53 29 21z"/>
<path d="M278 2513 c7 -3 16 -2 19 1 4 3 -2 6 -13 5 -11 0 -14 -3 -6 -6z"/>
<path d="M393 2513 c9 -2 25 -2 35 0 9 3 1 5 -18 5 -19 0 -27 -2 -17 -5z"/>
<path d="M493 2513 c26 -2 67 -2 90 0 23 2 2 3 -48 3 -49 0 -68 -1 -42 -3z"/>
<path d="M923 2513 c26 -2 68 -2 95 0 26 2 4 3 -48 3 -52 0 -74 -1 -47 -3z"/>
<path d="M3536 2485 c-22 -34 -20 -45 4 -15 l20 25 0 -32 c0 -33 14 -51 25
-33 4 6 10 8 15 5 5 -3 1 -23 -8 -44 -12 -27 -25 -41 -47 -47 -16 -5 -29 -14
-28 -21 1 -6 -6 -9 -18 -6 -14 4 -17 9 -10 16 21 21 11 30 -10 11 -26 -23 -23
-12 11 38 14 21 31 38 38 38 15 0 16 -12 0 -28 -6 -6 -13 -19 -14 -27 -2 -13
0 -14 12 -4 29 23 35 47 18 63 -28 29 -48 18 -76 -42 -27 -57 -27 -57 -37 -29
-12 32 -46 37 -67 10 -19 -26 -18 -28 23 -28 41 0 49 -14 27 -51 -7 -12 -11
-37 -10 -57 4 -48 -10 -70 -23 -35 -11 30 -12 88 0 88 4 0 -5 15 -22 32 -16
18 -29 38 -29 44 0 17 -73 89 -78 76 -6 -19 -22 -14 -31 11 -12 30 -2 43 15
20 7 -10 14 -13 14 -7 0 5 -7 19 -15 30 -15 19 -15 19 -35 -5 -11 -13 -20 -19
-20 -15 0 5 -5 2 -10 -7 -5 -9 -12 -47 -16 -85 l-6 -69 31 -18 c28 -16 31 -16
31 -2 0 9 -9 25 -20 37 -23 25 -26 48 -7 48 19 0 36 -20 30 -36 -3 -10 0 -12
10 -8 9 3 32 -6 53 -20 21 -14 41 -23 46 -20 5 3 8 2 7 -3 -1 -4 3 -21 10 -37
8 -20 10 -55 5 -107 -4 -49 -2 -83 5 -95 8 -15 11 -15 11 -4 1 10 4 9 10 -5 9
-20 9 -20 10 0 2 17 3 16 10 -5 8 -24 8 -24 9 -2 2 36 21 25 21 -13 0 -24 -5
-35 -15 -35 -28 0 -13 -142 16 -148 14 -2 15 11 12 109 -2 65 0 115 6 118 6 4
6 23 1 51 -17 86 -13 127 15 147 14 10 42 30 62 46 44 33 51 34 59 2 5 -21 10
-24 33 -19 14 4 29 8 32 10 11 6 3 70 -18 147 -3 11 -11 16 -20 13 -10 -4 -18
4 -26 24 -14 36 -20 37 -41 5z m-328 -82 c-10 -13 -13 -12 -19 4 -15 36 -10
47 11 28 16 -14 18 -21 8 -32z m54 -25 c11 -13 16 -17 12 -9 -5 9 -3 12 4 7 7
-4 12 -16 12 -26 0 -14 -5 -17 -22 -12 -42 13 -61 29 -55 46 9 22 25 20 49 -6z
m368 -22 c0 -8 -10 -22 -22 -31 -21 -14 -23 -14 -27 2 -2 9 5 23 15 30 23 17
34 17 34 -1z m-207 -438 c-3 -15 -9 -25 -14 -22 -11 6 -12 58 -2 68 12 11 22
-17 16 -46z"/>
<path d="M367 2374 c-13 -13 -7 -21 15 -20 15 1 24 -7 28 -24 6 -21 8 -22 14
-8 13 29 2 53 -24 56 -14 2 -29 0 -33 -4z"/>
<path d="M351 2321 c-1 -24 -1 -24 -16 -5 -13 17 -14 17 -15 2 0 -10 -4 -18
-9 -18 -5 0 -12 8 -14 18 -4 15 -5 14 -6 -3 0 -10 11 -29 27 -41 24 -20 27
-28 25 -76 -2 -58 -3 -314 -1 -338 0 -8 -2 -22 -6 -31 -6 -13 -2 -16 18 -12
25 5 26 8 27 77 1 39 3 63 6 53 4 -14 8 -15 18 -7 19 16 25 -1 18 -46 l-7 -39
-8 30 c-6 24 -6 21 -3 -14 3 -40 16 -60 38 -61 5 0 5 6 0 13 -4 6 -9 68 -9
137 -1 69 -5 145 -9 170 -4 29 -2 59 7 85 11 34 18 41 58 51 48 13 42 16 -33
18 -42 1 -48 -1 -52 -21 -16 -76 -16 -77 -26 -62 -5 7 -9 32 -10 54 0 22 -5
51 -9 65 l-8 25 -1 -24z m19 -355 c0 -47 -4 -88 -10 -91 -6 -4 -10 27 -10 84
0 54 4 91 10 91 6 0 10 -35 10 -84z m50 34 c0 -22 -4 -40 -10 -40 -5 0 -10 4
-10 9 0 5 -3 23 -6 40 -5 24 -3 31 10 31 12 0 16 -10 16 -40z"/>
<path d="M550 2279 c0 -5 9 -9 19 -9 16 0 20 -8 23 -37 3 -37 4 -38 43 -38 40
0 40 1 43 43 2 33 0 42 -12 42 -9 0 -16 -7 -16 -15 0 -19 -31 -56 -42 -49 -12
8 -10 54 4 54 22 0 0 11 -31 15 -17 2 -31 -1 -31 -6z"/>
<path d="M3372 1998 c-2 -20 -21 -25 -23 -5 -1 6 -5 -6 -9 -28 -4 -23 -4 -48
2 -58 5 -10 6 -31 3 -48 -5 -22 -3 -29 9 -29 21 0 28 32 23 115 -1 39 -4 62
-5 53z m-2 -69 c0 -24 -4 -38 -10 -34 -5 3 -10 22 -10 41 0 19 5 34 10 34 6 0
10 -18 10 -41z"/>
<path d="M2668 1863 c-7 -27 2 -43 23 -43 14 0 19 7 19 30 0 23 -5 30 -19 30
-10 0 -21 -8 -23 -17z m32 -13 c0 -5 -4 -10 -10 -10 -5 0 -10 5 -10 10 0 6 5
10 10 10 6 0 10 -4 10 -10z"/>
<path d="M2730 1849 l0 -31 19 23 c20 25 19 39 -5 39 -9 0 -14 -11 -14 -31z"/>
<path d="M2789 1878 c-1 -2 -3 -16 -5 -31 -2 -23 0 -26 11 -17 7 6 16 7 19 2
3 -5 21 -9 41 -10 34 -1 36 0 33 26 -4 36 -35 42 -44 8 -7 -29 -24 -25 -24 5
0 10 -7 19 -15 19 -8 0 -16 -1 -16 -2z m91 -34 c0 -16 -16 -19 -25 -4 -8 13 4
32 16 25 5 -4 9 -13 9 -21z"/>
<path d="M2910 1850 c0 -26 4 -30 28 -30 16 0 32 8 40 20 14 23 32 26 32 6 0
-8 4 -18 10 -21 5 -3 9 2 7 12 -1 10 3 20 8 23 6 3 11 -5 13 -17 2 -13 9 -23
17 -23 14 0 15 16 2 37 -4 6 -1 14 5 16 7 3 -18 6 -55 6 -65 1 -68 0 -65 -21
2 -15 -3 -24 -14 -26 -10 -2 -18 1 -18 7 0 6 4 11 10 11 5 0 7 7 4 15 -10 25
-24 17 -24 -15z"/>
<path d="M3100 1854 c0 -17 4 -22 15 -18 8 4 15 1 15 -7 0 -7 2 -10 5 -7 4 3
3 17 0 30 -8 31 -35 33 -35 2z"/>
<path d="M3154 1864 c3 -9 6 -22 6 -30 0 -17 39 -16 53 1 6 6 10 6 14 -2 9
-23 23 -13 23 16 0 25 -4 29 -25 27 -14 0 -25 -7 -25 -13 0 -7 -7 -13 -15 -13
-18 0 -20 16 -2 23 6 3 1 6 -12 6 -17 1 -22 -3 -17 -15z"/>
<path d="M163 1820 c-1 -65 14 -65 19 0 2 31 -1 50 -8 50 -6 0 -11 -22 -11
-50z"/>
<path d="M685 1849 c-7 -19 -7 -20 -21 -2 -13 17 -13 17 -14 -3 0 -24 25 -61
32 -48 9 14 20 74 14 74 -2 0 -8 -9 -11 -21z"/>
<path d="M1062 1763 c29 -7 33 -64 9 -114 -30 -61 -26 -68 15 -28 36 35 37 39
19 112 -5 19 -2 26 12 30 10 3 -2 5 -27 5 -25 0 -37 -2 -28 -5z"/>
<path d="M590 1705 c0 -35 -15 -73 -35 -87 -6 -5 -5 -12 3 -20 7 -7 12 -8 12
-2 0 6 11 24 25 40 16 18 24 36 20 49 -2 11 -5 28 -5 38 0 9 -4 17 -10 17 -5
0 -10 -16 -10 -35z"/>
<path d="M1013 1673 c-23 -26 -39 -51 -37 -55 3 -5 15 1 26 14 11 13 23 22 27
21 4 -1 11 14 17 33 6 19 11 34 10 34 -1 0 -20 -21 -43 -47z"/>
<path d="M518 1669 c-21 -22 -24 -36 -5 -20 8 6 17 7 23 1 5 -5 9 0 9 16 0 28
-4 29 -27 3z"/>
<path d="M359 1636 c-29 -14 -38 -66 -15 -85 13 -11 14 -15 1 -35 -11 -17 -13
-34 -7 -67 5 -24 5 -55 1 -69 -4 -14 -8 -47 -8 -75 -1 -27 -7 -68 -15 -90 -17
-49 -10 -155 10 -155 8 0 15 20 19 58 3 31 8 68 11 80 3 15 1 21 -6 17 -5 -3
-10 -28 -10 -55 0 -58 -19 -79 -21 -23 -1 21 0 43 1 48 2 6 7 29 13 53 11 45
26 56 28 20 1 -22 1 -22 10 2 6 18 8 6 5 -40 -2 -36 -1 -55 1 -42 8 44 23 21
22 -35 -1 -48 -3 -53 -9 -28 l-8 30 -1 -30 c0 -16 3 -34 7 -40 9 -13 62 -17
62 -4 0 5 -7 9 -15 9 -20 0 -28 37 -22 101 3 30 3 48 0 42 -10 -26 -23 -11
-23 27 0 41 7 49 28 28 14 -14 14 -14 16 121 1 99 -1 95 56 120 22 10 20 11
-16 6 -39 -5 -42 -3 -47 23 -3 15 0 33 5 40 8 9 7 11 -6 6 -12 -5 -16 0 -16
19 0 30 -19 39 -51 23z m46 -47 c8 -26 -16 -54 -39 -46 -9 4 -16 17 -16 31 0
22 9 29 42 35 4 0 10 -9 13 -20z m-5 -119 c0 -16 -4 -30 -10 -30 -5 0 -10 14
-10 30 0 17 5 30 10 30 6 0 10 -13 10 -30z"/>
<path d="M472 1629 c-7 -12 -11 -24 -7 -27 7 -8 25 17 25 36 0 17 -3 15 -18
-9z"/>
<path d="M3352 1638 c-15 -15 -16 -53 -2 -79 9 -16 7 -19 -10 -19 -27 0 -32
-15 -22 -70 6 -34 12 -45 26 -45 33 0 58 -84 32 -110 -9 -9 -17 -11 -21 -5 -3
5 -1 10 4 10 15 0 14 33 -2 63 l-13 25 -11 -28 c-6 -16 -9 -61 -6 -100 3 -48
0 -76 -8 -86 -10 -12 -8 -21 9 -44 28 -38 28 -46 -3 -54 -35 -9 -31 -26 5 -26
23 0 30 4 30 20 0 11 5 20 10 20 6 0 10 -9 10 -20 0 -16 7 -20 37 -20 35 0 36
0 18 20 -11 12 -16 29 -13 45 3 14 1 25 -3 25 -5 0 -9 -16 -9 -36 0 -21 -4
-33 -10 -29 -25 16 -6 81 25 85 6 0 8 13 6 28 -3 15 -4 41 -3 57 1 17 2 46 1
65 -4 81 -2 117 5 158 8 39 7 44 -12 49 -20 5 -20 6 -4 41 13 27 14 36 5 39
-7 3 -13 11 -13 19 0 17 -41 19 -58 2z m47 -37 c16 -11 -2 -51 -24 -51 -20 0
-30 40 -14 51 17 11 21 11 38 0z m-5 -86 c7 -27 -8 -65 -24 -65 -6 0 -9 20 -8
45 3 49 22 61 32 20z m7 -118 c-8 -8 -11 -5 -11 9 0 27 14 41 18 19 2 -9 -1
-22 -7 -28z m9 -137 c0 -16 -4 -30 -9 -30 -10 0 -21 47 -13 55 13 13 22 3 22
-25z m-40 16 c0 -2 -3 -11 -6 -20 -9 -23 -24 -20 -24 4 0 11 7 20 15 20 8 0
15 -2 15 -4z m39 -66 c6 0 11 -4 11 -10 0 -11 -53 -14 -63 -4 -3 4 -1 16 5 27
10 19 12 19 23 4 7 -9 17 -17 24 -17z"/>
<path d="M860 1631 c-19 -5 -26 -14 -28 -36 -2 -28 -1 -29 12 -11 8 10 26 19
40 20 14 0 26 4 26 7 0 15 -27 25 -50 20z"/>
<path d="M904 1566 c-5 -13 -18 -21 -32 -20 -12 0 -22 -5 -22 -13 0 -7 -7 -13
-16 -13 -14 0 -15 -6 -9 -37 8 -37 8 -71 3 -160 -2 -41 10 -71 19 -45 3 6 9
10 13 7 11 -7 2 -187 -11 -199 -9 -10 -12 32 -11 134 0 44 0 44 -7 10 -4 -19
-5 -56 -3 -82 3 -28 0 -53 -7 -62 -9 -11 -8 -15 4 -20 30 -11 45 5 45 50 0 24
5 44 10 44 6 0 10 27 10 61 0 54 2 60 19 54 25 -8 32 21 25 115 l-6 75 20 -24
c32 -39 36 -6 6 49 -20 37 -24 53 -16 63 8 10 7 16 -7 24 -14 9 -19 7 -27 -11z
m-4 -77 c12 -22 -3 -79 -21 -79 -10 0 -12 83 -2 93 9 10 11 9 23 -14z"/>
<path d="M565 1530 c-18 -8 -17 -9 8 -9 25 -1 28 -5 27 -28 -4 -54 3 -67 9
-18 7 61 -2 73 -44 55z"/>
<path d="M683 1523 c-3 -10 -20 -33 -36 -50 l-31 -33 41 0 41 0 4 46 c3 47 -7
69 -19 37z"/>
<path d="M994 1417 c3 -10 6 -27 6 -38 0 -11 7 -19 16 -19 14 0 15 -10 10 -73
-7 -70 -6 -74 21 -105 l28 -33 14 45 c11 39 11 48 -3 68 -19 27 -22 17 -3 -12
10 -17 9 -22 -3 -30 -41 -27 -60 9 -39 72 11 35 10 42 -11 81 -26 48 -47 72
-36 44z"/>
<path d="M914 1217 c6 -50 -4 -138 -15 -131 -5 3 -9 1 -9 -5 0 -13 48 -26 58
-16 4 3 -1 11 -12 17 -15 9 -17 18 -12 62 3 28 2 65 -4 81 -10 29 -10 29 -6
-8z"/>
<path d="M892 1130 c0 -14 2 -19 5 -12 2 6 2 18 0 25 -3 6 -5 1 -5 -13z"/>
<path d="M2993 1143 c-16 -6 -17 -49 -3 -58 7 -4 9 2 4 19 -5 22 -3 26 16 26
11 0 18 5 15 10 -7 11 -13 11 -32 3z"/>
<path d="M3050 1116 c0 -20 3 -36 8 -36 11 0 13 58 2 65 -6 4 -10 -9 -10 -29z"/>
<path d="M3134 1136 c-8 -12 -14 -15 -18 -7 -14 23 -26 10 -25 -26 1 -24 3
-29 6 -15 2 12 9 22 14 22 5 0 14 -10 18 -22 8 -20 10 -21 16 -6 3 9 5 29 3
45 -3 25 -4 26 -14 9z"/>
<path d="M2840 1105 c0 -30 3 -35 24 -35 31 0 36 8 29 43 -4 20 -11 27 -29 27
-21 0 -24 -5 -24 -35z m40 -10 c0 -8 -4 -15 -9 -15 -13 0 -22 16 -14 24 11 11
23 6 23 -9z"/>
<path d="M2910 1131 c0 -5 4 -21 9 -35 8 -19 15 -23 33 -18 l23 6 -25 7 c-21
6 -21 7 -5 8 20 2 20 2 0 13 -19 11 -19 11 0 19 17 6 16 8 -7 8 -16 1 -28 -3
-28 -8z"/>
<path d="M156 1085 c4 -16 7 -38 8 -47 1 -28 16 -21 16 6 0 37 19 42 26 7 8
-38 24 -41 24 -5 0 14 5 34 10 45 7 13 7 19 0 19 -5 0 -10 -7 -10 -15 0 -20
-10 -19 -26 3 -12 16 -13 16 -19 -1 -7 -17 -8 -17 -22 0 -13 16 -14 15 -7 -12z"/>
<path d="M661 1088 c7 -13 5 -25 -7 -43 -11 -17 -13 -25 -4 -25 6 0 14 9 17
20 3 11 9 20 13 20 4 0 10 -9 13 -20 3 -11 11 -20 17 -20 8 0 7 8 -4 25 -10
14 -15 34 -12 43 4 13 0 17 -18 17 -20 0 -22 -3 -15 -17z"/>
<path d="M3020 1096 c0 -9 5 -16 10 -16 6 0 10 4 10 9 0 6 -4 13 -10 16 -5 3
-10 -1 -10 -9z"/>
<path d="M2685 991 c3 -11 1 -22 -5 -26 -17 -10 -11 -44 14 -81 21 -31 24 -33
29 -14 3 11 2 18 -3 15 -9 -5 -20 29 -20 64 0 19 2 21 15 11 12 -10 12 -7 -1
19 -17 34 -39 43 -29 12z"/>
<path d="M2734 919 c0 -10 6 -19 13 -19 7 0 13 4 13 9 0 5 -6 13 -13 19 -10 8
-13 6 -13 -9z"/>
<path d="M2766 895 c-6 -16 10 -29 34 -30 8 0 16 -9 18 -20 4 -18 3 -18 -14
-5 -18 14 -18 14 -4 -5 37 -48 63 -74 71 -69 12 7 11 -10 -1 -22 -6 -6 -11
-67 -12 -145 0 -74 -5 -144 -9 -157 -5 -14 -5 -30 0 -39 6 -11 11 5 16 54 5
57 10 72 25 76 11 3 21 2 24 -1 3 -3 7 -44 8 -91 1 -54 3 -68 5 -38 3 32 8 47
16 44 14 -5 11 -55 -5 -106 -8 -26 -7 -35 3 -42 19 -11 35 7 21 23 -7 9 -8 27
-2 51 5 22 4 101 -2 183 -5 80 -7 148 -4 152 4 3 14 -4 22 -17 26 -37 38 -9
14 32 -33 56 -71 61 -66 9 4 -31 -13 -74 -25 -66 -5 3 -9 27 -9 53 0 30 -5 53
-15 61 -8 6 -17 22 -21 33 -10 33 -81 99 -88 82z m184 -400 c0 -19 -4 -35 -10
-35 -5 0 -10 16 -10 35 0 19 5 35 10 35 6 0 10 -16 10 -35z"/>
<path d="M3277 903 c-4 -3 -7 -21 -7 -40 0 -29 3 -33 25 -33 28 0 35 20 8 21
-12 0 -13 2 -5 6 10 4 10 8 1 19 -9 11 -8 14 5 14 9 0 16 5 16 10 0 11 -33 14
-43 3z"/>
<path d="M3019 895 c-1 -3 -2 -18 -3 -35 -1 -27 2 -30 29 -29 24 1 25 3 8 6
-27 5 -30 20 -5 26 16 4 16 5 0 6 -26 2 -22 19 5 24 19 4 18 4 -5 6 -16 0 -29
-1 -29 -4z"/>
<path d="M3356 888 c-7 -21 -3 -48 6 -48 4 0 8 14 8 30 0 31 -8 40 -14 18z"/>
<path d="M3406 873 c8 -35 14 -42 14 -18 0 17 1 17 18 2 26 -23 29 -21 28 13
-1 31 -10 39 -20 18 -5 -10 -7 -10 -12 0 -3 6 -12 12 -20 12 -11 0 -13 -7 -8
-27z"/>
<path d="M3509 895 c-10 -10 3 -65 16 -65 22 0 40 30 28 48 -10 17 -35 27 -44
17z m39 -33 c2 -7 -3 -12 -12 -12 -9 0 -16 7 -16 16 0 17 22 14 28 -4z"/>
<path d="M3585 890 c-3 -5 -3 -21 1 -35 4 -17 12 -25 28 -24 19 1 19 2 2 6
-15 4 -16 7 -5 14 12 8 12 11 -1 19 -13 8 -12 10 3 10 9 0 17 5 17 10 0 13
-37 13 -45 0z"/>
<path d="M2887 872 c-22 -24 -13 -33 24 -25 34 6 38 -9 13 -45 -8 -12 -11 -22
-5 -22 31 0 37 84 8 102 -17 11 -22 10 -40 -10z"/>
<path d="M3098 865 c-3 -14 -1 -28 3 -31 5 -3 9 3 9 12 0 16 1 16 19 0 17 -16
19 -16 24 5 8 28 -2 46 -15 28 -7 -11 -11 -11 -15 -1 -8 20 -20 14 -25 -13z"/>
<path d="M342 868 c-15 -15 -16 -54 -2 -63 6 -3 10 5 10 18 0 22 16 37 41 37
5 0 9 -15 10 -32 l1 -33 10 29 c9 25 8 31 -8 43 -22 16 -46 17 -62 1z"/>
<path d="M410 784 c0 0 -5 -26 -10 -57 -9 -46 -8 -62 4 -84 15 -28 15 -28 16
25 0 64 13 92 43 92 19 0 61 18 47 20 -7 2 -100 5 -100 4z"/>
<path d="M565 780 c-18 -8 -17 -9 7 -9 21 -1 28 -7 31 -28 4 -22 4 -20 3 6 -1
37 -10 44 -41 31z"/>
<path d="M670 766 c0 -19 -43 -66 -61 -66 -8 0 -9 -3 -3 -9 5 -4 26 -6 47 -4
36 5 37 6 37 49 0 24 -4 44 -10 44 -5 0 -10 -7 -10 -14z"/>
<path d="M321 761 c-12 -8 -13 -16 -3 -49 7 -22 13 -70 13 -108 1 -38 5 -82 9
-99 l8 -30 1 28 c1 28 15 37 25 15 3 -10 8 -8 16 4 6 9 17 15 25 12 11 -5 15
1 15 19 0 16 -13 36 -40 60 l-40 35 11 45 c18 65 1 93 -40 68z"/>
<path d="M3030 667 c0 -3 5 -18 12 -34 6 -15 10 -34 9 -40 -1 -7 3 -13 8 -13
22 0 20 20 -4 56 -14 20 -25 34 -25 31z"/>
<path d="M3062 545 c-18 -40 -14 -70 12 -98 14 -15 29 -35 35 -44 13 -24 17
-17 25 48 5 53 4 58 -24 88 -17 17 -32 31 -33 31 -2 0 -9 -11 -15 -25z m48
-22 c22 -25 22 -27 4 -40 -20 -15 -54 -18 -54 -4 0 22 13 71 19 71 4 0 18 -12
31 -27z"/>
<path d="M534 497 c1 -15 -9 -27 -32 -38 l-32 -17 36 -27 c19 -15 37 -25 38
-24 11 12 11 110 1 119 -8 7 -11 3 -11 -13z"/>
<path d="M423 475 c0 -22 2 -30 4 -17 2 12 2 30 0 40 -3 9 -5 -1 -4 -23z"/>
<path d="M2891 495 c-7 -49 -5 -132 2 -119 4 8 6 42 4 76 -2 35 -4 54 -6 43z"/>
<path d="M462 480 c0 -14 2 -19 5 -12 2 6 2 18 0 25 -3 6 -5 1 -5 -13z"/>
<path d="M362 455 c0 -16 2 -22 5 -12 2 9 2 23 0 30 -3 6 -5 -1 -5 -18z"/>
<path d="M331 435 c-2 -22 -2 -51 -1 -65 1 -14 3 -34 4 -44 0 -11 7 -21 14
-24 8 -2 12 8 12 35 0 27 -3 34 -10 23 -6 -10 -10 5 -13 50 -2 47 -4 54 -6 25z"/>
<path d="M391 423 c-1 -23 3 -44 7 -47 4 -2 6 12 4 32 -5 56 -10 62 -11 15z"/>
<path d="M425 393 c-4 -21 -8 -49 -11 -63 -4 -22 -1 -26 22 -28 26 -2 27 -2 9
18 -14 15 -16 29 -12 65 8 54 0 61 -8 8z"/>
<path d="M361 394 c0 -11 3 -14 6 -6 3 7 2 16 -1 19 -3 4 -6 -2 -5 -13z"/>
<path d="M2861 343 c-1 -37 2 -43 20 -43 15 0 19 4 15 16 -3 9 -6 20 -6 25 0
6 -4 8 -9 4 -5 -3 -12 5 -14 17 -2 13 -5 4 -6 -19z"/>
<path d="M162 363 c16 -4 16 -7 3 -33 -20 -39 -20 -40 16 -40 17 0 28 4 24 10
-3 5 -12 7 -20 3 -19 -7 -19 1 0 37 15 30 15 30 -12 29 -17 -1 -21 -3 -11 -6z"/>
<path d="M2170 362 c0 -22 20 -53 31 -47 5 4 9 16 9 28 0 16 -3 18 -9 8 -7
-11 -11 -10 -20 5 -6 11 -11 14 -11 6z"/>
<path d="M2296 363 c-3 -4 -6 -20 -6 -37 0 -23 3 -27 12 -18 9 9 15 9 27 -1
14 -10 14 -10 3 4 -7 9 -10 23 -7 31 6 15 -18 32 -29 21z"/>
<path d="M2350 355 c-16 -19 -7 -41 19 -48 16 -4 21 0 21 15 0 15 -4 18 -21
13 -16 -5 -20 -3 -16 6 2 8 10 13 16 12 6 -2 11 2 11 7 0 15 -16 12 -30 -5z"/>
<path d="M2434 359 c-3 -6 -1 -15 6 -19 7 -4 10 -15 7 -24 -4 -9 -2 -16 4 -16
16 0 23 31 9 40 -7 4 -9 13 -6 19 4 6 3 11 -3 11 -5 0 -13 -5 -17 -11z"/>
<path d="M2485 360 c-4 -6 -1 -18 6 -26 10 -13 10 -17 -2 -25 -10 -6 -11 -9
-1 -9 18 0 27 30 12 40 -7 4 -9 13 -6 19 4 6 5 11 2 11 -3 0 -8 -5 -11 -10z"/>
<path d="M2532 340 c0 -19 2 -27 5 -17 2 9 2 25 0 35 -3 9 -5 1 -5 -18z"/>
<path d="M2595 360 c-3 -5 -12 -7 -19 -4 -10 4 -12 -2 -9 -18 3 -15 12 -24 24
-25 15 -1 19 5 19 28 0 30 -4 36 -15 19z"/>
<path d="M2622 343 c2 -22 9 -29 30 -31 22 -3 27 0 22 12 -3 9 -15 16 -25 16
-24 0 -25 17 -1 23 12 3 11 5 -6 6 -20 1 -23 -3 -20 -26z"/>
<path d="M2232 335 c2 -14 6 -25 11 -25 4 0 6 1 5 3 -1 1 4 12 11 25 10 20 9
22 -9 22 -17 0 -21 -5 -18 -25z"/>
<path d="M2412 335 c0 -16 2 -22 5 -12 2 9 2 23 0 30 -3 6 -5 -1 -5 -18z"/>
<path d="M150 268 c0 -4 64 -8 142 -8 78 0 139 2 137 5 -9 8 -279 11 -279 3z"/>
<path d="M458 263 c12 -2 30 -2 40 0 9 3 -1 5 -23 4 -22 0 -30 -2 -17 -4z"/>
<path d="M548 263 c18 -2 45 -2 60 0 15 2 0 4 -33 4 -33 0 -45 -2 -27 -4z"/>
</g>
</svg>
