<?xml version="1.0" standalone="no"?>
<!DOCTYPE svg PUBLIC "-//W3C//DTD SVG 20010904//EN"
 "http://www.w3.org/TR/2001/REC-SVG-20010904/DTD/svg10.dtd">
<svg version="1.0" xmlns="http://www.w3.org/2000/svg"
 width="468pt" height="334pt" viewBox="0 0 468 334"
 preserveAspectRatio="xMidYMid meet">
<metadata>
Created by potrace 1.8, written by Peter Selinger 2001-2007
</metadata>
<g transform="translate(0,334) scale(0.111164,-0.111164)"
fill="#000000" stroke="none">
<path d="M0 2121 l0 -879 22 -6 c40 -10 48 -8 40 15 -11 28 -3 79 12 79 7 0 6
3 -2 9 -7 4 -14 19 -14 32 -1 13 -7 31 -13 39 -14 18 -26 50 -19 50 3 0 21
-17 41 -37 20 -21 30 -30 23 -20 -7 9 -11 19 -9 21 6 5 102 9 177 8 55 -2 64
-5 73 -24 8 -19 9 -19 6 -3 -3 11 -6 25 -8 32 -2 6 1 13 6 15 6 1 14 -12 20
-29 9 -33 24 -45 26 -20 0 6 5 1 10 -13 12 -29 3 -71 -14 -69 -7 1 -19 1 -27
0 -12 -1 -12 -4 3 -12 22 -13 24 -64 2 -55 -8 3 -15 1 -15 -5 0 -9 49 -33 55
-27 2 2 6 47 8 100 3 54 9 103 13 109 5 8 26 9 68 4 92 -10 180 -11 187 -1 4
5 13 5 20 0 19 -11 49 -13 55 -2 9 15 24 8 24 -11 0 -10 7 -21 14 -24 10 -4
13 -1 10 8 -9 22 29 27 167 22 68 -3 131 -5 139 -5 70 -3 150 5 163 16 13 11
16 10 23 -10 7 -23 40 -58 56 -58 4 0 8 7 8 15 0 8 5 15 11 15 5 0 8 3 6 8 -6
9 19 33 27 25 3 -4 6 -4 6 -1 0 3 -26 23 -57 44 -56 37 -59 38 -140 35 -93 -3
-88 -8 -97 94 -2 28 -5 52 -6 55 -4 12 -18 -48 -19 -82 -2 -57 -26 -68 -157
-69 -68 0 -125 5 -149 13 -33 11 -45 11 -65 1 -35 -18 -280 -18 -304 0 -9 7
-17 17 -16 22 5 22 0 98 -6 93 -3 -4 -6 -25 -7 -47 -4 -73 -15 -78 -171 -79
l-137 -1 -10 26 c-15 41 -9 250 8 265 9 7 64 13 140 16 113 3 129 2 152 -16
24 -17 29 -18 46 -6 12 9 45 14 86 14 37 0 70 4 73 9 6 10 -51 21 -111 21 -49
0 -53 5 -55 65 -1 58 -20 54 -22 -4 -3 -66 -16 -71 -170 -66 -110 4 -133 7
-144 22 -11 15 -12 91 -3 206 2 15 29 6 57 -18 16 -14 32 -25 37 -25 4 0 7 -6
7 -13 0 -12 40 -57 51 -57 3 0 6 14 7 30 1 18 -2 30 -10 30 -9 0 -9 3 0 12 7
7 12 20 12 30 0 10 5 18 10 18 6 0 10 6 10 14 0 18 29 29 44 17 27 -22 176
-12 176 12 0 9 2 9 8 1 11 -16 60 -26 68 -13 4 7 19 8 38 5 17 -4 57 -9 89
-12 32 -3 66 -7 75 -9 21 -3 44 14 36 27 -4 6 -10 5 -16 -3 -8 -11 -9 -11 -5
1 2 8 10 14 16 13 6 -2 11 2 11 7 0 6 7 10 15 10 18 0 19 -12 4 -27 -23 -23
-4 -35 22 -14 18 14 29 17 36 10 15 -15 421 -20 427 -5 3 7 8 6 14 -3 6 -8 20
-12 36 -9 14 3 26 1 26 -5 0 -5 6 -5 14 2 10 9 15 8 20 -4 3 -8 15 -15 26 -15
12 0 24 -9 30 -22 6 -17 9 -18 9 -6 1 9 6 20 13 24 7 4 78 8 160 9 l147 1 9
-26 c5 -14 7 -61 5 -105 -6 -113 -7 -115 -157 -114 -133 1 -161 8 -171 38 -3
12 -11 21 -16 21 -6 0 -8 -4 -5 -9 3 -4 -1 -17 -9 -27 -12 -17 -27 -19 -160
-18 -159 2 -165 4 -165 56 0 15 -4 30 -10 33 -5 3 -10 -3 -10 -14 0 -37 -21
-69 -49 -73 -52 -9 -262 1 -276 12 -8 6 -16 21 -18 33 -3 21 -4 21 -11 2 -17
-45 -24 -50 -77 -55 -55 -5 -48 -20 10 -20 14 0 37 -7 49 -16 22 -15 24 -15
36 2 12 16 28 18 152 15 146 -2 181 -12 181 -48 0 -10 -9 -24 -20 -32 -20 -14
-20 -14 2 -23 15 -5 21 -13 17 -24 -3 -8 -2 -12 4 -9 6 3 10 15 10 26 0 10 5
19 10 19 6 0 10 -6 10 -14 0 -8 4 -17 9 -20 12 -8 2 33 -15 59 -7 12 -9 28 -4
41 8 20 16 21 132 22 68 0 140 -4 161 -9 42 -11 40 -3 37 -164 -1 -76 -12
-111 -31 -100 -16 10 -58 -6 -53 -20 3 -8 12 -11 21 -8 8 3 27 -4 43 -16 16
-11 34 -21 40 -21 5 0 10 -5 10 -11 0 -5 8 -9 18 -8 9 1 43 -10 75 -25 59 -27
77 -27 77 0 0 8 4 14 9 14 5 0 8 8 7 18 -1 14 8 17 47 19 45 2 48 1 54 -27 6
-32 10 -35 33 -20 9 6 19 5 28 -2 14 -12 19 -10 116 38 38 18 49 38 23 40 -6
1 -16 3 -22 4 -5 1 -26 1 -45 1 -62 -2 -65 4 -62 141 4 161 -1 157 164 151
117 -5 124 -6 144 -30 21 -24 22 -25 28 -6 11 35 46 45 142 40 174 -10 179
-11 182 -29 4 -19 22 -25 22 -7 0 5 4 8 9 4 6 -3 10 12 9 35 0 22 -4 40 -9 40
-5 0 -9 9 -9 20 0 13 5 18 15 14 11 -5 14 -2 9 12 -4 11 -11 24 -16 31 -13 17
-6 163 9 163 6 0 14 10 16 23 4 20 4 20 6 2 1 -19 7 -21 72 -18 39 1 73 4 75
6 3 2 30 2 62 0 94 -7 151 -6 165 4 6 5 50 8 97 7 47 -2 102 1 122 5 23 6 40
5 47 -2 7 -7 11 -58 11 -128 0 -138 -4 -144 -86 -155 -75 -9 -226 3 -236 19
-4 6 -8 54 -8 105 0 54 -4 92 -10 92 -6 0 -10 -38 -10 -94 0 -75 -3 -96 -17
-107 -16 -14 -48 -14 -221 -6 -49 2 -53 0 -48 -18 3 -11 6 -26 6 -33 0 -10 3
-10 15 1 11 11 24 13 52 7 20 -5 41 -7 45 -4 4 3 38 5 75 5 47 0 71 -4 78 -14
6 -8 10 -54 9 -103 -3 -164 0 -154 -33 -154 -17 0 -33 -5 -37 -11 -3 -6 -18
-9 -33 -7 -20 3 -27 0 -27 -13 0 -14 4 -15 13 -7 15 12 24 6 93 -64 33 -32 51
-44 61 -38 8 5 20 4 29 -3 8 -6 12 -7 8 -3 -26 30 120 57 150 29 26 -25 36 -9
45 77 2 12 -18 15 -113 18 -63 1 -119 7 -123 11 -5 5 -9 26 -9 47 -1 126 3
211 10 221 12 20 248 21 287 2 30 -14 30 -15 32 -99 1 -47 -5 -106 -12 -131
-13 -46 -13 -47 9 -45 23 1 23 4 25 131 1 90 6 134 15 143 14 14 254 20 275 7
14 -8 15 -271 1 -280 -5 -3 -70 -6 -144 -7 -128 0 -135 -1 -126 -18 6 -10 10
-27 10 -37 0 -11 6 -27 13 -36 10 -15 17 -15 47 -6 79 25 199 18 192 -10 -5
-22 60 -2 101 31 21 16 44 27 52 24 8 -3 29 8 47 26 18 17 27 28 21 24 -7 -4
-13 -2 -13 4 0 6 -5 8 -12 4 -7 -5 -9 -2 -5 8 5 14 1 15 -30 6 -61 -17 -63
-13 -63 131 0 93 4 132 13 138 13 8 250 5 280 -3 12 -4 16 -12 12 -21 -4 -13
-3 -14 10 -3 9 7 18 10 21 7 3 -2 17 6 31 19 14 13 29 21 34 18 5 -3 54 -6
109 -8 97 -3 100 -2 100 19 0 22 -2 22 -123 17 -108 -4 -125 -2 -140 13 -17
16 -19 16 -37 0 -17 -16 -40 -18 -155 -18 -74 -1 -138 3 -142 7 -12 11 -16
282 -5 302 8 13 28 16 131 16 135 0 180 -11 182 -46 1 -19 2 -18 8 4 4 14 17
30 30 36 28 14 28 24 0 38 -13 6 -26 22 -30 36 -7 23 -7 24 -8 3 -2 -36 -31
-43 -180 -43 l-141 0 0 154 0 154 28 9 c15 4 83 6 150 3 119 -5 124 -6 138
-30 l14 -25 6 23 c5 16 19 26 52 35 l46 14 -41 6 c-22 4 -46 14 -53 22 -12 14
-15 14 -31 -1 -14 -13 -43 -16 -154 -16 -76 0 -142 5 -147 10 -6 6 -9 68 -9
143 1 103 5 137 17 150 21 24 274 28 294 4 17 -20 33 -19 53 3 15 16 31 18
132 16 94 -2 115 0 115 12 0 12 -20 13 -114 10 -131 -5 -135 -3 -144 69 -6 61
-28 58 -36 -5 -7 -55 -30 -76 -69 -64 -12 4 -68 7 -124 7 -114 -1 -115 0 -115
73 0 34 -1 34 -44 34 l-44 0 0 -49 c0 -35 -4 -51 -16 -55 -9 -3 -66 -6 -128
-6 -137 0 -160 11 -154 71 2 26 -1 39 -9 39 -8 0 -10 -11 -6 -35 5 -29 1 -39
-17 -55 -13 -11 -32 -20 -43 -20 -16 0 -17 -3 -7 -15 7 -8 18 -15 25 -15 27 0
34 -30 36 -159 2 -124 1 -136 -17 -148 -31 -20 -290 -19 -313 1 -15 14 -19 14
-33 0 -12 -12 -38 -17 -104 -18 l-89 -1 -1 110 c0 93 -4 117 -22 152 -12 23
-22 47 -22 54 0 17 218 2 247 -16 18 -12 23 -12 32 -1 7 8 32 19 58 25 51 13
48 22 -13 39 -44 13 -62 43 -49 83 4 13 2 19 -9 19 -12 0 -16 -10 -16 -35 0
-22 -8 -43 -21 -56 -19 -19 -30 -20 -152 -18 -148 4 -156 8 -157 72 0 20 -4
37 -10 37 -5 0 -10 -16 -10 -36 0 -71 -3 -72 -157 -68 -160 4 -179 12 -169 70
6 30 4 34 -14 34 -22 0 -27 -19 -8 -38 9 -9 8 -16 -5 -30 -9 -10 -15 -21 -12
-24 10 -10 -57 -17 -162 -17 -118 -1 -133 7 -133 70 0 35 -3 39 -25 39 -22 0
-25 -4 -25 -33 0 -59 -25 -71 -156 -76 -140 -4 -164 6 -164 69 0 28 -4 40 -14
40 -11 0 -15 -11 -13 -39 2 -68 -7 -71 -168 -70 -141 0 -143 1 -153 25 -14 29
-32 31 -39 4 -6 -24 -41 -35 -83 -26 -16 3 -67 2 -112 -1 -108 -9 -70 -21 69
-22 111 -1 133 -11 133 -57 0 -13 5 -24 10 -24 6 0 10 11 10 24 0 55 -1 55
163 50 125 -4 154 -8 165 -22 9 -11 11 -53 9 -149 -2 -73 -6 -136 -9 -139 -12
-12 -118 -17 -118 -5 0 6 -7 11 -15 11 -9 0 -15 9 -15 24 0 13 7 29 15 36 16
13 21 50 7 50 -4 0 -8 9 -8 19 0 11 4 17 10 14 5 -4 6 9 2 31 -6 30 -4 41 10
51 16 11 16 14 -3 35 -15 15 -28 20 -42 15 -19 -6 -151 -150 -151 -166 0 -4 8
-17 18 -30 23 -28 53 -20 45 11 -3 12 -2 25 3 29 5 3 15 17 22 31 7 14 10 17
8 8 -3 -10 -3 -25 1 -34 5 -13 7 -13 14 -2 6 8 9 1 9 -23 0 -20 3 -39 7 -43
12 -12 10 -46 -4 -46 -7 0 -13 -9 -13 -21 0 -18 -4 -20 -47 -14 -87 12 -82 6
-81 103 0 48 0 101 -2 117 l-2 30 -13 -30 c-10 -20 -13 -55 -10 -107 6 -105
-2 -112 -101 -108 -29 1 -55 -3 -58 -9 -5 -8 15 -11 61 -11 37 0 73 -4 79 -8
19 -13 25 -45 25 -149 0 -59 4 -103 9 -103 6 0 9 12 8 28 -4 57 3 197 10 208
4 6 33 14 65 17 l58 6 -3 -47 -3 -47 -42 -3 c-41 -3 -43 -5 -43 -36 0 -22 8
-39 25 -54 26 -23 40 -29 30 -13 -8 14 30 32 67 31 18 0 67 0 108 0 l76 -1 12
33 c6 18 9 49 6 69 -8 46 6 57 76 60 64 3 76 -3 114 -54 21 -27 34 -36 47 -32
12 4 19 1 19 -8 0 -7 14 -20 32 -28 l32 -14 -3 -84 c-1 -48 -7 -89 -14 -95 -8
-8 -57 -12 -150 -12 -125 1 -140 3 -153 20 -8 11 -14 30 -14 44 0 35 -15 19
-18 -19 -1 -18 -5 -35 -8 -38 -10 -10 -319 -2 -322 9 -3 7 -9 7 -19 -2 -15
-12 -65 -14 -275 -9 -65 1 -67 2 -70 29 l-4 27 -12 -29 -12 -28 -158 4 -157 5
-7 54 c-10 80 -1 251 14 261 17 10 279 10 296 -1 15 -9 31 -68 33 -126 1 -26
4 -14 9 32 8 90 18 103 82 103 30 0 47 4 43 10 -3 6 -24 10 -45 10 -22 0 -51
5 -65 12 -21 9 -31 9 -46 0 -12 -8 -67 -12 -158 -12 -112 0 -141 3 -151 15
-17 20 -16 281 1 301 9 11 43 14 149 14 121 0 140 -2 162 -20 l25 -19 27 27
c29 31 32 42 13 42 -21 0 -40 45 -33 74 5 20 3 26 -9 26 -11 0 -15 -6 -10 -19
7 -23 -12 -68 -34 -77 -9 -3 -74 -5 -146 -4 -113 1 -133 4 -150 20 -21 19 -21
19 -42 -1 -18 -18 -31 -20 -109 -19 -49 1 -106 2 -128 1 -50 -2 -66 13 -66 60
0 37 -2 39 -30 39 l-30 0 0 -879z m359 730 c23 -30 23 -287 1 -301 -8 -5 -75
-9 -147 -9 -104 1 -135 5 -145 16 -13 16 -13 292 0 305 7 7 164 14 241 12 22
-1 39 -9 50 -23z m1336 4 c39 -7 63 -14 55 -14 -20 -2 -58 -43 -114 -123 -51
-74 -54 -83 -28 -97 10 -6 12 -11 4 -11 -8 0 -12 -10 -10 -27 4 -35 -38 -58
-86 -49 -49 9 -56 33 -53 175 3 115 5 125 26 142 28 23 101 24 206 4z m1820
-9 c14 -18 10 -285 -4 -299 -7 -7 -57 -10 -139 -9 -103 2 -129 6 -139 18 -8
11 -11 58 -10 148 l2 131 35 18 c30 16 50 18 140 12 69 -4 108 -10 115 -19z
m-1481 -27 c0 -19 -4 -41 -8 -48 -4 -6 -4 -42 0 -79 4 -37 7 -73 5 -80 -1 -8
2 -19 7 -25 5 -7 6 -21 2 -32 -7 -19 -16 -21 -87 -19 -117 3 -123 8 -120 99 2
46 -1 76 -8 78 -15 6 14 37 35 37 10 0 23 7 30 15 7 8 17 12 22 9 15 -10 58 5
58 20 0 8 -12 22 -27 32 l-28 19 40 5 c76 10 80 9 79 -31z m296 21 c0 -5 -2
-10 -4 -10 -3 0 -8 5 -11 10 -3 6 -1 10 4 10 6 0 11 -4 11 -10z m166 -51 c10
-17 4 -208 -8 -234 -18 -41 -75 -35 -66 6 2 8 -3 13 -10 11 -9 -1 -10 5 -5 25
10 39 7 124 -5 132 -15 9 -2 59 17 64 32 9 70 7 77 -4z m65 -35 c10 -16 18
-38 18 -49 1 -12 6 -26 13 -33 9 -9 9 -12 0 -12 -7 0 -12 -14 -12 -31 0 -17
-10 -45 -22 -61 l-21 -30 -11 26 c-6 16 -10 70 -8 127 4 107 11 118 43 63z
m-1266 6 c-3 -5 -10 -10 -16 -10 -5 0 -9 5 -9 10 0 6 7 10 16 10 8 0 12 -4 9
-10z m860 -9 c3 -5 1 -12 -5 -16 -5 -3 -10 1 -10 9 0 18 6 21 15 7z m108 -16
c16 -10 24 -26 25 -52 2 -21 10 -45 18 -54 13 -14 13 -24 3 -57 -6 -23 -19
-42 -29 -45 -25 -7 -76 18 -93 45 -16 25 -29 139 -18 155 16 25 63 29 94 8z
m-468 -83 c0 -92 -11 -112 -61 -112 -28 0 -36 5 -45 27 -9 24 -7 31 15 50 14
12 26 29 26 37 0 8 5 18 10 21 6 4 8 11 5 16 -4 5 3 9 14 9 12 0 21 7 21 15 0
8 3 15 8 15 4 0 7 -35 7 -78z m330 -62 c-3 -5 -11 -10 -16 -10 -6 0 -7 5 -4
10 3 6 11 10 16 10 6 0 7 -4 4 -10z m-1764 -87 c10 -12 14 -54 15 -160 l2
-143 -74 0 c-40 0 -75 4 -78 9 -6 10 -56 12 -56 2 0 -3 -26 -6 -58 -6 l-57 0
4 145 c2 80 8 151 13 158 8 8 49 12 143 12 111 0 135 -3 146 -17z m1067 1 c7
-2 12 -20 12 -44 0 -37 -2 -40 -29 -40 -16 0 -43 3 -60 6 -28 6 -32 10 -26 31
4 16 2 22 -5 18 -5 -3 -10 -14 -10 -23 -1 -15 -2 -15 -11 1 -12 21 -4 51 11
42 6 -3 17 1 25 9 15 14 47 14 93 0z m1385 0 c12 -4 28 -14 34 -23 12 -14 15
-14 31 7 17 21 24 22 147 21 180 -1 175 4 175 -151 0 -67 3 -119 6 -115 4 3 9
61 13 127 5 89 11 124 22 131 8 5 73 9 146 9 l131 0 7 -30 c4 -16 4 -33 1 -38
-3 -4 -6 -46 -7 -91 l-2 -83 -25 32 c-27 35 -96 72 -119 63 -23 -9 -16 -62 10
-73 12 -5 18 -9 13 -9 -5 -1 3 -12 18 -26 14 -13 33 -22 41 -19 18 7 20 -10 3
-23 -18 -14 -226 -17 -243 -3 -9 8 -14 7 -18 -3 -4 -12 -37 -14 -164 -13
l-158 1 -3 78 c-4 95 -22 103 -22 10 0 -38 -4 -74 -9 -82 -7 -11 -43 -15 -145
-19 -161 -5 -184 3 -184 63 0 20 -3 39 -6 42 -3 4 -6 -11 -6 -33 0 -66 -4 -68
-147 -70 -162 -3 -179 3 -191 71 l-10 50 -1 -46 c-2 -69 -12 -74 -163 -74 -95
0 -132 3 -140 13 -6 7 -13 49 -14 92 -3 70 -1 81 16 90 11 6 17 16 14 24 -3 9
6 19 25 27 36 16 35 32 0 37 -13 2 -30 9 -37 15 -23 18 7 27 94 27 72 0 83 -2
103 -24 23 -24 36 -27 59 -13 7 5 12 3 12 -4 0 -8 4 -8 15 1 13 11 15 4 16
-56 1 -58 2 -64 10 -39 5 17 7 45 4 63 -12 64 37 82 166 62 60 -9 83 -10 92
-1 6 6 21 11 34 11 19 0 25 -8 35 -45 14 -51 28 -59 28 -17 0 36 27 61 61 57
14 -2 41 0 60 5 38 8 137 5 172 -6z m-1028 -15 c3 -4 -3 -12 -12 -18 -24 -12
-66 15 -44 28 14 9 48 3 56 -10z m1605 -174 c-7 -9 -15 -13 -17 -11 -7 7 7 26
19 26 6 0 6 -6 -2 -15z m129 -191 c7 -6 1 -268 -6 -275 -5 -4 -65 -9 -136 -12
-106 -3 -129 -1 -141 12 -16 17 -27 253 -13 267 4 4 45 8 92 9 46 1 87 4 90 7
5 5 107 -2 114 -8z m-1569 -54 c5 0 10 5 12 11 3 9 9 9 25 1 14 -8 31 -8 54
-2 18 5 35 8 37 5 3 -2 13 0 23 5 12 7 19 6 21 -2 6 -16 83 -15 102 1 11 9 16
9 21 0 5 -8 32 -9 89 -5 92 8 90 8 132 5 l32 -2 0 -108 c0 -65 -5 -115 -12
-124 -13 -17 -185 -32 -257 -21 -59 9 -72 38 -65 136 5 59 3 70 -10 70 -13 0
-15 -11 -14 -57 5 -118 2 -130 -27 -142 -38 -15 -243 -11 -267 5 -16 11 -18
25 -17 116 2 113 7 121 58 112 26 -5 34 -2 40 12 7 18 8 18 11 2 2 -10 7 -18
12 -18z m-182 -281 c22 -17 23 -24 18 -96 -3 -43 -5 -95 -6 -115 0 -64 -15
-70 -167 -66 -105 2 -136 6 -143 18 -6 8 -9 69 -8 135 3 116 4 120 28 132 16
8 66 12 140 12 98 0 119 -3 138 -20z"/>
<path d="M2850 2391 c0 -17 5 -31 10 -31 6 0 10 11 10 24 0 14 -4 28 -10 31
-6 4 -10 -7 -10 -24z"/>
<path d="M2501 2374 c0 -11 3 -14 6 -6 3 7 2 16 -1 19 -3 4 -6 -2 -5 -13z"/>
<path d="M374 2984 c3 -9 6 -21 7 -27 0 -7 4 -3 9 8 13 29 12 35 -6 35 -11 0
-14 -5 -10 -16z"/>
<path d="M1084 2984 c3 -9 6 -18 6 -20 0 -2 5 -4 10 -4 6 0 10 9 10 20 0 12
-7 20 -16 20 -11 0 -14 -5 -10 -16z"/>
<path d="M3009 2879 c-10 -6 -7 -9 14 -10 15 -1 32 -2 37 -3 6 -1 11 3 13 9 3
13 -45 16 -64 4z"/>
<path d="M2856 2801 c-9 -13 -3 -221 5 -221 4 0 9 50 11 111 3 102 -2 134 -16
110z"/>
<path d="M735 2698 c2 -115 3 -121 14 -93 9 24 2 195 -8 195 -4 0 -6 -46 -6
-102z"/>
<path d="M3920 2758 c0 -49 9 -45 16 6 2 20 0 36 -6 36 -5 0 -10 -19 -10 -42z"/>
<path d="M3917 2647 c-3 -7 -2 -19 3 -26 5 -9 9 -8 14 5 4 9 3 21 -2 26 -6 6
-12 4 -15 -5z"/>
<path d="M4100 2530 c-39 -4 -51 -7 -30 -8 19 -1 59 -5 88 -8 44 -6 52 -4 52
10 0 17 0 17 -110 6z"/>
<path d="M3922 2400 c0 -14 2 -19 5 -12 2 6 2 18 0 25 -3 6 -5 1 -5 -13z"/>
<path d="M3922 2330 c0 -14 2 -19 5 -12 2 6 2 18 0 25 -3 6 -5 1 -5 -13z"/>
<path d="M738 2295 c-3 -14 -1 -28 3 -31 5 -3 9 9 9 25 0 38 -6 40 -12 6z"/>
<path d="M4004 2179 c-3 -5 -4 -9 -2 -9 2 -1 48 -2 102 -3 73 -1 100 1 104 11
3 9 -19 12 -97 11 -56 0 -104 -5 -107 -10z"/>
<path d="M3917 2043 c-3 -27 -1 -52 4 -57 5 -6 9 12 9 47 0 31 -2 57 -4 57 -2
0 -6 -21 -9 -47z"/>
<path d="M1097 2073 c-10 -9 -9 -53 1 -53 4 0 9 14 10 30 2 31 0 35 -11 23z"/>
<path d="M241 2026 c-9 -10 -8 -16 4 -26 18 -15 20 -13 29 18 8 25 -14 31 -33
8z"/>
<path d="M381 2001 c-1 -27 2 -32 11 -23 8 8 8 17 0 34 -10 22 -11 21 -11 -11z"/>
<path d="M739 2018 c-7 -63 -7 -88 1 -93 6 -4 10 17 10 49 0 31 -2 56 -5 56
-3 0 -6 -6 -6 -12z"/>
<path d="M3921 1944 c0 -11 3 -14 6 -6 3 7 2 16 -1 19 -3 4 -6 -2 -5 -13z"/>
<path d="M2495 1740 c-3 -5 -4 -30 -1 -55 3 -25 2 -45 -2 -45 -4 0 -8 -18 -9
-41 -2 -58 -40 -89 -111 -89 -29 0 -62 4 -72 10 -12 6 -28 6 -48 -1 -36 -12
-86 6 -88 31 -2 29 -4 31 -18 18 -8 -7 -12 -17 -9 -21 6 -10 -16 -37 -29 -37
-6 0 -4 8 3 17 8 10 -1 5 -19 -10 -19 -15 -37 -27 -40 -27 -4 -1 -23 -14 -42
-31 -19 -17 -30 -29 -25 -28 25 4 56 -2 51 -10 -4 -5 -1 -11 6 -13 8 -3 6 -7
-5 -11 -9 -3 -17 -2 -17 4 0 6 -8 6 -21 -1 -16 -9 -18 -14 -8 -26 9 -11 15
-12 26 -2 8 7 22 13 31 14 8 2 19 9 23 16 7 11 9 11 9 0 0 -7 5 -10 11 -7 18
12 51 -27 44 -52 -4 -16 -1 -23 10 -23 8 0 16 5 16 10 1 6 2 13 3 18 1 4 6 21
10 38 6 26 14 33 40 38 49 9 260 5 272 -5 7 -6 22 -6 38 1 20 7 34 6 56 -5 28
-14 40 -13 85 5 11 5 26 10 34 12 9 3 -1 17 -28 43 -36 35 -46 39 -84 36 -64
-4 -71 10 -72 135 0 97 -5 119 -20 94z"/>
<path d="M739 1738 c-7 -28 -7 -78 1 -78 5 0 10 18 10 40 0 22 -2 40 -5 40 -3
0 -5 -1 -6 -2z"/>
<path d="M2147 1721 c-4 -17 -3 -21 5 -13 5 5 8 16 6 23 -3 8 -7 3 -11 -10z"/>
<path d="M2165 1704 c-9 -15 -12 -23 -6 -20 11 7 35 46 28 46 -3 0 -12 -12
-22 -26z"/>
<path d="M370 1706 c0 -24 17 -28 23 -6 3 13 0 20 -9 20 -8 0 -14 -6 -14 -14z"/>
<path d="M3914 1683 c-4 -21 -7 -41 -6 -45 1 -4 -6 -4 -16 -1 -15 6 -15 4 1
-15 15 -16 18 -29 12 -61 -6 -38 -10 -42 -43 -47 -22 -3 -55 -21 -80 -42 l-43
-37 55 -1 c95 -3 102 -7 100 -58 -1 -24 -5 -49 -8 -54 -13 -22 12 -20 36 3 21
19 25 31 21 59 -5 41 10 49 85 46 26 -2 77 -2 115 -1 l67 1 0 40 0 40 -128 0
c-125 0 -129 1 -141 24 -9 16 -12 52 -10 105 4 86 -4 106 -17 44z"/>
<path d="M2397 1703 c-13 -12 -7 -23 13 -23 13 0 18 5 14 15 -7 16 -17 19 -27
8z"/>
<path d="M1215 1640 c10 -11 20 -20 23 -20 3 0 -3 9 -13 20 -10 11 -20 20 -23
20 -3 0 3 -9 13 -20z"/>
<path d="M730 1600 c0 -16 5 -30 10 -30 6 0 10 14 10 30 0 17 -4 30 -10 30 -5
0 -10 -13 -10 -30z"/>
<path d="M1993 1487 c-4 -7 -17 -19 -28 -25 -11 -6 -15 -12 -9 -12 17 0 60 37
52 45 -3 4 -10 0 -15 -8z"/>
<path d="M1900 1430 c-9 -6 -10 -10 -3 -10 6 0 15 5 18 10 8 12 4 12 -15 0z"/>
<path d="M1410 1405 c0 -4 7 -20 16 -36 11 -22 12 -34 5 -43 -6 -7 -8 -16 -4
-19 3 -4 1 -7 -4 -7 -6 0 -13 5 -15 10 -4 14 -56 18 -60 5 -5 -15 70 -24 107
-12 30 9 32 12 28 46 -3 20 -10 42 -15 49 -10 12 -58 17 -58 7z"/>
<path d="M1089 1388 c-1 -7 -3 -24 -5 -38 -5 -35 6 -121 15 -116 11 7 12 166
1 166 -6 0 -11 -6 -11 -12z"/>
<path d="M2488 1378 c-3 -13 -4 -48 -3 -78 2 -30 -1 -57 -5 -60 -5 -3 4 -13
21 -22 l29 -17 -14 34 c-8 18 -13 35 -11 37 1 2 5 31 9 66 6 50 4 62 -7 62 -8
0 -17 -10 -19 -22z"/>
<path d="M240 1379 c0 -5 11 -9 25 -9 14 0 25 2 25 4 0 2 -11 6 -25 8 -14 3
-25 1 -25 -3z"/>
<path d="M1935 1380 c-3 -5 1 -10 9 -10 8 0 18 5 21 10 3 6 -1 10 -9 10 -8 0
-18 -4 -21 -10z"/>
<path d="M342 1368 c-19 -19 -14 -29 8 -16 20 13 27 28 12 28 -4 0 -13 -5 -20
-12z"/>
<path d="M1840 1368 c0 -9 6 -19 13 -21 7 -3 4 -6 -6 -6 -12 -1 -17 -7 -15
-18 4 -21 59 -25 66 -5 2 6 -2 12 -10 12 -7 0 -21 12 -30 28 -12 18 -18 22
-18 10z"/>
<path d="M89 1357 c7 -9 20 -17 29 -17 14 0 8 15 -6 15 -4 0 -14 4 -22 10 -13
8 -13 7 -1 -8z"/>
<path d="M3284 1355 c10 -8 15 -18 12 -24 -4 -5 -2 -12 3 -15 8 -5 21 15 21
34 0 4 -12 10 -27 13 -25 5 -26 4 -9 -8z"/>
<path d="M1340 1349 c0 -5 5 -7 10 -4 6 3 10 8 10 11 0 2 -4 4 -10 4 -5 0 -10
-5 -10 -11z"/>
<path d="M2183 1353 c10 -3 14 -10 11 -16 -5 -9 -4 -9 6 0 7 6 19 9 26 6 8 -3
14 0 14 6 0 6 -16 11 -37 10 -21 -1 -30 -3 -20 -6z"/>
<path d="M3553 1330 c-12 -5 -27 -19 -34 -32 -7 -13 -17 -26 -23 -30 -8 -5 -7
-8 2 -8 6 0 12 -9 12 -20 0 -11 -6 -20 -12 -20 -24 -1 16 -18 58 -25 46 -7 49
-4 53 62 2 40 -12 84 -27 82 -4 0 -17 -4 -29 -9z"/>
<path d="M120 1313 c8 -3 19 -11 23 -17 6 -7 7 -6 4 4 -2 8 -12 16 -23 17 -13
2 -15 1 -4 -4z"/>
<path d="M295 1310 c-3 -6 1 -7 9 -4 18 7 21 14 7 14 -6 0 -13 -4 -16 -10z"/>
<path d="M2860 1280 c0 -16 -4 -30 -10 -30 -5 0 -10 5 -10 10 0 6 -5 10 -12
10 -9 0 -9 -3 0 -12 7 -7 12 -29 12 -50 0 -28 4 -38 16 -38 8 0 12 5 9 10 -3
6 -1 10 5 10 8 0 10 9 6 24 -3 14 -2 27 3 30 7 5 8 25 2 59 0 4 -5 7 -11 7 -5
0 -10 -13 -10 -30z"/>
<path d="M2137 1250 c-20 -22 -23 -28 -10 -24 16 5 16 4 -1 -10 -17 -14 -18
-19 -6 -41 10 -19 11 -28 2 -37 -17 -17 -105 -22 -133 -8 -23 12 -23 12 -8 -6
9 -10 21 -33 28 -51 8 -20 18 -30 26 -26 8 2 12 10 9 17 -3 7 1 13 8 13 7 0
18 2 23 3 6 1 20 2 33 1 18 -1 22 -7 22 -31 0 -20 -5 -30 -15 -30 -18 0 -20
-31 -3 -48 7 -7 21 -12 33 -12 18 0 20 6 20 57 0 56 0 57 35 66 45 12 256 5
270 -9 25 -25 20 -263 -7 -290 -22 -21 -265 -20 -284 2 -15 19 -20 104 -6 104
19 0 -7 17 -35 24 -29 7 -34 1 -19 -23 6 -9 6 -22 1 -32 -5 -9 -11 -31 -12
-49 -1 -18 -10 -37 -19 -43 -9 -6 -14 -18 -12 -28 3 -11 9 -16 15 -13 5 3 15
0 23 -6 17 -14 21 -35 5 -25 -20 12 -9 -12 21 -45 17 -19 28 -30 25 -23 -4 6
-2 14 4 18 5 3 10 16 10 29 0 41 31 57 119 63 59 4 93 2 131 -11 48 -16 53
-16 94 2 47 21 56 47 20 56 -14 4 -25 16 -28 33 -7 32 -1 241 7 249 3 3 27 9
54 14 43 7 44 15 1 11 -12 -2 -16 3 -12 13 4 10 -1 18 -12 22 -11 4 -35 18
-54 33 -19 14 -29 18 -22 9 11 -14 10 -17 -10 -23 -12 -4 -40 -9 -63 -11 -22
-2 -76 -6 -120 -10 -67 -5 -83 -3 -94 10 -11 13 -11 21 2 49 16 31 15 33 -9
54 -14 12 -23 27 -19 32 11 18 1 12 -28 -19z"/>
<path d="M3909 1255 c-14 -14 -15 -22 -6 -46 9 -24 8 -33 -10 -56 -16 -22 -28
-28 -54 -26 -19 0 -49 1 -67 2 -19 1 -31 5 -27 11 8 13 -27 1 -40 -14 -6 -6
-17 -13 -25 -15 -27 -8 -144 -21 -183 -20 -21 0 -42 -3 -47 -6 -16 -10 8 -45
31 -45 10 0 42 -12 69 -26 64 -33 91 -17 58 36 -7 10 -10 21 -8 24 5 4 224 10
276 7 25 -1 33 -30 35 -124 1 -31 6 -57 11 -57 5 0 9 28 9 63 -1 34 -1 71 -1
83 1 33 41 44 165 44 92 0 115 3 115 14 0 10 -18 14 -72 15 -160 2 -199 21
-208 102 -5 46 -6 49 -21 34z"/>
<path d="M105 1250 c-3 -6 1 -7 9 -4 18 7 21 14 7 14 -6 0 -13 -4 -16 -10z"/>
<path d="M310 1229 c0 -5 5 -7 10 -4 6 3 10 8 10 11 0 2 -4 4 -10 4 -5 0 -10
-5 -10 -11z"/>
<path d="M1 618 l-1 -618 26 0 c14 0 32 7 40 15 22 22 272 22 280 0 8 -19 75
-21 71 -2 -1 9 32 13 135 15 111 2 139 0 151 -13 19 -18 66 -20 72 -3 6 16
243 17 253 2 11 -15 81 -17 99 -2 22 18 237 18 254 1 15 -15 106 -17 111 -3 5
14 271 15 276 1 5 -15 67 -14 80 2 13 16 260 13 276 -3 15 -15 67 -12 80 5 9
12 21 14 54 9 23 -4 42 -10 42 -15 0 -14 74 -11 89 3 11 10 14 10 18 1 6 -16
35 -17 51 -1 9 9 12 9 12 0 0 -7 13 -12 30 -12 17 0 30 5 30 10 0 12 174 9
186 -3 11 -11 169 -8 180 3 14 14 248 14 252 0 5 -13 102 -13 102 1 0 10 95 8
284 -7 55 -4 81 -2 86 6 5 7 52 14 127 17 102 5 121 3 135 -11 21 -21 72 -21
89 0 11 14 29 15 126 9 109 -7 113 -6 113 13 0 17 -9 22 -62 29 -35 4 -85 6
-111 2 -64 -8 -92 16 -102 86 -4 28 -7 58 -6 68 0 9 -4 17 -10 17 -5 0 -9 -8
-9 -19 0 -10 -7 -35 -15 -55 -9 -20 -13 -41 -10 -46 3 -5 -3 -19 -14 -31 -18
-20 -31 -22 -135 -23 -63 0 -118 3 -123 7 -12 12 -19 162 -11 226 4 30 12 58
19 62 9 5 5 11 -14 20 -28 13 -34 24 -17 34 15 9 12 25 -4 25 -8 0 -17 16 -21
37 -4 21 -10 40 -14 43 -4 3 -14 20 -22 38 l-16 32 -16 -51 c-25 -77 -65 -131
-124 -168 -29 -18 -53 -36 -53 -42 0 -13 4 -12 47 10 30 16 47 18 81 12 24 -5
48 -13 52 -17 14 -14 14 -244 1 -257 -14 -14 -211 -20 -245 -7 -14 5 -31 22
-37 37 -10 27 -11 28 -25 8 -9 -11 -19 -26 -23 -34 -6 -10 -37 -15 -103 -19
-102 -5 -147 8 -168 47 -16 31 -16 161 0 171 11 7 10 11 -3 25 -20 19 -20 20
-6 46 7 13 7 24 1 32 -6 7 -12 26 -14 42 -4 36 -33 41 -61 11 -15 -16 -22 -18
-51 -9 -19 6 -38 8 -43 4 -12 -9 -35 -63 -28 -69 3 -3 5 1 5 9 0 11 2 11 10
-1 6 -10 10 -11 10 -2 0 7 15 12 41 12 55 0 74 -24 73 -93 -1 -29 -2 -79 -3
-113 -1 -45 -6 -67 -21 -84 -19 -22 -28 -23 -139 -24 -100 -1 -122 2 -138 17
-19 16 -21 16 -38 -3 -15 -16 -37 -20 -65 -10 -3 1 -15 1 -28 0 -12 -1 -38 4
-56 10 -28 9 -42 8 -71 -5 -85 -35 -105 -10 -111 140 -4 81 -1 113 11 138 l15
32 127 0 127 0 12 -30 c7 -16 10 -43 7 -59 -4 -20 -1 -31 10 -37 8 -5 13 -17
11 -26 -2 -10 0 -31 5 -48 l9 -30 7 32 c4 18 11 30 16 27 5 -3 5 6 0 19 -6 14
-7 28 -4 31 3 3 9 23 12 43 4 25 14 41 29 49 39 19 60 44 55 65 -5 19 -18 24
-64 20 -23 -2 -27 3 -32 31 -3 19 -1 54 3 78 5 25 5 52 0 60 -8 15 -10 22 -10
40 0 6 -9 10 -21 10 -11 0 -17 -5 -14 -10 4 -6 8 -53 10 -106 4 -125 3 -125
-166 -121 -68 1 -129 6 -135 10 -14 8 -15 55 -2 80 6 12 6 23 -3 33 -6 8 -8
14 -4 14 4 0 -3 9 -16 19 l-24 19 -12 -30 c-10 -23 -10 -39 -1 -74 18 -66 3
-73 -142 -72 -148 2 -153 5 -148 107 2 52 -1 76 -10 79 -6 2 -12 -1 -12 -7 0
-6 -4 -11 -10 -11 -5 0 -10 7 -10 15 0 8 -6 15 -14 15 -18 0 -30 -30 -16 -44
11 -11 13 -97 4 -133 -6 -22 -10 -23 -141 -22 -121 1 -136 3 -153 21 -15 16
-17 30 -13 76 3 32 9 75 14 97 9 46 4 56 -15 29 -8 -10 -19 -20 -25 -20 -6 -1
-15 -2 -21 -3 -5 0 -10 -11 -9 -23 0 -13 3 -17 6 -10 2 6 9 12 14 12 6 0 8 -4
4 -9 -3 -5 -1 -12 5 -16 17 -10 12 -121 -6 -136 -20 -16 -168 -24 -244 -12
-63 9 -57 -9 -62 177 -2 105 -1 120 15 130 13 8 20 8 26 -3 10 -15 58 -24 66
-11 3 5 16 7 30 5 14 -1 23 0 21 3 -3 2 2 11 10 20 14 14 14 16 0 24 -9 5 -51
8 -94 6 l-77 -3 -5 35 c-3 19 -2 52 2 72 8 36 9 83 5 163 l-2 40 93 3 c51 1
107 -1 125 -6 34 -9 57 -6 57 9 0 5 14 22 31 38 17 17 28 35 24 40 -3 7 0 8 9
5 25 -10 18 12 -7 23 -21 10 -23 9 -20 -10 7 -42 -34 -57 -169 -64 -110 -6
-122 -5 -134 12 -8 10 -14 29 -14 41 0 13 -5 26 -10 29 -10 6 -14 -1 -24 -48
-4 -15 -14 -30 -24 -33 -35 -11 -62 -28 -62 -37 0 -6 8 -3 17 5 19 16 39 13
59 -7 15 -15 17 -236 3 -282 -11 -36 -21 -38 -129 -35 -175 6 -197 15 -186 77
3 17 7 43 9 59 3 26 2 27 -10 10 -12 -16 -15 -17 -23 -4 -5 8 -6 18 -4 22 3 4
-4 8 -16 8 -19 0 -19 -2 -6 -22 24 -39 26 -95 4 -123 -19 -25 -21 -25 -150
-23 -115 3 -131 5 -144 22 -18 26 -20 266 -2 284 15 15 65 16 70 1 2 -6 11 6
21 25 l17 36 -25 0 c-14 0 -25 -5 -25 -10 0 -6 -13 -4 -30 5 -17 9 -28 20 -25
25 4 6 1 10 -5 10 -6 0 -8 5 -4 12 5 7 2 9 -9 5 -9 -3 -18 -1 -21 6 -2 7 -5 2
-5 -10 -1 -28 -46 -63 -81 -63 -42 0 -43 11 -3 54 l38 40 -43 -37 c-34 -30
-48 -36 -70 -31 -21 4 -24 3 -12 -5 13 -9 13 -11 -2 -11 -10 0 -18 -4 -18 -9
0 -14 50 -25 101 -22 40 2 49 -1 68 -25 20 -25 22 -38 20 -142 -2 -159 -3
-161 -167 -163 -131 -2 -141 1 -142 46 -1 11 -1 74 -1 139 1 135 10 156 67
156 18 0 36 5 39 10 4 6 -11 10 -37 10 -58 0 -72 11 -66 49 4 28 2 31 -23 31
-15 0 -30 6 -32 13 -3 6 -6 -266 -6 -605z m352 104 c11 -13 14 -45 13 -145 -2
-165 3 -161 -157 -153 -64 3 -123 8 -131 11 -9 4 -18 23 -21 43 -6 47 -1 222
8 244 6 16 23 18 140 17 112 0 135 -3 148 -17z m348 8 c14 -8 19 -21 18 -48 0
-20 0 -82 0 -136 0 -60 -4 -105 -11 -113 -14 -17 -269 -17 -293 1 -12 9 -15
38 -17 146 -1 134 -1 135 23 147 30 16 252 17 280 3z m362 -4 c11 -11 13 -43
11 -146 -1 -72 -4 -134 -7 -137 -9 -8 -57 -14 -172 -20 -93 -4 -113 -3 -124
10 -20 25 -21 284 -1 297 8 5 74 10 147 10 100 0 135 -3 146 -14z m-480 -342
c83 -1 113 -5 125 -17 12 -13 15 -39 13 -144 -1 -71 -7 -133 -13 -140 -14 -18
-279 -18 -296 -1 -8 8 -12 57 -12 153 0 154 6 172 50 159 14 -4 74 -8 133 -10z
m-222 -25 c3 -13 5 -79 5 -147 -1 -97 -5 -125 -16 -132 -22 -14 -255 -11 -275
3 -13 10 -16 34 -16 132 -1 66 4 132 9 147 l11 27 138 -3 c135 -4 137 -4 144
-27z m715 -3 l24 -27 11 24 c10 21 20 26 73 31 106 10 200 2 229 -20 15 -10
24 -25 22 -32 -3 -8 -5 -63 -5 -123 0 -107 0 -109 -27 -126 -23 -15 -46 -18
-138 -15 -60 1 -118 5 -127 8 -24 7 -28 28 -29 133 -1 82 -10 114 -26 97 -3
-3 -7 -47 -8 -98 -1 -51 -2 -100 -3 -108 -1 -9 -21 -21 -47 -29 -60 -18 -229
-11 -250 9 -15 16 -24 178 -10 199 4 7 1 18 -5 26 -9 11 -8 21 2 42 12 26 18
28 88 33 41 3 104 5 139 4 57 0 67 -3 87 -28z m1040 6 c11 -16 14 -49 11 -144
-1 -68 -7 -130 -12 -138 -14 -21 -261 -13 -275 9 -4 8 -7 70 -6 138 4 164 0
161 152 158 104 -3 117 -5 130 -23z m-351 6 c2 -7 5 -72 8 -144 3 -116 1 -133
-14 -142 -10 -6 -67 -11 -131 -11 -154 0 -157 2 -159 132 -1 54 1 100 4 104 4
3 2 14 -4 25 -23 43 -9 48 146 48 108 0 147 -3 150 -12z m693 -338 c-17 -26
-32 -26 -18 0 6 11 15 20 20 20 6 0 5 -9 -2 -20z"/>
<path d="M120 1216 c0 -2 8 -10 18 -17 15 -13 16 -12 3 4 -13 16 -21 21 -21
13z"/>
<path d="M150 1176 c0 -2 8 -10 18 -17 15 -13 16 -12 3 4 -13 16 -21 21 -21
13z"/>
<path d="M1460 1105 c-7 -14 -17 -25 -21 -25 -5 0 -5 -7 -2 -17 4 -10 2 -14
-5 -9 -17 10 -22 -7 -8 -27 12 -16 14 -16 31 3 9 10 18 32 20 48 1 16 5 34 9
40 4 7 3 12 -2 12 -5 0 -15 -11 -22 -25z"/>
<path d="M3660 926 c0 -8 4 -17 9 -20 5 -4 7 3 4 14 -6 23 -13 26 -13 6z"/>
<path d="M3582 876 c2 -16 8 -31 15 -33 15 -5 9 35 -8 51 -7 8 -10 3 -7 -18z"/>
<path d="M3908 868 c-2 -37 -3 -42 -11 -55 -6 -10 2 -13 30 -12 26 0 32 3 20
8 -10 4 -18 10 -18 14 1 4 1 21 1 37 0 35 -19 41 -22 8z"/>
<path d="M1403 850 c-7 -11 -13 -27 -13 -35 0 -9 -5 -13 -11 -10 -6 4 -9 0 -7
-11 2 -11 -2 -18 -7 -17 -6 1 -15 -9 -21 -22 -9 -18 -9 -22 1 -19 7 3 20 -5
29 -18 15 -21 16 -21 18 -3 0 11 2 25 2 32 1 7 7 18 14 25 15 15 16 38 1 38
-8 0 -8 4 1 15 6 8 10 21 8 30 -2 13 -5 12 -15 -5z"/>
<path d="M2811 854 c-12 -14 -11 -16 4 -12 10 1 20 9 23 16 5 17 -10 15 -27
-4z"/>
<path d="M3431 844 c0 -11 3 -14 6 -6 3 7 2 16 -1 19 -3 4 -6 -2 -5 -13z"/>
<path d="M1988 814 c-4 -3 0 -20 8 -36 15 -28 14 -29 -17 -42 -30 -13 -31 -14
-12 -24 16 -9 24 -7 42 9 12 11 21 15 21 8 0 -7 2 -10 5 -7 3 2 -5 26 -18 52
-12 26 -26 44 -29 40z"/>
<path d="M2821 804 c0 -11 3 -14 6 -6 3 7 2 16 -1 19 -3 4 -6 -2 -5 -13z"/>
<path d="M1930 790 c0 -5 7 -10 16 -10 8 0 12 5 9 10 -3 6 -10 10 -16 10 -5 0
-9 -4 -9 -10z"/>
<path d="M2718 769 c-20 -10 -40 -24 -44 -30 -5 -8 -3 -9 5 -4 8 4 25 -2 43
-15 23 -17 32 -19 43 -10 11 9 12 17 5 30 -14 26 -12 33 5 27 8 -4 17 -1 21 5
4 7 3 8 -4 4 -7 -4 -12 -2 -12 3 0 15 -19 12 -62 -10z"/>
<path d="M3655 780 c3 -5 10 -10 16 -10 5 0 9 5 9 10 0 6 -7 10 -16 10 -8 0
-12 -4 -9 -10z"/>
<path d="M3735 770 c-3 -5 -12 -7 -20 -3 -21 7 -19 -11 3 -29 25 -22 75 -30
68 -11 -3 8 -6 18 -6 21 0 13 -39 32 -45 22z"/>
<path d="M3988 774 c26 -12 10 -21 -44 -27 -60 -6 -76 -13 -56 -26 8 -5 11
-47 10 -144 -1 -123 -3 -139 -19 -148 -18 -9 -17 -12 13 -53 l33 -43 22 21
c14 13 36 21 60 21 190 3 203 4 203 24 0 17 -9 19 -97 20 -66 1 -109 7 -135
18 -34 15 -37 20 -43 67 -4 28 -4 71 -1 96 2 25 5 59 5 75 1 40 40 62 96 55
22 -3 56 -2 75 2 19 4 50 8 68 8 49 0 38 17 -15 24 -87 10 -188 16 -175 10z"/>
<path d="M1478 713 c3 -16 7 -22 10 -15 2 6 8 9 14 6 5 -3 4 3 -4 15 -18 29
-26 26 -20 -6z"/>
<path d="M2816 505 c9 -14 18 -25 20 -25 2 0 -2 11 -8 25 -6 14 -15 25 -20 25
-5 0 -1 -11 8 -25z"/>
<path d="M3680 425 c0 -8 5 -15 11 -15 6 0 8 -8 4 -19 -8 -28 8 -33 49 -16 19
8 39 15 43 14 22 -4 25 3 7 17 -10 8 -12 12 -4 8 8 -4 12 -3 7 1 -4 5 -15 9
-25 10 -9 1 -34 5 -54 9 -31 6 -38 4 -38 -9z"/>
<path d="M3007 400 c3 -13 0 -20 -8 -21 -8 0 -3 -4 9 -10 34 -13 45 -2 25 26
-22 30 -33 32 -26 5z"/>
<path d="M3212 298 c-20 -20 -13 -28 13 -16 14 6 25 15 25 20 0 12 -24 10 -38
-4z"/>
<path d="M3194 196 c-7 -29 1 -60 15 -52 8 5 6 65 -4 74 -2 2 -7 -7 -11 -22z"/>
<path d="M4087 119 c7 -7 15 -10 18 -7 3 3 -2 9 -12 12 -14 6 -15 5 -6 -5z"/>
</g>
</svg>
