<?xml version="1.0" standalone="no"?>
<!DOCTYPE svg PUBLIC "-//W3C//DTD SVG 20010904//EN"
 "http://www.w3.org/TR/2001/REC-SVG-20010904/DTD/svg10.dtd">
<svg version="1.0" xmlns="http://www.w3.org/2000/svg"
 width="468pt" height="334pt" viewBox="0 0 468 334"
 preserveAspectRatio="xMidYMid meet">
<metadata>
Created by potrace 1.8, written by Peter Selinger 2001-2007
</metadata>
<g transform="translate(0,334) scale(0.111164,-0.111164)"
fill="#000000" stroke="none">
<path d="M2383 2879 c-18 -5 -37 -18 -43 -28 -9 -18 -13 -18 -57 -5 -27 8 -56
13 -67 10 -10 -3 -30 0 -44 5 -21 8 -30 5 -53 -17 l-27 -26 -7 31 c-4 17 -11
31 -16 31 -12 0 -41 -71 -35 -87 3 -7 0 -15 -5 -19 -13 -7 -9 -113 4 -131 5
-7 7 -22 4 -33 -3 -11 -1 -22 3 -25 5 -3 5 -18 1 -33 -9 -31 -5 -50 17 -74 21
-25 33 -22 67 19 28 34 28 35 6 28 -16 -5 -21 -4 -17 4 4 6 3 11 -2 11 -5 0
-9 14 -10 30 0 17 4 30 9 30 5 0 9 5 9 10 0 6 -8 10 -17 10 -13 0 -11 6 11 29
15 16 27 31 26 33 -1 1 6 17 16 34 14 25 24 31 56 32 21 1 38 -3 38 -8 0 -6 6
-10 14 -10 10 0 17 -16 22 -47 3 -27 11 -54 17 -62 13 -15 15 -47 5 -77 -9
-29 2 -42 37 -45 59 -4 65 -1 65 37 0 24 -4 33 -12 28 -8 -5 -9 -2 -3 12 13
30 17 134 7 147 -6 7 -8 24 -5 38 4 22 11 27 47 32 59 8 97 -4 117 -39 22 -36
24 -129 5 -174 -19 -45 -10 -70 24 -70 15 0 32 6 38 13 14 16 18 74 8 107 -5
17 -4 21 2 11 15 -21 7 98 -8 131 -8 17 -18 25 -29 21 -14 -4 -14 -3 -1 6 12
8 10 15 -15 43 -17 18 -34 36 -40 40 -14 11 -123 8 -162 -3z m-232 -152 c-8
-8 -11 -3 -11 19 1 25 2 27 11 11 8 -14 8 -22 0 -30z"/>
<path d="M1755 2843 c-35 -19 -91 -76 -111 -115 -8 -16 -18 -28 -22 -28 -4 0
-13 -14 -21 -31 -12 -27 -12 -33 0 -40 8 -5 20 -6 28 -4 11 5 12 3 1 -10 -7
-8 -17 -12 -23 -8 -7 4 -8 -2 -3 -18 5 -13 9 -35 10 -48 2 -13 10 -28 19 -33
9 -5 17 -15 17 -21 0 -17 59 -85 60 -69 0 17 20 15 20 -2 0 -15 49 -36 86 -36
31 0 82 21 66 27 -9 4 -6 11 10 25 33 29 8 40 -78 34 -78 -5 -89 -1 -109 37
-15 29 -32 149 -18 130 13 -18 39 7 48 45 5 24 11 32 22 28 11 -4 13 -2 9 9
-3 10 3 17 19 21 14 3 25 11 25 17 0 8 3 8 11 0 11 -11 56 -6 65 8 3 5 16 9
29 9 93 0 57 59 -45 74 -19 2 -46 7 -60 10 -14 2 -38 -3 -55 -11z m-76 -311
c0 -24 -1 -25 -9 -7 -12 28 -12 47 0 40 6 -3 10 -18 9 -33z"/>
<path d="M1195 2750 c-66 -79 -67 -81 -51 -105 23 -35 46 -32 46 5 0 17 4 30
9 30 5 0 12 11 15 25 4 15 11 23 17 19 8 -5 8 -9 0 -14 -7 -3 -9 -14 -5 -24 5
-12 9 -14 14 -6 4 6 10 -14 14 -46 4 -32 3 -60 -1 -63 -4 -3 -9 -35 -10 -70
-1 -77 -10 -87 -75 -90 -27 -1 -23 -53 5 -79 27 -26 37 -28 37 -8 0 18 32 24
139 26 94 1 101 3 101 30 0 14 -13 23 -52 35 -28 8 -58 15 -66 15 -9 0 -13 7
-9 20 3 11 1 20 -4 20 -5 0 -9 -8 -9 -17 0 -15 -2 -16 -10 -3 -14 22 -12 46 6
64 14 15 14 16 0 16 -22 0 -22 82 -1 100 16 13 21 40 7 40 -4 0 -8 9 -8 19 0
11 4 17 8 15 12 -8 9 31 -3 43 -6 6 -18 9 -27 6 -10 -4 -13 -1 -10 8 3 8 15
15 27 15 36 2 48 21 25 39 -38 29 -59 19 -129 -65z"/>
<path d="M3360 2333 c0 -35 14 -58 29 -49 6 4 10 4 9 -1 -5 -15 41 -53 57 -47
10 4 15 0 15 -10 0 -9 -3 -16 -7 -17 -5 0 -17 -2 -28 -4 -11 -2 -105 -7 -210
-10 -104 -3 -253 -8 -330 -11 -128 -4 -883 -16 -1050 -17 -38 0 -216 3 -395 7
-179 3 -467 8 -640 11 -173 4 -376 9 -450 12 -187 9 -297 9 -305 1 -4 -4 -8
-26 -9 -50 -2 -44 15 -78 40 -78 7 0 36 -27 65 -60 29 -33 55 -60 58 -60 3 0
7 14 8 30 1 17 -3 30 -9 30 -9 0 -9 3 0 12 7 7 12 20 12 30 0 10 5 18 10 18 6
0 10 6 10 14 0 19 29 29 46 15 11 -9 134 -8 169 2 6 2 25 -1 44 -5 23 -6 36
-4 41 4 5 8 15 10 26 5 11 -4 56 -10 102 -12 69 -4 82 -2 82 10 0 9 4 18 9 21
5 4 7 -3 4 -14 -4 -16 -2 -19 11 -14 9 3 16 1 16 -5 0 -7 7 -7 25 1 14 6 25
16 25 22 0 7 3 6 8 -1 10 -16 432 -27 432 -12 0 5 5 9 11 9 6 0 9 -6 6 -14 -4
-11 2 -12 29 -6 19 4 34 4 34 -1 0 -4 6 -6 14 -3 8 3 17 1 21 -5 10 -16 23
-13 28 7 4 15 5 15 6 0 1 -15 18 -16 179 -14 97 2 185 -1 195 -6 9 -5 23 -6
30 -1 6 4 57 8 112 10 125 4 152 6 160 15 3 3 18 0 32 -7 15 -8 30 -12 34 -10
5 4 240 15 341 17 16 0 29 7 31 17 4 14 5 14 6 0 1 -12 15 -15 76 -15 41 1 75
5 75 9 0 4 8 4 18 -1 17 -9 124 -8 197 3 22 3 78 6 125 7 46 0 97 4 112 8 19
6 30 4 39 -7 11 -12 15 -13 23 -1 8 9 39 14 101 15 141 3 167 3 217 -2 39 -3
50 0 58 15 16 30 13 35 -45 93 -30 30 -55 57 -55 61 0 24 -66 66 -104 66 -22
0 -26 -5 -26 -27z m35 -13 c-3 -5 -11 -10 -16 -10 -6 0 -7 5 -4 10 3 6 11 10
16 10 6 0 7 -4 4 -10z m-2995 -159 c0 -5 -11 -8 -25 -8 -14 0 -25 3 -25 8 0 5
11 9 25 9 14 0 25 -4 25 -9z m-230 -5 c0 -3 -4 -8 -10 -11 -5 -3 -10 -1 -10 4
0 6 5 11 10 11 6 0 10 -2 10 -4z"/>
<path d="M243 2029 c-9 -9 -8 -15 3 -27 17 -16 19 -15 28 16 8 24 -11 31 -31
11z"/>
<path d="M2510 1906 c0 -9 5 -16 10 -16 6 0 10 4 10 9 0 6 -4 13 -10 16 -5 3
-10 -1 -10 -9z"/>
<path d="M2534 1835 c-8 -33 4 -155 17 -171 6 -7 8 -18 4 -23 -18 -29 60 -124
184 -224 103 -83 114 -96 100 -113 -7 -8 -7 -14 1 -19 6 -3 8 -10 5 -15 -3 -5
0 -12 6 -16 9 -5 10 2 6 24 -6 28 -4 32 16 32 13 0 27 -4 32 -9 6 -5 27 -14
48 -21 31 -10 38 -16 34 -31 -3 -12 3 -27 14 -38 22 -20 17 -48 -9 -53 -10 -2
-33 0 -52 5 -19 5 -57 6 -85 2 -78 -10 -217 -7 -248 6 -15 6 -30 9 -34 5 -3
-3 -20 5 -37 18 -41 31 -95 58 -107 54 -17 -6 67 -94 106 -112 19 -9 35 -21
35 -26 0 -13 -3 -13 -36 4 -34 19 -73 4 -53 -20 13 -15 39 -19 39 -5 0 13 97
6 165 -13 32 -9 72 -16 87 -16 25 0 67 -29 69 -47 0 -5 2 -18 3 -31 2 -16 -7
-29 -28 -44 -17 -12 -49 -40 -71 -62 -80 -81 -187 -143 -298 -172 -70 -18 -97
-30 -97 -44 0 -29 190 2 251 41 25 16 50 29 55 29 5 0 27 16 49 36 84 75 126
107 132 101 3 -4 0 -13 -7 -22 -8 -10 -9 -15 -1 -15 6 0 11 -11 11 -25 0 -16
-6 -25 -15 -25 -8 0 -15 -4 -15 -9 0 -5 -11 -8 -24 -5 -31 5 -44 -13 -21 -30
32 -23 11 -57 -70 -114 -68 -49 -94 -82 -64 -82 7 0 18 -8 25 -18 13 -16 14
-16 7 2 -5 15 -3 18 10 13 11 -4 23 3 37 20 33 42 23 12 -25 -71 -25 -44 -45
-82 -45 -86 0 -4 -12 -25 -27 -46 -45 -64 -53 -82 -47 -101 4 -12 3 -14 -3 -5
-12 16 -79 -95 -95 -156 -6 -23 -14 -45 -19 -48 -5 -3 -9 -12 -9 -20 0 -20 34
21 92 112 25 40 51 75 57 79 6 3 25 33 41 65 16 32 36 65 45 73 8 9 29 47 46
84 32 71 63 113 85 113 18 0 34 -33 34 -70 0 -24 4 -30 18 -28 13 2 17 -3 15
-28 -3 -28 1 -34 36 -47 41 -17 50 -17 94 1 30 13 59 4 112 -34 73 -52 141
-49 232 11 29 19 58 35 65 35 14 0 62 80 89 150 l18 45 2 -45 c5 -111 -3 -130
-53 -130 -16 0 -28 -4 -28 -8 0 -9 15 -12 58 -13 14 -1 22 -7 22 -19 0 -10 7
-23 15 -30 11 -9 15 -9 15 -1 0 7 4 10 9 6 6 -3 15 4 21 15 8 16 21 20 60 20
50 0 69 12 52 33 -5 7 -17 48 -26 92 -9 44 -21 93 -26 109 -12 36 -4 48 9 15
5 -13 22 -36 38 -50 16 -15 41 -51 58 -80 50 -93 145 -208 234 -285 123 -104
120 -72 -6 63 -68 74 -232 310 -260 375 -10 22 -9 26 5 23 9 -1 25 4 35 13 18
16 24 37 7 27 -5 -3 -22 6 -36 20 -15 15 -36 28 -47 30 -53 11 -108 87 -88
123 7 13 16 7 52 -32 24 -27 60 -57 80 -67 21 -10 44 -26 53 -35 29 -29 196
-19 196 12 0 8 5 14 11 14 5 0 7 5 4 10 -4 6 -36 10 -73 9 -107 -3 -139 12
-241 113 -84 83 -91 92 -91 129 0 34 4 41 27 50 15 6 45 11 65 12 29 1 37 5
33 17 -4 11 11 20 56 35 66 21 148 85 174 136 29 55 16 53 -69 -11 -37 -27
-71 -50 -77 -50 -5 0 -23 -7 -40 -15 -21 -11 -69 -17 -169 -19 -77 -2 -146 -8
-152 -13 -7 -5 -23 -10 -35 -11 -18 0 -23 5 -23 23 0 13 6 28 14 32 8 4 15 17
17 28 3 15 23 27 80 46 84 28 110 42 246 132 77 51 97 70 127 121 23 38 34 67
30 79 -4 12 -2 17 4 13 14 -8 19 1 37 70 8 32 11 62 7 66 -5 5 -35 -43 -68
-106 -38 -74 -69 -121 -89 -135 -16 -11 -47 -36 -67 -55 -38 -35 -48 -36 -43
-3 4 21 -27 23 -45 2 -7 -8 -22 -15 -34 -15 -15 -1 -27 -14 -42 -43 -11 -23
-27 -42 -35 -42 -8 0 -32 -10 -54 -21 -22 -12 -57 -24 -79 -27 -21 -3 -47 -14
-57 -23 -13 -11 -23 -14 -29 -8 -11 11 -32 104 -34 144 -1 35 -43 71 -76 64
-40 -9 -70 -26 -70 -41 0 -7 -10 -13 -22 -12 -22 0 -22 1 -3 9 19 8 19 9 -3 9
-19 1 -23 -4 -20 -21 2 -17 9 -22 25 -21 20 2 21 0 12 -30 -5 -17 -9 -48 -9
-67 l0 -35 -20 25 c-11 14 -20 21 -20 15 0 -5 -5 -3 -10 5 -8 13 -11 13 -26
-2 -20 -19 -55 -10 -91 24 -14 13 -30 19 -43 15 -11 -3 -17 -1 -14 4 3 5 -3
12 -13 16 -10 4 -35 26 -57 50 -22 25 -46 43 -55 41 -16 -3 -47 24 -105 93
-27 32 -47 96 -70 232 -8 42 -23 48 -32 12z m1086 -390 c-7 -9 -15 -13 -19
-10 -3 3 1 10 9 15 21 14 24 12 10 -5z m30 -22 c0 -5 -15 -16 -33 -26 l-32
-17 30 25 c33 27 35 28 35 18z m-705 -103 c8 -13 -5 -13 -25 0 -13 8 -13 10 2
10 9 0 20 -4 23 -10z m185 -156 c0 -8 -4 -12 -10 -9 -5 3 -10 10 -10 16 0 5 5
9 10 9 6 0 10 -7 10 -16z m230 -55 c0 -5 -4 -9 -10 -9 -5 0 -10 7 -10 16 0 8
5 12 10 9 6 -3 10 -10 10 -16z m164 -41 c7 -30 -2 -37 -41 -31 -19 3 -33 12
-36 23 -6 25 0 30 39 30 24 0 33 -5 38 -22z m-514 0 c-1 -7 -7 -24 -15 -38
-14 -24 -14 -24 -15 -3 0 28 10 53 21 53 5 0 9 -6 9 -12z m427 -30 c-3 -8 -6
-5 -6 6 -1 11 2 17 5 13 3 -3 4 -12 1 -19z m-387 -23 c0 -8 -4 -15 -10 -15 -5
0 -7 7 -4 15 4 8 8 15 10 15 2 0 4 -7 4 -15z m-150 -20 c-32 -18 -41 -18 -34
0 4 8 18 15 33 15 l26 -1 -25 -14z m537 -1 c-3 -3 -12 -4 -19 -1 -8 3 -5 6 6
6 11 1 17 -2 13 -5z m-477 -14 c0 -5 -2 -10 -4 -10 -3 0 -8 5 -11 10 -3 6 -1
10 4 10 6 0 11 -4 11 -10z m437 -12 c-3 -8 -6 -5 -6 6 -1 11 2 17 5 13 3 -3 4
-12 1 -19z m13 -38 c0 -5 -4 -10 -10 -10 -5 0 -10 5 -10 10 0 6 5 10 10 10 6
0 10 -4 10 -10z m-506 -25 c3 -9 -3 -19 -14 -25 -17 -9 -20 -7 -20 10 0 12 5
18 10 15 6 -3 10 -1 10 4 0 16 7 13 14 -4z m-244 -515 c0 -5 -5 -10 -11 -10
-5 0 -7 5 -4 10 3 6 8 10 11 10 2 0 4 -4 4 -10z"/>
<path d="M3964 1825 c-17 -13 -17 -14 -2 -15 9 0 20 5 23 11 11 17 0 20 -21 4z"/>
<path d="M2181 1714 c-17 -25 -31 -47 -31 -50 0 -3 -10 -18 -21 -33 -13 -17
-18 -34 -14 -42 5 -7 4 -10 -3 -6 -9 6 -52 -33 -119 -108 -12 -14 -28 -25 -35
-25 -7 0 -4 6 7 12 21 12 46 41 40 46 -2 2 -20 -8 -40 -24 -20 -15 -45 -28
-54 -29 -10 -1 -30 -9 -45 -18 -25 -17 -27 -16 -46 3 -11 11 -29 20 -40 20
-11 0 -20 5 -20 11 0 6 -20 9 -51 7 -54 -3 -63 -10 -73 -60 l-6 -27 -61 35
c-41 22 -69 32 -82 28 -12 -4 -17 -2 -13 4 3 6 -4 14 -16 18 -13 4 -26 11 -29
16 -3 5 -19 10 -35 11 -16 1 -42 14 -59 29 -16 16 -35 28 -42 28 -6 0 -18 8
-25 18 -29 42 -128 145 -134 140 -7 -8 32 -88 59 -119 13 -14 50 -47 83 -73
32 -25 65 -51 72 -57 11 -9 92 -47 188 -89 38 -16 57 -44 49 -70 -5 -16 -10
-17 -36 -8 -17 6 -48 7 -72 3 -64 -11 -119 -6 -139 12 -10 9 -18 12 -19 7 0
-5 -7 13 -14 41 -8 27 -11 61 -8 74 5 19 3 23 -9 18 -9 -3 -20 -1 -26 5 -6 6
-19 7 -29 4 -16 -7 -15 -9 10 -22 21 -12 26 -20 21 -36 -9 -31 16 -106 44
-128 13 -11 43 -25 65 -31 22 -6 49 -22 59 -35 15 -19 25 -23 46 -18 27 6 27
6 6 -9 -31 -23 -94 -88 -94 -96 0 -15 -72 -73 -99 -81 -15 -4 -50 -5 -79 -2
-43 4 -51 2 -47 -10 6 -16 60 -38 92 -38 35 0 106 36 137 68 16 17 32 29 36
27 4 -3 10 5 13 16 3 12 10 18 16 14 6 -3 9 0 6 7 -5 14 11 46 18 38 8 -9 -21
-104 -32 -108 -6 -2 -11 -8 -11 -14 0 -5 -9 -22 -19 -37 -16 -22 -29 -28 -62
-29 -23 -1 -44 -4 -47 -6 -2 -3 8 -17 22 -31 14 -14 26 -28 26 -31 0 -9 -94
-170 -112 -190 -10 -11 -18 -23 -18 -27 0 -4 -20 -32 -45 -63 -25 -30 -45 -62
-45 -72 1 -22 143 127 160 168 7 17 16 30 20 30 3 0 21 28 38 63 18 34 40 72
50 84 17 23 17 22 14 -30 -2 -28 -10 -59 -17 -67 -17 -20 -4 -103 20 -130 19
-20 19 -20 36 26 10 25 15 52 12 60 -9 24 14 15 32 -13 28 -42 66 -74 118 -98
48 -23 59 -23 133 0 16 5 23 2 27 -14 8 -33 23 -25 36 19 13 44 28 52 33 17 2
-18 9 -22 33 -20 38 3 65 35 65 77 0 26 6 35 33 49 l32 16 -28 0 c-35 1 -67
17 -67 34 0 7 12 25 26 41 24 27 26 28 39 10 8 -11 15 -22 15 -27 0 -11 43
-101 51 -107 3 -3 14 -20 24 -39 22 -44 69 -87 128 -117 60 -31 60 -16 1 33
-25 21 -62 61 -83 88 -59 78 -111 225 -71 200 5 -3 12 -1 15 5 9 15 -14 40
-36 40 -12 0 -33 23 -59 62 -41 64 -47 78 -31 78 12 0 37 -25 58 -57 44 -67
161 -110 218 -81 l28 15 -49 13 c-27 7 -53 14 -59 14 -35 3 -79 34 -105 74
-16 25 -30 49 -30 54 0 4 -18 24 -39 43 -34 31 -38 38 -28 58 9 20 17 22 86
22 92 1 118 15 154 85 32 62 16 65 -34 8 -36 -41 -40 -43 -91 -43 -30 1 -80 9
-112 19 -33 11 -70 16 -87 12 -33 -6 -35 1 -18 48 10 26 29 39 108 78 128 62
193 121 236 212 34 71 52 126 42 126 -3 0 -19 -20 -36 -46z m-14 -56 c-3 -8
-6 -5 -6 6 -1 11 2 17 5 13 3 -3 4 -12 1 -19z m-247 -223 c0 -2 -10 -9 -22
-15 -22 -11 -22 -10 -4 4 21 17 26 19 26 11z m-260 -180 c0 -14 -4 -25 -9 -25
-6 0 -8 36 -2 48 5 10 11 -2 11 -23z m-51 -60 c-13 -30 -28 -55 -33 -55 -4 0
-5 7 -2 16 3 9 6 21 6 27 0 18 40 80 47 73 3 -3 -5 -30 -18 -61z m23 -29 c-12
-24 -30 -50 -39 -57 -19 -16 -18 -12 20 59 34 64 50 62 19 -2z m-109 -11 c-3
-9 -8 -14 -10 -11 -3 3 -2 9 2 15 9 16 15 13 8 -4z m338 -102 c1 -10 3 -28 4
-40 1 -12 -3 -19 -9 -17 -13 5 -17 74 -4 74 4 0 9 -8 9 -17z"/>
<path d="M1065 1720 c-8 -13 15 -13 35 0 12 8 11 10 -7 10 -12 0 -25 -4 -28
-10z"/>
<path d="M2230 1490 c0 -5 -6 -7 -14 -4 -8 3 -17 1 -21 -5 -3 -6 -16 -11 -28
-11 -12 -1 -32 -6 -45 -13 l-23 -13 25 -14 c22 -11 28 -11 43 1 30 24 62 39
82 39 10 0 21 7 25 15 4 11 -1 15 -19 15 -14 0 -25 -4 -25 -10z"/>
<path d="M2472 1493 c-23 -9 -1 -23 26 -17 22 5 25 4 15 -7 -22 -23 -14 -31
25 -25 20 3 42 6 47 6 6 0 2 7 -8 15 -11 7 -25 11 -32 9 -7 -3 -15 2 -18 10
-6 16 -29 19 -55 9z"/>
<path d="M2810 1490 c0 -5 5 -10 10 -10 6 0 10 5 10 10 0 6 -4 10 -10 10 -5 0
-10 -4 -10 -10z"/>
<path d="M3270 1461 c0 -14 5 -19 15 -14 17 6 15 25 -3 31 -7 2 -12 -5 -12
-17z"/>
<path d="M2829 1450 c28 -24 37 -25 45 -4 3 8 2 12 -4 9 -6 -3 -10 -1 -10 4 0
6 -12 11 -27 11 l-28 -1 24 -19z"/>
<path d="M330 1445 c0 -5 4 -17 9 -24 14 -22 -5 -49 -36 -53 -23 -4 -25 -6
-10 -12 22 -10 67 18 67 42 0 10 -7 27 -15 38 -8 10 -14 15 -15 9z"/>
<path d="M30 1431 c0 -5 7 -14 15 -21 8 -7 15 -23 15 -35 0 -26 13 -39 55 -52
34 -11 44 -43 21 -62 -12 -10 -13 -18 -5 -35 22 -41 62 -76 88 -76 32 1 91 53
91 81 0 20 1 20 31 -5 31 -26 59 -34 59 -17 0 5 -15 15 -32 21 -18 6 -46 27
-61 45 l-28 34 28 6 c44 10 78 32 81 54 2 12 -2 21 -8 21 -7 0 -10 -6 -7 -14
8 -21 -37 -40 -90 -37 -17 1 -21 5 -16 18 5 12 2 15 -10 10 -13 -5 -17 0 -18
21 0 15 -3 21 -6 14 -2 -6 -9 -10 -14 -6 -5 3 -9 -1 -9 -8 0 -9 -3 -9 -10 2
-8 12 -10 11 -10 -7 0 -20 -4 -22 -32 -17 -37 7 -108 49 -108 64 0 6 -4 10
-10 10 -5 0 -10 -4 -10 -9z m120 -84 c8 -3 -2 -6 -22 -6 -27 -1 -40 4 -48 19
-10 18 -9 18 22 6 18 -7 40 -16 48 -19z m22 -29 c-7 -7 -12 -8 -12 -2 0 14 12
26 19 19 2 -3 -1 -11 -7 -17z"/>
<path d="M670 1411 c0 -15 -2 -30 -5 -33 -3 -3 -28 6 -56 21 l-50 26 -20 -24
c-20 -24 -20 -24 2 -47 12 -13 21 -25 18 -26 -2 -2 -13 -8 -24 -14 -25 -14
-31 -42 -11 -49 9 -3 23 -7 31 -10 22 -7 9 -28 -28 -45 -55 -24 -73 -52 -41
-64 16 -6 50 15 66 41 9 13 48 6 48 -9 0 -5 -4 -6 -10 -3 -5 3 -10 1 -10 -5 0
-6 -4 -8 -10 -5 -5 3 -10 1 -10 -4 0 -6 -6 -11 -12 -11 -19 0 -68 -83 -68
-114 0 -32 19 -34 51 -5 l24 20 -22 -6 c-26 -7 -27 -5 -11 30 13 30 44 33 53
5 4 -11 6 -45 6 -75 l0 -54 39 4 c48 4 118 -16 113 -32 -3 -7 0 -13 6 -13 6 0
11 5 11 10 0 6 18 28 41 51 39 39 42 40 59 24 37 -34 57 -7 51 69 -2 17 1 26
8 22 5 -4 13 -1 17 6 5 8 10 6 15 -8 7 -17 8 -17 8 -1 1 9 6 17 11 17 6 0 10
5 10 10 0 6 -6 10 -14 10 -8 0 -17 6 -19 13 -4 9 -8 9 -15 -1 -7 -10 -11 -6
-15 15 -3 16 -20 43 -37 60 -20 19 -27 33 -21 38 6 3 11 0 11 -7 0 -8 3 -9 8
-3 4 6 16 15 27 21 11 6 21 21 23 33 3 17 -3 22 -28 27 l-31 7 21 21 c38 41
19 81 -31 64 -16 -5 -27 -14 -24 -18 3 -4 -2 -11 -11 -14 -8 -3 -12 -2 -9 4 3
6 -1 10 -9 10 -9 0 -16 -5 -16 -11 0 -5 -5 -7 -11 -4 -6 4 -7 19 -4 36 5 22 3
29 -9 29 -9 0 -16 -5 -16 -11 0 -5 -5 -7 -12 -3 -7 4 -22 9 -35 10 -19 2 -23
-2 -23 -25z m30 -22 c0 -11 -4 -18 -10 -14 -5 3 -7 12 -3 20 7 21 13 19 13 -6z
m-64 -155 c-3 -9 -6 -18 -6 -20 0 -2 -9 -4 -20 -4 -19 0 -19 1 -3 20 21 24 38
26 29 4z m232 -194 c-2 -14 -7 -17 -17 -11 -9 6 -12 18 -7 37 7 25 9 27 17 11
6 -10 9 -26 7 -37z"/>
<path d="M1310 1406 c0 -2 8 -10 18 -17 15 -13 16 -12 3 4 -13 16 -21 21 -21
13z"/>
<path d="M3975 1330 c-3 -5 -2 -10 4 -10 5 0 13 5 16 10 3 6 2 10 -4 10 -5 0
-13 -4 -16 -10z"/>
<path d="M3535 1290 c-3 -5 1 -10 9 -10 8 0 18 5 21 10 3 6 -1 10 -9 10 -8 0
-18 -4 -21 -10z"/>
<path d="M93 1254 c-13 -21 -23 -25 -50 -22 -36 4 -41 -15 -5 -20 13 -2 35 10
59 32 21 20 32 36 26 36 -7 0 -20 -12 -30 -26z"/>
<path d="M3550 1260 c0 -5 4 -10 9 -10 6 0 13 5 16 10 3 6 -1 10 -9 10 -9 0
-16 -4 -16 -10z"/>
<path d="M2378 1253 c7 -3 16 -2 19 1 4 3 -2 6 -13 5 -11 0 -14 -3 -6 -6z"/>
<path d="M931 1044 c0 -11 3 -14 6 -6 3 7 2 16 -1 19 -3 4 -6 -2 -5 -13z"/>
<path d="M2137 781 c-6 -24 0 -51 12 -51 3 0 13 5 21 10 13 8 13 11 -1 22 -9
7 -19 20 -21 28 -3 10 -6 7 -11 -9z"/>
<path d="M1228 753 c7 -3 16 -2 19 1 4 3 -2 6 -13 5 -11 0 -14 -3 -6 -6z"/>
<path d="M2490 740 c-13 -8 -12 -10 3 -10 9 0 17 5 17 10 0 12 -1 12 -20 0z"/>
<path d="M2317 653 c-4 -3 -7 -11 -7 -17 0 -6 5 -5 12 2 6 6 9 14 7 17 -3 3
-9 2 -12 -2z"/>
<path d="M2226 622 c-2 -4 2 -15 9 -26 10 -13 18 -15 30 -9 16 9 16 11 0 26
-18 18 -31 21 -39 9z"/>
<path d="M2140 530 c0 -5 5 -10 11 -10 5 0 7 5 4 10 -3 6 -8 10 -11 10 -2 0
-4 -4 -4 -10z"/>
<path d="M2512 412 c-20 -2 -32 -8 -29 -15 6 -17 97 -6 97 11 0 9 -19 10 -68
4z"/>
<path d="M2497 363 c-11 -10 -8 -63 3 -63 6 0 10 16 10 35 0 36 -2 40 -13 28z"/>
<path d="M2851 164 c0 -11 3 -14 6 -6 3 7 2 16 -1 19 -3 4 -6 -2 -5 -13z"/>
<path d="M3911 100 c1 -8 5 -26 9 -40 l8 -25 1 25 c0 14 -4 32 -9 40 -9 13
-10 13 -9 0z"/>
<path d="M2830 60 c0 -5 -25 -10 -57 -10 -69 0 -64 -10 9 -17 33 -3 56 -10 62
-20 7 -13 10 -11 20 8 9 19 9 27 0 37 -15 15 -34 16 -34 2z"/>
<path d="M2295 51 l-30 -7 38 -7 c39 -8 61 -2 52 14 -7 10 -15 10 -60 0z"/>
</g>
</svg>
