<?xml version="1.0" standalone="no"?>
<!DOCTYPE svg PUBLIC "-//W3C//DTD SVG 20010904//EN"
 "http://www.w3.org/TR/2001/REC-SVG-20010904/DTD/svg10.dtd">
<svg version="1.0" xmlns="http://www.w3.org/2000/svg"
 width="468pt" height="480pt" viewBox="0 0 468 480"
 preserveAspectRatio="xMidYMid meet">
<metadata>
Created by potrace 1.8, written by Peter Selinger 2001-2007
</metadata>
<g transform="translate(0,480) scale(0.165957,-0.165957)"
fill="#000000" stroke="none">
<path d="M2390 2842 c0 -36 -59 -192 -72 -192 -5 0 -8 -4 -8 -10 0 -28 -126
-150 -183 -179 -86 -42 -178 -63 -297 -68 -174 -7 -272 -51 -305 -138 -10 -25
-21 -45 -25 -45 -4 0 -24 15 -44 33 l-38 32 22 55 c12 30 33 75 48 100 40 67
52 99 52 136 0 19 -2 34 -5 34 -12 0 -75 -35 -75 -42 0 -4 -6 -8 -14 -8 -24 0
-114 -89 -143 -141 -16 -27 -31 -49 -34 -49 -4 0 -22 14 -40 31 -112 105 -204
54 -160 -88 8 -26 7 -33 -4 -33 -8 0 -17 5 -20 10 -10 15 -46 12 -116 -11 -69
-22 -111 -54 -130 -101 -10 -24 -9 -32 4 -45 13 -14 27 -14 117 -3 94 12 104
12 133 -5 37 -21 47 -33 47 -57 0 -15 -9 -18 -50 -18 -65 0 -105 -22 -160 -88
-80 -97 -130 -141 -193 -174 -142 -71 -311 -38 -519 103 -87 58 -131 72 -141
45 -13 -32 239 -211 339 -242 118 -36 176 -43 259 -32 117 15 177 49 310 172
56 52 105 72 119 48 8 -14 5 -29 -30 -141 -8 -25 -14 -55 -14 -68 0 -20 -5
-23 -37 -23 -53 0 -95 -28 -198 -134 -105 -109 -143 -134 -245 -165 -41 -12
-88 -26 -103 -31 -19 -6 -54 -5 -105 5 -48 9 -78 11 -80 5 -2 -5 -4 -11 -5
-13 -1 -3 19 -21 45 -40 61 -46 143 -71 210 -63 141 17 199 49 333 183 94 94
125 111 150 86 30 -30 17 -59 -61 -140 -81 -84 -121 -141 -184 -269 -47 -96
-66 -200 -56 -311 9 -100 22 -133 52 -133 23 0 24 3 24 63 1 125 28 234 92
365 42 86 103 151 160 171 26 9 28 8 36 -22 7 -27 4 -39 -18 -72 -15 -22 -34
-62 -44 -90 -40 -121 -28 -406 24 -530 4 -11 15 -36 24 -57 9 -20 16 -39 16
-43 0 -8 80 -133 106 -165 39 -48 81 -87 134 -125 30 -21 62 -47 71 -58 13
-16 19 -18 38 -7 22 11 22 12 -26 63 -27 29 -59 63 -72 77 -47 51 -109 146
-126 195 -9 28 -21 59 -25 70 -22 53 -60 298 -60 386 0 32 5 81 11 110 l11 52
14 -31 c13 -32 63 -109 86 -134 7 -7 26 -31 42 -53 72 -99 239 -234 334 -270
44 -16 153 -35 206 -35 64 0 163 40 280 113 35 22 97 88 140 151 57 83 96 225
96 353 0 76 -23 229 -40 268 -8 20 -30 85 -30 91 0 10 18 2 45 -18 92 -70 267
-279 281 -334 4 -13 10 -24 14 -24 9 0 25 -40 22 -52 -1 -5 2 -8 7 -8 5 0 14
-15 21 -32 7 -18 21 -51 31 -73 14 -33 40 -144 65 -273 8 -41 34 -26 35 21 2
97 -1 216 -7 270 -7 63 -51 202 -83 264 -93 177 -308 383 -474 454 -42 18 -79
39 -81 46 -8 19 97 17 165 -3 124 -37 314 -148 393 -231 79 -82 103 -22 31 77
-86 117 -246 233 -395 285 -82 29 -217 54 -274 50 -50 -3 -58 0 -76 23 -32 39
-13 47 76 32 99 -17 362 -19 395 -3 13 6 50 23 82 37 40 17 79 46 121 89 69
71 122 163 105 184 -8 9 -24 -2 -67 -43 -66 -65 -124 -97 -216 -118 -79 -19
-281 -21 -323 -5 -15 6 -71 12 -123 13 -82 1 -101 -2 -138 -22 l-44 -23 -33
25 c-19 14 -38 26 -44 26 -6 0 -11 4 -11 9 0 5 -9 13 -20 16 -75 24 -20 119
85 148 11 3 38 8 60 12 133 19 177 28 238 47 37 11 67 25 67 29 0 5 6 9 13 9
29 0 126 102 165 173 66 123 98 258 73 305 -14 27 -31 29 -31 4z m-910 -843
c0 -83 -99 -179 -185 -179 -34 0 -80 24 -99 52 -18 25 -21 68 -6 68 6 0 10 -4
10 -9 0 -16 105 -24 144 -11 47 15 90 52 106 90 15 36 30 30 30 -11z"/>
</g>
</svg>
