<?xml version="1.0" standalone="no"?>
<!DOCTYPE svg PUBLIC "-//W3C//DTD SVG 20010904//EN"
 "http://www.w3.org/TR/2001/REC-SVG-20010904/DTD/svg10.dtd">
<svg version="1.0" xmlns="http://www.w3.org/2000/svg"
 width="468pt" height="598pt" viewBox="0 0 468 598"
 preserveAspectRatio="xMidYMid meet">
<metadata>
Created by potrace 1.8, written by Peter Selinger 2001-2007
</metadata>
<g transform="translate(0,598) scale(0.093413,-0.093413)"
fill="#000000" stroke="none">
<path d="M2800 6280 c0 -33 -3 -40 -20 -40 -19 0 -20 -7 -20 -190 0 -183 -1
-190 -20 -190 -18 0 -20 -7 -20 -85 0 -78 -2 -85 -20 -85 -18 0 -20 -7 -20
-60 0 -53 -2 -60 -20 -60 -17 0 -20 -7 -20 -45 0 -41 -2 -45 -25 -45 -22 0
-25 -4 -25 -40 0 -33 -3 -40 -20 -40 -17 0 -20 -7 -20 -40 0 -33 -3 -40 -20
-40 -13 0 -20 -7 -20 -20 0 -13 -7 -20 -20 -20 -17 0 -20 -7 -20 -45 l0 -45
-65 0 c-58 0 -65 2 -65 20 0 13 -7 20 -20 20 -15 0 -20 7 -20 25 0 18 -5 25
-20 25 -13 0 -20 7 -20 20 0 17 -7 20 -40 20 -33 0 -40 3 -40 20 0 13 7 20 20
20 13 0 20 7 20 20 0 13 7 20 20 20 13 0 20 7 20 20 0 13 7 20 20 20 18 0 20
7 20 65 0 58 2 65 20 65 17 0 20 7 20 40 0 33 3 40 20 40 18 0 20 7 20 65 0
63 1 65 25 65 24 0 25 3 25 60 0 53 2 60 20 60 17 0 20 7 20 45 0 38 3 45 20
45 19 0 20 7 20 125 0 118 1 125 20 125 13 0 20 7 20 20 0 17 -7 20 -40 20
l-40 0 0 -65 c0 -58 -2 -65 -20 -65 -19 0 -20 -7 -20 -105 l0 -105 -25 0 c-24
0 -25 -3 -25 -60 0 -53 -2 -60 -20 -60 -18 0 -20 -7 -20 -65 0 -58 -2 -65 -20
-65 -17 0 -20 -7 -20 -40 0 -33 -3 -40 -20 -40 -18 0 -20 -7 -20 -65 0 -58 -2
-65 -20 -65 -13 0 -20 -7 -20 -20 0 -13 -7 -20 -20 -20 -13 0 -20 -7 -20 -20
0 -15 -7 -20 -25 -20 -18 0 -25 -5 -25 -20 0 -19 -7 -20 -250 -20 -243 0 -250
-1 -250 -20 0 -18 -7 -20 -60 -20 -53 0 -60 -2 -60 -20 0 -17 -7 -20 -45 -20
-41 0 -45 -2 -45 -25 0 -18 -5 -25 -20 -25 -13 0 -20 -7 -20 -20 0 -13 -7 -20
-20 -20 -13 0 -20 -7 -20 -20 0 -13 -7 -20 -20 -20 -13 0 -20 -7 -20 -20 0
-17 -7 -20 -40 -20 -33 0 -40 -3 -40 -20 0 -15 -7 -20 -25 -20 -20 0 -25 -5
-25 -25 0 -18 -5 -25 -20 -25 -17 0 -20 -7 -20 -40 0 -33 -3 -40 -20 -40 -18
0 -20 -7 -20 -60 0 -53 -2 -60 -20 -60 -19 0 -20 -7 -20 -105 0 -98 1 -105 20
-105 18 0 20 -7 20 -65 0 -58 -2 -65 -20 -65 -13 0 -20 -7 -20 -20 0 -13 -7
-20 -20 -20 -13 0 -20 -7 -20 -20 0 -13 -7 -20 -20 -20 -13 0 -20 -7 -20 -20
0 -15 -7 -20 -25 -20 -20 0 -25 -5 -25 -25 0 -18 -5 -25 -20 -25 -13 0 -20 -7
-20 -20 0 -13 -7 -20 -20 -20 -13 0 -20 -7 -20 -20 0 -13 -7 -20 -20 -20 -13
0 -20 -7 -20 -20 0 -13 -7 -20 -20 -20 -13 0 -20 -7 -20 -20 0 -15 -7 -20 -25
-20 -20 0 -25 -5 -25 -25 0 -18 -5 -25 -20 -25 -13 0 -20 -7 -20 -20 0 -13 -7
-20 -20 -20 -13 0 -20 -7 -20 -20 0 -13 -7 -20 -20 -20 -13 0 -20 -7 -20 -20
0 -13 -7 -20 -20 -20 -13 0 -20 -7 -20 -20 0 -13 -7 -20 -20 -20 -17 0 -20 -7
-20 -45 0 -41 -2 -45 -25 -45 -18 0 -25 -5 -25 -20 0 -13 -7 -20 -20 -20 -17
0 -20 -7 -20 -40 0 -33 -3 -40 -20 -40 -13 0 -20 -7 -20 -20 0 -13 -7 -20 -20
-20 -17 0 -20 -7 -20 -45 0 -38 -3 -45 -20 -45 -17 0 -20 -7 -20 -40 0 -33 -3
-40 -20 -40 -18 0 -20 -7 -20 -65 0 -63 -1 -65 -25 -65 -24 0 -25 -3 -25 -60
0 -53 -2 -60 -20 -60 -19 0 -20 -7 -20 -105 0 -98 -1 -105 -20 -105 -20 0 -20
-7 -20 -505 0 -498 0 -505 20 -505 18 0 20 -7 20 -80 0 -73 2 -80 20 -80 18 0
20 -7 20 -65 0 -63 1 -65 25 -65 23 0 25 -4 25 -40 0 -33 3 -40 20 -40 17 0
20 -7 20 -45 0 -38 3 -45 20 -45 13 0 20 -7 20 -20 0 -13 7 -20 20 -20 17 0
20 -7 20 -40 0 -33 3 -40 20 -40 17 0 20 -7 20 -40 0 -33 3 -40 20 -40 15 0
20 -7 20 -25 0 -23 4 -25 45 -25 38 0 45 -3 45 -20 0 -13 7 -20 20 -20 13 0
20 -7 20 -20 0 -13 7 -20 20 -20 13 0 20 -7 20 -20 0 -13 7 -20 20 -20 13 0
20 -7 20 -20 0 -13 7 -20 20 -20 15 0 20 -7 20 -25 0 -23 4 -25 45 -25 38 0
45 -3 45 -20 0 -13 7 -20 20 -20 13 0 20 -7 20 -20 0 -13 7 -20 20 -20 13 0
20 -7 20 -20 0 -17 7 -20 45 -20 38 0 45 -3 45 -20 0 -13 7 -20 20 -20 13 0
20 -7 20 -20 0 -17 7 -20 40 -20 36 0 40 -2 40 -25 0 -22 4 -25 40 -25 33 0
40 -3 40 -20 0 -18 7 -20 65 -20 58 0 65 -2 65 -20 0 -18 7 -20 60 -20 53 0
60 -2 60 -20 0 -18 7 -20 65 -20 58 0 65 -2 65 -20 0 -19 7 -20 125 -20 l125
0 0 -25 0 -25 230 0 230 0 0 -40 c0 -33 3 -40 20 -40 17 0 20 -7 20 -40 0 -33
3 -40 20 -40 13 0 20 -7 20 -20 0 -13 7 -20 20 -20 15 0 20 -7 20 -25 0 -20 5
-25 25 -25 18 0 25 -5 25 -20 0 -13 7 -20 20 -20 13 0 20 -7 20 -20 0 -13 7
-20 20 -20 13 0 20 -7 20 -20 0 -13 7 -20 20 -20 13 0 20 -7 20 -20 0 -13 7
-20 20 -20 15 0 20 -7 20 -25 0 -25 1 -25 85 -25 78 0 85 -2 85 -20 0 -19 7
-20 230 -20 223 0 230 1 230 20 0 17 7 20 40 20 36 0 40 3 40 25 0 23 4 25 45
25 38 0 45 3 45 20 0 13 7 20 20 20 13 0 20 7 20 20 0 17 7 20 40 20 33 0 40
3 40 20 0 18 7 20 65 20 58 0 65 -2 65 -20 0 -19 7 -20 165 -20 158 0 165 1
165 20 0 17 7 20 40 20 33 0 40 3 40 20 0 15 7 20 25 20 20 0 25 5 25 25 0 18
5 25 20 25 13 0 20 7 20 20 0 13 7 20 20 20 13 0 20 7 20 20 0 13 7 20 20 20
17 0 20 7 20 40 0 33 3 40 20 40 17 0 20 7 20 45 0 41 2 45 25 45 23 0 25 4
25 40 0 33 3 40 20 40 13 0 20 7 20 20 0 17 7 20 40 20 33 0 40 3 40 20 0 13
7 20 20 20 15 0 20 7 20 25 0 18 5 25 20 25 13 0 20 7 20 20 0 15 7 20 25 20
18 0 25 5 25 20 0 13 7 20 20 20 17 0 20 7 20 40 0 33 3 40 20 40 13 0 20 7
20 20 0 13 7 20 20 20 15 0 20 7 20 25 0 18 5 25 20 25 18 0 20 7 20 80 0 73
2 80 20 80 19 0 20 7 20 170 0 163 -1 170 -20 170 -18 0 -20 7 -20 60 0 53 -2
60 -20 60 -17 0 -20 7 -20 45 0 38 -3 45 -20 45 -13 0 -20 7 -20 20 0 13 7 20
20 20 17 0 20 7 20 40 0 33 3 40 20 40 18 0 20 7 20 85 0 78 2 85 20 85 19 0
20 7 20 105 l0 105 25 0 c18 0 25 5 25 20 0 15 -7 20 -25 20 -18 0 -25 5 -25
20 0 15 7 20 25 20 18 0 25 5 25 20 0 15 -7 20 -25 20 l-25 0 0 150 c0 143 -1
150 -20 150 -19 0 -20 7 -20 250 0 243 -1 250 -20 250 -18 0 -20 7 -20 65 0
58 -2 65 -20 65 -17 0 -20 7 -20 40 0 33 -3 40 -20 40 -13 0 -20 7 -20 20 0
13 -7 20 -20 20 -13 0 -20 7 -20 20 0 15 -7 20 -25 20 -18 0 -25 5 -25 20 0
13 -7 20 -20 20 -15 0 -20 7 -20 25 0 18 -5 25 -20 25 -13 0 -20 7 -20 20 0
13 -7 20 -20 20 -13 0 -20 7 -20 20 0 17 -7 20 -40 20 -33 0 -40 3 -40 20 0
13 7 20 20 20 18 0 20 7 20 65 0 58 -2 65 -20 65 -17 0 -20 7 -20 40 0 36 -2
40 -25 40 -22 0 -25 4 -25 40 0 33 -3 40 -20 40 -17 0 -20 7 -20 45 0 38 -3
45 -20 45 -13 0 -20 7 -20 20 0 13 -7 20 -20 20 -13 0 -20 7 -20 20 0 17 -7
20 -45 20 -38 0 -45 3 -45 20 0 13 -7 20 -20 20 -15 0 -20 7 -20 25 0 25 -1
25 -80 25 -73 0 -80 2 -80 20 0 18 -7 20 -65 20 -58 0 -65 2 -65 20 0 13 -7
20 -20 20 -13 0 -20 7 -20 20 0 13 -7 20 -20 20 -17 0 -20 7 -20 40 0 33 -3
40 -20 40 -15 0 -20 7 -20 25 0 20 -5 25 -25 25 -18 0 -25 5 -25 20 0 13 -7
20 -20 20 -13 0 -20 7 -20 20 0 13 -7 20 -20 20 -13 0 -20 7 -20 20 0 13 -7
20 -20 20 -13 0 -20 7 -20 20 0 13 -7 20 -20 20 -15 0 -20 7 -20 25 0 24 -2
25 -65 25 -58 0 -65 2 -65 20 0 18 -7 20 -85 20 -78 0 -85 2 -85 20 0 19 -7
20 -100 20 -93 0 -100 -1 -100 -20 0 -17 -7 -20 -45 -20 -38 0 -45 3 -45 20 0
13 -7 20 -20 20 -13 0 -20 7 -20 20 0 13 -7 20 -20 20 -13 0 -20 7 -20 20 0
17 -7 20 -40 20 l-40 0 0 45 0 45 -45 0 c-38 0 -45 3 -45 20 0 13 -7 20 -20
20 -13 0 -20 7 -20 20 0 13 -7 20 -20 20 -13 0 -20 7 -20 20 0 13 7 20 20 20
13 0 20 7 20 20 0 13 7 20 20 20 17 0 20 7 20 45 0 38 3 45 20 45 13 0 20 7
20 20 0 15 7 20 25 20 23 0 25 4 25 40 0 33 3 40 20 40 18 0 20 7 20 65 0 58
2 65 20 65 17 0 20 7 20 40 0 33 3 40 20 40 18 0 20 7 20 85 0 78 2 85 20 85
19 0 20 7 20 165 0 158 1 165 20 165 18 0 20 7 20 85 0 78 -2 85 -20 85 -17 0
-20 -7 -20 -40z m-750 -980 c0 -18 7 -20 65 -20 63 0 65 -1 65 -25 0 -22 4
-25 40 -25 33 0 40 -3 40 -20 0 -13 7 -20 20 -20 13 0 20 -7 20 -20 0 -17 7
-20 40 -20 33 0 40 -3 40 -20 0 -17 7 -20 45 -20 38 0 45 -3 45 -20 0 -13 7
-20 20 -20 15 0 20 -7 20 -25 0 -22 4 -25 40 -25 33 0 40 -3 40 -20 0 -15 7
-20 25 -20 18 0 25 -5 25 -20 0 -13 7 -20 20 -20 13 0 20 -7 20 -20 0 -13 7
-20 20 -20 17 0 20 -7 20 -40 l0 -40 -85 0 c-84 0 -85 0 -85 -25 0 -24 -3 -25
-60 -25 -53 0 -60 -2 -60 -20 0 -18 7 -20 80 -20 73 0 80 2 80 20 0 18 7 20
85 20 84 0 85 0 85 25 0 25 1 25 85 25 78 0 85 2 85 20 0 17 7 20 40 20 33 0
40 -3 40 -20 0 -19 7 -20 105 -20 l105 0 0 -25 c0 -24 3 -25 60 -25 53 0 60
-2 60 -20 0 -15 7 -20 25 -20 18 0 25 -5 25 -20 0 -13 7 -20 20 -20 13 0 20
-7 20 -20 0 -13 7 -20 20 -20 13 0 20 -7 20 -20 0 -13 7 -20 20 -20 15 0 20
-7 20 -25 0 -18 5 -25 20 -25 13 0 20 -7 20 -20 0 -15 7 -20 25 -20 23 0 25
-4 25 -40 l0 -40 -45 0 c-38 0 -45 -3 -45 -20 0 -18 7 -20 85 -20 78 0 85 -2
85 -20 0 -18 7 -20 85 -20 84 0 85 0 85 -25 0 -24 3 -25 60 -25 53 0 60 -2 60
-20 0 -17 7 -20 40 -20 33 0 40 -3 40 -20 0 -17 7 -20 45 -20 l45 0 0 -40 c0
-33 3 -40 20 -40 15 0 20 -7 20 -25 0 -18 5 -25 20 -25 17 0 20 -7 20 -40 0
-33 3 -40 20 -40 17 0 20 -7 20 -40 0 -36 3 -40 25 -40 24 0 25 -2 25 -65 l0
-65 -45 0 c-38 0 -45 3 -45 20 0 17 -7 20 -40 20 -33 0 -40 -3 -40 -20 0 -13
7 -20 20 -20 13 0 20 -7 20 -20 0 -17 7 -20 40 -20 33 0 40 -3 40 -20 0 -17 7
-20 45 -20 38 0 45 -3 45 -20 0 -13 7 -20 20 -20 15 0 20 -7 20 -25 0 -22 4
-25 40 -25 33 0 40 -3 40 -20 0 -13 7 -20 20 -20 13 0 20 -7 20 -20 0 -15 7
-20 25 -20 23 0 25 -4 25 -40 0 -33 3 -40 20 -40 17 0 20 -7 20 -45 0 -38 3
-45 20 -45 17 0 20 -7 20 -40 0 -33 3 -40 20 -40 19 0 20 -7 20 -170 0 -163
-1 -170 -20 -170 -15 0 -20 7 -20 25 0 18 -5 25 -20 25 -13 0 -20 7 -20 20 0
13 -7 20 -20 20 -17 0 -20 -7 -20 -45 0 -38 3 -45 20 -45 13 0 20 -7 20 -20 0
-13 7 -20 20 -20 17 0 20 -7 20 -40 0 -33 3 -40 20 -40 17 0 20 -7 20 -40 0
-33 3 -40 20 -40 20 0 20 -7 20 -275 0 -268 0 -275 -20 -275 -18 0 -20 -7 -20
-85 0 -78 -2 -85 -20 -85 -17 0 -20 -7 -20 -40 0 -33 -3 -40 -20 -40 -13 0
-20 7 -20 20 0 13 -7 20 -20 20 -17 0 -20 7 -20 45 0 41 -2 45 -25 45 -24 0
-25 3 -25 60 0 53 -2 60 -20 60 -19 0 -20 7 -20 125 0 118 -1 125 -20 125 -17
0 -20 7 -20 45 0 38 -3 45 -20 45 -13 0 -20 7 -20 20 0 13 -7 20 -20 20 -13 0
-20 7 -20 20 0 13 -7 20 -20 20 -17 0 -20 7 -20 40 0 36 -2 40 -25 40 -20 0
-25 5 -25 25 0 18 -5 25 -20 25 -17 0 -20 7 -20 40 0 33 -3 40 -20 40 -17 0
-20 7 -20 40 0 33 -3 40 -20 40 -13 0 -20 7 -20 20 0 13 -7 20 -20 20 -17 0
-20 -7 -20 -40 0 -33 3 -40 20 -40 17 0 20 -7 20 -40 0 -33 3 -40 20 -40 18 0
20 -7 20 -85 0 -78 -2 -85 -20 -85 -18 0 -20 -7 -20 -85 0 -78 -2 -85 -20 -85
-19 0 -20 -7 -20 -210 0 -203 1 -210 20 -210 17 0 20 -7 20 -40 0 -33 -3 -40
-20 -40 -18 0 -20 -7 -20 -60 0 -57 -1 -60 -25 -60 -24 0 -25 -2 -25 -65 0
-58 -2 -65 -20 -65 -19 0 -20 -7 -20 -105 0 -98 -1 -105 -20 -105 -19 0 -20
-7 -20 -165 l0 -165 -60 0 c-57 0 -60 -1 -60 -25 l0 -25 -105 0 c-98 0 -105
-1 -105 -20 0 -18 7 -20 60 -20 53 0 60 -2 60 -20 0 -13 7 -20 20 -20 13 0 20
-7 20 -20 0 -15 7 -20 25 -20 25 0 25 -1 25 -85 0 -78 2 -85 20 -85 13 0 20
-7 20 -20 0 -13 -7 -20 -20 -20 -17 0 -20 -7 -20 -40 0 -36 -2 -40 -25 -40
-20 0 -25 -5 -25 -25 0 -18 -5 -25 -20 -25 -13 0 -20 -7 -20 -20 0 -13 -7 -20
-20 -20 -13 0 -20 -7 -20 -20 0 -13 -7 -20 -20 -20 -13 0 -20 -7 -20 -20 0
-13 -7 -20 -20 -20 -13 0 -20 -7 -20 -20 0 -13 -7 -20 -20 -20 -13 0 -20 -7
-20 -20 0 -17 -7 -20 -45 -20 -41 0 -45 -2 -45 -25 0 -18 -5 -25 -20 -25 -13
0 -20 -7 -20 -20 0 -13 -7 -20 -20 -20 -13 0 -20 -7 -20 -20 0 -17 -7 -20 -45
-20 -38 0 -45 -3 -45 -20 0 -17 -7 -20 -40 -20 -33 0 -40 -3 -40 -20 0 -17 -7
-20 -40 -20 -36 0 -40 -2 -40 -25 l0 -25 -210 0 -210 0 0 25 c0 24 -3 25 -60
25 -53 0 -60 2 -60 20 0 15 -7 20 -25 20 -18 0 -25 5 -25 20 0 13 -7 20 -20
20 -13 0 -20 7 -20 20 0 13 -7 20 -20 20 -13 0 -20 7 -20 20 0 17 -7 20 -40
20 l-40 0 0 45 c0 41 -2 45 -25 45 -18 0 -25 5 -25 20 0 17 7 20 45 20 38 0
45 3 45 20 0 13 -7 20 -20 20 -13 0 -20 7 -20 20 0 13 7 20 20 20 13 0 20 -7
20 -20 0 -20 7 -20 290 -20 283 0 290 0 290 20 0 17 7 20 45 20 38 0 45 3 45
20 0 13 7 20 20 20 15 0 20 7 20 25 0 18 5 25 20 25 13 0 20 7 20 20 0 13 7
20 20 20 13 0 20 7 20 20 0 13 7 20 20 20 13 0 20 7 20 20 0 13 -7 20 -20 20
-13 0 -20 7 -20 20 0 18 -7 20 -60 20 -57 0 -60 1 -60 25 l0 25 -105 0 c-98 0
-105 1 -105 20 0 18 -7 20 -85 20 -78 0 -85 2 -85 20 0 18 -7 20 -85 20 -78 0
-85 2 -85 20 0 13 -7 20 -20 20 -13 0 -20 7 -20 20 0 13 -7 20 -20 20 -13 0
-20 -7 -20 -20 0 -19 -7 -20 -165 -20 -158 0 -165 1 -165 20 0 17 -7 20 -45
20 l-45 0 0 45 c0 38 -3 45 -20 45 -17 0 -20 -7 -20 -45 l0 -45 -105 0 c-98 0
-105 1 -105 20 0 18 -7 20 -85 20 -84 0 -85 0 -85 25 0 24 -3 25 -60 25 -53 0
-60 2 -60 20 0 17 -7 20 -40 20 -33 0 -40 3 -40 20 0 17 -7 20 -45 20 -38 0
-45 3 -45 20 0 17 -7 20 -40 20 -33 0 -40 3 -40 20 0 13 -7 20 -20 20 -15 0
-20 7 -20 25 0 23 -4 25 -45 25 -38 0 -45 3 -45 20 0 13 -7 20 -20 20 -13 0
-20 7 -20 20 0 17 -7 20 -40 20 -33 0 -40 -3 -40 -20 0 -13 7 -20 20 -20 13 0
20 -7 20 -20 0 -13 7 -20 20 -20 15 0 20 -7 20 -25 0 -18 5 -25 20 -25 13 0
20 -7 20 -20 0 -17 7 -20 45 -20 38 0 45 -3 45 -20 0 -17 7 -20 40 -20 33 0
40 -3 40 -20 0 -17 7 -20 40 -20 33 0 40 -3 40 -20 0 -17 7 -20 45 -20 41 0
45 -2 45 -25 0 -24 3 -25 60 -25 53 0 60 -2 60 -20 0 -18 7 -20 85 -20 78 0
85 -2 85 -20 0 -18 7 -20 85 -20 78 0 85 -2 85 -20 0 -19 7 -20 205 -20 198 0
205 -1 205 -20 0 -19 7 -20 170 -20 163 0 170 -1 170 -20 0 -18 7 -20 85 -20
84 0 85 0 85 -25 0 -25 1 -25 80 -25 73 0 80 -2 80 -20 0 -13 7 -20 20 -20 13
0 20 -7 20 -20 0 -15 7 -20 25 -20 18 0 25 -5 25 -20 0 -15 -7 -20 -25 -20
-18 0 -25 -5 -25 -20 0 -13 -7 -20 -20 -20 -15 0 -20 -7 -20 -25 0 -22 -4 -25
-40 -25 -33 0 -40 -3 -40 -20 0 -19 -7 -20 -145 -20 -138 0 -145 1 -145 20 0
19 -7 20 -150 20 l-150 0 0 25 0 25 -250 0 c-243 0 -250 1 -250 20 0 19 -7 20
-145 20 -138 0 -145 1 -145 20 0 18 -7 20 -60 20 -53 0 -60 2 -60 20 0 18 -7
20 -65 20 -58 0 -65 2 -65 20 0 17 -7 20 -40 20 -36 0 -40 3 -40 25 0 24 -2
25 -65 25 -58 0 -65 2 -65 20 0 17 -7 20 -40 20 -33 0 -40 3 -40 20 0 17 -7
20 -40 20 -33 0 -40 3 -40 20 0 15 -7 20 -25 20 -18 0 -25 5 -25 20 0 13 -7
20 -20 20 -13 0 -20 7 -20 20 0 17 -7 20 -40 20 -36 0 -40 3 -40 25 0 18 -5
25 -20 25 -13 0 -20 7 -20 20 0 15 -7 20 -25 20 -18 0 -25 5 -25 20 0 13 -7
20 -20 20 -13 0 -20 7 -20 20 0 13 -7 20 -20 20 -13 0 -20 7 -20 20 0 13 -7
20 -20 20 -15 0 -20 7 -20 25 0 18 -5 25 -20 25 -13 0 -20 7 -20 20 0 13 -7
20 -20 20 -13 0 -20 7 -20 20 0 15 -7 20 -25 20 -18 0 -25 5 -25 20 0 13 -7
20 -20 20 -17 0 -20 7 -20 40 0 33 -3 40 -20 40 -15 0 -20 7 -20 25 0 18 -5
25 -20 25 -17 0 -20 7 -20 40 0 33 -3 40 -20 40 -17 0 -20 7 -20 40 0 33 -3
40 -20 40 -18 0 -20 7 -20 65 0 63 -1 65 -25 65 -25 0 -25 1 -25 85 0 78 -2
85 -20 85 -20 0 -20 7 -20 415 0 408 0 415 20 415 19 0 20 7 20 170 l0 170 25
0 c24 0 25 3 25 60 0 53 2 60 20 60 18 0 20 7 20 65 0 58 2 65 20 65 13 0 20
7 20 20 0 13 7 20 20 20 17 0 20 7 20 40 0 33 3 40 20 40 17 0 20 7 20 45 0
38 3 45 20 45 17 0 20 7 20 40 0 36 3 40 25 40 18 0 25 5 25 20 0 13 7 20 20
20 15 0 20 7 20 25 0 18 5 25 20 25 13 0 20 7 20 20 0 13 7 20 20 20 13 0 20
7 20 20 0 13 7 20 20 20 13 0 20 7 20 20 0 13 7 20 20 20 13 0 20 7 20 20 0
15 7 20 25 20 23 0 25 4 25 45 l0 45 40 0 c40 0 40 0 40 40 0 33 3 40 20 40
13 0 20 7 20 20 0 13 7 20 20 20 13 0 20 7 20 20 0 15 7 20 25 20 20 0 25 5
25 25 0 18 5 25 20 25 13 0 20 7 20 20 0 13 7 20 20 20 13 0 20 7 20 20 0 17
7 20 40 20 33 0 40 3 40 20 0 13 7 20 20 20 13 0 20 7 20 20 0 17 7 20 45 20
38 0 45 3 45 20 0 13 7 20 20 20 15 0 20 7 20 25 0 23 -4 25 -40 25 -36 0 -40
-2 -40 -25 0 -23 -4 -25 -45 -25 l-45 0 0 85 c0 78 -2 85 -20 85 -13 0 -20 7
-20 20 0 13 7 20 20 20 18 0 20 7 20 65 0 58 2 65 20 65 17 0 20 7 20 40 0 36
3 40 25 40 18 0 25 5 25 20 0 13 7 20 20 20 15 0 20 7 20 25 0 18 5 25 20 25
13 0 20 7 20 20 0 17 7 20 40 20 33 0 40 3 40 20 0 13 7 20 20 20 13 0 20 7
20 20 0 15 7 20 25 20 18 0 25 5 25 20 0 17 7 20 40 20 36 0 40 3 40 25 0 24
3 25 60 25 53 0 60 2 60 20 0 19 7 20 190 20 183 0 190 -1 190 -20z m2260
-2765 c0 -18 5 -25 20 -25 17 0 20 -7 20 -40 0 -33 3 -40 20 -40 18 0 20 -7
20 -60 0 -53 2 -60 20 -60 18 0 20 -7 20 -85 0 -78 2 -85 20 -85 17 0 20 -7
20 -45 0 -38 3 -45 20 -45 17 0 20 -7 20 -40 0 -36 3 -40 25 -40 18 0 25 -5
25 -20 0 -13 7 -20 20 -20 18 0 20 -7 20 -65 0 -58 2 -65 20 -65 17 0 20 -7
20 -40 0 -33 3 -40 20 -40 17 0 20 -7 20 -40 0 -33 3 -40 20 -40 19 0 20 -7
20 -125 0 -118 -1 -125 -20 -125 -18 0 -20 -7 -20 -85 0 -78 -2 -85 -20 -85
-13 0 -20 -7 -20 -20 0 -13 -7 -20 -20 -20 -17 0 -20 -7 -20 -45 0 -38 -3 -45
-20 -45 -13 0 -20 -7 -20 -20 0 -15 -7 -20 -25 -20 -18 0 -25 -5 -25 -20 0
-13 -7 -20 -20 -20 -13 0 -20 -7 -20 -20 0 -13 -7 -20 -20 -20 -13 0 -20 -7
-20 -20 0 -13 -7 -20 -20 -20 -18 0 -20 7 -20 80 0 73 2 80 20 80 19 0 20 7
20 105 0 98 1 105 20 105 19 0 20 7 20 105 0 98 -1 105 -20 105 -17 0 -20 7
-20 40 0 33 -3 40 -20 40 -17 0 -20 7 -20 45 0 38 -3 45 -20 45 -13 0 -20 7
-20 20 0 13 -7 20 -20 20 -17 0 -20 7 -20 40 0 36 -2 40 -25 40 -23 0 -25 4
-25 45 0 38 -3 45 -20 45 -18 0 -20 7 -20 60 0 53 -2 60 -20 60 -18 0 -20 7
-20 85 0 78 -2 85 -20 85 -18 0 -20 7 -20 85 0 78 2 85 20 85 19 0 20 7 20
105 l0 105 65 0 c63 0 65 -1 65 -25z m-130 -775 c0 -33 3 -40 20 -40 13 0 20
-7 20 -20 0 -13 7 -20 20 -20 17 0 20 -7 20 -45 l0 -45 45 0 c38 0 45 -3 45
-20 0 -13 7 -20 20 -20 19 0 20 -7 20 -185 0 -178 -1 -185 -20 -185 -18 0 -20
-7 -20 -85 0 -78 -2 -85 -20 -85 -18 0 -20 -7 -20 -85 0 -84 0 -85 -25 -85
-22 0 -25 -4 -25 -40 0 -33 -3 -40 -20 -40 -17 0 -20 -7 -20 -45 0 -38 -3 -45
-20 -45 -17 0 -20 -7 -20 -40 0 -33 -3 -40 -20 -40 -13 0 -20 -7 -20 -20 0
-13 -7 -20 -20 -20 -13 0 -20 -7 -20 -20 0 -15 -7 -20 -25 -20 -18 0 -25 -5
-25 -20 0 -13 -7 -20 -20 -20 -15 0 -20 -7 -20 -25 0 -24 -3 -25 -60 -25 -53
0 -60 -2 -60 -20 0 -13 -7 -20 -20 -20 -13 0 -20 7 -20 20 0 19 -7 20 -105 20
l-105 0 0 25 c0 18 5 25 20 25 13 0 20 7 20 20 0 13 7 20 20 20 13 0 20 7 20
20 0 13 7 20 20 20 13 0 20 7 20 20 0 13 7 20 20 20 13 0 20 7 20 20 0 15 7
20 25 20 18 0 25 5 25 20 0 13 7 20 20 20 17 0 20 7 20 45 0 38 3 45 20 45 17
0 20 7 20 40 0 33 3 40 20 40 18 0 20 7 20 85 0 78 2 85 20 85 19 0 20 7 20
165 0 158 1 165 20 165 19 0 20 7 20 150 l0 150 25 0 c25 0 25 1 25 80 l0 80
40 0 c40 0 40 0 40 -40z"/>
<path d="M1630 5000 c0 -13 -7 -20 -20 -20 -13 0 -20 -7 -20 -20 0 -13 -7 -20
-20 -20 -13 0 -20 -7 -20 -20 0 -13 -7 -20 -20 -20 -17 0 -20 -7 -20 -40 0
-33 -3 -40 -20 -40 -15 0 -20 -7 -20 -25 0 -20 -5 -25 -25 -25 -18 0 -25 -5
-25 -20 0 -13 -7 -20 -20 -20 -13 0 -20 -7 -20 -20 0 -13 -7 -20 -20 -20 -13
0 -20 -7 -20 -20 0 -13 -7 -20 -20 -20 -13 0 -20 -7 -20 -20 0 -13 7 -20 20
-20 13 0 20 7 20 20 0 17 7 20 40 20 33 0 40 3 40 20 0 15 7 20 25 20 18 0 25
5 25 20 0 13 7 20 20 20 13 0 20 7 20 20 0 13 7 20 20 20 15 0 20 7 20 25 0
23 4 25 40 25 33 0 40 3 40 20 0 13 7 20 20 20 13 0 20 7 20 20 0 15 7 20 25
20 18 0 25 5 25 20 0 18 7 20 60 20 53 0 60 -2 60 -20 0 -13 7 -20 20 -20 13
0 20 -7 20 -20 0 -15 7 -20 25 -20 18 0 25 -5 25 -20 0 -13 7 -20 20 -20 15 0
20 -7 20 -25 0 -18 5 -25 20 -25 13 0 20 -7 20 -20 0 -13 -7 -20 -20 -20 -13
0 -20 -7 -20 -20 0 -17 -7 -20 -45 -20 -38 0 -45 -3 -45 -20 0 -17 -7 -20 -40
-20 -33 0 -40 -3 -40 -20 0 -13 -7 -20 -20 -20 -15 0 -20 -7 -20 -25 0 -23 -4
-25 -45 -25 -38 0 -45 -3 -45 -20 0 -13 -7 -20 -20 -20 -13 0 -20 -7 -20 -20
0 -13 -7 -20 -20 -20 -13 0 -20 -7 -20 -20 0 -17 -7 -20 -40 -20 -33 0 -40 -3
-40 -20 0 -13 -7 -20 -20 -20 -13 0 -20 -7 -20 -20 0 -15 -7 -20 -25 -20 -20
0 -25 -5 -25 -25 0 -22 -4 -25 -40 -25 -33 0 -40 -3 -40 -20 0 -13 -7 -20 -20
-20 -13 0 -20 -7 -20 -20 0 -13 -7 -20 -20 -20 -17 0 -20 -7 -20 -40 l0 -40
-45 0 c-41 0 -45 -2 -45 -25 0 -18 -5 -25 -20 -25 -13 0 -20 -7 -20 -20 0 -13
-7 -20 -20 -20 -13 0 -20 -7 -20 -20 0 -13 -7 -20 -20 -20 -13 0 -20 -7 -20
-20 0 -13 -7 -20 -20 -20 -13 0 -20 -7 -20 -20 0 -13 -7 -20 -20 -20 -17 0
-20 -7 -20 -45 0 -41 -2 -45 -25 -45 -18 0 -25 -5 -25 -20 0 -13 -7 -20 -20
-20 -17 0 -20 -7 -20 -40 0 -33 -3 -40 -20 -40 -13 0 -20 -7 -20 -20 0 -13 7
-20 20 -20 13 0 20 7 20 20 0 13 7 20 20 20 13 0 20 7 20 20 0 15 7 20 25 20
23 0 25 4 25 40 0 33 3 40 20 40 15 0 20 7 20 25 0 18 5 25 20 25 13 0 20 7
20 20 0 13 7 20 20 20 13 0 20 7 20 20 0 13 7 20 20 20 13 0 20 7 20 20 0 13
7 20 20 20 13 0 20 7 20 20 0 15 7 20 25 20 18 0 25 5 25 20 0 13 7 20 20 20
15 0 20 7 20 25 0 23 4 25 40 25 40 0 40 0 40 40 l0 40 65 0 c58 0 65 -2 65
-20 0 -20 7 -20 310 -20 303 0 310 0 310 20 0 18 7 20 85 20 78 0 85 2 85 20
0 18 7 20 85 20 78 0 85 2 85 20 0 18 7 20 60 20 57 0 60 1 60 25 0 24 2 25
65 25 63 0 65 -1 65 -25 0 -18 5 -25 20 -25 13 0 20 -7 20 -20 0 -17 7 -20 40
-20 33 0 40 -3 40 -20 0 -13 7 -20 20 -20 13 0 20 -7 20 -20 0 -17 7 -20 45
-20 38 0 45 -3 45 -20 0 -19 7 -20 105 -20 l105 0 0 -25 c0 -24 3 -25 60 -25
53 0 60 -2 60 -20 0 -13 7 -20 20 -20 17 0 20 -7 20 -40 0 -33 3 -40 20 -40
13 0 20 -7 20 -20 0 -15 7 -20 25 -20 18 0 25 -5 25 -20 0 -13 7 -20 20 -20
15 0 20 -7 20 -25 0 -18 5 -25 20 -25 13 0 20 -7 20 -20 0 -13 7 -20 20 -20
13 0 20 -7 20 -20 0 -13 7 -20 20 -20 13 0 20 -7 20 -20 0 -15 7 -20 25 -20
18 0 25 -5 25 -20 0 -13 7 -20 20 -20 15 0 20 -7 20 -25 0 -24 3 -25 60 -25
53 0 60 -2 60 -20 0 -13 7 -20 20 -20 13 0 20 -7 20 -20 0 -17 7 -20 45 -20
38 0 45 -3 45 -20 0 -17 7 -20 40 -20 l40 0 0 -170 c0 -163 1 -170 20 -170 18
0 20 -7 20 -60 0 -53 2 -60 20 -60 17 0 20 -7 20 -45 0 -41 2 -45 25 -45 24 0
25 2 25 65 0 63 -1 65 -25 65 -25 0 -25 1 -25 85 0 78 -2 85 -20 85 -18 0 -20
7 -20 60 l0 60 45 0 c38 0 45 -3 45 -20 0 -17 7 -20 40 -20 33 0 40 -3 40 -20
0 -18 7 -20 65 -20 58 0 65 -2 65 -20 0 -13 7 -20 20 -20 13 0 20 -7 20 -20 0
-17 7 -20 40 -20 l40 0 0 -45 c0 -38 3 -45 20 -45 13 0 20 -7 20 -20 0 -13 7
-20 20 -20 13 0 20 -7 20 -20 0 -15 7 -20 25 -20 18 0 25 5 25 20 0 15 -7 20
-25 20 -22 0 -25 4 -25 40 0 33 -3 40 -20 40 -15 0 -20 7 -20 25 0 18 -5 25
-20 25 -13 0 -20 7 -20 20 0 13 -7 20 -20 20 -13 0 -20 7 -20 20 0 17 -7 20
-40 20 -33 0 -40 3 -40 20 0 15 -7 20 -25 20 -18 0 -25 5 -25 20 0 13 -7 20
-20 20 -15 0 -20 7 -20 25 0 23 -4 25 -40 25 -33 0 -40 3 -40 20 0 13 -7 20
-20 20 -13 0 -20 7 -20 20 0 17 -7 20 -45 20 -38 0 -45 3 -45 20 0 17 -7 20
-40 20 -33 0 -40 3 -40 20 0 17 -7 20 -40 20 -33 0 -40 3 -40 20 0 17 -7 20
-45 20 -41 0 -45 2 -45 25 0 23 -4 25 -40 25 -33 0 -40 3 -40 20 0 13 -7 20
-20 20 -13 0 -20 7 -20 20 0 13 -7 20 -20 20 -13 0 -20 7 -20 20 0 15 -7 20
-25 20 -18 0 -25 5 -25 20 0 13 -7 20 -20 20 -15 0 -20 7 -20 25 0 18 -5 25
-20 25 -13 0 -20 7 -20 20 0 13 -7 20 -20 20 -17 0 -20 7 -20 40 l0 40 185 0
c178 0 185 -1 185 -20 0 -17 7 -20 45 -20 38 0 45 -3 45 -20 0 -17 7 -20 40
-20 33 0 40 -3 40 -20 0 -17 7 -20 40 -20 36 0 40 -2 40 -25 0 -23 4 -25 45
-25 41 0 45 2 45 25 0 23 -4 25 -45 25 -38 0 -45 3 -45 20 0 17 -7 20 -40 20
-33 0 -40 3 -40 20 0 17 -7 20 -40 20 -33 0 -40 3 -40 20 0 17 -7 20 -45 20
-38 0 -45 3 -45 20 0 18 -7 20 -60 20 -53 0 -60 2 -60 20 0 19 -7 20 -125 20
l-125 0 0 25 0 25 -145 0 c-138 0 -145 1 -145 20 0 18 -7 20 -85 20 -78 0 -85
2 -85 20 0 17 -7 20 -40 20 -33 0 -40 3 -40 20 0 17 -7 20 -45 20 l-45 0 0 45
0 45 45 0 c38 0 45 3 45 20 0 13 7 20 20 20 13 0 20 7 20 20 0 17 7 20 40 20
33 0 40 3 40 20 0 18 7 20 85 20 78 0 85 -2 85 -20 0 -13 7 -20 20 -20 13 0
20 7 20 20 0 13 7 20 20 20 13 0 20 -7 20 -20 0 -19 7 -20 125 -20 118 0 125
1 125 20 0 19 -7 20 -105 20 -98 0 -105 1 -105 20 0 19 -7 20 -205 20 -198 0
-205 -1 -205 -20 0 -18 -7 -20 -65 -20 -58 0 -65 -2 -65 -20 0 -18 -7 -20 -60
-20 -53 0 -60 -2 -60 -20 0 -18 -7 -20 -65 -20 -58 0 -65 -2 -65 -20 0 -17 -7
-20 -40 -20 -36 0 -40 -2 -40 -25 0 -25 -1 -25 -85 -25 -78 0 -85 -2 -85 -20
0 -19 -7 -20 -125 -20 -118 0 -125 -1 -125 -20 0 -19 -7 -20 -210 -20 l-210 0
0 65 c0 58 2 65 20 65 17 0 20 -7 20 -45 0 -38 3 -45 20 -45 18 0 20 7 20 65
0 63 1 65 25 65 18 0 25 5 25 20 0 13 7 20 20 20 13 0 20 7 20 20 0 13 7 20
20 20 13 0 20 7 20 20 0 13 7 20 20 20 13 0 20 7 20 20 0 18 7 20 85 20 84 0
85 0 85 25 l0 25 105 0 c98 0 105 1 105 20 0 18 7 20 60 20 53 0 60 2 60 20 0
17 7 20 45 20 38 0 45 3 45 20 0 17 -7 20 -45 20 -38 0 -45 3 -45 20 0 13 -7
20 -20 20 -15 0 -20 7 -20 25 0 18 -5 25 -20 25 -13 0 -20 7 -20 20 0 17 -7
20 -40 20 -33 0 -40 3 -40 20 0 15 -7 20 -25 20 -18 0 -25 5 -25 20 0 13 -7
20 -20 20 -13 0 -20 7 -20 20 0 17 -7 20 -40 20 -33 0 -40 3 -40 20 0 19 -7
20 -190 20 -183 0 -190 -1 -190 -20z m380 -120 c0 -13 7 -20 20 -20 13 0 20
-7 20 -20 0 -13 7 -20 20 -20 15 0 20 -7 20 -25 0 -23 4 -25 45 -25 41 0 45 2
45 25 0 18 5 25 20 25 15 0 20 -7 20 -25 0 -18 5 -25 20 -25 13 0 20 -7 20
-20 0 -13 7 -20 20 -20 13 0 20 -7 20 -20 0 -18 -7 -20 -60 -20 -53 0 -60 -2
-60 -20 0 -18 -7 -20 -85 -20 -78 0 -85 -2 -85 -20 0 -17 -7 -20 -40 -20 -33
0 -40 3 -40 20 0 13 7 20 20 20 13 0 20 7 20 20 0 17 7 20 40 20 33 0 40 3 40
20 0 13 7 20 20 20 13 0 20 7 20 20 0 13 -7 20 -20 20 -15 0 -20 7 -20 25 0
18 -5 25 -20 25 -13 0 -20 7 -20 20 0 13 -7 20 -20 20 -13 0 -20 7 -20 20 0
13 7 20 20 20 13 0 20 -7 20 -20z"/>
<path d="M800 3620 c0 -13 -7 -20 -20 -20 -13 0 -20 -7 -20 -20 0 -15 -7 -20
-25 -20 -24 0 -25 -3 -25 -60 0 -53 -2 -60 -20 -60 -17 0 -20 -7 -20 -45 0
-38 -3 -45 -20 -45 -17 0 -20 -7 -20 -40 0 -33 -3 -40 -20 -40 -18 0 -20 -7
-20 -85 0 -78 -2 -85 -20 -85 -19 0 -20 -7 -20 -125 0 -118 -1 -125 -20 -125
-19 0 -20 -7 -20 -230 0 -223 1 -230 20 -230 19 0 20 -7 20 -105 0 -98 1 -105
20 -105 19 0 20 -7 20 -105 0 -98 1 -105 20 -105 17 0 20 -7 20 -40 0 -33 3
-40 20 -40 17 0 20 -7 20 -45 0 -38 3 -45 20 -45 13 0 20 -7 20 -20 0 -15 7
-20 25 -20 18 0 25 -5 25 -20 0 -13 7 -20 20 -20 17 0 20 -7 20 -40 0 -33 3
-40 20 -40 15 0 20 -7 20 -25 0 -18 5 -25 20 -25 13 0 20 -7 20 -20 0 -17 7
-20 45 -20 38 0 45 -3 45 -20 0 -13 7 -20 20 -20 13 0 20 -7 20 -20 0 -13 7
-20 20 -20 13 0 20 7 20 20 0 13 -7 20 -20 20 -13 0 -20 7 -20 20 0 13 -7 20
-20 20 -13 0 -20 7 -20 20 0 15 -7 20 -25 20 -20 0 -25 5 -25 25 0 18 -5 25
-20 25 -13 0 -20 7 -20 20 0 13 -7 20 -20 20 -13 0 -20 7 -20 20 0 13 -7 20
-20 20 -13 0 -20 7 -20 20 0 13 -7 20 -20 20 -17 0 -20 7 -20 45 0 41 -2 45
-25 45 -22 0 -25 4 -25 40 0 33 -3 40 -20 40 -18 0 -20 7 -20 60 0 53 -2 60
-20 60 -18 0 -20 7 -20 85 0 78 -2 85 -20 85 -19 0 -20 7 -20 170 0 163 -1
170 -20 170 -19 0 -20 7 -20 105 0 98 1 105 20 105 19 0 20 7 20 100 0 93 1
100 20 100 19 0 20 7 20 105 0 98 1 105 20 105 18 0 20 7 20 65 0 58 2 65 20
65 17 0 20 7 20 40 0 36 3 40 25 40 24 0 25 2 25 65 0 58 2 65 20 65 17 0 20
7 20 40 0 33 3 40 20 40 13 0 20 7 20 20 0 13 -7 20 -20 20 -13 0 -20 -7 -20
-20z"/>
<path d="M2010 2305 c0 -38 -3 -45 -20 -45 -15 0 -20 7 -20 25 0 23 -4 25 -45
25 -41 0 -45 -2 -45 -25 0 -22 -4 -25 -40 -25 -33 0 -40 -3 -40 -20 0 -13 7
-20 20 -20 13 0 20 -7 20 -20 0 -13 7 -20 20 -20 13 0 20 7 20 20 0 15 7 20
25 20 18 0 25 5 25 20 0 13 7 20 20 20 18 0 20 -7 20 -60 0 -53 2 -60 20 -60
17 0 20 7 20 40 0 33 3 40 20 40 18 0 20 7 20 65 0 58 -2 65 -20 65 -17 0 -20
-7 -20 -45z"/>
<path d="M1670 2095 l0 -45 -40 0 c-33 0 -40 -3 -40 -20 0 -13 -7 -20 -20 -20
-13 0 -20 -7 -20 -20 0 -13 7 -20 20 -20 13 0 20 -7 20 -20 0 -17 7 -20 40
-20 33 0 40 -3 40 -20 0 -15 7 -20 25 -20 25 0 25 -1 25 -85 0 -78 2 -85 20
-85 13 0 20 -7 20 -20 0 -13 7 -20 20 -20 17 0 20 -7 20 -45 0 -38 3 -45 20
-45 13 0 20 -7 20 -20 0 -13 7 -20 20 -20 13 0 20 -7 20 -20 0 -15 7 -20 25
-20 24 0 25 -3 25 -60 0 -53 2 -60 20 -60 18 0 20 -7 20 -65 0 -58 2 -65 20
-65 17 0 20 -7 20 -40 0 -33 3 -40 20 -40 17 0 20 7 20 40 0 33 -3 40 -20 40
-18 0 -20 7 -20 65 0 58 -2 65 -20 65 -18 0 -20 7 -20 60 0 53 2 60 20 60 13
0 20 7 20 20 0 17 7 20 40 20 33 0 40 3 40 20 0 17 7 20 45 20 41 0 45 2 45
25 0 18 5 25 20 25 15 0 20 -7 20 -25 0 -18 5 -25 20 -25 17 0 20 -7 20 -40 0
-33 3 -40 20 -40 18 0 20 -7 20 -60 0 -53 2 -60 20 -60 18 0 20 -7 20 -65 0
-58 2 -65 20 -65 13 0 20 -7 20 -20 0 -15 7 -20 25 -20 23 0 25 -4 25 -45 0
-38 3 -45 20 -45 13 0 20 -7 20 -20 0 -13 7 -20 20 -20 17 0 20 7 20 45 0 38
-3 45 -20 45 -13 0 -20 7 -20 20 0 13 -7 20 -20 20 -17 0 -20 7 -20 40 0 36
-2 40 -25 40 -23 0 -25 4 -25 45 0 38 -3 45 -20 45 -18 0 -20 7 -20 60 0 53
-2 60 -20 60 -17 0 -20 7 -20 40 0 33 -3 40 -20 40 -15 0 -20 7 -20 25 0 18
-5 25 -20 25 -18 0 -20 7 -20 60 0 53 -2 60 -20 60 -18 0 -20 7 -20 65 0 63
-1 65 -25 65 -22 0 -25 4 -25 40 0 33 -3 40 -20 40 -13 0 -20 7 -20 20 0 19
-7 20 -105 20 -98 0 -105 -1 -105 -20 0 -17 -7 -20 -40 -20 -33 0 -40 -3 -40
-20 0 -13 -7 -20 -20 -20 -13 0 -20 -7 -20 -20 0 -13 -7 -20 -20 -20 -13 0
-20 7 -20 20 0 15 -7 20 -25 20 -18 0 -25 5 -25 20 0 13 -7 20 -20 20 -13 0
-20 7 -20 20 0 13 7 20 20 20 13 0 20 7 20 20 0 15 7 20 25 20 23 0 25 4 25
45 0 41 -2 45 -25 45 -23 0 -25 -4 -25 -45z m170 -185 c0 -17 7 -20 45 -20 38
0 45 3 45 20 0 17 7 20 40 20 33 0 40 -3 40 -20 0 -17 -7 -20 -40 -20 -33 0
-40 -3 -40 -20 0 -15 -7 -20 -25 -20 -20 0 -25 -5 -25 -25 0 -23 4 -25 45 -25
41 0 45 2 45 25 0 23 4 25 40 25 33 0 40 3 40 20 0 13 7 20 20 20 13 0 20 -7
20 -20 0 -13 -7 -20 -20 -20 -15 0 -20 -7 -20 -25 0 -22 -4 -25 -40 -25 -33 0
-40 -3 -40 -20 0 -13 -7 -20 -20 -20 -13 0 -20 -7 -20 -20 0 -15 -7 -20 -25
-20 -18 0 -25 -5 -25 -20 0 -13 -7 -20 -20 -20 -17 0 -20 7 -20 40 0 40 0 40
-40 40 -33 0 -40 3 -40 20 0 13 7 20 20 20 15 0 20 7 20 25 0 18 5 25 20 25
13 0 20 7 20 20 0 13 -7 20 -20 20 -13 0 -20 7 -20 20 0 13 7 20 20 20 13 0
20 -7 20 -20z m290 -250 c0 -13 -7 -20 -20 -20 -15 0 -20 -7 -20 -25 0 -18 -5
-25 -20 -25 -15 0 -20 7 -20 25 0 18 5 25 20 25 13 0 20 7 20 20 0 13 7 20 20
20 13 0 20 -7 20 -20z"/>
<path d="M1840 1780 c0 -13 7 -20 20 -20 13 0 20 7 20 20 0 13 -7 20 -20 20
-13 0 -20 -7 -20 -20z"/>
<path d="M2010 2075 c0 -18 5 -25 20 -25 15 0 20 7 20 25 0 18 -5 25 -20 25
-15 0 -20 -7 -20 -25z"/>
<path d="M3550 1070 c0 -13 -7 -20 -20 -20 -13 0 -20 -7 -20 -20 0 -17 -7 -20
-40 -20 -33 0 -40 -3 -40 -20 0 -13 -7 -20 -20 -20 -13 0 -20 -7 -20 -20 0
-15 -7 -20 -25 -20 -20 0 -25 -5 -25 -25 0 -18 -5 -25 -20 -25 -13 0 -20 -7
-20 -20 0 -13 7 -20 20 -20 13 0 20 7 20 20 0 17 7 20 45 20 41 0 45 2 45 25
0 18 5 25 20 25 13 0 20 7 20 20 0 13 7 20 20 20 13 0 20 7 20 20 0 17 7 20
45 20 38 0 45 3 45 20 0 13 7 20 20 20 13 0 20 7 20 20 0 17 -7 20 -45 20 -38
0 -45 -3 -45 -20z"/>
</g>
</svg>
