<?xml version="1.0" standalone="no"?>
<!DOCTYPE svg PUBLIC "-//W3C//DTD SVG 20010904//EN"
 "http://www.w3.org/TR/2001/REC-SVG-20010904/DTD/svg10.dtd">
<svg version="1.0" xmlns="http://www.w3.org/2000/svg"
 width="343pt" height="648pt" viewBox="0 0 343 648"
 preserveAspectRatio="xMidYMid meet">
<metadata>
Created by potrace 1.8, written by Peter Selinger 2001-2007
</metadata>
<g transform="translate(0,648) scale(0.074913,-0.074913)"
fill="#000000" stroke="none">
<path d="M2357 8462 c-18 -2 -32 -12 -39 -28 -6 -13 -14 -24 -18 -24 -3 0 -13
-24 -22 -52 -35 -111 -68 -225 -68 -236 0 -7 -4 -12 -10 -12 -11 0 -30 64 -30
103 0 59 -72 180 -118 199 -48 20 -155 36 -176 28 -65 -25 -95 -90 -106 -230
-5 -58 -13 -140 -19 -184 -6 -43 -13 -180 -16 -304 l-5 -226 -45 -52 c-25 -29
-45 -57 -45 -63 0 -6 -4 -11 -8 -11 -7 0 -42 -61 -92 -160 -58 -114 -109 -262
-129 -374 -13 -72 -14 -86 -3 -86 5 0 14 33 21 73 17 96 35 153 86 272 51 119
107 227 138 266 12 16 33 43 46 60 25 33 41 26 41 -18 0 -12 5 -25 11 -28 7
-5 8 67 4 242 -4 145 -2 281 4 328 5 44 17 145 26 225 18 169 26 193 71 220
30 19 36 20 66 7 18 -8 38 -20 44 -28 16 -19 34 -82 41 -144 3 -27 12 -72 19
-100 14 -51 60 -232 69 -272 5 -23 35 -33 35 -13 0 6 16 43 34 83 48 100 80
193 110 318 32 133 50 176 77 184 30 10 76 -13 87 -43 29 -75 84 -283 78 -289
-3 -3 1 -22 9 -42 8 -20 18 -58 24 -86 5 -27 17 -75 26 -105 32 -108 38 -102
-105 -121 -69 -10 -143 -23 -165 -29 -73 -20 -175 -65 -172 -75 8 -23 146 -7
267 30 51 16 150 34 227 42 42 4 75 -3 195 -42 78 -25 184 -66 233 -90 50 -23
106 -49 125 -56 19 -7 37 -16 40 -19 3 -3 22 -16 42 -29 38 -23 42 -30 53 -91
6 -32 12 -38 63 -59 123 -51 378 -132 487 -155 33 -7 208 -80 225 -94 11 -9
38 -60 59 -113 74 -182 105 -343 73 -375 -18 -18 -114 -63 -147 -70 -11 -2
-44 -9 -73 -15 -63 -13 -233 8 -372 45 -47 13 -134 37 -195 53 -200 54 -267
66 -356 66 -72 -1 -96 -6 -143 -28 -31 -15 -64 -38 -73 -51 -23 -36 -33 -102
-20 -138 12 -36 77 -113 110 -131 12 -7 49 -28 82 -46 83 -48 127 -64 225 -87
98 -23 199 -50 355 -98 61 -18 137 -38 169 -44 57 -10 106 -32 106 -48 0 -10
-29 -52 -55 -78 -68 -70 -151 -84 -310 -54 -60 12 -132 25 -160 30 -27 5 -72
16 -100 25 -36 12 -99 18 -225 21 -155 4 -183 2 -242 -16 -52 -16 -73 -28 -97
-57 -52 -64 -52 -129 0 -116 24 7 25 23 2 23 -32 1 57 68 127 96 36 14 70 29
75 34 6 4 30 11 54 15 40 7 43 6 37 -11 -31 -80 -29 -177 5 -249 19 -38 19
-40 0 -58 -10 -10 -31 -20 -47 -21 -53 -5 -198 -27 -244 -37 -61 -13 -326 -12
-425 1 -78 11 -164 29 -255 53 -27 7 -110 12 -205 12 -145 -1 -166 -3 -224
-25 -76 -29 -95 -55 -35 -48 22 3 81 15 133 27 134 30 300 25 321 -9 4 -6 10
-66 14 -133 10 -194 13 -207 52 -223 38 -16 35 1 36 -229 0 -158 2 -151 -47
-201 -57 -60 -66 -90 -60 -200 2 -49 4 -102 4 -118 0 -42 36 -109 70 -129 26
-15 30 -23 33 -73 5 -91 -2 -154 -18 -154 -9 0 -14 11 -14 34 0 28 -4 35 -26
40 -34 9 -52 -7 -34 -29 7 -9 19 -14 26 -11 9 3 15 -6 18 -27 8 -48 2 -107 -9
-104 -5 1 -9 17 -7 35 3 31 1 32 -33 32 -34 0 -75 27 -75 50 0 16 -34 28 -63
23 -15 -3 -27 -9 -27 -13 0 -11 49 -30 64 -24 19 7 47 -86 37 -124 -7 -24 -8
-21 -13 21 -3 26 -7 50 -9 52 -2 2 -23 -2 -46 -8 -41 -11 -43 -10 -71 23 -25
28 -37 34 -85 38 -50 4 -61 1 -116 -33 -34 -21 -61 -40 -61 -42 0 -6 53 -25
75 -27 11 0 21 -10 23 -21 3 -15 1 -17 -8 -9 -8 8 -19 4 -42 -17 -36 -35 -54
-36 -86 -6 -20 18 -34 22 -88 21 -63 -2 -66 -3 -107 -47 -45 -47 -55 -60 -75
-95 -12 -22 -11 -21 30 4 23 15 51 37 60 50 31 38 126 60 152 34 14 -14 -12
-39 -55 -50 -21 -6 -49 -21 -62 -33 -95 -88 -103 -94 -144 -100 -48 -6 -52 -1
-24 35 l20 25 -105 2 c-96 2 -104 1 -104 -17 0 -37 24 -54 86 -61 35 -4 58
-11 57 -18 -3 -12 34 -6 43 8 7 12 34 11 34 -1 0 -6 -10 -14 -23 -19 -13 -5
-29 -16 -36 -25 -18 -21 -35 -21 -27 1 6 15 4 15 -13 -1 -12 -11 -23 -34 -27
-52 -8 -43 -18 -49 -46 -30 -31 22 -34 21 -57 -26 -42 -90 -66 -192 -54 -237
6 -23 7 -23 14 -5 4 10 8 31 8 45 1 27 32 64 44 52 4 -3 4 -23 1 -44 -4 -25 1
-57 15 -98 11 -34 21 -70 21 -80 0 -10 6 -34 14 -53 8 -19 18 -70 21 -114 4
-43 13 -100 22 -127 15 -47 14 -48 -21 -133 -20 -47 -36 -90 -36 -96 0 -5 -13
-40 -29 -76 -17 -39 -31 -95 -35 -135 -4 -37 -12 -80 -18 -95 -6 -15 -10 -35
-9 -44 1 -9 -9 -41 -22 -70 -14 -29 -30 -64 -36 -78 -6 -14 -15 -32 -19 -40
-35 -63 -52 -102 -52 -123 0 -24 -47 -75 -89 -97 -29 -15 -45 3 -30 32 6 10 9
26 8 36 -2 9 1 28 6 42 4 14 9 54 11 90 3 89 28 223 54 294 13 32 27 86 32
120 21 138 21 139 9 132 -7 -5 -11 3 -11 22 0 35 9 45 26 31 10 -8 15 0 21 33
7 33 6 44 -4 46 -19 5 -16 20 5 26 18 6 31 43 58 171 19 90 30 280 15 270 -6
-3 -11 -12 -11 -19 0 -13 -68 -131 -137 -240 -21 -32 -52 -81 -69 -108 -17
-27 -44 -65 -60 -86 -16 -20 -37 -49 -47 -64 -9 -15 -31 -42 -48 -59 -18 -18
-43 -58 -57 -88 -24 -51 -26 -67 -26 -181 1 -69 5 -127 10 -130 5 -3 11 55 14
130 4 111 9 141 25 169 35 59 45 51 44 -31 -1 -40 2 -106 6 -146 l8 -73 -43
-44 c-24 -24 -47 -42 -51 -39 -4 2 -13 -4 -18 -15 -6 -11 -19 -22 -30 -26 -20
-6 -136 -192 -165 -265 -39 -97 -66 -179 -66 -203 0 -9 -7 -32 -16 -51 -9 -19
-14 -42 -10 -51 6 -16 8 -16 29 -2 27 17 55 23 77 14 8 -3 32 -8 52 -10 37 -6
37 -5 67 56 16 34 32 73 36 87 11 36 95 180 106 180 14 0 10 -78 -7 -145 -9
-33 -19 -81 -24 -106 -5 -26 -13 -64 -19 -85 -15 -54 -14 -101 3 -107 7 -3 26
1 41 9 50 26 65 19 66 -28 l0 -43 25 50 c18 37 27 76 33 150 5 55 7 102 5 104
-10 10 -16 -12 -23 -87 -5 -44 -11 -85 -15 -91 -4 -6 -29 -11 -57 -11 l-49 0
4 77 c4 81 24 173 40 184 5 4 27 1 50 -5 32 -10 41 -17 40 -34 -1 -34 59 -30
100 6 18 15 49 39 68 55 20 15 53 54 74 87 40 61 61 71 57 29 -7 -82 -12 -111
-21 -122 -17 -21 -45 -140 -48 -202 -2 -61 -24 -180 -41 -225 -5 -14 -16 -59
-23 -100 -8 -41 -18 -78 -24 -83 -19 -13 -90 4 -135 34 -25 16 -53 29 -64 29
-17 0 -19 5 -13 38 4 20 9 55 12 77 l4 40 -18 -50 c-10 -27 -28 -71 -40 -97
-12 -25 -19 -53 -16 -62 5 -14 10 -14 42 3 43 20 68 17 99 -12 22 -20 135 -43
153 -32 4 3 11 33 15 67 4 35 12 72 18 83 5 10 18 58 28 105 9 47 24 105 33
128 11 29 14 56 10 79 l-7 36 44 -7 c55 -9 197 -84 205 -108 3 -10 9 -18 14
-18 12 0 33 68 24 81 -4 7 -7 107 -7 223 0 274 12 317 48 171 10 -38 17 -99
16 -134 -2 -67 17 -201 29 -201 4 0 7 -20 7 -44 0 -25 4 -51 10 -58 6 -7 14
-38 17 -68 4 -30 17 -73 30 -95 21 -37 25 -40 61 -37 22 2 44 7 50 12 6 5 31
12 55 16 25 4 56 14 70 23 14 8 26 16 28 17 1 0 -7 22 -18 48 l-20 47 28 10
c26 10 50 9 84 -6 15 -6 17 1 13 72 -3 43 -11 124 -18 181 -8 56 -13 133 -12
170 2 74 22 256 31 284 6 20 30 23 54 8 13 -8 12 -11 -5 -24 -20 -14 -20 -16
18 -173 21 -87 45 -180 52 -208 19 -69 36 -187 39 -269 1 -46 6 -71 15 -74 7
-2 31 9 54 25 52 37 154 76 162 63 3 -6 5 -76 3 -157 -1 -82 -2 -218 -1 -303
1 -85 2 -168 2 -185 0 -16 -1 -100 -1 -185 0 -85 0 -271 -1 -412 -1 -160 2
-261 8 -267 7 -7 25 -5 55 5 53 17 76 55 65 104 -5 23 -3 30 9 30 19 0 20 5 6
30 -6 11 -13 39 -15 62 -5 38 -3 44 20 55 20 9 25 8 25 -2 0 -8 -5 -17 -10
-20 -21 -13 -9 -25 25 -25 29 0 35 -4 35 -21 0 -19 -4 -21 -35 -16 -37 6 -50
-11 -15 -20 23 -6 26 -23 8 -41 -9 -9 -9 -12 0 -12 17 0 15 -37 -3 -44 -8 -3
-15 -10 -15 -17 0 -6 7 -9 15 -5 8 3 15 0 15 -7 0 -7 18 -27 40 -45 37 -30 44
-33 85 -26 48 7 63 22 63 64 0 14 3 196 6 405 3 209 6 502 6 652 l0 272 28 3
27 3 -1 100 c-1 55 -5 122 -9 149 l-8 50 28 -22 c55 -43 62 -33 71 104 6 78
11 102 30 127 13 18 28 42 33 55 21 46 33 24 29 -52 -2 -51 1 -77 10 -85 9 -9
12 -37 11 -89 -2 -42 5 -126 14 -187 33 -228 33 -231 -28 -219 l-38 7 6 123
c2 69 1 127 -4 130 -5 3 -9 -10 -9 -28 0 -18 -8 -71 -18 -118 -10 -47 -15 -98
-12 -113 5 -28 6 -29 80 -30 83 -2 78 -8 67 76 -8 55 10 72 43 42 11 -10 21
-16 23 -14 2 2 25 50 52 106 44 93 50 101 65 88 23 -21 29 -19 23 8 -12 52
-25 87 -34 87 -5 0 -8 -3 -7 -7 1 -5 -8 -28 -19 -53 -12 -25 -35 -75 -52 -112
-25 -57 -34 -68 -54 -68 -33 0 -45 17 -52 74 -3 27 -10 68 -16 91 -9 37 -7 55
14 126 14 46 28 109 31 139 5 48 4 51 -5 20 -26 -92 -35 -114 -46 -118 -10 -3
-14 26 -15 120 -5 264 -18 670 -22 677 -2 3 -7 71 -10 150 -4 80 -9 148 -11
152 -11 16 -15 259 -5 259 14 0 31 -45 36 -95 3 -22 9 -56 13 -75 l9 -35 1 40
c1 22 -5 73 -13 113 -15 77 -9 128 15 125 8 -1 24 -5 36 -8 16 -5 28 0 46 19
13 14 28 26 34 26 5 0 14 -48 21 -107 10 -92 10 -110 -3 -130 -14 -21 -14 -23
0 -23 22 0 18 -18 -5 -25 -27 -9 -25 -25 2 -22 14 1 23 -4 26 -16 3 -14 -4
-17 -32 -17 -39 0 -46 -13 -21 -46 8 -10 15 -22 15 -26 0 -15 -33 -8 -47 10
-10 12 -16 14 -19 5 -8 -18 -19 -16 -40 4 -16 16 -16 16 -11 -2 4 -11 9 -65
11 -120 3 -55 13 -127 22 -160 9 -33 22 -107 29 -165 8 -58 19 -128 25 -157 8
-40 8 -70 -3 -132 -8 -44 -11 -78 -7 -76 4 3 10 23 14 45 7 46 11 48 36 17 29
-34 34 -73 15 -113 -9 -19 -14 -43 -10 -53 3 -10 -1 -38 -9 -62 -9 -26 -12
-47 -6 -53 5 -5 -4 -33 -22 -68 -24 -47 -27 -62 -18 -73 17 -21 30 -19 30 5 0
11 7 23 15 26 11 5 12 10 4 26 -9 16 -7 24 9 41 25 24 52 16 52 -15 1 -21 1
-21 11 -5 8 13 8 26 0 45 -5 15 -13 44 -17 65 -12 72 21 41 103 -96 43 -72 89
-152 103 -177 13 -25 29 -48 36 -53 17 -10 27 -61 19 -96 -3 -16 -22 -48 -42
-71 l-37 -42 -45 88 c-25 50 -46 82 -48 73 -5 -19 82 -209 95 -209 16 0 52 41
52 60 0 10 20 40 45 67 25 26 45 55 45 64 0 9 -15 32 -32 51 -35 37 -68 91
-68 113 0 7 24 25 53 40 28 15 69 40 89 56 62 48 58 58 63 -176 2 -95 10 -115
44 -115 15 0 44 -9 66 -20 23 -12 54 -19 79 -17 39 2 40 3 53 52 9 37 10 74 4
139 -5 49 -7 119 -4 155 2 36 4 80 3 96 -1 17 -3 54 -4 84 0 30 -6 56 -12 58
-7 2 -11 -75 -12 -252 -1 -156 -6 -263 -12 -275 -14 -27 -69 -26 -103 0 -14
11 -36 20 -50 20 l-24 0 5 100 c3 68 1 104 -7 114 -7 8 -11 39 -9 73 2 57 -6
111 -38 243 -32 137 -54 246 -54 271 0 29 -28 117 -39 123 -4 3 -6 -8 -3 -23
4 -32 -15 -111 -27 -111 -5 0 -12 17 -16 38 -12 60 -21 283 -11 289 11 7 26
-17 26 -44 0 -45 22 -127 30 -112 9 16 -6 122 -21 151 -5 10 -8 22 -5 27 3 4
-2 32 -10 62 -8 30 -17 117 -20 194 -3 77 -12 181 -21 230 -9 50 -15 114 -14
143 1 44 -2 52 -16 52 -31 0 -41 14 -48 63 l-7 47 46 0 c25 0 46 -4 46 -10 0
-5 -4 -10 -10 -10 -5 0 -10 -9 -10 -19 0 -11 -5 -23 -10 -26 -14 -8 -3 -25 16
-25 9 0 23 18 31 40 9 22 21 40 27 40 20 -1 69 -48 64 -62 -5 -12 1 -103 16
-233 9 -72 25 -166 48 -275 11 -52 22 -120 24 -150 6 -76 23 -125 37 -111 6 6
12 23 13 38 2 45 21 37 47 -21 14 -31 49 -91 78 -133 29 -43 64 -98 78 -123
96 -165 152 -256 187 -305 60 -84 137 -158 210 -200 108 -63 122 -68 149 -51
27 18 27 29 -3 77 -12 20 -22 44 -22 52 0 10 -24 28 -60 46 -125 62 -235 160
-275 243 -66 140 -99 190 -181 275 -50 52 -71 94 -125 243 -22 63 -44 120 -48
125 -4 6 -13 37 -20 70 -27 122 -53 231 -61 250 -9 20 -27 82 -50 165 -6 25
-18 62 -25 82 -9 24 -10 40 -4 44 6 3 45 3 87 -1 42 -3 104 -8 137 -10 33 -1
92 -6 131 -10 68 -7 71 -6 87 19 22 32 22 109 1 130 -8 9 -30 16 -48 16 -19 0
-48 3 -65 6 -20 4 -31 3 -31 -5 0 -6 3 -10 8 -10 4 1 20 1 35 0 25 -1 28 -4
25 -28 l-3 -28 -110 2 c-60 1 -129 2 -153 3 -29 0 -45 5 -49 16 -9 23 12 37
59 39 24 1 65 2 92 3 75 3 44 20 -44 25 l-75 4 2 29 c6 113 5 123 -16 153 -25
35 -67 67 -95 72 -10 2 -24 13 -30 24 -42 77 -122 100 -173 49 -37 -37 -61
-43 -118 -28 -27 8 -63 14 -78 14 -15 0 -41 7 -56 15 -18 9 -42 12 -65 8 -31
-5 -36 -3 -36 14 0 37 34 56 90 51 56 -6 63 3 23 29 -16 10 -31 22 -35 27 -19
28 -148 -51 -148 -90 0 -9 -11 -14 -27 -14 -16 0 -45 -3 -65 -6 -36 -6 -37 -6
-40 27 -2 19 3 46 11 61 17 32 11 42 -27 43 -25 0 -27 4 -30 44 -3 37 1 48 21
65 32 28 47 58 63 125 29 123 13 230 -51 326 l-36 54 6 157 5 157 39 36 c37
34 39 39 45 116 4 44 8 104 9 133 1 29 6 57 12 61 5 5 60 14 120 20 61 7 136
21 168 32 31 10 66 19 76 19 11 0 41 11 68 24 26 14 65 32 86 41 20 10 37 22
37 27 0 5 -11 28 -24 51 -29 51 -39 102 -30 157 9 57 33 67 110 45 147 -41
254 -63 323 -66 29 -2 54 -6 57 -11 9 -14 153 -9 225 9 52 12 78 25 104 50 19
18 43 33 53 33 31 0 98 -87 213 -273 39 -65 83 -126 97 -135 23 -15 26 -15 43
6 17 22 17 24 0 60 -9 20 -26 51 -36 69 -11 17 -29 47 -40 65 -11 18 -29 46
-39 63 -10 16 -32 53 -47 82 -15 29 -45 71 -66 94 -21 22 -42 48 -47 57 -28
49 -105 92 -165 92 -39 0 -40 1 -57 53 -20 62 -30 77 -55 77 -30 0 -32 -19 -5
-65 29 -48 32 -70 14 -78 -17 -6 -108 23 -108 34 0 5 9 18 21 30 29 29 16 36
-19 10 -17 -12 -34 -21 -39 -21 -5 0 -23 31 -41 70 -34 74 -49 87 -106 93 -27
3 -45 -2 -73 -22 -46 -33 -91 -53 -96 -43 -3 4 -7 28 -11 54 -4 25 -12 51 -19
56 -21 17 -134 22 -147 7 -9 -11 -7 -12 9 -8 17 4 24 -2 36 -31 31 -74 13 -93
-56 -60 -61 30 -63 35 -32 61 l28 23 -37 -17 c-33 -14 -41 -15 -64 -3 -59 32
-87 156 -51 225 29 56 47 66 132 66 43 0 82 -4 88 -10 14 -14 -14 -44 -65 -70
-38 -18 -39 -20 -19 -31 22 -11 64 -7 137 13 39 10 41 12 31 34 -5 13 -7 26
-3 30 6 7 174 -22 183 -31 10 -10 -18 -44 -59 -72 -54 -36 -61 -46 -42 -57 16
-9 103 -4 162 8 27 6 32 11 26 29 -3 11 -13 28 -20 37 -12 13 -19 39 -11 39 1
0 36 -11 77 -24 41 -13 86 -26 99 -28 55 -7 27 -50 -64 -95 l-60 -31 51 -15
c66 -19 125 -9 166 29 20 19 32 25 35 17 9 -25 22 -12 25 24 l3 37 80 2 c44 1
95 5 113 8 42 7 43 -16 2 -72 -46 -64 -80 -75 -80 -26 0 32 -14 37 -35 14 -10
-11 -23 -20 -30 -20 -13 0 -45 -32 -45 -44 0 -4 24 -7 53 -6 28 0 70 -2 92 -5
29 -4 50 -1 75 13 44 24 95 98 103 150 6 32 13 43 40 55 50 24 130 117 168
194 31 62 34 76 34 163 0 87 -2 98 -25 126 -47 58 -121 94 -264 130 -33 8 -65
18 -70 23 -6 5 -27 12 -46 16 -19 4 -40 11 -45 16 -10 7 -66 26 -245 81 -36
11 -83 28 -105 38 -22 10 -58 23 -81 29 -28 7 -45 19 -55 38 -71 140 -124 168
-610 331 l-137 46 -21 50 c-12 28 -21 59 -21 69 0 26 -46 222 -81 346 -35 121
-59 172 -91 193 -47 31 -163 73 -191 70z m1127 -2224 c8 -13 18 -36 22 -52 l7
-29 -39 8 c-21 4 -55 13 -74 21 l-35 15 45 29 c55 35 56 35 74 8z m-1130 -794
c9 -8 16 -19 16 -22 0 -4 14 -13 30 -20 32 -14 40 -32 15 -32 -21 0 -57 -38
-44 -46 6 -4 14 -2 18 4 4 7 7 -13 8 -42 1 -39 -3 -56 -13 -60 -8 -3 -14 -12
-14 -19 0 -25 -24 -34 -74 -28 l-50 6 -2 43 c-1 23 -6 48 -12 55 -11 13 -9 67
3 111 5 19 4 31 -5 36 -25 15 2 30 55 30 35 0 59 -5 69 -16z m76 -179 c0 -8
-4 -15 -10 -15 -5 0 -10 7 -10 15 0 8 5 15 10 15 6 0 10 -7 10 -15z m40 -15
c0 -5 -4 -10 -10 -10 -5 0 -10 5 -10 10 0 6 5 10 10 10 6 0 10 -4 10 -10z
m-118 -135 c6 -13 14 -23 17 -20 4 2 13 -1 21 -6 13 -8 13 -11 0 -22 -8 -6
-21 -20 -29 -30 -13 -16 -12 -20 7 -33 25 -17 29 -34 8 -34 -10 0 -13 -17 -12
-69 0 -62 3 -71 23 -82 16 -9 20 -16 13 -23 -18 -18 -11 -37 30 -76 45 -43 50
-61 18 -57 -15 1 -26 -5 -33 -20 -5 -13 -17 -23 -26 -23 -8 0 -18 -3 -22 -6
-7 -7 11 -52 30 -75 11 -13 10 -19 -7 -37 -11 -12 -20 -27 -20 -35 0 -9 -13
-13 -39 -12 -26 0 -37 4 -34 12 3 7 -5 26 -17 43 -12 17 -19 34 -16 38 4 3 11
0 16 -8 17 -27 11 21 -9 70 -13 31 -25 45 -38 46 -11 1 -32 4 -47 8 -15 4 -26
2 -26 -3 0 -6 -7 -8 -15 -5 -8 4 -15 10 -15 15 0 4 7 6 16 2 14 -5 16 -2 10
21 -5 21 0 38 21 71 15 24 35 44 44 45 18 0 33 26 23 41 -3 5 -2 14 1 20 10
15 12 120 3 126 -12 7 -10 51 3 58 6 4 7 19 4 36 -9 40 0 49 46 49 32 0 41 -4
51 -25z m118 -525 c0 -14 -15 -19 -29 -10 -17 10 -5 31 14 23 8 -3 15 -9 15
-13z m-20 -60 c0 -5 -4 -10 -10 -10 -5 0 -10 5 -10 10 0 6 5 10 10 10 6 0 10
-4 10 -10z m-50 -69 c0 -11 -4 -23 -10 -26 -6 -4 -10 5 -10 19 0 14 5 26 10
26 6 0 10 -9 10 -19z m-90 -106 c0 -8 -4 -15 -10 -15 -5 0 -10 7 -10 15 0 8 5
15 10 15 6 0 10 -7 10 -15z m38 -114 c28 -18 41 -58 31 -102 -8 -35 -7 -43 8
-55 11 -8 14 -17 8 -21 -12 -10 -33 -52 -36 -73 -1 -8 3 -28 9 -43 7 -16 12
-36 12 -46 0 -9 11 -32 25 -51 14 -19 25 -38 25 -42 0 -16 -30 -8 -51 13 l-22
22 8 -39 c4 -22 11 -44 15 -49 5 -6 8 -39 6 -73 -1 -35 1 -65 5 -68 5 -3 4
-17 -2 -31 -7 -20 -6 -28 3 -35 18 -11 50 -10 43 2 -9 15 4 30 21 23 22 -8 41
-51 49 -108 6 -50 6 -50 -12 -27 -10 13 -22 20 -26 16 -6 -6 -49 -12 -97 -14
-8 0 -32 2 -53 6 -24 4 -43 2 -52 -6 -17 -14 -17 -15 -33 23 -17 41 -15 55 10
59 15 2 27 15 36 40 13 34 13 39 -7 66 -27 38 -27 62 -1 62 24 0 25 8 5 37
-14 20 -15 72 0 106 6 13 4 16 -9 11 -12 -5 -16 0 -16 21 0 20 4 26 15 21 19
-7 40 40 28 63 -16 34 -22 213 -9 258 8 28 17 36 46 42 3 0 11 -3 18 -8z m329
-193 c-3 -8 -6 -5 -6 6 -1 11 2 17 5 13 3 -3 4 -12 1 -19z m-884 -17 c29 -29
-69 -63 -115 -39 -21 10 -24 44 -5 52 20 9 107 0 120 -13z m37 -11 c0 -5 -4
-10 -10 -10 -5 0 -10 5 -10 10 0 6 5 10 10 10 6 0 10 -4 10 -10z m1415 -2 c36
-16 31 -26 -20 -49 -52 -23 -73 -22 -89 4 -9 15 -7 22 13 38 26 22 59 24 96 7z
m-1065 -17 c0 -6 -4 -13 -10 -16 -5 -3 -10 1 -10 9 0 9 5 16 10 16 6 0 10 -4
10 -9z m468 -14 c6 -6 14 -26 17 -42 4 -17 14 -41 22 -53 13 -22 13 -28 -9
-68 -12 -24 -26 -44 -30 -44 -4 0 -10 25 -13 55 -6 45 -13 59 -36 76 -35 24
-37 52 -7 73 27 19 42 20 56 3z m-95 -4 c7 -12 -11 -53 -23 -53 -11 0 -14 43
-3 53 9 9 21 9 26 0z m157 -28 c-9 -11 -16 -13 -23 -6 -7 7 -6 15 3 26 9 11
16 13 23 6 7 -7 6 -15 -3 -26z m-593 -28 c5 -18 9 -44 7 -58 -1 -13 -3 -32 -3
-41 -1 -19 -45 -26 -55 -9 -5 8 8 92 19 129 8 22 21 13 32 -21z m923 3 c22
-47 39 -121 34 -149 -8 -38 -36 -45 -149 -34 l-80 8 1 32 c1 17 17 61 35 98
l34 66 59 -3 c40 -2 61 -8 66 -18z m-1365 0 c3 -5 1 -10 -4 -10 -6 0 -11 5
-11 10 0 6 2 10 4 10 3 0 8 -4 11 -10z m255 -10 c0 -5 -4 -10 -10 -10 -5 0
-10 5 -10 10 0 6 5 10 10 10 6 0 10 -4 10 -10z m1364 -3 c16 -11 18 -22 12
-60 -8 -51 -8 -52 -37 -37 -10 6 -19 7 -19 2 0 -11 -69 -24 -83 -15 -14 9 14
23 47 23 28 0 28 1 12 18 -13 15 -14 24 -5 50 12 35 41 42 73 19z m76 -22 c26
-41 25 -118 -1 -123 -12 -2 -15 4 -11 27 2 17 -3 49 -12 71 -9 22 -16 45 -16
50 0 21 19 9 40 -25z m-1130 10 c0 -8 -9 -15 -20 -15 -11 0 -20 7 -20 15 0 8
9 15 20 15 11 0 20 -7 20 -15z m-436 -4 c11 -16 -4 -37 -37 -53 -63 -29 -80 5
-19 40 42 24 48 26 56 13z m190 -28 c-4 -21 -11 -46 -15 -55 -8 -14 -1 -17 49
-23 31 -3 64 -7 72 -8 8 -1 16 -15 18 -30 3 -23 -2 -29 -27 -38 -20 -7 -31
-18 -31 -30 0 -10 -4 -19 -8 -19 -4 0 -8 12 -7 28 l0 27 -87 2 c-47 0 -117 6
-155 11 -37 6 -120 10 -183 10 -112 0 -115 0 -118 22 -5 29 13 40 67 40 35 0
42 3 37 16 -8 21 1 34 20 27 8 -3 12 -13 9 -23 -5 -15 9 -18 155 -24 89 -4
165 -4 171 0 6 3 8 12 5 19 -6 17 15 85 26 85 5 0 6 -17 2 -37z m1131 27 c4
-6 15 -8 26 -5 21 7 27 -13 7 -20 -49 -18 -88 -8 -88 21 0 16 46 19 55 4z
m-1260 -51 c0 -19 -6 -25 -27 -27 -32 -4 -36 12 -11 40 21 24 38 18 38 -13z
m1460 -96 c17 -41 18 -43 7 -43 -4 0 -12 10 -17 22 -12 27 -35 35 -35 13 0 -9
-9 -19 -20 -22 -13 -3 -20 -14 -20 -29 0 -13 -4 -24 -10 -24 -5 0 -10 5 -10
10 0 15 -20 12 -65 -10 -52 -25 -65 -25 -94 5 -13 14 -27 25 -33 25 -5 0 -7 4
-3 10 3 5 12 7 19 4 7 -3 29 4 47 15 19 12 46 21 61 21 30 0 46 16 23 23 -11
4 -10 4 2 3 10 -1 18 -8 18 -16 0 -17 14 -30 34 -30 8 0 11 6 6 18 -12 32 -10
36 25 42 44 8 47 6 65 -37z m-1095 -3 c0 -11 -4 -20 -10 -20 -5 0 -10 9 -10
20 0 11 5 20 10 20 6 0 10 -9 10 -20z m580 -12 c36 -5 78 -10 93 -10 39 -1 42
-14 7 -34 -32 -20 -44 -53 -12 -38 27 13 98 10 116 -5 23 -19 20 -48 -6 -57
-51 -16 -109 -7 -142 23 -54 49 -69 53 -186 53 -122 0 -137 8 -106 56 16 23
22 25 94 24 42 -1 106 -6 142 -12z m-1445 -68 c22 -10 25 -14 13 -17 -9 -2
-19 -11 -22 -20 -5 -11 -2 -14 10 -9 31 12 93 18 119 12 45 -12 26 -25 -28
-19 -52 5 -55 4 -97 -36 -24 -23 -50 -39 -57 -37 -7 3 -15 1 -19 -5 -10 -17
-34 11 -34 42 0 37 24 59 66 59 34 0 49 19 17 21 -45 3 -70 1 -91 -5 -32 -10
-27 8 6 21 32 13 75 10 117 -7z m875 1 c0 -9 -23 -21 -41 -21 -4 0 -6 7 -3 15
7 16 44 21 44 6z m-660 -25 c0 -16 -18 -31 -27 -22 -8 8 5 36 17 36 5 0 10 -6
10 -14z m272 -40 c-3 -12 -11 -28 -19 -37 -11 -13 -11 -22 2 -59 8 -23 15 -51
15 -61 0 -24 -21 -35 -31 -17 -10 18 -68 15 -81 -5 -6 -9 -10 -9 -17 2 -5 8
-37 18 -71 23 -34 4 -67 11 -73 15 -7 4 -22 6 -35 4 -34 -4 -40 26 -10 54 34
31 92 47 123 33 35 -16 75 -3 75 25 1 21 1 21 21 -5 24 -33 39 -36 39 -8 0 11
4 20 10 20 5 0 7 13 4 29 -5 23 -2 30 12 33 24 5 43 -19 36 -46z m868 24 c0
-12 -28 -25 -36 -17 -9 9 6 27 22 27 8 0 14 -5 14 -10z m-604 -27 c12 -56 15
-62 29 -56 8 3 18 -2 21 -11 6 -15 8 -15 19 1 24 32 28 5 9 -57 -20 -63 -28
-71 -38 -43 -5 12 -9 14 -14 6 -4 -6 -32 -12 -62 -13 -59 -2 -77 1 -98 14 -7
4 -19 3 -27 -4 -21 -17 -70 13 -84 51 -6 17 -9 34 -7 38 2 3 43 5 90 4 94 -1
91 -3 87 65 -2 30 -1 32 33 32 31 0 36 -4 42 -27z m748 -23 l37 -22 -26 -14
c-51 -26 -89 -21 -123 16 -16 19 -28 39 -25 44 10 15 99 0 137 -24z m-1274 11
c0 -4 -14 -8 -32 -9 -38 -1 -76 -28 -98 -68 -19 -34 -73 -46 -83 -19 -9 21 10
67 34 85 21 17 179 26 179 11z m1128 -25 c52 -58 75 -112 66 -159 -5 -23 -9
-47 -9 -54 0 -7 -6 -18 -13 -25 -9 -9 -12 -8 -12 8 0 11 5 25 11 31 8 8 8 27
-1 69 -15 71 -18 78 -33 66 -14 -11 -54 -20 -121 -28 -45 -5 -51 -3 -72 23
-13 15 -23 33 -24 39 0 16 61 58 69 47 3 -6 24 -12 46 -16 22 -3 49 -8 60 -12
18 -6 17 -5 -3 12 -13 10 -20 22 -16 26 12 12 20 8 52 -27z m-1650 -24 c16
-13 24 -32 29 -71 l6 -54 -49 8 c-57 8 -64 11 -64 30 0 17 42 105 49 105 4 0
16 -8 29 -18z m141 -22 c35 -44 34 -60 -5 -60 -24 0 -64 31 -64 51 0 15 19 49
29 49 4 0 22 -18 40 -40z m101 -29 c0 -11 -4 -23 -10 -26 -6 -4 -10 5 -10 19
0 14 5 26 10 26 6 0 10 -9 10 -19z m1740 5 c0 -8 -12 -16 -27 -19 l-28 -4 33
-14 c38 -16 40 -31 7 -57 -33 -26 -33 -52 0 -52 15 0 31 9 41 25 20 31 44 38
78 25 24 -9 27 -15 25 -48 -1 -20 1 -85 6 -143 5 -81 4 -123 -8 -175 -8 -38
-20 -123 -27 -189 -6 -66 -15 -136 -20 -155 -14 -51 -32 -292 -30 -391 1 -77
-25 -317 -36 -329 -3 -2 -13 1 -22 6 -29 19 -55 121 -62 244 -3 63 -10 123
-14 132 -6 14 -2 20 17 27 22 9 24 14 22 73 -1 35 3 71 9 80 8 13 7 21 -2 30
-14 14 -16 48 -2 48 6 0 10 7 10 15 0 10 -10 15 -30 15 -16 0 -30 4 -30 9 0
15 23 26 48 22 25 -3 27 2 10 28 -9 15 -8 22 5 36 9 9 17 25 17 36 0 15 -7 19
-35 19 -33 0 -35 2 -36 33 -1 17 0 36 1 42 3 17 2 37 -4 115 -22 246 -23 339
-7 387 9 27 20 53 24 60 4 6 3 14 -1 17 -5 3 -15 -13 -22 -34 -16 -49 -46 -56
-36 -9 3 17 6 42 6 55 0 17 9 28 33 38 43 19 87 20 87 2z m-165 -47 c10 -15
-1 -23 -20 -15 -9 3 -13 10 -10 16 8 13 22 13 30 -1z m-365 -53 c0 -3 -4 -8
-10 -11 -5 -3 -10 -1 -10 4 0 6 5 11 10 11 6 0 10 -2 10 -4z m334 -13 c7 -18
-17 -43 -41 -43 -13 0 -18 41 -6 53 12 13 41 7 47 -10z m-1411 -5 c7 -19 -10
-58 -25 -58 -20 1 -58 36 -58 54 0 20 75 23 83 4z m501 -3 c-4 -8 -8 -15 -10
-15 -2 0 -4 7 -4 15 0 8 4 15 10 15 5 0 7 -7 4 -15z m-400 -1 c24 -9 19 -21
-11 -27 -33 -6 -62 11 -41 24 16 10 31 11 52 3z m1054 -31 c-4 -49 -30 -56
-48 -14 -15 36 -7 51 26 51 23 0 25 -3 22 -37z m-941 6 c7 -7 7 -23 0 -52 -14
-59 -20 -399 -9 -502 6 -53 16 -93 26 -104 9 -10 14 -27 11 -42 -15 -76 -4
-761 15 -923 9 -80 9 -101 -2 -111 -18 -18 -98 -30 -98 -16 0 7 -19 10 -47 8
l-47 -2 2 105 c10 378 16 424 61 425 28 0 47 25 37 50 -6 16 -8 17 -24 1 -30
-27 -42 -19 -42 26 0 58 -10 42 -15 -23 -4 -61 -20 -113 -28 -89 -2 8 -9 31
-16 51 -6 19 -11 45 -11 57 0 12 -12 56 -26 98 -14 42 -32 115 -39 161 -12 77
-12 87 3 115 10 17 22 31 27 32 5 0 18 -27 28 -62 11 -35 21 -61 24 -58 8 8
-17 131 -37 184 l-18 46 -10 -45 c-13 -57 -51 -146 -111 -263 -88 -170 -109
-301 -111 -689 0 -69 -3 -89 -15 -94 -9 -3 -23 1 -33 10 -9 8 -52 30 -96 48
-43 18 -80 38 -83 46 -3 7 4 24 16 39 13 16 19 35 15 48 -3 12 0 58 6 101 23
162 29 212 35 300 6 82 41 240 65 290 20 43 50 131 50 148 0 9 5 17 10 17 6 0
10 14 10 32 0 17 8 50 19 72 23 50 38 113 45 188 4 32 13 83 22 115 9 32 20
75 26 96 7 23 7 51 2 75 -12 47 -7 92 10 92 7 0 26 -13 42 -30 16 -16 39 -30
52 -30 12 0 22 -6 22 -12 0 -10 2 -10 8 -1 6 9 31 12 81 10 62 -2 75 1 87 17
8 11 12 28 8 38 -4 14 0 18 18 18 13 0 29 -5 35 -11z m727 -22 c11 -40 7 -77
-8 -77 -8 0 -18 -5 -21 -10 -9 -15 -13 -150 -4 -150 10 0 19 40 19 91 0 36 4
48 18 52 9 4 32 19 51 34 l34 28 -7 -29 c-20 -79 -19 -86 2 -86 14 0 25 13 39
45 20 49 35 55 83 30 33 -17 35 -22 19 -62 -6 -15 -15 -100 -20 -188 -4 -88
-12 -241 -18 -340 -24 -430 -31 -846 -18 -1052 4 -69 2 -94 -7 -103 -14 -11
-46 -4 -46 10 0 5 -7 10 -16 12 -12 2 -24 34 -45 115 -15 62 -30 117 -33 121
-3 5 -16 51 -30 103 -14 52 -32 121 -41 154 -11 39 -18 123 -22 240 -3 99 -7
182 -9 184 -8 9 -13 -6 -15 -47 -4 -68 -19 -60 -21 10 0 35 -1 70 0 78 0 8 1
80 2 160 1 80 6 177 10 215 17 134 32 330 31 375 -2 46 -14 62 -38 53 -8 -3
-13 2 -13 15 0 16 9 23 43 29 67 14 75 13 81 -10z m-796 1 c-7 -19 -35 -21
-41 -3 -5 11 0 15 19 15 16 0 24 -5 22 -12z m626 -4 c10 -26 7 -34 -14 -34
-13 0 -20 7 -20 18 0 33 23 44 34 16z m-96 -6 c18 -18 15 -38 -15 -77 l-28
-36 -1 -182 c-2 -196 -22 -377 -35 -314 -4 18 -8 163 -8 321 l-2 289 28 4 c15
2 33 5 39 6 5 0 15 -4 22 -11z m-212 -66 c-15 -15 -16 -15 -16 0 0 10 6 30 13
45 l12 28 3 -29 c2 -17 -3 -35 -12 -44z m800 31 c-10 -10 -19 5 -10 18 6 11 8
11 12 0 2 -7 1 -15 -2 -18z m-823 -103 c-6 -23 -31 -46 -40 -36 -3 3 -1 17 5
31 14 30 43 35 35 5z m-23 -60 c0 -5 -4 -10 -9 -10 -6 0 -13 5 -16 10 -3 6 1
10 9 10 9 0 16 -4 16 -10z m50 -79 c0 -6 -4 -13 -10 -16 -5 -3 -10 1 -10 9 0
9 5 16 10 16 6 0 10 -4 10 -9z m-1030 -53 c-1 -14 -11 -57 -58 -233 -42 -161
-99 -284 -149 -324 -18 -14 -33 -34 -33 -44 0 -11 -6 -17 -12 -15 -18 6 -22
108 -8 198 14 85 20 100 67 154 18 22 33 44 33 49 0 5 23 38 50 72 28 35 55
77 61 94 6 17 15 31 20 31 5 0 9 7 9 15 0 8 5 15 10 15 6 0 10 -6 10 -12z
m910 -32 c0 -8 -4 -18 -10 -21 -5 -3 -10 3 -10 14 0 12 5 21 10 21 6 0 10 -6
10 -14z m145 -106 c-5 -8 -11 -8 -17 -2 -6 6 -7 16 -3 22 5 8 11 8 17 2 6 -6
7 -16 3 -22z m955 -36 c0 -17 -22 -14 -28 4 -2 7 3 12 12 12 9 0 16 -7 16 -16z
m-970 -5 c0 -5 5 -7 10 -4 6 3 10 0 10 -8 0 -17 -37 -30 -46 -16 -8 13 3 39
16 39 5 0 10 -5 10 -11z m922 -4 c0 -5 -5 -11 -11 -13 -6 -2 -11 4 -11 13 0 9
5 15 11 13 6 -2 11 -8 11 -13z m-1035 -37 c-3 -8 -6 -5 -6 6 -1 11 2 17 5 13
3 -3 4 -12 1 -19z m928 -108 c21 -159 20 -179 -12 -228 -40 -62 -58 -56 -49
16 4 31 9 93 12 137 8 144 16 207 25 198 5 -5 15 -60 24 -123z m-855 100 c0
-5 -4 -10 -10 -10 -5 0 -10 5 -10 10 0 6 5 10 10 10 6 0 10 -4 10 -10z m49
-16 c4 3 13 1 21 -4 12 -8 12 -12 -5 -29 -11 -11 -26 -27 -33 -36 -7 -8 -18
-13 -24 -9 -6 4 -7 9 0 13 12 7 27 51 24 71 -1 10 0 11 4 2 3 -6 9 -10 13 -8z
m1064 -7 c3 -8 1 -20 -4 -28 -11 -19 -32 2 -23 24 7 20 20 22 27 4z m-1013
-51 c0 -17 -14 -29 -23 -20 -8 8 3 34 14 34 5 0 9 -6 9 -14z m-189 -9 c-1 -12
-15 -9 -19 4 -3 6 1 10 8 8 6 -3 11 -8 11 -12z m129 -39 c0 -10 3 -9 9 1 5 7
14 10 20 7 16 -10 14 -26 -4 -26 -13 0 -13 -3 -3 -20 9 -14 14 -16 20 -7 5 9
10 9 20 -1 10 -10 9 -16 -5 -29 -11 -11 -17 -13 -17 -5 0 7 -6 12 -13 12 -18
0 -43 29 -50 58 -3 15 -1 22 9 22 8 0 14 -6 14 -12z m-110 -25 c0 -28 -26 -31
-33 -4 -6 23 -3 28 18 28 9 0 15 -10 15 -24z m-1000 -90 c-6 -32 -22 -94 -35
-138 -23 -76 -38 -172 -66 -400 -7 -55 -17 -103 -23 -107 -6 -4 -28 -8 -48 -8
-44 0 -43 -6 -23 130 14 95 52 222 130 435 20 55 39 109 43 120 5 20 23 37 30
30 2 -2 -1 -30 -8 -62z m996 9 c-4 -3 -12 0 -19 7 -9 9 -9 14 3 21 11 7 16 5
18 -6 2 -9 1 -18 -2 -22z m128 -14 c-3 -4 0 -8 5 -8 6 0 11 -12 11 -26 0 -15
4 -23 10 -19 6 4 8 16 4 28 -6 21 -6 21 13 -2 20 -25 20 -71 -1 -71 -48 1 -56
11 -56 74 0 41 3 56 9 46 6 -8 7 -18 5 -22z m1052 -6 c-4 -3 -12 0 -19 7 -9 9
-9 14 3 21 11 7 16 5 18 -6 2 -9 1 -18 -2 -22z m-1160 -129 c-10 -10 -19 5
-10 18 6 11 8 11 12 0 2 -7 1 -15 -2 -18z m-44 -15 c-9 -9 -12 -7 -12 12 0 19
3 21 12 12 9 -9 9 -15 0 -24z m208 13 c0 -11 -4 -23 -10 -26 -17 -11 -11 -25
11 -25 17 0 20 -4 15 -22 -3 -13 -6 -29 -6 -35 0 -7 -7 -13 -16 -13 -12 0 -14
7 -9 33 4 17 4 29 0 25 -9 -9 -35 9 -35 23 0 5 7 9 15 9 8 0 14 3 14 8 -1 4
-1 15 0 25 1 24 21 22 21 -2z m-87 -41 c9 0 17 -4 17 -8 0 -7 -22 -8 -67 -3
-7 0 -13 6 -13 12 0 7 9 9 23 5 12 -3 30 -6 40 -6z m384 -52 c-3 -8 -6 -5 -6
6 -1 11 2 17 5 13 3 -3 4 -12 1 -19z m-417 -23 c8 -9 8 -15 2 -15 -6 0 -17 -3
-25 -6 -12 -4 -14 0 -10 15 6 25 16 27 33 6z m81 -62 c-7 -12 -10 -13 -11 -4
0 8 -7 11 -19 8 -15 -3 -20 2 -24 22 -7 36 10 43 40 15 20 -18 23 -26 14 -41z
m75 -19 c3 -12 3 -28 -1 -33 -11 -19 -25 -12 -25 13 0 13 -5 26 -12 28 -6 2
-8 9 -4 16 10 17 35 3 42 -24z m-146 -19 c0 -14 -4 -25 -10 -25 -5 0 -10 11
-10 25 0 14 5 25 10 25 6 0 10 -11 10 -25z m100 -30 c0 -8 -4 -15 -10 -15 -5
0 -10 7 -10 15 0 8 5 15 10 15 6 0 10 -7 10 -15z m135 -61 c-2 -11 2 -29 9
-40 18 -25 27 -295 10 -301 -7 -2 -13 23 -17 69 -6 74 -30 253 -42 318 l-7 35
26 -30 c16 -19 24 -38 21 -51z m135 52 c0 -8 -4 -17 -9 -21 -12 -7 -24 12 -16
25 9 15 25 12 25 -4z m-202 -19 c2 -10 -3 -17 -11 -17 -16 0 -30 24 -19 34 10
10 27 1 30 -17z m148 -14 c-10 -10 -19 5 -10 18 6 11 8 11 12 0 2 -7 1 -15 -2
-18z m-346 -54 c0 -18 -4 -28 -10 -24 -5 3 -10 20 -10 36 0 18 4 28 10 24 6
-3 10 -20 10 -36z m63 11 c-10 -11 -21 -20 -25 -20 -5 0 -8 9 -8 20 0 15 7 20
25 20 24 0 24 -1 8 -20z m127 0 c0 -5 -7 -10 -15 -10 -8 0 -15 5 -15 10 0 6 7
10 15 10 8 0 15 -4 15 -10z m240 -21 c0 -5 -4 -9 -10 -9 -5 0 -10 7 -10 16 0
8 5 12 10 9 6 -3 10 -10 10 -16z m-385 -49 c-3 -5 -10 -10 -16 -10 -5 0 -9 5
-9 10 0 6 7 10 16 10 8 0 12 -4 9 -10z m35 0 c0 -5 -5 -10 -11 -10 -5 0 -7 5
-4 10 3 6 8 10 11 10 2 0 4 -4 4 -10z m85 -11 c10 -16 -1 -22 -26 -14 -17 6
-19 9 -8 16 19 12 26 11 34 -2z m305 -13 c0 -3 -4 -8 -10 -11 -5 -3 -10 -1
-10 4 0 6 5 11 10 11 6 0 10 -2 10 -4z m648 -14 c2 -7 -3 -12 -12 -12 -9 0
-16 7 -16 16 0 17 22 14 28 -4z m-748 -7 c0 -8 -4 -15 -10 -15 -5 0 -7 7 -4
15 4 8 8 15 10 15 2 0 4 -7 4 -15z m-330 -9 c0 -3 -4 -8 -10 -11 -5 -3 -10 -1
-10 4 0 6 5 11 10 11 6 0 10 -2 10 -4z m400 -38 c0 -16 -3 -19 -11 -11 -6 6
-8 16 -5 22 11 17 16 13 16 -11z m-340 2 c0 -5 -4 -10 -10 -10 -5 0 -10 5 -10
10 0 6 5 10 10 10 6 0 10 -4 10 -10z m285 -8 c0 -18 -20 -15 -23 4 -3 10 1 15
10 12 7 -3 13 -10 13 -16z m-195 -22 c0 -5 -4 -10 -10 -10 -5 0 -10 5 -10 10
0 6 5 10 10 10 6 0 10 -4 10 -10z m234 -9 c3 -4 3 -11 0 -14 -8 -8 -34 3 -34
14 0 11 27 12 34 0z m-904 -27 c0 -8 -5 -12 -10 -9 -6 4 -8 11 -5 16 9 14 15
11 15 -7z m691 -4 c22 0 25 -15 5 -23 -22 -9 -56 4 -56 20 0 10 6 13 16 9 9
-3 24 -6 35 -6z m304 -8 c4 -10 0 -12 -11 -8 -8 3 -20 6 -25 6 -5 0 -9 4 -9 9
0 15 39 8 45 -7z m-100 -12 c3 -5 1 -10 -4 -10 -6 0 -11 5 -11 10 0 6 2 10 4
10 3 0 8 -4 11 -10z m37 -22 c-15 -15 -26 -4 -18 18 5 13 9 15 18 6 9 -9 9
-15 0 -24z m-377 -26 c-8 -9 -25 20 -18 31 3 5 10 2 15 -7 6 -10 7 -20 3 -24z
m125 -12 c0 -5 -7 -10 -15 -10 -8 0 -15 5 -15 10 0 6 7 10 15 10 8 0 15 -4 15
-10z m-44 -57 c-10 -10 -19 5 -10 18 6 11 8 11 12 0 2 -7 1 -15 -2 -18z m362
-10 c-4 -22 -22 -20 -26 1 -2 10 3 16 13 16 10 0 15 -7 13 -17z m-435 -23 c-3
-11 -7 -20 -9 -20 -2 0 -4 9 -4 20 0 11 4 20 9 20 5 0 7 -9 4 -20z m407 -17
c0 -10 -5 -25 -10 -33 -8 -13 -10 -13 -10 2 0 9 -3 23 -6 32 -4 11 -1 16 10
16 9 0 16 -8 16 -17z m50 -38 c0 -8 -4 -15 -10 -15 -5 0 -10 7 -10 15 0 8 5
15 10 15 6 0 10 -7 10 -15z m40 -5 c0 -11 -4 -20 -10 -20 -5 0 -10 -7 -10 -15
0 -8 -4 -15 -9 -15 -6 0 -6 12 0 32 5 18 9 34 9 35 0 2 5 3 10 3 6 0 10 -9 10
-20z m-46 -69 c9 -12 8 -13 -3 -6 -9 5 -18 2 -26 -9 -11 -15 -13 -14 -17 9 -6
27 23 56 31 32 2 -7 9 -18 15 -26z m-28 -168 c-10 -10 -19 5 -10 18 6 11 8 11
12 0 2 -7 1 -15 -2 -18z m-46 -37 c0 -3 -4 -8 -10 -11 -5 -3 -10 -1 -10 4 0 6
5 11 10 11 6 0 10 -2 10 -4z m5 -61 c14 0 19 -6 17 -19 -2 -10 2 -23 10 -27
10 -7 10 -11 0 -21 -6 -6 -12 -20 -12 -29 0 -9 -7 -22 -15 -29 -11 -9 -15 -10
-15 0 0 8 -10 9 -30 5 -16 -4 -30 -3 -30 2 0 16 22 32 36 26 8 -3 14 0 14 6 0
6 5 10 11 9 6 -2 14 3 17 11 3 8 0 11 -7 7 -7 -5 -11 1 -11 13 0 12 -6 21 -14
21 -8 0 -18 5 -21 10 -9 15 4 32 18 23 7 -5 21 -8 32 -8z m45 -95 c0 -5 -4
-10 -10 -10 -5 0 -10 5 -10 10 0 6 5 10 10 10 6 0 10 -4 10 -10z m-50 -85 c0
-8 7 -11 20 -8 24 6 26 -6 5 -33 -14 -19 -14 -19 -15 0 0 18 -1 18 -19 2 -19
-17 -20 -17 -19 16 0 18 3 36 5 41 6 11 23 -2 23 -18z m-53 -87 c-3 -8 -6 -5
-6 6 -1 11 2 17 5 13 3 -3 4 -12 1 -19z m101 7 c8 -8 -11 -26 -23 -21 -12 4
-35 -11 -35 -25 0 -4 11 -10 25 -13 28 -7 35 -40 10 -50 -8 -3 -15 -1 -15 4 0
6 -9 10 -20 10 -16 0 -19 6 -17 43 4 57 13 70 46 62 14 -4 28 -8 29 -10z m-63
-115 c3 -5 2 -18 -3 -27 -11 -21 -5 -43 10 -43 6 0 8 9 5 19 -5 22 20 38 36
22 7 -7 2 -18 -15 -34 -14 -13 -27 -29 -30 -37 -3 -10 -8 -10 -27 1 -19 12
-22 20 -16 53 3 22 8 43 11 48 7 11 21 10 29 -2z m22 -173 c2 -20 0 -38 -4
-38 -46 -7 -64 -6 -69 3 -4 6 1 15 10 20 9 5 16 15 16 21 0 17 22 38 34 34 5
-2 11 -20 13 -40z m30 11 c-3 -8 -6 -5 -6 6 -1 11 2 17 5 13 3 -3 4 -12 1 -19z
m-131 -65 c-11 -11 -19 6 -11 24 8 17 8 17 12 0 3 -10 2 -21 -1 -24z m119 -37
c-15 -22 -15 -26 -2 -26 20 0 28 -95 10 -130 -7 -14 -10 -33 -7 -43 5 -14 1
-18 -13 -15 -10 2 -19 13 -21 26 -3 19 -6 21 -19 11 -12 -10 -16 -10 -24 2
-12 19 -11 29 2 29 6 0 8 9 3 23 -9 31 -14 34 -25 17 -8 -11 -8 -8 -3 10 4 14
18 35 32 48 23 22 23 37 -1 37 -7 0 -14 11 -15 25 -3 20 -1 23 9 13 18 -18 44
-16 59 2 22 26 34 1 15 -29z m15 -402 c0 -8 -4 -12 -10 -9 -5 3 -10 10 -10 16
0 5 5 9 10 9 6 0 10 -7 10 -16z"/>
<path d="M3027 3190 c-14 -31 -16 -43 -7 -60 8 -16 8 -25 0 -35 -13 -16 1 -28
23 -19 24 9 28 43 6 57 -22 14 -26 29 -5 21 7 -3 21 7 30 21 14 21 15 29 5 41
-19 23 -33 16 -52 -26z"/>
<path d="M3016 3045 c-3 -9 -3 -21 0 -27 4 -5 0 -21 -7 -34 -11 -21 -10 -27 3
-40 20 -20 38 -10 38 21 0 13 6 25 13 28 9 3 9 11 -3 32 -18 34 -35 42 -44 20z"/>
<path d="M1407 3220 c-12 -14 -15 -29 -10 -51 5 -29 4 -31 -16 -24 -17 5 -21
2 -21 -15 0 -13 8 -24 20 -27 29 -8 25 -23 -6 -23 -15 0 -23 -4 -19 -11 4 -6
13 -8 20 -5 7 2 16 -1 19 -9 5 -15 -27 -31 -54 -27 -11 2 -10 -1 4 -12 19 -15
16 -46 -4 -46 -6 0 -8 -5 -5 -11 4 -6 19 -7 36 -4 27 6 29 5 29 -25 0 -21 4
-29 11 -24 8 4 9 27 5 66 -3 32 -1 104 5 159 5 56 8 103 6 105 -1 2 -11 -5
-20 -16z"/>
<path d="M1507 3004 c-22 -20 -26 -29 -17 -39 7 -8 9 -19 5 -25 -7 -11 9 -13
43 -4 28 8 29 32 1 42 -19 7 -19 9 -5 21 17 14 21 31 8 31 -4 0 -20 -12 -35
-26z"/>
<path d="M1332 2928 c-17 -17 -15 -35 6 -47 16 -10 16 -12 -1 -25 -18 -14 -17
-15 3 -21 33 -11 43 6 30 53 -12 47 -22 56 -38 40z"/>
<path d="M1533 2907 c-24 -11 -30 -31 -12 -43 14 -8 42 19 37 38 -2 12 -8 13
-25 5z"/>
<path d="M1411 2843 c-1 -17 4 -35 9 -38 12 -7 12 22 0 50 -7 17 -9 15 -9 -12z"/>
<path d="M1524 2839 c-3 -6 1 -18 10 -28 21 -23 20 -28 -4 -34 -11 -3 -20 -10
-20 -15 0 -19 26 -20 51 -2 19 15 22 21 12 31 -7 7 -13 21 -13 30 0 20 -26 33
-36 18z"/>
<path d="M1277 2758 c-20 -11 -24 -53 -4 -44 6 3 20 9 30 12 20 7 23 30 4 37
-7 3 -21 1 -30 -5z"/>
<path d="M1285 2660 c14 -16 15 -20 4 -21 -29 -3 -34 -4 -37 -14 -2 -5 -8 -15
-13 -21 -6 -7 -2 -17 11 -29 18 -17 20 -16 44 11 16 18 25 41 26 62 0 28 -3
32 -27 32 -25 0 -26 0 -8 -20z"/>
<path d="M1540 2655 c0 -3 9 -23 19 -44 14 -27 17 -41 9 -49 -14 -14 -1 -33
17 -25 25 9 19 76 -8 101 -23 21 -37 28 -37 17z"/>
<path d="M1216 2533 c-25 -27 -26 -43 -2 -43 16 0 31 18 40 48 10 30 -8 28
-38 -5z"/>
<path d="M1577 2454 c-14 -14 -7 -25 13 -22 12 2 21 8 21 13 0 12 -24 18 -34
9z"/>
<path d="M1490 2431 c0 -12 5 -21 10 -21 6 0 10 6 10 14 0 8 -4 18 -10 21 -5
3 -10 -3 -10 -14z"/>
<path d="M1587 2396 c-3 -8 -3 -23 0 -34 2 -11 0 -23 -6 -26 -6 -4 -4 -17 7
-36 13 -22 14 -32 5 -38 -8 -5 -8 -13 2 -32 16 -29 19 -24 33 65 7 43 7 67 -1
84 -14 29 -32 37 -40 17z"/>
<path d="M1511 2385 c0 -11 4 -29 9 -40 8 -18 9 -18 9 5 0 14 -4 32 -9 40 -8
12 -10 12 -9 -5z"/>
<path d="M1140 2250 c0 -5 5 -10 10 -10 6 0 10 5 10 10 0 6 -4 10 -10 10 -5 0
-10 -4 -10 -10z"/>
<path d="M1147 2204 c-14 -15 -6 -34 14 -34 14 0 19 5 17 17 -3 18 -20 27 -31
17z"/>
<path d="M1107 2053 c-11 -10 -8 -41 5 -63 10 -16 10 -22 -5 -33 -17 -12 -17
-14 2 -31 26 -24 32 -18 38 38 5 36 2 47 -11 52 -11 4 -15 13 -11 25 6 19 -5
26 -18 12z"/>
<path d="M1582 2037 c-9 -11 -10 -17 -2 -22 15 -9 23 -1 18 21 -3 15 -4 16
-16 1z"/>
<path d="M1588 1958 c9 -9 15 -9 24 0 9 9 7 12 -12 12 -19 0 -21 -3 -12 -12z"/>
<path d="M1577 1908 c-4 -13 0 -29 8 -38 11 -12 12 -19 4 -27 -16 -16 -7 -57
14 -61 10 -2 17 3 17 12 0 9 -8 16 -17 16 -13 0 -12 5 8 26 l24 26 -22 18
c-27 21 -29 30 -8 30 8 0 15 5 15 10 0 20 -38 10 -43 -12z"/>
<path d="M2440 3110 c-13 -9 -11 -14 13 -31 20 -15 26 -27 21 -41 -5 -16 -2
-19 13 -16 27 5 28 46 2 74 -25 27 -28 28 -49 14z"/>
<path d="M2445 2984 c-24 -37 -13 -71 26 -79 33 -7 51 1 30 14 -10 7 -11 12 0
29 11 18 10 24 -5 41 -25 27 -30 26 -51 -5z"/>
<path d="M2336 2865 c-3 -53 -7 -100 -7 -103 -1 -4 -1 -23 0 -42 l2 -35 14 25
c8 15 14 56 15 100 2 118 1 133 -8 142 -5 5 -12 -32 -16 -87z"/>
<path d="M2447 2813 c-4 -3 -7 -15 -7 -25 0 -10 -7 -21 -15 -24 -8 -4 -15 -17
-15 -30 0 -15 6 -24 15 -24 10 0 15 -10 15 -30 0 -21 -4 -28 -14 -24 -19 7
-32 -16 -15 -27 11 -7 12 -12 2 -28 -14 -23 -8 -31 24 -31 18 0 23 5 23 26 0
14 10 35 23 46 13 11 18 21 11 24 -6 3 -19 11 -29 18 -18 13 -17 14 3 32 26
22 28 39 7 48 -22 8 -18 26 5 26 11 0 20 7 20 15 0 15 -40 21 -53 8z"/>
<path d="M2327 2667 c-11 -29 -9 -53 4 -40 6 6 9 21 7 34 -3 21 -4 22 -11 6z"/>
<path d="M2310 2590 c0 -11 5 -20 10 -20 6 0 10 9 10 20 0 11 -4 20 -10 20 -5
0 -10 -9 -10 -20z"/>
<path d="M2406 2424 c-23 -22 -20 -41 8 -48 37 -9 56 3 56 35 0 24 -4 29 -24
29 -14 0 -32 -7 -40 -16z"/>
<path d="M2400 2326 c0 -25 43 -62 60 -51 14 9 12 49 -2 63 -7 7 -22 12 -35
12 -18 0 -23 -6 -23 -24z"/>
<path d="M2390 2236 c0 -19 36 -40 56 -32 20 8 17 35 -3 34 -10 0 -26 3 -35 7
-13 5 -18 3 -18 -9z"/>
<path d="M2423 2099 c4 -15 -1 -27 -16 -40 -26 -21 -18 -35 12 -20 22 12 34 2
21 -18 -5 -8 -16 -11 -26 -7 -18 6 -17 5 0 -9 11 -8 25 -15 31 -15 21 0 32 43
23 88 -7 33 -14 42 -30 42 -16 0 -19 -5 -15 -21z"/>
<path d="M2400 1957 c0 -8 7 -20 15 -27 13 -11 20 -11 40 0 29 16 33 30 8 30
-10 0 -28 3 -40 6 -16 5 -23 2 -23 -9z"/>
<path d="M2410 1884 c0 -3 6 -11 13 -19 16 -15 43 -3 33 14 -7 11 -46 16 -46
5z"/>
<path d="M2300 514 c0 -8 5 -12 10 -9 6 3 10 10 10 16 0 5 -4 9 -10 9 -5 0
-10 -7 -10 -16z"/>
<path d="M1878 8319 c-9 -5 -23 -33 -31 -62 -13 -47 -35 -179 -35 -217 0 -8
-5 -67 -11 -131 -9 -109 -7 -357 4 -405 5 -24 33 -40 46 -27 11 11 29 280 22
317 -4 20 -2 27 5 22 8 -5 11 5 10 28 -1 19 3 41 9 48 6 7 16 45 23 83 19 110
29 138 46 124 8 -6 14 -20 14 -30 0 -11 4 -19 9 -19 13 0 -26 197 -47 237 -17
30 -43 44 -64 32z"/>
<path d="M2020 7905 c0 -18 33 -130 41 -139 16 -17 10 37 -9 86 -17 46 -32 70
-32 53z"/>
<path d="M2037 7613 c-4 -3 -7 -31 -7 -60 0 -65 18 -68 39 -6 12 34 13 44 2
57 -15 17 -24 20 -34 9z"/>
<path d="M1871 7457 c-6 -8 -8 -17 -4 -20 11 -12 21 -7 26 13 6 23 -5 26 -22
7z"/>
<path d="M2840 7300 c-14 -4 -42 -8 -62 -9 -39 -1 -165 -44 -183 -62 -7 -7 0
-18 20 -34 28 -23 31 -24 55 -8 47 31 71 41 91 36 21 -6 25 -34 7 -62 -14 -23
4 -51 33 -51 10 0 21 -4 24 -10 15 -24 31 -6 48 53 10 34 15 70 11 80 -5 13 1
20 25 28 44 15 38 43 -9 46 -19 1 -46 -2 -60 -7z"/>
<path d="M3715 7030 c-3 -5 0 -10 8 -10 8 0 20 -7 27 -15 7 -8 19 -15 26 -15
21 0 90 -47 172 -117 74 -64 92 -74 92 -49 0 13 -91 97 -160 147 -63 46 -153
78 -165 59z"/>
<path d="M3371 6977 c-6 -6 -11 -14 -11 -18 0 -4 53 -7 118 -7 64 0 137 -5
162 -12 56 -15 156 -58 192 -82 27 -19 58 -24 58 -10 0 13 -139 89 -206 114
-46 17 -85 22 -180 24 -81 2 -125 -1 -133 -9z"/>
<path d="M2655 6906 c-99 -61 -142 -104 -200 -201 -27 -45 -38 -92 -24 -100
20 -13 50 7 56 37 3 16 20 45 37 63 17 18 38 44 46 58 24 41 94 111 98 99 2
-6 -4 -22 -14 -37 -12 -19 -13 -24 -3 -20 8 3 28 27 46 53 18 26 41 59 53 74
11 14 17 28 13 31 -4 2 -53 -23 -108 -57z"/>
<path d="M3053 6890 c-84 -22 -130 -50 -195 -118 -52 -53 -57 -66 -32 -76 19
-7 18 -8 32 21 7 11 33 31 59 43 27 12 74 35 107 51 34 17 89 34 130 39 39 6
79 13 89 16 10 3 23 2 30 -3 17 -13 127 -16 127 -4 0 16 -20 24 -95 37 -97 18
-168 16 -252 -6z"/>
<path d="M1678 6856 c-69 -52 -124 -116 -161 -189 -36 -72 -44 -112 -22 -120
19 -8 72 28 81 55 3 10 10 18 15 18 6 0 17 16 25 36 9 21 22 43 30 51 8 8 14
21 14 30 0 8 15 33 34 56 48 61 70 107 49 107 -5 0 -34 -20 -65 -44z m-48
-126 c0 -5 -5 -10 -11 -10 -5 0 -7 5 -4 10 3 6 8 10 11 10 2 0 4 -4 4 -10z
m-10 -25 c0 -10 -44 -65 -52 -65 -11 0 11 53 25 62 14 9 27 10 27 3z"/>
<path d="M3535 6849 c-27 -5 -74 -21 -103 -34 -29 -14 -57 -25 -62 -25 -6 0
-10 -4 -10 -10 0 -13 -4 -14 60 11 76 30 264 46 344 30 64 -13 96 -3 56 19
-29 15 -222 22 -285 9z"/>
<path d="M3695 6774 c-16 -2 -55 -9 -85 -15 -49 -10 -79 -19 -158 -50 -13 -5
-21 -13 -18 -17 3 -5 56 5 118 21 103 27 126 30 258 29 80 -1 160 -2 179 -4
36 -3 53 15 24 26 -19 8 -272 15 -318 10z"/>
<path d="M3790 6680 c-59 -8 -162 -50 -175 -70 -6 -10 -2 -11 16 -6 106 34
179 48 272 53 72 4 107 10 104 17 -4 13 -138 17 -217 6z"/>
<path d="M1387 6558 c-8 -109 -7 -119 11 -142 15 -20 20 -43 21 -103 1 -43 6
-82 11 -87 6 -6 9 53 9 152 -1 151 -6 181 -26 150 -5 -8 -10 21 -13 67 l-5 80
-8 -117z"/>
<path d="M1674 6572 c-109 -119 -175 -242 -130 -242 14 0 100 92 120 128 9 15
8 16 -9 2 -17 -14 -18 -13 -12 12 10 40 50 97 68 98 9 0 19 8 22 18 2 9 8 25
12 35 13 32 -10 16 -71 -51z"/>
<path d="M2553 6583 c-23 -8 -124 -142 -153 -202 -32 -66 -39 -111 -16 -111
40 0 118 108 97 134 -12 15 16 76 35 76 8 0 14 7 14 15 0 8 6 15 14 15 8 0 16
14 18 38 6 43 6 41 -9 35z"/>
<path d="M1736 6425 c-21 -36 -42 -68 -47 -71 -5 -3 -22 -35 -39 -71 -34 -72
-34 -113 -1 -113 23 0 69 52 77 88 4 15 11 32 16 39 5 6 6 23 2 37 -7 30 18
107 42 126 17 15 18 30 2 30 -7 0 -30 -30 -52 -65z"/>
<path d="M1981 6298 c-45 -64 -131 -245 -131 -277 0 -10 7 -25 16 -32 14 -12
20 -9 43 18 33 40 61 116 61 166 0 22 12 62 30 97 33 65 34 70 21 70 -5 0 -23
-19 -40 -42z"/>
<path d="M1442 6162 c-29 -60 -28 -70 6 -74 26 -3 27 -5 32 -80 9 -123 20
-103 18 33 -1 119 -9 169 -25 169 -5 -1 -18 -22 -31 -48z"/>
<path d="M2160 6154 c-6 -14 -10 -30 -10 -35 0 -5 -4 -17 -9 -27 -41 -85 -70
-165 -73 -202 -6 -114 11 -126 54 -39 29 58 35 95 17 101 -12 4 13 111 31 133
4 6 11 29 15 53 8 48 -9 59 -25 16z"/>
<path d="M2286 6111 c-11 -18 -58 -155 -76 -224 -20 -75 -26 -157 -12 -157 17
0 44 39 54 77 24 95 24 98 12 108 -16 12 -2 80 27 137 10 20 19 44 19 52 0 17
-15 22 -24 7z"/>
<path d="M2481 6038 c-17 -45 -25 -251 -11 -306 12 -53 31 -70 50 -47 9 11 8
18 -5 31 -15 15 -15 18 6 40 22 23 22 24 5 86 -9 36 -16 92 -14 131 2 75 -14
109 -31 65z"/>
<path d="M2350 6008 c0 -17 -7 -66 -16 -108 -19 -94 -16 -185 6 -185 12 0 16
17 21 75 3 41 9 84 15 95 5 11 9 31 9 45 -1 14 -2 44 -3 68 -2 30 -6 42 -17
42 -10 0 -15 -10 -15 -32z"/>
<path d="M1526 5914 c-4 -9 -13 -14 -21 -10 -12 4 -15 -3 -15 -34 0 -22 3 -40
8 -41 23 -2 45 -8 50 -14 4 -4 6 -52 4 -108 -1 -71 1 -97 8 -87 10 16 14 268
4 294 -8 21 -30 21 -38 0z"/>
<path d="M2891 5876 c-10 -12 -8 -13 9 -9 25 7 37 23 17 23 -8 0 -20 -6 -26
-14z"/>
<path d="M1140 3850 c0 -5 6 -10 13 -11 6 0 23 -2 37 -4 32 -3 46 5 29 16 -19
12 -79 11 -79 -1z"/>
<path d="M1029 3055 c-13 -22 -19 -65 -9 -65 6 0 13 6 16 14 7 19 1 64 -7 51z"/>
<path d="M2831 3050 c-13 -7 -13 -11 -1 -25 11 -13 11 -18 1 -24 -9 -6 -8 -11
3 -20 13 -11 16 -7 22 24 7 40 -3 59 -25 45z"/>
<path d="M1001 2923 c0 -16 -2 -38 -6 -50 -6 -17 -3 -23 9 -23 11 0 16 9 16
29 0 16 7 34 15 41 18 15 10 30 -16 30 -15 0 -19 -7 -18 -27z"/>
<path d="M978 2727 c-23 -18 -29 -44 -13 -57 21 -17 45 -5 45 22 0 36 -13 51
-32 35z"/>
<path d="M3450 2648 c0 -23 22 -75 26 -62 3 6 -2 26 -10 45 -9 19 -15 26 -16
17z"/>
<path d="M3535 2413 c4 -10 11 -36 16 -58 5 -22 17 -69 29 -105 11 -36 20 -73
20 -82 0 -10 5 -18 10 -18 24 0 0 145 -33 197 -4 6 -4 19 -1 27 4 10 -1 25
-11 36 -22 25 -40 26 -30 3z"/>
<path d="M893 2378 c2 -7 10 -13 17 -13 7 0 15 6 18 13 2 7 -5 12 -18 12 -13
0 -20 -5 -17 -12z"/>
<path d="M860 2190 c0 -5 5 -10 10 -10 6 0 10 5 10 10 0 6 -4 10 -10 10 -5 0
-10 -4 -10 -10z"/>
<path d="M2851 2074 c0 -11 3 -14 6 -6 3 7 2 16 -1 19 -3 4 -6 -2 -5 -13z"/>
<path d="M2722 1750 c0 -50 1 -52 9 -23 6 19 5 40 0 55 -8 18 -10 12 -9 -32z"/>
<path d="M810 1746 c0 -10 9 -16 21 -16 24 0 21 23 -4 28 -10 2 -17 -3 -17
-12z"/>
<path d="M797 1683 c-4 -4 -5 -21 -1 -38 4 -21 -2 -48 -19 -86 -16 -37 -22
-66 -19 -91 3 -31 1 -38 -13 -38 -12 0 -15 5 -10 20 11 34 -10 22 -39 -22 -19
-29 -24 -44 -16 -52 7 -7 16 -7 28 1 14 8 26 7 51 -3 55 -23 57 -16 35 104 -5
26 -1 41 16 64 19 26 20 33 9 59 -9 23 -9 36 0 55 6 14 11 27 11 29 0 8 -26 6
-33 -2z"/>
</g>
</svg>
