<?xml version="1.0" standalone="no"?>
<!DOCTYPE svg PUBLIC "-//W3C//DTD SVG 20010904//EN"
 "http://www.w3.org/TR/2001/REC-SVG-20010904/DTD/svg10.dtd">
<svg version="1.0" xmlns="http://www.w3.org/2000/svg"
 width="373pt" height="648pt" viewBox="0 0 373 648"
 preserveAspectRatio="xMidYMid meet">
<metadata>
Created by potrace 1.8, written by Peter Selinger 2001-2007
</metadata>
<g transform="translate(0,648) scale(0.089011,-0.089011)"
fill="#000000" stroke="none">
<path d="M3978 7244 c-2 -19 0 -38 4 -40 5 -3 6 -9 3 -14 -3 -5 -1 -11 4 -14
4 -3 11 -24 15 -46 3 -22 11 -40 17 -40 5 0 7 5 4 10 -7 12 2 12 30 1 16 -7
14 -9 -15 -14 -45 -9 -34 -18 13 -10 20 3 37 11 37 17 0 6 -14 36 -31 66 -18
32 -31 69 -30 88 0 27 -3 32 -23 32 -20 0 -25 -6 -28 -36z"/>
<path d="M1900 7144 c-8 -1 -37 -6 -63 -9 -36 -5 -47 -10 -43 -21 3 -8 -1 -14
-10 -14 -8 0 -12 4 -9 10 3 6 -1 7 -9 4 -9 -3 -16 -16 -17 -28 0 -11 -3 -15
-6 -8 -3 8 -22 -2 -56 -30 -29 -24 -54 -45 -57 -48 -3 -3 -20 -13 -39 -22 -18
-8 -29 -18 -23 -22 9 -6 167 94 187 119 6 7 25 16 43 20 18 3 30 10 28 13 -2
4 26 6 62 4 48 -2 63 0 52 7 -8 6 -10 11 -4 11 6 0 14 -3 18 -7 4 -5 34 -6 65
-5 44 3 62 0 74 -13 19 -18 22 -35 7 -35 -5 0 -10 -6 -10 -13 0 -8 7 -14 15
-14 8 0 12 4 9 8 -2 4 3 24 13 44 15 31 15 37 3 45 -14 9 -195 12 -230 4z
m123 -11 c-7 -2 -19 -2 -25 0 -7 3 -2 5 12 5 14 0 19 -2 13 -5z"/>
<path d="M2016 7075 c-18 -14 -18 -15 -2 -15 9 0 24 7 32 15 21 20 -4 20 -30
0z"/>
<path d="M3613 7072 c-14 -9 -9 -75 6 -80 5 -2 6 -15 2 -30 -9 -36 -2 -74 12
-69 7 3 11 10 9 17 -1 7 2 18 9 26 22 26 -13 151 -38 136z"/>
<path d="M1970 7039 c0 -5 -4 -8 -9 -5 -4 3 -17 -4 -27 -16 l-19 -21 30 16
c17 9 37 21 45 26 13 9 13 11 -2 11 -10 0 -18 -5 -18 -11z"/>
<path d="M980 6990 c14 -4 41 -9 60 -10 32 -2 33 -3 10 -9 -23 -7 -21 -8 15
-14 22 -4 53 -3 69 1 28 8 26 9 -25 20 -71 15 -164 24 -129 12z"/>
<path d="M1882 6975 c-7 -8 -9 -15 -4 -15 5 0 15 7 22 15 16 19 -1 19 -18 0z"/>
<path d="M968 6973 c7 -3 16 -2 19 1 4 3 -2 6 -13 5 -11 0 -14 -3 -6 -6z"/>
<path d="M1344 6935 c-27 -14 -56 -25 -64 -26 -10 0 -11 -2 -2 -6 24 -9 11
-23 -28 -29 -41 -7 -56 -24 -20 -24 11 0 20 -5 20 -11 0 -6 7 -3 16 5 71 71
130 87 218 56 77 -26 90 -25 43 4 l-38 24 36 6 c19 4 33 11 30 16 -3 5 -18 4
-35 -1 -20 -7 -35 -7 -49 0 -32 18 -74 13 -127 -14z"/>
<path d="M2060 6940 c0 -5 5 -10 10 -10 6 0 10 5 10 10 0 6 -4 10 -10 10 -5 0
-10 -4 -10 -10z"/>
<path d="M1230 6920 c0 -5 7 -10 16 -10 8 0 12 5 9 10 -3 6 -10 10 -16 10 -5
0 -9 -4 -9 -10z"/>
<path d="M3650 6920 c0 -5 5 -10 10 -10 6 0 10 5 10 10 0 6 -4 10 -10 10 -5 0
-10 -4 -10 -10z"/>
<path d="M1819 6893 c-13 -16 -12 -17 4 -4 9 7 17 15 17 17 0 8 -8 3 -21 -13z"/>
<path d="M4153 6881 c-6 -24 -21 -28 -29 -6 -4 8 -11 15 -16 15 -7 0 -6 -5 1
-14 9 -11 8 -15 -5 -20 -9 -3 -19 -4 -23 -1 -7 4 -2 -386 4 -393 2 -2 12 1 22
8 16 10 16 11 1 6 -10 -3 -18 -1 -18 4 0 6 6 11 13 12 6 0 17 2 22 3 6 2 17 3
25 4 12 1 12 3 2 10 -11 7 -11 9 2 14 9 4 16 2 16 -4 0 -6 4 -8 9 -5 5 4 10
83 11 176 1 152 -1 170 -16 170 -13 0 -14 3 -5 14 9 10 9 16 1 21 -7 4 -14 -2
-17 -14z m0 -56 c-10 -7 -20 -12 -21 -10 -7 7 23 33 31 28 5 -3 0 -11 -10 -18z"/>
<path d="M2034 6865 c-9 -21 -2 -26 13 -10 8 9 9 16 3 20 -6 3 -13 -1 -16 -10z"/>
<path d="M1133 6840 c-60 -21 -113 -51 -113 -62 0 -4 -14 -8 -31 -8 -17 0 -28
-4 -24 -10 3 -5 -6 -19 -20 -32 -32 -27 -35 -54 -4 -38 11 7 18 14 15 17 -10
10 63 43 94 43 17 0 42 -7 56 -16 18 -13 23 -13 19 -3 -6 15 -50 39 -72 39
-45 0 21 34 125 65 12 3 22 11 22 16 0 12 -5 11 -67 -11z"/>
<path d="M3380 6835 c-6 -8 -8 -20 -4 -26 5 -8 3 -9 -5 -4 -14 8 -45 -29 -47
-55 -1 -8 -5 -37 -9 -63 -8 -54 1 -58 45 -19 13 12 28 22 32 22 5 0 8 7 8 15
0 8 7 15 16 15 10 0 12 4 7 13 -8 12 -12 37 -13 90 -1 30 -11 34 -30 12z"/>
<path d="M1364 6817 c-32 -19 -134 -101 -130 -105 2 -2 37 13 77 32 41 20 90
36 109 37 19 1 46 4 60 8 22 7 19 9 -32 24 -66 20 -58 19 -84 4z"/>
<path d="M2018 6823 c7 -3 16 -2 19 1 4 3 -2 6 -13 5 -11 0 -14 -3 -6 -6z"/>
<path d="M1784 6803 c10 -11 37 -12 30 -2 -3 5 -12 9 -21 9 -9 0 -13 -3 -9 -7z"/>
<path d="M1992 6785 c-13 -29 -29 -31 -101 -9 -29 8 -55 13 -58 10 -8 -7 66
-36 93 -36 13 0 24 -4 24 -10 0 -23 30 -7 49 26 23 39 25 44 13 44 -5 0 -14
-11 -20 -25z"/>
<path d="M1422 6728 c-23 -11 -41 -23 -38 -25 2 -2 18 3 35 11 16 9 37 16 46
16 8 0 15 5 15 10 0 14 -9 12 -58 -12z"/>
<path d="M683 6684 c-26 -31 -53 -62 -59 -68 -6 -6 -19 -28 -29 -49 -20 -43
-27 -45 -48 -14 -21 32 -87 102 -87 93 0 -5 16 -26 35 -47 19 -22 35 -43 35
-47 0 -4 -29 -6 -65 -4 -54 4 -80 -1 -140 -23 -41 -14 -80 -34 -87 -43 -11
-14 -10 -15 12 -8 55 15 156 18 200 6 l45 -13 -42 -14 c-50 -17 -135 -90 -158
-136 -10 -18 -25 -56 -36 -86 l-19 -53 35 26 c18 14 38 26 43 26 6 0 12 4 14
9 3 8 101 61 112 61 3 0 -15 -39 -39 -88 -121 -240 -180 -634 -129 -870 13
-63 58 -201 80 -247 13 -27 22 -40 19 -29 -11 42 -15 90 -20 242 -6 157 2 191
25 105 39 -147 102 -288 173 -387 31 -43 57 -75 57 -72 0 4 -16 38 -35 76 -19
38 -35 74 -35 79 0 6 17 -1 37 -15 69 -47 135 -77 143 -64 8 13 60 3 60 -11 0
-20 31 -7 40 16 13 34 72 68 168 99 131 41 191 48 487 57 346 10 421 16 512
40 40 10 75 19 79 19 3 0 3 41 0 91 l-7 92 39 37 c43 42 53 72 51 159 l-2 56
-8 -70 c-11 -88 -24 -119 -54 -135 -32 -17 -38 -39 -39 -139 l-1 -83 -35 -3
c-19 -1 -54 -5 -77 -9 l-43 -8 -1 34 c-1 18 -1 39 0 46 1 6 -7 12 -18 12 -14
0 -25 11 -36 36 -13 31 -17 34 -36 24 -17 -10 -23 -8 -35 7 -8 10 -14 32 -13
48 1 17 0 55 -1 85 -2 50 -4 45 -15 -45 -16 -119 -28 -166 -61 -222 -23 -39
-28 -43 -65 -43 -37 0 -40 2 -34 23 4 12 11 26 16 32 5 5 9 20 9 35 -1 23 -2
23 -19 -10 -38 -77 -42 -80 -94 -80 l-49 0 34 28 c43 35 67 64 68 80 0 6 4 12
8 12 10 0 42 87 42 113 0 9 5 17 10 17 6 0 10 -5 10 -12 0 -6 3 -8 6 -5 4 4 1
13 -6 22 -13 16 -32 21 -28 8 3 -12 -23 -84 -48 -133 -48 -92 -91 -123 -174
-126 -76 -2 -180 -14 -251 -28 -32 -7 -59 -10 -59 -6 0 3 -20 27 -44 52 -47
49 -100 149 -93 176 2 11 9 4 21 -23 19 -44 67 -118 73 -112 2 3 -4 18 -14 34
l-17 30 54 61 c34 38 64 63 84 68 l31 8 -32 3 c-47 6 -90 -21 -115 -72 -12
-25 -26 -45 -30 -45 -21 0 -26 49 -12 99 l16 51 56 2 57 2 -47 3 c-47 4 -63
18 -33 29 8 4 15 16 15 29 0 12 9 30 19 39 11 10 25 41 32 69 6 29 27 82 45
119 19 37 34 74 34 83 0 8 5 15 10 15 6 0 10 -16 10 -36 0 -27 5 -37 20 -41
11 -3 17 -9 14 -14 -3 -5 -10 -7 -15 -4 -5 4 -9 -6 -9 -22 l1 -28 24 30 c14
17 28 45 31 63 3 17 11 32 17 32 6 0 23 12 38 26 26 25 94 48 111 38 4 -3 8
-14 8 -24 0 -11 9 -36 20 -55 l21 -37 -38 4 c-34 3 -38 0 -41 -22 -3 -22 -2
-23 10 -8 16 20 98 30 98 11 0 -8 -10 -18 -23 -24 -16 -7 -28 -27 -40 -66 -14
-48 -16 -78 -4 -62 16 20 67 111 67 119 0 16 6 13 70 -34 33 -24 73 -50 90
-58 16 -7 30 -15 30 -19 0 -3 15 -11 34 -19 24 -9 32 -18 28 -28 -3 -9 -1 -13
5 -9 6 4 26 1 44 -7 21 -8 42 -10 54 -5 33 13 35 11 19 -33 -15 -43 -12 -135
6 -199 5 -15 6 -30 2 -33 -3 -3 0 -6 8 -6 10 0 11 12 4 53 -5 28 -9 84 -9 123
0 69 1 73 35 105 20 19 41 45 48 59 14 30 12 98 -4 104 -8 3 -10 -9 -7 -38 5
-37 1 -48 -25 -77 -25 -28 -37 -34 -70 -34 -24 0 -38 -4 -35 -10 2 -5 -2 -2
-10 8 -8 9 -17 17 -21 17 -4 0 -31 15 -59 34 -29 18 -78 50 -110 70 -33 20
-69 46 -80 58 -12 11 -35 29 -52 39 -16 10 -26 19 -21 19 5 0 2 8 -7 18 -26
29 -43 198 -26 259 7 26 14 53 14 58 0 6 10 14 22 20 12 5 24 22 27 39 9 41
34 66 68 66 33 0 39 20 6 21 -18 0 -19 2 -7 7 24 10 16 35 -43 122 -53 80 -71
94 -82 64 -4 -11 -2 -15 8 -11 8 3 18 -5 25 -19 16 -37 13 -49 -8 -30 -17 16
-19 15 -24 -14 -5 -24 -12 -30 -33 -30 -19 0 -25 -4 -20 -15 3 -8 1 -15 -5
-15 -6 0 -7 -4 -4 -10 3 -5 3 -10 -2 -10 -4 0 -24 -23 -43 -50 -41 -58 -50
-62 -223 -84 -111 -15 -185 -35 -129 -36 13 0 22 -6 22 -16 0 -12 -6 -15 -24
-10 -32 8 -45 -13 -21 -31 17 -12 17 -13 2 -13 -17 0 -114 68 -171 119 -27 24
-56 63 -56 75 0 2 25 6 55 8 45 4 62 11 88 36 33 32 67 117 67 167 0 18 5 25
19 25 11 0 22 4 25 9 3 4 -5 6 -18 4 -17 -4 -25 1 -29 16 -4 15 -13 21 -35 21
-37 0 -89 -18 -124 -42 -42 -29 -53 -22 -29 18 29 49 20 53 -17 8 -17 -20 -34
-34 -40 -30 -9 6 -4 57 7 66 10 8 53 90 47 90 -2 0 -26 -25 -53 -56z m-210
-171 c-7 -2 -19 -2 -25 0 -7 3 -2 5 12 5 14 0 19 -2 13 -5z m1031 -74 c-8 -13
-21 -11 -27 5 -4 10 0 12 14 9 10 -3 16 -9 13 -14z m-721 -46 c-7 -2 -21 -2
-30 0 -10 3 -4 5 12 5 17 0 24 -2 18 -5z m44 1 c-3 -3 -12 -4 -19 -1 -8 3 -5
6 6 6 11 1 17 -2 13 -5z m561 -26 c18 -18 14 -38 -8 -38 -11 0 -20 5 -20 11 0
6 7 9 15 5 21 -8 19 11 -2 23 -10 6 -13 11 -7 11 5 0 15 -5 22 -12z m-48 -68
c0 -5 -2 -10 -4 -10 -3 0 -8 5 -11 10 -3 6 -1 10 4 10 6 0 11 -4 11 -10z m18
-54 c-7 -8 -15 -12 -17 -11 -5 6 10 25 20 25 5 0 4 -6 -3 -14z m-195 -23 c3
-5 -6 -8 -19 -8 -13 0 -24 3 -24 8 0 4 9 7 19 7 11 0 22 -3 24 -7z m157 -40
c0 -7 4 -13 8 -13 5 0 19 -20 31 -45 12 -24 26 -47 32 -50 5 -4 9 -22 9 -41 0
-31 -3 -34 -29 -34 -15 0 -45 -11 -65 -25 -20 -14 -39 -25 -41 -25 -2 0 -3 24
-1 53 2 47 -2 79 -19 157 -4 19 1 30 22 47 25 20 28 20 40 5 7 -9 13 -23 13
-29z m-244 21 c-9 -8 -21 -12 -28 -8 -8 5 -6 10 8 15 31 12 37 10 20 -7z
m-174 -337 c15 -24 41 -69 57 -101 l28 -57 -28 -15 c-16 -8 -38 -31 -48 -52
-11 -20 -20 -32 -21 -27 -4 63 -29 264 -35 278 -15 36 20 16 47 -26z m102
-244 c5 -41 3 -50 -20 -74 -14 -14 -31 -46 -39 -70 -8 -26 -15 -38 -18 -29
-26 77 -26 77 3 135 51 100 64 107 74 38z m-320 -154 c33 -26 33 -51 0 -94
-29 -39 -108 -214 -99 -223 7 -7 7 -8 45 81 77 180 139 211 215 108 33 -45 32
-89 -1 -120 -30 -29 -69 -101 -54 -101 5 0 10 6 10 14 0 7 23 37 50 65 43 44
53 50 70 41 11 -6 22 -23 26 -38 3 -15 7 -31 8 -37 1 -5 -25 -26 -58 -46 -36
-21 -68 -49 -77 -66 -15 -29 -16 -30 -43 -16 -15 8 -43 15 -61 16 -18 1 -31 5
-28 10 2 4 -12 14 -31 22 -53 23 -149 122 -165 172 -13 38 -12 47 8 97 31 74
88 136 128 136 17 0 42 -9 57 -21z m-354 -123 c0 -11 -19 -15 -25 -6 -3 5 1
10 9 10 9 0 16 -2 16 -4z m121 -38 c-11 -11 -13 -10 -7 0 4 7 2 21 -5 30 -12
15 -11 15 6 0 16 -15 17 -20 6 -30z m1306 -5 c10 -16 26 -36 37 -46 10 -9 17
-19 15 -21 -6 -6 -119 -11 -119 -5 -1 2 6 21 14 41 9 21 16 42 16 48 0 19 20
10 37 -17z m123 -63 c0 -5 -2 -10 -4 -10 -3 0 -8 5 -11 10 -3 6 -1 10 4 10 6
0 11 -4 11 -10z m-1540 -32 c0 -19 -2 -20 -10 -8 -13 19 -13 30 0 30 6 0 10
-10 10 -22z"/>
<path d="M1501 6713 c-7 -8 -11 -16 -8 -19 2 -2 10 2 17 11 17 20 9 27 -9 8z"/>
<path d="M2033 6723 c9 -2 23 -2 30 0 6 3 -1 5 -18 5 -16 0 -22 -2 -12 -5z"/>
<path d="M1305 6690 c-27 -7 -27 -8 -5 -8 14 0 36 4 50 8 20 6 21 8 5 8 -11 0
-33 -4 -50 -8z"/>
<path d="M786 6675 c-11 -8 -15 -15 -10 -15 6 0 19 7 30 15 10 8 15 14 9 14
-5 0 -19 -6 -29 -14z"/>
<path d="M1176 6681 c-3 -5 -47 -7 -98 -5 -66 2 -100 -2 -120 -12 -41 -21 -34
-36 9 -18 22 10 60 15 97 13 81 -3 178 11 151 22 -27 10 -33 10 -39 0z"/>
<path d="M2022 6685 c3 -3 18 -7 34 -10 16 -2 45 -6 64 -10 30 -5 28 -3 -10
10 -44 14 -99 21 -88 10z"/>
<path d="M1438 6667 c-26 -25 -77 -40 -121 -33 -29 4 -38 3 -27 -4 26 -17 100
-11 136 11 19 11 34 25 34 30 0 12 -6 11 -22 -4z"/>
<path d="M2005 6639 c11 -7 35 -16 55 -20 19 -4 49 -12 66 -17 18 -6 37 -6 45
-1 10 6 8 9 -8 9 -13 0 -23 4 -23 9 0 5 -26 11 -57 13 -32 3 -67 8 -78 12 -20
7 -20 7 0 -5z"/>
<path d="M3699 6632 c-8 -10 -13 -24 -11 -32 3 -7 -3 -19 -13 -26 -14 -11 -16
-16 -6 -28 7 -8 20 -12 29 -8 15 5 14 3 -1 -13 -15 -14 -21 -15 -27 -5 -6 10
-6 -142 1 -160 1 -3 0 -9 -1 -15 -3 -12 -10 -163 -11 -219 0 -47 16 -68 25
-32 4 15 14 26 24 26 15 0 15 2 2 10 -12 8 -11 10 8 10 13 0 22 6 22 15 0 8 3
15 8 15 4 0 6 19 4 42 -1 24 -3 79 -4 123 0 44 -3 84 -6 89 -3 5 -6 45 -7 90
-3 148 -5 155 -36 118z m16 -22 c3 -5 1 -10 -4 -10 -6 0 -11 5 -11 10 0 6 2
10 4 10 3 0 8 -4 11 -10z"/>
<path d="M1100 6620 c0 -12 8 -12 35 0 18 8 17 9 -7 9 -16 1 -28 -3 -28 -9z"/>
<path d="M3300 6619 c0 -5 5 -7 10 -4 6 3 10 8 10 11 0 2 -4 4 -10 4 -5 0 -10
-5 -10 -11z"/>
<path d="M1237 6609 c7 -7 15 -10 18 -7 3 3 -2 9 -12 12 -14 6 -15 5 -6 -5z"/>
<path d="M994 6601 c3 -5 15 -7 26 -4 28 7 25 13 -6 13 -14 0 -23 -4 -20 -9z"/>
<path d="M1407 6599 c-10 -6 -43 -9 -72 -7 -69 4 -57 -8 16 -16 43 -6 60 -4
71 7 10 10 30 14 60 11 24 -2 58 1 74 6 22 6 11 8 -51 9 -44 0 -88 -4 -98 -10z"/>
<path d="M2190 6590 c0 -4 11 -10 25 -12 13 -3 22 -2 20 2 -7 11 -45 20 -45
10z"/>
<path d="M2290 6549 c0 -5 9 -9 20 -9 11 0 20 2 20 4 0 2 -9 6 -20 9 -11 3
-20 1 -20 -4z"/>
<path d="M2072 6534 c10 -10 20 -15 24 -12 3 4 -5 12 -18 18 -22 12 -22 12 -6
-6z"/>
<path d="M2230 6517 c0 -3 20 -12 44 -20 38 -13 44 -13 39 -1 -3 8 -16 14 -28
14 -13 0 -30 3 -39 6 -9 3 -16 4 -16 1z"/>
<path d="M1395 6469 c-11 -16 -1 -19 13 -3 7 8 8 14 3 14 -5 0 -13 -5 -16 -11z"/>
<path d="M2046 6457 c3 -10 9 -15 12 -12 3 3 0 11 -7 18 -10 9 -11 8 -5 -6z"/>
<path d="M2110 6401 c0 -6 4 -13 10 -16 6 -3 7 1 4 9 -7 18 -14 21 -14 7z"/>
<path d="M2393 6403 c9 -2 25 -2 35 0 9 3 1 5 -18 5 -19 0 -27 -2 -17 -5z"/>
<path d="M2470 6380 c0 -5 7 -10 16 -10 8 0 12 5 9 10 -3 6 -10 10 -16 10 -5
0 -9 -4 -9 -10z"/>
<path d="M2577 6339 c7 -7 15 -10 18 -7 3 3 -2 9 -12 12 -14 6 -15 5 -6 -5z"/>
<path d="M2630 6310 c8 -5 20 -10 25 -10 6 0 3 5 -5 10 -8 5 -19 10 -25 10 -5
0 -3 -5 5 -10z"/>
<path d="M1591 6294 c0 -11 3 -14 6 -6 3 7 2 16 -1 19 -3 4 -6 -2 -5 -13z"/>
<path d="M2745 6260 c3 -5 29 -10 56 -10 74 0 134 -18 169 -52 18 -16 34 -28
36 -25 8 7 -68 69 -102 83 -39 16 -168 19 -159 4z"/>
<path d="M3470 6256 c0 -8 -6 -17 -12 -19 -8 -3 -6 -6 5 -6 11 -1 17 6 17 19
0 11 -2 20 -5 20 -3 0 -5 -6 -5 -14z"/>
<path d="M1611 6234 c0 -11 3 -14 6 -6 3 7 2 16 -1 19 -3 4 -6 -2 -5 -13z"/>
<path d="M2697 6219 c7 -7 15 -10 18 -7 3 3 -2 9 -12 12 -14 6 -15 5 -6 -5z"/>
<path d="M1470 6210 c0 -5 5 -10 11 -10 5 0 7 5 4 10 -3 6 -8 10 -11 10 -2 0
-4 -4 -4 -10z"/>
<path d="M3449 6208 c-1 -7 -1 -17 0 -21 1 -5 -3 -6 -9 -2 -5 3 -10 -1 -10
-11 0 -14 -2 -15 -17 -3 -11 10 -14 10 -9 2 4 -8 2 -13 -6 -13 -7 0 -14 -10
-14 -22 -4 -54 -9 -68 -21 -64 -20 8 -15 -11 6 -26 15 -11 16 -15 5 -25 -9 -9
-14 -9 -16 -1 -2 6 -11 4 -22 -7 -14 -14 -15 -20 -4 -26 11 -7 11 -9 0 -9 -7
0 -10 -4 -7 -10 3 -5 -1 -10 -10 -10 -9 0 -14 -4 -11 -8 2 -4 -4 -8 -14 -9
-10 -1 -49 28 -89 65 -98 93 -168 152 -180 152 -11 0 57 -68 115 -115 154
-126 218 -224 170 -264 -20 -16 -15 -63 6 -67 17 -2 81 -44 86 -56 2 -4 11 -4
20 -1 9 3 14 3 10 -2 -9 -10 21 -34 42 -35 13 0 13 1 0 11 -12 9 -11 10 8 6
12 -3 20 -1 16 4 -3 5 -14 9 -24 9 -23 0 -30 18 -17 50 5 14 14 36 19 50 5 14
18 41 28 61 13 24 18 50 15 80 -7 78 -17 124 -29 131 -7 5 -5 8 7 8 9 0 17 5
17 11 0 5 -4 8 -8 5 -5 -3 -8 9 -6 27 1 18 -4 42 -12 55 -9 14 -10 22 -4 22
19 0 7 64 -12 68 -10 2 -19 -2 -19 -10z m-48 -215 c13 -16 12 -17 -3 -4 -10 7
-18 15 -18 17 0 8 8 3 21 -13z m39 -53 c0 -5 -2 -10 -4 -10 -3 0 -8 5 -11 10
-3 6 -1 10 4 10 6 0 11 -4 11 -10z m-47 -27 c-10 -3 -9 -12 3 -35 9 -17 11
-27 5 -24 -6 4 -19 -2 -31 -14 -12 -12 -15 -20 -7 -20 8 0 7 -4 -3 -10 -13 -9
-13 -11 0 -20 13 -9 13 -10 0 -11 -10 0 -8 -3 5 -9 19 -8 19 -9 1 -9 -18 -1
-18 -2 -1 -21 10 -11 13 -20 7 -20 -7 0 -12 5 -12 10 0 6 -9 10 -19 10 -26 0
-38 20 -20 34 17 13 21 63 8 88 -8 14 -6 16 8 11 15 -5 16 -3 6 8 -15 16 -17
33 -3 24 5 -3 18 -1 27 4 10 6 23 10 28 10 6 0 4 -3 -2 -6z"/>
<path d="M2744 6191 c11 -12 25 -21 32 -21 7 0 15 -6 17 -12 4 -9 6 -9 6 -1 1
6 -16 21 -36 33 -37 22 -38 22 -19 1z"/>
<path d="M1485 6120 c2 -31 9 -67 15 -80 8 -20 9 -11 4 40 -3 35 -10 71 -15
80 -6 10 -7 -4 -4 -40z"/>
<path d="M1852 6121 c-17 -17 -32 -33 -32 -37 0 -4 15 5 33 22 17 16 36 32 42
36 5 5 5 8 -1 8 -5 0 -24 -13 -42 -29z"/>
<path d="M1629 6085 c-6 -27 12 -65 31 -65 12 0 12 2 2 9 -8 5 -17 24 -21 42
-6 26 -9 29 -12 14z"/>
<path d="M2748 6048 c-21 -12 -38 -26 -38 -30 0 -16 26 -6 60 22 40 35 30 38
-22 8z"/>
<path d="M2652 5999 c-23 -12 -42 -25 -42 -29 0 -4 16 1 36 11 20 10 42 20 48
22 6 2 9 7 5 10 -3 4 -24 -3 -47 -14z"/>
<path d="M1512 5978 c13 -41 57 -88 100 -109 76 -37 86 -41 104 -37 18 5 18 5
-1 12 -96 35 -175 94 -190 144 -3 12 -10 22 -15 22 -5 0 -4 -15 2 -32z"/>
<path d="M1686 5995 c10 -8 25 -15 32 -15 6 0 12 -4 12 -9 0 -5 7 -12 16 -15
32 -12 24 1 -16 28 -41 27 -78 37 -44 11z"/>
<path d="M2837 5978 c-15 -11 -9 -13 38 -13 47 0 53 2 38 13 -9 6 -26 12 -38
12 -12 0 -29 -6 -38 -12z"/>
<path d="M2765 5932 c-43 -28 -104 -34 -130 -12 -19 16 -20 3 -1 -16 24 -23
97 -18 129 10 16 14 34 27 40 29 7 2 10 7 7 9 -3 3 -23 -6 -45 -20z"/>
<path d="M1800 5930 c11 -11 23 -20 27 -20 3 0 21 -17 40 -37 18 -21 33 -33
33 -28 0 15 -93 105 -108 105 -7 0 -3 -9 8 -20z"/>
<path d="M2250 5880 c-15 -5 1 -6 40 -3 36 3 67 7 69 9 8 7 -84 2 -109 -6z"/>
<path d="M3165 5860 c3 -5 8 -10 11 -10 2 0 4 5 4 10 0 6 -5 10 -11 10 -5 0
-7 -4 -4 -10z"/>
<path d="M2095 5851 c-34 -7 -110 -45 -120 -61 -4 -6 13 0 37 12 41 22 51 23
253 20 115 -2 207 -1 205 2 -3 2 -34 6 -70 7 -36 1 -82 6 -103 11 -49 11 -164
16 -202 9z"/>
<path d="M2990 5841 c0 -6 4 -13 10 -16 6 -3 7 1 4 9 -7 18 -14 21 -14 7z"/>
<path d="M1361 5774 c0 -11 3 -14 6 -6 3 7 2 16 -1 19 -3 4 -6 -2 -5 -13z"/>
<path d="M1506 5745 c-9 -26 -7 -32 5 -12 6 10 9 21 6 23 -2 3 -7 -2 -11 -11z"/>
<path d="M2153 5723 c-7 -2 -13 -12 -12 -21 0 -11 2 -12 6 -4 7 17 71 15 89
-2 18 -19 18 -45 -2 -112 -22 -76 -16 -115 19 -132 35 -17 263 -21 420 -8 98
8 109 7 129 -10 l22 -19 -16 25 c-14 23 -23 25 -93 28 -42 2 -116 -1 -164 -6
-47 -5 -134 -7 -194 -4 -94 3 -109 6 -118 23 -7 14 -7 30 2 57 7 20 14 39 14
42 1 3 5 13 10 23 11 25 -1 86 -21 108 -16 18 -62 24 -91 12z"/>
<path d="M1486 5693 c-6 -14 -5 -15 5 -6 7 7 10 15 7 18 -3 3 -9 -2 -12 -12z"/>
<path d="M4171 5598 c-7 -35 -18 -92 -25 -128 -6 -36 -14 -69 -17 -75 -4 -5
-10 -32 -14 -60 -3 -27 -11 -72 -17 -99 l-10 -48 -62 5 c-83 8 -128 18 -148
31 -14 10 -6 12 43 14 104 3 92 17 -14 17 -56 0 -112 4 -124 8 -40 14 -25 -7
30 -43 28 -19 54 -39 56 -43 1 -4 9 0 16 9 11 16 18 17 65 6 28 -7 66 -12 83
-12 45 0 52 -8 55 -64 2 -40 0 -47 -13 -42 -60 24 -59 18 2 -20 36 -22 37 -23
12 -24 -15 0 -45 7 -68 15 -22 8 -41 11 -41 6 0 -12 68 -46 76 -39 3 4 13 1
21 -7 8 -8 24 -15 35 -15 11 0 33 -9 49 -21 l29 -20 0 355 c0 196 -1 356 -3
356 -2 0 -9 -28 -16 -62z"/>
<path d="M1325 5635 c23 -70 55 -110 103 -130 17 -8 33 -19 33 -24 1 -6 2 -15
3 -20 0 -5 5 -13 10 -18 5 -5 6 6 2 27 -6 34 -12 39 -70 70 -17 8 -40 35 -53
59 -27 51 -37 64 -28 36z"/>
<path d="M3405 5610 c19 -31 39 -49 48 -43 6 3 7 2 4 -4 -7 -11 22 -41 68 -69
l30 -18 -17 20 c-10 11 -18 29 -18 38 0 13 -6 17 -20 13 -11 -3 -18 -2 -16 2
7 11 -6 25 -48 51 -22 13 -36 18 -31 10z"/>
<path d="M3530 5611 c0 -5 7 -11 15 -15 8 -3 15 -1 15 3 0 5 -7 11 -15 15 -8
3 -15 1 -15 -3z"/>
<path d="M3104 5533 c10 -13 23 -20 29 -16 7 4 6 8 -3 11 -8 3 -22 10 -30 16
-8 6 -7 1 4 -11z"/>
<path d="M3176 5525 c25 -19 55 -19 80 0 17 13 16 13 -14 2 -25 -9 -37 -9 -52
1 -28 17 -38 15 -14 -3z"/>
<path d="M3530 5522 c0 -4 9 -13 20 -20 12 -7 18 -17 15 -22 -3 -6 -1 -10 4
-10 15 0 14 12 -5 38 -15 21 -34 30 -34 14z"/>
<path d="M3597 5479 c7 -7 15 -10 18 -7 3 3 -2 9 -12 12 -14 6 -15 5 -6 -5z"/>
<path d="M3530 5452 c0 -16 95 -93 143 -115 78 -36 106 -47 124 -47 13 0 14 2
2 17 -13 15 -10 16 26 10 l40 -6 -45 15 c-25 9 -49 16 -55 17 -5 2 -16 6 -22
10 -7 5 -18 5 -25 1 -6 -4 -8 -3 -5 3 4 5 -11 16 -33 23 -45 15 -44 30 3 30
18 0 41 8 52 17 16 13 17 15 3 10 -55 -19 -116 -19 -162 1 -25 12 -46 18 -46
14z m95 -60 c-3 -3 -11 0 -18 7 -9 10 -8 11 6 5 10 -3 15 -9 12 -12z"/>
<path d="M3658 5443 c7 -3 16 -2 19 1 4 3 -2 6 -13 5 -11 0 -14 -3 -6 -6z"/>
<path d="M1455 5420 c-3 -5 -1 -10 4 -10 6 0 11 5 11 10 0 6 -2 10 -4 10 -3 0
-8 -4 -11 -10z"/>
<path d="M1311 5390 c-1 -40 13 -60 44 -60 18 0 17 2 -5 13 -17 8 -27 24 -31
47 l-6 35 -2 -35z"/>
<path d="M1079 5393 c-13 -16 -12 -17 4 -4 16 13 21 21 13 21 -2 0 -10 -8 -17
-17z"/>
<path d="M2735 5390 c-38 -11 -92 -19 -120 -20 -27 0 -77 -7 -110 -15 l-60
-14 115 6 c63 3 140 11 170 19 71 18 87 18 99 -3 10 -17 10 -17 11 0 0 16 -22
49 -32 46 -2 0 -34 -9 -73 -19z"/>
<path d="M1385 5360 c-8 -13 5 -13 25 0 13 8 13 10 -2 10 -9 0 -20 -4 -23 -10z"/>
<path d="M2747 5315 c-44 -13 -125 -28 -180 -35 -121 -14 -147 -27 -44 -22
121 6 307 48 307 70 0 6 -1 12 -2 11 -2 0 -38 -11 -81 -24z"/>
<path d="M2810 5280 c0 -17 -130 -50 -198 -50 -70 0 -172 -19 -172 -32 0 -5 6
-8 13 -8 6 0 30 -14 51 -30 33 -25 49 -30 97 -30 43 0 58 -4 63 -16 8 -22 8
-23 -57 -36 -55 -12 -57 -11 -144 30 -49 23 -94 42 -100 42 -12 0 -297 -93
-405 -132 -34 -12 -55 -25 -51 -31 4 -6 0 -8 -11 -4 -10 4 -50 -6 -94 -24
-167 -67 -308 -109 -370 -109 -15 0 -21 -4 -16 -12 4 -7 3 -8 -4 -4 -6 4 -60
9 -119 11 -59 3 -132 11 -161 19 -28 8 -50 10 -47 5 15 -23 226 -61 298 -53
138 15 281 52 405 105 73 32 78 29 74 -46 l-4 -65 -71 0 c-40 0 -115 -5 -167
-11 -122 -13 -305 -13 -398 0 -144 21 -241 65 -359 161 -7 6 -15 10 -19 10 -4
0 -16 8 -27 18 -19 16 -20 16 -9 -3 16 -31 71 -77 84 -69 7 4 8 3 4 -4 -20
-32 -31 -182 -13 -182 16 0 93 82 89 96 -1 6 12 11 28 11 17 0 27 -3 21 -6 -5
-3 -7 -27 -4 -53 3 -27 10 -45 15 -42 6 4 8 -1 4 -12 -7 -23 16 -70 32 -66 7
1 12 -5 12 -14 0 -8 4 -13 9 -10 5 3 11 0 14 -8 4 -9 14 -12 28 -9 13 4 20 2
16 -4 -3 -5 6 -8 22 -5 17 2 34 -2 42 -10 7 -8 23 -12 36 -10 13 2 23 0 23 -6
0 -5 11 -9 24 -9 14 0 33 -8 42 -18 12 -12 26 -15 46 -11 16 3 27 2 23 -3 -3
-5 5 -7 17 -4 19 4 21 3 8 -7 -13 -10 -13 -11 3 -6 9 3 17 1 17 -4 0 -5 13 -7
29 -4 16 3 31 1 35 -4 4 -6 -3 -8 -16 -6 -14 2 -8 -3 12 -12 19 -9 49 -17 67
-17 17 -1 30 -4 27 -8 -2 -4 14 -14 36 -23 46 -18 64 -21 36 -5 -15 9 -16 13
-5 21 12 7 11 8 -1 7 -8 -1 -27 3 -42 9 -15 6 -35 9 -45 5 -11 -4 -14 -3 -9 5
4 7 0 15 -11 18 -10 3 -27 10 -38 15 -11 5 -31 10 -45 11 -14 2 -28 7 -31 11
-3 5 -12 9 -20 10 -8 2 -20 6 -26 10 -7 5 -13 6 -13 3 0 -3 -11 -1 -25 4 -14
5 -36 12 -48 14 -57 10 -203 58 -226 73 -14 10 -30 16 -34 15 -5 -1 -6 2 -2 8
4 6 2 25 -3 43 -27 87 -21 114 16 80 7 -7 22 -14 33 -14 21 -2 27 -3 49 -12
27 -10 181 -27 254 -27 51 0 79 5 96 17 24 17 25 16 10 -2 -14 -17 -13 -18 3
-12 10 4 34 7 53 7 20 0 33 3 31 8 -3 4 29 8 69 9 46 0 81 6 91 15 12 9 15 9
9 1 -5 -9 -1 -13 13 -13 11 0 22 4 25 9 3 4 16 6 28 4 21 -4 23 -9 20 -66 -2
-34 -2 -60 1 -57 8 8 17 79 24 187 l6 101 41 16 c23 8 91 31 151 51 61 21 119
44 129 54 11 9 16 10 12 4 -10 -18 25 -5 41 14 6 8 16 12 22 9 5 -4 12 -2 15
3 14 22 98 10 165 -24 76 -39 104 -42 179 -20 37 11 52 21 52 33 0 32 -16 41
-75 47 -56 6 -125 31 -125 46 0 14 34 19 117 19 89 0 182 21 208 46 17 18 20
34 5 34 -5 0 -10 -4 -10 -10z m-1907 -485 c-7 -21 -13 -19 -13 6 0 11 4 18 10
14 5 -3 7 -12 3 -20z m550 -32 c-7 -2 -19 -2 -25 0 -7 3 -2 5 12 5 14 0 19 -2
13 -5z m-76 -209 c-3 -3 -12 -4 -19 -1 -8 3 -5 6 6 6 11 1 17 -2 13 -5z"/>
<path d="M3843 5283 c9 -2 25 -2 35 0 9 3 1 5 -18 5 -19 0 -27 -2 -17 -5z"/>
<path d="M3890 5171 c0 -15 50 -42 73 -39 18 3 15 7 -22 26 -51 25 -51 25 -51
13z"/>
<path d="M3979 5119 c-11 -7 -9 -9 8 -9 12 0 23 -5 25 -12 3 -7 7 -8 11 -2 9
15 -27 34 -44 23z"/>
<path d="M730 5021 c0 -9 30 -24 36 -18 2 1 -6 8 -16 15 -11 7 -20 8 -20 3z"/>
<path d="M2421 4905 c-30 -46 -53 -87 -51 -91 1 -4 -2 -10 -7 -13 -23 -17 -46
-110 -23 -96 6 3 10 15 10 26 0 11 7 22 15 25 8 4 15 15 15 25 0 24 37 99 49
99 5 0 14 -7 21 -15 7 -8 17 -15 23 -15 6 0 0 11 -13 25 l-24 25 23 41 c41 73
17 50 -38 -36z"/>
<path d="M4160 4895 c13 -14 26 -23 28 -20 7 7 -29 45 -41 45 -6 0 0 -11 13
-25z"/>
<path d="M3254 4890 c29 -12 60 -17 74 -13 16 4 23 2 19 -4 -4 -6 11 -22 33
-37 22 -14 40 -22 40 -16 0 5 -4 10 -9 10 -5 0 -8 8 -7 17 1 22 -101 62 -159
62 l-40 0 49 -19z m135 -29 c7 -5 9 -11 4 -14 -4 -3 -17 1 -28 9 -21 16 0 20
24 5z"/>
<path d="M3096 4856 c-62 -19 -57 -36 7 -29 35 4 57 2 61 -6 5 -7 -4 -11 -27
-11 -35 0 -91 -22 -81 -32 2 -3 24 1 47 9 23 8 66 13 94 11 29 -2 53 0 53 5 0
4 -16 7 -35 7 -19 0 -35 4 -35 10 0 5 -11 12 -25 16 -46 12 -14 24 48 19 43
-4 57 -2 47 5 -20 13 -106 11 -154 -4z"/>
<path d="M3270 4851 c0 -5 7 -11 15 -15 8 -3 15 -1 15 3 0 5 -7 11 -15 15 -8
3 -15 1 -15 -3z"/>
<path d="M3433 4833 c13 -15 15 -22 6 -25 -10 -3 -10 -6 -1 -12 7 -4 12 -3 12
3 0 6 8 7 18 4 15 -6 15 -5 2 8 -8 8 -24 21 -35 29 -20 14 -20 14 -2 -7z"/>
<path d="M2482 4824 c37 -47 107 -114 119 -114 9 1 7 6 -6 16 -11 8 -19 17
-17 20 3 6 -93 94 -102 94 -4 0 -1 -7 6 -16z m93 -74 c3 -6 -1 -7 -9 -4 -18 7
-21 14 -7 14 6 0 13 -4 16 -10z"/>
<path d="M2573 4833 c4 -3 7 -13 7 -24 0 -11 7 -19 18 -19 9 0 24 -5 32 -11
12 -8 9 -10 -12 -6 -23 3 -25 2 -15 -14 9 -15 12 -15 25 -3 12 13 19 12 49 -6
20 -11 37 -19 39 -17 4 4 -126 98 -140 101 -6 2 -8 1 -3 -1z"/>
<path d="M2300 4738 c-5 -24 -15 -59 -21 -77 -19 -57 -36 -136 -34 -159 1 -12
-2 -22 -6 -22 -5 0 -11 -15 -15 -34 -7 -42 -62 -119 -79 -112 -7 2 -25 -9 -41
-25 -33 -34 -27 -37 18 -9 18 11 36 20 39 20 9 0 103 -130 130 -180 13 -25 27
-46 32 -48 4 -2 7 -8 7 -12 0 -5 13 -31 29 -58 16 -27 32 -60 36 -73 4 -13 15
-35 24 -48 8 -13 16 -29 17 -35 1 -6 8 -23 16 -38 14 -26 15 -26 31 -8 9 11
12 22 7 25 -6 4 -10 0 -10 -7 0 -8 -5 -7 -16 4 -9 9 -13 21 -9 28 6 9 10 9 17
-1 8 -11 9 -11 5 1 -2 8 -9 15 -15 15 -16 0 -49 39 -44 53 2 7 8 10 13 6 5 -3
9 0 9 5 0 6 -9 11 -20 11 -11 0 -20 5 -20 11 0 6 7 9 15 5 18 -7 18 -4 3 29
-10 22 -15 26 -33 25 -11 -1 -35 29 -45 54 -6 17 -6 26 0 26 6 0 15 -11 20
-24 5 -13 14 -28 21 -32 7 -4 4 8 -7 27 -11 19 -28 34 -37 34 -9 0 -17 5 -18
10 0 6 -5 16 -11 23 -7 8 -7 12 1 12 6 0 14 -7 17 -15 4 -8 10 -15 15 -15 5 0
4 9 -3 20 -8 12 -20 19 -30 17 -17 -5 -32 18 -23 33 3 5 -4 11 -15 15 -20 7
-28 25 -10 25 6 0 10 -4 10 -10 0 -5 6 -10 13 -10 6 1 2 9 -10 19 -13 11 -23
23 -23 28 0 11 -55 65 -64 64 -18 -3 -16 1 8 26 31 31 65 100 68 138 1 14 5
25 8 25 20 0 111 -86 101 -96 -3 -4 0 -4 8 1 12 7 11 10 -2 20 -20 14 -23 30
-4 19 8 -5 8 -3 -2 9 -7 9 -18 14 -24 10 -6 -4 -8 0 -4 10 4 11 -5 20 -34 31
-43 18 -44 20 -26 59 14 30 74 46 104 27 16 -9 15 -10 -7 -5 -23 5 -23 5 -5
-6 11 -6 38 -29 60 -50 33 -32 41 -36 41 -20 0 11 -3 19 -6 19 -19 -2 -30 3
-25 12 3 6 1 10 -5 10 -6 0 -8 5 -5 11 5 7 13 5 24 -5 10 -9 22 -16 28 -16 10
0 50 -38 81 -79 16 -21 19 -22 31 -7 12 14 11 16 -5 9 -16 -6 -17 -5 -6 9 11
14 11 16 -5 12 -11 -3 -23 3 -31 16 -14 22 -4 27 18 8 8 -7 4 -1 -9 14 -28 32
-79 58 -114 58 -13 0 -30 6 -36 14 -6 7 -34 16 -62 20 l-50 7 5 42 c3 23 8 54
12 70 3 15 4 27 1 27 -4 0 -11 -19 -17 -42z m197 -164 c-3 -3 -12 -4 -19 -1
-8 3 -5 6 6 6 11 1 17 -2 13 -5z m38 -24 c3 -6 -1 -7 -9 -4 -18 7 -21 14 -7
14 6 0 13 -4 16 -10z m-315 -262 c0 -6 -6 -5 -15 2 -8 7 -15 14 -15 16 0 2 7
1 15 -2 8 -4 15 -11 15 -16z m182 -300 c-7 -7 -12 -8 -12 -2 0 14 12 26 19 19
2 -3 -1 -11 -7 -17z"/>
<path d="M2456 4750 c3 -14 17 -44 29 -67 13 -24 21 -43 19 -43 -3 0 -33 26
-67 58 l-61 57 37 -49 c30 -40 107 -98 107 -81 0 3 22 -10 49 -29 27 -19 52
-32 55 -29 12 12 6 34 -16 56 -13 13 -31 34 -41 47 l-18 25 7 -25 c3 -14 13
-33 22 -42 10 -13 11 -18 3 -18 -22 0 -80 63 -106 115 -14 28 -23 39 -19 25z"/>
<path d="M3018 4763 c7 -3 16 -2 19 1 4 3 -2 6 -13 5 -11 0 -14 -3 -6 -6z"/>
<path d="M3086 4752 c-2 -4 11 -8 30 -8 20 0 29 3 21 8 -16 10 -44 10 -51 0z"/>
<path d="M2634 4727 c0 -14 8 -24 18 -24 16 -2 16 0 2 23 -20 30 -22 30 -20 1z"/>
<path d="M2993 4736 c4 -10 1 -13 -8 -10 -7 3 -16 -3 -20 -15 -3 -12 -11 -21
-17 -21 -6 0 -20 -8 -30 -17 -17 -15 -21 -15 -54 1 -59 27 -50 11 14 -28 32
-19 64 -46 70 -58 6 -14 11 -17 11 -8 0 19 -18 43 -43 57 -17 9 -13 14 36 46
48 30 73 67 45 67 -5 0 -7 -7 -4 -14z"/>
<path d="M3020 4729 c0 -5 5 -7 10 -4 6 3 10 8 10 11 0 2 -4 4 -10 4 -5 0 -10
-5 -10 -11z"/>
<path d="M2740 4720 c20 -13 33 -13 25 0 -3 6 -14 10 -23 10 -15 0 -15 -2 -2
-10z"/>
<path d="M3522 4703 c6 -7 14 -13 18 -13 3 0 7 6 7 13 0 7 -8 13 -18 13 -13 0
-15 -3 -7 -13z"/>
<path d="M2780 4706 c0 -2 7 -7 16 -10 8 -3 12 -2 9 4 -6 10 -25 14 -25 6z"/>
<path d="M2990 4650 c-6 -11 -8 -20 -6 -20 3 0 10 9 16 20 6 11 8 20 6 20 -3
0 -10 -9 -16 -20z"/>
<path d="M2727 4589 c19 -34 29 -45 31 -34 2 9 -6 27 -17 39 -12 12 -21 28
-21 34 0 7 -5 12 -10 12 -6 0 2 -23 17 -51z"/>
<path d="M3579 4628 c11 -15 41 -15 41 -1 0 3 -6 3 -14 0 -7 -3 -20 0 -27 6
-11 10 -11 9 0 -5z"/>
<path d="M2810 4573 c0 -10 7 -31 15 -47 19 -35 10 -50 -24 -41 -14 4 -33 8
-41 8 -8 0 -23 8 -33 18 -10 9 -32 19 -48 21 -27 4 -28 3 -13 -13 9 -10 47
-34 85 -52 50 -25 69 -31 73 -21 3 7 0 14 -7 17 -6 2 -4 6 5 10 12 4 23 -4 37
-29 11 -19 28 -34 38 -34 13 0 14 3 5 8 -10 7 -9 15 4 41 9 18 14 34 11 37 -2
3 -9 -9 -15 -25 -6 -17 -13 -31 -16 -31 -9 0 -33 53 -41 89 -9 41 -35 74 -35
44z"/>
<path d="M2965 4560 c-3 -5 -1 -10 4 -10 6 0 11 5 11 10 0 6 -2 10 -4 10 -3 0
-8 -4 -11 -10z"/>
<path d="M2930 4541 c0 -6 4 -13 10 -16 6 -3 7 1 4 9 -7 18 -14 21 -14 7z"/>
<path d="M2480 4491 c0 -5 5 -13 10 -16 6 -3 10 -2 10 4 0 5 -4 13 -10 16 -5
3 -10 2 -10 -4z"/>
<path d="M2503 4446 c4 -10 7 -24 7 -32 0 -8 4 -14 9 -14 11 0 1 49 -12 57 -7
4 -8 0 -4 -11z"/>
<path d="M2603 4453 c-16 -6 -17 -33 -2 -33 5 0 7 -4 4 -10 -3 -5 -1 -10 5
-10 6 0 10 8 8 18 -2 9 3 16 10 15 6 -2 12 1 12 6 0 11 -21 19 -37 14z"/>
<path d="M1714 4441 c4 -5 3 -11 -1 -14 -5 -2 -2 -2 5 -1 6 2 12 0 12 -5 0 -4
11 -13 25 -19 32 -15 38 -15 29 -1 -4 8 1 9 17 4 18 -5 20 -4 9 4 -8 6 -25 8
-36 5 -12 -3 -25 -1 -28 5 -5 7 0 9 11 5 10 -3 7 2 -7 10 -28 17 -44 20 -36 7z"/>
<path d="M1840 4391 c8 -6 24 -11 35 -12 19 0 18 -1 -2 -11 -29 -14 -29 -19 6
-56 16 -17 37 -44 45 -61 19 -36 28 -42 46 -31 11 7 0 24 -45 76 -49 55 -55
65 -34 60 18 -6 20 -5 9 3 -8 6 -10 11 -5 11 14 0 43 -20 30 -20 -5 0 -3 -5 6
-10 31 -18 142 -13 192 9 26 11 47 25 47 30 0 5 -14 2 -31 -6 -49 -25 -137
-18 -294 23 -16 4 -17 3 -5 -5z m140 -35 c0 -3 -4 -8 -10 -11 -5 -3 -10 -1
-10 4 0 6 5 11 10 11 6 0 10 -2 10 -4z"/>
<path d="M2400 4376 c0 -7 7 -20 17 -27 15 -13 15 -12 5 7 -6 12 -8 24 -5 28
3 3 1 6 -5 6 -7 0 -12 -6 -12 -14z"/>
<path d="M2617 4378 c7 -13 13 -33 15 -54 1 -6 11 -10 22 -9 12 1 21 7 20 13
-2 29 -5 33 -15 26 -6 -3 -15 0 -20 7 -5 9 -3 16 9 21 12 5 9 7 -11 7 -20 1
-26 -3 -20 -11z m53 -48 c0 -5 -7 -7 -15 -4 -8 4 -15 8 -15 10 0 2 7 4 15 4 8
0 15 -4 15 -10z"/>
<path d="M2857 4345 c-9 -27 -18 -59 -20 -70 -2 -11 -8 -30 -15 -42 -7 -12
-11 -26 -10 -30 1 -4 -4 -33 -10 -63 -14 -65 -16 -116 -7 -150 6 -20 5 -22 -5
-10 -10 13 -11 13 -6 -2 3 -10 1 -18 -4 -18 -6 0 -10 11 -10 25 0 14 -4 25 -9
25 -5 0 -7 10 -4 21 4 14 0 25 -11 31 -9 5 -16 16 -16 23 0 8 -4 15 -10 15
-13 0 -13 -3 1 -34 7 -14 16 -23 22 -19 5 3 7 -2 3 -13 -3 -11 3 -48 14 -84
11 -36 20 -78 20 -94 0 -44 8 -27 15 32 4 36 2 52 -5 47 -15 -10 -12 4 6 22
10 10 13 24 9 37 -10 31 -8 58 6 66 8 6 8 10 -2 15 -9 6 -8 10 7 16 18 7 18 8
0 8 -15 1 -16 3 -6 16 11 13 15 13 21 3 7 -10 9 -10 9 0 0 7 -7 15 -15 18 -23
9 -18 23 8 17 21 -4 21 -4 4 10 -12 10 -15 17 -7 22 8 5 8 10 0 20 -7 9 -7 15
-1 19 5 4 14 -2 20 -11 10 -17 10 -17 11 0 0 9 -4 17 -10 17 -5 0 -10 5 -10
10 0 6 7 10 16 8 10 -2 19 2 21 9 3 7 -4 10 -19 6 -16 -3 -19 -2 -10 5 7 5 12
14 10 19 -2 6 11 23 27 39 25 23 27 29 13 32 -9 2 -18 11 -20 20 -2 10 -11 -5
-21 -33z"/>
<path d="M2646 4285 c4 -8 10 -12 15 -9 14 8 10 24 -6 24 -9 0 -12 -6 -9 -15z"/>
<path d="M2868 4293 c7 -3 16 -2 19 1 4 3 -2 6 -13 5 -11 0 -14 -3 -6 -6z"/>
<path d="M2680 4260 c-13 -8 -12 -10 3 -10 9 0 17 5 17 10 0 12 -1 12 -20 0z"/>
<path d="M2665 4230 c3 -5 10 -10 16 -10 5 0 9 5 9 10 0 6 -7 10 -16 10 -8 0
-12 -4 -9 -10z"/>
<path d="M1971 4211 c-11 -7 -1 -27 50 -94 40 -53 67 -81 71 -73 5 6 8 3 8
-10 0 -26 36 -74 56 -74 13 0 18 -11 15 -36 -1 -6 6 -17 15 -25 13 -11 17 -10
25 2 5 8 9 9 9 4 0 -6 -5 -16 -12 -23 -9 -9 -8 -12 6 -12 9 0 14 -4 11 -10 -3
-5 -2 -10 4 -10 6 0 7 -8 4 -17 -6 -15 -4 -16 8 -7 11 9 17 8 29 -4 13 -14 12
-15 -3 -9 -15 6 -17 3 -11 -16 10 -34 24 -46 42 -40 15 6 15 5 3 -11 -12 -14
-12 -19 -1 -29 10 -10 12 -8 6 7 -5 16 -4 17 9 6 12 -10 13 -16 4 -26 -6 -8
-9 -20 -5 -29 3 -8 0 -14 -7 -12 -23 4 -19 -77 6 -145 14 -36 28 -98 32 -139
7 -72 38 -185 56 -204 5 -5 9 -15 9 -22 0 -7 12 -32 26 -55 20 -32 28 -38 36
-27 7 10 8 9 4 -6 -4 -14 1 -24 15 -33 17 -11 20 -11 14 0 -4 7 4 1 19 -14 15
-16 33 -28 40 -28 8 0 19 -7 26 -15 7 -8 16 -13 20 -10 5 3 12 0 16 -6 4 -8 3
-9 -4 -5 -19 12 -14 -9 7 -28 11 -10 26 -14 37 -10 14 4 15 3 6 -4 -11 -7 -5
-16 24 -40 21 -17 42 -28 47 -25 6 3 7 1 3 -5 -7 -11 73 -82 93 -82 7 0 10 -4
6 -10 -6 -10 92 -86 107 -82 5 1 7 -1 4 -6 -6 -11 81 -93 103 -97 9 -2 22 -4
30 -4 7 -1 11 -7 8 -15 -4 -11 -1 -13 10 -9 12 5 15 2 10 -10 -4 -12 -2 -14
10 -10 10 4 14 2 10 -4 -4 -6 0 -13 8 -17 8 -3 15 -12 15 -21 0 -8 5 -15 10
-15 15 0 12 -45 -4 -85 -8 -19 -13 -35 -11 -35 2 0 -12 -25 -30 -56 -19 -32
-60 -108 -92 -170 -49 -97 -55 -115 -43 -129 11 -13 11 -16 0 -13 -7 2 -17
-10 -21 -27 -18 -61 -20 -105 -20 -360 0 -155 -10 -322 -23 -380 -17 -78 -28
-110 -60 -190 -41 -98 -61 -144 -82 -189 -39 -81 -7 -140 125 -229 42 -28 108
-83 148 -122 62 -63 117 -100 188 -127 11 -4 3 8 -19 27 -22 19 -45 35 -53 35
-7 0 -13 5 -13 10 0 6 -6 10 -13 10 -7 0 -40 28 -73 63 -69 72 -104 100 -193
159 -93 62 -105 81 -90 146 7 29 16 52 21 52 4 0 8 4 8 9 0 5 15 42 34 83 75
161 86 197 111 348 6 39 12 180 20 425 5 183 31 302 89 411 24 46 30 66 22 74
-8 8 -7 11 3 8 24 -5 114 203 104 242 -7 27 -75 94 -223 221 -80 68 -150 128
-156 134 -6 6 -40 35 -74 65 -131 113 -140 122 -150 158 -5 21 -10 58 -10 84
0 40 4 50 25 64 14 9 22 21 18 27 -3 6 -1 7 5 3 7 -4 26 0 44 8 82 37 164 45
243 24 37 -10 61 -28 123 -93 42 -44 90 -97 106 -117 15 -21 33 -35 39 -31 6
4 7 1 3 -6 -5 -7 19 -52 61 -113 37 -55 73 -108 78 -117 14 -23 95 -123 114
-141 9 -9 40 -42 69 -73 50 -54 53 -60 51 -105 -2 -43 -52 -161 -71 -170 -5
-2 -8 -12 -8 -23 0 -10 -4 -19 -9 -19 -8 0 -51 -89 -51 -105 0 -3 6 -3 13 0 6
4 5 1 -4 -7 -9 -7 -21 -29 -27 -48 -85 -263 -104 -329 -97 -339 3 -6 2 -11 -3
-11 -5 0 -14 -17 -20 -37 -5 -21 -24 -83 -40 -138 -54 -178 -84 -346 -85 -472
0 -68 3 -76 42 -136 51 -78 230 -262 243 -249 10 10 0 42 -13 42 -17 0 -162
146 -207 209 -54 76 -59 115 -30 256 10 50 17 100 15 113 -3 12 -1 22 3 22 4
0 7 6 8 13 1 13 10 45 38 142 9 33 18 72 18 87 1 14 4 24 7 22 4 -2 16 33 28
79 27 97 82 278 89 291 3 5 1 6 -5 3 -5 -3 0 15 12 41 12 26 28 70 34 97 15
61 51 145 63 145 4 0 8 5 8 10 0 6 12 28 26 50 15 22 27 52 29 68 1 16 4 33 8
38 19 32 -31 154 -64 154 -5 0 -8 6 -7 13 2 6 -3 11 -10 9 -8 -1 -11 2 -7 7 3
6 -14 30 -37 55 -24 25 -48 53 -55 63 -6 10 -16 17 -22 16 -6 -2 -8 4 -5 12 8
19 18 19 34 0 7 -9 15 -14 17 -11 2 2 20 -11 38 -30 19 -19 40 -33 47 -32 7 2
12 -3 10 -10 -1 -8 2 -11 7 -8 5 3 12 -1 15 -10 4 -9 13 -14 22 -10 8 3 12 2
9 -4 -3 -6 -2 -10 3 -10 5 0 25 -16 45 -37 21 -20 37 -33 37 -28 0 4 9 -4 21
-19 11 -14 24 -24 29 -21 4 3 10 -2 14 -10 3 -8 16 -15 28 -15 20 1 17 6 -26
46 -28 25 -102 85 -165 132 -64 47 -118 89 -121 92 -3 3 -31 23 -62 44 -34 23
-68 57 -87 88 -19 30 -35 47 -43 42 -7 -4 -8 -3 -4 4 14 22 -106 178 -128 165
-6 -3 -3 2 6 13 10 10 36 42 59 69 22 28 49 60 59 72 23 26 43 63 35 63 -3 0
3 9 13 20 10 11 29 46 42 77 12 32 26 62 30 66 6 7 104 -97 143 -154 9 -11 20
-18 26 -15 5 4 13 1 17 -5 4 -8 3 -9 -4 -5 -7 4 -12 4 -12 0 0 -10 79 -109
136 -170 28 -30 50 -54 49 -54 -3 0 113 -126 187 -204 59 -62 67 -76 79 -130
10 -51 13 -57 19 -36 4 14 12 24 18 23 7 -2 8 7 2 27 -12 42 -14 45 -22 42 -5
-1 -8 5 -8 14 0 8 5 12 10 9 6 -3 10 1 10 9 0 9 -5 16 -11 16 -6 0 -8 9 -4 21
12 36 -3 86 -27 92 -12 4 -28 1 -35 -5 -7 -6 -13 -9 -14 -7 0 2 -2 22 -5 44
-2 22 -6 60 -8 85 -3 25 -5 63 -6 85 -1 28 -4 34 -8 20 -4 -11 -13 -21 -20
-23 -8 -1 -11 2 -8 7 4 5 2 12 -4 16 -5 3 -10 -3 -10 -14 0 -14 6 -21 20 -21
15 0 20 -7 20 -27 l-1 -28 -14 25 c-10 18 -14 20 -15 8 0 -9 9 -23 20 -31 18
-12 18 -15 6 -20 -23 -9 -13 -94 14 -119 11 -10 20 -26 20 -36 -1 -15 -2 -15
-15 2 -8 11 -15 14 -15 8 0 -7 -5 -12 -11 -12 -5 0 -7 4 -4 10 3 5 1 15 -5 22
-6 7 -18 22 -26 33 -9 11 -12 14 -8 6 4 -9 2 -12 -7 -9 -8 3 -13 13 -11 23 2
9 -1 14 -6 11 -5 -3 -16 2 -23 11 -11 13 -11 15 -1 9 11 -7 11 -4 1 12 -7 12
-17 18 -21 16 -4 -3 -8 0 -8 6 0 19 -28 40 -44 34 -12 -5 -15 -2 -9 12 4 11 3
15 -4 11 -6 -4 -16 0 -23 8 -11 13 -10 14 6 9 16 -6 15 -2 -6 22 -14 16 -35
39 -48 51 -13 12 -23 25 -24 30 0 4 -18 29 -40 55 -27 32 -45 45 -56 41 -13
-4 -14 -3 -3 5 15 11 6 36 -10 26 -5 -3 -8 0 -7 8 2 7 -3 12 -10 10 -8 -1 -11
2 -8 7 3 5 -21 36 -54 70 -43 43 -60 68 -60 87 0 15 -13 48 -29 73 -21 35 -29
61 -29 99 -2 49 8 66 24 40 5 -7 3 -8 -5 -3 -19 11 14 -47 36 -65 23 -18 43
-23 43 -11 0 5 -9 11 -20 14 -11 3 -20 11 -20 18 0 10 3 10 12 1 7 -7 16 -12
21 -12 5 0 -8 19 -29 43 -21 23 -42 41 -45 40 -4 -1 -5 6 -2 15 2 10 -6 29
-19 43 -29 32 -33 68 -11 85 10 7 14 14 10 14 -13 0 -167 -121 -163 -129 2 -3
-8 -17 -22 -31 -14 -14 -20 -17 -13 -7 17 22 10 22 -17 -2 -22 -19 -28 -36
-14 -44 4 -2 1 -2 -6 -1 -15 4 -74 -85 -68 -103 3 -8 -1 -10 -11 -6 -13 5 -15
2 -11 -15 4 -13 0 -23 -8 -26 -8 -3 -13 -9 -12 -13 1 -4 -3 -18 -10 -31 -7
-12 -10 -28 -6 -34 4 -6 3 -8 -3 -5 -14 9 -46 -40 -37 -55 4 -6 3 -8 -3 -5 -5
4 -19 -2 -30 -13 -24 -22 -93 -43 -93 -29 0 6 -10 9 -22 7 -15 -2 -23 2 -23
12 0 8 6 14 14 12 8 -2 -1 15 -20 37 -19 21 -39 38 -46 36 -6 -2 -17 3 -24 11
-10 12 -9 13 7 8 16 -5 16 -4 4 5 -8 6 -11 11 -7 11 4 0 3 9 -3 20 -7 13 -16
17 -28 13 -15 -6 -15 -5 -3 10 11 14 11 18 -5 23 -28 10 -54 35 -48 46 3 4 14
-2 25 -14 17 -21 18 -21 12 -3 -8 26 -43 71 -43 56 0 -6 -4 -11 -10 -11 -5 0
-10 6 -10 14 0 16 -18 31 -27 23 -3 -3 2 -20 11 -38 9 -18 15 -34 13 -35 -2
-2 -19 1 -38 5 -19 5 -60 12 -91 16 -32 3 -58 11 -58 16 0 6 -5 7 -11 3 -8 -4
-9 1 -4 15 7 24 -46 139 -71 154 -8 4 -14 12 -14 17 0 17 -43 60 -53 53 -6 -3
-7 -1 -3 5 7 12 -34 78 -89 142 -16 20 -43 53 -60 74 -58 75 -59 76 -74 67z
m99 -122 c0 -5 -4 -9 -8 -9 -5 0 -9 7 -9 15 0 8 4 12 9 9 4 -3 8 -9 8 -15z
m60 -69 c0 -5 -2 -10 -4 -10 -3 0 -8 5 -11 10 -3 6 -1 10 4 10 6 0 11 -4 11
-10z m1127 -139 c0 -11 -5 -17 -10 -14 -5 3 -13 -1 -18 -8 -7 -11 -9 -11 -9
-1 0 8 -5 10 -12 6 -7 -4 -11 -5 -8 -1 3 3 9 6 13 6 4 0 15 7 23 16 20 20 23
19 21 -4z m-57 -46 c0 -8 -4 -15 -10 -15 -5 0 -7 7 -4 15 4 8 8 15 10 15 2 0
4 -7 4 -15z m10 -35 c0 -5 -2 -10 -4 -10 -3 0 -8 5 -11 10 -3 6 -1 10 4 10 6
0 11 -4 11 -10z m30 -4 c0 -3 -4 -8 -10 -11 -5 -3 -10 -1 -10 4 0 6 5 11 10
11 6 0 10 -2 10 -4z m-940 -22 c0 -2 -7 -4 -15 -4 -8 0 -15 4 -15 10 0 5 7 7
15 4 8 -4 15 -8 15 -10z m854 -6 c-3 -4 -9 -8 -15 -8 -5 0 -9 4 -9 8 0 5 7 9
15 9 8 0 12 -4 9 -9z m86 -12 c0 -2 -7 -7 -16 -10 -8 -3 -12 -2 -9 4 6 10 25
14 25 6z m-115 -16 c3 -5 1 -10 -4 -10 -6 0 -11 5 -11 10 0 6 2 10 4 10 3 0 8
-4 11 -10z m232 4 c-3 -3 -12 -4 -19 -1 -8 3 -5 6 6 6 11 1 17 -2 13 -5z m-79
-29 c-3 -3 -9 2 -12 12 -6 14 -5 15 5 6 7 -7 10 -15 7 -18z m2 -19 c0 -3 -4
-8 -10 -11 -5 -3 -10 -1 -10 4 0 6 5 11 10 11 6 0 10 -2 10 -4z m-915 -46 c4
-6 3 -10 -2 -9 -23 4 -33 -3 -34 -23 -1 -18 -2 -19 -6 -5 -9 37 24 66 42 37z
m65 -16 c0 -8 -19 -13 -24 -6 -3 5 1 9 9 9 8 0 15 -2 15 -3z m130 -24 c0 -5
-4 -10 -10 -10 -5 0 -10 5 -10 10 0 6 5 10 10 10 6 0 10 -4 10 -10z m760 -16
c0 -16 -2 -16 -24 -8 -12 5 -13 9 -3 19 14 15 27 10 27 -11z m-675 -44 c3 -5
2 -10 -4 -10 -5 0 -13 5 -16 10 -3 6 -2 10 4 10 5 0 13 -4 16 -10z m-11 -55
c-4 -8 -11 -15 -16 -15 -6 0 -5 6 2 15 7 8 14 15 16 15 2 0 1 -7 -2 -15z m83
-54 c-10 -4 -41 29 -45 49 -2 8 9 2 25 -15 15 -16 24 -32 20 -34z m173 -25 c0
-2 -7 -6 -15 -10 -8 -3 -15 -1 -15 4 0 6 7 10 15 10 8 0 15 -2 15 -4z m-293
-48 c-3 -8 -6 -5 -6 6 -1 11 2 17 5 13 3 -3 4 -12 1 -19z m560 -70 c-3 -8 -6
-5 -6 6 -1 11 2 17 5 13 3 -3 4 -12 1 -19z m-24 -132 c-10 -13 -20 -22 -22
-20 -4 4 29 44 36 44 2 0 -4 -11 -14 -24z m-43 4 c0 -5 -2 -10 -4 -10 -3 0 -8
5 -11 10 -3 6 -1 10 4 10 6 0 11 -4 11 -10z m810 -110 c0 -5 -4 -10 -10 -10
-5 0 -10 5 -10 10 0 6 5 10 10 10 6 0 10 -4 10 -10z m0 -30 c0 -5 -4 -10 -10
-10 -5 0 -10 5 -10 10 0 6 5 10 10 10 6 0 10 -4 10 -10z m81 -97 c12 -15 12
-16 -3 -10 -21 7 -22 -3 -9 -50 7 -22 6 -35 -1 -39 -7 -4 -8 -2 -4 4 4 7 3 12
-2 12 -5 0 -14 17 -20 38 -10 32 -9 39 5 50 21 15 18 15 34 -5z m-70 -40 c13
-16 12 -17 -3 -4 -17 13 -22 21 -14 21 2 0 10 -8 17 -17z m93 -148 c-4 -8 -8
-15 -10 -15 -2 0 -4 7 -4 15 0 8 4 15 10 15 5 0 7 -7 4 -15z m-1099 -33 c-3
-3 -11 0 -18 7 -9 10 -8 11 6 5 10 -3 15 -9 12 -12z m145 -117 c20 -24 6 -28
-15 -5 -10 11 -13 20 -8 20 6 0 16 -7 23 -15z"/>
<path d="M2672 4198 c3 -7 15 -15 29 -19 20 -6 21 -7 4 -9 -19 -1 -18 -2 3
-10 25 -11 27 -20 10 -40 -7 -8 -4 -8 6 2 12 10 15 21 10 30 -8 13 -10 17 -13
37 0 5 -11 7 -23 3 -14 -3 -19 -2 -14 6 4 7 2 12 -4 12 -7 0 -10 -6 -8 -12z"/>
<path d="M2295 4190 c-3 -5 1 -10 10 -10 9 0 13 5 10 10 -3 6 -8 10 -10 10 -2
0 -7 -4 -10 -10z"/>
<path d="M2690 4140 c0 -5 5 -10 11 -10 5 0 7 5 4 10 -3 6 -8 10 -11 10 -2 0
-4 -4 -4 -10z"/>
<path d="M2740 4105 c0 -5 5 -17 10 -25 5 -8 10 -10 10 -5 0 6 -5 17 -10 25
-5 8 -10 11 -10 5z"/>
<path d="M2150 3940 c0 -5 5 -10 11 -10 5 0 7 5 4 10 -3 6 -8 10 -11 10 -2 0
-4 -4 -4 -10z"/>
<path d="M2445 3920 c-3 -5 -1 -10 4 -10 6 0 11 5 11 10 0 6 -2 10 -4 10 -3 0
-8 -4 -11 -10z"/>
<path d="M2500 3803 c0 -7 -7 -13 -15 -13 -12 0 -12 -4 0 -32 10 -25 19 -32
36 -30 12 2 26 -2 30 -10 6 -10 9 -10 9 -1 0 7 -9 18 -19 25 -10 6 -17 17 -15
23 3 6 -2 19 -10 30 -9 11 -16 14 -16 8z"/>
<path d="M3385 3658 c1 -7 8 -12 15 -10 7 1 23 -4 36 -13 29 -19 31 -12 4 17
-15 17 -22 19 -34 9 -10 -8 -16 -9 -19 -1 -3 6 -4 5 -2 -2z"/>
<path d="M3466 3596 c21 -15 30 -14 19 3 -3 6 -14 11 -23 11 -13 0 -13 -2 4
-14z"/>
<path d="M4139 3573 c-12 -16 -12 -17 2 -6 9 7 19 10 22 6 4 -3 7 -1 7 5 0 17
-16 15 -31 -5z"/>
<path d="M3485 3560 c-3 -5 3 -10 14 -10 12 0 21 5 21 10 0 6 -6 10 -14 10 -8
0 -18 -4 -21 -10z"/>
<path d="M3517 3543 c-2 -5 8 -21 24 -36 19 -20 29 -24 35 -16 4 7 3 9 -3 6
-6 -4 -16 7 -23 23 -12 29 -25 38 -33 23z"/>
<path d="M3586 3519 c10 -12 18 -24 17 -28 0 -3 3 -13 8 -21 7 -13 8 -12 9 3
0 9 5 17 10 17 6 0 10 -7 10 -15 0 -14 12 -19 33 -16 4 0 16 -8 27 -19 11 -11
28 -20 38 -19 11 0 7 4 -11 11 -15 5 -25 14 -22 18 7 11 -30 32 -39 23 -3 -3
-6 -1 -6 6 0 7 -13 17 -29 22 -16 6 -32 17 -35 25 -3 8 -11 14 -17 14 -7 0 -4
-9 7 -21z"/>
<path d="M4057 3516 c-17 -13 -16 -14 7 -12 13 0 22 4 20 8 -2 3 2 9 8 11 9 4
8 6 -2 6 -8 0 -23 -6 -33 -13z"/>
<path d="M4133 3519 c9 -5 17 -16 17 -23 0 -7 9 -21 20 -31 15 -14 20 -15 20
-4 0 18 -47 69 -63 69 -7 0 -4 -5 6 -11z"/>
<path d="M3975 3485 c-22 -8 -31 -13 -20 -14 11 0 29 4 40 8 11 5 25 4 33 -2
9 -7 11 -6 6 7 -7 18 -6 18 -59 1z"/>
<path d="M3810 3473 c0 -5 17 -15 38 -25 33 -14 34 -16 12 -17 -14 -1 -32 -6
-40 -12 -12 -9 -12 -10 4 -5 17 6 18 2 13 -44 -4 -30 -2 -50 4 -50 5 0 9 6 8
13 -5 24 13 77 26 77 7 0 16 7 19 16 9 22 8 24 -9 24 -9 0 -29 7 -45 15 -17 9
-30 12 -30 8z"/>
<path d="M3898 3468 c9 -9 15 -9 24 0 9 9 7 12 -12 12 -19 0 -21 -3 -12 -12z"/>
<path d="M3605 3440 c4 -6 11 -8 16 -5 14 9 11 15 -7 15 -8 0 -12 -5 -9 -10z"/>
<path d="M3940 3440 c0 -5 7 -7 15 -4 8 4 15 8 15 10 0 2 -7 4 -15 4 -8 0 -15
-4 -15 -10z"/>
<path d="M3768 3413 c6 -2 18 -2 25 0 6 3 1 5 -13 5 -14 0 -19 -2 -12 -5z"/>
<path d="M4163 3354 c21 -44 22 -45 25 -19 2 15 -4 35 -14 46 -30 33 -35 21
-11 -27z"/>
<path d="M3901 3358 c-5 -18 -12 -46 -14 -63 -3 -16 -9 -39 -13 -49 -6 -15 -4
-17 7 -11 11 6 12 5 2 -6 -7 -7 -13 -19 -13 -27 0 -11 2 -11 14 0 7 8 16 43
19 78 4 36 9 75 13 88 10 35 -3 26 -15 -10z"/>
<path d="M3834 3278 c2 -18 4 -43 5 -55 0 -13 6 -23 12 -23 6 0 8 8 5 18 -3 9
-6 34 -8 55 -1 20 -5 37 -9 37 -4 0 -6 -15 -5 -32z"/>
<path d="M3967 3153 c-8 -15 -20 -108 -18 -138 3 -38 12 -47 31 -34 12 9 11
10 -5 4 -16 -5 -18 -4 -7 6 6 7 12 17 12 22 0 4 -6 5 -12 1 -10 -6 -10 -4 0 7
6 7 12 18 12 24 0 5 -5 3 -10 -5 -8 -12 -10 -10 -10 8 0 13 4 21 9 18 5 -3 9
17 9 44 1 48 -2 58 -11 43z"/>
<path d="M4117 2883 c-10 -9 -8 -106 3 -183 5 -36 5 -108 1 -160 -7 -89 -8
-93 -20 -68 -8 15 -17 25 -22 22 -4 -2 -12 4 -18 13 -5 10 -12 15 -15 12 -3
-3 6 -17 19 -32 14 -14 24 -30 23 -34 -4 -12 45 -103 56 -103 4 0 5 12 1 28
-5 15 -9 61 -9 101 -1 65 2 79 22 103 22 25 21 33 0 29 -5 0 -8 4 -8 9 0 6 5
10 10 10 7 0 7 6 1 19 -6 10 -8 21 -4 24 3 4 -1 17 -9 29 -7 13 -13 34 -12 48
1 14 -2 30 -6 35 -5 6 -7 31 -6 58 1 26 1 47 1 47 -1 0 -5 -3 -8 -7z m27 -189
c3 -8 2 -12 -4 -9 -6 3 -10 10 -10 16 0 14 7 11 14 -7z"/>
<path d="M4010 2700 c0 -5 5 -10 10 -10 6 0 10 5 10 10 0 6 -4 10 -10 10 -5 0
-10 -4 -10 -10z"/>
<path d="M4007 2623 c18 -71 30 -93 48 -93 7 0 16 -6 18 -12 4 -8 6 -7 6 3 1
9 -7 23 -16 30 -11 10 -14 10 -9 2 4 -7 5 -13 1 -13 -9 0 -23 44 -17 54 3 5 9
1 13 -10 7 -17 8 -17 8 5 1 19 -3 22 -19 18 -20 -5 -21 -3 -24 45 0 12 -6 23
-13 25 -8 3 -7 -12 4 -54z"/>
<path d="M4025 2663 c2 -10 4 -24 4 -31 1 -7 5 -11 10 -8 10 7 2 56 -9 56 -5
0 -7 -8 -5 -17z"/>
<path d="M4162 2578 c-21 -21 -14 -48 11 -48 20 1 21 2 5 14 -13 9 -14 16 -6
24 6 6 9 14 7 17 -3 2 -11 -1 -17 -7z"/>
<path d="M4160 2516 c0 -2 6 -19 14 -37 l14 -33 0 37 c0 25 -5 37 -14 37 -8 0
-14 -2 -14 -4z"/>
<path d="M3365 2442 c-20 -49 -33 -162 -19 -162 5 0 10 21 12 48 1 26 9 71 18
101 19 67 14 74 -11 13z"/>
<path d="M3762 2482 c-9 -6 -5 -14 13 -30 14 -13 31 -20 37 -16 7 5 9 2 6 -7
-3 -9 3 -26 13 -40 16 -20 18 -20 13 -4 -4 11 -4 17 1 13 4 -4 8 -15 9 -25 1
-10 8 -38 15 -62 7 -25 11 -82 10 -132 -2 -49 0 -91 4 -95 4 -4 7 -12 7 -18 0
-6 -5 -4 -10 4 -8 12 -10 8 -10 -15 -1 -16 -3 -58 -6 -92 -4 -45 -2 -63 6 -63
8 0 10 -12 5 -40 -9 -53 11 -137 36 -151 10 -5 19 -15 18 -22 0 -9 -2 -9 -6 1
-2 6 -8 12 -13 12 -8 0 45 -146 60 -165 9 -12 42 -118 47 -155 2 -14 8 -26 13
-28 5 -2 6 -10 3 -18 -3 -9 2 -14 13 -15 11 0 14 -3 7 -6 -7 -2 -13 -9 -13
-14 0 -6 3 -8 8 -6 4 3 8 -11 9 -31 1 -19 12 -49 24 -65 17 -24 18 -29 6 -24
-10 4 -17 2 -17 -4 0 -6 9 -13 20 -16 22 -6 26 -18 10 -28 -5 -3 -10 -12 -10
-18 0 -7 4 -6 11 3 8 11 9 8 4 -13 -4 -21 -3 -27 6 -21 9 5 10 2 5 -11 -5 -15
-4 -16 9 -5 10 9 12 16 5 25 -5 6 -12 29 -15 50 -7 54 -25 105 -37 105 -6 0
-6 6 2 15 7 8 9 15 4 15 -5 0 -10 14 -10 31 -1 17 -5 34 -10 38 -5 3 -9 20 -9
38 1 18 -2 30 -7 27 -4 -3 -8 3 -8 13 0 28 -94 278 -111 297 -5 6 -9 18 -9 27
0 23 -25 70 -33 62 -4 -3 -7 -1 -7 5 0 7 5 12 11 12 7 0 9 19 5 58 -3 31 -5
65 -5 75 -1 12 -5 16 -13 11 -7 -4 -6 1 3 12 20 22 31 184 14 184 -6 0 -5 3 1
8 6 4 15 18 19 31 6 18 4 22 -6 15 -12 -7 -12 -5 -1 9 8 9 11 26 7 39 -19 73
-29 97 -38 91 -6 -3 -7 -1 -3 5 8 13 -15 54 -58 100 -32 35 -35 36 -54 24z
m183 -832 c3 -5 1 -10 -4 -10 -6 0 -11 5 -11 10 0 6 2 10 4 10 3 0 8 -4 11
-10z"/>
<path d="M4060 2384 c23 -52 60 -108 67 -100 3 2 -6 24 -20 48 -14 24 -28 55
-31 71 -4 15 -13 27 -21 27 -12 0 -11 -8 5 -46z"/>
<path d="M2957 1063 c-3 -4 -12 -30 -20 -58 -9 -27 -25 -75 -35 -105 -16 -42
-18 -65 -12 -98 10 -55 20 -66 13 -14 -5 37 8 93 58 246 9 28 6 46 -4 29z"/>
<path d="M4134 1023 c1 -19 5 -28 10 -23 6 6 5 18 -1 32 -10 21 -10 21 -9 -9z"/>
<path d="M4156 952 c-3 -6 0 -12 6 -15 11 -3 11 -9 0 -26 -7 -11 -8 -21 -3
-21 5 0 8 -57 8 -127 -1 -84 3 -135 10 -148 10 -16 12 13 10 145 -3 152 -13
220 -31 192z"/>
<path d="M3457 683 c-12 -11 -8 -18 26 -54 39 -42 79 -62 172 -85 71 -17 119
-48 111 -71 -3 -7 -1 -15 4 -18 17 -10 19 11 3 42 -14 31 -83 73 -118 73 -32
0 -122 49 -152 83 -35 40 -36 41 -46 30z"/>
<path d="M3516 505 c4 -8 9 -15 13 -15 16 0 64 -58 68 -81 6 -45 10 -48 50
-42 48 8 113 47 113 69 0 4 -11 -3 -24 -15 -15 -14 -42 -25 -69 -28 -43 -5
-44 -5 -60 34 -8 22 -31 51 -51 66 -40 31 -48 33 -40 12z"/>
<path d="M3440 492 c0 -5 15 -26 34 -48 34 -40 52 -99 37 -122 -4 -8 -21 -12
-36 -10 -26 3 -30 9 -40 56 -7 29 -23 64 -35 77 -33 35 -47 31 -17 -4 23 -28
50 -107 45 -133 -2 -9 8 -12 35 -10 46 4 135 41 100 42 -24 0 -43 26 -43 61 0
12 -17 38 -40 60 -22 22 -40 35 -40 31z"/>
<path d="M3309 423 c12 -24 31 -39 31 -25 0 5 -10 17 -21 28 -22 19 -22 19
-10 -3z"/>
<path d="M3347 356 c3 -15 10 -29 15 -32 6 -4 7 2 3 17 -10 35 -23 45 -18 15z"/>
<path d="M3598 343 c6 -2 18 -2 25 0 6 3 1 5 -13 5 -14 0 -19 -2 -12 -5z"/>
<path d="M3284 295 c11 -8 29 -15 40 -15 16 1 12 5 -13 15 -42 19 -52 19 -27
0z"/>
<path d="M3356 302 c-3 -5 8 -9 25 -10 16 0 27 4 24 9 -8 11 -42 12 -49 1z"/>
</g>
</svg>
