<?xml version="1.0" standalone="no"?>
<!DOCTYPE svg PUBLIC "-//W3C//DTD SVG 20010904//EN"
 "http://www.w3.org/TR/2001/REC-SVG-20010904/DTD/svg10.dtd">
<svg version="1.0" xmlns="http://www.w3.org/2000/svg"
 width="468pt" height="321pt" viewBox="0 0 468 321"
 preserveAspectRatio="xMidYMid meet">
<metadata>
Created by potrace 1.8, written by Peter Selinger 2001-2007
</metadata>
<g transform="translate(0,321) scale(0.115556,-0.115556)"
fill="#000000" stroke="none">
<path d="M1580 2731 c0 -5 9 -19 20 -32 l21 -24 -16 33 c-15 31 -25 41 -25 23z"/>
<path d="M3024 2128 l-19 -23 23 19 c21 18 27 26 19 26 -2 0 -12 -10 -23 -22z"/>
<path d="M960 2117 c0 -2 15 -16 33 -33 l32 -29 -29 33 c-28 30 -36 37 -36 29z"/>
<path d="M3024 2048 l-19 -23 25 20 c14 11 27 21 29 22 2 2 0 3 -6 3 -5 0 -18
-10 -29 -22z"/>
<path d="M1020 2046 c0 -2 8 -10 18 -17 15 -13 16 -12 3 4 -13 16 -21 21 -21
13z"/>
<path d="M3118 2019 c-21 -11 -38 -22 -38 -24 0 -3 18 4 40 15 22 11 40 23 40
25 0 7 0 7 -42 -16z"/>
<path d="M2959 1993 c-13 -16 -12 -17 4 -4 16 13 21 21 13 21 -2 0 -10 -8 -17
-17z"/>
<path d="M1060 1999 c0 -3 14 -23 30 -44 17 -21 30 -34 30 -29 -1 10 -59 82
-60 73z"/>
<path d="M825 1926 c41 -35 115 -88 115 -83 0 5 -107 88 -130 100 -8 5 -1 -3
15 -17z"/>
<path d="M1020 1885 c13 -14 26 -25 28 -25 3 0 -5 11 -18 25 -13 14 -26 25
-28 25 -3 0 5 -11 18 -25z"/>
<path d="M2869 1833 c-13 -16 -12 -17 4 -4 16 13 21 21 13 21 -2 0 -10 -8 -17
-17z"/>
<path d="M896 1813 c12 -10 39 -31 60 -48 21 -16 54 -46 73 -66 20 -19 27 -24
16 -10 -26 34 -52 58 -104 101 -45 36 -83 56 -45 23z"/>
<path d="M2946 1809 c-14 -11 -31 -30 -37 -42 -7 -16 -2 -13 18 9 15 17 37 36
48 42 11 6 15 12 9 12 -6 0 -23 -9 -38 -21z"/>
<path d="M1009 1807 c6 -8 7 -18 3 -23 -4 -5 -3 -6 2 -1 5 4 21 -3 35 -15 14
-13 10 -6 -8 15 -33 35 -56 52 -32 24z"/>
<path d="M2816 1737 c3 -10 9 -15 12 -12 3 3 0 11 -7 18 -10 9 -11 8 -5 -6z"/>
<path d="M3448 1673 c7 -3 16 -2 19 1 4 3 -2 6 -13 5 -11 0 -14 -3 -6 -6z"/>
<path d="M525 1657 c-93 -13 -84 -22 23 -21 88 1 91 1 32 -5 -72 -8 -99 -17
-117 -40 -11 -14 -12 -14 -13 2 0 9 -2 17 -5 17 -15 0 -95 -46 -95 -55 0 -13
-59 -49 -67 -41 -3 3 5 10 18 15 23 9 23 10 2 10 -12 1 -24 -3 -27 -8 -3 -5
-26 -9 -51 -8 -58 1 -67 -9 -31 -38 20 -16 24 -24 15 -28 -8 -3 5 -6 29 -6 23
-1 42 -6 42 -11 0 -6 -12 -8 -27 -6 -16 3 -4 -2 25 -11 29 -9 52 -22 52 -29 0
-8 6 -14 13 -15 6 0 -1 -7 -18 -14 l-30 -14 28 -1 c15 0 27 -4 27 -10 0 -5 -7
-10 -16 -10 -9 0 -14 -6 -11 -12 2 -7 15 -12 28 -10 17 1 20 -1 10 -7 -11 -7
-11 -9 0 -14 11 -4 9 -9 -6 -21 -19 -16 -19 -17 15 -11 26 5 31 4 20 -4 -8 -6
-26 -11 -40 -11 -22 -1 -23 -2 -8 -11 12 -7 24 -6 37 1 26 13 26 13 28 -12 1
-12 -3 -26 -10 -30 -6 -4 -9 -10 -5 -13 3 -3 13 1 22 10 9 9 16 12 16 7 0 -5
11 -13 25 -16 17 -4 23 -11 18 -22 -4 -12 -2 -15 8 -12 8 3 13 11 11 17 -1 7
2 10 8 6 6 -3 8 -10 5 -15 -3 -4 1 -10 7 -13 7 -2 -5 -8 -27 -13 l-40 -8 30
-6 c17 -4 36 -2 43 3 7 6 15 7 19 3 3 -3 0 -6 -8 -7 -8 0 -6 -4 6 -8 18 -8 16
-10 -15 -19 -20 -6 -26 -10 -15 -11 11 0 31 6 45 14 14 8 19 14 13 15 -7 0
-13 8 -13 18 1 16 1 16 14 0 7 -10 17 -14 22 -10 5 4 -4 -9 -21 -27 -28 -33
-28 -34 -5 -20 14 8 36 13 48 11 l24 -4 -23 -24 c-18 -19 -19 -23 -6 -18 9 3
17 9 17 13 0 3 10 12 23 20 22 14 22 14 3 -8 -20 -22 -9 -30 13 -8 11 10 13 9
8 -5 -8 -22 0 -23 20 -3 25 26 28 7 3 -20 -26 -28 -17 -34 12 -8 12 10 18 12
18 4 0 -7 5 -9 11 -5 8 5 8 8 0 14 -9 5 -7 10 4 20 13 11 14 10 8 -6 -6 -17
-5 -17 10 -5 9 7 17 9 17 3 0 -5 -7 -15 -15 -22 -8 -7 -15 -17 -15 -22 0 -6 7
-5 15 2 11 9 15 9 15 1 0 -7 5 -9 11 -5 8 4 8 9 1 13 -7 4 -8 12 -2 21 6 8 10
11 11 5 0 -5 5 -1 10 10 8 17 8 15 4 -7 -6 -33 10 -38 18 -6 6 21 7 21 26 4
11 -10 24 -15 29 -12 6 4 8 -3 4 -16 -7 -27 15 -16 29 16 9 21 9 21 4 -1 -3
-13 -8 -33 -11 -45 l-6 -23 16 23 c17 22 43 32 30 10 -5 -8 -1 -9 12 -5 18 7
18 7 0 -8 -11 -8 -14 -15 -7 -15 7 0 19 -6 27 -14 11 -11 11 -16 1 -20 -6 -4
-2 -4 9 -2 20 3 22 0 19 -45 -2 -35 0 -47 8 -42 7 4 6 0 -1 -10 -8 -9 -11 -21
-8 -26 4 -6 -8 -27 -26 -48 -53 -60 -65 -81 -29 -48 68 61 91 87 92 103 0 11
3 12 6 5 10 -26 34 16 37 66 2 27 7 55 11 63 3 7 -1 4 -9 -6 -16 -19 -16 -19
-16 2 0 24 35 49 45 32 3 -5 4 -13 2 -17 -3 -5 6 -9 20 -10 15 0 22 2 17 5 -5
4 -18 18 -29 31 -19 23 -19 24 -1 17 12 -4 26 0 37 10 12 10 19 12 19 5 0 -8
5 -8 20 1 11 7 20 17 20 22 0 4 -6 4 -13 -1 -6 -6 -19 -11 -27 -11 -8 0 -25
-3 -36 -7 -16 -5 -23 -2 -27 14 -4 16 0 21 15 21 10 0 16 -4 13 -10 -3 -6 1
-7 9 -4 9 3 16 10 16 16 0 5 -5 6 -10 3 -6 -3 -13 0 -16 8 -3 8 -16 13 -30 11
-15 -1 -24 3 -24 12 0 8 -5 14 -10 14 -6 0 -10 3 -9 8 2 15 -14 52 -21 47 -4
-3 -7 6 -7 19 0 17 4 23 13 19 8 -3 13 -10 12 -17 -2 -6 10 -28 26 -49 23 -29
31 -35 42 -26 8 6 13 21 13 33 -2 20 -2 19 -6 -2 -6 -31 -26 -23 -34 14 -4 16
-7 23 -8 17 -2 -21 -21 -15 -21 7 0 12 -12 26 -31 35 -22 12 -28 21 -24 34 3
10 -1 24 -10 31 -8 7 -15 19 -15 27 0 8 -4 11 -10 8 -5 -3 -10 2 -10 11 0 10
-8 26 -17 37 -10 11 -12 17 -4 12 9 -5 7 1 -4 19 -10 14 -21 26 -26 26 -5 0
-9 8 -9 17 0 15 2 14 15 -3 8 -10 15 -15 15 -10 0 5 -20 29 -45 53 -25 23 -45
46 -45 50 0 5 -13 22 -30 39 -16 18 -26 35 -22 39 4 5 2 5 -4 2 -6 -4 -20 3
-30 14 -24 26 -125 80 -105 55 7 -9 19 -16 26 -16 17 0 103 -79 87 -80 -7 0
-24 11 -38 25 -27 27 -93 63 -134 74 -14 4 -52 3 -85 -2z m100 -47 c4 -6 -10
-9 -37 -9 l-43 2 35 7 c19 4 36 8 37 9 1 0 5 -3 8 -9z m-85 -4 c0 -2 -7 -7
-16 -10 -8 -3 -12 -2 -9 4 6 10 25 14 25 6z m164 -5 c4 -5 -2 -8 -11 -7 -10 2
-29 -1 -42 -6 -21 -7 -22 -7 -11 7 14 16 55 20 64 6z m-289 -31 c-10 -11 -23
-20 -29 -20 -6 0 0 9 14 20 32 25 38 25 15 0z m144 -46 c4 3 12 -4 18 -14 11
-16 9 -18 -17 -16 -16 1 -27 -2 -24 -6 3 -4 12 -8 20 -8 8 0 12 -4 9 -10 -3
-5 -1 -10 6 -10 7 0 5 -8 -7 -22 -10 -12 -13 -18 -6 -14 7 4 12 2 13 -6 0 -7
2 -21 4 -30 2 -11 -2 -15 -13 -12 -14 5 -14 4 1 -6 9 -6 23 -8 30 -4 7 5 6 0
-3 -11 -14 -17 -13 -18 8 -13 12 4 22 3 22 -2 0 -14 60 -32 89 -27 17 4 31 2
33 -4 2 -7 9 -4 17 5 12 14 11 16 -5 9 -16 -6 -17 -5 -6 9 10 13 10 17 0 22
-7 3 -4 4 7 1 11 -2 27 0 35 6 13 9 12 10 -3 5 -11 -3 -16 -2 -12 4 7 11 35
13 59 4 9 -3 13 -10 10 -15 -3 -5 0 -9 5 -9 8 0 7 -7 -1 -20 -7 -11 -15 -15
-19 -9 -3 6 -10 -9 -14 -33 -4 -24 -9 -37 -12 -30 -6 16 -23 15 -23 -2 0 -7
-12 -19 -27 -25 -41 -16 -153 -2 -153 20 0 5 -5 9 -11 9 -5 0 -7 -6 -3 -12 5
-7 -8 -1 -27 13 -37 29 -50 59 -25 59 9 0 16 5 16 10 0 13 -13 13 -28 -2 -18
-18 -45 10 -37 40 4 16 2 21 -6 17 -8 -5 -9 -1 -4 14 4 12 2 21 -4 21 -6 0 -9
8 -7 18 10 46 19 60 32 55 9 -3 14 1 14 12 0 11 5 15 15 11 8 -3 14 -2 14 2
-3 16 3 26 8 14 2 -6 8 -10 12 -8z m266 6 c8 -13 -5 -13 -25 0 -13 8 -13 10 2
10 9 0 20 -4 23 -10z m-84 -44 c-1 -13 -51 -20 -51 -7 0 5 6 12 13 14 17 8 38
4 38 -7z m-220 -213 c13 -16 12 -17 -3 -4 -17 13 -22 21 -14 21 2 0 10 -8 17
-17z"/>
<path d="M526 1444 c-3 -8 -10 -13 -15 -9 -5 3 -12 1 -15 -4 -8 -12 13 -9 38
6 11 6 14 13 8 17 -5 3 -13 -1 -16 -10z"/>
<path d="M512 1401 c-10 -6 -9 -10 7 -14 14 -3 19 -1 14 6 -4 7 0 8 11 4 10
-4 15 -3 11 3 -8 12 -25 13 -43 1z"/>
<path d="M496 1347 c3 -10 9 -15 12 -12 3 3 0 11 -7 18 -10 9 -11 8 -5 -6z"/>
<path d="M538 1353 c7 -3 16 -2 19 1 4 3 -2 6 -13 5 -11 0 -14 -3 -6 -6z"/>
<path d="M597 1313 c-10 -9 -9 -33 1 -33 4 0 8 9 8 20 0 23 0 22 -9 13z"/>
<path d="M562 1281 c-11 -7 -11 -9 2 -14 10 -4 16 -1 16 8 0 17 -1 17 -18 6z"/>
<path d="M661 1253 c-1 -18 13 -23 29 -11 12 8 12 9 -2 5 -9 -3 -19 -1 -22 6
-3 9 -5 9 -5 0z"/>
<path d="M724 1244 c-18 -14 -18 -15 4 -4 12 6 22 13 22 15 0 8 -5 6 -26 -11z"/>
<path d="M3333 1651 c-23 -9 -45 -20 -49 -24 -4 -4 -14 -7 -22 -7 -8 0 -30
-11 -48 -25 -21 -16 -34 -21 -36 -13 -5 13 -28 2 -28 -13 0 -6 5 -7 10 -4 6 3
10 1 10 -5 0 -7 -7 -10 -15 -7 -9 4 -26 -8 -46 -31 -17 -20 -29 -29 -25 -19
19 52 19 53 3 34 -11 -14 -16 -15 -21 -5 -3 7 -5 2 -3 -13 2 -14 -3 -31 -10
-38 -7 -7 -10 -17 -7 -23 5 -7 1 -9 -9 -5 -17 6 -22 -10 -17 -57 1 -11 -3 -15
-9 -12 -6 4 -11 15 -11 24 0 14 -2 14 -9 3 -6 -9 -4 -23 6 -38 15 -22 14 -23
-3 -16 -17 6 -18 5 -4 -12 14 -17 13 -18 -2 -12 -20 7 -25 -9 -5 -16 7 -3 5
-6 -5 -6 -11 -1 -15 -6 -12 -15 3 -8 0 -24 -6 -36 -10 -18 -14 -19 -27 -8 -14
11 -14 10 0 -13 19 -29 11 -48 -10 -21 -12 16 -13 15 -6 -3 3 -11 11 -26 16
-33 7 -9 7 -16 -1 -24 -9 -9 -17 -7 -34 8 l-22 19 16 -25 c9 -14 21 -24 27
-22 8 1 8 -4 0 -16 -12 -19 -53 -19 -65 -1 -3 5 -11 9 -17 9 -7 0 -4 -5 5 -11
16 -9 16 -12 -10 -34 -20 -18 -23 -24 -11 -25 9 0 22 6 28 14 6 8 21 16 32 19
18 5 20 2 15 -19 -4 -14 -2 -24 4 -24 5 0 10 5 10 10 0 6 5 10 10 10 6 0 8
-10 4 -24 -3 -13 -1 -27 5 -30 7 -5 10 1 8 15 -1 12 4 24 12 27 8 2 11 0 7 -6
-3 -6 -1 -12 6 -14 7 -3 8 -10 4 -17 -5 -7 -9 -31 -10 -52 -1 -22 1 -34 5 -28
4 8 11 4 19 -11 8 -15 8 -20 1 -16 -16 11 -13 -10 4 -24 8 -7 12 -16 9 -21 -3
-5 0 -8 7 -7 7 2 13 -1 14 -7 0 -10 65 -105 72 -105 2 0 -11 26 -29 57 -31 55
-47 143 -25 143 4 0 5 5 1 11 -4 7 1 7 16 -1 20 -11 21 -10 16 8 -4 12 -2 24
5 28 8 5 9 3 4 -7 -8 -12 -6 -12 8 0 9 7 17 10 17 5 1 -5 8 2 16 16 8 14 13
17 10 8 -3 -11 -1 -15 9 -12 7 3 15 14 18 25 5 19 37 17 37 -3 0 -5 -4 -6 -10
-3 -12 8 -13 -5 -1 -23 6 -10 10 -8 15 10 l6 23 14 -24 c11 -20 14 -21 19 -7
4 10 12 14 18 10 8 -4 8 0 0 15 -16 30 4 27 24 -3 15 -22 63 -46 49 -25 -3 5
-12 9 -20 9 -8 0 -14 5 -14 11 0 5 5 7 12 3 7 -4 8 -3 4 5 -4 6 -11 9 -15 7
-4 -3 -8 1 -8 9 0 17 13 20 22 5 4 -6 15 -4 30 6 18 11 25 12 31 3 5 -8 3 -9
-6 -4 -9 5 -11 4 -6 -4 4 -6 12 -8 18 -5 6 4 14 0 19 -7 7 -11 9 -11 9 -1 0 7
5 10 10 7 14 -9 13 8 -2 23 -9 9 -4 9 23 2 46 -13 49 -12 16 6 -37 20 -30 27
12 13 18 -6 35 -9 38 -5 4 3 1 6 -5 6 -7 0 -12 7 -12 16 0 11 5 14 16 10 14
-5 15 -4 4 9 -10 12 -8 16 14 26 14 7 26 16 26 20 0 5 6 6 14 3 8 -3 17 -1 21
5 3 6 1 11 -6 11 -8 0 -8 4 1 15 8 10 21 13 34 9 21 -6 21 -6 1 10 -20 17 -19
17 5 10 22 -6 23 -5 11 10 -10 12 -10 16 -1 16 10 0 10 3 0 15 -10 12 -9 15 5
15 11 0 15 5 11 15 -3 9 1 18 9 22 9 3 15 10 14 17 -3 25 2 36 16 36 12 0 13
4 5 19 -14 27 -13 33 8 27 22 -7 47 8 37 24 -5 9 -1 10 15 5 15 -5 20 -4 16 4
-4 6 0 11 9 11 9 0 13 5 9 11 -4 7 4 10 22 9 44 -3 51 0 29 12 -11 7 -22 11
-25 11 -3 -1 -13 3 -24 9 -13 7 -16 7 -12 -1 4 -6 2 -11 -3 -11 -6 0 -11 5
-11 11 0 6 -6 9 -12 6 -7 -2 -32 7 -55 20 -23 13 -44 20 -47 15 -3 -6 5 -13
19 -16 14 -4 25 -11 25 -16 0 -12 -56 8 -71 26 -6 8 -18 14 -25 14 -8 0 -22 4
-32 10 -9 5 -39 16 -67 24 -32 9 -41 14 -25 15 14 0 43 -7 65 -15 22 -8 51
-17 65 -19 24 -3 24 -3 -2 8 -16 6 -28 14 -28 19 0 4 -4 8 -9 8 -5 0 -22 5
-38 11 -43 18 -83 21 -80 7 1 -8 -10 -11 -33 -9 -50 4 -58 20 -11 24 11 1 21
5 21 9 0 12 -30 8 -77 -11z m83 -46 c17 -13 16 -14 -14 -4 -18 6 -38 9 -46 6
-7 -3 -19 -1 -27 4 -10 6 -1 9 27 9 22 0 49 -7 60 -15z m-136 -15 c0 -5 -8
-10 -17 -10 -10 0 -31 -7 -47 -15 -16 -9 -31 -14 -33 -11 -4 4 76 45 90 46 4
0 7 -4 7 -10z m20 -110 c-1 -16 -19 -26 -48 -26 -35 1 -37 15 -4 32 12 6 19
14 14 19 -4 4 3 1 16 -6 12 -8 22 -16 22 -19z m154 -42 c19 -38 20 -36 0 -40
-18 -3 -31 -68 -14 -68 5 0 6 7 3 17 -4 11 -3 14 5 9 8 -5 10 -2 6 8 -3 9 -1
16 5 16 18 0 12 -36 -9 -55 -12 -10 -18 -25 -16 -32 3 -7 1 -15 -4 -18 -18
-11 -11 -35 8 -29 14 5 15 4 2 -5 -11 -8 -18 -7 -26 4 -13 17 -34 20 -34 5 0
-16 -44 -30 -52 -17 -5 8 -9 6 -13 -4 -5 -14 -46 -17 -97 -7 -7 2 -12 -3 -11
-9 7 -35 -59 9 -86 57 -19 34 -22 51 -18 88 10 78 13 86 40 93 31 8 42 -9 18
-29 -9 -8 -10 -11 -3 -7 6 3 15 -1 18 -10 4 -9 22 -32 40 -52 19 -19 31 -39
28 -44 -3 -5 0 -9 5 -9 6 0 11 4 11 10 0 6 9 6 25 0 16 -6 25 -6 25 0 0 6 5
10 11 10 20 0 69 58 63 75 -5 12 -2 14 12 8 17 -6 17 -5 5 10 -8 10 -11 20 -7
24 3 3 6 1 6 -5 0 -18 27 -14 34 4 4 9 1 24 -6 32 -9 11 -9 14 -1 9 6 -4 19
-21 27 -39z m75 -42 c1 -4 -5 -6 -13 -3 -10 4 -13 -2 -11 -26 1 -22 -7 -44
-26 -71 -34 -47 -35 -47 -9 27 11 31 20 65 20 75 0 10 6 24 12 30 10 10 14 9
20 -5 3 -10 7 -22 7 -27z m128 -11 c-15 -16 -19 -13 -11 9 3 9 10 13 15 10 5
-3 3 -11 -4 -19z m-248 -169 c-2 -2 -15 -9 -29 -15 -24 -11 -24 -11 -6 3 16
13 49 24 35 12z m-71 -23 c-10 -2 -26 -2 -35 0 -10 3 -2 5 17 5 19 0 27 -2 18
-5z m127 -83 c3 -6 -1 -7 -9 -4 -18 7 -21 14 -7 14 6 0 13 -4 16 -10z m-519
-12 c4 -7 4 -10 -1 -6 -4 4 -14 3 -22 -4 -11 -8 -12 -7 -7 6 7 19 20 21 30 4z
m289 -67 c13 -22 -12 -17 -29 6 -18 25 -18 25 2 14 12 -6 23 -15 27 -20z"/>
<path d="M3430 1415 c-11 -13 -10 -14 4 -9 9 3 16 10 16 15 0 13 -6 11 -20 -6z"/>
<path d="M1080 1630 c6 -11 13 -20 16 -20 2 0 0 9 -6 20 -6 11 -13 20 -16 20
-2 0 0 -9 6 -20z"/>
<path d="M1151 1534 c0 -11 3 -14 6 -6 3 7 2 16 -1 19 -3 4 -6 -2 -5 -13z"/>
<path d="M1096 1507 c3 -10 9 -15 12 -12 3 3 0 11 -7 18 -10 9 -11 8 -5 -6z"/>
<path d="M3020 1480 c0 -5 5 -10 10 -10 6 0 10 5 10 10 0 6 -4 10 -10 10 -5 0
-10 -4 -10 -10z"/>
<path d="M268 1393 c7 -3 16 -2 19 1 4 3 -2 6 -13 5 -11 0 -14 -3 -6 -6z"/>
<path d="M258 1353 c6 -2 18 -2 25 0 6 3 1 5 -13 5 -14 0 -19 -2 -12 -5z"/>
<path d="M3648 1313 c7 -3 16 -2 19 1 4 3 -2 6 -13 5 -11 0 -14 -3 -6 -6z"/>
<path d="M2890 1291 c0 -6 4 -13 10 -16 6 -3 7 1 4 9 -7 18 -14 21 -14 7z"/>
<path d="M1098 1257 c-3 -19 -2 -25 4 -19 6 6 8 18 6 28 -3 14 -5 12 -10 -9z"/>
<path d="M2750 1260 c0 -5 5 -10 10 -10 6 0 10 5 10 10 0 6 -4 10 -10 10 -5 0
-10 -4 -10 -10z"/>
<path d="M1040 1230 c-6 -11 -8 -20 -6 -20 3 0 10 9 16 20 6 11 8 20 6 20 -3
0 -10 -9 -16 -20z"/>
<path d="M3668 1243 c7 -3 16 -2 19 1 4 3 -2 6 -13 5 -11 0 -14 -3 -6 -6z"/>
<path d="M1237 1206 c-4 -10 -1 -13 9 -9 15 6 19 23 5 23 -5 0 -11 -7 -14 -14z"/>
<path d="M2800 1210 c0 -5 5 -10 11 -10 5 0 7 5 4 10 -3 6 -8 10 -11 10 -2 0
-4 -4 -4 -10z"/>
<path d="M2870 1207 c0 -2 14 -13 31 -26 l31 -23 -17 26 c-10 14 -24 26 -31
26 -8 0 -14 -1 -14 -3z"/>
<path d="M2750 1180 c20 -13 33 -13 25 0 -3 6 -14 10 -23 10 -15 0 -15 -2 -2
-10z"/>
<path d="M2798 1173 c6 -2 12 -11 12 -19 0 -9 5 -12 10 -9 13 8 -6 35 -24 34
-7 0 -6 -2 2 -6z"/>
<path d="M405 1160 c-3 -6 1 -7 9 -4 18 7 21 14 7 14 -6 0 -13 -4 -16 -10z"/>
<path d="M3546 1146 c3 -9 11 -16 16 -16 13 0 5 23 -10 28 -7 2 -10 -2 -6 -12z"/>
<path d="M3517 1129 c7 -7 15 -10 18 -7 3 3 -2 9 -12 12 -14 6 -15 5 -6 -5z"/>
<path d="M1153 1075 c0 -8 4 -12 9 -9 5 3 6 10 3 15 -9 13 -12 11 -12 -6z"/>
<path d="M2850 1045 c-7 -9 -8 -15 -2 -15 5 0 12 7 16 15 3 8 4 15 2 15 -2 0
-9 -7 -16 -15z"/>
<path d="M569 1033 c-13 -16 -12 -17 4 -4 9 7 17 15 17 17 0 8 -8 3 -21 -13z"/>
<path d="M1290 1040 c-9 -6 -10 -10 -3 -10 6 0 15 5 18 10 8 12 4 12 -15 0z"/>
<path d="M3334 1036 c1 -8 5 -18 8 -22 4 -3 5 1 4 10 -1 8 -5 18 -8 22 -4 3
-5 -1 -4 -10z"/>
<path d="M1248 1033 c7 -3 16 -2 19 1 4 3 -2 6 -13 5 -11 0 -14 -3 -6 -6z"/>
<path d="M828 1007 c-3 -19 -2 -25 4 -19 6 6 8 18 6 28 -3 14 -5 12 -10 -9z"/>
<path d="M3376 1017 c3 -10 9 -15 12 -12 3 3 0 11 -7 18 -10 9 -11 8 -5 -6z"/>
<path d="M2775 1001 c-3 -5 -2 -12 3 -15 5 -3 9 1 9 9 0 17 -3 19 -12 6z"/>
<path d="M1189 974 c-17 -18 -19 -23 -6 -18 13 4 17 1 17 -15 0 -12 6 -21 14
-21 22 0 28 16 11 30 -11 9 -12 17 -4 31 14 27 -3 23 -32 -7z"/>
<path d="M2688 993 c7 -3 16 -2 19 1 4 3 -2 6 -13 5 -11 0 -14 -3 -6 -6z"/>
<path d="M3285 980 c10 -11 20 -20 23 -20 3 0 -3 9 -13 20 -10 11 -20 20 -23
20 -3 0 3 -9 13 -20z"/>
<path d="M843 965 c0 -8 4 -12 9 -9 5 3 6 10 3 15 -9 13 -12 11 -12 -6z"/>
<path d="M2720 970 c20 -13 33 -13 25 0 -3 6 -14 10 -23 10 -15 0 -15 -2 -2
-10z"/>
<path d="M2776 959 c4 -7 -4 -20 -17 -30 -13 -10 -22 -20 -19 -22 3 -3 18 6
33 19 26 22 29 44 6 44 -6 0 -7 -5 -3 -11z"/>
<path d="M941 935 c1 -19 18 -51 18 -35 0 8 -4 22 -9 30 -5 8 -9 11 -9 5z"/>
<path d="M1167 925 c-4 -8 -15 -12 -27 -10 -17 3 -20 0 -16 -12 4 -8 1 -23 -6
-32 -12 -15 -11 -15 6 -1 18 14 19 13 14 -13 -3 -15 -1 -30 3 -33 5 -3 9 3 9
13 0 14 2 15 9 5 7 -11 9 -11 14 2 4 9 1 15 -5 13 -6 -1 -14 10 -18 24 -8 28
0 32 30 15 12 -7 12 -6 3 4 -6 7 -9 19 -6 26 3 8 3 14 0 14 -3 0 -7 -7 -10
-15z"/>
<path d="M1097 891 c-4 -17 -3 -21 5 -13 5 5 8 16 6 23 -3 8 -7 3 -11 -10z"/>
<path d="M1206 897 c3 -10 9 -15 12 -12 3 3 0 11 -7 18 -10 9 -11 8 -5 -6z"/>
<path d="M989 895 c-1 -3 -2 -8 -3 -12 -1 -5 -5 -15 -10 -23 -7 -12 -6 -13 4
-3 13 12 23 43 14 43 -2 0 -5 -2 -5 -5z"/>
<path d="M1235 880 c3 -5 8 -10 11 -10 2 0 4 5 4 10 0 6 -5 10 -11 10 -5 0 -7
-4 -4 -10z"/>
<path d="M2762 864 c-7 -8 -8 -14 -3 -14 10 0 25 19 20 25 -2 1 -10 -3 -17
-11z"/>
<path d="M1215 849 c-4 -6 -5 -12 -2 -15 2 -3 7 2 10 11 7 17 1 20 -8 4z"/>
<path d="M2782 844 c-12 -8 -37 -15 -57 -16 -52 -2 -33 -11 28 -14 28 -1 46 1
40 3 -7 3 -13 9 -13 14 0 6 4 8 9 4 5 -3 13 0 16 6 11 18 0 19 -23 3z"/>
<path d="M1270 841 c0 -5 7 -12 16 -15 14 -5 15 -4 4 9 -14 17 -20 19 -20 6z"/>
<path d="M1350 840 c-9 -6 -10 -10 -3 -10 6 0 15 5 18 10 8 12 4 12 -15 0z"/>
<path d="M2821 819 c-1 -9 -11 -24 -23 -32 -13 -9 -18 -16 -12 -16 17 -1 47
36 41 51 -4 9 -6 8 -6 -3z"/>
<path d="M1086 803 c-6 -14 -5 -15 5 -6 7 7 10 15 7 18 -3 3 -9 -2 -12 -12z"/>
<path d="M1207 813 c-4 -3 -7 -16 -7 -27 0 -17 2 -18 10 -6 7 11 10 11 10 2 0
-7 12 -25 26 -40 l27 -27 -22 36 c-12 20 -18 44 -15 53 6 16 -16 23 -29 9z"/>
<path d="M1306 792 c-3 -5 1 -9 9 -9 8 0 15 4 15 9 0 4 -4 8 -9 8 -6 0 -12 -4
-15 -8z"/>
<path d="M1345 770 c-4 -6 3 -10 14 -10 25 0 27 6 6 13 -8 4 -17 2 -20 -3z"/>
<path d="M2731 746 c-7 -8 -8 -17 -3 -19 4 -3 13 3 20 14 14 22 0 26 -17 5z"/>
<path d="M1311 717 c2 -1 13 -9 24 -17 19 -14 19 -14 6 3 -7 9 -18 17 -24 17
-6 0 -8 -1 -6 -3z"/>
<path d="M2714 637 c-8 -21 2 -35 16 -21 5 5 6 15 0 24 -8 12 -10 12 -16 -3z"/>
<path d="M2739 615 c-1 -3 -2 -8 -3 -12 -1 -5 -5 -15 -10 -23 -6 -9 -1 -7 12
4 23 20 28 36 12 36 -5 0 -11 -2 -11 -5z"/>
<path d="M1360 570 c-12 -7 -10 -9 8 -7 12 0 22 5 22 9 0 11 -12 10 -30 -2z"/>
<path d="M2755 570 c-3 -5 -2 -10 4 -10 5 0 13 5 16 10 3 6 2 10 -4 10 -5 0
-13 -4 -16 -10z"/>
<path d="M1310 560 c0 -5 5 -10 11 -10 5 0 7 5 4 10 -3 6 -8 10 -11 10 -2 0
-4 -4 -4 -10z"/>
</g>
</svg>
