<?xml version="1.0" standalone="no"?>
<!DOCTYPE svg PUBLIC "-//W3C//DTD SVG 20010904//EN"
 "http://www.w3.org/TR/2001/REC-SVG-20010904/DTD/svg10.dtd">
<svg version="1.0" xmlns="http://www.w3.org/2000/svg"
 width="468pt" height="554pt" viewBox="0 0 468 554"
 preserveAspectRatio="xMidYMid meet">
<metadata>
Created by potrace 1.8, written by Peter Selinger 2001-2007
</metadata>
<g transform="translate(0,554) scale(0.138462,-0.138462)"
fill="#000000" stroke="none">
<path d="M1934 3708 c-3 -4 -26 -10 -52 -14 -26 -4 -57 -10 -69 -15 -15 -6
-23 -4 -27 8 -5 12 -16 14 -53 10 -54 -6 -93 -41 -93 -83 0 -13 -5 -24 -11
-24 -19 0 -121 -92 -110 -99 6 -4 2 -16 -9 -31 -11 -14 -20 -20 -20 -13 0 6 5
15 10 18 13 8 13 25 0 25 -11 0 -94 -123 -109 -163 -6 -16 -18 -27 -29 -27
-31 0 -54 -35 -62 -97 -5 -32 -14 -80 -20 -108 -6 -27 -9 -70 -6 -95 5 -43 5
-44 -11 -22 -9 13 -26 22 -40 22 -26 0 -83 -29 -83 -42 0 -12 13 -9 34 7 43
33 75 7 126 -102 26 -54 47 -74 29 -27 -11 32 -16 389 -5 421 7 23 39 39 56
28 14 -9 13 -108 -2 -123 -9 -9 -8 -12 5 -12 14 0 17 -10 17 -60 0 -47 -3 -60
-15 -60 -8 0 -15 -4 -15 -9 0 -5 8 -7 19 -4 21 5 31 -28 31 -103 0 -40 -2 -44
-25 -44 -51 0 -23 -15 33 -17 35 -2 52 1 43 6 -11 7 -11 18 -1 62 21 90 80
242 102 266 39 42 63 23 49 -40 -11 -44 -19 -57 -37 -57 -8 0 -14 -4 -14 -10
0 -5 5 -10 10 -10 14 0 12 -36 -4 -68 -7 -15 -19 -52 -26 -82 -7 -30 -20 -60
-28 -66 -11 -8 -12 -13 -4 -18 16 -10 15 -57 -3 -99 -8 -20 -15 -49 -15 -63
l0 -27 -25 23 c-18 17 -76 95 -80 106 0 1 -11 5 -25 9 l-25 7 29 -30 c24 -26
27 -34 16 -47 -14 -17 -40 -20 -40 -5 0 6 -5 10 -10 10 -6 0 -5 -8 2 -20 17
-26 32 -25 51 3 l16 22 20 -25 c26 -32 26 -34 -6 -49 -18 -8 -23 -15 -15 -23
6 -6 8 -18 5 -27 -3 -9 5 -1 18 16 25 34 47 42 53 21 27 -97 27 -114 6 -171
-26 -70 -56 -107 -121 -149 -33 -21 -48 -37 -44 -46 3 -8 -8 -35 -24 -61 -36
-56 -118 -228 -162 -336 -17 -44 -70 -158 -117 -254 -85 -174 -86 -176 -195
-288 -110 -113 -138 -155 -58 -87 23 20 44 35 45 33 9 -9 14 -109 6 -114 -5
-3 -10 0 -12 6 -3 8 -18 3 -43 -13 -73 -46 -219 -103 -235 -93 -5 3 -11 1 -14
-4 -9 -13 -71 4 -93 25 -42 42 -77 174 -77 284 1 62 6 87 32 142 46 101 82
148 257 334 244 259 425 485 441 551 8 30 16 29 42 -7 13 -16 27 -30 33 -30 6
0 -4 19 -23 42 l-33 42 2 134 c1 74 4 137 7 139 3 3 24 -11 47 -31 24 -20 50
-36 58 -35 11 0 9 3 -6 9 -12 5 -25 15 -30 24 -4 8 -12 14 -17 13 -8 -2 -69
88 -80 118 -2 6 -6 7 -10 4 -3 -3 1 -20 10 -37 8 -18 13 -36 10 -40 -3 -5 -8
-73 -10 -150 l-6 -142 -51 -94 c-34 -61 -81 -126 -133 -184 -45 -49 -135 -152
-201 -228 -66 -76 -145 -166 -176 -199 -103 -109 -163 -223 -174 -327 -11
-104 9 -261 39 -312 47 -80 155 -98 264 -44 18 9 37 6 100 -15 42 -14 87 -27
99 -29 23 -3 142 52 143 66 0 5 14 30 30 56 25 39 37 48 68 53 20 3 47 9 59
12 20 6 24 -1 57 -107 20 -62 36 -120 36 -128 0 -8 5 -22 10 -30 6 -10 7 26 3
103 -4 70 -2 117 3 117 5 0 10 9 10 20 0 11 -4 20 -8 20 -4 0 -8 6 -8 14 0 24
-81 31 -135 13 -52 -18 -61 -8 -12 12 29 13 30 14 10 18 -28 5 -147 -48 -131
-58 9 -6 9 -11 -1 -22 -9 -11 -9 -16 0 -19 7 -2 2 -17 -14 -40 -13 -21 -27
-35 -30 -32 -3 3 -19 -2 -36 -10 -37 -20 -121 -21 -147 -2 -10 8 -17 16 -14
18 3 2 23 17 44 33 l39 28 -7 -26 c-8 -34 7 -35 32 -2 25 31 31 32 26 3 -4
-21 -4 -21 5 -3 10 24 5 62 -17 127 l-16 48 58 57 c76 76 102 123 225 400 92
207 107 234 139 256 60 39 80 40 138 7 58 -32 139 -50 232 -50 54 0 69 4 93
25 55 46 148 58 208 26 l34 -18 -64 -6 c-42 -5 -87 -19 -136 -43 -66 -33 -84
-37 -173 -41 -108 -5 -179 11 -269 62 -23 14 -49 25 -57 25 -34 0 -7 -21 89
-66 l102 -49 165 -2 c91 0 172 -3 180 -6 38 -13 217 -36 238 -31 41 11 23 20
-68 33 -96 13 -126 34 -37 25 l52 -5 -25 20 c-14 11 -34 27 -45 35 -19 15 -19
15 8 16 15 0 37 -9 48 -19 12 -11 32 -22 46 -26 13 -3 39 -16 58 -28 l33 -21
-19 -28 c-17 -23 -18 -34 -10 -64 5 -19 22 -47 36 -60 20 -19 25 -31 21 -52
-3 -15 -10 -53 -16 -84 -6 -32 -17 -58 -23 -58 -9 0 -9 -2 0 -8 16 -10 18 -87
4 -192 -10 -84 -9 -109 10 -205 16 -76 30 -116 39 -110 12 8 20 -22 20 -76 0
-60 24 -110 85 -179 25 -28 45 -54 45 -58 0 -4 -9 -22 -21 -41 -26 -43 -27
-83 -3 -117 32 -45 33 -47 39 -96 6 -49 37 -98 61 -98 8 0 22 13 32 29 l16 29
34 -29 c18 -16 41 -29 51 -29 27 0 37 65 20 129 -10 41 -10 58 4 114 22 85 21
100 -3 122 -11 10 -20 13 -20 7 0 -6 5 -14 10 -17 6 -3 10 -15 10 -25 0 -18
-3 -18 -36 5 -20 14 -44 25 -53 25 -9 -1 -2 -7 16 -15 42 -18 59 -73 42 -140
-9 -36 -14 -43 -25 -34 -7 6 -14 20 -16 32 -2 18 -11 23 -45 25 -47 3 -54 15
-23 34 23 15 26 28 7 28 -19 0 -60 -46 -54 -62 5 -16 -10 -48 -24 -48 -14 0
-48 41 -49 58 0 7 7 15 15 18 8 4 15 16 15 29 0 28 24 77 47 96 48 38 62 41
108 20 l45 -20 0 40 c0 22 -5 50 -11 62 -22 43 -92 127 -105 127 -8 0 -13 11
-12 28 1 15 -4 58 -11 96 -6 38 -10 70 -8 72 1 2 31 -23 64 -54 65 -60 103
-128 103 -185 0 -18 4 -38 9 -46 7 -10 9 -8 9 10 0 121 6 176 19 191 11 13 14
30 10 60 -5 36 -14 51 -57 89 -62 56 -134 88 -161 70 -10 -6 -25 -11 -33 -11
-12 0 -13 -6 -6 -27 4 -16 18 -78 31 -139 l22 -111 -33 -91 c-32 -90 -33 -100
-14 -178 6 -27 3 -25 -37 20 -62 69 -68 83 -69 153 0 66 18 133 51 196 12 21
19 40 17 43 -3 2 -11 -7 -18 -21 -20 -37 -28 -30 -25 21 3 43 15 76 15 41 0
-36 16 -15 17 22 0 22 8 50 17 62 31 45 16 55 -20 14 -52 -59 -104 -156 -104
-196 0 -67 -17 -62 -25 8 -11 97 -14 253 -5 223 4 -14 8 -19 9 -11 1 8 28 47
62 88 33 40 54 70 45 67 -10 -4 -16 2 -19 18 -2 14 -3 11 -2 -7 2 -21 -8 -41
-34 -72 -19 -24 -39 -43 -44 -43 -8 0 0 230 12 324 3 27 11 51 18 53 8 3 9 -6
5 -29 -8 -40 0 -287 9 -273 4 6 7 48 8 94 1 50 6 88 12 92 7 4 9 23 6 48 -6
51 8 45 17 -7 3 -21 16 -72 30 -113 13 -41 27 -96 32 -124 4 -30 9 -41 11 -28
5 26 20 40 53 46 14 2 6 3 -17 1 l-41 -3 -10 52 c-6 29 -19 83 -31 122 -22 72
-27 116 -13 99 5 -5 25 -49 47 -97 21 -48 42 -90 46 -93 5 -2 2 11 -6 30 -32
75 -10 85 27 13 11 -23 31 -51 43 -62 13 -11 42 -57 65 -103 23 -46 44 -81 46
-80 7 8 -25 111 -54 171 -35 75 -114 201 -150 240 -24 25 -25 30 -14 59 10 28
9 34 -8 50 -11 10 -20 24 -20 31 0 8 -3 7 -9 -2 -6 -9 -19 -12 -40 -8 -43 9
-76 -6 -91 -42 -7 -17 -16 -28 -21 -25 -15 9 -10 44 6 50 8 4 15 13 15 21 0
10 7 13 23 8 21 -6 21 -6 -3 15 -14 11 -45 30 -70 41 -25 12 -68 44 -95 73
-28 28 -82 69 -120 90 -39 22 -102 63 -141 92 l-70 52 -14 113 -13 112 26 21
c14 12 29 35 33 51 l7 30 -27 -32 c-36 -43 -61 -42 -87 2 -12 19 -25 35 -30
35 -12 0 -12 1 16 -58 26 -55 46 -127 37 -137 -3 -3 -13 -5 -22 -5 -9 0 -24
-8 -32 -17 -15 -18 -48 -110 -48 -136 0 -17 -125 -127 -145 -127 -7 0 -36 -16
-65 -36 -28 -19 -53 -34 -55 -32 -3 3 57 129 86 178 27 48 64 95 89 115 101
80 132 166 114 315 -3 25 1 78 9 118 8 40 13 80 11 89 -2 10 0 25 6 33 9 13
17 8 48 -27 21 -24 41 -43 46 -43 5 0 1 9 -9 20 -18 20 -18 21 3 27 12 3 22
12 22 21 0 12 3 13 11 5 9 -9 8 -16 -5 -28 -17 -18 -22 -30 -7 -21 5 3 11 -4
15 -16 5 -22 6 -22 20 -3 7 10 11 26 8 34 -4 10 -1 13 11 8 11 -4 17 -1 17 8
0 8 -5 15 -10 15 -6 0 -2 12 7 27 10 15 13 24 7 20 -17 -10 -27 23 -13 40 7 7
9 16 6 20 -4 3 -1 13 6 21 6 9 -3 5 -20 -8 -18 -13 -36 -21 -39 -17 -7 7 84
117 97 117 5 0 9 5 9 11 0 6 7 17 15 25 23 23 18 37 -11 31 -22 -4 -24 -3 -12
10 8 7 30 22 49 31 l34 18 75 -37 c204 -100 483 -88 612 26 15 14 30 25 32 25
11 0 30 -72 41 -153 l13 -92 1 77 c1 45 -5 96 -14 121 -13 40 -13 48 1 75 20
42 20 101 0 143 -10 19 -47 66 -83 104 -37 39 -59 59 -50 45 30 -44 40 -74 43
-130 l3 -55 -7 50 c-9 60 -51 136 -93 166 -26 18 -33 19 -41 8 -8 -11 -9 -10
-4 3 4 13 -4 23 -27 35 -41 22 -150 58 -202 68 -64 11 -216 21 -221 13z m201
-30 c132 -29 189 -51 170 -65 -5 -5 -11 -18 -12 -30 -2 -18 2 -23 21 -23 13 0
27 -8 31 -17 6 -17 7 -17 16 0 6 9 17 17 24 17 8 0 15 5 15 11 0 35 76 -71 85
-118 3 -15 2 -22 -1 -15 -8 17 -38 16 -31 -2 3 -7 1 -18 -5 -24 -12 -12 -41
-4 -32 9 3 5 0 9 -5 9 -6 0 -11 -7 -11 -16 0 -8 -4 -13 -9 -10 -5 3 -12 -4
-15 -17 -6 -22 -6 -22 -23 -2 -9 12 -14 14 -11 5 3 -8 0 -21 -8 -28 -10 -9
-15 -8 -23 6 -7 11 -10 12 -11 3 0 -7 -6 -11 -15 -7 -8 3 -15 0 -15 -6 0 -7
-4 -7 -14 1 -11 10 -16 8 -24 -5 -9 -16 -10 -15 -16 4 -4 12 -14 22 -21 22 -9
0 -12 -6 -8 -17 4 -11 3 -14 -5 -9 -7 4 -12 15 -13 24 0 14 -2 13 -9 -3 -9
-20 -9 -20 -10 0 -1 14 -3 15 -7 6 -4 -10 -10 -5 -18 15 l-13 29 1 -29 c1 -17
-4 -31 -12 -34 -10 -3 -12 1 -9 16 4 13 -2 30 -14 44 l-20 23 7 -30 6 -30 -20
35 c-21 36 -30 35 -10 -2 21 -39 1 -29 -22 11 -16 29 -25 37 -31 29 -5 -9 -8
-7 -8 7 0 22 -38 84 -79 128 -14 15 -45 33 -68 39 -47 11 -55 25 -20 33 12 2
47 11 77 19 59 15 159 12 245 -6z m-408 -19 c-20 -11 -39 -24 -43 -30 -4 -8
-3 -9 4 -5 14 8 15 -3 3 -22 -6 -10 -10 -8 -14 10 -11 39 -8 45 31 61 49 20
65 9 19 -14z m18 -19 c3 -5 -1 -10 -10 -10 -9 0 -13 5 -10 10 3 6 8 10 10 10
2 0 7 -4 10 -10z m90 -34 c59 -6 155 -153 155 -237 0 -22 -5 -29 -19 -29 -11
0 -23 -4 -26 -10 -3 -5 -20 -10 -36 -10 -32 0 -76 -19 -124 -55 -16 -12 -41
-28 -55 -35 -24 -13 -25 -12 -7 7 9 11 17 26 17 33 0 7 3 11 6 7 4 -3 12 -1
18 6 13 13 17 119 4 111 -4 -3 -8 -12 -8 -20 0 -8 -7 -14 -15 -14 -9 0 -18 -7
-22 -16 -3 -8 -11 -13 -19 -10 -7 3 -15 0 -18 -7 -2 -7 -5 -4 -5 6 -1 15 -3
16 -15 5 -8 -7 -12 -16 -9 -20 2 -5 0 -8 -6 -8 -5 0 -18 -3 -28 -6 -12 -5 -6
7 17 32 20 21 44 49 54 61 17 21 17 21 -3 16 -12 -3 -21 -8 -21 -12 0 -4 -7
-16 -16 -27 -15 -19 -16 -19 -9 1 4 11 9 26 12 34 5 10 0 12 -18 6 l-24 -8 20
24 c11 13 26 28 33 32 6 4 12 12 12 18 0 5 -15 -5 -34 -22 -31 -28 -34 -36
-32 -80 1 -30 -2 -45 -8 -39 -6 6 -16 1 -28 -12 -15 -17 -18 -18 -18 -5 0 10
4 17 10 17 12 0 45 49 37 57 -3 3 -14 -2 -23 -11 -33 -34 -25 -6 12 41 56 71
62 81 29 53 -17 -14 -34 -31 -38 -37 -4 -7 -13 -13 -20 -13 -8 0 -8 3 -2 8 22
15 87 102 77 102 -6 0 -19 -12 -30 -27 -11 -16 -23 -26 -26 -23 -10 10 45 70
65 70 10 0 19 5 19 10 0 6 7 10 15 10 7 0 18 6 22 14 11 17 29 23 67 19 17 -2
44 -5 61 -7z m535 -28 c0 -10 -23 -15 -42 -10 -14 3 -15 8 -6 22 9 14 15 16
30 7 10 -7 18 -15 18 -19z m-850 -168 c-12 -16 -23 -30 -26 -30 -2 0 2 14 11
30 9 17 20 30 26 30 6 0 1 -13 -11 -30z m500 -2 c0 -5 -4 -8 -10 -8 -5 0 -10
10 -10 23 0 18 2 19 10 7 5 -8 10 -18 10 -22z m-553 -30 c-3 -8 -6 -5 -6 6 -1
11 2 17 5 13 3 -3 4 -12 1 -19z m1130 -40 c-3 -8 -6 -5 -6 6 -1 11 2 17 5 13
3 -3 4 -12 1 -19z m-53 -21 c19 -29 -27 -100 -84 -131 -26 -14 -56 -25 -66
-24 -36 3 -55 -2 -49 -12 4 -6 -6 -11 -22 -11 -123 -6 -142 -6 -137 2 3 6 -5
7 -20 3 -26 -6 -130 16 -190 41 -20 8 -52 31 -72 51 -33 34 -35 38 -20 53 14
14 49 16 249 17 222 1 317 10 339 32 13 13 59 0 72 -21z m-788 -4 c-10 -10
-19 5 -10 18 6 11 8 11 12 0 2 -7 1 -15 -2 -18z m-306 -40 c0 -29 -15 -61 -24
-52 -8 8 6 79 15 79 5 0 9 -12 9 -27z m220 17 c0 -5 -5 -10 -11 -10 -5 0 -7 5
-4 10 3 6 8 10 11 10 2 0 4 -4 4 -10z m-60 -10 c0 -5 -5 -10 -11 -10 -5 0 -7
5 -4 10 3 6 8 10 11 10 2 0 4 -4 4 -10z m-160 -79 c0 -6 -4 -13 -10 -16 -5 -3
-10 1 -10 9 0 9 5 16 10 16 6 0 10 -4 10 -9z m10 -82 c0 -16 -4 -29 -10 -29
-5 0 -10 16 -10 36 0 21 4 33 10 29 6 -3 10 -19 10 -36z m210 -13 c0 -3 -4 -8
-10 -11 -5 -3 -10 -1 -10 4 0 6 5 11 10 11 6 0 10 -2 10 -4z m-45 -36 c-4 -12
-9 -19 -12 -17 -3 3 -2 15 2 27 4 12 9 19 12 17 3 -3 2 -15 -2 -27z m105 10
c0 -5 -13 -16 -30 -25 -35 -18 -41 -4 -8 19 26 18 38 20 38 6z m-40 -145 c-7
-8 -17 -15 -22 -15 -6 0 -5 7 2 15 7 8 17 15 22 15 6 0 5 -7 -2 -15z m10 -26
c-7 -11 -14 -18 -17 -15 -3 3 0 12 7 21 18 21 23 19 10 -6z m-90 -574 c0 -18
-4 -23 -15 -19 -30 12 -15 -33 26 -80 43 -49 121 -106 199 -147 l45 -23 -65
-14 c-36 -8 -80 -26 -98 -39 -29 -22 -37 -24 -58 -14 -30 14 -44 14 -24 1 12
-8 10 -10 -10 -10 -15 0 -31 5 -38 12 -9 9 -12 9 -12 -2 -1 -11 -5 -10 -15 4
-9 12 -14 39 -13 65 1 37 2 40 5 13 4 -28 6 -30 19 -18 11 11 13 28 8 71 -4
30 -11 58 -15 61 -5 3 -9 30 -9 60 0 45 4 59 25 79 31 32 45 32 45 0z m-104
-173 c13 -8 24 -162 12 -162 -5 0 -8 33 -8 74 0 69 -11 104 -23 74 -3 -8 -6
-6 -6 5 -1 18 7 21 25 9z m-33 -93 c-2 -67 -13 -77 -13 -12 0 40 5 63 14 63 1
0 0 -23 -1 -51z m-46 -11 c-3 -8 -6 -5 -6 6 -1 11 2 17 5 13 3 -3 4 -12 1 -19z
m573 -98 c0 -5 -2 -10 -4 -10 -3 0 -8 5 -11 10 -3 6 -1 10 4 10 6 0 11 -4 11
-10z m-150 -40 l25 -20 -25 1 c-14 1 -36 4 -50 8 -24 7 -24 7 -5 19 26 15 26
15 55 -8z m360 -84 c-6 -8 -18 -12 -26 -9 -23 9 -16 23 12 23 22 0 24 -2 14
-14z m70 -1 c6 -8 9 -23 5 -35 -8 -26 -35 -27 -28 -1 3 10 0 22 -6 25 -6 4
-11 11 -11 17 0 14 26 11 40 -6z m-90 -33 c-1 -11 -26 -42 -35 -42 -5 0 -5 3
-2 7 4 3 2 12 -4 19 -6 8 -9 21 -5 29 4 13 10 14 26 5 11 -6 20 -14 20 -18z
m60 9 c0 -10 -22 -31 -32 -31 -9 0 -11 34 -2 43 7 7 34 -2 34 -12z m-120 -39
c0 -13 -12 -22 -22 -16 -10 6 -1 24 13 24 5 0 9 -4 9 -8z m227 -518 c-3 -3
-12 -4 -19 -1 -8 3 -5 6 6 6 11 1 17 -2 13 -5z m69 -54 l7 -51 23 22 c13 12
24 17 24 11 0 -7 -4 -12 -10 -12 -5 0 -17 -15 -26 -32 -15 -29 -18 -31 -24
-13 -11 31 -18 125 -9 125 5 0 11 -23 15 -50z m125 -66 c10 -29 3 -68 -12 -59
-9 6 -13 85 -4 85 3 0 10 -12 16 -26z m-335 -95 l-15 -34 2 35 c0 19 6 38 12
42 16 12 17 -7 1 -43z m158 -196 c3 -39 2 -74 -3 -77 -5 -3 -9 16 -9 42 -1 26
-4 65 -8 87 -4 26 -3 37 4 30 5 -5 12 -42 16 -82z m46 18 c0 -6 -4 -13 -10
-16 -5 -3 -10 1 -10 9 0 9 5 16 10 16 6 0 10 -4 10 -9z m27 -11 c-1 -11 -5
-20 -9 -20 -4 0 -8 9 -8 20 0 11 4 20 9 20 6 0 9 -9 8 -20z m41 -88 c6 -18
-15 -14 -22 4 -4 10 -1 14 6 12 6 -2 14 -10 16 -16z m-68 -264 c0 -45 -6 -72
-20 -95 -11 -18 -22 -33 -25 -33 -10 0 -35 68 -35 92 0 29 46 98 65 98 12 0
15 -14 15 -62z m81 -29 c7 -30 0 -89 -11 -89 -28 0 -64 113 -43 133 11 12 47
-18 54 -44z"/>
<path d="M2206 3605 c-8 -31 -47 -34 -101 -8 -44 21 -56 11 -25 -22 12 -13 24
-34 25 -47 1 -13 3 -26 4 -30 0 -4 16 -15 34 -24 17 -9 46 -30 64 -46 39 -38
59 -32 66 19 3 21 8 50 12 64 4 17 2 31 -7 40 -8 8 -23 29 -33 47 -23 39 -31
40 -39 7z m46 -85 c-10 -12 -18 -16 -21 -9 -2 6 3 15 10 20 24 15 29 10 11
-11z m-47 -10 c3 -5 -3 -10 -15 -10 -12 0 -18 5 -15 10 3 6 10 10 15 10 5 0
12 -4 15 -10z"/>
<path d="M1982 3571 c-10 -18 -10 -21 4 -21 9 0 14 -8 13 -17 -3 -31 1 -36 15
-24 7 6 24 10 36 9 17 -2 23 2 25 19 2 32 -7 43 -46 49 -27 4 -37 1 -47 -15z
m66 -13 c18 -18 14 -28 -12 -28 -19 0 -23 4 -19 20 6 23 14 25 31 8z"/>
<path d="M1835 3590 c3 -5 16 -15 28 -21 22 -12 22 -12 3 10 -19 21 -43 30
-31 11z"/>
<path d="M1890 3530 c0 -8 10 -34 22 -59 15 -31 18 -46 10 -49 -7 -2 -12 -20
-11 -40 0 -30 2 -33 9 -17 7 17 9 17 9 3 1 -10 8 -18 16 -18 25 0 18 56 -16
123 -34 69 -39 76 -39 57z"/>
<path d="M1732 3465 c0 -16 2 -22 5 -12 2 9 2 23 0 30 -3 6 -5 -1 -5 -18z"/>
<path d="M1883 3380 c0 -25 2 -35 4 -22 2 12 2 32 0 45 -2 12 -4 2 -4 -23z"/>
<path d="M1726 3378 c-15 -21 -16 -21 -11 -3 6 19 5 19 -11 3 -10 -10 -15 -20
-11 -24 10 -10 35 3 47 25 14 28 7 27 -14 -1z"/>
<path d="M1791 3384 c0 -11 3 -14 6 -6 3 7 2 16 -1 19 -3 4 -6 -2 -5 -13z"/>
<path d="M1824 3356 c-3 -21 -4 -39 -1 -42 2 -3 8 11 11 32 4 20 5 38 2 41 -2
3 -8 -11 -12 -31z"/>
<path d="M1861 3373 c-1 -6 -4 -20 -7 -30 -5 -17 -5 -17 6 0 6 10 9 23 6 30
-3 9 -5 9 -5 0z"/>
<path d="M1797 3347 c-11 -29 -9 -53 4 -40 6 6 9 21 7 34 -3 21 -4 22 -11 6z"/>
<path d="M2025 3289 c-16 -6 -14 -8 13 -8 33 -1 41 4 20 12 -7 2 -22 1 -33 -4z"/>
<path d="M2165 3274 c-27 -8 -58 -15 -67 -15 -9 0 -19 -6 -22 -14 -4 -10 8 -9
51 6 31 10 64 19 75 19 10 0 18 5 18 10 0 6 -1 10 -2 9 -2 0 -25 -7 -53 -15z"/>
<path d="M2240 3280 c-13 -9 -13 -10 0 -9 8 1 26 5 40 9 l25 8 -25 1 c-14 0
-32 -4 -40 -9z"/>
<path d="M2305 3270 c-3 -6 1 -7 9 -4 18 7 21 14 7 14 -6 0 -13 -4 -16 -10z"/>
<path d="M2225 3245 c-39 -17 -21 -18 25 0 19 7 28 14 20 14 -8 0 -28 -6 -45
-14z"/>
<path d="M2281 3237 c-30 -11 -50 -22 -44 -24 6 -2 35 7 64 21 66 30 54 31
-20 3z"/>
<path d="M1960 3240 c-8 -5 -10 -10 -5 -10 6 0 17 5 25 10 8 5 11 10 5 10 -5
0 -17 -5 -25 -10z"/>
<path d="M2475 3240 c-3 -6 1 -7 9 -4 18 7 21 14 7 14 -6 0 -13 -4 -16 -10z"/>
<path d="M2026 3225 c4 -8 10 -12 15 -9 11 6 2 24 -11 24 -5 0 -7 -7 -4 -15z"/>
<path d="M2155 3220 c-13 -6 -15 -9 -5 -9 8 0 22 4 30 9 18 12 2 12 -25 0z"/>
<path d="M2285 3209 c-22 -10 -29 -16 -15 -13 38 10 70 23 70 29 0 8 -13 5
-55 -16z"/>
<path d="M2373 3213 c-18 -9 -33 -20 -33 -25 0 -5 -10 -7 -22 -5 -13 2 -17 2
-9 0 8 -3 -1 -13 -25 -24 -42 -21 -28 -18 51 12 28 10 43 19 35 19 -13 0 -13
1 0 10 20 13 33 13 25 0 -4 -6 1 -7 11 -3 11 4 13 8 6 11 -7 2 -10 8 -6 13 7
11 6 11 -33 -8z"/>
<path d="M2440 3220 c-11 -7 -11 -10 -2 -10 7 0 10 -4 7 -10 -10 -16 11 -12
25 5 11 13 10 14 -5 9 -13 -5 -16 -4 -11 4 9 14 6 15 -14 2z"/>
<path d="M2400 3180 c-8 -5 -10 -10 -5 -10 6 0 17 5 25 10 8 5 11 10 5 10 -5
0 -17 -5 -25 -10z"/>
<path d="M2148 3163 c7 -3 16 -2 19 1 4 3 -2 6 -13 5 -11 0 -14 -3 -6 -6z"/>
<path d="M2220 3160 c-18 -12 -2 -12 25 0 13 6 15 9 5 9 -8 0 -22 -4 -30 -9z"/>
<path d="M1581 2108 c-1 -14 -4 -33 -7 -41 -3 -8 3 -22 12 -32 25 -24 28 -6
10 52 -11 36 -15 41 -15 21z"/>
<path d="M1636 2084 c-4 -11 0 -25 13 -37 19 -19 19 -19 30 2 10 17 9 21 -3
21 -8 0 -19 7 -24 16 -8 15 -10 14 -16 -2z m25 -26 c11 -21 11 -22 -4 -9 -10
7 -17 17 -17 22 0 15 9 10 21 -13z"/>
<path d="M1715 2060 c3 -5 8 -10 11 -10 2 0 4 5 4 10 0 6 -5 10 -11 10 -5 0
-7 -4 -4 -10z"/>
<path d="M2523 3004 c3 -4 -13 -20 -36 -37 -23 -17 -36 -32 -30 -34 7 -3 28 7
46 21 19 14 41 26 50 26 10 0 17 7 17 15 0 10 -10 15 -27 15 -14 0 -23 -3 -20
-6z"/>
<path d="M1505 2970 c-4 -6 3 -10 14 -10 25 0 27 6 6 13 -8 4 -17 2 -20 -3z"/>
<path d="M2606 2942 c-5 -18 -5 -36 -2 -39 7 -7 19 43 13 59 -2 7 -7 -2 -11
-20z"/>
<path d="M2032 2923 c-37 -19 -78 -46 -92 -60 -20 -20 -8 -16 63 21 66 35 99
46 132 46 25 0 45 -4 45 -10 0 -5 8 -10 17 -10 15 0 15 2 -2 13 -11 7 -37 18
-58 24 -35 11 -43 9 -105 -24z"/>
<path d="M2530 2929 c0 -5 5 -7 10 -4 6 3 10 8 10 11 0 2 -4 4 -10 4 -5 0 -10
-5 -10 -11z"/>
<path d="M1140 2909 c0 -18 -3 -20 -12 -11 -7 7 -19 12 -28 12 -20 0 -56 -37
-47 -47 4 -4 13 1 20 11 22 30 48 14 92 -59 43 -70 43 -70 22 -83 -21 -11 -21
-12 6 -6 23 5 27 3 27 -14 0 -12 4 -23 9 -26 5 -3 6 15 3 39 -2 25 -2 45 1 45
4 0 16 -18 27 -39 11 -22 26 -44 34 -48 20 -11 66 -80 66 -98 0 -8 -9 -15 -19
-15 -11 0 -33 -11 -49 -25 -38 -32 -42 -31 -42 3 0 15 -4 33 -9 41 -5 8 -7 -5
-4 -34 3 -26 0 -78 -7 -116 -11 -58 -11 -72 0 -82 10 -10 12 -9 7 6 -4 11 -1
20 8 23 8 4 15 13 15 21 0 8 -4 11 -10 8 -15 -9 -12 12 5 45 18 35 75 80 101
80 11 0 25 -5 32 -12 7 -7 12 -9 12 -4 0 4 -7 14 -15 22 -16 17 -21 49 -6 40
20 -13 4 22 -27 60 -26 31 -32 45 -28 69 3 17 1 37 -4 45 -7 11 -10 5 -10 -22
0 -21 -3 -38 -7 -38 -5 1 -32 38 -61 83 -30 45 -65 97 -78 116 -22 31 -24 32
-24 10z"/>
<path d="M2486 2899 c-30 -18 -47 -43 -60 -86 -5 -14 -3 -23 3 -23 6 0 11 9
11 20 0 22 15 27 26 9 3 -6 0 -15 -7 -20 -10 -6 -2 -9 22 -9 38 0 68 28 70 67
1 10 5 5 9 -12 7 -29 8 -28 9 11 0 22 5 44 11 50 18 18 -63 12 -94 -7z m42
-56 c-2 -22 -8 -28 -28 -28 -19 0 -26 6 -27 25 -2 14 0 19 4 10 14 -34 49 -34
38 1 -4 11 -2 19 5 19 6 0 10 -12 8 -27z"/>
<path d="M2036 2840 c-25 -27 -46 -55 -46 -62 0 -8 5 -6 11 5 13 22 35 22 42
-2 10 -38 97 -28 97 12 0 6 -9 2 -20 -8 -20 -18 -50 -15 -50 5 0 6 5 8 10 5 6
-4 18 -4 28 0 14 5 14 7 2 15 -21 13 0 31 28 24 12 -4 22 -14 22 -24 0 -10 6
-23 14 -29 11 -10 15 -4 18 29 2 22 0 40 -5 40 -4 0 -6 4 -3 9 3 4 -14 7 -39
6 -25 -1 -42 2 -38 8 3 5 -5 3 -18 -4 -22 -11 -23 -11 -10 4 29 36 1 14 -43
-33z"/>
<path d="M2160 2879 c0 -5 5 -7 10 -4 6 3 10 8 10 11 0 2 -4 4 -10 4 -5 0 -10
-5 -10 -11z"/>
<path d="M2411 2862 c-19 -35 -12 -87 19 -148 31 -61 40 -119 18 -112 -7 3
-21 -4 -32 -14 -24 -22 -35 -23 -42 -3 -7 17 -59 21 -69 5 -3 -5 5 -12 19 -16
14 -3 28 -15 31 -25 7 -21 25 -26 25 -6 0 6 15 18 33 25 78 32 81 44 33 138
-38 73 -42 96 -26 140 13 32 6 44 -9 16z"/>
<path d="M2600 2823 c0 -28 5 -64 11 -80 23 -61 4 -183 -43 -278 -11 -22 -45
-68 -75 -102 -30 -35 -52 -67 -48 -72 8 -15 -50 -76 -92 -96 -45 -22 -152 -15
-192 12 -14 10 -30 16 -35 15 -4 -2 -13 1 -20 7 -6 5 -40 17 -76 27 -131 36
-249 109 -292 179 -10 16 -18 23 -18 15 1 -26 68 -109 112 -136 49 -31 163
-79 222 -94 22 -6 67 -21 98 -33 49 -18 57 -25 52 -42 -10 -31 -24 -42 -26
-19 -1 10 -4 -24 -7 -76 -3 -52 -3 -96 1 -98 4 -2 4 -19 1 -38 -5 -31 -4 -34
19 -34 48 0 103 65 122 143 5 20 11 27 21 23 8 -3 15 -1 15 4 0 21 -68 10 -98
-15 -17 -14 -33 -25 -37 -25 -10 0 4 72 17 88 15 17 78 15 100 -5 26 -24 22
-10 -7 21 -31 33 -27 42 23 50 52 8 87 38 119 99 14 29 29 54 34 57 24 16 83
114 110 183 33 86 41 186 18 228 -6 13 -11 44 -11 69 1 25 -3 52 -8 60 -7 11
-10 0 -10 -37z m-340 -673 c0 -5 -2 -10 -4 -10 -3 0 -8 5 -11 10 -3 6 -1 10 4
10 6 0 11 -4 11 -10z"/>
<path d="M1268 2813 c-21 -5 -22 -10 -5 -27 10 -11 15 -9 24 10 6 13 8 23 5
23 -4 -1 -15 -3 -24 -6z"/>
<path d="M1560 2813 c0 -15 15 -30 40 -43 24 -12 24 -11 -4 19 -31 32 -36 36
-36 24z"/>
<path d="M2211 2804 c0 -11 3 -14 6 -6 3 7 2 16 -1 19 -3 4 -6 -2 -5 -13z"/>
<path d="M2139 2763 c-13 -15 -12 -15 9 -4 23 12 28 21 13 21 -5 0 -15 -7 -22
-17z"/>
<path d="M2448 2753 c7 -3 16 -2 19 1 4 3 -2 6 -13 5 -11 0 -14 -3 -6 -6z"/>
<path d="M1595 2696 c-9 -21 -14 -45 -11 -52 8 -22 -11 -16 -28 8 -12 16 -16
18 -16 7 0 -33 58 -65 84 -46 14 11 14 15 -1 45 -14 29 -14 35 -2 42 11 7 11
12 2 21 -10 10 -16 4 -28 -25z"/>
<path d="M2146 2716 c-23 -11 -25 -14 -12 -19 14 -6 66 17 66 29 0 7 -25 2
-54 -10z"/>
<path d="M1691 2684 c-13 -15 -17 -24 -10 -22 12 4 46 48 37 48 -2 0 -15 -12
-27 -26z"/>
<path d="M2020 2700 c-11 -8 -7 -9 15 -4 37 8 45 14 19 14 -10 0 -26 -5 -34
-10z"/>
<path d="M2261 2603 c-1 -12 4 -25 9 -28 12 -7 12 2 0 30 -8 19 -9 19 -9 -2z"/>
<path d="M1265 2580 c3 -5 8 -10 11 -10 2 0 4 5 4 10 0 6 -5 10 -11 10 -5 0
-7 -4 -4 -10z"/>
<path d="M2540 2512 c-26 -30 -52 -74 -47 -78 5 -5 36 36 56 74 14 26 11 28
-9 4z"/>
<path d="M2537 2460 c-16 -28 -26 -50 -23 -50 10 0 58 79 54 89 -1 6 -16 -12
-31 -39z"/>
<path d="M2402 2483 c-19 -13 -28 -14 -43 -5 -15 9 -25 8 -51 -7 -18 -11 -48
-22 -66 -26 -32 -7 -33 -6 -27 22 5 23 4 25 -5 11 -6 -10 -8 -28 -4 -42 5 -22
9 -24 32 -15 14 5 55 7 90 5 36 -3 70 -2 76 3 6 5 22 11 35 13 14 1 26 9 29
16 2 7 -2 10 -12 6 -12 -4 -16 0 -16 15 0 25 -7 26 -38 4z"/>
<path d="M2495 2489 c-4 -6 -5 -12 -2 -15 2 -3 7 2 10 11 7 17 1 20 -8 4z"/>
<path d="M2127 2419 c-10 -18 -15 -34 -12 -38 8 -7 44 39 45 57 0 21 -14 13
-33 -19z"/>
<path d="M2063 2416 c-15 -13 -24 -28 -20 -32 9 -9 42 8 42 22 0 5 4 15 8 22
13 19 1 14 -30 -12z"/>
<path d="M2406 2385 c-12 -9 -43 -15 -75 -15 -51 -1 -54 -2 -33 -13 12 -7 20
-16 17 -19 -4 -3 14 -7 39 -9 33 -3 42 -1 34 8 -7 8 -1 16 21 28 17 8 31 20
31 25 0 14 -12 12 -34 -5z"/>
<path d="M1170 2356 c0 -2 7 -7 16 -10 8 -3 12 -2 9 4 -6 10 -25 14 -25 6z"/>
<path d="M2360 2096 c0 -5 162 -83 190 -90 14 -4 -20 15 -75 43 -94 47 -115
56 -115 47z"/>
<path d="M2583 1966 c3 -7 11 -39 19 -71 9 -42 19 -60 35 -68 12 -5 24 -17 27
-26 3 -9 3 8 0 38 -4 38 -14 67 -35 97 -28 41 -57 60 -46 30z"/>
<path d="M1275 1893 c41 -21 63 -41 96 -87 31 -42 37 -41 15 2 -25 47 -95 103
-128 102 -7 -1 1 -8 17 -17z"/>
<path d="M1245 1849 c24 -22 54 -61 66 -85 12 -25 23 -43 26 -41 10 10 -48
106 -82 135 -53 47 -62 39 -10 -9z"/>
<path d="M2598 1795 c-4 -4 27 -125 65 -248 1 -5 2 37 2 92 0 56 -3 101 -7
101 -5 0 -8 -17 -8 -37 -1 -47 -14 -29 -33 46 -7 28 -16 49 -19 46z"/>
<path d="M2661 1764 c0 -11 3 -14 6 -6 3 7 2 16 -1 19 -3 4 -6 -2 -5 -13z"/>
<path d="M2581 1744 c0 -11 3 -14 6 -6 3 7 2 16 -1 19 -3 4 -6 -2 -5 -13z"/>
<path d="M1365 1740 c-19 -8 -19 -9 2 -9 12 -1 25 4 28 9 7 12 -2 12 -30 0z"/>
<path d="M2590 1704 c0 -5 15 -60 34 -122 19 -63 31 -122 29 -132 -6 -22 -45
-38 -51 -21 -4 12 -62 46 -62 36 0 -2 7 -22 15 -43 14 -34 14 -41 0 -68 -20
-39 -20 -38 25 -59 22 -10 40 -24 40 -32 0 -8 14 -28 30 -45 17 -16 30 -38 30
-48 0 -10 3 -21 8 -24 4 -2 7 59 7 137 l-1 142 -47 140 c-45 132 -57 161 -57
139z m45 -354 c3 -5 -1 -10 -9 -10 -8 0 -18 5 -21 10 -3 6 1 10 9 10 8 0 18
-4 21 -10z"/>
<path d="M2540 1275 c0 -14 31 -77 35 -73 6 5 -22 78 -30 78 -3 0 -5 -2 -5 -5z"/>
<path d="M2290 1215 c0 -19 4 -35 8 -35 4 0 6 16 4 35 -2 19 -6 35 -8 35 -2 0
-4 -16 -4 -35z"/>
<path d="M410 1191 c0 -5 16 -26 35 -46 29 -31 39 -36 62 -30 27 6 107 64 100
71 -2 2 -21 -3 -42 -12 -42 -17 -106 -12 -129 12 -17 16 -26 18 -26 5z"/>
<path d="M2526 814 c-4 -20 -5 -38 -3 -40 3 -3 8 11 11 32 4 20 5 38 3 40 -3
3 -8 -11 -11 -32z"/>
<path d="M2370 700 c-12 -9 -12 -10 5 -8 11 1 26 -1 34 -6 9 -6 12 -5 9 5 -6
18 -29 22 -48 9z"/>
<path d="M2301 574 c0 -11 3 -14 6 -6 3 7 2 16 -1 19 -3 4 -6 -2 -5 -13z"/>
</g>
</svg>
