<?xml version="1.0" standalone="no"?>
<!DOCTYPE svg PUBLIC "-//W3C//DTD SVG 20010904//EN"
 "http://www.w3.org/TR/2001/REC-SVG-20010904/DTD/svg10.dtd">
<svg version="1.0" xmlns="http://www.w3.org/2000/svg"
 width="468pt" height="542pt" viewBox="0 0 468 542"
 preserveAspectRatio="xMidYMid meet">
<metadata>
Created by potrace 1.8, written by Peter Selinger 2001-2007
</metadata>
<g transform="translate(0,542) scale(0.156000,-0.156000)"
fill="#000000" stroke="none">
<path d="M1445 3296 c-156 -34 -282 -96 -375 -186 -50 -48 -120 -144 -120
-164 0 -3 -11 -23 -23 -44 -13 -20 -31 -57 -41 -82 -16 -41 -22 -47 -84 -74
-37 -15 -82 -39 -100 -53 -38 -29 -32 -44 25 -68 18 -8 33 -20 33 -27 -1 -7
-32 -38 -69 -68 -99 -79 -101 -84 -61 -172 32 -71 66 -133 118 -210 35 -54 27
-121 -29 -244 -15 -34 -21 -69 -22 -128 -2 -73 1 -87 31 -149 24 -48 53 -87
100 -130 36 -34 97 -94 136 -134 74 -75 157 -127 254 -158 39 -13 52 -21 48
-32 -3 -8 -6 -19 -6 -24 0 -5 -7 -9 -15 -9 -8 0 -15 -5 -15 -10 0 -6 -3 -9 -7
-8 -5 1 -25 -1 -46 -6 -30 -6 -56 -25 -124 -94 -47 -48 -92 -102 -102 -121
-19 -41 -22 -42 -136 -76 -197 -58 -262 -107 -337 -254 -42 -80 -46 -94 -34
-107 21 -20 23 -19 46 34 23 52 57 105 107 168 23 30 50 48 95 67 93 37 176
60 235 65 59 5 57 8 89 -101 18 -60 50 -95 78 -84 10 4 15 -10 21 -56 3 -34
11 -65 17 -68 7 -4 5 -15 -5 -30 -8 -13 -23 -48 -32 -78 -15 -45 -15 -55 -4
-62 8 -5 19 -7 24 -6 14 5 56 128 51 150 -3 13 0 17 11 13 8 -3 19 -6 24 -6
13 0 11 -77 -2 -102 -9 -16 -8 -23 2 -29 32 -20 61 19 40 53 -13 22 -13 22 4
8 17 -14 18 -13 13 12 -6 30 10 51 29 40 27 -17 37 -88 19 -140 -5 -16 -3 -24
9 -28 25 -10 37 9 44 73 5 44 10 57 21 54 38 -11 97 -10 119 1 37 19 39 40 5
36 -27 -3 -29 -1 -25 27 6 58 88 105 158 91 15 -3 93 -8 173 -11 80 -4 152 -8
161 -11 8 -2 30 9 48 25 33 30 34 30 135 25 100 -5 101 -4 132 23 17 15 34 37
38 49 6 20 3 20 -50 16 -52 -4 -126 10 -149 30 -5 4 -19 8 -32 8 -13 0 -23 4
-23 9 0 12 -211 101 -241 101 -13 1 -35 7 -49 15 -23 13 -23 14 -5 16 11 1 26
1 33 0 7 -1 25 7 40 17 15 11 68 30 117 42 61 15 127 41 203 82 152 80 153 80
213 17 27 -28 49 -58 49 -65 0 -7 -17 -22 -37 -33 -52 -26 -83 -58 -77 -76 8
-21 20 -19 57 9 55 42 66 38 114 -34 46 -70 50 -82 31 -97 -11 -8 -111 -47
-170 -67 -20 -6 -23 -23 -9 -45 7 -11 19 -9 63 13 30 15 71 29 90 33 39 6 45
0 93 -88 11 -20 38 -63 59 -95 59 -88 116 -208 116 -242 0 -31 34 -56 58 -43
25 13 20 38 -28 126 -18 33 -60 112 -93 175 -33 63 -68 127 -78 142 -11 14
-19 36 -19 47 0 28 -21 77 -53 124 -26 38 -50 98 -61 149 -4 15 -27 51 -52 79
-42 47 -45 55 -39 88 11 56 19 65 102 113 85 49 167 133 208 212 6 11 18 32
25 46 8 14 15 30 16 35 5 19 56 170 78 229 14 39 28 61 43 67 41 15 48 71 47
360 -2 305 -11 376 -60 497 -71 174 -89 205 -165 287 -67 72 -75 79 -161 137
-67 45 -84 62 -109 110 -35 69 -69 90 -137 86 -38 -2 -49 -8 -59 -28 -14 -28
-14 -28 -68 -13 -147 43 -180 47 -415 49 -163 2 -253 -1 -295 -10z m491 -52
c71 -14 140 -26 154 -25 14 0 45 -5 68 -12 51 -14 72 -50 72 -126 0 -57 -36
-200 -56 -222 -8 -8 -14 -19 -14 -24 0 -15 -49 -112 -63 -123 -10 -9 -33 -4
-98 18 -46 16 -94 29 -106 30 -12 0 -43 7 -69 16 -26 9 -61 18 -78 20 -17 2
-63 11 -103 20 -74 16 -206 21 -370 14 -51 -2 -95 -1 -99 2 -8 8 24 65 52 93
11 11 40 59 63 108 52 105 104 155 199 191 136 52 261 57 448 20z m-611 -65
c-36 -34 -65 -68 -65 -75 0 -8 -4 -14 -9 -14 -4 0 -25 -35 -45 -77 -74 -158
-92 -187 -122 -196 -39 -11 -154 -20 -154 -12 0 4 19 43 43 87 54 102 163 228
225 259 26 13 52 30 60 36 7 7 32 18 55 24 23 7 46 16 52 21 5 4 13 8 17 8 5
0 -21 -28 -57 -61z m1102 -85 c36 -31 70 -73 89 -110 17 -32 45 -81 62 -109
35 -54 88 -210 99 -289 12 -85 9 -274 -3 -286 -9 -9 -36 12 -108 84 -118 116
-216 191 -316 240 -41 21 -79 41 -83 46 -5 4 3 30 17 57 32 64 96 286 96 335
0 30 3 36 16 31 13 -5 14 0 9 29 l-7 35 36 -6 c23 -4 56 -24 93 -57z m219
-156 c83 -86 96 -106 124 -189 12 -34 32 -83 45 -109 13 -26 27 -69 30 -96 4
-27 8 -56 10 -64 4 -14 11 -160 20 -432 4 -135 -8 -132 -69 17 -21 50 -46 109
-57 132 -17 35 -19 52 -12 120 24 247 -17 452 -121 598 -31 45 -57 95 -48 95
4 0 39 -33 78 -72z m-1061 -158 c44 -6 100 -13 125 -16 60 -8 237 -52 275 -69
17 -7 49 -19 73 -26 29 -8 42 -18 42 -30 0 -24 20 -35 31 -18 6 11 21 7 74
-21 36 -19 65 -37 65 -41 0 -4 9 -9 20 -12 33 -9 23 -25 -22 -37 -91 -24 -115
-29 -163 -36 -27 -4 -61 -9 -75 -11 -28 -5 -160 -10 -335 -12 -107 -2 -228 6
-365 25 -25 3 -76 15 -115 26 -38 11 -86 24 -105 28 -19 4 -81 29 -138 54 -56
25 -111 46 -121 46 -24 0 -91 28 -91 38 0 4 4 12 8 18 24 37 297 87 315 57 11
-18 36 -17 43 2 3 8 25 20 48 26 38 10 298 28 321 22 6 -2 46 -7 90 -13z
m-657 -226 c142 -59 185 -75 222 -85 46 -13 218 -39 300 -46 36 -3 83 -8 105
-12 l40 -7 -3 -49 c-5 -97 43 -253 95 -307 33 -34 10 -38 -28 -5 -58 51 -78
113 -80 256 -2 79 -4 91 -19 91 -25 0 -31 -23 -24 -98 11 -122 50 -231 97
-270 8 -7 29 -17 47 -22 28 -8 33 -7 37 11 5 18 11 20 37 14 50 -12 69 -11 73
2 3 7 -6 17 -20 22 -30 12 -52 64 -62 147 -3 22 -8 57 -12 79 -4 22 -7 60 -7
84 l-1 43 98 4 c72 3 97 1 98 -9 7 -68 -7 -124 -41 -167 -16 -20 -22 -46 -26
-121 -8 -118 5 -169 42 -169 14 0 23 4 20 9 -3 5 -8 55 -11 111 -5 87 -3 106
12 129 l17 26 8 -35 c4 -19 12 -66 18 -105 12 -78 23 -117 55 -190 40 -90 58
-161 53 -208 -7 -58 5 -77 45 -77 28 0 39 9 82 63 41 53 123 121 128 108 1 -2
13 1 26 8 31 17 102 6 133 -21 12 -11 33 -28 45 -37 51 -41 91 -150 86 -236
-3 -63 -58 -147 -123 -186 -25 -15 -60 -37 -78 -48 -30 -19 -103 -28 -184 -22
-23 1 -95 67 -114 103 -18 35 -44 37 -44 3 0 -18 -7 -26 -25 -31 -31 -8 -85
-68 -85 -94 0 -29 30 -25 70 10 42 35 59 37 93 10 24 -19 25 -22 11 -48 -7
-15 -14 -36 -14 -46 0 -11 -11 -34 -26 -53 -35 -47 -16 -74 26 -35 21 19 50
92 50 123 0 23 10 24 55 4 20 -8 55 -15 80 -16 31 -2 45 -7 45 -17 0 -9 -7
-11 -19 -7 -11 3 -22 1 -26 -5 -4 -6 -41 -27 -83 -47 -42 -20 -97 -49 -122
-64 -25 -15 -85 -37 -135 -50 -49 -12 -106 -30 -124 -40 -34 -18 -35 -18 -53
1 -14 15 -24 18 -36 11 -9 -5 -30 -11 -47 -14 -38 -6 -115 -36 -135 -52 -26
-21 -74 -42 -113 -49 -46 -9 -126 -81 -108 -99 7 -7 16 -5 31 8 11 10 23 16
26 12 10 -9 78 19 150 63 37 23 82 44 99 47 16 3 38 13 47 21 10 8 18 12 18 7
0 -4 -7 -13 -17 -20 -28 -21 -7 -43 64 -65 37 -11 120 -45 184 -75 65 -30 128
-55 140 -55 13 0 31 -5 39 -11 11 -8 0 -9 -40 -6 -46 4 -59 2 -78 -16 -27 -25
-141 -36 -192 -19 -16 6 -30 7 -30 3 0 -4 -15 -8 -32 -8 -18 -1 -80 -3 -138
-5 -98 -4 -109 -2 -160 23 -117 57 -132 61 -224 64 -66 2 -100 -1 -124 -13
-40 -18 -44 -14 -66 59 -8 25 -23 64 -35 87 -12 23 -21 46 -21 52 0 6 40 51
90 101 81 83 93 92 135 96 54 7 58 0 59 -101 1 -59 -2 -70 -14 -67 -8 3 -50 6
-93 9 -61 3 -83 1 -103 -13 -14 -9 -22 -21 -18 -25 5 -5 54 -11 109 -13 119
-7 125 -9 147 -47 25 -43 42 -39 33 7 -15 76 -20 140 -20 238 0 83 3 100 15
99 8 -1 60 -13 115 -28 104 -26 277 -38 295 -20 22 22 -10 34 -121 43 -63 5
-135 17 -159 26 -46 17 -146 46 -235 69 -86 22 -173 75 -229 139 -28 33 -70
73 -94 89 -50 34 -128 148 -148 215 -8 25 -14 74 -14 108 0 56 4 69 40 123 22
33 40 66 40 75 0 10 16 17 54 21 59 8 78 2 122 -39 33 -31 40 -31 48 -2 5 17
-3 30 -39 63 -52 49 -104 63 -140 40 -33 -22 -35 -21 -35 15 0 33 3 33 71 13
9 -2 36 14 65 41 52 47 59 51 69 35 3 -5 23 -10 43 -10 20 0 51 -4 68 -9 42
-12 56 -1 56 43 0 20 4 36 9 36 10 0 14 -8 24 -54 3 -15 26 -49 51 -75 l44
-46 28 30 c28 30 35 33 62 23 40 -16 106 -26 114 -18 12 12 -2 30 -25 30 -22
0 -99 36 -100 48 0 4 -3 16 -6 27 -3 11 -6 38 -7 61 -2 57 -34 123 -62 130
-31 8 -44 -2 -44 -33 0 -21 4 -24 21 -20 27 7 39 -26 42 -114 2 -55 -2 -72
-16 -86 -18 -17 -19 -17 -43 10 -13 15 -26 40 -30 55 -7 34 -64 174 -76 187
-20 22 -38 -28 -38 -107 l0 -79 -42 3 c-40 3 -41 4 -55 53 -68 254 -74 268
-95 247 -9 -9 -9 -23 1 -60 7 -26 15 -57 17 -68 2 -12 11 -38 19 -57 19 -47
19 -76 -2 -99 -25 -28 -40 -22 -59 27 -9 25 -21 45 -25 45 -5 0 -20 23 -34 50
-14 28 -30 50 -35 50 -6 0 -10 7 -10 15 0 20 -33 19 -75 -1 -42 -19 -53 -59
-31 -103 9 -17 12 -32 7 -36 -13 -7 -55 50 -77 105 l-18 44 49 41 c26 22 67
57 89 77 23 21 47 38 54 38 7 0 52 -16 100 -36z m1554 -152 c75 -67 175 -167
212 -212 18 -23 86 -153 86 -166 0 -4 16 -38 35 -75 39 -78 40 -79 23 -79 -24
-1 -75 -55 -82 -85 -15 -71 -60 -215 -67 -215 -4 0 -14 18 -23 40 -9 22 -21
40 -27 40 -5 0 -8 4 -5 9 6 9 -50 86 -83 113 -36 30 -77 47 -135 56 -99 16
-172 -23 -252 -133 -29 -40 -44 -25 -48 51 -2 32 -7 68 -12 79 -7 19 -7 19 9
3 10 -9 24 -15 32 -12 19 8 19 14 -1 28 -9 7 -20 30 -24 52 -5 21 -21 84 -36
139 -22 84 -27 122 -28 233 -1 122 1 135 18 148 25 18 45 2 27 -20 -8 -9 -10
-30 -6 -58 3 -24 7 -63 9 -88 5 -51 24 -157 33 -180 3 -8 7 -22 8 -30 7 -52
20 -81 50 -110 38 -37 55 -34 37 5 -11 24 -10 25 7 15 56 -30 59 6 7 99 -38
69 -51 107 -66 191 -7 36 -16 76 -20 90 -5 14 -10 43 -12 65 -3 39 -2 40 37
48 22 4 76 12 120 16 44 4 85 9 90 9 6 1 45 -29 87 -66z m-808 -39 c3 -21 6
-55 6 -76 0 -21 7 -51 15 -67 17 -32 47 -152 40 -158 -10 -10 -39 25 -60 73
-25 54 -39 115 -27 115 4 0 5 34 2 75 -3 52 -2 75 6 75 6 0 14 -17 18 -37z
m-862 -9 c17 -58 21 -127 7 -122 -18 6 -49 69 -49 100 0 61 27 76 42 22z m91
-141 c9 -23 11 -39 5 -42 -15 -5 -27 11 -34 47 -9 44 10 41 29 -5z m1153 -243
c3 -19 13 -48 21 -64 8 -15 10 -25 4 -21 -30 18 -60 119 -51 170 2 13 19 -40
26 -85z m-826 -1331 c0 -5 -9 -13 -21 -19 -25 -14 -61 -21 -56 -12 2 4 7 15
10 24 6 17 67 23 67 7z m194 -41 c32 -14 43 -45 23 -65 -13 -14 -19 -11 -51
22 -20 20 -36 41 -36 46 0 13 34 11 64 -3z m-51 -64 c35 -43 47 -74 28 -74 -5
0 -14 12 -20 28 -15 41 -49 75 -67 68 -14 -5 -14 -8 0 -28 23 -32 20 -37 -18
-28 -60 13 -63 20 -21 56 21 17 43 30 49 27 6 -2 28 -25 49 -49z m-151 14 c4
-27 3 -29 -26 -25 -23 2 -32 9 -34 26 -2 14 0 21 6 17 6 -4 13 -3 16 2 12 19
34 7 38 -20z"/>
<path d="M1560 3213 c-52 -36 -63 -76 -36 -128 10 -19 12 -35 5 -52 -13 -35
-11 -137 3 -151 18 -18 81 -15 137 7 51 19 151 111 151 138 0 24 -39 14 -62
-17 -12 -16 -30 -30 -40 -30 -10 0 -18 -4 -18 -9 0 -18 -55 -48 -97 -56 l-43
-7 0 49 c0 49 12 83 24 65 9 -14 56 -2 56 15 0 11 -8 14 -30 11 -28 -4 -30 -2
-30 27 0 17 -5 36 -11 42 -14 14 -3 63 14 63 6 0 25 -20 41 -43 25 -38 36 -45
81 -55 56 -11 90 -7 115 13 24 19 49 25 56 13 4 -6 -5 -21 -21 -34 -27 -22
-27 -22 -7 -33 39 -21 77 17 88 89 l7 40 -44 -5 c-24 -3 -63 -15 -87 -27 -34
-16 -54 -19 -90 -14 -53 7 -77 26 -92 72 -13 38 -32 43 -70 17z"/>
<path d="M1655 3039 c-9 -27 -3 -32 29 -20 33 13 35 41 2 41 -16 0 -27 -7 -31
-21z"/>
<path d="M1217 2023 c-13 -13 -7 -44 11 -50 9 -4 20 -11 24 -17 4 -6 12 -5 22
3 14 12 13 16 -12 42 -28 30 -34 33 -45 22z"/>
<path d="M870 1978 c-26 -28 -25 -52 2 -78 25 -23 74 -26 101 -6 40 31 1 106
-56 106 -14 0 -35 -10 -47 -22z"/>
<path d="M1486 1966 c-40 -38 -47 -71 -15 -81 14 -5 27 1 45 20 15 16 31 25
40 21 9 -3 18 -6 20 -6 14 0 0 -40 -16 -45 -25 -8 -37 -52 -21 -77 10 -16 9
-23 -3 -37 -18 -20 -21 -40 -6 -42 41 -5 70 7 70 31 0 10 12 38 26 64 16 29
23 53 19 66 -5 15 3 11 28 -15 40 -42 54 -44 63 -10 9 35 -13 81 -50 108 -17
12 -31 20 -31 19 0 -2 -13 1 -28 7 -56 21 -103 14 -141 -23z"/>
<path d="M1154 1984 c-7 -3 -10 -13 -7 -23 4 -15 -3 -20 -35 -26 -21 -3 -55
-20 -75 -36 -45 -37 -49 -74 -13 -116 22 -25 31 -28 88 -29 121 -3 118 -3 118
-24 0 -27 55 -28 69 -2 21 40 -25 66 -127 72 -68 4 -87 9 -96 23 -17 28 35 69
83 66 55 -4 62 4 47 54 -11 40 -27 52 -52 41z"/>
<path d="M1330 1920 c-11 -7 -12 -12 -3 -21 14 -14 46 -4 41 13 -6 16 -20 19
-38 8z"/>
<path d="M1282 1867 c-14 -17 -6 -47 13 -47 19 0 25 26 11 45 -10 15 -14 15
-24 2z"/>
<path d="M892 1828 c-29 -29 -8 -48 45 -41 35 6 59 26 48 43 -9 14 -78 13 -93
-2z"/>
<path d="M1324 1799 c-9 -15 38 -51 50 -39 6 6 2 17 -9 30 -21 23 -31 25 -41
9z"/>
<path d="M1386 1744 c-8 -21 1 -34 24 -34 28 0 36 21 15 37 -24 17 -32 17 -39
-3z"/>
<path d="M1137 1696 c-8 -21 16 -39 31 -24 7 7 12 18 12 25 0 18 -36 17 -43
-1z"/>
<path d="M1270 1677 c0 -7 6 -22 14 -33 19 -25 37 -8 25 24 -9 24 -39 31 -39
9z"/>
<path d="M2410 1660 c-56 -15 -106 -48 -174 -114 l-41 -38 24 -19 c16 -13 22
-26 18 -41 -9 -32 8 -53 42 -56 26 -2 35 4 58 39 30 46 32 82 5 112 -15 17
-14 20 13 42 17 13 48 27 70 30 22 4 48 9 57 11 26 8 31 -30 12 -89 -9 -28
-21 -57 -26 -64 -14 -18 -5 -57 14 -61 10 -2 19 6 23 20 4 13 20 49 36 82 36
72 36 86 3 126 -23 26 -32 30 -68 29 -22 -2 -52 -6 -66 -9z"/>
<path d="M926 1604 c-10 -27 -7 -39 16 -49 13 -6 24 -18 26 -27 2 -10 18 -32
35 -51 18 -18 53 -56 79 -85 73 -79 171 -117 263 -102 68 11 123 36 153 69 70
76 136 141 144 141 12 0 10 44 -4 58 -18 18 -48 15 -56 -6 -9 -23 -92 -132
-117 -155 -40 -35 -77 -45 -140 -36 -33 5 -76 11 -96 13 -55 6 -103 36 -158
99 -57 65 -75 93 -66 107 7 11 -34 40 -56 40 -9 0 -20 -7 -23 -16z"/>
<path d="M2320 2362 c0 -27 43 -171 77 -259 30 -76 74 -133 125 -159 32 -16
50 -12 30 8 -7 7 -12 19 -12 27 0 8 -7 21 -15 30 -45 48 -66 86 -104 186 -47
124 -73 177 -90 183 -6 2 -11 -5 -11 -16z"/>
<path d="M2225 2190 c-10 -16 36 -149 73 -213 34 -59 73 -94 92 -82 7 4 2 15
-14 30 -16 14 -23 30 -20 39 4 9 0 18 -9 22 -8 3 -18 21 -21 39 -4 19 -13 38
-20 42 -7 5 -23 36 -35 71 -23 60 -33 72 -46 52z"/>
</g>
</svg>
