<?xml version="1.0" standalone="no"?>
<!DOCTYPE svg PUBLIC "-//W3C//DTD SVG 20010904//EN"
 "http://www.w3.org/TR/2001/REC-SVG-20010904/DTD/svg10.dtd">
<svg version="1.0" xmlns="http://www.w3.org/2000/svg"
 width="239pt" height="648pt" viewBox="0 0 239 648"
 preserveAspectRatio="xMidYMid meet">
<metadata>
Created by potrace 1.8, written by Peter Selinger 2001-2007
</metadata>
<g transform="translate(0,648) scale(0.079412,-0.079412)"
fill="#000000" stroke="none">
<path d="M2277 8044 c-3 -3 4 -23 17 -43 37 -59 66 -137 66 -175 0 -20 -3 -36
-7 -36 -5 1 -20 18 -35 40 -33 47 -109 104 -158 118 -121 35 -142 37 -87 10
148 -72 165 -83 210 -135 25 -29 13 -49 -16 -30 -70 45 -293 85 -373 66 -22
-4 -64 -9 -94 -9 -30 0 -62 -5 -70 -10 -10 -6 44 -10 162 -10 161 0 236 -8
293 -31 11 -4 30 -11 43 -14 53 -15 14 -25 -95 -25 -272 0 -583 -70 -780 -175
-45 -24 -88 -48 -95 -54 -7 -6 -36 -29 -65 -51 -100 -76 -173 -208 -173 -310
0 -73 59 -156 82 -115 7 12 15 7 43 -27 19 -24 43 -59 54 -78 11 -19 33 -50
50 -68 49 -53 44 -122 -33 -477 -20 -88 -20 -156 -2 -199 19 -46 35 -54 56
-25 l18 23 15 -36 c8 -19 20 -39 26 -42 5 -4 36 6 68 22 32 16 79 37 105 47
l47 17 55 -33 c30 -19 56 -37 56 -41 0 -4 -26 -12 -57 -18 -105 -21 -136 -33
-281 -106 -78 -40 -168 -80 -200 -90 -31 -9 -61 -21 -67 -26 -5 -4 -16 -8 -24
-8 -40 0 -440 -167 -482 -202 -70 -58 -76 -157 -18 -333 41 -122 198 -407 299
-540 28 -36 50 -72 50 -78 0 -7 -14 -21 -31 -31 -18 -11 -39 -36 -50 -61 -10
-24 -26 -46 -35 -49 -11 -4 -14 -13 -11 -27 3 -13 -5 -43 -19 -72 -13 -28 -24
-52 -24 -54 0 -2 10 -7 23 -12 38 -15 52 3 72 91 24 108 37 133 85 160 22 13
42 28 44 34 3 7 -22 49 -54 95 -181 262 -310 535 -341 724 -11 72 -11 77 10
99 33 35 137 85 321 152 52 19 118 44 145 54 28 10 77 28 110 40 33 11 132 56
220 99 206 101 207 102 288 108 64 6 68 5 74 -16 7 -28 17 -27 43 7 27 34 57
51 92 52 31 0 55 9 156 57 40 19 75 34 77 32 2 -2 -1 -47 -6 -99 -9 -86 -12
-97 -37 -117 l-27 -23 28 0 c58 0 111 -46 183 -156 22 -32 42 -61 45 -64 3 -3
39 -54 79 -115 41 -60 103 -148 139 -195 36 -47 79 -103 95 -125 17 -22 33
-42 36 -45 13 -13 120 -160 120 -165 0 -4 11 -21 25 -39 36 -47 75 -127 75
-153 0 -37 -69 -89 -212 -160 -27 -12 -51 -23 -55 -23 -7 0 -124 -44 -198 -75
-16 -6 -57 -22 -90 -35 -33 -12 -73 -28 -90 -35 -204 -86 -239 -111 -199 -143
38 -30 49 -80 36 -160 -7 -39 -12 -84 -12 -101 0 -32 22 -61 47 -61 12 0 14
11 10 65 -4 56 -2 67 14 79 19 13 19 13 -1 31 -16 14 -19 26 -15 47 5 21 -1
41 -20 74 -23 39 -25 48 -14 60 22 21 148 71 391 154 226 77 302 113 380 179
58 49 71 85 53 145 -30 98 -106 223 -227 373 -106 131 -177 226 -295 396 -109
156 -201 267 -224 267 -12 0 -11 64 3 171 9 71 16 93 35 111 12 12 26 19 29
15 4 -3 -1 -41 -11 -84 -32 -147 -33 -133 16 -133 115 0 284 80 396 187 36 35
71 63 78 63 28 0 75 36 84 65 6 17 13 65 17 107 3 43 10 75 15 72 5 -3 9 -18
9 -34 0 -52 62 -46 77 8 5 15 8 90 7 167 -1 318 -122 652 -314 870 -54 61 -54
77 3 54 46 -18 158 -97 189 -133 14 -17 38 -44 52 -61 32 -37 35 -12 3 29 -73
94 -149 151 -247 187 -55 19 -55 25 -3 63 44 32 73 70 73 96 0 5 -19 -11 -41
-35 -60 -65 -83 -59 -58 14 18 52 -4 112 -61 165 -70 66 -158 104 -183 80z
m-443 -879 c50 -76 48 -85 -16 -85 -58 -1 -94 -20 -85 -45 5 -11 23 -15 74
-16 114 -2 124 -7 157 -72 16 -31 27 -59 24 -62 -2 -3 -22 5 -44 16 -43 22
-112 22 -139 -1 -17 -14 -22 -120 -6 -120 5 0 12 -8 15 -17 3 -10 2 6 -1 35
-5 56 12 92 45 92 21 0 88 -43 73 -48 -6 -2 -18 2 -26 8 -23 19 -45 4 -45 -30
0 -33 42 -86 60 -75 6 3 10 2 10 -3 0 -5 -15 -14 -32 -20 l-33 -10 35 -1 c42
-1 96 29 105 59 11 35 31 7 48 -68 27 -115 30 -134 36 -242 5 -89 9 -105 23
-108 10 -2 29 9 43 24 31 33 33 14 3 -22 -24 -27 -140 -114 -153 -114 -4 0
-19 -8 -33 -19 -70 -49 -207 -76 -274 -55 -62 19 -169 106 -239 194 -64 82
-70 107 -67 280 3 141 1 160 -19 213 -13 32 -23 60 -23 62 0 3 23 16 50 30 61
31 66 55 12 55 -21 0 -47 -7 -59 -15 -20 -14 -23 -14 -32 3 -6 12 -6 33 1 61
11 43 38 67 46 41 14 -42 174 -160 216 -160 17 0 33 21 76 107 46 90 113 183
132 183 3 0 22 -25 42 -55z m156 -360 c0 -8 -4 -17 -10 -20 -6 -4 -10 5 -10
20 0 15 4 24 10 20 6 -3 10 -12 10 -20z m-1220 -2335 c0 -5 -4 -10 -10 -10 -5
0 -10 5 -10 10 0 6 5 10 10 10 6 0 10 -4 10 -10z"/>
<path d="M1500 6881 c0 -14 -11 -25 -36 -36 -22 -9 -33 -19 -28 -26 5 -9 10
-7 19 4 14 19 50 23 60 6 4 -6 -2 -21 -14 -33 -38 -40 -25 -76 32 -90 15 -4
25 -11 22 -16 -9 -15 -82 -12 -88 3 -4 7 -6 6 -6 -4 -1 -19 19 -29 55 -29 28
0 32 -23 9 -66 -19 -37 -19 -64 1 -92 20 -28 49 -31 34 -3 -11 22 -14 74 -3
85 13 13 33 81 33 114 0 33 -10 61 -53 150 -24 50 -37 62 -37 33z"/>
<path d="M1720 6526 c0 -7 -12 -21 -26 -31 -32 -20 -18 -41 20 -31 22 5 26 12
26 41 0 19 -4 35 -10 35 -5 0 -10 -6 -10 -14z"/>
<path d="M1840 6436 c0 -51 -190 -136 -215 -96 -3 6 -15 10 -26 10 -10 0 -19
5 -19 10 0 6 -8 10 -17 10 -22 0 -10 -12 40 -39 71 -39 149 -23 231 48 24 21
51 41 58 43 11 4 10 8 -1 21 -21 26 -51 22 -51 -7z"/>
<path d="M1703 6253 c9 -2 23 -2 30 0 6 3 -1 5 -18 5 -16 0 -22 -2 -12 -5z"/>
<path d="M1678 7813 c7 -3 16 -2 19 1 4 3 -2 6 -13 5 -11 0 -14 -3 -6 -6z"/>
<path d="M1386 5869 c-57 -50 -116 -136 -141 -204 -10 -27 -25 -55 -32 -62 -8
-6 -42 -14 -76 -18 -93 -11 -278 -58 -301 -76 -5 -4 -2 -35 7 -71 9 -35 26
-106 38 -158 27 -121 50 -191 94 -294 l36 -84 -20 -73 c-33 -126 -44 -238 -39
-373 6 -125 6 -126 -19 -145 -17 -14 -33 -18 -58 -14 -19 3 -42 2 -52 -1 -17
-7 -17 -8 2 -18 10 -6 33 -14 50 -18 27 -5 30 -10 33 -49 3 -34 -4 -58 -32
-110 -19 -36 -42 -94 -52 -128 -16 -58 -16 -63 0 -88 9 -14 28 -31 41 -37 26
-12 41 -41 30 -58 -18 -30 -35 -298 -35 -571 0 -274 -2 -304 -25 -423 -35
-180 -34 -204 13 -259 32 -36 44 -64 70 -158 17 -63 36 -139 42 -169 7 -30 16
-71 20 -90 10 -40 53 -345 69 -492 12 -105 15 -326 5 -352 -13 -34 -110 -93
-304 -185 -36 -17 -91 -51 -122 -77 -55 -45 -58 -46 -140 -51 -64 -3 -97 -11
-143 -33 -33 -15 -76 -35 -96 -44 -20 -9 -41 -22 -48 -29 -18 -22 -2 -75 35
-114 31 -33 36 -35 86 -30 29 2 72 10 95 17 41 12 46 11 135 -31 136 -65 191
-61 403 31 95 42 111 45 204 43 51 -1 118 -7 148 -14 107 -22 173 6 173 72 0
33 -34 145 -65 213 -103 230 -111 267 -96 452 6 71 24 210 40 309 31 195 51
345 51 393 0 31 -31 98 -60 130 -35 38 -109 139 -123 167 -8 17 -20 56 -27 88
-20 97 13 288 90 527 15 47 38 130 50 185 26 113 35 135 55 135 17 0 30 -41
22 -72 -8 -29 10 -290 28 -418 18 -129 29 -178 66 -300 l29 -95 -20 -55 c-11
-30 -20 -73 -20 -96 0 -36 6 -46 55 -93 38 -36 55 -60 55 -77 0 -71 93 -379
200 -664 18 -47 47 -125 65 -175 18 -49 35 -97 38 -105 24 -61 70 -217 82
-275 20 -107 5 -134 -146 -260 -54 -45 -85 -81 -107 -122 -41 -77 -76 -108
-138 -123 -29 -6 -60 -19 -70 -29 -73 -69 -102 -127 -84 -161 16 -30 73 -51
136 -51 37 0 60 -6 78 -20 18 -14 40 -19 83 -19 63 0 98 12 68 24 -13 5 -15
13 -10 34 7 30 42 72 60 72 7 0 20 10 31 21 l19 22 -39 -7 c-54 -10 -84 -34
-98 -79 -6 -21 -19 -42 -27 -47 -21 -11 -71 -1 -78 16 -5 12 25 74 37 74 3 0
21 13 40 29 l34 29 -29 -6 c-17 -3 -45 -14 -63 -24 -40 -22 -42 -22 -42 1 0
21 -27 48 -37 37 -4 -4 -1 -11 7 -16 16 -10 23 -76 11 -99 -10 -18 -77 -17
-123 1 -40 15 -40 58 0 58 15 0 40 -7 56 -15 31 -17 46 -19 46 -7 0 11 -51 32
-78 32 -20 0 -22 4 -16 23 9 30 23 38 57 34 19 -3 24 0 17 7 -16 16 -12 26 11
26 12 0 42 11 68 26 35 19 57 41 89 92 24 39 73 96 117 136 43 38 95 91 116
118 38 48 39 52 39 126 -1 68 -11 128 -40 227 -5 17 -13 46 -19 65 -12 45 -50
159 -61 185 -5 11 -16 40 -24 65 -8 25 -36 104 -62 175 -117 327 -177 530
-163 556 13 25 13 23 -30 52 -96 64 -106 94 -71 226 19 71 19 111 1 111 -5 0
-11 12 -14 28 -4 15 -13 59 -22 97 -40 177 -59 370 -60 598 l0 197 30 28 c92
87 310 201 383 202 21 0 22 -3 22 -97 0 -107 -11 -209 -53 -498 -33 -222 -40
-306 -41 -464 -1 -134 2 -175 16 -213 29 -79 80 -164 152 -256 38 -48 79 -109
92 -137 28 -61 41 -190 49 -475 13 -468 43 -622 153 -787 19 -29 32 -59 29
-67 -4 -9 4 -28 16 -43 36 -45 70 -128 62 -153 -3 -10 -23 -30 -45 -45 -42
-29 -63 -66 -80 -139 -8 -37 -22 -59 -66 -102 -31 -30 -63 -54 -72 -54 -15 0
-15 -2 -2 -10 29 -19 59 -11 85 25 15 19 35 37 46 40 25 8 40 36 59 115 15 58
21 68 58 93 23 16 47 38 53 49 15 28 -2 92 -46 167 -19 33 -35 67 -35 77 0 9
-18 45 -40 80 -22 35 -40 66 -40 69 0 3 -9 24 -19 48 -45 97 -71 359 -71 712
0 187 -17 345 -42 405 -8 19 -59 94 -113 165 -54 72 -112 159 -129 195 -30 64
-31 68 -30 210 0 80 3 163 7 185 57 370 74 500 88 645 l11 115 43 46 c49 53
75 98 75 131 0 13 -9 48 -20 78 -32 88 -29 102 32 125 34 13 57 29 65 45 15
30 17 160 3 160 -9 0 -14 -47 -11 -96 2 -27 -51 -84 -78 -84 -12 0 -34 8 -48
17 -26 17 -26 17 -21 -5 6 -23 -10 -30 -28 -12 -6 6 -26 13 -45 15 -89 12
-116 19 -141 37 -34 24 -35 42 -8 180 11 57 20 124 20 150 0 53 19 137 35 153
5 6 56 40 113 75 187 119 396 254 481 313 46 32 103 63 127 69 24 7 44 15 44
19 0 10 -52 18 -81 12 -21 -4 -31 3 -55 32 -68 87 -166 183 -258 258 -92 73
-161 117 -169 106 -2 -2 -16 -29 -31 -59 -95 -184 -185 -524 -186 -697 0 -53
-5 -81 -19 -105 -11 -18 -25 -71 -31 -118 -6 -47 -17 -90 -23 -96 -26 -25
-167 -90 -274 -127 -145 -51 -326 -60 -406 -22 -41 19 -45 37 -51 215 -7 207
13 321 109 615 57 177 62 194 100 345 68 269 111 364 203 457 31 31 41 53 23
53 -4 0 -29 -19 -55 -41z m-193 -369 c-2 -19 -7 -53 -12 -75 -6 -22 -17 -70
-26 -106 -15 -66 -55 -186 -80 -244 -7 -16 -18 -45 -25 -62 -7 -18 -16 -33
-21 -33 -22 0 -59 110 -105 310 -20 85 -38 165 -41 176 -4 17 1 23 24 29 57
16 229 43 258 42 28 -2 30 -5 28 -37z m1052 -255 c90 -91 149 -157 170 -189
l19 -29 -34 -28 c-32 -27 -383 -264 -476 -322 -22 -14 -45 -22 -50 -19 -14 9
0 197 20 292 24 110 45 189 71 265 16 46 24 66 61 152 8 17 20 33 27 36 14 5
105 -70 192 -158z m-1232 -1504 c29 -21 98 -86 155 -144 57 -58 114 -113 128
-123 28 -22 30 -43 8 -121 -9 -32 -18 -69 -21 -83 -3 -14 -23 -83 -45 -155
-43 -137 -49 -162 -73 -290 -31 -170 -10 -329 56 -409 50 -61 114 -146 125
-168 22 -42 21 -55 -26 -403 -5 -38 -17 -115 -26 -170 -9 -57 -16 -164 -16
-250 -1 -167 -5 -151 106 -420 41 -101 50 -137 47 -189 -1 -18 -8 -19 -153
-12 -84 4 -166 7 -181 7 -16 -1 -103 -27 -195 -57 -184 -62 -229 -66 -323 -26
-42 18 -134 38 -153 33 -105 -26 -151 -20 -177 23 -22 36 -25 58 -6 51 6 -3
17 5 22 17 7 15 20 24 40 26 17 2 35 8 41 13 8 6 28 6 54 0 23 -5 52 -6 64 -1
20 7 19 8 -9 16 l-30 8 30 7 c17 4 45 7 63 8 39 1 106 32 146 66 17 14 98 59
180 99 163 80 221 121 242 172 24 58 16 358 -16 579 -22 149 -31 212 -42 265
-16 88 -60 262 -74 295 -7 17 -10 42 -7 56 4 21 -3 32 -40 62 -66 54 -73 78
-49 179 44 178 51 255 61 661 6 218 13 402 16 407 10 17 24 12 78 -29z"/>
<path d="M1241 1082 c-1 -45 -34 -92 -66 -92 -8 0 -15 -4 -15 -10 0 -5 18 -10
40 -10 29 0 42 5 50 19 12 23 12 74 0 111 -7 21 -8 18 -9 -18z"/>
<path d="M334 845 c-4 -9 -19 -15 -35 -15 -16 0 -29 -5 -29 -11 0 -6 9 -8 23
-4 12 4 30 9 40 11 9 3 17 12 17 20 0 18 -9 18 -16 -1z"/>
<path d="M1523 5753 c-40 -59 -79 -171 -65 -185 6 -6 15 9 26 42 9 28 30 76
47 107 39 72 33 97 -8 36z"/>
<path d="M710 4570 c0 -5 -6 -10 -13 -10 -7 0 -27 -15 -45 -33 -28 -29 -32
-39 -32 -90 0 -66 10 -87 63 -139 27 -26 48 -38 68 -38 38 0 37 12 -3 29 -58
26 -107 96 -108 154 0 31 8 46 46 87 26 28 42 50 35 50 -6 0 -11 -4 -11 -10z"/>
<path d="M1145 4340 c-4 -6 11 -10 37 -9 36 1 39 2 18 9 -36 11 -48 11 -55 0z"/>
<path d="M2117 4274 c-12 -12 -8 -23 13 -34 23 -12 26 -2 7 24 -7 9 -16 14
-20 10z"/>
<path d="M1947 350 c-14 -11 -33 -40 -43 -65 -10 -27 -23 -45 -33 -46 -9 0 -3
-5 12 -11 15 -5 40 -7 55 -3 23 6 25 8 9 16 -26 15 -21 35 24 84 35 38 38 45
22 45 -11 0 -32 -9 -46 -20z"/>
<path d="M2090 353 c-28 -10 -59 -45 -65 -74 -4 -16 -14 -33 -22 -38 -14 -7
-13 -10 5 -15 36 -12 60 1 55 28 -3 16 5 34 26 58 40 46 40 55 1 41z"/>
</g>
</svg>
