<?xml version="1.0" standalone="no"?>
<!DOCTYPE svg PUBLIC "-//W3C//DTD SVG 20010904//EN"
 "http://www.w3.org/TR/2001/REC-SVG-20010904/DTD/svg10.dtd">
<svg version="1.0" xmlns="http://www.w3.org/2000/svg"
 width="468pt" height="413pt" viewBox="0 0 468 413"
 preserveAspectRatio="xMidYMid meet">
<metadata>
Created by potrace 1.8, written by Peter Selinger 2001-2007
</metadata>
<g transform="translate(0,413) scale(0.081391,-0.081391)"
fill="#000000" stroke="none">
<path d="M660 5067 c0 -13 104 -57 134 -57 17 0 43 -8 56 -17 33 -22 128 -120
141 -146 10 -18 9 -19 -26 -13 -20 4 -52 15 -71 23 -31 15 -36 15 -74 -2 -38
-17 -44 -17 -128 -1 -97 19 -133 44 -153 103 -6 18 -15 33 -20 33 -12 0 -12
-5 6 -47 18 -43 52 -78 87 -92 14 -5 70 -17 124 -26 54 -10 106 -22 117 -29
10 -6 29 -31 42 -56 12 -25 50 -69 84 -98 66 -58 107 -112 57 -76 -14 11 -26
22 -26 26 0 4 -28 28 -62 54 -35 26 -67 53 -71 61 -4 7 -17 13 -27 13 -11 0
-20 4 -20 10 0 16 -43 50 -65 50 -11 0 -31 7 -43 16 -13 9 -26 13 -30 9 -10
-10 27 -34 65 -41 49 -9 69 -44 65 -115 -2 -46 2 -59 19 -75 18 -16 20 -26 15
-79 l-5 -60 14 60 c13 56 13 62 -6 87 -30 43 -25 64 8 33 15 -14 31 -25 35
-25 3 0 17 -21 30 -47 20 -42 23 -63 23 -168 1 -66 5 -128 9 -138 8 -17 -75
33 -116 70 -16 14 -18 14 -27 -8 -10 -28 -9 -30 -47 90 -29 94 -27 144 6 199
11 18 15 32 10 32 -17 0 -40 -45 -51 -103 -10 -49 -9 -62 9 -109 12 -29 28
-79 37 -110 16 -60 29 -72 40 -39 6 18 7 18 44 0 67 -32 128 -123 106 -159 -3
-5 -2 -10 3 -10 6 0 12 6 14 13 5 12 -4 108 -18 187 l-7 44 34 -39 c54 -63 63
-68 71 -39 6 25 -4 166 -18 233 l-7 34 22 -22 c13 -13 21 -34 21 -55 0 -24 10
-46 35 -76 19 -23 35 -48 35 -55 0 -7 3 -22 6 -32 5 -16 4 -16 -10 2 -21 25
-42 13 -70 -41 -30 -57 -29 -175 2 -224 12 -19 22 -47 22 -62 0 -16 4 -28 10
-28 26 0 60 115 60 205 0 40 4 65 9 60 10 -12 37 -137 46 -218 4 -35 10 -55
17 -51 19 12 -6 149 -66 364 -13 47 -27 94 -31 104 -7 16 -5 18 11 11 38 -16
62 -17 90 -3 17 8 42 12 60 9 39 -8 91 -52 100 -85 8 -32 24 -44 24 -19 0 27
-39 95 -69 120 -38 33 -116 56 -163 50 -39 -5 -43 -3 -92 49 -28 31 -83 88
-122 127 -39 40 -80 90 -92 112 -11 23 -32 47 -46 55 -33 17 -14 33 23 18 35
-14 162 -48 180 -48 9 0 2 13 -19 35 -33 34 -33 34 -26 107 3 40 9 88 12 106
4 17 2 32 -3 32 -9 0 -33 -112 -33 -157 0 -28 0 -28 -38 14 -64 73 -111 104
-153 101 -24 -1 -45 4 -57 15 -18 16 -82 35 -82 24z m485 -597 c15 -17 26 -19
64 -14 31 3 59 0 86 -11 34 -13 36 -15 10 -11 -17 3 -38 -2 -49 -10 -27 -20
-59 -18 -89 6 -33 26 -45 25 -50 -2 -2 -13 -5 -4 -6 20 -1 47 7 52 34 22z m17
-267 c8 -61 5 -109 -14 -180 -11 -43 -28 -58 -28 -25 0 9 -9 31 -20 47 -34 51
-22 169 22 222 17 21 30 1 40 -64z"/>
<path d="M1160 5061 c0 -5 10 -11 22 -13 13 -2 28 -15 37 -33 7 -16 21 -43 29
-60 19 -38 38 -77 57 -115 11 -23 12 -37 3 -61 -6 -16 -8 -48 -4 -69 5 -31 3
-38 -8 -34 -8 3 -17 0 -21 -6 -5 -8 -14 -5 -30 10 -20 19 -26 20 -66 9 -63
-17 -110 5 -140 63 -12 24 -24 37 -26 31 -3 -7 6 -31 18 -53 30 -53 87 -77
148 -60 39 10 43 9 61 -12 16 -20 21 -21 39 -10 19 11 23 8 45 -27 52 -82 62
-57 16 40 -27 58 -28 68 -18 102 6 20 17 37 23 37 18 0 115 -80 115 -94 0 -7
6 -21 14 -31 12 -16 16 -17 30 -6 18 15 22 86 6 96 -12 7 -34 49 -44 83 -5 16
-3 22 7 22 27 0 104 -50 115 -75 12 -27 27 -32 38 -13 4 6 -1 17 -10 23 -20
15 -36 66 -36 114 0 30 2 33 23 27 12 -4 45 -10 72 -14 28 -5 55 -11 61 -15 6
-3 17 -32 24 -64 15 -68 36 -106 80 -148 18 -16 36 -41 41 -54 7 -18 13 -21
21 -13 14 14 -11 108 -50 194 -20 42 -35 61 -57 70 -30 12 -29 12 25 16 61 4
115 -17 126 -50 7 -22 37 -20 42 2 5 28 -139 86 -234 94 -17 2 -36 6 -41 9 -6
4 -42 8 -81 9 -67 1 -71 3 -77 27 -7 28 -33 61 -47 61 -5 0 0 -12 11 -26 12
-15 21 -39 21 -53 0 -15 4 -31 9 -37 9 -10 22 -104 14 -104 -3 0 -22 8 -42 19
-98 50 -130 61 -183 61 -61 0 -80 14 -92 65 -11 47 -34 75 -61 75 -14 0 -25
-4 -25 -9z m510 -101 c12 -8 11 -10 -7 -10 -12 0 -25 5 -28 10 -8 13 15 13 35
0z m107 -16 c-3 -3 -12 -4 -19 -1 -8 3 -5 6 6 6 11 1 17 -2 13 -5z m50 -96
c26 -41 58 -137 48 -146 -12 -12 -76 75 -90 123 -18 65 -18 65 0 65 8 0 27
-19 42 -42z"/>
<path d="M1345 5061 c3 -5 30 -15 60 -21 29 -6 65 -20 79 -31 14 -11 26 -16
26 -11 0 17 -28 33 -92 53 -72 21 -82 23 -73 10z"/>
<path d="M2177 5038 c-3 -18 -9 -55 -13 -83 -7 -51 -33 -118 -56 -145 -7 -8
-25 -23 -40 -33 -57 -36 -18 -52 40 -17 38 24 72 26 72 5 0 -8 -9 -29 -20 -47
-24 -39 -25 -52 -5 -44 21 8 19 3 -15 -32 -20 -21 -30 -42 -30 -62 0 -16 -27
-95 -60 -174 -33 -80 -60 -148 -60 -153 0 -5 -24 -9 -54 -10 -50 -1 -157 -35
-216 -68 -14 -7 -51 -27 -83 -44 -91 -49 -208 -139 -336 -259 -25 -24 -71 -61
-101 -82 -30 -21 -66 -50 -79 -64 -14 -14 -30 -26 -37 -26 -7 0 -38 24 -70 53
-31 28 -92 79 -134 112 -273 212 -366 297 -492 450 -87 106 -220 228 -330 303
-52 36 -58 38 -58 18 0 -7 30 -34 66 -58 97 -67 238 -194 302 -273 82 -102
214 -231 315 -311 49 -38 108 -85 131 -104 24 -19 74 -60 112 -91 38 -31 84
-73 103 -92 l34 -36 -27 -32 c-44 -52 -68 -110 -74 -175 -6 -83 0 -102 53
-168 35 -42 57 -60 95 -73 28 -10 50 -21 50 -25 0 -19 -82 -88 -105 -88 -44 0
-75 20 -72 48 1 14 -4 27 -11 30 -8 2 -2 16 18 39 17 19 28 38 25 42 -4 3 -16
-7 -27 -22 -11 -15 -37 -36 -58 -47 -36 -18 -40 -18 -81 -3 -55 21 -55 21 -41
35 21 21 13 26 -28 17 -39 -9 -130 5 -130 20 0 3 21 17 48 31 26 13 63 36 83
52 45 34 112 115 101 122 -4 3 -27 -20 -51 -50 -35 -44 -87 -86 -111 -89 -3 0
-11 -4 -18 -9 -7 -4 -15 -6 -18 -3 -3 2 18 22 46 43 28 21 46 40 40 42 -7 3
-24 -7 -38 -21 -49 -45 -142 -80 -142 -54 0 10 -8 13 -25 9 -14 -2 -25 -2 -25
1 0 3 27 25 60 47 57 41 130 122 130 144 0 6 -17 -7 -38 -30 -20 -22 -51 -49
-69 -60 -17 -10 -55 -34 -82 -51 -28 -18 -51 -29 -51 -25 0 5 11 14 24 20 62
28 151 134 144 169 -3 13 -10 7 -26 -23 -28 -54 -110 -127 -160 -142 -67 -20
-113 -15 -165 18 -26 17 -50 30 -52 30 -3 0 -61 36 -131 80 -86 55 -124 74
-122 63 2 -10 29 -35 61 -56 50 -33 57 -41 45 -54 -21 -25 -67 -126 -62 -135
3 -4 20 0 37 9 18 9 38 16 45 14 20 -4 40 17 47 50 8 37 39 36 43 -1 1 -14 7
-44 14 -68 10 -39 9 -45 -16 -80 -57 -83 -59 -140 -7 -218 61 -91 69 -100 83
-86 8 8 8 26 -2 71 -7 32 -9 64 -6 69 11 17 67 -20 60 -40 -9 -29 18 -110 49
-144 20 -24 38 -34 58 -34 30 0 71 -31 81 -61 3 -8 8 -11 12 -7 11 10 -12 121
-29 137 -12 13 -11 16 12 28 14 7 38 13 53 13 22 0 29 6 35 28 5 16 9 22 13
13 9 -25 36 -51 54 -51 20 0 25 -34 8 -45 -21 -13 12 -37 41 -31 18 3 29 0 32
-8 8 -19 60 -28 72 -11 6 7 22 15 35 17 22 3 25 8 24 43 -1 22 -5 48 -9 58 -6
15 -3 18 21 15 22 -2 32 3 48 29 30 45 58 46 142 7 40 -19 76 -34 79 -34 3 0
52 -20 108 -44 56 -24 126 -52 156 -61 l55 -18 -45 -41 c-53 -49 -96 -114
-109 -164 -5 -20 -16 -64 -24 -97 -9 -33 -16 -71 -16 -85 0 -14 -9 -31 -19
-37 -11 -7 -38 -44 -61 -83 -26 -44 -47 -70 -55 -67 -20 8 -35 -14 -35 -49 0
-42 18 -53 26 -17 10 47 13 53 25 51 6 -2 24 22 40 52 16 30 40 66 54 80 l25
25 -5 -109 c-5 -98 -8 -113 -30 -140 -64 -78 -96 -139 -119 -226 -20 -76 -30
-97 -67 -138 -24 -27 -71 -79 -104 -118 -113 -131 -257 -279 -339 -347 l-46
-38 0 30 c0 26 5 31 34 40 39 10 116 68 116 87 0 6 17 27 38 45 53 46 64 70
12 29 -167 -135 -202 -160 -196 -144 4 10 14 38 22 64 13 39 22 49 71 75 88
46 152 112 225 232 77 127 212 393 199 393 -5 0 -28 -36 -50 -80 -27 -51 -61
-98 -93 -128 -28 -26 -70 -65 -92 -87 -83 -80 -177 -150 -306 -226 l-75 -44
-122 0 c-74 0 -124 -4 -125 -10 -2 -5 17 -11 42 -13 98 -5 116 -22 52 -48 -20
-8 -51 -22 -68 -29 -126 -58 -173 -77 -220 -91 -31 -9 -54 -21 -54 -29 0 -14
20 -11 84 14 18 7 33 8 39 2 5 -5 0 -12 -14 -16 -55 -17 -109 -46 -109 -60 0
-11 13 -8 58 12 31 15 66 32 77 39 11 7 55 25 97 39 42 14 115 46 162 70 47
25 88 45 92 45 3 0 -6 -20 -20 -45 -15 -24 -34 -77 -43 -117 -8 -40 -23 -80
-32 -89 -9 -9 -32 -37 -51 -62 -29 -38 -41 -46 -68 -47 -24 0 -42 -9 -65 -32
-18 -18 -45 -40 -62 -48 -16 -8 -40 -31 -53 -50 -13 -19 -39 -43 -58 -53 -19
-9 -34 -24 -34 -32 0 -10 25 -1 86 30 91 47 138 55 184 32 44 -22 36 -43 -50
-124 -45 -42 -90 -82 -99 -88 -52 -30 -121 -89 -121 -102 0 -11 8 -9 33 9 79
55 127 95 195 160 55 52 77 67 85 59 6 -6 13 -55 15 -109 4 -87 -1 -122 -31
-267 -1 -5 3 -11 8 -13 36 -12 58 278 31 400 -21 93 -63 158 -102 158 -25 0
-26 1 -12 22 23 34 53 40 83 17 41 -33 51 -66 65 -205 14 -144 10 -225 -14
-294 -10 -30 -12 -46 -5 -51 12 -7 -13 -58 -61 -124 -15 -22 -33 -56 -39 -75
-6 -19 -31 -66 -56 -104 -24 -39 -54 -99 -66 -135 -12 -36 -30 -81 -40 -98
-10 -18 -14 -33 -10 -33 11 0 33 35 54 88 9 23 25 61 34 85 10 23 32 62 49 87
18 25 41 68 52 96 10 28 32 71 49 95 119 173 163 416 129 714 -14 126 -14 146
0 199 27 103 65 146 130 146 l42 0 -24 -67 c-24 -65 -24 -72 -19 -296 3 -126
7 -232 9 -236 2 -3 -2 -33 -9 -66 -7 -33 -16 -86 -20 -117 -6 -53 -4 -60 19
-83 14 -14 36 -25 49 -25 13 0 33 -11 45 -25 23 -26 30 -65 12 -65 -25 0 -6
-28 29 -43 37 -17 54 -19 159 -17 61 1 112 30 146 84 16 25 31 46 33 46 9 0
-42 -89 -73 -126 -32 -40 -36 -42 -91 -41 -34 0 -59 -5 -61 -12 -5 -14 -29
-14 -34 0 -3 8 -10 8 -25 -2 -19 -11 -25 -11 -42 5 -19 17 -21 17 -21 3 0 -10
-5 -17 -11 -17 -6 0 -9 -9 -6 -20 3 -10 -1 -27 -8 -37 -13 -17 -14 -17 -20 2
-10 31 -32 69 -43 73 -13 4 -22 -90 -10 -105 7 -8 5 -19 -6 -35 -9 -12 -16
-17 -16 -10 0 6 -7 12 -15 12 -8 0 -15 9 -15 20 0 11 -6 23 -13 26 -8 3 -11
17 -9 41 3 25 0 40 -11 48 -8 6 -17 24 -19 40 -2 25 -7 30 -26 27 -20 -2 -22
1 -17 20 4 13 17 40 28 60 23 43 19 55 -13 38 -20 -11 -21 -10 -10 9 15 29 -4
26 -24 -4 -21 -31 -20 -35 4 -35 20 0 20 -1 3 -26 -9 -15 -18 -47 -20 -71 -2
-43 -1 -45 22 -40 14 2 25 0 25 -5 0 -5 -31 -59 -68 -121 -37 -61 -80 -143
-96 -182 -15 -38 -36 -83 -48 -99 -13 -18 -16 -27 -7 -24 8 2 43 62 79 133 73
145 119 221 149 241 39 28 33 -20 -17 -118 -9 -18 29 -6 40 12 18 28 29 25 18
-5 -9 -23 -8 -24 20 -18 27 5 30 3 30 -18 0 -31 10 -45 38 -53 23 -8 23 -8 7
29 -20 50 -20 76 1 68 14 -5 15 1 10 48 -5 43 -4 49 4 30 18 -43 31 -53 47
-39 12 10 18 9 30 -7 8 -11 19 -32 25 -47 10 -29 22 -35 33 -18 7 11 -16 52
-42 79 -8 7 -13 23 -11 35 4 26 49 34 67 12 12 -14 16 -13 33 9 17 22 27 25
81 25 l62 0 47 73 c52 80 73 129 64 152 -3 9 1 33 10 55 9 22 14 44 12 51 -2
6 -16 -20 -32 -58 -57 -140 -109 -192 -193 -193 -16 0 -49 0 -74 0 -66 0 -86
31 -29 44 31 7 70 63 70 100 0 15 -8 10 -36 -22 -20 -23 -40 -39 -45 -36 -6 3
-16 0 -24 -6 -12 -10 -15 -9 -15 7 0 23 -52 64 -86 68 -56 6 -63 32 -40 155
10 53 14 132 11 270 l-3 195 36 37 c40 42 57 47 71 19 10 -17 46 -186 53 -241
2 -14 9 -26 16 -26 6 -1 16 -2 21 -3 11 -1 34 -77 52 -169 13 -71 29 -67 29 8
0 25 3 68 6 97 6 46 11 55 45 78 21 14 41 36 45 49 3 15 11 23 19 20 13 -5 55
32 55 48 0 5 11 14 25 20 13 6 27 18 30 27 3 9 23 34 45 56 21 22 39 45 40 51
0 6 14 32 32 58 23 36 28 50 19 56 -10 6 -10 12 0 29 8 11 19 21 25 21 15 0
44 62 43 92 -1 21 -1 20 -9 -5 -5 -16 -25 -42 -44 -59 -20 -17 -36 -37 -36
-46 0 -8 -8 -21 -17 -29 -17 -13 -16 -14 5 -8 31 9 28 -12 -8 -55 -17 -19 -30
-38 -30 -43 0 -9 -11 -23 -53 -68 -15 -16 -27 -34 -27 -39 0 -6 -6 -10 -14
-10 -8 0 -24 -16 -36 -36 -15 -23 -27 -33 -37 -29 -9 3 -22 0 -29 -6 -11 -9
-14 -6 -14 17 l-1 29 -14 -25 c-8 -14 -14 -19 -15 -10 0 10 -3 11 -11 3 -15
-15 -3 -33 22 -33 10 0 19 -5 19 -11 0 -6 -6 -9 -13 -6 -35 13 -77 -59 -77
-133 0 -69 -15 -62 -30 13 -14 76 -27 104 -49 110 -13 3 -22 28 -35 98 -10 52
-25 107 -33 123 -13 25 -13 30 1 44 15 15 17 15 31 -5 27 -38 80 -55 176 -54
99 0 112 5 187 69 54 46 91 107 154 257 32 76 80 234 74 244 -10 16 -21 254
-19 418 2 188 9 239 53 355 21 57 112 168 138 168 25 0 0 -91 -49 -171 -58
-97 -81 -188 -78 -306 1 -46 -1 -86 -5 -90 -3 -3 -6 59 -6 139 0 157 12 214
66 305 14 25 24 46 22 49 -7 6 -87 -139 -98 -175 -15 -52 4 -420 22 -432 12
-8 11 -248 -2 -329 -5 -36 -10 -95 -10 -133 0 -42 -8 -89 -20 -125 -11 -31
-24 -82 -29 -113 -7 -38 -17 -65 -34 -81 -20 -20 -26 -39 -31 -94 -4 -38 -9
-93 -12 -121 -3 -30 -1 -53 4 -53 5 0 12 39 15 88 7 100 24 163 47 169 12 3
19 26 28 88 6 46 18 98 26 114 10 18 16 56 16 92 0 129 20 229 65 329 41 90
73 182 110 312 17 63 30 193 40 388 6 139 23 250 36 250 5 0 9 4 9 9 0 5 16
32 35 61 19 28 39 68 45 89 5 20 38 93 73 161 35 69 79 172 98 229 19 58 40
106 49 109 8 3 21 13 28 21 11 14 12 14 10 -4 -3 -30 12 -65 28 -65 8 0 14 -4
14 -9 0 -5 7 -16 15 -25 13 -13 13 -15 -5 -21 -11 -3 -24 -3 -30 0 -5 3 -10 0
-11 -7 -2 -47 -10 -73 -28 -90 -12 -10 -21 -23 -21 -28 0 -6 -8 -10 -19 -10
-19 0 -31 -25 -31 -66 0 -31 -50 -124 -67 -124 -10 0 -12 -6 -8 -21 5 -14 3
-19 -3 -15 -6 3 -13 -2 -17 -13 -3 -10 -15 -27 -26 -37 -20 -18 -20 -18 -10 9
7 17 7 27 1 27 -6 0 -10 -7 -10 -15 0 -17 -65 -152 -85 -175 -7 -8 -15 -28
-19 -44 -6 -25 -5 -28 7 -17 8 6 21 26 28 44 7 18 21 38 31 45 9 7 23 31 29
52 11 37 39 75 39 54 0 -28 -47 -124 -79 -163 -49 -60 -75 -100 -68 -107 3 -3
18 13 33 35 14 23 34 41 44 41 18 0 164 -43 265 -78 33 -12 71 -24 85 -26 42
-8 61 -30 70 -77 9 -47 1 -83 -33 -146 -22 -42 -22 -68 3 -93 26 -26 70 -26
103 0 31 24 56 103 64 202 5 58 9 68 22 62 9 -3 25 -8 36 -11 18 -5 101 -41
150 -67 118 -60 321 -156 333 -156 10 0 229 -160 330 -241 35 -27 71 -53 80
-56 24 -8 -41 50 -128 115 -85 62 -105 80 -72 62 13 -6 26 -10 28 -7 3 2 -23
16 -56 30 -58 26 -78 47 -42 47 14 0 15 2 2 10 -9 5 -19 5 -26 -1 -7 -6 -19
-3 -35 10 -13 10 -51 32 -83 50 -33 17 -50 31 -39 31 10 0 43 16 73 35 53 33
93 44 104 27 5 -9 -77 -72 -94 -72 -6 0 -10 -4 -10 -10 0 -13 47 -13 54 -1 4
5 1 11 -5 13 -6 2 12 18 41 36 52 32 52 32 78 13 15 -10 47 -29 72 -41 25 -13
77 -53 115 -91 39 -37 99 -91 135 -119 36 -29 67 -55 70 -59 13 -18 72 -52 78
-46 4 4 1 10 -7 13 -7 2 -21 12 -30 21 -9 9 -35 29 -56 45 -78 58 -184 155
-170 156 6 0 35 -16 65 -36 29 -19 79 -48 109 -63 76 -38 125 -65 131 -71 21
-22 90 -70 101 -70 8 0 1 11 -15 23 -17 14 -26 29 -22 35 5 8 1 10 -10 5 -10
-4 -22 0 -29 10 -7 9 -30 24 -51 33 -21 9 -46 22 -54 29 -8 7 -26 15 -40 18
-14 4 -63 31 -109 62 -46 30 -90 55 -97 55 -7 0 -15 4 -19 10 -3 5 -34 23 -68
40 -34 18 -69 38 -77 45 -8 7 -31 18 -50 24 -124 39 -204 61 -223 60 -12 0 6
-10 41 -20 34 -11 62 -24 62 -29 0 -14 -85 -60 -123 -67 -28 -4 -55 6 -155 57
-67 35 -119 66 -117 70 3 4 24 11 47 15 24 4 37 9 30 12 -9 4 -4 11 15 24 75
48 137 95 140 105 4 12 -54 7 -62 -6 -3 -5 5 -6 17 -3 21 4 20 2 -7 -21 -29
-25 -62 -36 -50 -16 3 6 1 10 -5 10 -6 0 -9 -8 -6 -17 7 -22 -45 -60 -94 -69
-19 -4 -40 -11 -46 -15 -7 -6 -25 -3 -45 5 l-34 14 30 5 c19 2 11 5 -23 6 -78
2 -107 20 -121 78 -15 60 -100 215 -153 279 -69 84 -74 109 -15 85 105 -42
167 -64 202 -72 22 -6 53 -18 70 -29 16 -10 49 -24 73 -31 23 -7 42 -15 42
-19 0 -4 15 -13 33 -20 17 -8 39 -19 47 -25 24 -19 153 -65 182 -65 15 0 78
-16 140 -35 62 -20 158 -50 213 -67 155 -47 229 -87 321 -176 91 -86 98 -92
241 -216 56 -48 114 -106 129 -127 15 -21 30 -39 35 -39 5 0 17 -10 29 -22 11
-12 23 -19 26 -15 9 9 -201 214 -321 313 -27 23 -82 74 -121 113 -40 39 -76
71 -82 71 -16 0 -21 24 -8 46 6 12 28 36 49 54 21 18 35 35 32 38 -3 3 -23
-12 -45 -33 l-39 -38 -43 37 c-58 50 -62 53 -100 74 -35 20 -148 59 -264 92
-40 11 -77 27 -84 35 -7 8 -18 15 -26 15 -15 0 -44 27 -44 41 0 5 15 9 34 9
18 0 44 8 57 18 13 10 53 33 89 51 59 31 73 34 151 34 71 0 94 -4 140 -26 63
-30 77 -44 109 -110 12 -27 29 -51 37 -54 18 -7 53 -76 53 -105 0 -45 4 -46
154 -68 37 -5 72 -8 76 -5 15 9 42 159 37 204 -3 27 1 63 9 89 9 25 12 56 8
76 -8 46 1 71 27 73 31 3 46 20 34 39 -11 17 -75 44 -115 48 -39 4 -56 17 -99
75 -38 50 -39 55 -23 68 16 13 15 14 -6 9 -17 -3 -38 7 -75 35 -29 22 -72 49
-97 60 -48 23 -156 127 -210 202 -22 32 -42 48 -64 53 -17 3 -35 9 -41 13 -5
3 -21 7 -35 8 -14 1 -77 7 -140 12 -63 6 -148 14 -189 17 -91 7 -140 31 -295
144 -60 44 -114 80 -119 80 -6 0 -18 7 -27 15 -14 13 -15 25 -7 85 6 38 13 70
16 70 3 -1 17 -23 30 -50 13 -28 28 -50 32 -50 13 0 19 32 13 67 -5 25 -2 39
11 53 13 14 15 26 9 47 -15 52 -13 61 14 61 28 0 45 20 36 42 -16 39 -16 50 0
50 10 0 16 9 16 24 0 22 26 55 39 48 13 -7 12 32 -1 42 -9 6 -17 34 -20 64 -5
52 -5 52 14 32 10 -11 23 -20 28 -20 17 0 11 19 -9 29 -29 16 -32 38 -12 84
24 52 40 189 20 169 -8 -7 -12 -29 -10 -51 1 -22 -2 -47 -7 -58 -37 -71 -52
-238 -24 -259 20 -14 6 -37 -18 -29 -10 3 -21 1 -24 -4 -4 -6 -14 -7 -23 -4
-11 4 -14 2 -11 -8 3 -8 15 -13 27 -12 25 3 29 -22 5 -31 -13 -5 -15 -15 -10
-46 4 -24 2 -41 -5 -46 -17 -10 -29 16 -29 64 0 23 -4 42 -10 42 -5 0 -7 -17
-4 -41 4 -24 2 -39 -3 -36 -13 8 -7 -93 6 -106 15 -15 14 -27 -3 -27 -18 0
-27 -39 -20 -82 l6 -33 -21 33 c-12 18 -21 43 -21 57 0 13 -4 27 -10 30 -5 3
-10 17 -10 31 0 26 -4 27 -35 15 -13 -5 -25 -3 -34 6 -21 21 -31 -2 -42 -93
-11 -84 -28 -138 -37 -114 -3 8 -9 18 -15 21 -6 4 -4 25 6 55 8 27 21 71 27
97 7 27 21 52 32 58 16 9 17 12 4 25 -13 12 -13 18 0 42 7 15 14 34 14 43 0 8
4 19 9 25 5 5 12 25 15 44 5 28 4 31 -4 13 -5 -13 -16 -23 -23 -23 -8 0 -20
-7 -27 -15 -7 -8 -16 -15 -21 -15 -18 0 -8 20 26 54 37 37 43 52 23 58 -9 3
-7 14 5 40 9 20 17 45 17 57 0 18 -4 20 -32 14 -18 -3 -42 -13 -52 -22 -17
-14 -17 -11 3 19 36 56 53 101 62 165 4 33 11 70 15 83 3 12 2 22 -4 22 -5 0
-12 -15 -15 -32z m-5 -460 c-7 -7 -12 -23 -12 -35 0 -13 -6 -36 -14 -51 -7
-15 -16 -43 -20 -62 -3 -19 -22 -84 -42 -145 -31 -95 -36 -124 -36 -210 -1
-86 2 -108 24 -160 14 -33 29 -76 34 -95 12 -55 5 -171 -13 -212 -17 -41 -39
-52 -29 -15 3 12 6 43 6 70 0 36 4 47 16 47 13 0 15 6 9 28 -3 15 -11 29 -16
30 -5 2 -9 12 -9 23 0 10 -4 19 -9 19 -4 0 -6 11 -4 24 3 13 0 26 -5 30 -6 4
-8 -3 -6 -16 6 -27 -41 86 -62 151 -8 24 -14 61 -14 81 0 53 33 174 75 276 77
186 103 234 129 234 6 0 5 -5 -2 -12z m62 -283 c-17 -112 -26 -145 -58 -220
-14 -33 -26 -71 -27 -85 0 -22 -2 -21 -14 10 -7 19 -14 29 -14 22 -1 -7 6 -29
14 -48 10 -25 12 -41 5 -53 -8 -14 -9 -14 -10 2 0 15 -2 16 -14 5 -7 -7 -12
-20 -9 -28 2 -8 -6 5 -17 30 -31 66 -36 101 -17 112 10 5 17 14 17 19 0 6 9
29 19 52 23 50 47 143 57 214 3 29 10 51 14 48 4 -2 20 0 36 4 16 4 30 8 31 7
0 -1 -5 -41 -13 -91z m-201 -492 c18 -66 23 -203 8 -203 -5 0 -14 7 -21 15 -9
10 -9 15 -1 15 6 0 11 12 11 26 0 18 -6 28 -21 31 -13 4 -19 12 -16 23 6 24
-19 54 -39 46 -15 -6 -15 -5 0 19 9 14 14 30 11 35 -8 13 35 74 45 63 3 -4 14
-36 23 -70z m-532 -186 c9 -51 -6 -104 -42 -145 -34 -38 -39 -25 -7 19 19 25
22 43 23 114 0 86 11 91 26 12z m-131 7 c0 -50 -2 -55 -19 -49 -11 3 -37 -4
-61 -16 -34 -18 -46 -20 -66 -11 -46 22 -35 34 91 104 28 15 51 27 53 27 1 1
2 -24 2 -55z m-158 -90 c23 -15 78 -44 123 -66 44 -21 94 -49 111 -61 18 -12
40 -27 50 -33 36 -22 2 -29 -129 -29 -142 0 -168 7 -216 59 -31 33 -35 104 -7
135 11 12 21 21 23 21 2 0 22 -12 45 -26z m624 -111 c-12 -32 -35 -80 -51
-108 -15 -27 -40 -73 -55 -100 -15 -28 -43 -75 -63 -106 -62 -96 -77 -162 -87
-361 -17 -343 -30 -409 -124 -648 l-41 -105 -5 90 c-4 75 -2 97 14 130 31 64
32 67 49 135 28 114 46 241 52 380 8 152 11 200 20 249 11 57 102 233 146 281
l41 45 -38 -70 c-71 -131 -92 -182 -56 -134 35 46 82 130 78 138 -3 4 4 22 15
39 22 38 24 46 7 36 -14 -9 -14 -8 43 66 19 25 41 57 49 73 25 49 29 28 6 -30z
m-1716 7 c-6 -12 -14 -19 -17 -17 -2 3 1 15 7 27 6 12 14 19 17 17 2 -3 -1
-15 -7 -27z m2544 -10 c-10 -16 -20 -27 -22 -25 -5 5 26 55 34 55 3 0 -3 -13
-12 -30z m-2508 -6 c-4 -9 -9 -15 -11 -12 -3 3 -3 13 1 22 4 9 9 15 11 12 3
-3 3 -13 -1 -22z m133 -33 c35 -28 79 -96 69 -106 -9 -10 -68 26 -86 53 -20
28 -37 82 -26 82 3 0 23 -13 43 -29z m1884 -29 c52 -25 206 -144 206 -159 1
-10 -6 -10 -31 1 -18 7 -64 23 -103 35 -89 29 -150 58 -199 95 -36 28 -37 30
-20 44 24 17 95 10 147 -16z m-1663 -56 c63 -25 155 -58 204 -72 79 -23 209
-77 245 -102 11 -8 11 -14 0 -33 -15 -28 -30 -44 -44 -45 -5 0 -22 -4 -37 -8
-29 -8 -35 -20 -18 -31 6 -4 8 -15 5 -25 -3 -10 -1 -21 5 -25 19 -12 11 -38
-11 -32 -12 3 -22 0 -26 -9 -7 -19 -49 -18 -57 2 -4 11 -13 14 -30 10 -24 -6
-24 -4 -20 44 4 56 -8 70 -37 44 -19 -17 -20 -16 -31 14 -15 39 -41 41 -57 6
-9 -20 -17 -25 -32 -21 -13 4 -29 -2 -42 -14 -28 -26 -40 -24 -55 9 -26 54
-27 55 -5 44 12 -7 25 -7 34 -1 7 5 29 9 47 9 20 0 31 4 27 10 -4 6 -11 8 -16
5 -17 -11 -9 8 8 21 30 21 9 25 -30 5 -20 -10 -33 -21 -30 -25 14 -14 -76 -5
-126 14 -68 24 -110 58 -111 87 0 9 11 6 33 -7 34 -21 67 -26 67 -10 0 6 -8
10 -17 10 -33 1 -73 44 -80 85 l-6 38 32 -19 c18 -10 41 -29 51 -41 10 -13 21
-23 24 -23 12 0 5 86 -9 110 -20 35 -18 41 8 31 12 -5 74 -30 137 -55z m2894
9 c-4 -8 -11 -15 -16 -15 -6 0 -5 6 2 15 7 8 14 15 16 15 2 0 1 -7 -2 -15z
m-428 -10 c-11 -8 -22 -12 -25 -9 -6 6 19 24 34 24 6 -1 1 -7 -9 -15z m-60
-39 c-16 -11 -49 -36 -73 -53 -27 -21 -39 -26 -32 -14 7 10 27 26 45 36 18 10
43 28 55 41 12 13 25 21 28 18 3 -4 -7 -16 -23 -28z m457 9 c-3 -9 -8 -14 -10
-11 -3 3 -2 9 2 15 9 16 15 13 8 -4z m-1731 -32 c-18 -27 -34 -59 -85 -174
-14 -31 -28 -77 -32 -103 -4 -25 -11 -49 -16 -52 -5 -3 -9 -1 -9 4 0 5 -26 17
-57 27 -92 29 -210 86 -193 94 29 12 95 59 117 82 12 13 24 38 28 54 6 28 5
27 -19 -11 -28 -46 -70 -81 -131 -109 -37 -17 -41 -17 -68 -1 -16 9 -36 16
-44 16 -10 0 -14 6 -10 20 3 11 1 22 -4 26 -5 3 1 15 12 27 11 12 27 34 34 48
13 24 18 26 55 19 74 -14 390 26 406 51 3 5 12 9 20 9 13 0 12 -5 -4 -27z
m-1378 -167 c4 -77 2 -77 -51 12 -28 46 -26 87 4 147 l16 30 14 -60 c7 -33 15
-91 17 -129z m1684 147 c36 -1 68 -7 70 -13 2 -5 27 -40 55 -78 133 -172 184
-304 173 -442 -10 -125 -45 -189 -104 -190 -42 0 -48 39 -17 105 25 52 27 65
21 127 -6 71 -24 141 -54 213 -10 23 -63 88 -124 152 -60 62 -108 119 -108
126 0 19 14 32 18 15 2 -9 23 -14 70 -15z m-88 -31 c0 -5 37 -46 83 -93 101
-103 140 -159 155 -221 7 -26 12 -49 12 -53 0 -8 -44 4 -155 42 -55 19 -129
43 -165 53 -66 19 -74 29 -46 58 11 11 19 11 34 3 26 -14 74 -15 53 -2 -11 7
-10 10 5 14 10 2 -3 5 -29 6 -45 1 -48 2 -41 24 6 20 39 96 67 155 10 21 27
30 27 14z m1477 -24 c-3 -7 -5 -2 -5 12 0 14 2 19 5 13 2 -7 2 -19 0 -25z
m-1612 -123 c-23 -47 -29 -40 -8 8 9 20 19 35 21 33 2 -3 -4 -21 -13 -41z
m-1307 8 c16 -16 37 -41 45 -58 8 -16 25 -41 36 -54 12 -13 21 -30 21 -38 0
-11 -5 -11 -30 2 -16 8 -38 15 -48 15 -10 0 -27 9 -36 19 -17 18 -46 100 -46
128 0 21 27 15 58 -14z m1083 -401 c-3 -103 -40 -293 -72 -377 l-24 -60 -3
148 c-2 110 2 163 14 210 16 62 74 181 83 171 3 -3 4 -44 2 -92z m-114 -389
c-3 -10 -5 -2 -5 17 0 19 2 27 5 18 2 -10 2 -26 0 -35z m-87 -45 c0 -2 5 -68
10 -147 11 -159 6 -196 -50 -334 -73 -184 -121 -254 -210 -313 -44 -29 -147
-41 -211 -24 -41 11 -89 45 -89 63 0 7 45 59 101 117 55 58 122 130 147 160
26 30 67 78 93 106 38 43 48 64 63 127 22 91 51 154 97 207 29 33 49 48 49 38z
m-334 -270 c-36 -68 -63 -110 -70 -108 -4 0 -37 -24 -74 -53 -37 -30 -86 -64
-109 -75 -23 -12 -62 -35 -86 -52 -25 -16 -48 -30 -52 -30 -8 0 -105 -45 -233
-107 -51 -25 -95 -43 -98 -41 -8 9 86 63 141 82 56 18 96 41 58 33 -15 -3 -20
-1 -17 8 3 7 21 16 41 20 39 7 202 95 223 120 7 8 18 15 25 15 8 0 15 3 17 8
2 4 28 26 58 50 30 23 87 71 125 107 39 36 71 65 72 65 1 0 -8 -19 -21 -42z
m-119 -205 c-56 -88 -148 -144 -247 -149 l-65 -4 45 21 c25 12 59 32 75 44 17
12 50 32 75 44 25 12 50 28 55 35 13 15 78 56 83 51 2 -2 -8 -21 -21 -42z
m-414 -570 c5 -47 3 -53 -20 -68 -13 -9 -25 -15 -26 -13 -1 2 -15 29 -30 60
l-29 57 34 43 c56 72 55 73 71 -79z m-193 -62 c23 -6 23 -8 5 -12 -11 -3 -40
-3 -65 -1 -35 4 -41 7 -25 13 24 9 52 9 85 0z m184 -263 c-9 -49 -18 -88 -21
-88 -2 0 -3 24 -2 53 1 28 -2 94 -6 145 -8 89 -7 93 16 118 l24 26 3 -84 c2
-50 -4 -118 -14 -170z"/>
<path d="M1760 3340 c-6 -11 -7 -20 -3 -20 5 0 14 9 21 20 7 11 8 20 2 20 -5
0 -14 -9 -20 -20z"/>
<path d="M1604 3062 c-13 -9 -25 -52 -14 -52 4 0 13 14 19 30 5 17 9 30 8 30
-1 0 -7 -4 -13 -8z"/>
<path d="M1565 2970 c-9 -10 -15 -26 -12 -35 7 -15 26 -21 28 -7 2 12 5 62 4
62 -1 0 -10 -9 -20 -20z"/>
<path d="M1372 3088 c-19 -19 -14 -28 14 -28 18 0 25 5 22 17 -4 21 -21 26
-36 11z"/>
<path d="M1479 3046 c-18 -13 -50 -33 -69 -44 -19 -12 -29 -22 -22 -22 15 0
100 47 121 68 24 23 6 22 -30 -2z"/>
<path d="M1336 3014 c-8 -21 -8 -24 3 -24 5 0 11 9 14 20 6 24 -8 27 -17 4z"/>
<path d="M1918 2960 c12 -5 22 -16 22 -24 0 -10 6 -13 17 -9 14 6 13 9 -7 25
-12 10 -30 18 -39 17 -11 0 -9 -3 7 -9z"/>
<path d="M1878 2948 c6 -6 18 -8 28 -6 14 3 12 5 -9 10 -19 3 -25 2 -19 -4z"/>
<path d="M1990 2910 c0 -5 5 -10 11 -10 5 0 7 5 4 10 -3 6 -8 10 -11 10 -2 0
-4 -4 -4 -10z"/>
<path d="M2806 5028 c-20 -23 -36 -46 -36 -52 0 -6 3 -6 9 0 60 67 82 94 73
94 -6 0 -27 -19 -46 -42z"/>
<path d="M3086 5055 c4 -8 8 -15 10 -15 2 0 4 7 4 15 0 8 -4 15 -10 15 -5 0
-7 -7 -4 -15z"/>
<path d="M3139 5053 c12 -23 43 -61 39 -48 -10 29 -32 65 -40 65 -5 0 -4 -8 1
-17z"/>
<path d="M2416 5043 c-6 -14 -5 -15 5 -6 7 7 10 15 7 18 -3 3 -9 -2 -12 -12z"/>
<path d="M200 5023 c0 -12 5 -25 11 -29 50 -31 69 -227 28 -284 -12 -16 -22
-45 -22 -69 -1 -22 -4 -41 -7 -41 -15 2 -68 60 -80 89 -12 30 -16 33 -47 28
-32 -6 -36 -3 -49 28 -8 19 -15 54 -15 77 -1 24 -5 57 -9 73 -5 21 -8 5 -9
-55 -1 -111 18 -156 66 -152 27 2 35 -3 47 -25 8 -16 27 -37 41 -48 15 -11 41
-44 58 -73 28 -50 51 -72 63 -59 3 2 -4 29 -16 58 -25 68 -26 129 -1 158 19
21 19 21 26 -45 6 -60 11 -72 49 -113 70 -77 98 -121 103 -162 9 -67 21 -43
28 61 4 55 10 100 14 99 12 -1 54 -62 67 -97 9 -28 18 -37 36 -37 25 0 26 4
12 188 -3 42 -2 77 2 77 12 0 54 -81 54 -102 0 -10 4 -18 9 -18 13 0 29 182
21 235 -4 30 -19 -39 -19 -94 l-1 -65 -37 44 c-47 54 -66 104 -59 153 4 22 2
37 -4 37 -5 0 -10 -6 -10 -12 0 -7 -9 2 -20 20 -11 18 -34 41 -50 50 -23 13
-28 22 -23 39 3 13 1 23 -5 23 -5 0 -13 -11 -16 -25 -8 -32 -23 -32 -77 4 -24
17 -45 28 -48 26 -10 -11 13 -37 59 -67 42 -27 56 -45 85 -106 41 -85 44 -127
15 -227 -11 -38 -20 -85 -20 -102 0 -40 -12 -42 -35 -6 -10 14 -36 46 -58 71
-35 38 -41 50 -40 85 1 23 -3 44 -9 48 -7 5 -5 31 6 86 22 108 19 144 -5 69
-26 -81 -33 -83 -25 -8 5 55 3 70 -19 115 -14 29 -34 63 -45 77 -19 25 -20 25
-20 3z"/>
<path d="M3238 5022 c-40 -24 -34 -33 8 -13 97 48 172 -1 214 -140 6 -20 26
-54 46 -75 64 -71 66 -91 6 -54 -18 11 -37 20 -42 20 -5 0 -36 18 -67 40 -32
22 -67 40 -78 40 -11 0 -33 12 -48 26 -16 14 -31 23 -35 19 -3 -3 -1 -10 7
-14 7 -4 14 -20 15 -35 2 -15 14 -39 28 -54 13 -15 51 -63 83 -107 90 -123
209 -245 278 -287 21 -13 60 -37 85 -54 26 -17 56 -34 67 -38 11 -3 36 -21 55
-39 19 -19 49 -42 65 -52 17 -11 37 -25 45 -32 33 -29 93 -64 99 -57 3 4 1 9
-6 11 -20 7 -155 107 -197 146 l-41 38 86 -45 c47 -25 97 -46 110 -46 20 1 19
3 -11 14 -19 7 -55 25 -80 39 -25 15 -61 34 -80 43 -19 9 -67 48 -105 88 -39
39 -87 85 -107 102 -20 17 -57 63 -83 102 -25 39 -54 74 -65 77 -10 3 -20 12
-23 19 -3 7 -20 24 -39 37 l-33 24 29 -35 c15 -19 44 -48 62 -63 19 -16 44
-47 55 -69 11 -21 43 -62 72 -89 150 -144 187 -182 182 -187 -2 -3 -22 7 -43
22 -21 14 -43 26 -50 26 -32 0 -194 156 -292 281 -27 35 -62 79 -77 98 -16 19
-36 48 -46 64 -18 29 -18 29 0 22 10 -4 29 -10 43 -13 13 -3 41 -17 61 -31 20
-15 55 -35 79 -46 24 -11 58 -32 74 -47 16 -15 32 -26 34 -23 12 12 -15 72
-54 117 -28 33 -49 71 -60 107 -12 42 -27 66 -61 99 -40 37 -51 42 -92 42 -25
0 -58 -8 -73 -18z"/>
<path d="M114 4998 c4 -13 12 -52 18 -88 6 -36 15 -77 20 -92 12 -33 33 -38
24 -5 -4 12 -11 45 -16 72 -16 84 -32 135 -42 135 -6 0 -7 -10 -4 -22z"/>
<path d="M702 4995 c26 -14 49 -29 53 -35 3 -5 18 -10 33 -10 23 0 17 6 -36
35 -34 19 -70 35 -80 35 -9 -1 4 -12 30 -25z"/>
<path d="M2965 5000 c-48 -25 -114 -107 -126 -158 -12 -51 -11 -82 2 -82 6 0
9 7 5 15 -9 26 21 104 59 151 39 47 75 71 118 76 38 5 46 18 11 18 -16 0 -47
-9 -69 -20z"/>
<path d="M1120 5000 c0 -16 42 -80 53 -80 4 0 -5 19 -19 43 -33 52 -34 53 -34
37z"/>
<path d="M3549 4948 c-27 -29 -49 -59 -49 -66 0 -7 21 11 47 40 54 61 64 67
118 61 30 -4 36 -2 25 6 -8 6 -32 11 -53 11 -34 0 -45 -7 -88 -52z"/>
<path d="M2224 4965 c-7 -18 3 -35 20 -35 9 0 12 9 8 25 -5 28 -20 33 -28 10z"/>
<path d="M2954 4946 c-31 -30 -54 -81 -54 -117 0 -31 17 -22 44 24 24 43 73
87 109 100 32 12 17 27 -25 26 -34 -1 -50 -8 -74 -33z m22 -29 c-41 -39 -59
-44 -38 -9 11 16 74 63 80 58 2 -3 -17 -24 -42 -49z"/>
<path d="M3717 4938 c7 -59 10 -68 28 -68 11 0 13 4 6 18 -6 9 -13 34 -16 55
-8 51 -24 47 -18 -5z"/>
<path d="M3104 4918 c-4 -12 -30 -45 -59 -73 l-53 -50 -6 -100 c-7 -106 -1
-198 16 -228 5 -11 7 -34 3 -53 -3 -19 -2 -34 4 -34 8 0 91 133 91 146 0 3 20
35 43 72 24 37 50 82 57 100 14 37 20 35 36 -11 9 -26 8 -37 -5 -60 -8 -15
-21 -25 -28 -23 -21 9 -49 -32 -61 -87 -11 -52 -8 -314 3 -326 9 -8 42 37 62
86 10 24 21 43 25 43 4 0 10 -17 14 -37 9 -57 49 -118 84 -133 17 -7 45 -31
62 -54 40 -51 78 -85 98 -86 8 0 31 10 50 22 l35 23 -44 5 c-32 4 -49 12 -63
31 -18 24 -19 32 -9 100 15 93 6 192 -26 296 -22 71 -31 85 -60 103 -19 11
-45 23 -59 26 -14 4 -27 16 -30 30 -3 13 -10 21 -15 18 -16 -9 -39 62 -39 118
0 29 -6 64 -13 78 -11 22 -18 25 -60 22 l-47 -4 6 31 c7 36 -1 42 -12 9z m104
-81 c7 -18 12 -41 12 -49 0 -19 -51 -125 -90 -188 -16 -25 -42 -70 -58 -100
-17 -30 -34 -56 -40 -58 -25 -8 -41 144 -28 273 3 28 5 55 5 62 1 21 73 84 90
78 9 -2 23 0 31 5 8 5 26 10 40 10 20 0 29 -7 38 -33z m62 -244 c21 -47 42
-106 55 -158 7 -27 14 -40 14 -29 1 23 -27 114 -53 177 l-17 38 40 -21 c22
-11 47 -20 55 -20 19 0 36 -33 64 -120 23 -71 28 -165 17 -295 l-7 -80 38 -28
c29 -20 34 -27 20 -27 -11 0 -47 29 -80 64 -34 35 -76 73 -94 85 -38 26 -62
68 -62 108 0 15 -7 41 -15 56 -21 40 -31 194 -16 240 15 44 24 46 41 10z"/>
<path d="M3135 4784 c-25 -25 -45 -48 -45 -52 0 -3 23 16 50 43 28 27 50 51
50 52 0 10 -15 -2 -55 -43z"/>
<path d="M3057 4698 c-10 -17 -16 -32 -14 -35 6 -6 39 47 35 57 -2 5 -11 -4
-21 -22z"/>
<path d="M3333 4365 c-3 -9 -3 -18 -1 -21 3 -3 8 4 11 16 6 23 -1 27 -10 5z"/>
<path d="M2193 4893 c9 -2 17 -11 17 -19 0 -8 5 -14 10 -14 6 0 10 4 10 8 0
14 -23 32 -39 31 -12 -1 -12 -2 2 -6z"/>
<path d="M3607 4874 c-15 -15 -6 -24 23 -24 17 0 30 5 30 10 0 6 -4 10 -9 10
-5 0 -16 2 -23 5 -8 3 -17 2 -21 -1z"/>
<path d="M3573 4833 c9 -2 23 -2 30 0 6 3 -1 5 -18 5 -16 0 -22 -2 -12 -5z"/>
<path d="M3685 4831 c-4 -7 5 -11 24 -11 51 0 91 -59 89 -134 -1 -51 -8 -55
-53 -28 -16 10 -42 22 -57 25 -42 11 -62 49 -55 102 8 54 -9 61 -19 9 -15 -80
6 -104 141 -161 35 -15 45 -23 34 -28 -23 -9 -13 -47 25 -88 37 -41 56 -78 56
-112 0 -29 26 -45 75 -45 20 0 46 -5 58 -11 11 -7 62 -13 112 -14 49 -2 108
-6 130 -10 31 -5 52 -1 95 19 l55 25 -47 0 c-53 1 -94 16 -103 39 -8 20 -6 21
66 34 55 9 70 17 109 54 24 24 52 47 62 50 22 7 24 24 3 24 -8 0 -15 -5 -15
-10 0 -6 -11 -15 -25 -20 -14 -5 -28 -16 -31 -25 -9 -22 -63 -52 -109 -59 -22
-4 -48 -9 -57 -12 -17 -5 -29 35 -43 152 -6 47 -5 52 21 69 39 25 93 30 138
11 21 -9 62 -16 90 -17 28 0 69 -6 91 -13 l40 -12 -32 -17 c-18 -10 -33 -24
-33 -33 0 -12 7 -10 33 9 17 14 50 31 72 38 l40 13 -55 7 c-30 4 -68 12 -83
18 -16 6 -54 11 -85 11 -31 1 -68 7 -82 15 -37 21 -78 18 -125 -10 l-42 -24
-42 21 c-23 11 -56 21 -73 23 -25 2 -32 7 -35 26 -6 44 -97 101 -122 76 -6 -6
-18 -4 -32 7 -13 9 -35 16 -49 16 -21 0 -19 -3 17 -19 30 -14 48 -31 62 -60
24 -45 29 -93 9 -73 -7 7 -18 12 -26 12 -24 0 -76 49 -103 98 -23 43 -30 47
-66 50 -23 2 -44 -2 -48 -7z m302 -53 c40 -28 50 -68 32 -137 -13 -52 -12 -56
24 -116 7 -12 22 -32 35 -45 30 -32 12 -37 -41 -11 -24 12 -48 21 -53 21 -5 0
-33 16 -62 35 l-52 36 -1 57 c-1 31 -3 49 -6 40 -5 -20 -5 -20 -27 -12 -20 8
-21 54 -2 54 8 0 18 -4 21 -10 3 -5 14 -10 24 -10 10 0 24 -7 31 -15 7 -8 23
-15 36 -15 23 0 24 2 18 43 -4 23 -14 52 -21 64 -14 20 -11 43 4 43 4 0 22
-10 40 -22z m179 -135 c15 -23 23 -56 29 -115 4 -45 11 -91 16 -100 26 -48
-35 13 -93 93 -16 23 -32 39 -34 36 -3 -3 9 -25 27 -51 18 -25 30 -48 26 -52
-7 -7 -59 48 -93 100 -22 34 -24 42 -13 75 15 48 31 59 76 52 27 -5 43 -15 59
-38z"/>
<path d="M382 4750 c-14 -48 -16 -190 -2 -190 6 0 10 35 10 84 0 47 5 88 10
91 12 7 14 55 2 55 -4 0 -13 -18 -20 -40z"/>
<path d="M2233 4755 c0 -18 19 -15 25 3 2 7 -3 12 -10 12 -8 0 -15 -7 -15 -15z"/>
<path d="M2216 4713 c-6 -14 -5 -15 5 -6 7 7 10 15 7 18 -3 3 -9 -2 -12 -12z"/>
<path d="M2260 4650 c0 -13 5 -20 13 -17 6 2 12 10 12 17 0 7 -6 15 -12 18 -8
2 -13 -5 -13 -18z"/>
<path d="M4434 4609 c-4 -6 -20 -8 -39 -5 -19 4 -36 2 -40 -4 -3 -5 -15 -10
-25 -10 -10 0 -21 -4 -25 -9 -10 -17 95 -1 134 19 20 11 29 19 19 20 -9 0 -20
-5 -24 -11z"/>
<path d="M4245 4560 c-3 -6 1 -7 9 -4 18 7 21 14 7 14 -6 0 -13 -4 -16 -10z"/>
<path d="M2311 4524 c0 -11 3 -14 6 -6 3 7 2 16 -1 19 -3 4 -6 -2 -5 -13z"/>
<path d="M2207 4440 c-3 -11 -2 -20 3 -20 4 0 10 9 13 20 3 11 2 20 -3 20 -4
0 -10 -9 -13 -20z"/>
<path d="M212 4416 c-11 -24 -10 -33 4 -54 15 -22 15 -28 -1 -78 -11 -34 -16
-76 -13 -115 l3 -61 -20 28 c-11 15 -35 44 -52 63 -18 19 -33 40 -33 48 0 7
-10 13 -22 13 -16 0 -31 13 -48 41 -31 51 -38 29 -10 -35 16 -39 23 -46 40
-41 11 3 20 2 20 -3 0 -5 19 -29 43 -54 23 -25 56 -66 74 -91 35 -49 106 -86
140 -72 17 7 17 8 -1 18 -66 41 -83 56 -98 87 -23 46 -23 103 2 175 18 51 18
61 6 80 -8 12 -16 35 -18 51 l-4 29 -12 -29z"/>
<path d="M5678 4340 c-41 -39 -78 -65 -137 -96 -62 -33 -90 -54 -70 -54 27 0
-24 -38 -67 -50 -49 -14 -67 -30 -34 -30 20 0 107 42 161 78 138 91 185 134
177 164 -2 9 -11 5 -30 -12z m-138 -129 c0 -5 -7 -12 -16 -15 -24 -9 -28 -7
-14 9 14 17 30 20 30 6z"/>
<path d="M386 4143 c27 -113 40 -228 30 -269 l-8 -29 -19 25 c-35 47 -19 3 31
-80 27 -46 54 -104 60 -129 28 -125 55 -199 67 -187 8 8 -8 107 -17 101 -9 -5
-30 48 -30 75 0 10 -17 53 -39 95 -37 73 -38 78 -24 107 12 22 14 57 12 143
-4 100 -7 116 -25 134 -12 10 -26 40 -33 65 -6 25 -15 46 -20 46 -4 0 2 -44
15 -97z m41 -85 c-3 -8 -6 -5 -6 6 -1 11 2 17 5 13 3 -3 4 -12 1 -19z"/>
<path d="M4066 4205 c10 -8 26 -15 36 -15 9 0 32 -16 51 -35 35 -35 61 -44
197 -71 153 -29 358 -38 530 -22 85 8 199 40 163 46 -12 2 -41 -3 -65 -11 -72
-24 -334 -39 -443 -25 -216 28 -336 58 -363 93 -10 12 -32 26 -50 30 -18 3
-32 11 -32 16 0 5 -10 9 -22 9 -21 0 -21 0 -2 -15z"/>
<path d="M5375 4170 c-33 -21 -133 -40 -210 -40 -27 0 -57 -5 -65 -11 -12 -8
-8 -9 15 -8 17 1 48 1 70 0 62 -4 20 -17 -125 -40 -117 -19 -165 -23 -364 -36
-142 -9 -95 -18 59 -11 141 6 197 13 419 50 49 8 93 13 97 11 9 -6 69 15 69
24 0 4 -13 6 -30 3 -52 -7 -33 6 38 27 37 11 76 27 87 35 19 15 19 15 -5 15
-14 0 -38 -9 -55 -19z"/>
<path d="M4103 4090 c14 -11 38 -20 54 -20 16 0 92 -11 169 -25 134 -24 214
-32 201 -19 -3 3 -23 8 -44 10 -88 11 -339 56 -355 65 -10 5 -25 9 -34 9 -13
0 -10 -5 9 -20z"/>
<path d="M495 4016 c9 -13 28 -27 42 -31 32 -8 113 -62 113 -75 0 -17 109
-117 146 -135 19 -9 54 -37 77 -61 52 -55 103 -88 113 -72 4 7 -1 17 -11 22
-10 6 -28 20 -39 31 -12 11 -41 35 -66 54 -25 19 -54 44 -66 55 -49 50 -90 82
-102 78 -7 -2 -12 3 -12 11 0 20 -87 91 -150 121 -30 14 -55 26 -57 26 -2 0 4
-11 12 -24z"/>
<path d="M10 4005 c0 -17 7 -28 23 -34 41 -16 66 28 28 49 -33 17 -51 12 -51
-15z"/>
<path d="M4578 4023 c7 -3 16 -2 19 1 4 3 -2 6 -13 5 -11 0 -14 -3 -6 -6z"/>
<path d="M3 3883 c1 -49 4 -60 14 -50 20 21 20 63 -1 92 -13 18 -14 13 -13
-42z"/>
<path d="M318 3803 c-9 -10 -25 -37 -37 -60 -25 -51 -83 -100 -136 -115 -22
-6 -44 -15 -50 -20 -15 -13 38 -9 66 6 14 7 39 11 55 9 20 -3 38 2 57 17 28
22 37 46 13 37 -8 -3 0 22 21 65 35 72 38 92 11 61z"/>
<path d="M82 3752 c5 -18 1 -25 -20 -33 -24 -9 -24 -11 -9 -26 15 -15 18 -15
37 2 24 22 26 48 3 66 -15 13 -16 12 -11 -9z"/>
<path d="M4250 3599 c-12 -9 -11 -10 8 -6 32 7 27 2 -25 -27 -53 -30 -67 -28
-27 3 15 11 21 21 14 21 -6 0 -25 -13 -40 -30 -33 -35 -40 -37 -40 -11 0 27
-24 43 -73 48 -34 4 -47 1 -67 -17 -17 -14 -19 -20 -8 -16 10 3 19 2 22 -2 3
-5 28 -14 56 -22 39 -11 54 -20 65 -43 16 -33 20 -61 5 -37 -8 12 -13 12 -42
-3 -33 -17 -33 -18 -4 -12 19 4 32 1 37 -7 13 -20 32 6 31 42 -1 31 7 37 24
20 8 -8 18 -5 35 9 19 16 21 20 7 21 -9 0 -18 -6 -21 -12 -2 -7 -8 -10 -12 -6
-14 13 15 37 76 60 32 13 59 26 59 30 0 12 -63 9 -80 -3z m-151 -22 c27 -14
40 -37 19 -37 -19 0 -98 34 -98 43 0 11 53 8 79 -6z"/>
<path d="M770 3531 c0 -32 -6 -43 -34 -65 -19 -14 -39 -26 -45 -26 -6 0 -11
-4 -11 -10 0 -20 27 -9 68 26 36 30 42 41 42 75 0 21 -4 39 -10 39 -5 0 -10
-17 -10 -39z"/>
<path d="M3598 3554 c-35 -19 -36 -27 -2 -14 38 15 44 13 44 -15 0 -24 9 -30
38 -26 6 1 12 -5 12 -14 0 -14 13 -20 35 -15 37 8 55 6 55 -6 0 -8 9 -14 20
-14 13 0 18 -5 14 -15 -5 -11 -2 -13 10 -9 12 4 16 0 16 -15 0 -13 6 -21 16
-21 11 0 14 -5 10 -16 -7 -20 10 -44 32 -44 23 0 92 72 92 97 0 16 5 20 20 16
11 -3 20 -9 20 -14 0 -5 7 -9 15 -9 41 0 -2 32 -58 45 -30 6 -30 3 -10 -51 2
-5 -8 -16 -22 -24 -14 -7 -25 -19 -25 -27 0 -8 -12 -13 -30 -13 -28 0 -30 2
-20 21 10 17 8 21 -9 26 -12 3 -21 12 -21 20 0 16 -24 43 -38 43 -6 0 -13 7
-16 16 -5 13 -15 15 -44 10 -30 -4 -40 -2 -49 13 -8 13 -19 18 -33 14 -17 -5
-20 -1 -20 26 0 35 -11 38 -52 15z"/>
<path d="M4325 3553 c-11 -2 -30 -6 -42 -9 -13 -2 -23 -10 -23 -17 0 -7 -16
-21 -36 -30 -30 -15 -35 -22 -30 -40 3 -12 6 -34 6 -48 0 -18 8 -29 25 -37 31
-14 32 -38 3 -63 -14 -11 -18 -18 -10 -19 14 0 51 38 52 53 0 5 -14 22 -30 37
-33 31 -32 60 2 60 10 0 17 4 14 9 -8 12 18 21 59 21 53 0 51 -18 -2 -23 l-48
-3 57 -2 c63 -2 80 8 43 28 -24 13 -102 10 -137 -5 -10 -4 -18 -3 -18 2 0 9
56 41 95 54 20 7 20 7 0 9 -12 1 -7 5 15 10 23 6 37 5 42 -3 4 -6 10 -8 13 -5
10 9 -4 28 -18 27 -7 -1 -21 -3 -32 -6z"/>
<path d="M4980 3473 c-25 -5 -70 -43 -51 -43 5 0 13 5 16 11 4 6 13 8 21 5 7
-3 16 -1 19 4 22 36 81 -30 69 -76 -6 -22 -3 -24 27 -23 28 2 30 3 8 6 -21 3
-25 8 -22 27 6 30 -36 99 -57 94 -3 0 -16 -3 -30 -5z"/>
<path d="M4847 3455 c-4 -8 -16 -15 -27 -15 -16 0 -20 -6 -20 -33 0 -55 -20
-87 -57 -89 -18 -1 -40 -2 -49 -2 -11 -1 -18 9 -20 28 -3 33 -2 31 -37 40 -20
5 -27 3 -26 -6 1 -7 -3 -26 -9 -41 -9 -22 -17 -27 -32 -22 -14 5 -20 2 -20 -9
0 -32 39 -17 62 24 26 46 44 47 42 2 -2 -37 17 -44 78 -30 53 13 78 40 78 84
0 27 6 36 29 48 16 9 32 12 36 8 4 -4 6 -1 3 7 -6 21 -25 24 -31 6z"/>
<path d="M4437 3393 c-3 -5 -7 -24 -10 -43 -6 -34 -6 -34 5 -7 8 17 17 26 26
22 7 -3 25 -5 39 -5 22 0 24 -2 13 -15 -14 -17 -8 -31 9 -20 15 9 14 52 -1 61
-6 4 -14 2 -16 -4 -5 -17 -28 -15 -46 3 -8 8 -17 12 -19 8z"/>
<path d="M5505 3374 l-30 -26 29 17 c27 16 30 16 41 1 18 -24 26 -19 13 9 -14
31 -16 31 -53 -1z"/>
<path d="M1856 3355 c-9 -26 -7 -32 5 -12 6 10 9 21 6 23 -2 3 -7 -2 -11 -11z"/>
<path d="M5412 3345 c-12 -14 -26 -25 -31 -25 -5 0 -11 -9 -14 -20 -3 -11 -9
-20 -14 -19 -24 4 -33 -4 -33 -31 0 -29 -13 -40 -25 -21 -3 6 -18 6 -36 1 -67
-20 -140 21 -115 63 8 15 8 21 -1 24 -7 3 -13 12 -13 21 0 14 -2 15 -9 3 -6
-9 -6 -22 0 -33 9 -17 5 -22 -13 -19 -16 2 -7 -15 22 -43 28 -26 38 -29 120
-32 l90 -4 0 30 c0 22 4 28 15 24 9 -4 16 3 21 20 4 16 12 25 22 24 10 -2 18
7 22 22 4 17 12 24 24 22 11 -2 15 1 11 7 -10 17 -19 13 -43 -14z"/>
<path d="M5597 3325 c27 -36 42 -31 27 9 -3 9 -15 16 -26 16 -18 0 -18 -1 -1
-25z"/>
<path d="M4390 3320 c0 -5 5 -10 11 -10 5 0 7 5 4 10 -3 6 -8 10 -11 10 -2 0
-4 -4 -4 -10z"/>
<path d="M1836 3294 c-4 -14 -5 -28 -3 -31 3 -2 8 8 11 23 4 14 5 28 3 31 -3
2 -8 -8 -11 -23z"/>
<path d="M4346 3305 c-11 -8 -15 -15 -10 -15 6 0 19 7 30 15 10 8 15 14 9 14
-5 0 -19 -6 -29 -14z"/>
<path d="M4280 3280 c0 -5 5 -10 10 -10 6 0 10 5 10 10 0 6 -4 10 -10 10 -5 0
-10 -4 -10 -10z"/>
<path d="M2291 3021 c-10 -6 -10 -10 -1 -16 13 -8 24 -1 19 14 -3 6 -10 7 -18
2z"/>
<path d="M32 2919 c-17 -5 -32 -16 -32 -24 0 -14 4 -13 36 0 52 22 109 10 156
-33 21 -19 38 -37 38 -41 0 -18 -82 -45 -150 -50 l-75 -6 -3 -146 c-3 -158 4
-194 41 -208 18 -7 26 -20 30 -49 5 -25 20 -53 42 -78 33 -36 34 -40 18 -51
-28 -21 -51 -15 -93 23 l-40 36 0 -86 c0 -83 1 -87 25 -98 20 -9 28 -9 38 1 9
9 6 16 -14 34 -30 25 -41 48 -30 66 6 9 17 7 46 -5 35 -14 42 -14 71 -1 28 14
34 14 53 1 11 -8 21 -25 21 -38 0 -30 39 -87 70 -103 62 -32 149 -1 176 62 17
41 18 89 3 117 -15 28 -8 30 39 12 45 -18 86 -13 96 12 4 11 0 14 -17 12 -19
-3 -28 9 -62 75 -25 49 -49 83 -65 90 -14 7 -40 34 -58 61 -99 149 -195 201
-265 146 -32 -25 -47 -25 -40 0 3 10 -5 35 -16 54 l-22 35 48 6 c26 3 64 12
83 20 19 8 51 17 70 20 42 7 80 25 80 37 0 5 -14 7 -30 3 -27 -6 -35 -1 -73
40 -54 60 -115 77 -195 54z m13 -257 c-17 -15 -18 -15 -6 0 7 9 9 23 5 30 -6
10 -4 11 7 0 11 -10 10 -15 -6 -30z m222 -51 c54 -42 89 -82 115 -130 10 -17
31 -39 48 -49 22 -12 40 -36 61 -81 16 -35 29 -67 29 -72 0 -5 -21 1 -46 11
-25 11 -57 20 -71 20 -15 0 -41 12 -60 26 l-34 26 -40 -20 c-49 -24 -73 -19
-98 22 -35 56 -65 209 -45 229 10 10 55 -24 114 -85 56 -58 102 -80 123 -59 8
8 4 11 -18 11 -23 0 -44 16 -99 73 -39 41 -80 78 -90 84 -27 15 -11 33 29 33
23 0 47 -11 82 -39z m-146 -184 c30 -90 48 -113 95 -121 34 -7 34 -7 17 -31
-25 -33 -37 -31 -87 15 -31 29 -45 51 -49 78 -4 24 -17 46 -36 62 -16 14 -32
39 -36 56 l-6 31 38 -6 c37 -6 39 -8 64 -84z m184 -107 c-3 -5 -12 -10 -18
-10 -7 0 -6 4 3 10 19 12 23 12 15 0z"/>
<path d="M2726 2901 c-12 -5 -16 -10 -9 -14 6 -4 18 -4 27 -1 9 3 16 1 16 -5
0 -6 5 -11 10 -11 16 0 11 27 -6 34 -9 3 -16 6 -17 5 -1 0 -11 -4 -21 -8z"/>
<path d="M3720 2892 c0 -5 22 -30 49 -55 27 -25 59 -59 71 -74 l22 -28 -17 30
c-10 17 -27 41 -39 54 -18 20 -18 23 -3 18 28 -11 19 0 -29 32 -48 33 -54 36
-54 23z"/>
<path d="M0 2840 c0 -5 16 -10 35 -10 19 0 35 5 35 10 0 6 -16 10 -35 10 -19
0 -35 -4 -35 -10z"/>
<path d="M2726 2821 c-4 -5 4 -7 16 -4 l23 6 -24 -27 c-29 -31 -20 -34 16 -6
14 11 32 20 39 20 8 0 14 5 14 10 0 12 -77 13 -84 1z"/>
<path d="M2517 2793 c-16 -8 -26 -17 -24 -20 6 -5 67 24 67 32 0 8 -13 4 -43
-12z"/>
<path d="M2676 2795 c-11 -8 -15 -15 -10 -15 6 0 19 7 30 15 10 8 15 14 9 14
-5 0 -19 -6 -29 -14z"/>
<path d="M3653 2755 c0 -33 2 -45 4 -27 2 18 2 45 0 60 -2 15 -4 0 -4 -33z"/>
<path d="M2438 2763 c6 -2 18 -2 25 0 6 3 1 5 -13 5 -14 0 -19 -2 -12 -5z"/>
<path d="M2686 2755 c-11 -8 -15 -15 -9 -15 6 0 16 7 23 15 16 19 11 19 -14 0z"/>
<path d="M2985 2750 c3 -5 13 -10 21 -10 8 0 14 5 14 10 0 6 -9 10 -21 10 -11
0 -17 -4 -14 -10z"/>
<path d="M2630 2720 c-14 -11 -40 -25 -58 -31 -18 -6 -31 -13 -29 -16 8 -7 90
32 106 50 18 22 12 21 -19 -3z"/>
<path d="M2985 2685 c17 -14 36 -30 42 -35 7 -6 25 -12 40 -14 16 -2 22 -1 15
1 -7 3 -10 9 -7 14 4 5 -2 9 -12 9 -10 0 -38 11 -63 25 l-45 25 30 -25z"/>
<path d="M3197 2664 c-3 -4 -25 -7 -49 -7 -24 0 -33 -2 -20 -4 12 -3 20 -9 17
-14 -4 -5 13 -9 37 -8 24 0 38 3 31 5 -7 3 -9 12 -6 20 5 15 1 18 -10 8z"/>
<path d="M3234 2625 c-8 -20 41 -66 62 -58 8 3 14 2 12 -3 -6 -19 41 -51 90
-61 28 -5 49 -6 46 -1 -3 4 -16 8 -30 8 -17 0 -23 4 -18 12 5 8 2 9 -9 5 -10
-3 -17 -3 -17 1 0 5 -12 13 -27 20 -25 10 -23 10 20 5 28 -3 47 -1 47 5 0 5
-23 13 -52 16 -72 10 -122 32 -114 51 3 8 3 15 0 15 -2 0 -7 -7 -10 -15z"/>
<path d="M2945 2570 c-17 -8 -16 -9 7 -7 15 2 30 6 34 10 10 10 -17 8 -41 -3z"/>
<path d="M2977 2459 c7 -7 15 -10 18 -7 3 3 -2 9 -12 12 -14 6 -15 5 -6 -5z"/>
<path d="M3070 2410 c19 -11 40 -19 45 -19 6 0 -6 8 -25 19 -19 11 -39 19 -45
19 -5 0 6 -8 25 -19z"/>
<path d="M0 2390 c0 -5 5 -10 11 -10 5 0 7 5 4 10 -3 6 -8 10 -11 10 -2 0 -4
-4 -4 -10z"/>
<path d="M3096 2360 c16 -16 36 -30 45 -30 8 0 20 -5 27 -12 7 -7 12 -8 12 -2
-1 12 -38 39 -67 48 -13 4 -23 12 -23 17 0 5 -5 9 -12 9 -6 0 2 -13 18 -30z"/>
<path d="M30 2340 c0 -5 5 -10 10 -10 6 0 10 5 10 10 0 6 -4 10 -10 10 -5 0
-10 -4 -10 -10z"/>
<path d="M3642 2308 c6 -18 28 -21 28 -4 0 9 -7 16 -16 16 -9 0 -14 -5 -12
-12z"/>
<path d="M1351 2188 c0 -27 4 -48 9 -48 11 0 11 21 0 65 -7 27 -8 25 -9 -17z"/>
<path d="M1373 2050 c0 -25 2 -35 4 -22 2 12 2 32 0 45 -2 12 -4 2 -4 -23z"/>
<path d="M1357 1968 c-3 -18 -1 -37 4 -42 5 -6 9 7 9 32 0 50 -6 54 -13 10z"/>
<path d="M1335 1808 c-3 -24 -9 -52 -11 -63 -4 -16 -3 -17 4 -5 11 17 26 110
18 110 -2 0 -7 -19 -11 -42z"/>
<path d="M485 1409 c-4 -11 -4 -23 -1 -27 10 -9 39 25 32 37 -11 17 -24 13
-31 -10z"/>
<path d="M1206 1389 c-3 -17 -6 -61 -6 -98 l0 -66 20 25 c14 18 19 39 18 75
l-1 50 -4 -45 c-3 -25 -9 -49 -15 -55 -7 -7 -9 13 -5 68 6 82 4 97 -7 46z"/>
<path d="M804 1262 c5 -46 15 -66 24 -43 4 11 6 11 13 0 14 -23 20 -3 9 27 -9
22 -13 25 -20 14 -8 -13 -10 -12 -14 0 -13 41 -16 41 -12 2z"/>
<path d="M1130 1231 c5 -11 10 -62 10 -113 0 -64 3 -88 10 -78 23 35 5 210
-21 210 -6 0 -5 -8 1 -19z"/>
<path d="M880 1229 c0 -5 5 -7 10 -4 6 3 10 8 10 11 0 2 -4 4 -10 4 -5 0 -10
-5 -10 -11z"/>
<path d="M497 1216 c-11 -27 -8 -36 8 -36 16 0 17 5 6 34 -7 18 -8 18 -14 2z"/>
<path d="M500 1040 c0 -5 5 -10 11 -10 5 0 7 5 4 10 -3 6 -8 10 -11 10 -2 0
-4 -4 -4 -10z"/>
<path d="M210 1011 c0 -20 -74 -87 -125 -113 -26 -14 -32 -14 -52 -1 -27 18
-30 7 -5 -20 16 -19 16 -20 -5 -34 -35 -23 -28 -36 15 -28 24 4 46 18 64 40
15 18 52 49 81 68 76 51 83 61 58 86 -26 26 -31 26 -31 2z"/>
<path d="M50 975 c-7 -8 -10 -19 -6 -22 9 -9 38 8 38 22 -1 16 -18 16 -32 0z"/>
<path d="M508 954 c-5 -4 -8 -28 -8 -53 1 -36 3 -42 11 -28 11 19 8 93 -3 81z"/>
<path d="M181 763 c-6 -21 -7 -41 -3 -45 13 -13 65 -13 69 0 3 7 -5 12 -22 12
-26 0 -27 2 -21 35 9 47 -10 46 -23 -2z"/>
<path d="M0 571 c0 -12 5 -21 10 -21 6 0 10 6 10 14 0 8 -4 18 -10 21 -5 3
-10 -3 -10 -14z"/>
<path d="M240 581 c0 -4 -10 -6 -23 -4 -14 3 -29 -3 -41 -16 -23 -25 -13 -40
13 -24 16 10 20 9 24 -8 7 -27 20 -24 40 10 21 36 22 51 2 51 -8 0 -15 -4 -15
-9z"/>
<path d="M384 554 c-8 -21 -49 -108 -90 -192 -41 -83 -74 -155 -74 -160 0 -4
-23 -36 -50 -71 -28 -36 -50 -72 -50 -80 1 -12 5 -10 18 7 9 13 29 38 43 55
15 18 41 60 58 95 17 34 37 62 45 62 15 0 26 21 31 63 2 15 18 53 35 85 28 54
63 162 54 171 -2 2 -11 -13 -20 -35z"/>
<path d="M59 443 c-6 -18 -6 -30 1 -37 14 -14 42 -17 56 -5 6 5 22 8 35 7 15
-2 24 3 27 13 5 24 -27 32 -55 14 -28 -19 -47 -11 -40 16 8 29 -12 23 -24 -8z"/>
<path d="M190 443 c0 -5 6 -17 13 -27 12 -16 14 -16 26 -2 16 19 14 21 -16 30
-13 4 -23 3 -23 -1z"/>
<path d="M1 274 c0 -11 3 -14 6 -6 3 7 2 16 -1 19 -3 4 -6 -2 -5 -13z"/>
<path d="M16 165 c-9 -14 -13 -25 -9 -25 5 0 13 -10 18 -22 15 -33 28 -31 53
5 30 45 28 70 -3 32 l-24 -30 -1 33 c0 38 -12 41 -34 7z"/>
</g>
</svg>
