<?xml version="1.0" standalone="no"?>
<!DOCTYPE svg PUBLIC "-//W3C//DTD SVG 20010904//EN"
 "http://www.w3.org/TR/2001/REC-SVG-20010904/DTD/svg10.dtd">
<svg version="1.0" xmlns="http://www.w3.org/2000/svg"
 width="468pt" height="211pt" viewBox="0 0 468 211"
 preserveAspectRatio="xMidYMid meet">
<metadata>
Created by potrace 1.8, written by Peter Selinger 2001-2007
</metadata>
<g transform="translate(0,211) scale(0.156000,-0.156000)"
fill="#000000" stroke="none">
<path d="M727 1257 c-5 -32 -6 -61 -3 -64 9 -9 18 42 14 83 -3 36 -4 35 -11
-19z"/>
<path d="M773 1255 c0 -33 2 -45 4 -27 2 18 2 45 0 60 -2 15 -4 0 -4 -33z"/>
<path d="M718 1076 c-5 -60 -8 -134 -8 -165 0 -31 -3 -66 -6 -78 -6 -22 -9
-21 -63 25 -31 26 -92 79 -137 119 -66 60 -134 104 -134 89 0 -2 66 -61 146
-132 81 -70 142 -130 135 -132 -6 -2 -28 9 -49 24 l-37 27 29 -31 c24 -26 27
-34 16 -47 -7 -8 -25 -15 -39 -15 -43 0 -132 -29 -183 -60 l-46 -29 -42 37
c-24 20 -66 58 -94 84 -28 25 -52 45 -54 44 -9 -10 20 -42 94 -105 46 -40 84
-75 84 -79 0 -4 -9 -21 -19 -39 -13 -21 -44 -44 -93 -68 -70 -35 -113 -65 -93
-65 6 0 34 14 64 30 65 36 92 40 36 5 -22 -14 -33 -25 -24 -25 18 0 111 39 94
40 -5 0 5 9 23 20 53 33 95 27 150 -22 26 -24 49 -44 52 -46 3 -2 -3 -9 -13
-16 -9 -7 -17 -17 -17 -21 0 -5 8 0 19 9 18 16 20 15 39 -16 l21 -33 -37 -22
c-20 -13 -41 -23 -46 -23 -5 0 -7 -3 -4 -6 3 -3 25 4 48 16 23 12 45 19 48 16
3 -3 3 -8 1 -10 -9 -9 -135 -71 -144 -71 -19 -1 -95 -39 -95 -47 0 -5 -15 -17
-33 -28 -67 -42 -2 -17 138 51 136 66 147 70 159 53 12 -15 17 -16 43 -5 27
11 32 10 63 -19 46 -43 67 -53 73 -36 3 8 -1 20 -9 26 -8 7 -14 9 -14 5 0 -4
-9 4 -21 19 -11 14 -24 24 -29 21 -16 -10 -32 23 -21 43 5 10 11 72 12 136 2
64 7 120 12 123 4 3 20 0 35 -5 15 -6 44 -13 65 -17 32 -5 37 -9 37 -34 0 -49
-12 -121 -20 -116 -4 2 -5 -6 -3 -20 6 -28 -15 -163 -27 -170 -4 -2 -6 -15 -4
-27 2 -13 -13 -66 -34 -118 -29 -75 -42 -95 -57 -95 -23 0 -48 56 -28 62 8 3
8 11 -2 31 -8 15 -17 36 -22 47 -5 15 -8 10 -11 -24 -2 -29 4 -58 18 -87 26
-57 48 -66 74 -31 22 29 66 132 66 154 0 23 22 14 72 -28 27 -23 51 -39 54
-36 3 2 -20 31 -50 63 -35 37 -54 65 -50 74 10 25 44 243 44 281 0 20 3 38 6
42 4 3 43 -26 88 -66 44 -40 94 -82 110 -95 41 -31 27 -37 -17 -7 -21 13 -37
20 -37 16 0 -11 62 -51 79 -51 7 0 28 -12 47 -26 25 -19 34 -22 34 -12 0 16
-76 92 -122 122 -14 9 -28 29 -31 44 -3 15 -8 34 -11 42 -5 11 21 28 99 65 57
28 104 52 105 55 0 3 -21 4 -47 2 l-48 -3 33 20 c17 11 32 24 32 27 0 3 -10 0
-22 -8 -13 -8 -34 -21 -47 -28 -18 -9 -21 -14 -10 -21 10 -6 6 -11 -15 -18
-15 -6 -31 -9 -36 -6 -12 7 -61 -16 -55 -26 3 -4 1 -10 -4 -13 -10 -6 -94 73
-110 103 -8 15 -9 82 -1 101 1 3 1 15 0 27 -1 19 14 30 97 70 60 28 91 48 80
51 -9 2 -51 -15 -93 -37 -42 -23 -79 -41 -83 -41 -4 0 -8 21 -10 46 -5 100
-36 204 -61 204 -14 0 -12 -11 4 -29 16 -19 36 -127 36 -194 0 -46 -1 -47 -50
-72 l-50 -25 -2 72 -2 73 -3 -70 c-4 -66 -18 -105 -33 -88 -4 4 -3 73 2 153 5
80 7 165 6 190 -2 26 -6 -2 -10 -64z m142 -250 c0 -9 -15 -17 -40 -21 -22 -4
-43 -12 -47 -18 -4 -7 0 -8 13 -3 10 4 31 10 47 13 26 5 27 4 27 -36 0 -22 -3
-41 -7 -41 -37 1 -125 51 -112 64 4 4 111 55 117 56 1 0 2 -6 2 -14z m-147
-64 c9 -8 17 -19 17 -24 0 -13 -22 -9 -41 8 -29 26 -53 10 -46 -31 6 -37 -7
-47 -31 -23 -20 20 -14 55 13 76 27 22 58 20 88 -6z m-28 -202 c0 -155 -2
-171 -21 -196 -25 -34 -42 -41 -50 -19 -4 10 1 22 14 31 11 8 24 29 28 47 8
38 7 261 -1 288 -8 26 4 44 19 29 7 -7 11 -67 11 -180z m-100 170 c-3 -5 -21
-10 -38 -10 -44 -1 -113 -33 -169 -81 -27 -22 -48 -37 -48 -34 0 16 52 72 82
88 68 36 188 62 173 37z m213 -6 c21 -6 20 -8 -16 -24 -68 -31 -82 -33 -82
-15 0 9 15 22 33 30 38 17 36 16 65 9z m-148 -187 c0 -56 -4 -108 -9 -115 -6
-10 -23 1 -67 45 -33 32 -81 76 -107 98 -26 22 -47 48 -47 58 0 26 29 33 64
14 l31 -17 -30 25 c-22 18 -26 25 -13 25 9 0 20 -4 23 -10 3 -5 11 -10 17 -10
6 0 6 6 -2 15 -16 20 -9 27 37 35 34 6 41 3 71 -27 32 -34 32 -35 32 -136z
m208 156 c-4 -22 -77 -48 -92 -33 -13 13 -6 19 41 35 50 18 55 18 51 -2z m59
-39 c2 -6 -5 -14 -17 -17 -15 -4 -20 0 -20 15 0 21 30 23 37 2z m-62 -4 c-3
-5 -11 -10 -16 -10 -6 0 -7 5 -4 10 3 6 11 10 16 10 6 0 7 -4 4 -10z m100 -29
c3 -5 0 -13 -5 -16 -16 -10 -62 4 -55 15 8 13 52 13 60 1z m-595 -35 c0 -2 -9
-6 -20 -9 -11 -3 -18 -1 -14 4 5 9 34 13 34 5z m615 -6 c-3 -5 -12 -10 -20
-10 -8 0 -17 5 -20 10 -4 6 5 10 20 10 15 0 24 -4 20 -10z m21 -25 c-3 -8 -1
-15 4 -15 6 0 10 -5 10 -10 0 -6 -12 -3 -26 6 -19 13 -22 19 -12 25 20 13 31
11 24 -6z"/>
<path d="M526 621 c-3 -5 2 -15 12 -22 15 -12 16 -12 5 2 -7 9 -10 19 -6 22 3
4 4 7 0 7 -3 0 -8 -4 -11 -9z"/>
<path d="M760 1075 c0 -54 2 -96 4 -94 7 7 9 179 2 186 -3 3 -6 -38 -6 -92z"/>
<path d="M391 958 c24 -29 56 -66 71 -81 15 -16 32 -36 37 -45 5 -9 12 -14 15
-11 4 3 -27 44 -69 90 -41 46 -75 87 -75 92 0 4 -5 7 -11 7 -6 0 9 -24 32 -52z"/>
<path d="M390 996 c0 -2 8 -10 18 -17 15 -13 16 -12 3 4 -13 16 -21 21 -21 13z"/>
<path d="M2635 928 c-69 -34 -70 -36 -62 -44 3 -3 32 9 64 27 68 38 68 38 62
43 -2 3 -31 -9 -64 -26z"/>
<path d="M465 927 c6 -14 45 -41 51 -34 2 2 -10 13 -26 25 -16 12 -27 16 -25
9z"/>
<path d="M1960 935 c0 -3 12 -16 26 -28 l25 -22 -63 -30 c-43 -20 -85 -52
-134 -100 -65 -66 -73 -71 -90 -58 -43 32 -56 32 -22 -1 l36 -34 -25 -69 c-33
-90 -55 -223 -37 -223 7 0 15 4 18 9 6 8 76 44 125 62 20 8 22 7 12 -5 -8 -10
-9 -16 -1 -21 5 -3 10 -2 10 3 0 12 80 45 88 37 3 -3 0 -5 -6 -5 -7 0 -12 -7
-12 -15 0 -21 9 -19 30 7 l17 22 41 -32 c54 -43 104 -101 97 -113 -4 -5 -24
-18 -46 -30 -22 -11 -42 -26 -45 -34 -3 -8 -27 -22 -52 -31 -53 -19 -82 -40
-42 -30 24 7 24 6 6 -8 -11 -9 -26 -16 -33 -16 -7 0 -13 -7 -13 -15 0 -8 -11
-17 -25 -21 -33 -8 -50 -29 -25 -31 11 -1 22 2 25 8 4 5 25 -1 48 -12 131 -67
254 -77 421 -35 l98 25 34 -25 c60 -47 36 -10 -33 50 -38 32 -95 83 -127 113
l-59 55 27 86 c15 48 30 113 33 144 5 50 8 56 23 48 10 -5 20 -7 23 -4 2 3 22
-2 42 -10 21 -9 44 -16 52 -16 8 0 21 -6 28 -12 18 -16 25 -22 115 -90 67 -51
157 -127 123 -104 -8 5 -16 6 -19 4 -8 -9 52 -48 72 -48 9 0 26 -7 36 -17 10
-9 18 -11 18 -5 0 5 -14 22 -31 37 l-32 26 20 22 c30 33 65 96 61 107 -2 6
-19 -13 -38 -41 -53 -80 -56 -80 -134 -19 -37 29 -65 58 -62 65 2 7 -2 25 -10
40 -16 31 -16 31 38 60 15 8 32 15 39 15 7 0 66 -29 132 -65 66 -36 121 -64
123 -62 2 2 -78 48 -178 102 -101 54 -228 123 -283 154 -79 43 -109 55 -142
55 -46 -1 -60 19 -22 31 20 7 93 -15 134 -40 52 -32 497 -266 500 -263 2 2
-46 30 -106 62 -106 57 -136 83 -84 74 15 -3 25 -1 25 6 0 7 23 25 50 41 28
16 50 33 50 37 0 12 -5 10 -55 -18 -45 -24 -47 -25 -60 -7 -8 10 -19 32 -25
48 -18 46 -27 60 -39 58 -5 -2 -19 10 -30 26 -29 40 -126 88 -217 107 -100 21
-290 16 -348 -9 -38 -17 -39 -17 -72 8 -32 25 -44 30 -44 20z m505 -52 c100
-31 197 -96 181 -121 -3 -6 5 -24 19 -41 l26 -30 -28 -16 c-26 -15 -23 -15 25
1 14 5 13 3 -3 -10 -11 -8 -25 -19 -31 -24 -10 -9 -254 114 -254 128 0 5 19
17 43 28 23 11 51 27 62 36 36 27 -4 17 -71 -18 -60 -32 -67 -34 -96 -22 -23
10 -39 11 -60 4 -24 -8 -31 -7 -41 6 -11 14 -19 16 -57 7 -38 -8 -47 -7 -69
10 -42 33 -36 3 7 -36 51 -45 58 -79 24 -105 -13 -11 -36 -20 -50 -20 -44 0
-99 -22 -149 -60 l-49 -37 -44 34 c-57 44 -67 31 -12 -16 37 -32 42 -41 36
-65 -5 -21 -23 -35 -85 -67 l-79 -39 0 29 c0 35 35 152 61 202 26 52 119 151
135 145 8 -3 14 -2 14 3 0 5 11 16 25 25 25 17 26 16 88 -41 l62 -57 -55 57
c-44 46 -52 59 -40 67 20 12 136 49 190 59 60 12 213 3 275 -16z m-268 -159
c17 -65 14 -137 -12 -314 -16 -107 -31 -150 -50 -150 -9 0 -8 17 5 63 10 35
25 124 35 198 13 107 14 143 5 179 -6 25 -14 59 -17 75 -9 53 17 13 34 -51z
m64 -13 c31 -82 22 -216 -23 -348 -18 -53 -39 -98 -46 -101 -11 -3 -11 2 1 24
19 38 55 193 63 274 5 61 -7 131 -40 225 -18 49 25 -21 45 -74z m206 -37 c59
-31 119 -63 132 -71 l23 -15 -38 -23 c-41 -25 -59 -24 -67 4 -5 22 -95 66
-152 76 -76 14 -111 59 -68 90 21 16 31 12 170 -61z m-232 -10 c11 -49 11 -73
-1 -154 -8 -52 -21 -117 -29 -145 l-14 -50 5 60 c3 33 10 93 16 132 6 40 8
106 6 148 -3 41 -3 73 -1 71 2 -2 10 -30 18 -62z m-68 -48 c-7 -15 -11 -16
-18 -5 -12 20 -11 43 4 58 10 10 13 7 18 -11 3 -13 2 -31 -4 -42z m542 20
c-13 -11 -49 -16 -49 -6 0 14 44 31 49 18 1 -5 1 -11 0 -12z m-599 6 c0 -5
-25 -16 -56 -26 -37 -12 -73 -34 -110 -67 -30 -27 -57 -49 -59 -49 -3 0 1 12
9 28 32 62 106 105 209 121 4 0 7 -3 7 -7z m250 -12 c0 -13 -48 -36 -56 -27
-4 3 -4 13 -1 22 7 17 57 21 57 5z m-217 -41 c26 -47 22 -159 -7 -159 -6 0
-37 18 -70 41 -32 22 -60 38 -63 36 -6 -7 117 -87 134 -87 12 0 14 -8 8 -37
-4 -21 -8 -39 -10 -41 -1 -1 -22 14 -46 35 -100 88 -139 126 -139 138 0 20 76
84 107 91 16 3 33 7 38 9 23 8 31 3 48 -26z m267 26 c0 -10 -62 -36 -78 -33
-13 3 -10 8 13 20 29 15 65 23 65 13z m50 -25 c0 -12 -27 -20 -63 -20 l-32 1
35 18 c33 18 60 18 60 1z m45 -21 c10 -15 5 -17 -43 -25 -48 -8 -58 8 -14 24
36 14 50 14 57 1z m29 -38 c8 -12 -38 -23 -59 -15 -13 5 -14 8 -3 15 17 11 55
11 62 0z m11 -31 c-3 -5 -14 -10 -23 -10 -15 0 -15 2 -2 10 20 13 33 13 25 0z
m-444 -223 c-10 -9 -11 -8 -5 6 3 10 9 15 12 12 3 -3 0 -11 -7 -18z m43 -29
c17 8 27 8 32 1 3 -6 15 -8 26 -6 14 4 44 -12 99 -54 44 -34 79 -65 79 -69 0
-19 -155 -50 -244 -50 -67 0 -113 10 -194 42 -37 14 -50 24 -43 31 26 26 206
114 213 104 5 -8 14 -7 32 1z"/>
<path d="M1860 616 c0 -3 9 -10 20 -16 11 -6 20 -8 20 -6 0 3 -9 10 -20 16
-11 6 -20 8 -20 6z"/>
<path d="M2328 703 c6 -2 18 -2 25 0 6 3 1 5 -13 5 -14 0 -19 -2 -12 -5z"/>
<path d="M2537 584 c-4 -4 -4 -10 -1 -15 6 -10 34 0 34 12 0 10 -24 12 -33 3z"/>
<path d="M2050 446 c0 -2 8 -10 18 -17 15 -13 16 -12 3 4 -13 16 -21 21 -21
13z"/>
<path d="M230 887 c0 -3 17 -17 37 -33 20 -15 33 -23 29 -16 -8 13 -66 56 -66
49z"/>
<path d="M1052 871 c-11 -7 -10 -10 3 -15 26 -10 35 -7 29 9 -7 17 -13 18 -32
6z"/>
<path d="M190 846 c0 -2 14 -14 30 -26 17 -12 30 -19 30 -16 0 2 -13 14 -30
26 -16 12 -30 19 -30 16z"/>
<path d="M946 835 c-11 -8 -15 -15 -10 -15 6 0 19 7 30 15 10 8 15 14 9 14 -5
0 -19 -6 -29 -14z"/>
<path d="M1060 774 c-25 -14 -36 -22 -25 -18 11 4 31 8 44 9 13 1 28 9 33 18
12 23 1 21 -52 -9z"/>
<path d="M380 755 c7 -9 15 -13 17 -11 7 7 -7 26 -19 26 -6 0 -6 -6 2 -15z"/>
<path d="M2769 743 c-13 -17 -13 -17 6 -3 11 8 22 16 24 17 2 2 0 3 -6 3 -6 0
-17 -8 -24 -17z"/>
<path d="M1018 724 c-27 -13 -48 -27 -48 -29 0 -3 23 6 50 20 28 14 50 28 50
30 0 7 1 7 -52 -21z"/>
<path d="M1065 660 c-3 -5 -2 -10 4 -10 5 0 13 5 16 10 3 6 2 10 -4 10 -5 0
-13 -4 -16 -10z"/>
<path d="M750 555 c19 -19 36 -35 39 -35 3 0 -10 16 -29 35 -19 19 -36 35 -39
35 -3 0 10 -16 29 -35z"/>
<path d="M937 505 c10 -13 22 -25 27 -25 5 0 -1 11 -14 25 -30 32 -36 32 -13
0z"/>
<path d="M370 500 c-13 -8 -13 -10 2 -10 9 0 20 5 23 10 8 13 -5 13 -25 0z"/>
<path d="M2335 440 c21 -22 41 -40 44 -40 3 0 -13 18 -34 40 -21 22 -41 40
-44 40 -3 0 13 -18 34 -40z"/>
<path d="M258 463 c7 -3 16 -2 19 1 4 3 -2 6 -13 5 -11 0 -14 -3 -6 -6z"/>
<path d="M2480 462 c0 -6 11 -17 25 -26 14 -9 25 -13 25 -9 -1 12 -50 46 -50
35z"/>
<path d="M720 456 c0 -3 9 -10 20 -16 11 -6 20 -8 20 -6 0 3 -9 10 -20 16 -11
6 -20 8 -20 6z"/>
<path d="M449 407 c-50 -30 -103 -77 -96 -83 3 -3 22 10 41 30 20 20 50 43 66
51 17 9 30 18 30 20 0 8 -2 6 -41 -18z"/>
<path d="M770 426 c0 -2 8 -10 18 -17 15 -13 16 -12 3 4 -13 16 -21 21 -21 13z"/>
<path d="M897 384 c18 -22 40 -47 50 -55 10 -8 3 4 -14 27 -18 22 -40 47 -50
55 -10 8 -3 -4 14 -27z"/>
<path d="M1775 409 c-4 -5 -18 -15 -33 -20 -18 -7 -22 -13 -15 -20 8 -8 22 -4
47 13 20 14 33 28 29 31 -9 10 -21 8 -28 -4z"/>
<path d="M1935 390 c-3 -6 1 -7 9 -4 18 7 21 14 7 14 -6 0 -13 -4 -16 -10z"/>
<path d="M1870 370 c-9 -6 -10 -10 -3 -10 6 0 15 5 18 10 8 12 4 12 -15 0z"/>
<path d="M2034 344 c-18 -14 -18 -15 4 -4 12 6 22 13 22 15 0 8 -5 6 -26 -11z"/>
<path d="M2635 350 c3 -5 11 -10 16 -10 6 0 7 5 4 10 -3 6 -11 10 -16 10 -6 0
-7 -4 -4 -10z"/>
<path d="M440 340 c-8 -5 -10 -10 -5 -10 6 0 17 5 25 10 8 5 11 10 5 10 -5 0
-17 -5 -25 -10z"/>
<path d="M1770 340 c-8 -5 -10 -10 -5 -10 6 0 17 5 25 10 8 5 11 10 5 10 -5 0
-17 -5 -25 -10z"/>
<path d="M2294 336 c11 -9 24 -16 30 -16 12 0 7 5 -24 19 -24 11 -24 11 -6 -3z"/>
<path d="M2468 325 c13 -25 80 -90 86 -84 3 2 -18 27 -46 54 -28 28 -46 41
-40 30z"/>
<path d="M365 305 c-22 -13 -36 -25 -32 -25 11 0 87 39 87 45 0 10 -16 4 -55
-20z"/>
<path d="M925 290 c10 -11 20 -20 23 -20 3 0 -3 9 -13 20 -10 11 -20 20 -23
20 -3 0 3 -9 13 -20z"/>
<path d="M1938 268 c-27 -17 -46 -33 -44 -36 4 -4 44 20 85 50 40 30 9 20 -41
-14z"/>
<path d="M2250 293 c0 -5 13 -17 28 -27 l27 -19 -24 26 c-26 28 -31 32 -31 20z"/>
<path d="M1002 264 c10 -10 20 -15 24 -12 3 4 -5 12 -18 18 -22 12 -22 12 -6
-6z"/>
<path d="M2395 270 c3 -5 11 -10 16 -10 6 0 7 5 4 10 -3 6 -11 10 -16 10 -6 0
-7 -4 -4 -10z"/>
<path d="M990 236 c0 -2 8 -10 18 -17 15 -13 16 -12 3 4 -13 16 -21 21 -21 13z"/>
<path d="M2470 233 c0 -9 80 -67 84 -62 2 2 -16 19 -40 37 -24 18 -44 29 -44
25z"/>
<path d="M1045 220 c3 -5 8 -10 11 -10 2 0 4 5 4 10 0 6 -5 10 -11 10 -5 0 -7
-4 -4 -10z"/>
<path d="M2394 152 c17 -18 34 -32 38 -32 15 0 0 18 -35 41 l-32 22 29 -31z"/>
</g>
</svg>
