<?xml version="1.0" standalone="no"?>
<!DOCTYPE svg PUBLIC "-//W3C//DTD SVG 20010904//EN"
 "http://www.w3.org/TR/2001/REC-SVG-20010904/DTD/svg10.dtd">
<svg version="1.0" xmlns="http://www.w3.org/2000/svg"
 width="468pt" height="419pt" viewBox="0 0 468 419"
 preserveAspectRatio="xMidYMid meet">
<metadata>
Created by potrace 1.8, written by Peter Selinger 2001-2007
</metadata>
<g transform="translate(0,419) scale(0.247619,-0.247619)"
fill="#000000" stroke="none">
<path d="M115 1661 c-48 -22 -69 -44 -90 -94 -13 -31 -15 -127 -15 -724 0
-646 2 -690 19 -728 22 -48 44 -69 94 -90 32 -13 137 -15 824 -15 743 0 790 1
828 19 48 22 69 44 90 94 23 55 23 1389 0 1444 -21 50 -42 72 -90 94 -38 18
-85 19 -830 19 -745 0 -792 -1 -830 -19z m1667 -79 l33 -32 0 -705 0 -705 -33
-32 -32 -33 -805 0 -805 0 -32 33 -33 32 0 704 0 704 25 27 c14 15 34 31 45
36 11 4 377 7 812 6 l793 -2 32 -33z"/>
<path d="M675 1586 c-32 -32 -52 -106 -71 -256 -8 -69 -19 -140 -24 -157 -4
-18 -6 -33 -3 -33 4 0 0 -8 -9 -17 -8 -10 -20 -31 -26 -47 l-13 -28 -47 43
c-43 40 -54 61 -117 218 -39 96 -75 187 -81 203 -16 44 -38 62 -68 54 -56 -14
-74 -83 -46 -181 10 -33 28 -96 40 -140 12 -44 24 -87 27 -96 3 -11 -8 -23
-31 -37 -32 -19 -36 -26 -36 -60 0 -49 25 -112 45 -112 8 0 15 5 15 11 0 5 5
7 10 4 17 -10 11 -21 -12 -22 -37 -3 -61 -41 -53 -83 4 -19 9 -93 11 -163 4
-148 10 -175 65 -294 46 -100 56 -155 39 -208 -10 -31 -10 -40 2 -51 42 -42
71 70 47 184 -6 31 -26 86 -44 122 -30 60 -65 191 -65 244 0 18 2 17 19 -9 10
-16 32 -45 49 -64 28 -29 37 -33 71 -29 37 3 40 1 45 -27 12 -58 40 -115 59
-115 20 0 21 12 7 60 -7 22 -8 77 -4 143 l6 109 18 -30 c22 -35 76 -76 90 -67
18 11 11 27 -29 70 -21 23 -48 68 -60 99 -12 32 -34 77 -49 100 -15 22 -33 53
-40 68 -11 27 -11 27 14 16 23 -11 28 -9 43 10 l17 23 29 -25 c16 -14 50 -56
75 -93 l45 -68 51 0 52 0 -4 -35 c-7 -50 -25 -139 -36 -179 -6 -19 -14 -59
-18 -90 -4 -31 -13 -83 -20 -116 -13 -67 -8 -209 9 -267 22 -71 71 -89 51 -18
-5 18 -13 80 -16 136 -6 84 -4 112 11 156 10 29 21 85 25 123 4 39 17 115 29
169 15 68 19 117 16 155 -8 73 -7 464 1 516 7 52 -13 165 -33 188 -22 24 -50
21 -78 -7z m55 -26 c0 -11 5 -20 11 -20 8 0 9 -31 5 -107 -10 -151 -14 -171
-39 -179 -21 -7 -21 -7 -1 -14 18 -7 20 -17 22 -141 1 -74 4 -151 8 -171 4
-28 2 -38 -8 -38 -7 0 -22 -3 -34 -6 -16 -4 -26 2 -40 24 -10 17 -36 51 -57
75 -34 41 -36 47 -26 71 7 14 16 23 21 20 5 -3 20 -3 34 0 32 8 32 36 -1 36
-29 0 -30 2 -10 61 17 53 55 268 55 316 0 41 25 93 45 93 8 0 15 -9 15 -20z
m-490 -40 c0 -11 4 -20 8 -20 5 0 9 -6 9 -12 0 -7 17 -57 37 -112 20 -54 36
-100 36 -102 0 -2 -7 -4 -15 -4 -8 0 -15 -7 -15 -15 0 -9 9 -15 23 -15 18 0
28 -11 45 -52 l22 -52 -21 -22 -20 -22 -40 26 c-22 14 -39 34 -39 44 0 10 -7
35 -16 56 -39 90 -71 270 -55 301 15 27 41 27 41 1z m210 -445 c16 -19 12 -23
-29 -35 -30 -8 -31 -8 -31 24 0 18 3 36 6 39 8 8 36 -7 54 -28z m-134 7 c12
-6 24 -8 28 -5 3 3 6 -4 6 -16 0 -33 36 -127 60 -158 l21 -27 -36 -19 c-30
-15 -34 -21 -24 -33 19 -23 4 -16 -17 8 -10 12 -13 18 -6 14 30 -17 7 19 -63
99 -41 47 -75 88 -75 90 0 2 5 15 11 29 16 33 54 41 95 18z m-51 -226 c25 -24
45 -49 45 -55 0 -17 38 -51 56 -51 11 0 15 6 11 20 -5 18 -4 18 19 3 13 -8 30
-13 38 -10 12 5 11 -8 -5 -66 -28 -100 -55 -119 -100 -69 -32 34 -103 155
-120 203 -11 32 -8 69 5 69 3 0 26 -20 51 -44z m195 -43 c0 -19 -25 -16 -46 5
-16 16 -16 17 -1 20 9 2 17 9 17 15 1 16 30 -23 30 -40z"/>
<path d="M341 701 c-11 -7 -11 -15 -1 -45 12 -36 26 -53 37 -42 4 3 1 17 -5
30 -9 19 -8 27 4 36 8 7 14 16 14 21 0 11 -31 11 -49 0z"/>
<path d="M1040 1451 c-5 -11 -10 -28 -10 -39 0 -10 -9 -52 -20 -93 -11 -41
-29 -106 -39 -145 -11 -39 -27 -117 -36 -173 -16 -96 -16 -103 0 -121 12 -13
18 -41 21 -101 3 -69 0 -88 -16 -114 -11 -18 -20 -41 -20 -52 0 -23 27 -81 47
-101 7 -7 13 -18 13 -23 0 -5 6 -9 14 -9 8 0 17 -11 20 -25 7 -27 47 -50 110
-63 39 -7 40 -9 61 -77 12 -39 29 -82 39 -96 42 -66 171 -65 194 0 6 15 28 58
51 95 23 38 41 74 41 82 0 21 17 17 23 -5 6 -24 43 -18 58 10 5 11 18 19 29
19 10 0 21 9 25 19 3 12 17 21 33 23 24 3 27 7 27 38 0 19 6 39 13 43 6 4 12
15 12 23 0 9 7 22 15 30 25 26 0 130 -41 171 -7 8 -12 19 -10 26 2 7 11 37 21
67 15 48 16 61 4 100 -7 25 -13 52 -12 60 1 8 -6 44 -17 80 -17 57 -33 135
-54 262 -8 43 -75 108 -113 108 -21 0 -23 -4 -23 -59 0 -45 -9 -82 -40 -159
-22 -54 -40 -116 -40 -136 0 -43 -12 -45 -72 -16 -52 25 -79 25 -105 1 l-21
-20 -6 37 c-11 57 -35 132 -61 187 -13 28 -32 70 -41 94 -29 70 -54 88 -74 52z
m542 -169 c5 -31 18 -86 29 -122 28 -100 49 -215 49 -273 l0 -52 -33 39 c-33
40 -54 91 -65 161 -6 31 -11 40 -27 40 -15 0 -20 -6 -18 -26 2 -35 50 -139 64
-139 5 0 8 -8 5 -18 -4 -13 1 -23 19 -32 13 -7 22 -17 19 -22 -3 -5 6 -27 21
-50 31 -46 55 -110 55 -144 0 -13 6 -24 13 -24 9 0 9 -2 -1 -8 -20 -13 -54
-83 -48 -98 4 -10 -2 -14 -19 -14 -18 0 -26 -7 -31 -25 -4 -16 -13 -25 -25
-25 -11 0 -22 -7 -26 -17 -5 -14 -8 -13 -14 5 -10 26 -40 29 -61 5 -9 -10 -25
-40 -37 -66 -12 -26 -31 -59 -43 -72 l-21 -25 -17 27 c-12 21 -24 27 -53 28
-37 2 -41 -3 -40 -52 0 -8 -6 -7 -22 3 -14 9 -27 33 -34 59 -14 56 -34 75 -77
75 -19 0 -34 5 -34 10 0 6 -7 10 -15 10 -8 0 -15 5 -15 10 0 6 -6 10 -14 10
-9 0 -16 12 -18 32 -2 25 -8 34 -25 36 -13 2 -23 10 -23 18 0 8 -7 14 -15 14
-8 0 -15 9 -15 19 0 11 -5 23 -10 26 -7 4 -3 19 10 42 16 27 21 53 22 107 0
54 4 76 18 91 10 11 21 34 25 50 l6 30 -25 -30 c-24 -28 -26 -29 -39 -11 -14
19 -15 60 -3 111 4 17 19 77 33 135 14 58 29 109 34 115 5 5 9 20 9 35 1 64
19 42 75 -93 60 -141 60 -142 95 -145 24 -3 38 2 47 14 11 15 19 16 70 6 32
-6 72 -10 88 -9 28 2 30 5 35 52 3 28 18 79 32 115 15 37 30 97 34 135 l7 70
19 -43 c11 -24 24 -69 30 -100z"/>
<path d="M1059 1193 c-6 -73 -3 -253 4 -250 17 5 46 90 46 134 1 45 -25 123
-40 123 -5 0 -9 -3 -10 -7z"/>
<path d="M1350 915 c0 -8 5 -15 10 -15 6 0 10 7 10 15 0 8 -4 15 -10 15 -5 0
-10 -7 -10 -15z"/>
<path d="M1414 906 c-8 -22 3 -49 19 -43 6 2 12 14 12 27 0 27 -22 39 -31 16z"/>
<path d="M1133 868 c4 -25 32 -46 44 -34 4 4 1 13 -8 19 -9 7 -14 18 -12 25 3
6 -2 12 -11 12 -11 0 -15 -7 -13 -22z"/>
<path d="M1406 828 c9 -30 23 -48 39 -48 9 0 9 8 1 35 -7 23 -17 35 -29 35
-14 0 -17 -5 -11 -22z"/>
<path d="M1158 823 c-16 -2 -28 -8 -28 -13 0 -12 46 -24 59 -15 12 7 15 36 4
34 -5 -1 -20 -4 -35 -6z"/>
<path d="M1080 758 c0 -51 50 -108 84 -95 13 5 12 11 -5 46 -18 38 -44 61 -68
61 -6 0 -11 -5 -11 -12z"/>
<path d="M1475 758 c-43 -15 -55 -27 -55 -54 0 -20 5 -24 28 -24 15 0 34 6 43
13 22 17 41 55 34 67 -7 12 -11 12 -50 -2z"/>
<path d="M380 503 c0 -16 -3 -38 -6 -50 -5 -17 -2 -23 9 -23 23 0 26 11 20 58
-6 47 -23 57 -23 15z"/>
<path d="M447 268 c-10 -5 -34 -7 -53 -4 -38 8 -46 -7 -15 -24 29 -15 77 -12
91 5 17 21 1 37 -23 23z"/>
</g>
</svg>
