<?xml version="1.0" standalone="no"?>
<!DOCTYPE svg PUBLIC "-//W3C//DTD SVG 20010904//EN"
 "http://www.w3.org/TR/2001/REC-SVG-20010904/DTD/svg10.dtd">
<svg version="1.0" xmlns="http://www.w3.org/2000/svg"
 width="466pt" height="648pt" viewBox="0 0 466 648"
 preserveAspectRatio="xMidYMid meet">
<metadata>
Created by potrace 1.8, written by Peter Selinger 2001-2007
</metadata>
<g transform="translate(0,648) scale(0.240000,-0.240000)"
fill="#000000" stroke="none">
<path d="M474 2633 c-10 -16 -28 -45 -42 -65 -23 -35 -23 -38 -8 -69 9 -18 16
-39 16 -49 0 -9 4 -20 9 -25 15 -16 41 -114 31 -120 -8 -5 -50 45 -50 59 0 12
-44 66 -54 66 -5 0 -18 7 -28 17 -15 13 -18 14 -18 1 0 -8 21 -37 46 -64 25
-27 54 -65 64 -84 23 -44 57 -80 74 -80 29 0 39 28 27 74 -6 25 -11 56 -11 69
0 13 -11 36 -25 51 -37 40 -57 131 -36 165 8 12 13 12 24 3 8 -7 21 -10 29 -7
18 7 96 -89 128 -157 18 -39 30 -50 65 -64 24 -9 52 -27 62 -40 10 -13 22 -24
27 -24 14 0 66 -63 78 -93 7 -20 14 -25 21 -18 6 6 33 11 60 11 39 0 59 -7
103 -36 60 -40 65 -56 10 -30 -48 22 -89 30 -130 22 -27 -5 -37 -13 -45 -39
-10 -26 -9 -34 4 -43 22 -16 19 -30 -16 -86 -34 -56 -31 -73 6 -38 24 22 25
22 25 4 0 -11 -7 -29 -15 -40 -8 -10 -15 -27 -15 -37 0 -10 -5 -15 -10 -12 -6
4 -21 -18 -35 -50 -28 -61 -31 -75 -14 -58 6 6 18 9 25 6 8 -3 14 0 14 7 0 6
5 8 10 5 6 -4 10 6 10 22 0 15 5 35 11 43 8 11 9 4 6 -27 -7 -64 8 -52 28 22
9 36 21 65 26 65 17 0 18 -19 4 -46 -8 -16 -15 -40 -14 -54 0 -23 1 -23 12 7
18 48 27 50 28 7 l1 -39 14 33 c15 35 33 35 35 -1 1 -17 2 -18 6 -4 11 40 102
4 133 -53 10 -19 21 -46 24 -60 3 -14 23 -45 45 -69 23 -25 45 -59 51 -77 10
-30 50 -67 181 -169 55 -43 73 -70 83 -125 9 -46 92 -259 111 -284 19 -25 33
-12 17 15 -16 25 -33 69 -27 69 2 0 20 -17 39 -37 39 -42 66 -107 66 -162 0
-29 -65 -275 -77 -290 -19 -25 5 111 36 204 27 78 26 114 0 60 -12 -24 -18
-30 -14 -15 16 70 18 83 8 77 -5 -3 -18 -34 -28 -69 -19 -64 -35 -95 -35 -67
0 9 7 38 15 65 18 59 17 54 5 54 -5 0 -19 -32 -31 -70 -11 -39 -25 -73 -30
-76 -5 -3 -9 -14 -9 -26 0 -14 5 -18 15 -14 17 6 17 7 20 -60 1 -28 9 -61 18
-75 8 -13 25 -53 37 -88 14 -44 34 -78 61 -105 49 -51 54 -45 63 72 3 48 13
112 21 142 23 82 19 142 -14 223 -15 40 -36 99 -45 132 -20 70 -52 122 -112
183 -24 24 -44 49 -44 54 0 6 -16 52 -36 102 -34 86 -42 96 -143 197 -145 144
-207 217 -227 270 -17 46 -64 99 -88 99 -8 0 -35 9 -60 19 -53 23 -91 76 -99
138 l-5 42 72 35 c40 20 82 36 94 36 11 0 23 4 27 10 7 11 -10 27 -84 81 -51
36 -59 39 -123 39 l-68 0 -20 40 c-34 67 -88 120 -122 120 -43 0 -65 16 -73
50 -4 17 -35 61 -72 101 -35 39 -69 84 -75 100 -13 36 -33 37 -54 2z m545
-559 c7 -6 -51 -24 -60 -18 -5 3 -9 12 -9 19 0 11 8 13 33 8 17 -3 34 -7 36
-9z m681 -1354 c-6 -23 -14 -40 -16 -37 -3 3 0 24 7 46 16 54 24 46 9 -9z m82
-38 c-11 -37 -25 -88 -32 -114 -12 -45 -19 -55 -32 -43 -11 11 43 207 64 229
21 23 21 0 0 -72z m34 -39 c-9 -26 -20 -67 -26 -90 -10 -40 -25 -61 -37 -50
-3 3 2 27 10 54 9 26 23 75 32 108 13 47 19 56 26 42 6 -11 5 -32 -5 -64z"/>
<path d="M506 2485 c4 -8 10 -15 15 -15 5 0 9 -6 9 -14 0 -8 6 -21 14 -28 7
-8 21 -58 32 -112 14 -78 20 -93 27 -75 10 28 -10 159 -25 159 -5 0 -7 9 -3
20 4 13 -3 29 -21 50 -29 31 -58 41 -48 15z"/>
<path d="M327 2404 c-8 -8 3 -34 14 -34 11 0 12 27 0 34 -4 3 -11 3 -14 0z"/>
<path d="M340 2325 c0 -3 15 -29 33 -58 19 -29 32 -58 29 -65 -2 -6 6 -28 18
-47 12 -19 19 -39 15 -45 -11 -18 26 -160 50 -188 12 -15 29 -41 38 -59 12
-22 22 -30 35 -26 34 8 44 -33 27 -112 -8 -38 -15 -85 -15 -102 0 -44 -17 -42
-26 2 -4 23 1 61 14 109 l20 74 -24 0 c-20 0 -24 -7 -31 -47 -14 -81 -9 -158
11 -179 37 -42 78 -163 85 -253 l6 -86 51 -56 c50 -54 51 -57 58 -134 9 -107
25 -201 40 -243 7 -19 11 -40 9 -47 -2 -6 4 -24 14 -39 14 -22 18 -51 19 -142
1 -72 7 -123 15 -139 17 -31 9 -36 -81 -52 -37 -7 -77 -19 -87 -26 -23 -18
-13 -18 72 0 102 21 125 20 125 -7 0 -14 -9 -27 -23 -34 -12 -6 -35 -18 -52
-27 -53 -28 -189 -67 -235 -67 -69 -1 -163 -26 -182 -50 -9 -11 -21 -20 -27
-20 -86 0 304 -102 444 -116 44 -5 143 -8 220 -8 132 0 145 1 238 33 83 28
102 31 129 22 17 -6 40 -11 50 -11 35 0 13 23 -36 37 -46 14 -53 13 -152 -17
-166 -51 -243 -56 -469 -31 -49 5 -115 15 -145 22 l-55 13 40 7 c86 17 254 19
310 4 40 -10 70 -12 110 -5 41 7 68 5 102 -5 45 -14 50 -13 102 10 30 14 97
34 150 46 81 17 116 19 227 13 95 -5 133 -3 138 5 5 7 20 9 42 5 41 -8 74 16
74 53 0 32 -28 41 -49 15 -14 -18 -30 -21 -123 -25 -75 -3 -108 -1 -111 7 -3
8 -9 7 -20 -3 -15 -12 -18 -10 -25 9 -7 19 -9 20 -21 6 -19 -23 -34 -20 -21 5
6 11 9 25 7 32 -2 7 -12 -5 -22 -25 -15 -31 -24 -38 -48 -38 -24 0 -28 3 -22
18 17 41 14 54 -5 20 -11 -21 -25 -38 -30 -38 -13 0 -13 7 1 31 5 11 9 28 7
37 -2 10 -14 -5 -30 -41 -25 -53 -37 -65 -50 -52 -3 3 8 30 24 60 l29 53 64 7
c71 8 104 5 183 -17 46 -13 55 -14 68 -1 8 8 14 24 14 36 -1 22 -1 22 -16 2
-14 -19 -15 -18 -8 19 4 25 3 37 -3 33 -6 -4 -13 -20 -16 -37 -4 -16 -11 -30
-17 -30 -12 0 -13 32 -1 83 5 20 5 39 1 42 -10 6 -17 -11 -25 -69 -7 -44 -17
-57 -29 -37 -4 5 1 44 9 88 18 92 17 83 6 83 -4 0 -14 -34 -21 -75 -7 -42 -17
-78 -22 -81 -18 -11 -18 24 1 109 10 48 15 87 11 87 -8 0 -11 -11 -30 -102
-11 -54 -23 -73 -32 -47 -2 6 4 50 14 98 20 100 22 119 9 105 -5 -5 -14 -43
-21 -84 -13 -91 -22 -101 -55 -70 -39 36 -63 91 -58 130 3 27 2 32 -6 20 -10
-13 -13 -13 -25 3 -7 9 -18 17 -25 17 -6 0 -11 6 -11 14 0 8 -7 16 -15 20 -13
4 -13 10 1 48 9 25 13 57 9 75 -4 25 1 44 21 79 26 44 29 46 64 41 49 -6 90
-34 90 -60 0 -20 1 -20 14 -2 13 18 15 18 59 -9 26 -14 52 -36 58 -48 9 -17
13 -18 20 -7 12 20 11 72 -1 64 -6 -4 -17 9 -24 27 -8 18 -28 50 -45 72 -17
21 -31 45 -31 52 0 7 -9 18 -19 24 -17 8 -18 15 -10 42 12 43 12 68 -1 68 -5
0 -10 -9 -10 -20 0 -11 -5 -20 -10 -20 -6 0 -8 22 -5 58 2 31 2 49 -1 40 -11
-36 -27 -18 -20 22 4 25 2 40 -4 40 -5 0 -10 -9 -10 -19 0 -11 -5 -23 -11 -27
-14 -8 -69 45 -69 68 0 10 -6 18 -12 18 -18 0 -58 45 -58 64 0 9 -6 13 -15 10
-8 -3 -22 1 -30 10 -25 25 -43 19 -54 -16 -5 -18 -15 -49 -22 -68 -6 -19 -14
-41 -16 -49 -2 -8 -6 -11 -9 -9 -3 3 2 33 10 66 19 72 19 73 4 69 -23 -4 -15
45 12 77 33 38 50 69 50 92 0 11 -12 -2 -30 -29 -16 -26 -36 -47 -43 -47 -7 0
-23 -14 -36 -30 -19 -26 -20 -31 -6 -36 20 -8 19 -55 -1 -144 -14 -63 -14 -71
1 -100 15 -30 15 -34 -9 -86 l-25 -54 6 -275 c3 -150 10 -279 14 -286 5 -9 20
-9 61 -1 43 8 56 8 69 -4 8 -8 21 -14 28 -14 8 0 11 -8 8 -20 -4 -16 0 -20 19
-20 13 0 28 -9 34 -20 10 -18 8 -20 -18 -20 -16 0 -44 5 -61 11 -28 10 -38 8
-74 -11 -28 -16 -42 -20 -45 -12 -8 25 -22 10 -22 -23 0 -39 -27 -115 -41
-115 -13 0 -11 10 10 73 11 32 16 57 12 57 -5 0 -16 -24 -25 -54 -10 -30 -24
-62 -31 -72 -14 -18 -14 -18 -15 3 0 12 9 46 20 74 12 28 19 57 17 63 -2 6
-10 -8 -17 -31 -7 -24 -17 -43 -22 -43 -13 0 -10 13 22 90 30 72 35 116 6 49
-12 -26 -15 -29 -16 -13 0 12 7 38 15 57 17 41 19 57 6 57 -5 0 -11 -14 -15
-32 -3 -17 -9 -29 -12 -25 -3 3 0 22 6 43 12 35 22 144 13 144 -2 0 -8 -12
-14 -26 -16 -45 -20 -21 -4 31 8 27 12 51 10 53 -2 2 -7 -7 -11 -22 -3 -14
-10 -26 -15 -26 -13 0 -11 14 11 71 12 30 17 55 12 58 -5 3 -10 70 -11 149 -2
192 -30 277 -60 177 -7 -25 -17 -45 -22 -45 -12 0 -11 16 1 38 11 20 60 178
60 195 0 7 -3 7 -9 2 -8 -10 -25 -61 -50 -153 -7 -23 -16 -40 -21 -37 -4 3 12
63 36 135 50 151 77 247 71 263 -4 12 -33 -73 -83 -241 -15 -51 -32 -91 -38
-89 -17 6 -9 46 49 227 53 164 62 201 49 187 -12 -11 -74 -197 -102 -304 -22
-82 -30 -100 -42 -93 -12 7 -9 24 17 107 108 344 111 356 94 338 -9 -10 -54
-145 -91 -275 -35 -117 -40 -128 -51 -108 -6 11 -4 29 6 55 28 71 83 273 75
278 -4 3 -11 -7 -14 -23 -4 -15 -21 -72 -37 -127 -17 -55 -33 -108 -35 -117
-3 -10 -10 -18 -15 -18 -15 0 -10 29 26 158 19 67 44 136 56 153 22 31 39 119
23 119 -5 0 -20 -27 -32 -60 -25 -63 -47 -83 -31 -28 11 40 11 40 1 34 -5 -3
-17 -34 -26 -68 -9 -35 -26 -74 -36 -88 -25 -32 -25 -17 0 62 11 34 20 70 20
78 -1 28 -16 -11 -40 -100 -22 -85 -40 -123 -40 -84 0 10 5 35 11 54 13 43 16
56 25 100 7 31 6 34 -8 22 -12 -10 -18 -10 -23 -1 -6 9 -37 -71 -62 -160 -2
-9 -7 -11 -13 -5 -5 5 -4 27 5 54 7 25 18 64 24 88 9 33 19 45 45 56 32 13 57
51 71 108 4 14 15 34 26 44 38 34 14 58 -33 33 -20 -11 -21 -10 -14 40 6 45 5
50 -10 44 -15 -5 -16 -2 -11 25 4 19 2 32 -4 32 -5 0 -12 -14 -16 -30 -5 -28
-19 -47 -28 -38 -2 2 2 28 10 58 8 30 12 56 10 58 -12 12 -24 -15 -30 -63 -7
-51 -19 -75 -31 -62 -3 3 -1 22 4 43 16 64 23 124 14 124 -8 0 -38 -117 -46
-183 -2 -15 -7 -40 -11 -54 -5 -22 -8 -24 -20 -12 -12 12 -9 32 16 134 30 123
36 166 20 150 -4 -6 -16 -53 -26 -105 -28 -156 -31 -158 -83 -81 -46 67 -55
110 -32 158 10 21 21 53 25 71 6 28 4 32 -14 32 -13 0 -21 -6 -21 -16 0 -14
-3 -14 -15 -4 -8 7 -15 19 -15 26 0 8 -9 22 -21 32 -11 9 -30 34 -41 55 -12
20 -28 37 -35 37 -7 0 -13 -2 -13 -5z m152 -187 c-6 -6 -7 0 -4 19 5 21 7 23
10 9 2 -10 0 -22 -6 -28z m250 -263 c-8 -39 -32 -61 -32 -30 0 22 33 91 37 79
2 -6 0 -28 -5 -49z m-87 -24 c-4 -9 -13 -45 -21 -80 -15 -69 -34 -103 -34 -60
0 22 22 121 35 157 3 7 10 10 16 7 6 -4 7 -14 4 -24z m45 5 c0 -16 -18 -31
-27 -22 -8 8 5 36 17 36 5 0 10 -6 10 -14z m-25 -86 c-8 -25 3 -26 21 -2 12
15 13 15 14 -10 0 -23 -6 -29 -32 -36 -18 -5 -34 -8 -35 -7 -1 0 0 18 4 38 3
23 11 37 20 37 10 0 12 -6 8 -20z m71 -16 c-3 -9 -6 -18 -6 -20 0 -3 -4 -3
-10 1 -11 7 -2 35 12 35 6 0 7 -7 4 -16z m50 -314 l-14 -45 -1 38 c-1 21 4 48
11 60 19 34 21 1 4 -53z m-115 13 c2 -23 -2 -47 -7 -52 -11 -12 -24 19 -18 43
7 29 23 35 25 9z m50 -96 c-6 -15 -16 -27 -22 -27 -6 0 -9 6 -6 14 3 8 12 34
19 58 12 42 12 42 16 12 1 -16 -2 -42 -7 -57z m-33 28 c-6 -14 -13 -24 -14
-22 -6 6 9 47 17 47 5 0 3 -11 -3 -25z m522 -89 c-15 -75 -35 -87 -27 -17 6
49 23 88 34 77 3 -2 0 -29 -7 -60z m-470 12 c0 -16 -3 -19 -11 -11 -6 6 -8 16
-5 22 11 17 16 13 16 -11z m505 -40 c-8 -28 -19 -56 -24 -61 -20 -20 -23 2 -6
50 9 26 19 54 21 61 2 7 8 11 13 8 5 -4 4 -27 -4 -58z m45 10 c0 -7 -10 -48
-22 -92 -18 -67 -23 -76 -30 -56 -5 12 -6 30 -4 39 3 9 12 42 21 74 9 31 21
55 26 52 5 -4 9 -11 9 -17z m-607 -25 c-6 -15 -23 -18 -23 -4 0 5 3 17 6 26 5
12 9 14 14 4 5 -7 6 -18 3 -26z m23 -19 c-4 -9 -9 -15 -11 -12 -3 3 -3 13 1
22 4 9 9 15 11 12 3 -3 3 -13 -1 -22z m614 8 c0 -26 -48 -184 -60 -196 -21
-21 -19 5 10 94 17 51 30 99 30 107 0 7 5 13 10 13 6 0 10 -8 10 -18z m-580
-36 c0 -27 -15 -42 -25 -26 -8 13 3 50 16 50 5 0 9 -11 9 -24z m636 -23 c-2
-10 -15 -56 -27 -103 -12 -48 -30 -94 -42 -105 -23 -24 -24 -31 18 110 15 50
29 96 31 103 2 6 8 12 14 12 6 0 9 -8 6 -17z m-606 -28 c0 -14 -4 -25 -10 -25
-5 0 -10 11 -10 25 0 14 5 25 10 25 6 0 10 -11 10 -25z m556 -21 c-4 -14 -9
-24 -12 -21 -3 2 -2 17 2 31 3 15 9 25 11 22 3 -3 2 -17 -1 -32z m81 14 c-13
-58 -59 -204 -67 -212 -17 -18 -20 1 -6 35 8 19 24 71 36 117 12 45 27 82 32
82 6 0 8 -10 5 -22z m33 -18 c0 -5 -5 -10 -11 -10 -5 0 -7 5 -4 10 3 6 8 10
11 10 2 0 4 -4 4 -10z m-483 -47 c-33 -128 -52 -182 -58 -176 -12 12 41 193
56 193 4 0 4 -8 2 -17z m469 -10 c-19 -77 -27 -100 -40 -118 -21 -28 -20 -6 4
76 12 38 26 69 32 69 6 0 8 -11 4 -27z m-651 -63 c-4 -32 -10 -48 -15 -40 -4
7 -4 27 1 44 6 20 5 32 -1 34 -5 2 -10 13 -10 25 0 20 1 20 16 5 13 -13 15
-27 9 -68z m170 -87 c-15 -41 -30 -72 -32 -69 -3 3 8 47 23 98 19 61 30 85 32
69 2 -13 -8 -57 -23 -98z m504 56 c-15 -47 -39 -64 -39 -29 0 12 7 38 16 57
24 49 41 28 23 -28z m-546 21 c-3 -11 -9 -18 -13 -15 -5 3 -6 14 -3 25 3 11 9
18 13 15 5 -3 6 -14 3 -25z m-100 -65 c-5 -57 -5 -59 11 -40 17 19 17 18 11
-34 -8 -73 -24 -101 -25 -43 0 24 -4 41 -9 37 -23 -13 -24 39 -5 139 11 51 24
6 17 -59z m687 8 c0 -14 -19 -38 -25 -32 -8 8 5 39 16 39 5 0 9 -3 9 -7z m50
-27 c0 -21 -18 -39 -34 -33 -13 5 -13 12 -5 37 9 25 14 28 25 19 8 -6 14 -17
14 -23z m-697 -124 c-10 -46 -19 -68 -21 -54 -2 13 1 36 7 53 5 16 14 57 18
92 7 53 8 56 11 24 2 -21 -5 -72 -15 -115z m124 126 c-3 -8 -6 -5 -6 6 -1 11
2 17 5 13 3 -3 4 -12 1 -19z m-21 -78 c-8 -26 -14 -36 -15 -24 -1 25 21 93 26
79 2 -6 -3 -30 -11 -55z m-56 -10 c0 -27 -48 -222 -56 -229 -10 -9 2 84 23
172 17 73 33 101 33 57z m260 -10 c0 -5 -2 -10 -4 -10 -3 0 -8 5 -11 10 -3 6
-1 10 4 10 6 0 11 -4 11 -10z m-187 -43 c-5 -36 -23 -52 -23 -22 0 16 22 67
26 62 2 -2 1 -20 -3 -40z m179 -15 l35 -28 -28 -34 c-36 -43 -38 -99 -7 -172
23 -54 18 -68 -29 -68 -23 0 -23 1 -23 165 0 91 4 165 9 165 4 0 24 -13 43
-28z m-256 -128 c-53 -173 -65 -168 -21 9 33 133 33 133 46 120 8 -8 0 -46
-25 -129z m92 91 c-6 -14 -13 -23 -15 -21 -5 5 15 46 22 46 3 0 -1 -11 -7 -25z
m-69 -138 c-12 -45 -23 -91 -24 -101 -2 -29 -25 -32 -25 -4 0 12 12 59 25 103
35 109 36 113 42 97 3 -7 -5 -50 -18 -95z m285 28 c-4 -8 -8 -15 -10 -15 -2 0
-4 7 -4 15 0 8 4 15 10 15 5 0 7 -7 4 -15z m-268 -126 c-20 -65 -20 -82 -1
-49 14 24 14 23 15 -26 0 -90 -45 -181 -101 -205 -37 -15 -59 -6 -59 24 0 27
22 51 63 66 24 9 27 8 27 -10 0 -12 4 -17 11 -14 6 4 8 9 6 12 -3 2 2 25 9 50
19 62 19 83 -1 57 -14 -18 -14 -18 -15 6 0 14 7 48 15 75 9 28 21 68 27 90
l12 40 4 -32 c2 -17 -4 -55 -12 -84z m293 26 c-5 -16 -9 -31 -9 -32 0 -2 -4
-3 -10 -3 -14 0 -13 56 2 83 11 21 11 21 18 2 4 -11 3 -33 -1 -50z m32 -40 c5
4 9 -3 9 -14 0 -19 -2 -20 -20 -9 -22 14 -24 26 -12 55 6 15 8 13 10 -10 2
-15 8 -25 13 -22z m47 -54 c3 -8 -1 -12 -9 -9 -7 2 -15 10 -17 17 -3 8 1 12 9
9 7 -2 15 -10 17 -17z m-78 -104 c0 -7 -14 -23 -30 -36 -20 -14 -34 -37 -42
-67 -9 -31 -17 -44 -28 -42 -20 4 -25 52 -9 90 19 47 109 92 109 55z m50 -4
c0 -5 -4 -14 -9 -22 -11 -17 -32 -5 -24 14 5 15 33 21 33 8z m34 -25 c-11 -37
-45 -100 -51 -95 -9 10 32 117 45 117 9 0 11 -7 6 -22z m-64 -44 c0 -21 -18
-54 -30 -54 -13 0 -13 26 0 51 13 23 30 25 30 3z m-296 -36 c-6 -20 -5 -21 10
-9 17 14 21 5 7 -18 -11 -17 -61 -7 -61 12 0 17 20 37 38 37 9 0 11 -7 6 -22z"/>
<path d="M673 2313 c-4 -9 -1 -19 5 -21 15 -5 39 -28 51 -50 20 -35 21 -3 2
42 -21 47 -46 60 -58 29z"/>
<path d="M640 2235 c0 -8 5 -15 10 -15 6 0 10 -10 10 -23 0 -12 9 -29 20 -37
11 -8 20 -20 20 -27 0 -7 5 -13 10 -13 6 0 10 16 10 35 0 19 -4 35 -10 35 -5
0 -10 7 -10 15 0 8 -4 15 -10 15 -5 0 -10 7 -10 15 0 8 -9 15 -20 15 -11 0
-20 -7 -20 -15z"/>
<path d="M820 2231 c13 -25 33 -28 28 -4 -2 10 -11 19 -21 21 -16 3 -17 1 -7
-17z"/>
<path d="M565 2200 c-3 -5 -1 -10 4 -10 6 0 11 5 11 10 0 6 -2 10 -4 10 -3 0
-8 -4 -11 -10z"/>
<path d="M526 2173 c-3 -16 -9 -39 -12 -52 -6 -18 -4 -22 6 -16 10 6 11 0 6
-29 -4 -20 -4 -42 1 -49 4 -6 6 -25 5 -42 -4 -53 15 -5 27 69 11 62 10 71 -4
79 -12 6 -14 17 -10 38 4 16 2 29 -3 29 -5 0 -12 -12 -16 -27z"/>
<path d="M800 2180 c0 -5 5 -10 10 -10 6 0 10 5 10 10 0 6 -4 10 -10 10 -5 0
-10 -4 -10 -10z"/>
<path d="M830 2140 c0 -5 5 -10 10 -10 6 0 10 5 10 10 0 6 -4 10 -10 10 -5 0
-10 -4 -10 -10z"/>
<path d="M590 2127 c0 -4 -9 -50 -21 -103 -11 -53 -18 -98 -15 -102 9 -8 11
-4 33 98 13 57 18 99 12 105 -5 5 -9 6 -9 2z"/>
<path d="M731 2114 c0 -11 3 -14 6 -6 3 7 2 16 -1 19 -3 4 -6 -2 -5 -13z"/>
<path d="M865 2027 c-4 -10 -5 -21 -1 -24 10 -10 18 4 13 24 -4 17 -4 17 -12
0z"/>
<path d="M1122 1491 c-38 -47 -26 -65 12 -20 22 26 35 59 23 59 -2 0 -18 -18
-35 -39z"/>
<path d="M1079 1328 c-7 -17 -15 -26 -17 -20 -6 19 -18 14 -30 -13 -16 -36
-16 -50 2 -36 11 9 13 6 9 -16 -2 -16 8 0 23 35 14 34 30 62 35 62 5 0 9 5 9
10 0 21 -18 8 -31 -22z"/>
<path d="M1331 759 c-23 -68 -26 -89 -12 -73 12 13 45 123 39 130 -3 3 -15
-23 -27 -57z"/>
<path d="M1376 758 c-3 -7 -11 -35 -20 -62 -18 -57 -20 -74 -7 -60 10 9 41
134 34 134 -2 0 -5 -6 -7 -12z"/>
<path d="M1451 713 c-32 -118 -42 -165 -37 -170 2 -3 10 15 17 39 6 23 20 71
29 106 10 34 14 62 9 62 -4 0 -13 -17 -18 -37z"/>
<path d="M1398 714 c-5 -4 -8 -21 -7 -38 0 -30 0 -30 10 -7 11 27 8 57 -3 45z"/>
<path d="M1546 702 c-3 -3 -6 -16 -6 -28 0 -27 20 -43 21 -17 0 10 3 13 6 6 8
-22 23 -14 23 11 0 22 -31 42 -44 28z"/>
<path d="M1480 673 c0 -11 -29 -153 -37 -178 -3 -13 -2 -17 5 -10 8 8 26 71
48 173 2 12 0 22 -6 22 -5 0 -10 -3 -10 -7z"/>
<path d="M1160 390 c0 -5 9 -10 21 -10 11 0 17 5 14 10 -3 6 -13 10 -21 10 -8
0 -14 -4 -14 -10z"/>
<path d="M1100 380 c0 -5 7 -10 15 -10 8 0 15 5 15 10 0 6 -7 10 -15 10 -8 0
-15 -4 -15 -10z"/>
<path d="M1472 69 c3 -8 22 -17 44 -20 54 -10 383 -8 389 1 13 22 -24 28 -110
18 -89 -10 -257 -5 -304 8 -18 5 -23 4 -19 -7z"/>
</g>
</svg>
