<?xml version="1.0" standalone="no"?>
<!DOCTYPE svg PUBLIC "-//W3C//DTD SVG 20010904//EN"
 "http://www.w3.org/TR/2001/REC-SVG-20010904/DTD/svg10.dtd">
<svg version="1.0" xmlns="http://www.w3.org/2000/svg"
 width="468pt" height="462pt" viewBox="0 0 468 462"
 preserveAspectRatio="xMidYMid meet">
<metadata>
Created by potrace 1.8, written by Peter Selinger 2001-2007
</metadata>
<g transform="translate(0,462) scale(0.207080,-0.207080)"
fill="#000000" stroke="none">
<path d="M995 2183 c-16 -9 -36 -24 -45 -33 -22 -25 -84 -35 -100 -15 -20 24
-59 18 -90 -15 -15 -16 -37 -30 -48 -30 -11 0 -34 -12 -51 -26 -29 -24 -30
-29 -29 -90 2 -62 1 -66 -30 -90 -26 -21 -32 -33 -32 -63 0 -40 23 -71 53 -71
25 0 21 -46 -7 -83 -34 -45 -71 -141 -86 -220 -14 -78 -7 -173 21 -262 14 -45
15 -61 6 -67 -7 -4 -123 -8 -259 -8 -137 0 -248 -2 -248 -4 0 -2 19 -23 41
-46 32 -33 38 -44 28 -51 -11 -7 -4 -18 29 -48 36 -33 42 -43 33 -59 -7 -14
-6 -24 4 -38 9 -13 10 -23 3 -31 -6 -8 17 -48 79 -136 48 -68 120 -170 158
-225 39 -56 73 -102 76 -102 3 0 14 45 24 100 17 97 27 122 40 100 4 -6 50
-49 103 -97 53 -47 96 -89 94 -92 -3 -7 -18 -8 -144 -10 -49 0 -88 -5 -88 -10
0 -6 20 -9 45 -7 53 3 64 -6 31 -23 -27 -15 -56 -61 -56 -90 0 -37 26 -85 54
-100 20 -11 25 -19 20 -35 -6 -18 -5 -19 10 -7 10 8 27 11 46 7 24 -4 30 -2
31 12 1 9 2 22 4 27 1 6 3 18 3 28 1 10 10 17 22 17 15 0 20 7 20 24 0 14 5
28 10 31 27 17 -3 -61 -33 -86 -12 -10 -17 -18 -11 -19 18 0 53 45 60 78 9 42
-12 90 -48 112 l-29 18 23 5 c13 4 98 7 188 7 91 1 211 3 267 5 56 2 105 0
108 -5 3 -5 -12 -26 -33 -47 -22 -21 -42 -46 -45 -56 -11 -29 -27 -19 -27 18
0 31 -3 35 -25 35 -18 0 -25 -5 -25 -20 0 -20 0 -20 -20 0 -22 22 -51 25 -82
9 -16 -8 -22 -8 -29 2 -6 10 -15 10 -42 2 -23 -7 -39 -7 -45 -1 -13 13 -69
-17 -77 -41 -3 -11 -15 -23 -26 -26 -14 -5 -19 -14 -17 -28 4 -32 36 -23 74
18 37 42 52 44 56 9 4 -39 32 -53 57 -30 18 16 21 17 45 1 32 -22 82 -12 92
17 6 21 7 21 24 -2 23 -30 86 -32 108 -3 12 17 14 17 23 0 13 -22 37 -22 61 0
17 15 18 15 18 0 0 -26 52 -22 78 6 12 13 22 29 22 36 0 27 25 3 28 -27 2 -24
8 -32 23 -32 11 0 22 7 26 15 5 14 8 14 24 -1 18 -16 20 -16 41 2 13 10 5 -2
-17 -28 l-40 -46 -195 -2 c-107 -1 -217 -4 -245 -6 -27 -1 -123 -3 -212 -3
-90 -1 -163 -4 -163 -8 0 -5 71 -6 157 -5 l158 4 24 -26 c30 -32 35 -32 67 -2
33 30 88 36 353 36 119 0 200 4 192 9 -7 5 -22 6 -32 4 -24 -7 -24 8 0 38 14
17 17 34 13 68 -2 25 -9 52 -15 59 -15 19 -71 15 -91 -7 -17 -19 -18 -19 -37
0 -23 23 -72 25 -89 4 -10 -12 -15 -13 -21 -3 -10 16 -49 -18 -49 -44 0 -22
-28 -24 -37 -3 -3 9 2 24 11 34 15 17 15 19 1 25 -22 8 -16 50 8 54 13 3 17
-3 17 -25 l1 -28 24 28 c24 27 24 27 159 27 88 0 137 4 142 11 5 8 -12 10 -57
8 -35 -1 -91 -2 -124 -1 l-59 2 44 45 c25 26 51 43 58 40 8 -3 31 -8 51 -11
l38 -6 23 86 c12 47 27 86 31 86 12 0 12 0 -6 -50 -10 -29 -13 -59 -9 -91 6
-47 7 -48 56 -59 27 -7 51 -10 54 -8 2 3 16 45 30 94 26 88 27 121 8 211 -6
31 0 39 126 169 91 93 128 139 120 144 -9 6 0 21 30 54 l43 46 -169 0 -169 1
-34 55 c-33 55 -34 59 -28 136 5 77 6 80 46 117 23 21 41 47 41 59 0 11 4 24
10 27 5 3 10 19 10 35 0 16 7 35 15 44 8 8 15 27 15 43 0 41 10 49 65 57 27 3
57 14 66 24 23 23 14 79 -15 93 -11 6 -38 27 -58 47 -35 33 -38 41 -38 90 0
29 -5 62 -10 73 -10 18 -12 18 -36 -11 -14 -16 -29 -30 -33 -30 -4 0 -14 14
-23 32 l-15 32 -27 -59 c-24 -53 -30 -73 -35 -121 -2 -21 -78 -89 -130 -118
l-53 -28 -31 29 c-18 16 -55 46 -83 67 -35 26 -50 44 -47 55 7 26 -34 71 -65
71 -16 0 -32 8 -40 20 -7 12 -23 20 -41 20 -17 0 -31 6 -35 15 -3 8 -17 20
-31 27 -20 9 -25 19 -25 46 0 60 -46 113 -98 112 -9 -1 -30 -8 -47 -17z m92
-28 c30 -21 39 -69 18 -101 -20 -30 -13 -43 20 -36 56 10 75 -47 24 -73 l-30
-16 30 -29 c17 -15 31 -32 31 -37 0 -17 -24 -33 -51 -33 -36 0 -43 -13 -19
-35 21 -19 16 -45 -9 -45 -25 0 -32 -10 -20 -31 12 -23 -4 -59 -26 -59 -8 0
-22 12 -32 28 -9 15 -19 29 -21 32 -2 3 -8 -3 -13 -13 -13 -23 -46 -22 -59 3
-6 11 -15 20 -19 20 -5 0 -11 -9 -14 -20 -3 -12 -14 -20 -25 -20 -12 0 -23 9
-27 20 -8 26 -21 25 -35 -1 -15 -27 -54 -22 -58 9 -4 26 -14 28 -32 7 -7 -9
-23 -15 -34 -13 -17 2 -21 9 -18 37 2 29 0 33 -18 28 -11 -3 -30 3 -42 13 -19
15 -21 22 -13 46 8 21 18 30 38 32 23 3 26 7 21 27 -4 17 1 27 17 39 l23 16
-22 20 c-26 25 -27 38 -6 69 15 20 22 23 60 17 41 -5 44 -4 44 17 0 50 63 67
80 22 11 -30 18 -31 36 -7 11 14 16 15 33 5 27 -17 27 -17 41 17 22 52 85 75
127 45z m157 -181 c9 -3 16 -14 16 -23 0 -25 11 -33 27 -19 10 8 20 8 39 -1
26 -11 27 -17 13 -71 -3 -10 5 -16 23 -18 50 -6 43 -62 -9 -62 -22 0 -23 -3
-17 -35 8 -43 -10 -69 -41 -61 -16 4 -23 -1 -32 -24 -9 -24 -17 -30 -41 -30
-17 0 -32 6 -35 13 -3 9 -10 7 -24 -6 -20 -17 -21 -17 -39 0 -9 10 -19 13 -21
8 -9 -26 -23 -37 -47 -37 -31 0 -56 18 -56 40 0 12 3 13 12 4 7 -7 27 -12 45
-12 35 0 53 21 53 62 0 13 9 29 20 36 11 7 20 23 20 36 0 14 10 30 25 40 27
18 33 53 15 87 -8 14 -7 27 5 49 16 31 22 34 49 24z m231 -206 c27 -23 33 -33
23 -39 -22 -14 -54 -10 -78 9 -20 16 -21 21 -9 40 18 28 22 28 64 -10z m-74
-37 c27 -22 25 -27 -10 -33 -19 -2 -24 2 -27 25 -3 32 5 34 37 8z m-681 -51
c0 -3 -18 -32 -40 -65 -22 -33 -40 -65 -40 -71 0 -6 -7 -18 -16 -25 -9 -7 -20
-23 -25 -36 -9 -25 -49 -32 -49 -8 0 25 39 120 70 168 27 43 33 47 65 45 19
-1 35 -5 35 -8z m252 -24 c12 -17 9 -41 -7 -62 -15 -19 -15 -19 -30 0 -8 11
-15 34 -15 52 0 28 3 31 23 26 12 -3 25 -10 29 -16z m-172 2 c0 -19 -44 -78
-63 -84 -10 -3 -25 -16 -33 -29 -15 -23 -44 -24 -44 -1 0 6 17 37 37 69 33 50
41 57 70 57 19 0 33 -5 33 -12z m100 -18 c0 -40 18 -75 46 -90 26 -15 25 -37
-5 -99 -21 -45 -32 -47 -71 -14 -40 33 -60 79 -60 137 0 73 13 96 55 96 32 0
35 -2 35 -30z m110 -54 c0 -8 -7 -16 -15 -20 -13 -4 -14 -2 -5 14 13 23 20 26
20 6z m-212 -80 c7 -29 24 -55 52 -79 44 -41 50 -57 20 -57 -13 0 -20 -7 -20
-19 0 -11 -9 -21 -21 -24 -14 -4 -20 -11 -16 -21 3 -8 -1 -20 -9 -26 -25 -21
-17 -48 17 -55 23 -5 29 -11 24 -23 -4 -10 -10 -25 -12 -34 -6 -21 -19 -23
-26 -5 -3 9 -9 7 -24 -5 -41 -37 -83 -16 -83 40 0 18 -3 32 -7 30 -5 -2 -21
-10 -36 -18 -24 -12 -30 -12 -45 3 -14 14 -14 21 -4 37 17 27 16 28 -20 32
-42 4 -50 34 -17 60 l24 18 -24 18 c-34 28 -25 57 19 58 28 0 35 4 36 21 2 41
35 58 61 32 15 -15 33 -3 33 21 0 21 36 51 54 44 7 -3 17 -24 24 -48z m719
-143 c52 -5 52 -6 46 -35 -4 -19 -1 -33 7 -38 9 -6 7 -13 -8 -28 -25 -25 -58
-19 -74 12 -16 31 -16 31 -37 12 -24 -22 -57 -14 -64 16 -6 21 -7 21 -25 5
-23 -21 -46 -22 -62 -2 -7 9 -11 17 -9 18 52 37 119 59 154 50 11 -2 43 -7 72
-10z m-219 -86 c9 -10 7 -19 -5 -37 l-16 -23 -8 21 c-15 39 7 66 29 39z m-161
-19 c-1 -39 5 -60 24 -79 17 -17 19 -23 8 -31 -23 -15 -151 -4 -182 17 -34 22
-29 27 45 50 31 10 65 26 75 36 21 21 31 23 30 7z m246 0 c2 -7 -2 -25 -9 -40
-13 -25 -17 -26 -44 -17 -29 11 -29 11 -15 40 16 30 59 41 68 17z m-803 -32
c0 -27 18 -46 42 -46 16 0 53 -52 43 -62 -2 -2 -20 -2 -39 0 -32 4 -37 9 -56
58 -24 66 -25 85 -5 78 8 -4 15 -16 15 -28z m892 -1 c-6 -35 -51 -95 -71 -95
-28 0 -35 34 -15 72 20 40 28 45 62 44 21 -1 26 -5 24 -21z m137 -27 c9 -41 9
-53 -1 -60 -19 -12 -58 -10 -58 3 0 18 34 109 41 109 3 0 11 -23 18 -52z m-60
-5 c-21 -55 -29 -63 -64 -63 -40 0 -40 0 -19 43 25 49 31 54 63 49 27 -4 29
-6 20 -29z m-605 -48 c-4 -8 -8 -15 -10 -15 -2 0 -4 7 -4 15 0 8 4 15 10 15 5
0 7 -7 4 -15z m62 -10 c18 -14 17 -14 -13 -15 -23 0 -33 5 -33 15 0 19 21 19
46 0z m239 5 c4 -6 -9 -10 -32 -9 -30 0 -34 2 -18 9 27 12 43 12 50 0z m747
-134 c-60 -61 -132 -135 -160 -165 l-49 -54 -47 13 c-29 8 -67 10 -102 6 -49
-6 -59 -4 -89 20 -49 37 -103 42 -159 14 l-46 -22 -30 26 c-43 36 -103 42
-173 18 -51 -17 -57 -17 -58 -3 -1 9 -3 43 -4 76 -2 33 -7 80 -10 103 -6 39
-9 43 -28 39 -82 -19 -85 -19 -92 3 -4 12 -5 23 -3 25 2 2 159 5 349 6 308 2
349 0 370 -14 31 -23 65 -21 89 3 17 17 36 20 172 22 84 2 159 1 166 -1 8 -2
-32 -50 -96 -115z m-1172 84 c25 -53 27 -55 73 -53 l44 1 7 -51 c3 -29 6 -76
6 -106 0 -47 -2 -52 -17 -45 -10 4 -40 9 -66 12 l-49 4 7 69 c5 50 4 69 -5 69
-7 0 -10 11 -8 27 3 26 -1 29 -49 42 -28 7 -58 11 -66 8 -11 -4 -16 -36 -22
-126 -4 -67 -10 -121 -15 -121 -5 0 -112 139 -172 224 -11 15 -28 -12 -28 -44
0 -42 -32 -240 -39 -240 -3 1 -34 48 -69 105 -59 98 -82 120 -97 95 -3 -5 -10
-10 -14 -10 -16 0 -146 129 -138 137 7 6 445 18 676 18 20 0 37 -6 41 -15z
m231 -285 l4 -230 -34 -3 c-28 -3 -33 -1 -27 14 3 9 2 22 -3 28 -8 11 -25 243
-26 366 l0 65 35 5 c19 3 38 1 41 -5 4 -5 8 -113 10 -240z m-266 224 c16 -16
-12 -196 -36 -228 -28 -38 -38 -91 -27 -143 19 -88 20 -97 11 -113 -8 -13 -26
7 -98 104 -49 67 -92 117 -95 113 -4 -4 -17 -69 -31 -144 -13 -76 -26 -138
-30 -138 -3 0 -33 39 -65 88 -32 48 -94 137 -136 199 -43 61 -78 116 -78 121
0 6 16 21 36 33 l37 22 19 -23 c11 -13 44 -66 75 -117 31 -51 59 -93 63 -93 4
0 16 53 25 118 10 64 20 132 24 151 l7 34 89 -124 c48 -68 90 -126 92 -128 9
-12 15 19 25 148 l12 142 36 -6 c19 -4 39 -11 45 -16z m517 -207 c26 -30 27
-33 13 -65 -8 -21 -12 -53 -9 -84 6 -66 -16 -88 -89 -89 -47 0 -51 -2 -52 -25
-5 -106 -2 -99 -38 -99 -18 0 -37 4 -43 10 -5 5 -6 45 -2 97 3 48 7 125 7 169
1 52 5 85 14 91 26 21 74 32 121 29 41 -3 55 -9 78 -34z m-357 -25 c18 -26 20
-116 3 -122 -7 -2 -39 -6 -70 -10 -38 -4 -58 -11 -58 -20 0 -24 69 -35 100
-15 14 9 50 -13 50 -30 0 -16 -70 -40 -115 -40 -41 0 -52 5 -80 35 -78 82 -42
216 62 235 47 8 88 -5 108 -33z m572 23 c48 -29 55 -49 37 -109 l-15 -52 -74
7 c-79 7 -90 1 -56 -30 13 -12 32 -17 61 -15 33 3 45 -1 57 -16 13 -18 12 -21
-14 -32 -70 -30 -149 -7 -177 51 -31 66 -14 141 43 189 39 33 92 36 138 7z
m250 -56 c46 -35 50 -63 23 -170 l-24 -96 -34 6 c-19 3 -37 8 -40 10 -3 3 5
38 17 78 28 97 27 116 -5 124 -35 9 -44 -3 -69 -98 -24 -88 -21 -86 -85 -72
-22 5 -23 7 -7 16 13 7 17 17 13 36 -7 33 28 172 46 184 24 16 135 4 165 -18z
m-1157 -168 c0 -5 -11 1 -25 14 -14 13 -25 31 -25 39 0 17 49 -36 50 -53z
m765 -86 c22 -11 50 -20 62 -20 34 0 28 -13 -29 -64 l-51 -47 -81 3 -81 3 0
59 0 59 46 2 c25 1 55 7 65 13 25 15 24 15 69 -8z m-566 -16 c25 -12 45 -15
79 -9 26 4 74 8 107 8 l60 0 10 -47 c6 -26 17 -51 25 -56 10 -6 -30 -10 -116
-10 l-131 0 -43 38 c-37 33 -42 42 -36 65 8 32 5 31 45 11z m-114 -164 c-3 -5
-15 -10 -25 -10 -10 0 -22 5 -25 10 -4 6 7 10 25 10 18 0 29 -4 25 -10z m74
-64 c0 -7 -2 -7 -6 2 -2 6 -11 12 -19 12 -8 0 -14 10 -14 23 l1 22 19 -24 c11
-13 20 -28 19 -35z m-159 25 c0 -10 -9 -21 -20 -24 -23 -6 -24 -3 -10 24 14
24 30 25 30 0z m52 -48 c-9 -14 -10 -14 -16 5 -9 29 3 51 16 28 5 -10 5 -23 0
-33z m33 27 c3 -5 2 -17 -3 -26 -8 -14 -10 -12 -14 10 -5 26 5 35 17 16z m312
-36 c-2 -2 -12 -1 -22 2 -17 7 -17 8 1 21 17 12 19 12 22 -2 2 -9 2 -19 -1
-21z m83 15 c0 -5 -7 -9 -15 -9 -15 0 -20 12 -9 23 8 8 24 -1 24 -14z m530 11
c0 -5 -7 -10 -15 -10 -8 0 -15 5 -15 10 0 6 7 10 15 10 8 0 15 -4 15 -10z
m-1040 -45 c0 -17 6 -25 23 -27 14 -2 23 -11 25 -26 3 -21 1 -22 -17 -12 -23
12 -51 59 -51 85 0 9 5 13 10 10 6 -3 10 -17 10 -30z m46 23 c4 -7 3 -8 -4 -4
-7 4 -12 2 -12 -4 0 -6 -5 -8 -10 -5 -11 7 -4 25 10 25 5 0 12 -5 16 -12z
m113 -5 c0 -11 -3 -13 -6 -5 -2 6 -10 9 -15 6 -7 -4 -8 -2 -4 4 11 18 26 14
25 -5z m-64 -63 c3 -5 1 -10 -4 -10 -6 0 -11 5 -11 10 0 6 2 10 4 10 3 0 8 -4
11 -10z"/>
<path d="M1192 780 c-21 -9 -23 -15 -20 -67 3 -55 4 -58 31 -61 41 -5 67 22
67 69 0 28 -6 42 -22 53 -25 18 -25 18 -56 6z"/>
<path d="M819 759 c-30 -30 -12 -43 45 -35 46 7 57 21 34 44 -18 18 -56 14
-79 -9z"/>
<path d="M1422 774 c-34 -23 -28 -44 13 -46 19 -1 43 -2 52 -2 21 -1 27 16 11
36 -20 25 -51 30 -76 12z"/>
<path d="M550 120 c-21 -7 -19 -8 18 -9 23 -1 42 4 42 9 0 12 -24 12 -60 0z"/>
</g>
</svg>
