<?xml version="1.0" encoding="UTF-8" standalone="no"?>
<svg
   xmlns:dc="http://purl.org/dc/elements/1.1/"
   xmlns:cc="http://creativecommons.org/ns#"
   xmlns:rdf="http://www.w3.org/1999/02/22-rdf-syntax-ns#"
   xmlns:svg="http://www.w3.org/2000/svg"
   xmlns="http://www.w3.org/2000/svg"
   xmlns:sodipodi="http://sodipodi.sourceforge.net/DTD/sodipodi-0.dtd"
   xmlns:inkscape="http://www.inkscape.org/namespaces/inkscape"
   version="1.0"
   width="468pt"
   height="500pt"
   viewBox="0 0 468 500"
   preserveAspectRatio="xMidYMid meet"
   id="svg2"
   inkscape:version="0.47pre4 r22446"
   sodipodi:docname="inkscape_pasted_image_20100918_010019.png.svg">
  <defs
     id="defs736">
    <inkscape:perspective
       sodipodi:type="inkscape:persp3d"
       inkscape:vp_x="0 : 312.5 : 1"
       inkscape:vp_y="0 : 1000 : 0"
       inkscape:vp_z="585 : 312.5 : 1"
       inkscape:persp3d-origin="292.5 : 208.33333 : 1"
       id="perspective738" />
    <inkscape:perspective
       id="perspective4645"
       inkscape:persp3d-origin="0.5 : 0.33333333 : 1"
       inkscape:vp_z="1 : 0.5 : 1"
       inkscape:vp_y="0 : 1000 : 0"
       inkscape:vp_x="0 : 0.5 : 1"
       sodipodi:type="inkscape:persp3d" />
  </defs>
  <sodipodi:namedview
     pagecolor="#ffffff"
     bordercolor="#666666"
     borderopacity="1"
     objecttolerance="10"
     gridtolerance="10"
     guidetolerance="10"
     inkscape:pageopacity="0"
     inkscape:pageshadow="2"
     inkscape:window-width="1280"
     inkscape:window-height="950"
     id="namedview734"
     showgrid="false"
     inkscape:zoom="0.82703209"
     inkscape:cx="69.067261"
     inkscape:cy="180.42651"
     inkscape:window-x="0"
     inkscape:window-y="25"
     inkscape:window-maximized="1"
     inkscape:current-layer="svg2" />
  <metadata
     id="metadata4">
Created by potrace 1.8, written by Peter Selinger 2001-2007
<rdf:RDF>
  <cc:Work
     rdf:about="">
    <dc:format>image/svg+xml</dc:format>
    <dc:type
       rdf:resource="http://purl.org/dc/dcmitype/StillImage" />
  </cc:Work>
</rdf:RDF>
</metadata>
  <path
     style="fill:#000000;stroke:none"
     id="path70"
     d="m -35.184318,146.09333 c 0,0.312 0.312,0.4368 0.624,0.2496 0.3744,-0.1872 0.624,-0.4992 0.624,-0.6864 0,-0.1248 -0.2496,-0.2496 -0.624,-0.2496 -0.312,0 -0.624,0.312 -0.624,0.6864 z" />
  <path
     style="fill:#000000;stroke:none"
     id="path74"
     d="m -33.187518,149.77493 c 0.4368,0.624 0.8736,1.1232 0.936,0.9984 0.3744,-0.3744 -0.5616,-2.2464 -1.1232,-2.2464 -0.312,0 -0.2496,0.5616 0.1872,1.248 z" />
  <path
     style="fill:#000000;stroke:none"
     id="path92"
     d="m -30.816318,155.26613 c 0,0.312 -1.1232,0.8736 -2.496,1.3104 -7.363202,2.184 -4.3056,8.7984 4.1184,8.7984 5.304,0 8.8608,-2.8704 7.6752,-6.1152 -0.5616,-1.56 -3.9312,-3.2448 -6.4896,-3.2448 -0.8736,0 -1.56,-0.312 -1.56,-0.624 0,-0.3744 -0.2496,-0.624 -0.624,-0.624 -0.312,0 -0.624,0.2496 -0.624,0.4992 z m 7.5504,3.6192 c 1.6224,1.4352 1.4976,2.4336 -0.4368,3.9312 -1.9344,1.4976 -7.8,1.8096 -10.4832,0.5616 -2.8704,-1.248 -2.808,-4.2432 0.1248,-5.4288 3.744,-1.4352 8.6112,-0.9984 10.7952,0.936 z" />
  <path
     style="fill:#000000;stroke:none"
     id="path94"
     d="m -29.256318,158.51093 c 0.1872,0.312 0.4992,0.624 0.6864,0.624 0.1248,0 0.2496,-0.312 0.2496,-0.624 0,-0.3744 -0.312,-0.624 -0.6864,-0.624 -0.312,0 -0.4368,0.2496 -0.2496,0.624 z" />
  <path
     style="fill:#000000;stroke:none"
     id="path100"
     d="m -44.85632,160.38293 c -0.1872,0.312 -0.0624,0.624 0.2496,0.624 0.3744,0 0.6864,-0.312 0.6864,-0.624 0,-0.3744 -0.1248,-0.624 -0.2496,-0.624 -0.1872,0 -0.4992,0.2496 -0.6864,0.624 z" />
  <path
     style="fill:#000000;stroke:none"
     id="path102"
     d="m -43.29632,161.75573 c 0,0.3744 0.1872,0.5616 0.3744,0.312 0.1872,-0.1872 0.936,0.1872 1.6848,0.8112 0.6864,0.6864 1.435202,1.1232 1.560002,0.936 0.312,-0.312 -2.433602,-2.7456 -3.120002,-2.808 -0.312,0 -0.4992,0.312 -0.4992,0.7488 z" />
  <path
     style="fill:#000000;stroke:none"
     id="path112"
     d="m -33.312318,168.49493 c 0,0.312 -2.4336,0.6864 -5.4288,0.7488 -5.241602,0.1872 -5.428802,0.2496 -5.865602,1.8096 -0.5616,2.1216 0,2.9328 2.2464,3.3072 2.620802,0.3744 2.620802,0.3744 1.0608,0.9984 -1.3728,0.5616 -1.4352,0.8112 -1.248,7.6128 l 0.1872,7.0512 5.491202,0.1872 5.4288,0.1872 0,-7.5504 0,-7.488 -3.5568,-0.0624 c -1.9968,-0.0624 -3.8064,-0.0624 -4.056,0 -0.312,0 -0.4992,-0.2496 -0.4992,-0.5616 0,-0.3744 4.368,-0.624 11.856,-0.624 l 11.856,0 0,-2.496 0,-2.496 -7.7376,0 c -4.5552,0 -7.9248,-0.2496 -8.1744,-0.624 -0.4992,-0.8112 -1.56,-0.8112 -1.56,0 z m 4.368,2.5584 c 0,0.312 0.312,0.5616 0.6864,0.5616 0.312,0 0.4368,-0.312 0.2496,-0.624 -0.2496,-0.3744 1.7472,-0.624 5.616,-0.624 5.8656,0 5.9904,0.0624 5.8032,1.3728 l -0.1872,1.4352 -13.104,0 -13.104002,0 -0.1872,-1.4352 c -0.2496,-1.4352 -0.1872,-1.4352 6.988802,-1.3104 3.9936,0.0624 7.2384,0.312 7.2384,0.624 z m -5.304,6.4272 c 0.9984,0.3744 1.0608,0.3744 0.312,-0.1872 -0.8112,-0.5616 -0.8112,-0.6864 0.1872,-0.6864 0.936,0 1.0608,0.6864 1.0608,6.24 l 0,6.24 -4.368,0 -4.368002,0 0,-6.3024 0,-6.3024 2.995202,0.2496 c 1.6224,0.1872 3.4944,0.4992 4.1808,0.7488 z" />
  <path
     style="fill:#000000;stroke:none"
     id="path114"
     d="m -40.80032,184.09493 c 0,0.312 0.312002,0.624 0.624002,0.624 0.3744,0 0.624,-0.312 0.624,-0.624 0,-0.3744 -0.2496,-0.624 -0.624,-0.624 -0.312,0 -0.624002,0.2496 -0.624002,0.624 z" />
  <path
     style="fill:#000000;stroke:none"
     id="path118"
     d="m 548.34028,70.195271 c -0.1872,0.4992 -0.2496,3.2448 -0.1248,6.1152 l 0.1872,5.2416 11.7312,0.1872 11.6688,0.1248 0,-6.24 0,-6.24 -11.544,0 c -9.1104,0 -11.6688,0.1872 -11.9184,0.8112 z m 22.8384,5.4288 0,4.992 -10.92,0 -10.92,0 0,-4.992 0,-4.992 10.92,0 10.92,0 0,4.992 z" />
  <path
     style="fill:#000000;stroke:none"
     id="path124"
     d="m -27.446718,176.17013 c -0.1248,0.4368 -0.1872,3.744 -0.1248,7.3632 l 0.1872,6.4896 5.4912,0.1872 5.4912,0.1872 -0.1872,-7.3632 -0.1872,-7.3632 -5.1792,-0.1872 c -3.8688,-0.1248 -5.2416,0.0624 -5.4912,0.6864 z m 9.7344,6.6768 0,6.24 -4.368,0 -4.368,0 0,-3.6816 c 0,-2.3712 0.312,-3.8064 0.8112,-4.056 0.624,-0.312 0.624,-0.4368 0,-0.7488 -0.4368,-0.1872 -0.8112,-1.1856 -0.8112,-2.184 l 0,-1.8096 4.368,0 4.368,0 0,6.24 z" />
  <path
     style="fill:#000000;stroke:none"
     id="path126"
     d="m -29.568318,179.72693 c 0,0.312 0.312,0.624 0.624,0.624 0.3744,0 0.624,-0.312 0.624,-0.624 0,-0.3744 -0.2496,-0.624 -0.624,-0.624 -0.312,0 -0.624,0.2496 -0.624,0.624 z" />
  <path
     style="fill:#000000;stroke:none"
     id="path128"
     d="m 577.922,142.96122 c 0,0.8112 1.1232,2.4336 1.4976,2.1216 0.1248,-0.1872 -0.1248,-0.8736 -0.624,-1.4976 -0.4992,-0.6864 -0.8736,-0.9984 -0.8736,-0.624 z" />
  <path
     style="fill:#000000;stroke:none"
     id="path132"
     d="m 579.794,146.64282 c 0.6864,0.8112 0.3744,0.936 -2.4336,0.936 l -3.1824,0 0,3.12 0,3.12 20.592,0 20.592,0 0,-3.12 0,-3.12 -17.16,0 c -14.7264,0 -17.2224,-0.1248 -17.5344,-0.936 -0.2496,-0.4992 -0.6864,-0.936 -0.9984,-0.936 -0.3744,0 -0.312,0.3744 0.1248,0.936 z m 34.32,4.056 0,1.872 -19.344,0 -19.344,0 0,-1.872 0,-1.8096 19.344,-0.0624 19.344,0 0,1.872 z" />
  <path
     style="fill:#000000;stroke:none"
     id="path134"
     d="m -44.23232,183.47093 c -0.1872,0.312 -0.0624,0.624 0.2496,0.624 0.3744,0 0.6864,-0.312 0.6864,-0.624 0,-0.3744 -0.1248,-0.624 -0.2496,-0.624 -0.1872,0 -0.4992,0.2496 -0.6864,0.624 z" />
  <path
     style="fill:#000000;stroke:none"
     id="path140"
     d="m 616.1732,158.18682 c 0,2.0592 0.1248,2.6208 0.2496,1.3728 0.312,-2.6208 2.184,-2.496 2.808,0.1872 0.3744,1.8096 0.3744,1.8096 0.312,-0.312 -0.1248,-1.7472 -0.4368,-2.2464 -1.4976,-2.3712 -0.7488,-0.1248 -1.4976,-0.6864 -1.6224,-1.248 -0.1872,-0.5616 -0.2496,0.4992 -0.2496,2.3712 z" />
  <path
     style="fill:#000000;stroke:none"
     id="path142"
     d="m -35.184318,197.44853 c 0,4.7424 -0.1248,5.304 -1.248,5.6784 -0.6864,0.1872 -1.248,0.6864 -1.248,1.1232 0,0.4992 0.1872,0.4992 0.7488,-0.0624 1.1232,-1.1232 1.7472,-0.936 1.7472,0.4992 0,1.1856 0.4368,1.248 5.616,1.248 l 5.616,0 0,-6.864 0,-6.864 -5.616,0 -5.616,0 0,5.2416 z m 9.984,1.6224 0,5.616 -4.368,0 -4.368,0 0,-5.616 0,-5.616 4.368,0 4.368,0 0,5.616 z" />
  <path
     style="fill:#000000;stroke:none"
     id="path144"
     d="m 590.402,156.37722 c -2.9952,0.8736 -5.1792,3.3696 -4.368,4.992 1.1232,2.0592 3.6192,3.1824 7.6752,3.4944 4.4304,0.3744 8.1744,-0.4992 10.4208,-2.3712 1.4352,-1.1856 1.4352,-1.3728 0.5616,-2.9328 -0.4992,-0.936 -1.7472,-2.0592 -2.6832,-2.5584 -2.3088,-1.0608 -8.7984,-1.4352 -11.6064,-0.624 z m 12.0432,2.1216 c 1.8096,1.1232 2.3712,3.0576 0.7488,2.4336 -0.6864,-0.2496 -0.8112,-0.1248 -0.624,0.5616 0.936,2.3712 -10.296,3.2448 -13.8528,1.0608 -3.0576,-1.872 -2.496,-3.744 1.4976,-4.992 2.808,-0.936 10.296,-0.3744 12.2304,0.936 z" />
  <path
     style="fill:#000000;stroke:none"
     id="path146"
     d="m 595.706,160.05882 c 0.1872,0.312 0.4992,0.624 0.6864,0.624 0.1248,0 0.2496,-0.312 0.2496,-0.624 0,-0.3744 -0.312,-0.624 -0.6864,-0.624 -0.312,0 -0.4368,0.2496 -0.2496,0.624 z" />
  <path
     style="fill:#000000;stroke:none"
     id="path148"
     d="m 597.266,160.05882 c 0,0.312 0.312,0.624 0.6864,0.624 0.312,0 0.4368,-0.312 0.2496,-0.624 -0.1872,-0.3744 -0.4992,-0.624 -0.6864,-0.624 -0.1248,0 -0.2496,0.2496 -0.2496,0.624 z" />
  <path
     style="fill:#000000;stroke:none"
     id="path156"
     d="m 607.562,161.93082 c -0.1872,0.312 -0.0624,0.624 0.2496,0.624 0.3744,0 0.6864,-0.312 0.6864,-0.624 0,-0.3744 -0.1248,-0.624 -0.2496,-0.624 -0.1872,0 -0.4992,0.2496 -0.6864,0.624 z" />
  <path
     style="fill:#000000;stroke:none"
     id="path158"
     d="m 611.1812,164.86362 c -1.1856,0.4368 -0.9984,1.6848 0.4368,2.9952 1.6224,1.4352 1.56,2.0592 -0.1248,2.3712 -1.248,0.2496 -1.1856,0.2496 0.312,0.3744 2.1216,0.0624 2.3088,-1.9344 0.312,-3.3696 -1.1856,-0.8112 -1.3104,-1.0608 -0.4992,-1.56 0.4992,-0.312 1.1232,-0.3744 1.4976,-0.1872 0.312,0.1872 0.3744,0.0624 0.1248,-0.312 -0.4992,-0.8112 -0.8112,-0.8736 -2.0592,-0.312 z" />
  <path
     style="fill:#000000;stroke:none"
     id="path164"
     d="m 614.9876,167.17242 c -0.5616,1.4352 0,3.1824 0.9984,3.2448 0.5616,0 0.624,-0.0624 0.1872,-0.1872 -1.1856,-0.3744 -0.9984,-2.496 0.312,-3.2448 0.9984,-0.624 0.9984,-0.624 -0.0624,-0.6864 -0.624,0 -1.248,0.3744 -1.4352,0.8736 z" />
  <path
     style="fill:#000000;stroke:none"
     id="path166"
     d="m 618.7316,167.17242 c -0.4992,1.3728 -0.0624,3.0576 0.8736,3.2448 0.4368,0.0624 0.4992,0 0.1248,-0.1872 -0.9984,-0.4992 -0.7488,-2.6832 0.3744,-3.12 1.3104,-0.4992 2.184,0.9984 1.4352,2.4336 -0.3744,0.7488 -0.3744,1.1232 0,1.1232 0.9984,0 1.4976,-2.496 0.6864,-3.432 -0.9984,-1.1856 -3.0576,-1.1856 -3.4944,-0.0624 z" />
  <path
     style="fill:#000000;stroke:none"
     id="path172"
     d="m -39.801918,205.06133 c -0.6864,0.4368 -1.123202,0.9984 -0.936002,1.1232 0.1248,0.1248 0.811202,-0.1248 1.435202,-0.624 0.6864,-0.4368 1.1232,-0.9984 0.936,-1.1232 -0.1248,-0.1248 -0.8112,0.1248 -1.4352,0.624 z" />
  <path
     style="fill:#000000;stroke:none"
     id="path174"
     d="m 590.8388,172.41402 -4.1808,4.2432 4.368,4.3056 4.368,4.368 4.1808,-4.1808 4.1808,-4.1808 -3.9936,-4.2432 c -2.184,-2.3088 -4.1184,-4.3056 -4.3056,-4.4304 -0.2496,-0.0624 -2.3088,1.7472 -4.6176,4.1184 z m 8.1744,0.936 3.2448,3.3072 -3.6192,3.5568 -3.6192,3.5568 -3.2448,-3.3072 c -1.8096,-1.8096 -3.2448,-3.5568 -3.2448,-3.8688 0,-0.8112 5.7408,-6.552 6.552,-6.552 0.3744,0 2.1216,1.4976 3.9312,3.3072 z" />
  <path
     style="fill:#000000;stroke:none"
     id="path176"
     d="m -44.54432,207.80693 c -0.4992,0.312 -0.6864,0.7488 -0.4992,0.9984 0.2496,0.1872 0.8736,-0.0624 1.4352,-0.624 1.1232,-1.0608 0.5616,-1.3104 -0.936,-0.3744 z" />
  <path
     style="fill:#000000;stroke:none"
     id="path180"
     d="m -38.803518,213.85973 c 0.1248,2.9328 0.4368,4.2432 0.9984,4.1808 0.3744,-0.0624 4.4304,-0.1248 8.8608,-0.1872 l 8.112,-0.0624 0,-4.056 0,-4.056 -9.048,0 -9.1104,0 0.1872,4.1808 z m 17.3472,-0.1248 0,2.8704 -8.112,-0.1248 -8.112,-0.0624 0,-2.7456 0,-2.7456 8.112,0 8.112,0 0,2.808 z" />
  <path
     style="fill:#000000;stroke:none"
     id="path182"
     d="m -36.120318,215.29493 c 0.1872,0.312 0.4992,0.624 0.6864,0.624 0.1248,0 0.2496,-0.312 0.2496,-0.624 0,-0.3744 -0.312,-0.624 -0.6864,-0.624 -0.312,0 -0.4368,0.2496 -0.2496,0.624 z" />
  <path
     style="fill:#000000;stroke:none"
     id="path186"
     d="m 611.7428,176.09562 c -0.312,0.936 -0.8112,2.3088 -1.0608,2.9952 -0.4368,0.9984 -0.3744,1.1232 0.3744,0.4368 0.9984,-0.8736 3.6816,-0.9984 3.6816,-0.1248 0,0.312 0.2496,0.624 0.624,0.624 0.6864,0 -1.56,-5.1792 -2.3712,-5.4912 -0.312,-0.0624 -0.8736,0.624 -1.248,1.56 z m 2.3712,1.56 c 0,0.312 -0.4368,0.4992 -0.936,0.4992 -0.936,0 -1.248,-1.3104 -0.4992,-2.0592 0.4368,-0.4368 1.4352,0.6864 1.4352,1.56 z" />
  <path
     style="fill:#000000;stroke:none"
     id="path194"
     d="m 581.4788,181.77402 -4.1808,4.2432 4.2432,4.1808 4.2432,4.1808 4.1808,-4.2432 4.1808,-4.2432 -4.2432,-4.1808 -4.2432,-4.1808 -4.1808,4.2432 z m 7.8624,7.7376 -3.5568,3.6192 -3.6192,-3.5568 -3.6192,-3.5568 3.5568,-3.6192 3.5568,-3.6192 3.6192,3.5568 3.6192,3.5568 -3.5568,3.6192 z" />
  <path
     style="fill:#000000;stroke:none"
     id="path196"
     d="m 600.698,181.89882 -4.3056,4.368 3.9936,4.056 c 2.184,2.2464 4.3056,4.056 4.68,4.056 0.3744,0 2.496,-1.8096 4.68,-4.056 l 4.056,-4.056 -4.368,-4.368 -4.368,-4.368 -4.368,4.368 z m 8.2368,0.7488 3.3072,3.2448 -3.5568,3.6192 -3.5568,3.6192 -3.6192,-3.5568 -3.6192,-3.5568 3.2448,-3.3072 c 1.8096,-1.8096 3.5568,-3.3072 3.8688,-3.3072 0.3744,0 2.1216,1.4352 3.9312,3.2448 z" />
  <path
     style="fill:#000000;stroke:none"
     id="path198"
     d="m -37.056318,225.21653 0,5.5536 3.9312,0.2496 c 2.1216,0.0624 5.304,0.0624 6.9888,-0.1248 l 3.12,-0.312 0,-5.304 0,-5.304 -6.9888,-0.1872 -7.0512,-0.1872 0,5.616 z m 13.104,0.0624 0,4.368 -2.496,0 c -1.56,0 -2.496,-0.312 -2.5584,-0.8112 0,-0.624 -0.1248,-0.624 -0.3744,0 -0.1872,0.4992 -1.4976,0.8112 -3.3696,0.8112 l -3.0576,0 0,-4.368 0,-4.368 5.928,0 5.928,0 0,4.368 z" />
  <path
     style="fill:#000000;stroke:none"
     id="path200"
     d="m -29.880318,227.15093 c -0.1872,0.312 -0.0624,0.624 0.2496,0.624 0.3744,0 0.6864,-0.312 0.6864,-0.624 0,-0.3744 -0.1248,-0.624 -0.2496,-0.624 -0.1872,0 -0.4992,0.2496 -0.6864,0.624 z" />
  <path
     style="fill:#000000;stroke:none"
     id="path202"
     d="m -41.42432,222.22133 c -2.3088,2.8704 -2.3712,3.744 -0.1248,1.1856 1.684802,-1.872 2.433602,-3.12 1.872002,-3.12 -0.1248,0 -0.873602,0.8736 -1.747202,1.9344 z" />
  <path
     style="fill:#000000;stroke:none"
     id="path204"
     d="m 571.682,191.57082 -4.056,4.056 4.368,4.368 4.368,4.368 4.368,-4.368 4.3056,-4.368 -3.9936,-4.056 c -2.184,-2.2464 -4.3056,-4.056 -4.68,-4.056 -0.3744,0 -2.496,1.8096 -4.68,4.056 z m 8.6112,7.6128 c -1.8096,1.8096 -3.5568,3.3072 -3.8688,3.3072 -0.3744,0 -2.1216,-1.4352 -3.9312,-3.2448 l -3.3072,-3.2448 3.5568,-3.6192 3.5568,-3.6192 3.6192,3.5568 3.6192,3.5568 -3.2448,3.3072 z" />
  <path
     style="fill:#000000;stroke:none"
     id="path206"
     d="m 590.8388,191.75802 -4.1808,4.2432 4.2432,4.1808 4.2432,4.1808 4.3056,-4.368 4.3056,-4.368 -3.9936,-4.056 c -2.184,-2.2464 -4.1808,-4.056 -4.368,-4.056 -0.1872,0 -2.2464,1.872 -4.5552,4.2432 z m 8.1744,7.4256 c -1.8096,1.8096 -3.5568,3.3072 -3.8688,3.3072 -0.8112,0 -6.6144,-5.6784 -6.6144,-6.4896 0,-0.3744 1.4352,-2.1216 3.2448,-3.9312 l 3.2448,-3.3072 3.6192,3.5568 3.6192,3.5568 -3.2448,3.3072 z" />
  <path
     style="fill:#000000;stroke:none"
     id="path208"
     d="m 610.1828,191.75802 -4.1808,4.2432 4.368,4.3056 4.368,4.368 4.1808,-4.2432 4.2432,-4.1808 -4.368,-4.368 -4.368,-4.368 -4.2432,4.2432 z m 8.2992,1.0608 3.432,3.432 -3.6192,3.6192 -3.5568,3.5568 -3.5568,-3.5568 -3.6192,-3.6192 3.432,-3.432 c 1.872,-1.872 3.5568,-3.432 3.744,-3.432 0.1872,0 1.872,1.56 3.744,3.432 z" />
  <path
     style="fill:#000000;stroke:none"
     id="path210"
     d="m -45.48032,227.77493 c 0.1872,0.312 0.4992,0.624 0.6864,0.624 0.1248,0 0.2496,-0.312 0.2496,-0.624 0,-0.3744 -0.312,-0.624 -0.6864,-0.624 -0.312,0 -0.4368,0.2496 -0.2496,0.624 z" />
  <path
     style="fill:#000000;stroke:none"
     id="path212"
     d="m -47.66432,230.27093 c 0,0.312 0.312,0.624 0.6864,0.624 0.312,0 0.4368,-0.312 0.2496,-0.624 -0.1872,-0.3744 -0.4992,-0.624 -0.6864,-0.624 -0.1248,0 -0.2496,0.2496 -0.2496,0.624 z" />
  <path
     style="fill:#000000;stroke:none"
     id="path216"
     d="m 581.354,201.24282 -4.368,4.368 4.2432,4.1808 4.1808,4.2432 4.368,-4.368 4.368,-4.368 -4.2432,-4.2432 -4.2432,-4.1808 -4.3056,4.368 z m 7.9248,0.4368 c 1.6224,1.6224 2.9952,3.2448 2.9952,3.5568 0,0.3744 -1.4352,2.1216 -3.2448,3.9312 l -3.2448,3.3072 -3.6192,-3.5568 -3.6192,-3.5568 3.2448,-3.3072 c 1.8096,-1.8096 3.5568,-3.3072 3.8688,-3.3072 0.3744,0 1.9968,1.3104 3.6192,2.9328 z" />
  <path
     style="fill:#000000;stroke:none"
     id="path218"
     d="m 600.386,201.55482 -3.9936,4.056 4.3056,4.368 4.3056,4.368 4.2432,-4.1808 4.2432,-4.1808 -4.1808,-4.2432 c -2.3088,-2.3712 -4.368,-4.2432 -4.5552,-4.2432 -0.1872,0 -2.184,1.8096 -4.368,4.056 z m 11.232,4.3056 c 0,0.8112 -5.6784,6.6144 -6.4896,6.6144 -0.3744,0 -2.1216,-1.4352 -3.9312,-3.2448 l -3.3072,-3.2448 3.5568,-3.6192 3.5568,-3.6192 3.3072,3.2448 c 1.8096,1.8096 3.3072,3.5568 3.3072,3.8688 z" />
  <path
     style="fill:#000000;stroke:none"
     id="path394"
     d="m -32.665704,58.179727 c -3.8064,1.0608 -5.9904,4.8048 -4.8048,8.424 2.3712,7.176 13.104,5.4912 13.104,-2.0592 0,-1.4352 -1.9968,-5.8032 -2.6208,-5.8032 -0.1248,0 -1.0608,-0.2496 -2.0592,-0.4992 -1.0608,-0.312 -2.6832,-0.312 -3.6192,-0.0624 z m 5.1168,2.184 c 3.5568,2.9952 2.2464,8.6736 -2.3088,9.7968 -3.3072,0.8112 -7.0512,-2.2464 -6.9888,-5.616 0.0624,-2.808 3.12,-5.7408 6.0528,-5.8032 0.7488,0 2.184,0.7488 3.2448,1.6224 z" />
  <path
     style="fill:#000000;stroke:none"
     id="path396"
     d="m -17.814504,57.930127 c -1.872,0.4368 -4.5552,3.2448 -4.992,5.1792 -0.4368,1.9344 0.8112,5.4912 2.3712,6.8016 0.624,0.4368 2.2464,0.9984 3.744,1.1232 2.2464,0.2496 2.9952,0.0624 4.68,-1.3728 3.8688004,-3.2448 3.0576004,-9.36 -1.4352,-11.2944 -2.2464,-0.936 -2.3088,-0.936 -4.368,-0.4368 z m 5.2416,2.4336 c 3.9936004,3.3696 1.6848,9.6096 -3.4944,9.6096 -5.3664,-0.0624 -7.7376,-5.6784 -3.9936,-9.4224 2.3088,-2.3088 4.9296,-2.3712 7.488,-0.1872 z" />
  <path
     style="fill:#000000;stroke:none"
     id="path398"
     d="m -17.814504,73.342927 c -3.6816,1.6224 -5.1792,4.68 -4.056,8.1744 0.9984,2.9328 3.3072,4.68 6.3648,4.68 3.2448,0 6.7392004,-3.1824 6.7392004,-6.1776 0,-5.1792 -4.6176004,-8.5488 -9.0480004,-6.6768 z m 5.8656,1.9968 c 3.9936004,3.3696 1.6848,9.6096 -3.4944,9.6096 -7.8,-0.0624 -7.6128,-10.9824 0.2496,-11.1696 0.7488,-0.0624 2.184,0.6864 3.2448,1.56 z" />
  <path
     style="fill:#000000;stroke:none"
     id="path400"
     d="m -34.288104,74.091727 c -2.184,1.56 -3.2448,4.6176 -2.496,7.3008 1.9968,7.3632 13.0416,5.8656 13.0416,-1.8096 0,-2.0592 -1.56,-5.0544 -3.0576,-5.8656 -1.872,-0.936 -5.8656,-0.7488 -7.488,0.3744 z m 7.9872,1.7472 c 4.056,4.1184 -0.3744,10.92 -5.9904,9.048 -3.3072,-1.0608 -4.8048,-4.8672 -3.0576,-7.9872 1.872,-3.3696 6.1776,-3.8688 9.048,-1.0608 z" />
  <path
     style="fill:#000000;stroke:none"
     id="path402"
     d="m -26.612904,90.253327 c -4.056,2.1216 -4.8048,7.2384 -1.56,10.545603 1.6224,1.6224 2.4336,1.9344 4.8048,1.9344 2.4336,0 3.12,-0.312 4.68,-2.0592 4.992,-5.553603 -1.248,-13.790403 -7.9248,-10.420803 z m 6.9264,1.872 c 3.4944,3.4944 1.1232,9.672003 -3.744,9.672003 -2.9952,0 -5.928,-2.808003 -5.928,-5.616003 0,-4.7424 6.3648,-7.4256 9.672,-4.056 z" />
  <g
     id="g4685">
    <path
       d="m 221.81889,53.70362 c -15.6,2.3712 -31.2,7.5504 -38.376,12.6672 -5.1168,3.744 -8.8608,14.4144 -9.048,25.7712 l -0.0624,6.7392 -4.4304,1.6848 c -11.1696,4.1808 -16.3488,6.3024 -25.896,10.6704 -13.1664,5.928 -32.6352,15.3504 -40.9344,19.7808 -3.556802,1.9344 -6.676802,3.5568 -6.926402,3.6192 -1.6224,0.312 -4.056,3.5568 -4.8672,6.3024 -0.7488,2.7456 -3.0576,18.5328 -3.8688,26.2704 -0.1248,1.3728 -0.624,5.5536 -1.1232,9.36 -0.4992,3.744 -0.936,8.8608 -0.936,11.3568 0,2.496 -0.1872,4.5552 -0.4368,4.5552 -0.312,0 -0.4992,5.1168 -0.4992,11.3568 -0.1248,31.3248 -0.3744,40.248 -1.3104,45.7392 -0.5616,3.0576 -1.0608,6.7392 -1.1856,8.112 -0.5616,6.6144 -1.6848,37.3152 -2.1216,57.72 l -0.4992,22.776 -4.1808,22.776 c -3.9936,21.4656 -4.1808,23.1504 -3.9312,29.64 0.2496,5.4912 0.624,7.6128 1.9344,10.7328 2.808,6.6768 6.6768,28.5792 6.7392,38.2512 0.0624,5.9904 0.7488,7.8 4.8672,12.9168 1.8096,2.3088 3.744,3.8064 6.6144,5.2416 3.9312,1.9344 4.1808,1.9968 10.420802,1.6848 3.4944,-0.1872 10.608,-0.9984 15.8496,-1.7472 l 9.4224,-1.4352 0.3744,-6.9264 c 0.1872,-3.8064 0.4992,-12.2928 0.6864,-18.7824 0.4368,-14.4768 0.8112,-15.8496 8.0496,-28.5792 l 5.2416,-9.2976 2.3712,4.9296 2.3088,4.8672 -0.4368,13.5408 -0.4368,13.6032 9.2976,0 c 5.1168,0 12.2928,0.1872 15.912,0.4368 l 6.6768,0.3744 -0.1248,2.5584 -0.1872,2.5584 5.8032,0.1872 5.8656,0.1872 -0.1248,-1.7472 c -0.1872,-2.7456 -0.0624,-3.3072 0.8112,-3.3072 0.5616,0 0.7488,1.6224 0.7488,6.0528 0,7.176 1.4352,10.92 5.1792,13.7904 1.9344,1.4976 2.7456,1.6848 6.9888,1.6848 4.2432,0 4.992,-0.1872 7.0512,-1.7472 2.8704,-2.184 4.5552,-5.3664 5.4912,-10.5456 l 0.7488,-4.056 19.0944,0.2496 c 10.4832,0.1248 20.5296,0.312 22.2768,0.3744 2.5584,0.1872 3.3696,0 3.9312,-0.936 0.4992,-0.7488 1.4352,-1.1232 3.1824,-1.1232 2.2464,0 2.496,0.1872 2.496,1.56 0,1.4976 0.1248,1.56 4.368,1.56 4.1808,0 4.368,-0.0624 4.368,-1.4976 0,-2.6208 1.3104,-3.0576 7.488,-2.5584 l 5.616,0.4368 0,2.1216 0,2.1216 3.744,0.1248 c 2.0592,0.0624 4.368,0.1248 5.1792,0.1248 1.1232,0.0624 1.4352,-0.3744 1.6848,-2.1216 l 0.312,-2.184 18.2832,-0.312 c 9.984,-0.1872 18.1584,-0.4992 18.1584,-0.8112 -0.0624,-0.2496 0.0624,-6.0528 0.312,-12.9792 l 0.4368,-12.48 1.9968,-3.1824 1.9968,-3.2448 0.4992,4.056 c 0.312,2.184 1.248,6.1152 2.0592,8.6736 0.8112,2.5584 1.4976,5.1168 1.4976,5.616 0,0.4992 0.8736,2.6208 1.872,4.68 1.1232,2.2464 1.872,4.7424 1.872,6.24 0,1.3728 -0.8736,10.5456 -1.9968,20.4048 -1.0608,9.8592 -1.8096,18.096 -1.56,18.3456 0.1872,0.2496 2.8704,0.9984 5.8656,1.6848 4.2432,0.936 8.5488,1.3104 18.9072,1.4976 11.7936,0.2496 14.1024,0.1248 18.9072,-0.936 3.0576,-0.6864 5.6784,-1.4352 5.8656,-1.6224 0.1872,-0.1872 0.9984,-9.1104 1.7472,-19.8432 l 1.4976,-19.5312 2.184,-3.6816 c 1.1856,-1.9968 2.7456,-5.3664 3.4944,-7.488 1.6224,-5.0544 4.8048,-21.5904 5.616,-29.4528 0.9984,-9.672 1.3104,-24.8976 0.624,-30.8256 -0.312,-2.9328 -0.8736,-8.6736 -1.248,-12.792 -0.312,-4.1184 -1.4976,-13.2912 -2.6208,-20.4048 -1.9344,-12.792 -1.9344,-12.9168 -0.936,-17.472 0.624,-2.496 2.6208,-14.7888 4.4304,-27.3312 l 3.432,-22.776 0.3744,-29.016 c 0.4992,-34.1952 -0.1248,-44.3664 -3.8064,-60.7776 -4.056,-18.4704 -4.8672,-19.968 -14.6016,-27.0192 -10.2336,-7.488 -25.9584,-18.408 -29.8272,-20.7792 -1.8096,-1.1232 -3.0576,-2.2464 -2.808,-2.6208 0.1872,-0.3744 0.0624,-0.4992 -0.2496,-0.312 -0.3744,0.2496 -4.1808,-1.3728 -8.3616,-3.5568 -4.2432,-2.184 -10.0464,-4.9296 -12.8544,-6.0528 -3.5568,-1.3728 -4.9296,-2.2464 -4.368,-2.6208 0.4992,-0.3744 0.3744,-0.4368 -0.4368,-0.1872 -0.624,0.2496 -4.1808,-0.624 -7.9248,-1.8096 -3.744,-1.1856 -7.3008,-2.184 -7.9248,-2.184 -0.624,0 -2.4336,-0.4368 -4.056,-0.9984 -3.3696,-1.1232 -3.4944,-1.6224 -2.2464,-8.9232 1.248,-7.7376 -1.4352,-16.5984 -7.0512,-23.4 -2.7456,-3.3696 -8.424,-6.864 -14.1024,-8.736 -6.7392,-2.184 -8.736,-2.6208 -23.2128,-4.4304 -16.4112,-2.0592 -37.8144,-2.6208 -46.9872,-1.1856 z m 27.9552,3.744 c 12.9792,0.4992 29.2032,2.808 30.888,4.3056 0.6864,0.624 1.872,3.12 2.6208,5.4912 3.3072,10.92 -1.56,18.6576 -14.4768,23.1504 -2.5584,0.936 -8.9856,2.496 -14.2272,3.4944 -5.1792,0.9984 -9.7968,1.9968 -10.1088,2.184 -0.3744,0.2496 -2.3712,-1.1232 -4.368,-3.0576 -4.8048,-4.368 -9.4848,-6.6144 -19.8432,-9.36 -8.3616,-2.184 -12.1056,-3.8688 -13.2288,-5.9904 -1.8096,-3.3696 0.2496,-11.7312 3.9312,-15.8496 1.6224,-1.8096 2.6832,-2.3712 5.4288,-2.8704 6.9264,-1.248 17.8464,-2.3712 20.592,-2.184 1.56,0.1872 7.3008,0.4368 12.792,0.6864 z m -44.616,4.8672 c 0,0.1248 -0.6864,1.8096 -1.56,3.744 -1.8096,4.056 -2.1216,9.7344 -0.6864,13.1664 1.1856,2.7456 5.1168,4.7424 17.2224,8.736 4.992,1.6224 10.6704,3.8064 12.7296,4.8048 5.1168,2.5584 8.424,6.1152 5.6784,6.1152 -0.4992,0 -2.3712,1.3728 -4.056,2.9952 l -3.12,2.9952 -5.1168,-2.6832 c -3.8688,-2.0592 -6.8016,-4.368 -11.7312,-9.1728 -3.6192,-3.4944 -9.2352,-8.3616 -12.5424,-10.7952 -6.6768,-4.9296 -9.6096,-8.112 -10.6704,-11.544 -0.8112,-2.6832 -0.2496,-3.6816 2.8704,-5.304 3.5568,-1.872 10.9824,-3.9312 10.9824,-3.0576 z m 84.864,0.8112 c 2.184,1.4976 2.9328,2.496 4.68,6.1152 1.9968,3.9936 1.9968,7.3632 0,10.7952 -4.68,8.2368 -12.3552,14.4768 -26.4576,21.4656 -10.1712,5.0544 -10.4832,5.304 -17.2224,11.856 -3.744,3.744 -6.9888,6.7392 -7.2384,6.7392 -0.1872,0 -0.7488,-0.936 -1.3104,-2.0592 -0.5616,-1.1856 -2.4336,-3.8064 -4.1808,-5.928 -1.7472,-2.1216 -3.1824,-4.056 -3.1824,-4.368 0,-0.8736 3.9936,-4.3056 6.552,-5.616 3.5568,-1.7472 8.112,-2.9952 16.4112,-4.4928 13.2288,-2.3712 18.9696,-4.68 24.024,-9.5472 5.4912,-5.3664 7.3632,-11.6064 5.7408,-19.4064 -0.5616,-2.6208 -1.1856,-5.2416 -1.3728,-5.7408 -0.4368,-1.248 1.6224,-1.1232 3.5568,0.1872 z m 13.1664,8.424 c 4.68,5.8656 5.2416,7.7376 5.2416,17.3472 0,9.048 -0.624,11.4192 -3.6816,14.2896 l -1.4352,1.3728 -0.4368,-4.5552 c -0.624,-6.1152 -2.1216,-13.2288 -3.3072,-15.8496 -0.8736,-1.8096 -0.936,-2.3712 -0.1872,-3.8064 1.0608,-2.2464 1.3728,-6.6144 0.6864,-9.672 -0.312,-1.3104 -0.312,-2.3712 0,-2.3712 0.312,0 1.6848,1.4976 3.12,3.2448 z m -115.5024,1.872 c 1.872,4.056 7.9248,10.1712 12.48,12.792 3.2448,1.872 10.92,8.9232 9.672,8.9232 -0.3744,-0.0624 -7.3632,-1.56 -15.6,-3.3696 -17.2848,-3.8064 -16.4736,-3.1824 -14.1024,-10.8576 1.3104,-4.1808 4.68,-10.7328 5.5536,-10.7328 0.2496,0 1.1232,1.4976 1.9968,3.2448 z m 112.32,26.7072 0.7488,5.8656 -1.8096,1.4976 c -0.936,0.7488 -5.2416,3.12 -9.5472,5.304 l -7.8,3.8064 -11.544,0.0624 c -8.7984,0.0624 -12.2304,0.312 -14.4768,1.0608 -1.6848,0.5616 -2.9952,0.7488 -2.9952,0.4992 0,-0.2496 1.7472,-2.1216 3.9312,-4.1184 2.8704,-2.7456 5.9904,-4.7424 11.9808,-7.7376 10.8576,-5.4288 18.3456,-10.4832 24.024,-16.2864 l 4.68,-4.8048 1.0608,4.4304 c 0.5616,2.496 1.3728,7.176 1.7472,10.4208 z m -109.0752,-4.6176 c 25.7088,5.3664 38.376,11.232 45.552,21.0912 2.3088,3.2448 2.184,3.744 -0.5616,2.3088 -4.1808,-2.1216 -8.9856,-3.1824 -14.2896,-3.1824 -5.6784,0 -5.4288,0.0624 -19.2816,-6.3648 -5.1168,-2.4336 -12.2928,-5.616 -15.912,-7.176 -3.5568,-1.4976 -6.7392,-3.0576 -6.9888,-3.4944 -0.6864,-1.0608 -0.624,-5.4288 0.1248,-5.4288 0.312,0 5.4288,0.9984 11.3568,2.2464 z m -4.1808,10.8576 c 5.928,2.7456 6.1152,2.9952 6.6144,8.1744 0.8736,9.2352 2.4336,19.656 3.432,22.7136 2.3712,7.5504 7.8624,9.7968 15.2256,6.1152 3.3072,-1.6224 13.4784,-10.92 14.8512,-13.6032 0.6864,-1.248 0.6864,-1.1856 2.184,0.312 1.4352,1.4352 1.6224,2.496 2.8704,15.4128 l 1.3728,13.8528 -2.8704,7.3632 c -5.5536,13.9152 -6.4272,20.592 -4.8672,36.6912 0.4368,4.992 0.4992,10.608 0.1872,16.9104 -0.624,10.8576 -0.8736,12.2928 -5.304,35.1936 -3.9936,20.3424 -4.4928,24.024 -4.992,37.128 -0.312,7.8624 -0.1872,10.9824 0.5616,14.664 1.3728,6.4896 4.1808,15.6 4.8672,15.6 0.624,0 2.6832,-4.5552 6.864,-15.288 2.7456,-6.9888 3.2448,-7.9248 3.6816,-6.552 0.936,2.7456 4.8672,24.4608 5.4912,30.264 2.3088,20.0304 2.6832,27.144 2.3712,41.184 -0.312,14.1648 -0.7488,17.7216 -3.5568,28.392 l -0.624,2.2464 -7.6128,-0.2496 c -8.3616,-0.1872 -7.3632,-0.4368 -25.7712,6.3648 -6.0528,2.2464 -11.232,2.184 -20.7168,-0.2496 -8.4864,-2.184 -32.1984,-10.0464 -31.6992,-10.4832 0.1872,-0.1872 -1.1856,-3.0576 -2.9328,-6.4272 l -3.2448,-6.1152 0.9984,-61.3392 c 0.936,-53.4144 0.936,-63.8976 0.1872,-81.2448 -0.4992,-10.9824 -0.7488,-20.0928 -0.6864,-20.28 0.1248,-0.1872 0.312,-9.9216 0.4368,-21.5904 l 0.2496,-21.216 -1.872,0 -1.872,0 -0.4368,15.912 c -0.312,8.736 -0.312,32.6352 -0.1248,53.04 0.1872,23.6496 0,55.6608 -0.624,88.296 l -0.936,51.168 -3.432,6.864 c -5.1168,10.1088 -7.1136,12.9168 -9.7344,13.6032 -2.2464,0.5616 -29.390402,0.1248 -35.380802,-0.5616 -2.9952,-0.312 -3.3072,-0.2496 -3.3072,0.8736 0,1.9344 7.6128,2.7456 24.460802,2.6832 l 14.2272,-0.1248 -0.312,1.7472 c -0.7488,4.056 -2.184,25.1472 -2.184,31.7616 0,6.9264 0,7.1136 -1.3728,7.1136 -0.8112,0 -5.4912,0.4368 -10.4832,0.936 -12.417602,1.248 -17.409602,1.1856 -19.156802,-0.1872 -0.7488,-0.5616 -2.7456,-2.808 -4.4304,-4.9296 l -3.0576,-3.8688 -0.312,-7.3632 c -0.4992,-10.608 -3.2448,-25.896 -6.24,-34.6944 l -2.496,-7.3632 0.4368,-9.1728 c 0.312,-6.3024 1.3728,-14.9136 3.432,-27.5808 2.7456,-16.5984 3.12,-20.0304 3.744,-34.944 1.4352,-34.5696 2.5584,-54.3504 3.744,-64.272 0.624,-5.6784 1.248,-15.6624 1.3728,-22.152 0.624,-32.136 0.936,-42.2448 1.4976,-42.6192 0.312,-0.2496 0.624,-3.0576 0.624,-6.3024 0.0624,-4.1808 0.312,-5.9904 0.936,-6.3648 0.6864,-0.4368 0.6864,-0.6864 0.1248,-1.0608 -0.5616,-0.312 -0.5616,-1.872 -0.1248,-6.0528 0.312,-3.12 0.5616,-6.6144 0.5616,-7.8 -0.0624,-2.2464 4.1184,-25.896 4.68,-26.8944 0.1872,-0.2496 0.8112,-0.312 1.3728,-0.1248 0.624,0.2496 0.8736,0.1248 0.624,-0.2496 -1.1232,-1.872 56.284802,-29.4528 73.132802,-35.1312 5.0544,-1.6848 5.304,-1.7472 8.424,-0.8112 1.7472,0.4992 4.8672,1.7472 6.9264,2.6832 z m 130.6656,-1.1856 c 5.928,1.6224 12.2928,3.6192 14.7264,4.6176 1.0608,0.4368 3.432,1.4352 5.304,2.184 10.6704,4.368 26.1456,13.0416 37.752,21.216 3.8064,2.6208 7.488,4.992 8.2992,5.2416 0.7488,0.2496 1.3728,0.6864 1.3728,0.9984 0,0.312 3.0576,2.808 6.8016,5.5536 3.6816,2.808 7.0512,5.4288 7.488,5.928 0.9984,1.1856 4.8672,15.2256 5.9904,21.5904 0.4992,2.9328 1.4352,9.9216 2.184,15.6 1.248,9.9216 1.3104,11.2944 0.624,39.936 -0.3744,17.16 -1.0608,33.072 -1.6224,37.752 -1.0608,9.4224 -4.8048,33.6336 -6.4896,41.808 l -1.1232,5.616 1.4352,8.424 c 3.12,17.6592 4.3056,31.512 4.3056,49.608 0,14.1648 -0.2496,18.3456 -1.4352,26.208 -1.9344,13.0416 -3.3696,18.5328 -6.4272,24.648 l -2.6832,5.304 -18.0336,-0.2496 c -18.096,-0.2496 -19.032,-0.1248 -19.0944,1.872 0,0.1872 7.9248,0.5616 17.5968,0.8112 9.7344,0.2496 17.7216,0.5616 17.8464,0.6864 0.3744,0.3744 -1.872,34.944 -2.3088,35.3808 -0.1872,0.2496 -2.0592,0.8736 -4.1184,1.3728 -4.9296,1.3104 -18.7824,1.248 -29.016,-0.1248 l -7.7376,-1.0608 0.1248,-3.12 c 0.312,-6.1152 1.3728,-16.3488 2.7456,-26.3328 l 1.3728,-10.1088 -1.3728,-1.1232 c -2.808,-2.3712 -5.9904,-13.7904 -6.9888,-25.0848 l -0.624,-7.1136 3.432,-13.7904 c 4.8672,-19.4064 5.304,-22.5264 5.304,-35.7552 0,-14.04 3.8688,-52.2288 7.176,-70.6992 3.6816,-20.6544 5.928,-43.2432 5.928,-59.904 0,-18.9072 -1.6848,-35.88 -3.5568,-36.6288 -1.0608,-0.4368 -3.9936,1.0608 -3.5568,1.7472 0.1248,0.2496 0.7488,3.8064 1.3728,7.8624 0.8736,5.8656 1.0608,11.0448 0.936,25.7712 -0.1248,23.3376 -1.56,38.7504 -6.1776,67.08 -3.2448,20.2176 -3.4944,22.5888 -5.2416,50.232 -1.6848,26.52 -1.9968,29.952 -4.056,40.1232 -2.2464,11.4192 -2.9328,13.7904 -5.9904,21.528 -3.9312,9.8592 -7.4256,15.288 -10.8576,16.7232 -2.3712,0.9984 -4.5552,0.5616 -15.288,-2.9952 -8.6112,-2.808 -8.6112,-2.7456 -0.312,-4.5552 8.0496,-1.7472 18.408,-5.304 18.408,-6.3024 0,-1.7472 -1.872,-1.56 -7.8,0.624 -7.9872,2.9952 -21.7152,5.5536 -27.144,5.0544 -2.9952,-0.2496 -7.0512,0.1248 -15.4752,1.56 -13.0416,2.1216 -25.5216,2.6208 -24.8976,0.936 1.248,-3.0576 3.8688,-28.5168 3.12,-29.8272 -0.1248,-0.2496 -0.6864,-0.4368 -1.1856,-0.4368 -0.6864,0 -0.8736,1.1232 -0.8736,5.4288 0,5.8032 -0.5616,10.6704 -2.3088,19.968 l -1.0608,5.8032 -4.68,0.0624 c -2.6208,0.0624 -6.3648,0.1248 -8.2992,0.1872 -2.0592,0 -3.6192,-0.1872 -3.6192,-0.5616 0,-0.3744 0.7488,-4.4304 1.6224,-9.048 2.3712,-12.4176 3.0576,-30.576 1.7472,-44.616 -1.248,-13.1664 -3.3072,-26.4576 -6.4896,-41.5584 l -2.4336,-11.6688 1.9344,-5.8032 1.9968,-5.8656 1.9344,13.728 c 1.6848,12.3552 2.2464,22.2768 1.4352,26.7696 -0.1248,0.8112 0.3744,1.56 1.56,2.184 1.6848,0.9984 1.8096,0.936 3.3072,-0.8736 0.8736,-1.0608 2.6832,-3.4944 4.1184,-5.4912 1.3728,-1.9968 2.5584,-3.5568 2.6832,-3.432 0.1248,0.1248 1.56,6.8016 3.12,14.8512 3.744,19.032 3.432,17.784 4.4304,16.7232 0.6864,-0.6864 0.2496,-3.6816 -2.4336,-17.2224 -2.6208,-13.4784 -3.0576,-16.6608 -2.496,-18.096 0.3744,-0.936 2.6832,-5.928 5.1168,-11.0448 2.3712,-5.1792 5.2416,-12.0432 6.3648,-15.288 1.872,-5.616 1.9968,-6.7392 2.5584,-19.968 0.624,-12.9168 0.4992,-15.6 -0.9984,-34.008 -0.8736,-10.9824 -1.9968,-23.088 -2.5584,-26.832 -0.4992,-3.8064 -1.6848,-14.4768 -2.6832,-23.712 l -1.8096,-16.848 1.8096,-16.848 c 1.3728,-13.5408 1.9344,-16.9728 2.7456,-17.5968 0.624,-0.4368 1.3104,-0.624 1.56,-0.4368 0.2496,0.1248 1.6848,2.5584 3.1824,5.3664 1.4976,2.808 4.1184,6.6144 5.928,8.424 2.6832,2.808 3.5568,3.3072 5.4912,3.3072 1.56,0 2.6832,-0.4368 3.744,-1.4976 2.3088,-2.3088 6.7392,-11.7936 10.608,-22.5264 1.9344,-5.4912 3.9936,-10.296 4.6176,-10.6704 0.5616,-0.4368 3.2448,-2.6208 5.9904,-4.8672 2.7456,-2.2464 5.4912,-4.1184 6.1776,-4.1184 0.6864,0 3.3696,0.5616 5.928,1.3104 z m -112.0704,10.0464 c 11.544,5.304 18.5328,9.4848 18.5328,11.0448 0,0.2496 -2.6208,3.1824 -5.7408,6.4272 -8.6736,8.7984 -13.4784,10.5456 -16.1616,5.7408 -0.624,-1.0608 -1.7472,-6.4896 -2.6832,-13.1664 -1.6848,-11.9808 -1.8096,-13.2912 -1.248,-13.2912 0.1872,0 3.4944,1.4352 7.3008,3.2448 z m 86.5488,1.9968 c 0,1.56 -4.992,15.4128 -6.9888,19.344 -3.12,6.24 -3.5568,6.6768 -5.0544,5.928 -1.248,-0.6864 -1.248,-0.7488 0.4368,-1.6224 3.6192,-1.872 3.12,-7.0512 -0.6864,-7.0512 -1.872,0 -3.9312,1.56 -3.9312,3.0576 0,1.4352 -0.8736,0.2496 -3.744,-5.0544 l -2.5584,-4.8048 2.0592,-1.1232 c 2.9952,-1.6224 19.4688,-9.4224 20.0304,-9.4848 0.2496,-0.0624 0.4368,0.312 0.4368,0.8112 z m -59.6544,3.12 c 5.4912,2.4336 7.7376,4.368 8.4864,7.3632 0.8112,2.8704 0.312,3.6192 -2.6208,3.6192 -1.3104,0 -2.6832,-0.936 -5.3664,-3.6192 -1.9344,-1.9344 -5.3664,-4.9296 -7.6128,-6.6144 l -4.056,-3.0576 3.744,0.312 c 2.0592,0.1872 5.4288,1.1232 7.4256,1.9968 z m 41.5584,-1.248 c 0,0.1248 -2.1216,1.56 -4.68,3.1824 -2.5584,1.56 -6.1776,4.3056 -8.0496,5.9904 l -3.3696,3.0576 -4.5552,-0.0624 c -6.3648,-0.0624 -7.6752,-0.5616 -7.9248,-2.6832 -0.624,-4.992 10.1712,-9.6096 22.5264,-9.672 3.3072,-0.0624 6.0528,0.0624 6.0528,0.1872 z m -15.6,17.6592 c 0,0.624 -0.5616,5.304 -1.248,10.4208 -0.6864,5.0544 -1.248,9.4848 -1.248,9.7968 0,0.312 -4.056,0.5616 -8.9856,0.5616 l -8.9856,0 -0.3744,-2.3712 c -0.1872,-1.248 -0.4992,-4.8672 -0.6864,-7.9248 -0.1872,-3.12 -0.4992,-6.9264 -0.6864,-8.6112 l -0.3744,-2.9328 11.2944,0 c 10.3584,0 11.2944,0.0624 11.2944,1.0608 z m -8.3616,25.9584 c 0.4992,0.4992 -0.7488,36.4416 -1.3728,40.6224 -0.3744,2.3712 -0.4368,2.3712 -2.1216,-2.808 -0.936,-2.8704 -2.9952,-8.0496 -4.6176,-11.4192 -3.9936,-8.5488 -7.2384,-17.4096 -7.2384,-19.7808 0,-1.0608 0.624,-3.2448 1.3728,-4.7424 l 1.4352,-2.808 6.0528,0.2496 c 3.3072,0.1248 6.24,0.4368 6.4896,0.6864 z m 5.4912,2.1216 c 0.4368,3.0576 3.4944,30.6384 6.3648,58.2192 2.0592,20.0928 2.184,22.5888 1.9344,37.128 -0.1872,11.4816 -0.4992,16.4112 -1.1856,18.72 -0.5616,1.872 -1.1232,2.7456 -1.3104,2.184 -0.1872,-0.4992 -1.248,-3.744 -2.3712,-7.176 -1.0608,-3.432 -3.3072,-9.6096 -4.9296,-13.728 -1.6224,-4.1184 -3.8688,-10.2336 -4.9296,-13.6656 l -1.9968,-6.1152 1.872,-8.2368 c 2.184,-9.672 2.9952,-14.9136 3.4944,-22.5264 0.1872,-3.12 0.8112,-8.9856 1.3104,-13.104 0.6864,-5.2416 0.8736,-11.6064 0.7488,-20.7792 -0.1872,-12.4176 0.1872,-16.2864 0.9984,-10.92 z m -17.16,21.84 c 7.8624,18.5952 8.4864,20.6544 8.424,27.9552 0,5.2416 -0.5616,9.1104 -3.8064,24.336 -4.7424,22.2768 -14.1648,55.0368 -19.7184,68.64 l -1.56,3.744 -0.8112,-2.808 c -0.624,-1.9344 -0.8736,-6.0528 -0.7488,-13.416 0.0624,-9.8592 0.4368,-12.9168 5.1792,-43.992 l 5.1168,-33.384 -0.4992,-9.672 c -0.936,-16.7856 -0.7488,-22.7136 0.936,-28.8912 0.8112,-2.9952 1.6848,-5.2416 1.9344,-4.992 0.2496,0.2496 2.7456,5.8656 5.5536,12.48 z m 13.9152,77.2512 c 5.3664,15.1008 7.3632,22.0896 7.3632,25.9584 0,2.1216 -6.24,14.5392 -11.2944,22.4016 l -3.3696,5.304 -0.3744,-5.616 c -0.2496,-3.12 -0.6864,-6.864 -1.0608,-8.424 -1.3104,-5.5536 -2.7456,-20.4048 -2.6832,-27.768 0.0624,-6.552 0.3744,-8.8608 2.6832,-18.3456 1.4352,-5.928 2.7456,-10.4208 2.9328,-9.984 0.1248,0.4992 2.7456,7.8624 5.8032,16.4736 z m 44.7408,140.0256 c 0.6864,0.4368 0.6864,2.808 0.1248,14.1648 -0.9984,18.408 -0.8736,17.7216 -3.4944,17.7216 -2.6208,0 -2.5584,1.1856 -1.1856,-17.784 0.624,-8.7984 1.248,-13.9152 1.6848,-14.1648 0.9984,-0.624 1.8096,-0.624 2.8704,0.0624 z m -6.3648,2.2464 -0.1248,2.184 -6.9888,0 c -6.552,0 -7.0512,-0.0624 -7.0512,-1.1856 0,-1.3104 0.9984,-1.56 9.1728,-2.496 2.3088,-0.312 4.4304,-0.5616 4.68,-0.624 0.2496,0 0.3744,0.936 0.312,2.1216 z m 16.4112,0.9984 2.808,1.1232 -4.4928,0 c -4.4928,0.0624 -4.9296,-0.1248 -4.1808,-2.0592 0.4368,-1.1232 1.0608,-0.9984 5.8656,0.936 z m -138.0912,2.808 8.2992,2.4336 0,7.4256 0,7.4256 -7.6128,-0.3744 c -4.1184,-0.2496 -10.7328,-0.4368 -14.664,-0.4368 l -7.0512,0 0,-4.2432 c 0,-2.3712 0.1872,-6.8016 0.3744,-9.8592 l 0.4368,-5.5536 5.9904,0.3744 c 4.368,0.2496 8.2368,0.9984 14.2272,2.808 z m 104.6448,-0.5616 c -0.4368,5.4288 -1.4976,22.8384 -1.4976,24.024 0,0.6864 -0.4368,1.1232 -1.1856,1.1232 -1.6848,0 -1.9344,-3.432 -1.3104,-16.536 0.312,-6.1776 0.624,-11.2944 0.624,-11.4192 0,-0.0624 0.8112,-0.1248 1.8096,-0.1248 1.6848,0 1.7472,0.0624 1.56,2.9328 z m -48.1104,0.936 c -0.1248,1.8096 -0.4992,6.3648 -0.7488,10.1712 l -0.4992,6.864 -0.1248,-9.2352 -0.0624,-9.1728 -3.8688,-0.0624 -3.9312,-0.0624 2.184,-0.8112 c 1.1856,-0.4368 3.3072,-0.8736 4.7424,-0.8736 l 2.5584,-0.0624 -0.2496,3.2448 z m 42.2448,-2.3088 c 0,0.6864 -0.7488,0.936 -3.12,0.936 -2.3712,0 -3.12,-0.2496 -3.12,-0.936 0,-0.6864 0.7488,-0.936 3.12,-0.936 2.3712,0 3.12,0.2496 3.12,0.936 z m -22.2768,0.936 12.9168,0 0,12.6048 0,12.5424 -10.7328,-0.3744 c -5.928,-0.2496 -12.9792,-0.4368 -15.6,-0.4368 l -4.8672,0 0,-5.4912 c 0,-2.9952 0.1872,-8.6112 0.4368,-12.5424 l 0.3744,-7.0512 2.2464,0.3744 c 1.248,0.1872 8.0496,0.3744 15.2256,0.3744 z m -25.4592,22.9632 c 2.2464,-0.0624 4.056,0 4.056,0.2496 0,0.312 -2.0592,0.4992 -4.4928,0.4992 l -4.5552,0 -0.2496,-11.1696 c -0.0624,-6.1776 0.0624,-11.544 0.312,-12.0432 0.312,-0.4368 0.624,4.1184 0.7488,10.92 l 0.1248,11.7936 4.056,-0.2496 z m -7.5504,-10.9824 -0.5616,7.0512 -9.048,0.1872 c -4.992,0.1248 -10.2336,0 -11.6688,-0.1872 l -2.6832,-0.3744 0,-4.8048 c 0,-7.3632 -0.0624,-7.3008 4.9296,-7.3632 3.12,-0.0624 6.0528,-0.7488 11.3568,-2.5584 l 7.1136,-2.496 0.5616,1.7472 c 0.312,1.0608 0.312,4.7424 0,8.7984 z m 77.1888,-9.048 c 0.2496,0.2496 0.1872,4.5552 -0.2496,9.7344 l -0.6864,9.1728 -6.4272,0 -6.4272,0 0,-10.0464 0,-10.1088 6.6144,0.3744 c 3.6192,0.1872 6.864,0.5616 7.176,0.8736 z m 36.0048,0 6.9888,0.3744 0,9.5472 0,9.6096 -16.3488,-0.3744 c -9.048,-0.2496 -16.4736,-0.4992 -16.5984,-0.5616 -0.1248,-0.0624 0,-4.5552 0.2496,-9.984 l 0.4368,-9.8592 9.1104,0.4368 c 4.992,0.1872 12.2928,0.5616 16.1616,0.8112 z m -104.208,7.9872 c -0.1248,5.2416 -0.4368,8.6112 -0.936,9.1104 -1.6224,1.6224 -2.0592,-0.1872 -2.0592,-8.8608 l 0,-8.6736 1.6224,0 1.6224,0 -0.2496,8.424 z m 45.0528,1.872 0,10.296 -1.8096,0 c -3.8688,0 -3.8064,0.1248 -3.8064,-10.2336 0,-5.2416 0.1872,-9.7344 0.4368,-9.9216 0.1872,-0.2496 1.4976,-0.4368 2.808,-0.4368 l 2.3712,0 0,10.296 z m -82.9296,-7.8 2.2464,0.624 0.312,6.4272 c 0.1248,3.4944 0.1248,7.6752 0,9.2976 l -0.2496,2.9952 -2.7456,0 -2.7456,0 0,-9.984 c 0,-5.4912 0.1872,-9.984 0.4992,-9.984 0.2496,0 1.4352,0.312 2.6832,0.624 z m 23.8368,17.2224 c 4.4928,0.4368 4.8048,0.4992 4.8048,1.872 l 0,1.4976 -9.2976,0 c -5.616,0 -9.4848,-0.2496 -9.7344,-0.624 -0.1872,-0.3744 -0.1872,-1.1856 0,-1.872 0.3744,-1.1232 0.936,-1.248 4.9296,-1.248 2.496,0 6.6768,0.1872 9.2976,0.3744 z m -13.0416,9.1728 c 1.0608,3.6816 2.9328,5.8032 5.8032,6.6144 4.1808,1.1856 7.8,-1.1232 9.048,-5.8032 0.5616,-2.184 1.0608,-2.8704 1.9344,-2.8704 1.0608,0 1.1856,0.312 0.8736,2.5584 -0.4368,3.3696 -2.9328,6.9888 -5.8032,8.3616 -2.808,1.3104 -6.864,0.9984 -9.2352,-0.6864 -2.9328,-2.1216 -5.8656,-9.5472 -4.3056,-11.0448 0.624,-0.6864 0.6864,-0.624 1.6848,2.8704 z m 9.6096,-2.9328 c 3.0576,0.3744 3.2448,0.4992 3.2448,2.2464 0,2.7456 -2.5584,4.992 -5.4288,4.7424 -1.872,-0.1248 -2.6208,-0.624 -3.744,-2.3088 -0.8112,-1.1856 -1.4352,-2.808 -1.4352,-3.5568 0,-1.6848 1.1232,-1.8096 7.3632,-1.1232 z"
       id="path36"
       style="fill:#000000;stroke:none" />
    <path
       d="m 242.22369,103.74842 c -0.3744,0.2496 -0.9984,1.0608 -1.4352,1.872 -0.624,1.1856 -0.4992,1.6224 0.8112,2.8704 1.6224,1.6848 3.3696,1.6224 5.0544,-0.2496 0.8736,-0.936 0.936,-1.3728 0.2496,-2.6208 -0.8736,-1.6848 -1.7472,-2.3712 -3.0576,-2.3712 -0.4992,0 -1.248,0.2496 -1.6224,0.4992 z"
       id="path38"
       style="fill:#000000;stroke:none" />
    <path
       d="m 273.48609,197.47322 c -0.1248,0.2496 -0.8736,16.9728 -1.6224,37.1904 -0.9984,28.4544 -1.1232,37.8144 -0.624,41.3712 1.1856,7.9248 5.0544,13.2288 11.232,15.3504 3.3072,1.1856 20.28,2.1216 42.4944,2.3712 13.4784,0.1248 14.1024,0.0624 16.224,-1.248 1.1856,-0.7488 3.0576,-2.3088 4.1184,-3.432 3.2448,-3.4944 3.4944,-6.3648 3.8064,-48.984 l 0.312,-38.1264 -3.3696,-0.3744 c -1.8096,-0.1872 -17.5968,-1.1856 -35.1312,-2.2464 -17.472,-0.9984 -33.0096,-1.9968 -34.5072,-2.1216 -1.4352,-0.1248 -2.7456,0 -2.9328,0.2496 z m 40.872,5.0544 c 18.0336,1.1232 32.8848,2.0592 33.0096,2.184 0.1248,0.1248 -0.0624,17.16 -0.4992,37.9392 -0.624,35.6304 -0.7488,37.9392 -1.9344,41.184 -0.8112,2.1216 -2.184,4.1808 -3.5568,5.4288 l -2.3088,1.9968 -12.792,-0.3744 c -7.0512,-0.1872 -19.2816,-0.5616 -27.2064,-0.7488 -11.7312,-0.312 -14.7888,-0.624 -16.848,-1.4976 -3.0576,-1.3728 -5.616,-3.9312 -7.3008,-7.2384 -1.248,-2.4336 -1.3104,-3.0576 -0.8736,-35.88 0.1872,-18.3456 0.5616,-36.1296 0.8112,-39.4992 l 0.3744,-6.1776 3.1824,0.3744 c 1.7472,0.1872 17.9088,1.248 35.9424,2.3088 z"
       id="path364"
       style="fill:#000000;stroke:none" />
    <path
       d="m 307.61889,207.20762 c -2.6208,1.8096 -1.1232,6.4896 2.1216,6.4896 3.8688,-0.0624 4.992,-4.992 1.4976,-6.864 -1.56,-0.8112 -1.9968,-0.8112 -3.6192,0.3744 z"
       id="path366"
       style="fill:#000000;stroke:none" />
    <path
       d="m 276.29409,217.94042 c 0,1.0608 1.872,1.1856 28.2672,2.2464 15.4752,0.5616 31.0752,1.248 34.632,1.4352 6.24,0.3744 6.3648,0.3744 6.3648,-0.936 0,-0.7488 -0.0624,-1.3728 -0.1248,-1.3728 -2.496,-0.1872 -62.0256,-2.496 -64.896,-2.496 -3.6816,0 -4.2432,0.1248 -4.2432,1.1232 z"
       id="path368"
       style="fill:#000000;stroke:none" />
    <path
       d="m 309.05409,240.52922 c -2.9328,0.624 -4.4304,1.6848 -5.928,4.056 -1.1232,1.8096 -1.3728,2.9328 -1.1232,5.6784 0.312,3.8064 2.2464,6.4896 5.7408,7.7376 1.0608,0.3744 2.4336,0.9984 2.9952,1.248 0.5616,0.312 1.1232,0.3744 1.248,0.0624 0.1248,-0.2496 1.3104,-0.9984 2.6208,-1.6848 3.1824,-1.56 4.8048,-3.8064 5.1792,-7.2384 0.6864,-6.0528 -4.8048,-11.1072 -10.7328,-9.8592 z m 4.9296,1.4976 c 5.7408,2.3712 6.4896,11.6064 1.1232,14.352 -2.2464,1.1856 -6.9888,0.936 -9.1104,-0.4368 -4.992,-3.3072 -3.9936,-11.4192 1.7472,-13.9152 2.496,-1.0608 3.6816,-1.0608 6.24,0 z"
       id="path370"
       style="fill:#000000;stroke:none" />
    <path
       d="m 243.40929,333.87962 c -1.3728,1.3728 -1.56,1.9968 -1.248,4.4304 0.3744,3.6816 1.6224,4.8672 5.1792,4.8672 2.3712,0 3.12,-0.312 4.368,-1.7472 3.3072,-3.8688 0.936,-9.1728 -4.1184,-9.1728 -1.9344,0 -2.9328,0.3744 -4.1808,1.6224 z"
       id="path506"
       style="fill:#000000;stroke:none" />
    <path
       d="m 246.27969,372.13082 c -3.0576,3.12 -2.3088,7.5504 1.6848,9.1728 1.872,0.7488 2.4336,0.7488 4.3056,0 2.6208,-1.1232 3.744,-3.2448 3.1824,-6.24 -0.8736,-4.6176 -5.8656,-6.1776 -9.1728,-2.9328 z"
       id="path520"
       style="fill:#000000;stroke:none" />
    <path
       d="m 203.66049,133.26362 c -0.8736,0.6864 -1.6224,1.6224 -1.6224,2.0592 0,1.4352 2.496,4.1184 3.8064,4.1184 1.3104,0 4.3056,-2.6208 4.3056,-3.744 0,-0.9984 -2.9328,-3.744 -3.9312,-3.744 -0.4992,0 -1.6224,0.5616 -2.5584,1.3104 z"
       id="path522"
       style="fill:#000000;stroke:none" />
    <path
       d="m 238.10529,411.00602 c -1.3104,0.312 -3.4944,1.6224 -4.9296,2.8704 -2.1216,1.9344 -2.6208,2.808 -2.8704,5.2416 -0.4368,3.8688 0.6864,6.4272 3.6816,8.6736 3.744,2.6832 8.1744,3.432 12.5424,2.184 8.6736,-2.496 11.7936,-10.2336 6.3648,-15.6624 -3.4944,-3.432 -9.36,-4.7424 -14.7888,-3.3072 z m 10.9824,3.5568 c 3.744,2.3088 4.6176,6.8016 1.872,9.984 -3.6816,4.4304 -14.04,4.056 -17.3472,-0.624 -0.9984,-1.4976 -1.3104,-4.6176 -0.624,-6.4272 0.4368,-1.1232 3.8064,-3.3696 6.3648,-4.1808 2.496,-0.8112 7.4256,-0.1872 9.7344,1.248 z"
       id="path524"
       style="fill:#000000;stroke:none" />
    <path
       d="m 217.27915,195.48772 c 0.1248,0.2496 0.8736,16.9728 1.6224,37.1904 0.9984,28.4544 1.1232,37.8144 0.624,41.3712 -1.1856,7.9248 -5.0544,13.2288 -11.232,15.3504 -3.3072,1.1856 -20.28,2.1216 -42.4944,2.3712 -13.4784,0.1248 -14.1024,0.0624 -16.224,-1.248 -1.1856,-0.7488 -3.0576,-2.3088 -4.1184,-3.432 -3.2448,-3.4944 -3.4944,-6.3648 -3.8064,-48.984 l -0.312,-38.1264 3.3696,-0.3744 c 1.8096,-0.1872 17.5968,-1.1856 35.1312,-2.2464 17.472,-0.9984 33.0096,-1.9968 34.5072,-2.1216 1.4352,-0.1248 2.7456,0 2.9328,0.2496 z m -40.872,5.0544 c -18.0336,1.1232 -32.8848,2.0592 -33.0096,2.184 -0.1248,0.1248 0.0624,17.16 0.4992,37.9392 0.624,35.6304 0.7488,37.9392 1.9344,41.184 0.8112,2.1216 2.184,4.1808 3.5568,5.4288 l 2.3088,1.9968 12.792,-0.3744 c 7.0512,-0.1872 19.2816,-0.5616 27.2064,-0.7488 11.7312,-0.312 14.7888,-0.624 16.848,-1.4976 3.0576,-1.3728 5.616,-3.9312 7.3008,-7.2384 1.248,-2.4336 1.3104,-3.0576 0.8736,-35.88 -0.1872,-18.3456 -0.5616,-36.1296 -0.8112,-39.4992 l -0.3744,-6.1776 -3.1824,0.3744 c -1.7472,0.1872 -17.9088,1.248 -35.9424,2.3088 z"
       id="path364-5"
       style="fill:#000000;stroke:none" />
    <path
       d="m 183.14635,205.22212 c 2.6208,1.8096 1.1232,6.4896 -2.1216,6.4896 -3.8688,-0.0624 -4.992,-4.992 -1.4976,-6.864 1.56,-0.8112 1.9968,-0.8112 3.6192,0.3744 z"
       id="path366-6"
       style="fill:#000000;stroke:none" />
    <path
       d="m 214.47115,215.95492 c 0,1.0608 -1.872,1.1856 -28.2672,2.2464 -15.4752,0.5616 -31.0752,1.248 -34.632,1.4352 -6.24,0.3744 -6.3648,0.3744 -6.3648,-0.936 0,-0.7488 0.0624,-1.3728 0.1248,-1.3728 2.496,-0.1872 62.0256,-2.496 64.896,-2.496 3.6816,0 4.2432,0.1248 4.2432,1.1232 z"
       id="path368-3"
       style="fill:#000000;stroke:none" />
    <path
       d="m 170.48712,249.76775 c 0.624,2.9328 1.6848,4.4304 4.056,5.928 1.8096,1.1232 2.9328,1.3728 5.6784,1.1232 3.8064,-0.312 6.4896,-2.2464 7.7376,-5.7408 0.3744,-1.0608 0.9984,-2.4336 1.248,-2.9952 0.312,-0.5616 0.3744,-1.1232 0.0624,-1.248 -0.2496,-0.1248 -0.9984,-1.3104 -1.6848,-2.6208 -1.56,-3.1824 -3.8064,-4.8048 -7.2384,-5.1792 -6.0528,-0.6864 -11.1072,4.8048 -9.8592,10.7328 z m 1.4976,-4.9296 c 2.3712,-5.7408 11.6064,-6.4896 14.352,-1.1232 1.1856,2.2464 0.936,6.9888 -0.4368,9.1104 -3.3072,4.992 -11.4192,3.9936 -13.9152,-1.7472 -1.0608,-2.496 -1.0608,-3.6816 0,-6.24 z"
       id="path370-9"
       style="fill:#000000;stroke:none" />
  </g>
</svg>
