<?xml version="1.0" standalone="no"?>
<!DOCTYPE svg PUBLIC "-//W3C//DTD SVG 20010904//EN"
 "http://www.w3.org/TR/2001/REC-SVG-20010904/DTD/svg10.dtd">
<svg version="1.0" xmlns="http://www.w3.org/2000/svg"
 width="458pt" height="648pt" viewBox="0 0 458 648"
 preserveAspectRatio="xMidYMid meet">
<metadata>
Created by potrace 1.8, written by Peter Selinger 2001-2007
</metadata>
<g transform="translate(0,648) scale(0.055670,-0.055670)"
fill="#000000" stroke="none">
<path d="M4845 8640 c-92 -13 -178 -37 -310 -87 -371 -141 -666 -309 -924
-526 l-83 -70 -87 22 c-179 46 -357 46 -474 0 -64 -25 -159 -89 -340 -228
-211 -163 -403 -275 -547 -320 -114 -35 -564 -91 -737 -91 l-85 0 -112 108
c-161 153 -274 215 -335 181 -53 -30 -66 -71 -65 -214 0 -114 3 -140 27 -210
48 -143 30 -251 -51 -300 -154 -94 -163 -108 -192 -288 -23 -148 -26 -249 -6
-304 8 -22 22 -85 32 -141 16 -92 16 -103 2 -119 -35 -40 -61 -109 -62 -164
-1 -51 4 -63 46 -125 25 -38 67 -94 92 -124 26 -30 71 -85 101 -121 68 -84
113 -122 193 -161 109 -54 247 -49 388 16 49 22 55 30 123 150 40 69 76 128
80 131 19 11 45 -161 45 -295 0 -248 -48 -361 -300 -700 -51 -69 -111 -159
-133 -200 -82 -154 -128 -395 -117 -625 19 -441 150 -756 355 -857 38 -19 63
-23 136 -23 78 0 97 4 142 28 85 44 121 81 129 133 3 25 17 57 29 72 50 61 58
100 41 222 -13 92 -12 94 11 128 40 60 33 121 -33 284 -31 76 -55 140 -53 142
2 1 58 31 124 65 205 107 335 201 476 341 113 112 219 237 304 357 21 28 40
43 60 47 64 12 356 46 475 56 69 6 154 15 190 20 35 5 66 8 67 6 2 -1 8 -83
14 -182 11 -171 9 -282 -16 -782 -5 -96 -26 -195 -52 -247 -9 -16 -41 -68 -71
-115 -31 -47 -80 -132 -109 -189 -45 -89 -53 -112 -53 -160 0 -35 6 -65 16
-79 21 -30 76 -64 148 -91 125 -47 178 -53 441 -56 270 -3 277 -1 326 52 63
67 83 143 109 412 25 265 60 523 106 796 61 361 72 476 83 835 l6 225 75 -66
c99 -87 199 -203 259 -303 27 -44 72 -107 100 -139 77 -87 74 -98 -70 -259
-96 -108 -126 -149 -160 -223 -29 -62 -31 -72 -27 -153 9 -179 92 -254 278
-254 208 0 425 81 588 219 111 95 136 154 152 364 9 118 17 166 47 264 52 169
51 212 -10 332 -65 129 -96 241 -108 398 -10 133 -31 255 -75 427 -13 53 -24
99 -24 102 0 2 21 26 48 51 l47 46 44 -53 c133 -159 274 -272 470 -374 192
-100 226 -160 242 -428 16 -275 40 -397 98 -481 49 -72 227 -210 313 -242 106
-39 238 -10 316 70 114 116 133 346 46 557 -19 47 -53 137 -75 200 -22 63 -62
159 -89 213 -39 79 -45 96 -27 83 169 -125 279 -160 372 -122 45 19 152 96
220 158 113 103 213 272 256 433 30 111 33 370 6 459 -24 77 -71 126 -120 126
-69 0 -124 -84 -238 -360 -123 -298 -234 -342 -417 -166 -73 69 -257 287 -382
450 l-83 108 -114 312 c-63 171 -145 402 -183 514 -84 251 -118 309 -303 522
-12 14 -54 66 -94 115 -39 50 -140 158 -225 241 -167 166 -190 179 -343 210
-88 17 -301 26 -380 14z m337 -106 c82 -24 135 -59 233 -154 50 -47 161 -146
247 -218 248 -209 307 -287 366 -487 43 -145 136 -395 282 -765 l129 -325 66
-327 c72 -359 103 -463 171 -569 86 -133 214 -410 281 -609 66 -194 56 -302
-39 -405 -59 -65 -88 -73 -200 -57 -105 15 -131 31 -162 96 -14 29 -43 76 -65
103 -94 119 -106 176 -96 458 5 150 4 223 -4 247 -16 48 -67 94 -201 180 -247
159 -358 253 -555 472 -87 96 -82 97 -290 -58 -173 -128 -294 -206 -321 -206
-33 0 -32 24 12 167 69 225 82 288 93 444 6 84 9 154 7 157 -5 4 -10 -13 -51
-178 -71 -283 -151 -540 -196 -631 -35 -70 -143 -186 -262 -282 -80 -64 -158
-117 -173 -117 -2 0 -4 33 -4 73 -1 89 -21 204 -50 279 -30 82 -223 369 -237
355 -2 -3 12 -38 32 -78 99 -195 154 -396 162 -584 5 -121 2 -150 -41 -415
-25 -157 -50 -325 -55 -375 -5 -49 -23 -171 -40 -270 -46 -272 -68 -439 -91
-665 -11 -113 -27 -254 -35 -315 -11 -77 -14 -142 -9 -221 l7 -113 -31 -30
c-39 -39 -71 -40 -238 -6 l-124 26 -107 -31 c-152 -43 -158 -42 -236 33 -69
66 -91 112 -75 156 4 13 51 69 104 124 157 167 201 286 225 607 22 298 -10
1013 -50 1120 -37 98 -128 203 -263 303 -47 35 -48 23 -5 -34 75 -98 151 -234
177 -312 20 -62 8 -84 -53 -101 -81 -24 -216 -37 -399 -39 l-167 -2 -51 50
c-27 27 -94 109 -146 182 -85 117 -154 186 -170 170 -2 -2 11 -29 31 -58 38
-59 68 -130 92 -224 17 -68 12 -149 -14 -198 -21 -43 -223 -313 -303 -407
-156 -183 -243 -251 -390 -305 -111 -42 -188 -85 -241 -134 -35 -34 -38 -40
-29 -69 5 -18 29 -65 54 -105 99 -159 93 -222 -24 -282 -110 -55 -148 -47
-256 57 -46 45 -84 78 -84 74 0 -15 62 -115 96 -154 54 -64 82 -75 199 -76
l100 -1 27 -54 c37 -71 37 -113 1 -141 -26 -20 -36 -22 -118 -17 -49 3 -101 8
-115 12 -14 3 12 -13 58 -36 59 -30 82 -47 82 -60 0 -32 -90 -116 -132 -124
-52 -10 -78 -1 -132 42 -96 79 -195 243 -238 399 -19 69 -22 101 -20 264 2
334 27 491 102 641 74 149 211 391 287 507 90 139 106 169 138 267 46 137 48
197 11 464 -25 181 -40 158 134 214 l150 47 87 -44 c102 -51 240 -131 266
-154 9 -8 20 -13 22 -10 8 8 -169 198 -205 221 -57 36 -46 138 23 211 33 33
125 74 241 106 l59 16 -62 23 c-35 13 -78 38 -100 59 -47 44 -57 91 -48 221
11 144 32 205 142 412 83 156 66 304 -40 339 -50 16 -130 -2 -240 -55 -90 -43
-286 -171 -291 -190 -2 -6 16 -25 40 -43 24 -18 74 -61 112 -95 147 -135 200
-247 192 -405 -9 -152 -89 -360 -176 -451 -104 -111 -347 -230 -573 -281 -74
-17 -155 -38 -181 -47 -43 -15 -49 -15 -65 -1 -10 9 -44 28 -75 41 -40 18 -61
34 -73 57 -9 17 -27 36 -40 42 -36 16 -32 44 26 174 48 110 97 270 85 281 -3
3 -10 -5 -15 -18 -26 -70 -108 -243 -143 -302 -31 -53 -48 -72 -76 -84 -51
-21 -142 -28 -186 -13 -33 11 -36 15 -36 49 0 47 23 115 89 264 59 134 76 203
61 257 -12 43 -75 143 -115 180 l-26 24 100 96 c124 120 146 159 137 251 -7
78 3 93 74 104 25 4 86 20 135 36 226 71 331 88 537 89 145 0 325 19 430 46
62 16 86 26 219 97 56 29 172 63 284 83 13 2 29 22 44 56 88 192 485 391 702
350 95 -17 135 -43 305 -191 192 -168 437 -370 443 -365 6 5 -130 180 -237
306 -51 60 -120 129 -153 153 -59 43 -60 44 -34 51 15 4 102 4 193 0 161 -6
166 -6 137 11 -16 9 -81 31 -143 48 -134 37 -138 27 58 140 159 92 261 157
279 179 20 24 157 109 256 158 300 150 596 207 787 152z m-4205 -1033 c33 -21
173 -179 173 -196 0 -5 -51 -28 -113 -49 -61 -21 -117 -41 -124 -43 -21 -8
-35 76 -31 178 5 129 25 152 95 110z m1322 -292 c57 -20 55 -84 -9 -218 -45
-94 -98 -181 -109 -181 -9 0 -244 236 -249 249 -4 13 155 116 208 134 81 29
113 32 159 16z m-1649 -659 c10 -6 15 -27 15 -69 0 -44 5 -66 21 -88 20 -27
20 -31 7 -83 -15 -61 -37 -90 -53 -74 -13 13 -30 155 -30 252 0 74 6 84 40 62z
m75 -86 c21 -44 8 -63 -23 -34 -25 23 -30 70 -8 70 7 0 21 -16 31 -36z m6904
-63 c43 -43 36 -184 -20 -353 -41 -127 -84 -205 -152 -275 -83 -87 -165 -127
-268 -131 -170 -8 -320 69 -462 237 l-54 63 -37 196 c-20 109 -40 205 -43 216
-10 35 16 11 98 -94 105 -133 258 -285 332 -329 60 -35 131 -50 182 -37 66 17
155 136 264 355 83 165 116 196 160 152z m-2310 -449 c6 -10 26 -72 46 -137
29 -97 38 -146 46 -260 14 -202 24 -263 73 -425 58 -193 57 -186 41 -335 -8
-71 -19 -200 -24 -285 -7 -124 -14 -168 -33 -221 -29 -78 -88 -163 -128 -184
-50 -26 -237 -93 -307 -110 -83 -20 -136 -10 -186 35 l-32 28 17 35 c9 19 15
37 12 40 -12 11 -57 -8 -79 -35 -29 -34 -53 -32 -85 9 -52 66 -12 126 130 195
64 32 93 52 115 82 48 68 113 183 141 248 29 70 28 77 -35 161 -22 29 -62 92
-90 141 -68 118 -145 225 -265 364 l-100 116 50 44 c241 216 370 325 424 362
77 53 241 150 252 150 4 0 12 -8 17 -18z m-4583 -167 c18 -45 18 -94 -1 -101
-22 -9 -96 37 -122 75 -37 54 -32 61 43 61 65 0 65 0 80 -35z m230 13 c41 -30
154 -141 154 -150 0 -13 -199 -9 -242 4 -74 22 -86 81 -28 139 35 35 76 38
116 7z m439 -140 c-23 -75 -112 -179 -172 -199 -57 -19 -170 -17 -225 4 -52
20 -126 93 -110 109 5 5 72 13 148 18 116 7 154 14 229 40 50 18 97 36 105 41
25 14 32 10 25 -13z"/>
<path d="M1122 6564 c-22 -15 -23 -20 -17 -103 4 -47 2 -112 -3 -143 -5 -32
-7 -58 -4 -58 3 0 28 16 57 35 29 19 74 39 100 45 94 21 155 84 155 160 0 44
-20 58 -97 69 -102 16 -165 14 -191 -5z m191 -56 c9 -7 19 -25 22 -40 6 -22 1
-33 -23 -58 -57 -56 -117 -26 -110 56 2 31 8 40 28 45 40 11 65 10 83 -3z"/>
<path d="M2400 5616 c0 -2 8 -10 18 -17 15 -13 16 -12 3 4 -13 16 -21 21 -21
13z"/>
</g>
</svg>
