<?xml version="1.0" standalone="no"?>
<!DOCTYPE svg PUBLIC "-//W3C//DTD SVG 20010904//EN"
 "http://www.w3.org/TR/2001/REC-SVG-20010904/DTD/svg10.dtd">
<svg version="1.0" xmlns="http://www.w3.org/2000/svg"
 width="468pt" height="339pt" viewBox="0 0 468 339"
 preserveAspectRatio="xMidYMid meet">
<metadata>
Created by potrace 1.8, written by Peter Selinger 2001-2007
</metadata>
<g transform="translate(0,339) scale(0.124800,-0.124800)"
fill="#000000" stroke="none">
<path d="M1300 2607 c0 -7 14 -21 30 -30 40 -24 38 -43 -7 -65 -91 -45 -260
-137 -286 -155 -53 -37 -19 -28 65 17 183 98 263 136 287 136 26 0 81 -52 81
-77 0 -11 -92 -73 -109 -73 -5 0 -14 -7 -21 -15 -21 -25 5 -18 76 20 66 36
104 39 104 9 0 -8 3 -14 8 -14 9 0 42 -58 42 -75 0 -12 -66 -48 -145 -80 -20
-8 -20 -9 0 -12 11 -2 51 10 89 27 65 30 69 30 87 14 18 -16 19 -16 19 4 0 11
-5 24 -10 27 -6 4 -22 27 -36 53 -47 88 -59 105 -91 134 -18 16 -42 45 -53 64
-12 19 -28 34 -35 34 -15 0 -45 27 -45 41 0 21 48 6 90 -28 47 -38 132 -134
139 -156 2 -7 9 -19 16 -27 20 -24 95 -169 127 -245 42 -100 98 -251 98 -263
0 -5 20 -71 44 -147 25 -75 48 -162 51 -193 4 -32 11 -70 15 -87 5 -16 14 -77
20 -135 6 -58 20 -139 31 -180 29 -108 40 -173 45 -275 2 -49 8 -128 12 -175
7 -80 2 -285 -13 -480 -9 -117 -12 -130 -35 -130 -18 0 -19 5 -12 117 21 347
1 834 -43 1038 -8 39 -15 89 -15 113 0 39 -70 351 -89 397 -4 11 -18 41 -30
68 -11 26 -21 55 -21 65 0 9 -20 62 -45 116 -25 55 -45 103 -45 108 0 19 -50
118 -60 118 -5 0 2 -26 16 -57 49 -110 59 -143 48 -160 -5 -8 -39 -24 -74 -35
-36 -11 -69 -24 -75 -29 -15 -15 26 -10 89 11 33 11 67 20 76 20 19 0 35 -31
45 -83 7 -37 12 -35 -127 -67 -49 -11 -172 -41 -268 -66 -36 -9 -69 -20 -74
-25 -20 -18 3 -18 65 1 35 10 107 29 159 41 250 57 255 58 267 46 13 -14 73
-190 73 -216 0 -14 -14 -21 -57 -31 -90 -19 -123 -31 -123 -41 0 -6 8 -8 19
-4 61 19 162 32 169 21 7 -11 32 -109 28 -113 -1 -1 -35 -9 -75 -17 -41 -9
-76 -18 -79 -21 -13 -12 8 -13 77 -4 87 12 94 8 95 -58 l1 -48 -78 -11 c-43
-6 -83 -16 -90 -23 -12 -13 2 -12 124 5 44 6 55 -5 64 -67 l7 -46 -39 -7 c-21
-3 -83 -13 -138 -22 -55 -9 -122 -20 -150 -26 -27 -5 -71 -12 -97 -15 -26 -2
-52 -11 -59 -19 -17 -21 -35 -23 365 46 66 11 120 19 122 18 1 -2 3 -30 5 -63
l4 -60 -65 -7 c-82 -9 -138 -22 -125 -30 6 -3 47 -2 93 2 46 5 90 6 98 3 10
-3 14 -21 14 -58 l0 -52 -52 -7 c-29 -3 -67 -6 -85 -6 -17 0 -35 -4 -38 -10
-4 -6 25 -9 80 -7 98 2 105 -2 105 -69 0 -51 -6 -54 -111 -54 -48 0 -79 -4
-79 -11 0 -6 33 -9 91 -8 50 1 95 -3 100 -8 6 -6 9 -34 7 -64 l-3 -54 -50 -1
c-27 -1 -68 -2 -89 -3 -69 -2 -28 -15 51 -17 85 -1 97 -10 89 -62 -9 -58 -17
-62 -141 -62 -157 0 -325 -11 -325 -22 0 -5 94 -7 224 -3 l224 6 6 -28 c3 -15
2 -46 -2 -68 l-7 -40 -85 -3 c-115 -4 -130 -22 -18 -22 107 0 112 -4 102 -99
l-6 -70 163 2 164 2 -3 360 c-2 267 -8 404 -22 530 -30 278 -60 487 -75 539
-8 27 -13 51 -11 54 3 2 46 -3 98 -12 206 -33 204 -33 187 11 -17 45 -3 63 46
63 52 0 62 17 45 80 l-11 40 -54 0 c-54 0 -55 0 -55 30 0 37 -13 38 -86 5 -30
-14 -57 -25 -59 -25 -2 0 -29 -12 -59 -26 -30 -14 -62 -24 -72 -22 -12 2 -32
52 -74 179 -59 180 -120 320 -184 419 -19 30 -58 91 -86 135 -28 44 -63 94
-78 111 -15 18 -36 44 -47 59 l-20 26 -177 5 c-141 3 -178 1 -178 -9z m378
-57 c48 -48 189 -268 254 -395 48 -96 75 -164 131 -340 47 -147 48 -157 16
-165 -23 -7 -25 -5 -22 14 4 20 -11 71 -79 258 -13 36 -28 72 -34 80 -5 7 -20
40 -33 73 -13 33 -36 83 -51 110 -15 28 -42 77 -60 110 -37 68 -73 122 -122
183 -88 111 -89 112 -59 112 10 0 37 -18 59 -40z m-178 20 c0 -5 -7 -10 -15
-10 -8 0 -15 5 -15 10 0 6 7 10 15 10 8 0 15 -4 15 -10z m56 -25 c-11 -8 -27
-15 -35 -15 -13 1 -12 4 3 15 11 8 27 15 35 15 13 -1 12 -4 -3 -15z m24 -20
c-7 -8 -22 -15 -34 -15 -21 1 -21 1 -2 15 27 21 53 20 36 0z m40 -9 c0 -8 -13
-19 -30 -25 -36 -12 -38 -6 -7 20 27 22 37 24 37 5z m20 -30 c0 -2 -11 -11
-25 -20 -31 -20 -58 -10 -30 11 17 12 55 18 55 9z m29 -43 c11 -9 18 -20 15
-25 -3 -4 2 -8 10 -8 27 0 18 -16 -20 -34 -45 -21 -58 -12 -24 16 l25 21 -30
-7 c-29 -7 -29 -7 -12 12 17 19 17 19 -10 14 -25 -5 -27 -4 -14 11 17 21 36
21 60 0z m55 -72 c4 -5 0 -12 -6 -14 -7 -3 -2 -6 11 -6 20 -1 22 -3 10 -17
-11 -13 -10 -15 6 -12 32 6 27 -19 -6 -31 -52 -18 -68 -14 -40 10 l25 20 -30
-7 c-26 -7 -28 -6 -15 9 12 15 11 17 -10 17 l-24 0 25 20 c27 21 46 25 54 11z
m56 -91 c0 -12 -53 -40 -75 -40 -28 0 -11 24 26 37 43 15 49 15 49 3z m40 -74
c0 -8 -84 -45 -89 -40 -10 9 43 44 67 44 12 0 22 -2 22 -4z m5 -36 c-3 -5 1
-10 9 -10 21 0 20 -16 -1 -25 -42 -17 -73 -23 -73 -15 0 5 12 16 28 24 23 13
24 15 7 16 -17 0 -17 2 -5 10 20 13 43 13 35 0z m54 -65 c2 -3 -4 -12 -15 -20
-18 -14 -18 -14 6 -16 20 0 16 -5 -25 -24 -58 -26 -84 -21 -34 7 30 17 25 19
-20 7 -7 -2 -16 2 -18 9 -3 7 3 12 14 12 11 0 28 7 39 15 17 13 17 14 2 15 -9
0 -20 -4 -23 -10 -3 -5 -11 -10 -18 -10 -6 0 -2 7 9 15 17 14 69 14 83 0z m21
-69 c-1 -5 4 -12 12 -17 18 -11 0 -27 -41 -35 -26 -5 -32 -4 -27 5 5 7 18 17
30 22 19 8 18 9 -6 4 -14 -3 -33 -8 -42 -11 -33 -13 -14 12 22 28 38 18 55 19
52 4z m40 -66 c0 -5 -6 -10 -12 -11 -10 0 -10 -2 0 -6 21 -8 13 -22 -20 -32
-31 -10 -30 -10 10 -5 26 4 42 2 42 -5 0 -15 -9 -18 -70 -26 -51 -6 -54 -6
-35 9 18 14 19 15 2 16 -27 0 -11 18 26 29 28 9 26 9 -15 4 -58 -6 -65 11 -10
25 50 13 82 14 82 2z m14 -106 c-18 -15 -18 -15 4 -9 13 4 22 2 22 -5 0 -10
-14 -17 -77 -38 -44 -14 -51 -2 -11 20 l33 19 -37 -6 c-22 -3 -38 -2 -38 4 0
10 60 28 99 30 24 1 24 1 5 -15z m36 -53 c0 -10 -35 -21 -65 -21 -18 1 -17 2
5 15 28 16 60 19 60 6z m-55 -35 c46 16 65 18 65 6 0 -5 -26 -15 -57 -22 -48
-11 -54 -14 -33 -20 18 -4 21 -8 12 -14 -7 -4 -11 -14 -8 -22 8 -22 -22 -17
-34 5 -12 23 -13 64 -3 75 4 4 10 0 13 -8 4 -12 10 -12 45 0z m70 -26 c-3 -5
-16 -10 -28 -10 -18 0 -19 2 -7 10 20 13 43 13 35 0z m19 -29 c8 -12 -18 -21
-57 -21 -46 0 -13 24 40 29 6 0 14 -3 17 -8z m-69 -51 c-11 -5 -27 -9 -35 -9
-9 0 -8 4 5 9 11 5 27 9 35 9 9 0 8 -4 -5 -9z m85 -5 c0 -6 -38 -22 -75 -31
-31 -8 -33 7 -2 22 23 12 77 18 77 9z m-77 -130 c-6 -17 -25 -15 -31 3 -2 7 5
12 17 12 14 0 19 -5 14 -15z m102 6 c-6 -4 -25 -11 -44 -15 -29 -5 -32 -4 -21
9 7 8 26 15 43 15 18 0 27 -4 22 -9z m81 -18 c3 -16 9 -41 14 -58 4 -16 13
-70 20 -120 6 -49 18 -126 25 -170 12 -73 24 -162 31 -240 24 -268 26 -847 3
-861 -5 -3 -19 -2 -30 1 -20 7 -21 12 -15 59 13 98 21 292 21 481 0 171 -8
271 -35 420 -5 28 -14 91 -20 140 -7 50 -23 149 -36 221 -29 158 -29 154 -4
154 13 0 22 -9 26 -27z m-62 -19 c11 -28 7 -34 -21 -34 -19 0 -24 3 -15 9 7 4
-12 6 -43 3 -61 -5 -73 8 -22 25 50 16 94 15 101 -3z m14 -79 c-3 -14 -1 -28
4 -31 4 -3 6 -9 3 -14 -3 -5 -1 -11 5 -15 24 -15 -6 -25 -68 -24 l-67 1 53 8
c68 10 81 22 22 20 -25 -1 -52 -1 -60 -1 -29 2 13 21 50 22 l35 1 -30 8 c-29
7 -28 9 15 23 8 3 -4 6 -26 6 -29 1 -44 -4 -48 -14 -8 -21 -26 -19 -26 4 0 21
10 25 89 29 53 3 53 3 49 -23z m20 -112 c3 -10 -13 -13 -57 -13 -33 0 -63 -4
-66 -10 -10 -17 -27 -11 -23 8 2 13 17 18 58 23 71 8 82 7 88 -8z m12 -53 c0
-5 -24 -10 -52 -10 -29 0 -60 -5 -68 -10 -10 -7 5 -10 53 -10 43 0 66 -4 62
-10 -3 -5 -28 -10 -55 -10 -27 0 -51 -4 -54 -9 -3 -5 23 -6 59 -3 68 5 85 -6
40 -26 -30 -14 -111 -16 -119 -4 -3 5 -8 27 -12 50 l-6 41 38 4 c78 8 114 7
114 -3z m5 -109 c-14 -13 -113 -25 -100 -13 9 10 41 17 90 21 11 0 15 -3 10
-8z m10 -31 c4 -6 -11 -10 -37 -9 -33 0 -38 2 -23 9 28 12 53 12 60 0z m-7
-28 c15 -10 21 -37 28 -127 3 -38 6 -79 7 -90 2 -18 -5 -20 -62 -23 -48 -2
-62 0 -59 10 3 7 24 16 49 19 l44 6 -47 1 c-56 2 -65 22 -10 22 20 0 44 5 52
11 11 7 1 9 -37 7 -70 -4 -73 15 -3 23 l55 6 -57 1 c-70 2 -78 21 -10 24 46 1
46 1 7 5 -59 5 -75 13 -50 23 11 5 32 9 48 9 15 1 27 4 27 9 0 4 -18 6 -40 4
-25 -3 -40 0 -40 7 0 6 17 11 40 11 22 0 40 5 40 10 0 6 -15 8 -40 4 -21 -4
-47 -3 -57 0 -17 7 -17 8 1 22 21 15 93 19 114 6z m50 -302 l-1 -50 -69 0
c-39 0 -68 4 -68 10 0 6 15 10 33 10 17 0 39 5 47 10 11 7 3 9 -27 7 -57 -3
-55 16 3 25 67 10 68 20 1 12 -49 -6 -57 -4 -57 10 0 13 12 16 69 16 l70 0 -1
-50z m2 -70 c0 -6 -27 -10 -61 -10 -37 0 -58 4 -54 10 3 6 31 10 61 10 30 0
54 -4 54 -10z m-2 -50 c0 -17 -5 -30 -11 -30 -7 0 -6 -4 3 -10 10 -6 11 -12 5
-18 -14 -13 -114 -21 -121 -10 -9 15 4 22 54 29 l47 6 -52 2 c-66 1 -70 20 -5
23 l47 2 -47 3 c-84 7 -54 26 48 31 28 2 31 -1 32 -28z m-1 -114 c1 -33 1 -34
-50 -39 -29 -2 -57 -2 -64 0 -23 9 -14 23 15 23 15 0 34 5 42 10 11 7 3 10
-30 11 l-45 1 30 13 c17 8 46 14 66 15 33 0 35 -2 36 -34z m3 -55 c0 -5 -27
-11 -60 -13 -68 -3 -83 9 -17 15 23 2 50 4 60 5 9 1 17 -2 17 -7z m-5 -47
c-10 -8 -13 -14 -7 -14 18 0 15 -27 -4 -34 -24 -9 -114 -7 -114 3 0 12 25 21
68 23 33 1 31 2 -12 7 -66 8 -72 29 -9 33 26 2 59 1 72 -1 23 -4 23 -5 6 -17z
m5 -74 c0 -5 -25 -10 -55 -10 -30 0 -58 0 -62 -1 -4 0 -9 4 -11 10 -2 7 20 11
62 11 37 0 66 -4 66 -10z m-16 -26 c12 -5 14 -10 6 -19 -8 -9 -8 -15 0 -20 23
-14 -4 -25 -61 -25 -38 0 -58 4 -54 10 3 6 27 10 53 11 41 0 44 1 22 10 -14 6
-32 8 -41 6 -9 -3 -23 -1 -30 4 -16 9 -3 16 46 22 17 2 33 5 37 6 3 0 14 -2
22 -5z m4 -108 c1 -22 -3 -24 -59 -30 -34 -4 -63 -5 -66 -2 -13 12 12 26 50
27 23 1 33 3 22 6 -42 10 -38 23 6 23 40 0 45 -3 47 -24z m-13 -56 c-3 -5 -26
-10 -50 -10 -29 0 -45 -5 -49 -15 -8 -21 -26 -19 -26 4 0 22 16 28 83 30 30 1
46 -3 42 -9z m5 -29 c0 -10 -51 -22 -64 -14 -4 3 -2 9 5 14 18 11 59 11 59 0z
m-57 -38 c-7 -2 -21 -2 -30 0 -10 3 -4 5 12 5 17 0 24 -2 18 -5z m35 -30 c-10
-2 -26 -2 -35 0 -10 3 -2 5 17 5 19 0 27 -2 18 -5z"/>
<path d="M746 2262 c-89 -31 -112 -103 -45 -137 36 -19 85 -12 99 15 20 37 12
78 -17 94 -25 13 -26 15 -10 21 19 8 80 2 110 -10 9 -4 17 -3 17 3 0 26 -96
35 -154 14z m43 -51 c12 -8 12 -14 1 -40 -9 -24 -19 -31 -39 -31 -14 0 -34 7
-43 14 -18 13 -24 47 -11 59 9 10 76 8 92 -2z"/>
<path d="M1600 2115 c-14 -8 -41 -19 -60 -25 -41 -12 -67 -27 -59 -34 6 -6
123 32 147 47 13 9 17 27 5 27 -5 -1 -19 -7 -33 -15z"/>
<path d="M1765 1705 c-5 -2 -38 -9 -72 -16 -74 -15 -85 -34 -15 -24 71 10 122
25 122 35 0 10 -15 12 -35 5z"/>
<path d="M1105 1043 c-25 -6 -65 -42 -65 -58 0 -17 31 -42 62 -50 22 -6 39 0
78 25 44 28 54 31 76 21 33 -15 76 -14 98 2 42 31 -30 80 -84 57 -16 -7 -43
-10 -60 -6 -60 12 -85 14 -105 9z m77 -24 c20 -11 20 -11 -3 -35 -16 -17 -33
-24 -61 -24 -49 0 -62 24 -27 51 27 21 61 24 91 8z m136 -1 c19 -19 14 -28
-17 -28 -34 0 -51 18 -30 31 19 12 33 11 47 -3z"/>
</g>
</svg>
