<?xml version="1.0" standalone="no"?>
<!DOCTYPE svg PUBLIC "-//W3C//DTD SVG 20010904//EN"
 "http://www.w3.org/TR/2001/REC-SVG-20010904/DTD/svg10.dtd">
<svg version="1.0" xmlns="http://www.w3.org/2000/svg"
 width="468pt" height="607pt" viewBox="0 0 468 607"
 preserveAspectRatio="xMidYMid meet">
<metadata>
Created by potrace 1.8, written by Peter Selinger 2001-2007
</metadata>
<g transform="translate(0,607) scale(0.156000,-0.156000)"
fill="#000000" stroke="none">
<path d="M661 3737 c-16 -15 -25 -18 -28 -9 -8 22 -19 13 -17 -15 1 -16 3 -40
3 -55 1 -16 6 -28 12 -28 5 0 7 5 4 10 -10 16 11 12 25 -5 7 -8 19 -15 28 -15
13 0 12 4 -4 23 -47 53 -47 53 -17 81 15 14 25 28 22 30 -3 3 -16 -5 -28 -17z"/>
<path d="M990 3724 c-13 -33 -13 -94 0 -94 6 0 10 9 10 20 0 11 4 20 8 20 5 0
17 -9 27 -20 17 -19 45 -27 45 -13 0 3 -15 19 -32 33 -28 24 -31 30 -19 43 7
9 10 21 6 27 -11 18 -35 10 -45 -16z m22 -6 c-7 -7 -12 -8 -12 -2 0 14 12 26
19 19 2 -3 -1 -11 -7 -17z"/>
<path d="M1110 3740 c-12 -8 -12 -10 3 -16 11 -4 17 -17 17 -38 0 -17 5 -38
10 -46 7 -11 9 -1 7 35 -2 45 0 50 21 53 12 2 20 8 17 13 -8 12 -56 11 -75 -1z"/>
<path d="M1231 3730 c-1 -37 11 -100 19 -100 4 0 5 12 2 27 l-5 27 42 -33 c53
-42 69 -30 19 14 -43 36 -44 41 -21 67 9 10 11 18 6 18 -6 0 -16 -7 -23 -15
-16 -20 -27 -19 -33 3 -3 11 -5 9 -6 -8z"/>
<path d="M1576 3725 c-33 -29 -49 -31 -69 -10 -8 8 -16 12 -18 10 -9 -8 4 -95
13 -95 6 0 7 11 4 25 -6 23 -4 25 26 25 23 0 37 7 46 20 17 28 28 19 36 -30 3
-22 11 -40 17 -40 6 0 8 7 5 17 -4 9 -10 36 -13 60 -3 24 -8 43 -12 43 -3 0
-19 -11 -35 -25z"/>
<path d="M1703 3743 c-14 -5 -7 -92 10 -108 6 -7 8 -1 4 16 -5 20 -1 31 19 48
21 18 23 25 14 37 -13 14 -25 16 -47 7z m37 -17 c0 -2 -7 -9 -15 -16 -12 -10
-15 -10 -15 4 0 9 7 16 15 16 8 0 15 -2 15 -4z"/>
<path d="M1920 3735 c-16 -19 -3 -55 21 -55 17 0 22 -7 17 -27 0 -5 -10 -7
-21 -5 -12 2 -17 -1 -13 -7 4 -6 18 -11 32 -11 35 0 31 33 -6 60 -17 12 -28
26 -25 31 9 13 43 11 48 -3 2 -7 8 -10 12 -6 4 4 5 14 2 23 -8 19 -51 20 -67
0z"/>
<path d="M728 3680 c-16 -60 -12 -81 7 -38 14 33 42 35 56 4 16 -35 31 -33 18
1 -14 37 -49 93 -58 93 -4 0 -14 -27 -23 -60z m32 14 c0 -8 -5 -12 -10 -9 -6
4 -8 11 -5 16 9 14 15 11 15 -7z"/>
<path d="M1797 3687 c-20 -63 -20 -67 -7 -67 6 0 10 9 10 19 0 11 9 23 20 26
23 7 50 -10 50 -31 0 -8 5 -14 10 -14 6 0 10 3 10 8 0 13 -60 112 -68 112 -5
0 -16 -24 -25 -53z m43 2 c0 -5 -7 -9 -15 -9 -15 0 -20 12 -9 23 8 8 24 -1 24
-14z"/>
<path d="M859 3685 c-11 -25 -18 -51 -16 -58 3 -7 9 0 15 14 20 50 54 46 68
-8 3 -13 12 -23 20 -23 11 0 6 16 -16 60 -17 33 -35 60 -41 60 -5 0 -19 -20
-30 -45z"/>
<path d="M1377 3723 c-11 -10 -8 -49 5 -78 21 -46 68 -26 68 30 0 17 -5 36
-12 43 -13 13 -50 16 -61 5z m57 -25 c12 -20 -8 -73 -25 -63 -19 13 -30 56
-18 72 14 16 29 13 43 -9z"/>
<path d="M2184 3326 c-3 -8 -4 -25 -1 -38 3 -18 5 -16 6 9 1 21 7 33 19 36 16
4 16 5 -1 6 -10 0 -20 -5 -23 -13z"/>
<path d="M2253 3322 c-7 -4 -11 -21 -9 -37 2 -17 4 -36 5 -42 1 -16 37 -17 46
-2 4 6 0 9 -10 7 -10 -2 -20 3 -22 10 -3 6 2 12 11 12 9 0 16 5 16 10 0 6 -7
10 -15 10 -8 0 -15 5 -15 10 0 6 7 10 15 10 8 0 15 5 15 10 0 12 -20 13 -37 2z"/>
<path d="M2385 3320 c-3 -5 1 -10 9 -10 12 0 16 -10 16 -40 0 -22 4 -40 9 -40
6 0 7 16 4 36 -5 29 -2 40 12 50 17 13 16 14 -12 14 -18 0 -35 -4 -38 -10z"/>
<path d="M2361 3295 l-1 -30 -21 25 -20 25 7 -40 c7 -45 14 -58 14 -29 1 19 1
19 15 0 21 -28 28 -14 17 36 -9 37 -10 39 -11 13z"/>
<path d="M2460 3279 c0 -19 5 -41 10 -49 7 -10 8 -1 4 30 -8 56 -14 64 -14 19z"/>
<path d="M2501 3290 c0 -14 4 -34 9 -45 8 -19 9 -19 9 3 1 32 20 27 37 -10
l15 -33 -6 35 c-11 63 -16 72 -29 61 -9 -7 -16 -7 -24 1 -9 9 -12 6 -11 -12z"/>
<path d="M2581 3283 c2 -47 10 -63 29 -63 10 0 22 5 25 10 3 6 -4 10 -16 10
-17 0 -19 3 -10 14 9 11 8 15 -6 21 -16 6 -15 8 7 20 l25 14 -27 1 c-24 0 -28
-4 -27 -27z"/>
<path d="M2656 3301 c-19 -7 -19 -8 -1 -15 10 -3 21 -3 24 2 3 5 13 12 21 15
11 4 9 5 -5 6 -11 0 -29 -4 -39 -8z"/>
<path d="M2726 3301 c-9 -13 -11 -66 -3 -78 8 -13 47 -6 47 9 0 5 -10 7 -22 3
-21 -6 -22 -5 -5 8 21 18 22 27 1 27 -24 0 -11 23 17 31 24 7 24 7 -3 8 -15 1
-29 -3 -32 -8z"/>
<path d="M2808 3303 c17 -7 15 -33 -2 -33 -8 0 -16 3 -19 8 -2 4 -2 1 0 -6 1
-8 4 -30 4 -50 1 -24 3 -29 6 -14 5 27 15 28 38 2 10 -11 21 -18 23 -15 3 3
-5 17 -18 30 -19 20 -22 30 -14 43 14 22 7 42 -14 41 -11 0 -12 -2 -4 -6z"/>
<path d="M2865 3260 c-3 -5 1 -10 9 -10 9 0 16 5 16 10 0 6 -4 10 -9 10 -6 0
-13 -4 -16 -10z"/>
<path d="M2191 3248 c-1 -20 24 -24 35 -6 5 7 2 9 -9 5 -9 -3 -18 -1 -21 6 -2
7 -5 4 -5 -5z"/>
<path d="M2670 3230 c0 -16 4 -30 8 -30 5 0 7 14 4 30 -2 17 -6 30 -8 30 -2 0
-4 -13 -4 -30z"/>
<path d="M819 3226 c-2 -3 -42 -6 -87 -7 l-82 -3 -1 -60 c-1 -153 4 -401 11
-501 5 -73 6 -27 3 136 l-5 246 195 8 c107 4 209 4 226 0 21 -4 31 -3 31 6 0
9 -51 10 -225 5 l-225 -8 0 76 c0 68 2 76 19 76 11 0 22 -6 25 -12 3 -9 10 -7
22 7 11 14 18 16 21 8 3 -10 10 -10 24 -2 15 8 25 7 37 -3 9 -7 13 -8 9 -2 -4
8 5 11 28 10 33 -1 35 -3 35 -33 0 -18 4 -33 9 -33 6 0 7 16 4 35 -4 23 -2 35
6 35 6 0 11 -6 11 -12 0 -9 4 -8 10 2 9 13 11 13 20 0 9 -13 10 -13 10 0 0 12
2 13 9 1 7 -11 9 -11 14 0 5 12 7 12 15 0 8 -11 10 -11 15 0 4 12 7 11 16 -1
10 -13 11 -13 11 0 0 9 3 11 8 5 10 -14 66 -19 57 -6 -3 6 1 11 9 11 10 0 13
-6 9 -17 -6 -16 -5 -16 11 -4 14 12 19 12 26 2 6 -11 8 -11 12 -1 3 10 9 10
25 1 16 -8 24 -8 29 0 4 8 9 7 15 -2 7 -11 9 -11 9 1 0 13 1 13 10 0 8 -12 10
-12 10 5 1 20 1 20 15 1 8 -11 15 -16 15 -10 0 5 11 10 24 10 22 2 25 -3 29
-35 l4 -36 1 38 c1 20 7 37 12 37 6 0 10 -6 10 -12 0 -10 3 -9 9 1 7 11 9 11
14 0 3 -9 6 -7 7 6 1 20 1 20 15 1 9 -12 15 -15 15 -7 0 11 3 11 15 1 12 -10
15 -10 16 1 0 8 4 5 9 -6 5 -11 9 -14 9 -7 1 7 6 10 11 7 6 -3 10 0 10 7 0 9
3 9 10 -2 6 -10 10 -11 10 -2 0 19 20 14 21 -5 0 -15 2 -15 9 2 8 18 9 18 10
-5 1 -15 4 -19 7 -10 2 8 7 22 9 30 5 13 6 13 15 0 8 -12 12 -12 16 -2 4 10 8
9 19 -5 13 -17 13 -17 14 2 0 17 2 17 10 5 8 -12 10 -12 10 -1 0 11 3 11 15 1
12 -10 15 -10 15 1 1 9 5 8 15 -5 14 -19 15 -19 15 -1 0 18 1 18 14 -1 15 -19
15 -19 30 1 14 20 14 20 20 -5 3 -14 7 -36 9 -50 3 -14 5 -7 6 18 1 46 3 47
32 32 13 -7 19 -7 19 0 0 12 42 9 52 -5 5 -6 8 -6 8 1 0 6 10 10 23 9 12 -1
25 3 29 9 5 8 8 7 8 -1 0 -7 9 -13 20 -13 11 0 20 -4 20 -9 0 -5 3 -16 6 -25
5 -13 -2 -16 -35 -16 -23 0 -41 -4 -41 -10 0 -5 18 -10 40 -10 38 0 40 -2 40
-30 l0 -30 -157 -1 c-87 -1 -291 -2 -453 -2 -162 0 -277 -2 -255 -6 22 -4 218
-6 435 -4 217 1 403 0 413 -3 15 -5 17 -22 17 -183 l0 -178 -157 -63 c-87 -34
-202 -85 -256 -112 -78 -39 -102 -47 -113 -37 -8 6 -14 17 -14 23 0 17 -61 53
-102 60 l-36 7 -4 112 c-2 62 -2 114 0 117 3 3 18 -13 36 -34 53 -67 78 -92
72 -74 -6 19 -118 167 -127 168 -3 0 -25 -37 -50 -82 -54 -101 -53 -98 -42
-98 5 0 26 35 48 78 l39 77 8 -55 c5 -30 5 -92 2 -137 l-6 -83 -29 0 c-38 0
-96 -52 -109 -98 -30 -111 4 -204 92 -245 l47 -22 1 -59 c0 -33 3 -56 7 -53 4
4 5 32 4 62 -2 53 -2 55 24 55 87 0 170 116 157 221 l-4 36 114 56 c108 53
388 171 392 165 1 -2 0 -85 -2 -185 l-4 -183 -67 -2 c-36 -1 -76 -2 -88 -2
-13 0 -23 -4 -23 -10 0 -5 36 -6 90 -2 l90 7 0 -94 0 -94 -179 -17 c-98 -10
-205 -17 -237 -16 -83 2 -98 1 -90 -7 9 -10 143 -5 325 13 85 7 161 14 169 14
13 0 14 -34 10 -247 -4 -156 -3 -203 2 -128 4 66 8 177 9 248 l1 127 31 0 c24
0 30 -4 25 -15 -8 -21 8 -19 29 5 20 22 20 22 -12 39 -29 15 -33 14 -33 -5 0
-9 -7 -14 -17 -12 -16 3 -18 16 -18 93 l0 90 40 0 c40 0 43 -4 30 -37 -4 -11
-3 -18 4 -18 6 0 11 6 11 14 0 7 7 19 15 26 22 18 18 35 -10 48 -36 17 -50 15
-35 -3 11 -13 7 -15 -24 -15 l-36 0 0 68 c0 38 3 123 6 189 l7 121 37 11 c51
15 60 14 54 -6 -5 -15 -3 -15 10 1 22 27 20 43 -5 56 -24 13 -41 4 -19 -10 15
-9 5 -15 -57 -34 l-23 -7 0 214 c0 163 3 216 13 219 6 2 45 2 84 0 68 -3 72
-5 63 -23 -6 -10 -7 -19 -3 -19 10 0 48 68 42 74 -2 2 -19 7 -36 11 -34 7 -48
-10 -15 -18 9 -3 -20 -5 -64 -6 -87 -1 -94 3 -94 53 l0 23 -487 1 c-269 0
-538 3 -598 6 -61 4 -113 5 -116 2z m601 -704 c19 -10 42 -29 50 -45 14 -26
14 -28 -15 -53 -21 -18 -23 -21 -5 -10 40 26 50 21 50 -28 0 -79 -38 -140
-107 -173 -61 -28 -64 -21 -62 149 1 84 4 161 6 171 5 20 22 17 83 -11z m-100
-147 c0 -99 -4 -165 -10 -165 -27 0 -80 37 -104 73 -28 44 -33 95 -16 159 12
44 71 98 105 98 l25 0 0 -165z"/>
<path d="M2317 3149 c-9 -5 -22 -7 -29 -3 -7 5 -9 -1 -6 -20 3 -14 1 -26 -3
-26 -5 0 -10 10 -10 23 -1 15 -3 17 -6 5 -2 -9 4 -33 13 -55 l18 -38 6 50 5
50 8 -48 c6 -36 12 -47 24 -45 9 2 18 9 21 17 3 9 0 11 -8 6 -20 -12 -31 17
-12 32 16 11 16 12 0 13 -25 0 -22 25 5 38 13 6 16 11 7 11 -8 0 -23 -4 -33
-10z"/>
<path d="M1610 3136 c-11 -15 -11 -19 3 -33 22 -22 31 -11 20 22 -8 25 -10 26
-23 11z"/>
<path d="M1830 3136 c0 -7 7 -19 15 -26 13 -11 13 -15 3 -21 -10 -7 -10 -9 0
-9 18 0 27 30 12 40 -7 4 -9 13 -6 19 4 6 0 11 -8 11 -9 0 -16 -6 -16 -14z"/>
<path d="M2382 3137 c-7 -8 -9 -29 -5 -53 6 -35 7 -36 13 -14 l6 25 25 -26
c19 -21 29 -25 46 -18 44 16 51 68 12 89 -27 15 -29 13 -29 -36 l0 -47 -19 25
c-11 13 -19 32 -18 42 2 23 -16 31 -31 13z m103 -35 c0 -31 -19 -28 -23 4 -3
18 0 25 10 22 7 -3 13 -14 13 -26z"/>
<path d="M2531 3141 c-12 -8 -19 -87 -8 -98 9 -9 58 7 52 16 -3 5 -14 7 -25 4
-25 -7 -26 5 -2 23 16 13 16 13 0 14 -10 0 -18 6 -18 14 0 8 8 16 18 18 10 2
13 6 7 10 -6 4 -17 3 -24 -1z"/>
<path d="M2721 3134 c0 -11 3 -14 6 -6 3 7 2 16 -1 19 -3 4 -6 -2 -5 -13z"/>
<path d="M1385 3110 c0 -30 8 -39 20 -20 7 12 -3 50 -13 50 -4 0 -7 -13 -7
-30z"/>
<path d="M2782 3128 c-7 -7 -12 -16 -12 -21 0 -5 7 -1 16 8 9 9 14 18 12 20
-2 3 -10 -1 -16 -7z"/>
<path d="M922 3110 c0 -14 2 -19 5 -12 2 6 2 18 0 25 -3 6 -5 1 -5 -13z"/>
<path d="M1155 3103 c0 -14 6 -28 14 -31 10 -3 12 0 8 12 -4 10 -7 24 -7 32 0
8 -4 14 -8 14 -4 0 -8 -12 -7 -27z"/>
<path d="M2680 3083 c0 -24 4 -43 10 -43 5 0 7 7 4 15 -4 8 -1 15 5 15 15 0
14 12 -4 36 -13 18 -14 16 -15 -23z"/>
<path d="M2593 3080 c2 -32 4 -35 35 -35 34 0 39 12 21 50 -8 18 -8 18 -6 -5
1 -19 -3 -25 -18 -25 -12 0 -22 9 -26 25 -7 21 -8 19 -6 -10z"/>
<path d="M2727 3094 c3 -9 0 -20 -7 -24 -16 -10 -4 -30 17 -30 11 0 14 6 9 23
-3 12 -6 28 -6 35 0 6 -4 12 -10 12 -5 0 -7 -7 -3 -16z"/>
<path d="M2760 3080 c0 -23 13 -36 41 -43 23 -6 26 -4 22 17 -4 17 0 26 14 29
10 3 5 5 -12 4 -18 -1 -29 -7 -27 -14 3 -19 -15 -16 -27 5 -8 13 -10 14 -11 2z"/>
<path d="M2317 2784 c-14 -14 -7 -26 8 -14 12 10 15 10 15 -4 0 -9 -6 -16 -14
-16 -7 0 -16 -9 -19 -20 -6 -22 8 -37 16 -18 4 9 16 1 36 -22 33 -38 43 -28
11 12 -11 14 -18 38 -17 54 2 27 -19 44 -36 28z"/>
<path d="M2248 2773 c-14 -3 -18 -15 -18 -55 0 -47 1 -50 23 -44 12 3 25 6 30
6 4 0 7 5 7 10 0 6 -11 10 -25 10 -31 0 -33 16 -2 26 l22 8 -25 7 -25 7 23 7
c12 4 22 11 22 16 0 9 -4 10 -32 2z"/>
<path d="M2175 2755 c4 -11 9 -35 12 -52 9 -52 23 -38 22 20 -1 28 -4 41 -6
27 l-5 -24 -15 24 c-10 17 -12 19 -8 5z"/>
<path d="M2416 2754 c-18 -17 -21 -66 -6 -94 12 -22 54 -16 46 7 -3 8 -1 24 5
35 9 17 8 19 -8 16 -10 -2 -17 -10 -15 -18 2 -7 0 -20 -3 -29 -5 -13 -7 -14
-15 -1 -15 23 -12 62 7 82 20 22 11 24 -11 2z"/>
<path d="M2481 2743 c2 -30 17 -79 18 -60 1 23 6 22 47 -10 42 -32 58 -22 49
30 -8 40 -29 65 -40 47 -3 -5 1 -13 9 -16 10 -4 16 -18 16 -38 l-1 -31 -14 30
c-10 23 -14 25 -14 11 -1 -19 -1 -19 -15 -1 -7 10 -11 27 -8 37 3 14 -1 18
-22 18 -19 0 -26 -5 -25 -17z"/>
<path d="M2676 2751 c-14 -5 -16 -10 -8 -15 7 -4 12 -19 12 -34 0 -15 4 -33 9
-41 5 -8 7 4 4 33 -5 42 -4 46 16 46 12 0 19 4 16 10 -7 11 -22 12 -49 1z"/>
<path d="M2617 2733 c-13 -12 -7 -61 8 -73 22 -18 38 0 30 33 -8 29 -28 51
-38 40z m27 -55 c-9 -14 -24 2 -24 25 1 21 1 21 15 3 8 -10 12 -23 9 -28z"/>
<path d="M2757 2704 c-14 -14 -7 -25 13 -22 12 2 21 8 21 13 0 12 -24 18 -34
9z"/>
<path d="M2330 2625 c-7 -9 -11 -18 -8 -20 3 -3 11 1 18 10 7 9 11 18 8 20 -3
3 -11 -1 -18 -10z"/>
<path d="M2470 2587 c0 -19 -7 -30 -22 -36 -28 -11 -38 -6 -38 19 0 10 -4 21
-9 24 -4 3 -6 -7 -4 -22 8 -51 11 -54 33 -42 16 9 25 8 36 -1 11 -9 14 -8 14
5 0 19 28 22 35 4 6 -15 75 -22 75 -8 0 6 -9 19 -20 30 -25 25 -17 43 13 34
18 -5 20 -4 10 7 -10 10 -18 10 -39 0 -25 -11 -25 -13 -10 -30 20 -22 20 -30
0 -27 -9 1 -29 18 -45 37 l-28 34 -1 -28z"/>
<path d="M2310 2575 c0 -8 4 -15 8 -15 5 0 9 7 9 15 0 8 -4 15 -9 15 -4 0 -8
-7 -8 -15z"/>
<path d="M2354 2563 c0 -11 -6 -17 -16 -17 -10 1 -15 -2 -12 -7 3 -5 16 -9 29
-9 18 0 23 5 21 25 0 14 -6 25 -12 25 -7 0 -11 -8 -10 -17z"/>
<path d="M351 2504 c-11 -13 -15 -14 -23 -2 -5 8 -7 3 -4 -17 2 -16 5 -38 5
-47 1 -10 5 -18 10 -18 4 0 6 12 4 28 l-4 27 19 -22 c11 -13 27 -23 35 -23 9
0 17 -5 19 -12 7 -21 28 2 28 31 0 26 -16 51 -32 51 -4 0 -8 -11 -8 -25 0 -30
-11 -32 -28 -4 -10 16 -10 24 -1 35 16 19 -3 17 -20 -2z m79 -52 c0 -15 -2
-15 -10 -2 -13 20 -13 33 0 25 6 -3 10 -14 10 -23z"/>
<path d="M510 2495 c0 -17 -16 -20 -25 -5 -3 6 -10 10 -16 10 -13 0 -11 -77 2
-86 8 -4 9 4 4 27 -7 31 -6 33 10 19 15 -13 19 -12 31 5 13 18 14 17 14 -12 0
-18 5 -35 10 -38 7 -4 9 3 5 19 -3 14 -7 37 -10 51 -6 27 -25 35 -25 10z"/>
<path d="M567 2503 c-7 -15 5 -103 14 -97 5 3 7 9 4 14 -3 5 4 24 15 42 26 42
25 48 -4 48 -14 0 -27 -3 -29 -7z m33 -11 c0 -13 -12 -22 -22 -16 -10 6 -1 24
13 24 5 0 9 -4 9 -8z"/>
<path d="M636 2483 c-4 -16 -9 -36 -12 -45 -3 -10 -1 -18 4 -18 5 0 12 9 15
21 8 29 31 19 38 -17 6 -27 7 -27 8 9 0 20 -3 37 -8 37 -5 0 -13 9 -16 20 -9
28 -22 25 -29 -7z"/>
<path d="M715 2500 c-4 -6 -1 -17 5 -25 6 -8 9 -23 5 -34 -3 -10 -1 -22 4 -25
15 -10 23 31 11 54 -6 11 -8 25 -5 30 3 6 2 10 -4 10 -5 0 -13 -5 -16 -10z"/>
<path d="M819 2475 l-5 -40 -17 35 -16 35 -1 -35 c0 -27 5 -37 24 -46 31 -14
36 -4 26 51 l-7 40 -4 -40z"/>
<path d="M857 2503 c-4 -3 -7 -24 -7 -47 0 -37 1 -39 15 -20 8 10 15 15 15 9
0 -5 5 -17 10 -25 9 -13 13 -11 30 10 15 19 20 21 20 9 0 -18 39 -32 63 -23 8
3 18 1 21 -5 13 -20 36 1 36 33 0 56 -37 76 -42 24 -4 -44 -38 -53 -38 -11 0
15 -5 35 -11 43 -8 11 -9 4 -5 -28 7 -48 -4 -49 -24 -2 -15 36 -30 39 -30 5 0
-34 -14 -32 -32 5 -8 17 -18 27 -21 23z m193 -49 c0 -8 -4 -14 -10 -14 -5 0
-10 9 -10 21 0 11 5 17 10 14 6 -3 10 -13 10 -21z"/>
<path d="M581 2335 c-1 -43 -15 -74 -28 -62 -4 4 -1 18 6 30 13 20 13 21 -2 8
-21 -17 -23 -61 -3 -61 8 0 18 5 22 11 5 8 10 6 16 -5 13 -24 31 -21 18 3 -5
11 -10 32 -11 48 0 15 -4 37 -9 48 -7 16 -9 12 -9 -20z"/>
<path d="M2200 2351 c0 -12 -4 -19 -10 -16 -5 3 -10 2 -10 -3 0 -6 7 -13 16
-16 8 -3 13 -9 11 -13 -3 -5 -1 -17 4 -28 6 -13 7 -1 4 34 -6 56 -15 82 -15
42z"/>
<path d="M304 2324 c-22 -52 -15 -88 16 -91 25 -3 25 -3 3 7 -27 11 -29 36 -9
85 8 19 13 35 10 35 -3 0 -12 -16 -20 -36z"/>
<path d="M641 2308 c0 -32 3 -58 8 -58 5 0 7 10 4 23 -6 22 -6 22 21 -3 23
-21 38 -25 86 -25 56 -1 59 0 63 25 4 25 4 25 12 3 12 -36 25 -27 14 9 -5 18
-9 35 -9 37 0 3 -5 0 -11 -6 -6 -6 -17 -9 -24 -7 -7 3 -15 -6 -19 -21 -8 -31
-26 -24 -26 11 0 32 -28 32 -36 -1 -3 -14 -12 -25 -20 -25 -17 0 -37 37 -30
55 3 9 0 12 -9 9 -7 -3 -15 2 -18 13 -3 10 -5 -8 -6 -39z m96 -30 c-3 -8 -6
-5 -6 6 -1 11 2 17 5 13 3 -3 4 -12 1 -19z"/>
<path d="M868 2338 c-5 -28 12 -98 24 -98 4 0 4 16 1 35 -4 26 -2 35 8 35 11
1 10 3 -2 13 -9 7 -18 19 -21 27 -3 9 -7 5 -10 -12z"/>
<path d="M930 2357 c0 -5 5 -18 11 -30 15 -27 14 -74 -2 -93 -6 -8 -9 -17 -6
-20 11 -12 40 63 34 87 -6 25 -36 70 -37 56z"/>
<path d="M2232 2325 c-2 -48 6 -61 35 -61 20 0 22 4 16 46 -7 54 -13 65 -13
24 0 -37 -16 -66 -24 -44 -3 8 -7 29 -9 45 -3 25 -4 23 -5 -10z"/>
<path d="M2342 2347 c-8 -10 -6 -21 9 -46 22 -37 19 -51 -7 -30 -16 13 -16 12
-5 -8 6 -13 16 -23 22 -23 20 0 19 28 -2 65 l-23 38 23 -6 c14 -3 21 -1 18 6
-5 17 -23 19 -35 4z"/>
<path d="M407 2334 c-4 -4 -7 -19 -8 -33 l0 -26 -10 25 c-13 31 -13 32 -33 24
-18 -7 -23 -74 -6 -74 6 0 10 6 9 13 -1 6 -1 20 0 30 2 26 21 10 21 -18 0 -21
4 -23 43 -21 23 1 47 5 54 9 7 4 16 0 22 -10 8 -15 10 -10 11 23 0 22 5 45 11
51 8 8 4 11 -15 10 -20 -2 -25 -6 -21 -22 4 -17 3 -16 -6 3 -14 26 -25 28 -33
5 -6 -15 -8 -15 -19 1 -7 9 -16 14 -20 10z m23 -50 c0 -8 -4 -12 -10 -9 -5 3
-10 13 -10 21 0 8 5 12 10 9 6 -3 10 -13 10 -21z"/>
<path d="M2300 2302 c0 -22 5 -44 10 -47 7 -4 8 8 4 37 -9 57 -14 61 -14 10z"/>
<path d="M2182 2280 c0 -14 2 -19 5 -12 2 6 2 18 0 25 -3 6 -5 1 -5 -13z"/>
<path d="M663 2130 c0 -36 2 -50 4 -32 2 17 2 47 0 65 -2 17 -4 3 -4 -33z"/>
<path d="M2150 2150 c0 -8 -3 -33 -5 -55 -5 -36 -4 -37 6 -15 l11 25 15 -22
c15 -23 43 -21 43 3 0 8 6 14 13 14 6 0 3 7 -8 16 -20 15 -20 15 -1 30 19 14
19 14 -2 14 -19 0 -22 -6 -22 -42 l-1 -43 -24 45 c-13 25 -24 38 -25 30z"/>
<path d="M2442 2148 c-19 -19 -15 -48 8 -48 25 0 26 -25 3 -39 -16 -9 -17 -10
-1 -11 18 0 33 33 23 50 -3 5 -13 10 -21 10 -18 0 -18 9 3 32 18 20 4 25 -15
6z"/>
<path d="M2299 2143 c-1 -5 -2 -19 -2 -32 -3 -38 -25 -37 -30 1 -3 30 -4 29
-5 -9 l-2 -42 75 1 c41 0 75 4 75 8 0 5 -9 6 -20 3 -11 -3 -20 -1 -20 5 0 6 8
13 18 15 16 4 16 5 0 6 -11 1 -18 9 -18 20 0 11 8 22 18 24 13 4 11 5 -5 6
-20 1 -23 -4 -23 -34 0 -32 -3 -35 -27 -35 -27 1 -27 1 -9 15 17 13 18 15 3
15 -20 0 -23 26 -4 33 7 3 5 6 -5 6 -10 1 -18 -2 -19 -6z"/>
<path d="M2518 2143 c-15 -4 -16 -12 -11 -51 6 -52 13 -68 13 -33 0 12 7 35
15 51 16 30 11 39 -17 33z m12 -23 c0 -5 -5 -10 -11 -10 -5 0 -7 5 -4 10 3 6
8 10 11 10 2 0 4 -4 4 -10z"/>
<path d="M2676 2113 c7 -38 -7 -44 -29 -13 -8 11 -17 17 -20 13 -11 -10 -8
-53 3 -53 6 0 10 5 10 12 0 6 7 4 18 -5 10 -10 22 -17 25 -17 11 0 8 63 -3 80
-7 11 -8 6 -4 -17z"/>
<path d="M2721 2129 c-13 -5 -21 -12 -18 -15 9 -10 88 7 81 17 -7 11 -32 11
-63 -2z"/>
<path d="M2580 2089 c0 -5 -5 -7 -11 -3 -7 4 -10 0 -7 -11 1 -10 12 -19 24
-21 18 -3 20 1 16 21 -4 24 -22 36 -22 14z"/>
<path d="M2742 2065 c0 -16 2 -22 5 -12 2 9 2 23 0 30 -3 6 -5 -1 -5 -18z"/>
<path d="M1343 2052 c-7 -4 18 -6 55 -4 96 5 108 10 27 11 -38 0 -76 -3 -82
-7z"/>
<path d="M917 2024 c-4 -4 -7 -27 -7 -51 0 -56 -13 -55 -28 2 -15 55 -32 59
-32 8 0 -21 -3 -48 -6 -60 -4 -14 -2 -23 5 -23 6 0 11 7 11 15 0 20 10 19 25
-2 13 -17 51 -11 40 7 -8 13 8 13 21 1 5 -5 23 -11 39 -13 l30 -3 -41 -45
c-114 -127 -159 -285 -123 -440 14 -61 77 -164 140 -229 l52 -52 -50 -52 c-63
-66 -131 -156 -173 -229 -17 -32 -36 -60 -40 -63 -4 -3 -25 -41 -46 -85 -31
-67 -39 -77 -49 -64 -9 13 -10 9 -7 -20 2 -20 7 -36 10 -36 3 0 25 10 50 21
30 15 40 25 33 32 -7 7 -15 6 -26 -3 -31 -26 -29 3 5 68 l35 67 244 3 243 3
-6 -23 c-3 -13 -9 -43 -12 -68 -10 -75 -44 -182 -76 -238 -32 -57 -86 -102
-155 -132 -44 -20 -123 -85 -123 -102 0 -6 6 -6 14 1 11 9 15 9 19 -1 4 -9 8
-10 14 -3 4 6 47 36 95 67 139 92 184 161 239 370 l34 128 33 0 32 0 0 -58 c0
-32 -6 -82 -14 -112 -10 -37 -11 -57 -4 -61 7 -4 6 -9 -1 -13 -6 -4 -11 -4
-11 1 0 4 -20 -39 -43 -97 -30 -74 -39 -106 -30 -108 7 -2 13 -10 13 -18 0
-17 -30 -19 -31 -1 -2 34 -18 -35 -18 -82 -1 -43 2 -52 14 -47 9 3 15 0 15 -9
0 -8 3 -15 8 -15 4 0 8 26 9 58 1 38 19 108 53 212 29 87 55 190 61 235 15
125 3 115 137 117 l117 2 -110 3 c-130 4 -135 7 -135 100 0 59 -2 63 -25 69
-31 8 -104 -3 -122 -18 -8 -7 -13 -35 -13 -79 l0 -69 -226 0 c-124 0 -224 3
-222 8 56 124 224 339 257 329 9 -3 43 -15 76 -27 34 -13 104 -26 160 -31 91
-8 106 -7 160 13 70 25 126 60 207 130 105 92 144 191 135 344 -5 85 -10 104
-48 185 -35 74 -56 102 -112 156 -39 36 -95 77 -126 92 -52 24 -66 26 -186 25
-134 0 -146 -3 -257 -62 -4 -2 -8 12 -10 30 -2 22 -9 34 -20 36 -15 3 -18 -4
-18 -42 0 -33 -4 -46 -14 -46 -17 0 -26 21 -28 68 -1 29 -3 24 -7 -18 l-6 -55
-21 53 c-11 29 -23 49 -27 46z m577 -47 c44 -15 76 -37 123 -82 34 -34 63 -67
63 -74 0 -6 5 -11 10 -11 6 0 10 -7 10 -15 0 -8 5 -15 11 -15 5 0 7 -4 4 -10
-3 -5 -2 -10 3 -10 5 0 15 -19 21 -42 7 -24 17 -48 23 -55 6 -7 5 -14 -3 -18
-8 -6 -7 -10 2 -16 12 -8 11 -11 -1 -19 -13 -8 -12 -10 3 -10 19 0 24 -30 5
-31 -10 0 -10 -2 0 -6 10 -4 10 -8 1 -19 -9 -11 -8 -14 7 -14 18 -1 18 -1 0
-15 -19 -14 -19 -15 -1 -15 17 0 17 -2 -3 -23 -15 -16 -19 -26 -11 -34 7 -7
-4 -14 -37 -22 -25 -7 -44 -14 -42 -16 2 -3 19 -1 36 4 19 6 34 6 37 0 4 -5 1
-9 -6 -9 -9 0 -9 -3 0 -14 9 -11 7 -15 -10 -19 -19 -5 -20 -8 -9 -21 10 -13
10 -16 -3 -16 -10 0 -14 -6 -11 -15 4 -10 0 -15 -12 -15 -16 0 -17 -2 -4 -10
11 -7 12 -10 2 -10 -16 0 -42 -25 -42 -40 0 -6 -4 -8 -10 -5 -5 3 -10 -1 -10
-9 0 -8 -9 -18 -20 -21 -11 -3 -20 -11 -20 -16 0 -5 -7 -9 -15 -9 -8 0 -15 -5
-15 -11 0 -5 -4 -7 -10 -4 -5 3 -10 2 -10 -3 0 -6 -11 -13 -25 -16 -14 -4 -25
-11 -25 -17 0 -7 -6 -6 -17 2 -15 12 -16 12 -10 -5 6 -14 4 -17 -8 -12 -8 3
-15 0 -15 -6 0 -7 -5 -6 -15 2 -12 10 -15 10 -15 -3 0 -11 -6 -14 -15 -11 -8
4 -21 2 -28 -3 -25 -20 -249 15 -297 46 -12 8 -10 15 15 41 16 16 34 30 39 30
12 0 40 39 33 46 -2 3 -28 -18 -58 -46 -29 -27 -56 -50 -60 -50 -13 0 -115
124 -145 176 -53 93 -63 190 -33 317 35 149 219 335 334 338 22 0 48 4 58 7
33 13 171 1 231 -21z m-444 2 c0 -5 -4 -9 -10 -9 -5 0 -10 7 -10 16 0 8 5 12
10 9 6 -3 10 -10 10 -16z m348 -1086 c3 -38 1 -43 -17 -43 -17 0 -21 6 -21 30
0 23 -4 30 -20 30 -13 0 -20 -7 -20 -19 0 -10 -6 -24 -14 -30 -8 -7 -17 -23
-20 -36 -12 -47 -26 -25 -26 39 0 73 2 75 85 73 l50 -2 3 -42z m-49 -56 c1
-16 -3 -26 -9 -22 -5 3 -10 25 -9 48 0 33 2 38 9 22 5 -11 9 -33 9 -48z m-29
4 c0 -6 -4 -13 -10 -16 -5 -3 -10 1 -10 9 0 9 5 16 10 16 6 0 10 -4 10 -9z
m-10 -41 c0 -5 -4 -10 -10 -10 -5 0 -10 5 -10 10 0 6 5 10 10 10 6 0 10 -4 10
-10z m70 0 c0 -5 -12 -10 -27 -9 -25 0 -26 1 -8 9 27 12 35 12 35 0z m-80 -30
c0 -5 -4 -10 -10 -10 -5 0 -10 5 -10 10 0 6 5 10 10 10 6 0 10 -4 10 -10z
m-10 -40 c0 -5 -4 -10 -10 -10 -5 0 -10 5 -10 10 0 6 5 10 10 10 6 0 10 -4 10
-10z m-170 -380 c0 -5 -5 -10 -11 -10 -5 0 -7 5 -4 10 3 6 8 10 11 10 2 0 4
-4 4 -10z m180 0 c0 -5 -2 -10 -4 -10 -3 0 -8 5 -11 10 -3 6 -1 10 4 10 6 0
11 -4 11 -10z m-270 -50 c0 -5 -5 -10 -11 -10 -5 0 -7 5 -4 10 3 6 8 10 11 10
2 0 4 -4 4 -10z m241 -23 c-1 -12 -15 -9 -19 4 -3 6 1 10 8 8 6 -3 11 -8 11
-12z m-311 -27 c0 -5 -4 -10 -10 -10 -5 0 -10 5 -10 10 0 6 5 10 10 10 6 0 10
-4 10 -10z m310 -30 c0 -5 -4 -10 -10 -10 -5 0 -10 5 -10 10 0 6 5 10 10 10 6
0 10 -4 10 -10z"/>
<path d="M1320 1830 c-3 -58 -4 -129 -4 -157 1 -29 -2 -53 -6 -53 -9 0 -32 27
-125 144 -55 70 -63 76 -97 76 -36 0 -38 -2 -38 -32 0 -27 18 -53 102 -148
l101 -114 -32 -9 c-18 -4 -52 -7 -74 -5 l-42 3 -6 70 -5 70 -2 -72 -2 -72 -52
-4 -53 -3 53 -2 52 -2 0 -85 c0 -106 14 -113 17 -7 1 42 2 80 3 85 0 4 31 7
69 7 67 0 71 -1 87 -29 10 -16 26 -32 36 -34 16 -5 18 -18 18 -138 0 -73 3
-129 7 -126 3 4 5 64 5 134 l-2 128 99 -104 c73 -77 103 -102 116 -97 9 3 25
6 36 6 16 0 19 7 19 40 0 22 -4 40 -9 40 -8 0 -181 167 -181 176 0 2 29 4 65
4 l64 0 4 -62 3 -63 2 64 2 64 53 -6 c30 -3 60 -1 68 4 16 10 11 11 -46 11
-73 -1 -75 1 -77 86 l-2 77 -3 -75 c-2 -41 -8 -79 -12 -83 -13 -13 -141 4
-141 18 0 7 -13 24 -30 38 l-29 25 -4 159 c-2 149 -3 152 -7 53z m-160 -95 c7
-9 10 -18 7 -22 -8 -7 -37 15 -37 28 0 14 16 11 30 -6z m204 -167 c21 -30 20
-47 -6 -75 -25 -27 -45 -29 -70 -6 -20 18 -23 54 -8 84 15 27 64 25 84 -3z
m120 -147 c47 -48 74 -81 67 -85 -6 -4 -11 -12 -11 -18 0 -7 4 -7 14 1 10 9
16 8 26 -4 18 -22 5 -45 -28 -45 -28 0 -52 21 -166 148 -38 42 -39 43 -20 62
10 10 24 19 29 19 6 1 46 -34 89 -78z"/>
<path d="M1297 1564 c-23 -23 7 -69 37 -58 25 10 17 58 -9 62 -12 2 -24 0 -28
-4z m33 -24 c0 -21 -15 -27 -25 -10 -7 12 2 30 16 30 5 0 9 -9 9 -20z"/>
<path d="M1264 1864 c3 -9 6 -21 7 -27 0 -7 4 -3 9 8 13 29 12 35 -6 35 -11 0
-14 -5 -10 -16z"/>
<path d="M1354 1866 c-3 -8 -4 -23 -1 -33 4 -14 5 -13 6 5 2 46 21 20 21 -30
0 -50 -12 -57 -23 -13 -3 11 -5 4 -6 -17 -1 -38 13 -50 35 -29 15 16 5 131
-12 131 -8 0 -17 -6 -20 -14z"/>
<path d="M1252 1797 c-2 -41 1 -48 16 -45 19 4 25 39 10 60 -7 9 -8 5 -5 -14
2 -16 1 -28 -4 -28 -4 0 -10 17 -12 38 -3 33 -4 32 -5 -11z"/>
<path d="M1620 1375 c-25 -13 -41 -24 -37 -25 11 0 87 39 87 45 0 7 0 7 -50
-20z"/>
<path d="M315 2010 c-4 -6 -16 -8 -26 -5 -19 6 -20 3 -17 -46 2 -31 8 -54 16
-57 7 -2 10 2 6 12 -8 21 5 20 28 -1 27 -24 35 -7 10 20 -26 27 -28 55 -7 63
16 7 21 24 6 24 -6 0 -13 -5 -16 -10z"/>
<path d="M545 2010 c-3 -5 1 -10 10 -10 9 0 14 -4 10 -10 -3 -5 -12 -7 -20 -4
-11 5 -13 -2 -8 -33 7 -47 23 -68 23 -30 0 15 7 39 16 52 9 13 13 29 9 35 -8
13 -32 13 -40 0z"/>
<path d="M675 2006 c-16 -12 -18 -18 -7 -40 6 -14 9 -32 6 -40 -6 -16 11 -30
26 -21 7 4 3 19 -10 39 -27 45 -26 49 17 41 l38 -7 -19 21 c-23 25 -26 25 -51
7z"/>
<path d="M606 1988 c-10 -40 -7 -58 9 -52 9 4 18 -2 24 -17 9 -23 10 -23 10
-3 1 21 -25 94 -33 94 -2 0 -6 -10 -10 -22z"/>
<path d="M820 1975 c0 -43 -15 -46 -23 -5 -11 51 -27 34 -26 -27 1 -43 3 -50
8 -29 l6 30 12 -27 c20 -44 33 -31 33 33 0 33 -2 60 -5 60 -3 0 -5 -16 -5 -35z"/>
<path d="M354 1958 c8 -49 13 -58 32 -58 23 0 19 77 -5 90 -31 16 -34 13 -27
-32z m23 -15 c-3 -10 -5 -4 -5 12 0 17 2 24 5 18 2 -7 2 -21 0 -30z"/>
<path d="M428 1994 c-10 -17 -3 -87 9 -91 7 -3 9 3 6 17 -4 16 -2 19 12 14 10
-4 20 -1 25 6 5 8 10 2 15 -19 10 -45 27 -39 20 7 -14 79 -24 91 -46 50 l-11
-21 -13 23 c-7 12 -14 19 -17 14z"/>
<path d="M248 1828 c-17 -30 -17 -173 -1 -189 20 -20 23 -6 8 38 -14 40 -9
110 10 156 10 25 -2 21 -17 -5z"/>
<path d="M827 1813 c18 -44 12 -106 -13 -134 -9 -10 -12 -19 -6 -19 17 0 42
55 42 93 0 39 -18 97 -30 97 -5 0 -2 -17 7 -37z"/>
<path d="M315 1830 c3 -5 8 -10 11 -10 2 0 4 5 4 10 0 6 -5 10 -11 10 -5 0 -7
-4 -4 -10z"/>
<path d="M526 1800 c-22 -108 -19 -117 34 -105 24 5 30 12 30 33 l0 25 25 -23
c31 -29 32 -19 4 19 -12 16 -18 34 -15 40 4 7 1 9 -8 5 -9 -4 -16 2 -19 18 -3
13 -4 -3 -3 -35 3 -73 -15 -71 -30 4 l-10 54 -8 -35z m14 -65 c0 -14 -4 -25
-10 -25 -5 0 -10 11 -10 25 0 14 5 25 10 25 6 0 10 -11 10 -25z"/>
<path d="M769 1810 c-3 -20 -9 -24 -30 -22 -29 3 -44 -24 -28 -49 7 -12 9 -11
10 1 1 8 1 18 0 23 0 4 4 7 9 7 6 0 10 -13 10 -30 0 -16 5 -30 10 -30 6 0 10
7 10 16 0 14 2 14 16 -1 13 -13 19 -13 31 -3 13 10 12 13 -6 20 -23 8 -28 24
-8 31 9 4 9 8 1 14 -7 4 -14 17 -16 28 -4 17 -5 17 -9 -5z"/>
<path d="M321 1788 c-1 -34 -7 -35 -32 -5 l-18 22 -1 -52 c0 -30 5 -53 10 -53
6 0 8 11 4 25 -8 30 6 33 24 4 7 -12 16 -18 19 -15 4 3 15 -2 26 -11 18 -17
19 -17 32 0 12 17 14 17 23 1 13 -22 39 -12 45 18 l4 23 2 -22 c0 -13 6 -23
12 -23 7 0 8 11 4 29 -5 23 -2 32 17 45 l22 16 -26 0 c-19 0 -29 -7 -34 -22
-7 -23 -7 -22 -16 5 -5 15 -13 27 -18 27 -4 0 -11 -12 -15 -27 l-7 -28 -15 29
c-15 28 -16 29 -29 11 -8 -10 -15 -24 -15 -29 -1 -6 -5 5 -9 24 -7 31 -7 32
-9 8z m52 -64 c-5 -15 -7 -15 -15 0 -5 9 -6 26 -2 39 l7 22 8 -23 c5 -12 6
-29 2 -38z m54 9 c-3 -10 -5 -2 -5 17 0 19 2 27 5 18 2 -10 2 -26 0 -35z"/>
<path d="M657 1793 c-17 -16 -6 -58 18 -70 14 -6 25 -8 25 -5 0 13 -17 34 -26
32 -5 0 -10 8 -12 20 -4 24 15 27 21 3 4 -14 5 -12 6 5 1 21 -18 30 -32 15z"/>
<path d="M2182 1635 c0 -41 2 -45 7 -20 l7 30 18 -33 c9 -19 20 -32 22 -29 3
3 -2 19 -11 37 -14 26 -14 34 -3 47 12 14 11 15 -9 5 -16 -9 -23 -9 -26 1 -3
6 -5 -10 -5 -38z"/>
<path d="M2250 1631 c0 -39 20 -68 40 -56 24 15 3 95 -25 95 -11 0 -15 -11
-15 -39z m35 -2 c7 -33 3 -45 -14 -34 -13 8 -15 65 -2 65 5 0 12 -14 16 -31z"/>
<path d="M2415 1658 c-6 -16 0 -66 8 -75 4 -3 7 1 7 9 0 9 7 19 16 22 21 8 14
50 -9 54 -9 2 -19 -2 -22 -10z m27 -30 c-15 -15 -26 -4 -18 18 5 13 9 15 18 6
9 -9 9 -15 0 -24z"/>
<path d="M2573 1663 c-18 -7 -16 -33 4 -55 10 -12 12 -18 4 -18 -7 0 -9 -4 -6
-10 9 -14 35 -13 35 2 0 6 -9 22 -21 34 -22 23 -17 49 7 40 8 -3 14 -1 14 4 0
11 -16 12 -37 3z"/>
<path d="M2310 1628 c0 -18 5 -40 10 -48 7 -12 10 -8 10 14 0 24 2 27 15 16
23 -19 20 13 -3 33 -26 24 -32 21 -32 -15z"/>
<path d="M2367 1653 c-11 -10 -8 -25 3 -18 6 4 10 -6 10 -24 0 -16 5 -33 12
-37 8 -5 9 -2 5 10 -4 10 -7 31 -7 47 0 28 -9 37 -23 22z"/>
<path d="M2487 1653 c-2 -4 -7 -26 -11 -48 -6 -35 -5 -38 7 -22 15 18 47 23
47 7 0 -5 5 -10 11 -10 5 0 2 14 -8 31 -21 36 -39 53 -46 42z m23 -33 c0 -5
-2 -10 -4 -10 -3 0 -8 5 -11 10 -3 6 -1 10 4 10 6 0 11 -4 11 -10z"/>
<path d="M2655 1620 c-18 -8 -17 -9 7 -9 15 -1 30 4 33 9 7 12 -12 12 -40 0z"/>
<path d="M2005 1543 l4 -52 -37 -10 c-20 -5 -48 -12 -62 -14 -22 -4 -22 -4 5
-5 17 -1 62 5 100 12 77 15 87 14 78 -12 -6 -15 -4 -15 15 2 12 11 22 25 22
31 0 15 -42 28 -50 15 -3 -4 -17 -11 -32 -15 -25 -6 -27 -4 -37 47 l-10 53 4
-52z"/>
<path d="M2251 1516 c-1 -29 -4 -37 -16 -32 -21 8 -19 -7 4 -28 17 -16 19 -16
22 1 3 10 2 36 -2 58 l-6 40 -2 -39z"/>
<path d="M2199 1483 l4 -38 8 29 c8 29 5 46 -10 46 -4 0 -5 -17 -2 -37z"/>
<path d="M2297 1513 c-12 -20 -18 -73 -9 -73 6 0 12 5 14 12 3 8 12 9 34 1 19
-7 37 -7 47 -2 11 7 19 4 26 -8 15 -26 13 -11 -4 30 -20 48 -35 56 -35 18 0
-40 -24 -41 -40 -1 -12 29 -24 38 -33 23z m23 -22 c0 -6 -4 -13 -10 -16 -5 -3
-10 1 -10 9 0 9 5 16 10 16 6 0 10 -4 10 -9z"/>
<path d="M2527 1513 c-13 -12 -7 -26 6 -15 20 17 45 -3 31 -25 -6 -10 -15 -16
-19 -15 -4 2 -11 -1 -14 -6 -3 -5 -20 -7 -38 -5 -23 4 -33 11 -36 27 -3 14 -5
11 -6 -10 -1 -29 2 -32 34 -36 45 -5 95 25 95 57 0 27 -36 46 -53 28z"/>
<path d="M1858 1453 c7 -3 16 -2 19 1 4 3 -2 6 -13 5 -11 0 -14 -3 -6 -6z"/>
<path d="M655 1374 c4 -44 2 -133 -4 -198 -11 -111 -10 -138 5 -124 3 4 8 91
11 196 5 144 3 191 -6 197 -10 5 -11 -11 -6 -71z"/>
<path d="M1818 1443 c7 -3 16 -2 19 1 4 3 -2 6 -13 5 -11 0 -14 -3 -6 -6z"/>
<path d="M2150 1389 c-7 -11 -10 -23 -7 -25 2 -2 9 7 15 21 14 30 7 33 -8 4z"/>
<path d="M2679 1393 c12 -24 31 -39 31 -25 0 5 -10 17 -21 28 -22 19 -22 19
-10 -3z"/>
<path d="M2000 1381 c0 -6 5 -13 10 -16 6 -3 10 1 10 9 0 9 -4 16 -10 16 -5 0
-10 -4 -10 -9z"/>
<path d="M2189 1373 c-1 -4 -1 -12 0 -17 1 -4 -5 -19 -13 -31 -19 -30 -12 -35
45 -35 28 0 50 -5 53 -12 4 -7 4 -2 1 12 -2 14 -5 36 -6 50 -1 22 -2 20 -11
-9 -11 -38 -25 -32 -30 14 -2 19 -9 31 -20 33 -10 2 -19 0 -19 -5z m31 -41 c0
-24 -8 -32 -26 -25 -10 4 -11 9 -1 24 15 24 27 24 27 1z"/>
<path d="M2389 1328 c1 -21 7 -38 11 -38 5 0 6 9 3 20 -7 26 -2 25 31 -4 19
-16 40 -23 68 -23 30 0 36 2 24 9 -9 5 -16 22 -16 38 0 34 -11 38 -31 13 -13
-16 -12 -17 4 -4 15 12 17 11 17 -12 0 -28 -15 -44 -25 -27 -4 6 -10 8 -15 5
-5 -3 -17 6 -26 21 -14 20 -15 27 -5 33 8 5 2 8 -16 7 -26 -1 -28 -3 -24 -38z"/>
<path d="M2325 1334 l-25 -27 -1 24 c0 13 -3 18 -6 11 -3 -7 -2 -23 1 -35 4
-18 13 -24 43 -25 l39 -3 -4 41 c-5 47 -14 50 -47 14z m35 -14 c0 -13 -7 -20
-20 -20 -22 0 -23 1 -14 24 9 23 34 20 34 -4z"/>
<path d="M2617 1348 c-2 -7 -1 -22 4 -33 7 -19 8 -19 8 3 1 13 7 22 17 22 8 0
12 5 9 10 -9 14 -32 12 -38 -2z"/>
<path d="M2132 1320 c-2 -38 12 -69 25 -57 4 5 2 11 -4 15 -6 4 -13 23 -16 42
l-4 35 -1 -35z"/>
<path d="M2551 1313 c0 -27 0 -28 10 -5 5 13 13 20 19 17 5 -3 10 -1 10 4 0 6
-9 11 -20 11 -15 0 -20 -6 -19 -27z"/>
<path d="M2012 1194 c-2 -127 -4 -142 -20 -146 -10 -3 -99 -4 -199 -2 -136 2
-190 7 -218 18 -31 13 -35 13 -26 2 21 -25 107 -36 287 -36 l175 0 -3 -112 -3
-113 -140 -5 -140 -6 150 -2 150 -2 -3 120 c-3 114 -2 120 17 120 11 0 32 -5
47 -10 26 -10 26 -11 8 -26 -17 -13 -16 -14 21 -8 22 4 42 8 44 10 2 1 -7 18
-20 36 -19 26 -24 29 -27 15 -2 -11 -10 -16 -20 -13 -9 3 -29 8 -44 12 l-27 6
-4 142 -3 141 -2 -141z"/>
<path d="M642 975 c-1 -33 1 -90 5 -127 4 -53 9 -68 22 -68 11 0 12 3 4 8 -7
4 -15 56 -21 127 -6 82 -10 101 -10 60z"/>
<path d="M2247 1014 c-4 -4 -7 -12 -7 -18 0 -6 5 -4 10 4 7 11 12 12 21 3 14
-14 2 -36 -17 -29 -8 3 -14 1 -14 -4 0 -6 -9 -10 -19 -10 -15 0 -18 -5 -13
-22 4 -17 2 -20 -12 -15 -12 5 -16 3 -14 -5 4 -10 58 -32 58 -23 0 2 -4 15
-10 29 -5 15 -6 26 0 26 5 0 12 -9 15 -20 9 -28 24 -25 18 3 -5 20 -3 20 26
-8 30 -28 33 -29 45 -12 15 20 33 22 39 5 2 -7 3 0 1 16 -3 17 -12 41 -22 55
l-17 26 -3 -35 c-5 -59 -10 -65 -32 -45 -13 12 -19 28 -17 49 2 29 -19 47 -36
30z m113 -67 c0 -5 -4 -5 -10 -2 -5 3 -10 14 -10 23 0 15 2 15 10 2 5 -8 10
-19 10 -23z"/>
<path d="M2397 1004 c-11 -12 -8 -82 4 -90 6 -3 18 1 27 9 12 12 13 23 6 48
-9 32 -24 45 -37 33z m25 -34 c3 -25 2 -30 -6 -32 -5 -2 -11 7 -12 20 -2 12 1
22 6 22 6 0 11 -4 12 -10z"/>
<path d="M2467 1003 c-4 -3 -7 -26 -7 -50 0 -46 20 -67 43 -43 9 9 8 11 -7 8
-28 -5 -30 17 -4 30 20 10 20 11 3 9 -28 -3 -30 27 -3 41 22 10 22 11 2 11
-11 1 -24 -2 -27 -6z"/>
<path d="M2541 935 c1 -22 3 -32 6 -22 5 18 6 18 24 1 25 -22 29 -17 19 26 -4
19 -8 27 -9 18 -1 -10 -5 -18 -11 -18 -5 0 -14 8 -19 18 -8 13 -10 9 -10 -23z"/>
<path d="M2633 943 c9 -2 25 -2 35 0 9 3 1 5 -18 5 -19 0 -27 -2 -17 -5z"/>
<path d="M2212 843 l-10 -28 -10 25 c-6 14 -11 19 -11 12 -1 -7 6 -29 16 -50
l16 -37 8 50 c9 57 5 69 -9 28z"/>
<path d="M2257 857 c-15 -11 -16 -26 -8 -79 2 -12 29 -9 37 4 5 8 2 9 -9 5
-11 -4 -17 -1 -17 7 0 8 6 17 13 19 10 4 10 6 0 6 -7 1 -13 7 -13 15 0 8 6 16
13 19 6 2 9 7 6 11 -3 3 -13 0 -22 -7z"/>
<path d="M2312 848 c-15 -15 -16 -88 -2 -88 6 0 8 11 4 27 l-7 27 34 -24 c19
-13 37 -29 41 -34 7 -11 47 31 48 51 0 14 -27 43 -41 43 -5 0 -9 -16 -9 -35 0
-19 -4 -35 -10 -35 -10 0 -13 9 -14 50 -1 27 -25 37 -44 18z m28 -8 c0 -5 -4
-10 -10 -10 -5 0 -10 5 -10 10 0 6 5 10 10 10 6 0 10 -4 10 -10z m73 -16 c8
-8 -3 -34 -14 -34 -5 0 -9 9 -9 20 0 19 11 26 23 14z"/>
<path d="M2445 849 c-4 -6 -4 -26 -1 -45 5 -25 12 -34 26 -34 11 0 20 4 20 10
0 5 -7 7 -15 4 -18 -7 -20 7 -2 25 8 10 8 12 0 7 -20 -11 -27 16 -8 31 16 11
17 13 3 13 -9 0 -20 -5 -23 -11z"/>
<path d="M2611 835 c-1 -29 29 -62 47 -51 11 7 2 76 -9 76 -5 0 -6 -12 -3 -26
9 -35 -17 -28 -27 7 -7 22 -7 22 -8 -6z"/>
<path d="M2514 810 c1 -31 4 -35 25 -32 13 1 30 -6 38 -15 14 -17 14 -17 9 0
-3 10 -6 23 -6 28 0 4 -13 6 -29 3 -26 -6 -30 -3 -34 22 -4 24 -5 22 -3 -6z"/>
<path d="M2683 795 c2 -25 6 -30 30 -32 24 -2 27 1 22 18 -5 14 0 22 17 28 22
9 22 10 -5 10 -21 1 -30 -5 -34 -19 -7 -27 -20 -25 -26 3 -4 15 -5 12 -4 -8z"/>
<path d="M1670 789 c0 -5 11 -9 25 -9 14 0 25 2 25 4 0 2 -11 6 -25 8 -14 3
-25 1 -25 -3z"/>
<path d="M2600 780 c0 -5 5 -10 10 -10 6 0 10 5 10 10 0 6 -4 10 -10 10 -5 0
-10 -4 -10 -10z"/>
<path d="M713 773 c9 -2 23 -2 30 0 6 3 -1 5 -18 5 -16 0 -22 -2 -12 -5z"/>
<path d="M2820 716 c0 -4 7 -18 16 -32 12 -18 15 -38 11 -72 -5 -42 -4 -44 5
-15 12 38 3 96 -17 113 -8 7 -15 9 -15 6z"/>
<path d="M2212 655 c2 -30 -1 -40 -14 -43 -9 -2 -18 5 -21 15 -4 14 -5 13 -6
-5 0 -12 6 -25 14 -28 20 -8 45 13 46 40 0 21 0 21 16 -1 17 -25 58 -31 67
-10 5 10 7 10 12 0 12 -26 26 -13 19 17 -4 19 -3 30 4 30 10 0 16 -21 12 -42
0 -5 4 -8 9 -8 6 0 10 8 10 18 1 11 6 6 15 -13 8 -16 13 -21 10 -10 -15 68
-16 70 -45 72 -23 2 -30 -3 -38 -25 l-9 -27 -7 28 c-8 32 -31 31 -31 0 0 -33
-10 -35 -25 -7 -12 21 -12 27 -1 34 10 5 5 8 -13 7 -25 -2 -27 -5 -24 -42z
m85 -17 c-3 -8 -6 -5 -6 6 -1 11 2 17 5 13 3 -3 4 -12 1 -19z"/>
<path d="M2430 685 c-8 -9 -9 -29 -5 -57 11 -64 24 -81 25 -31 0 23 4 44 9 47
10 7 3 43 -9 51 -4 3 -13 -2 -20 -10z m17 -27 c-3 -8 -6 -5 -6 6 -1 11 2 17 5
13 3 -3 4 -12 1 -19z"/>
<path d="M2607 693 c-11 -11 -8 -71 4 -79 9 -5 10 3 5 29 -5 28 -3 38 11 46
15 9 15 10 2 11 -9 0 -19 -3 -22 -7z"/>
<path d="M2769 684 c-10 -13 -10 -19 0 -36 10 -17 10 -22 0 -29 -8 -4 -10 -11
-6 -15 3 -4 13 -1 22 6 13 11 13 15 0 33 -19 28 -19 35 3 39 11 2 13 6 6 11
-7 4 -18 0 -25 -9z"/>
<path d="M2171 674 c0 -11 3 -14 6 -6 3 7 2 16 -1 19 -3 4 -6 -2 -5 -13z"/>
<path d="M2487 676 c-4 -10 -1 -13 9 -9 9 3 14 -2 14 -17 0 -16 -4 -20 -15
-16 -9 3 -15 0 -15 -9 0 -9 9 -14 23 -14 12 1 29 -1 38 -5 27 -12 44 19 29 54
-7 16 -16 27 -21 24 -15 -9 -10 -34 7 -34 9 0 14 -6 12 -12 -3 -7 -13 -13 -24
-13 -13 0 -20 9 -24 29 -6 33 -24 45 -33 22z"/>
<path d="M2652 654 c3 -34 5 -37 41 -40 32 -3 37 0 37 17 0 11 -5 29 -11 41
-10 19 -12 18 -35 -13 -22 -30 -24 -31 -24 -10 0 12 4 19 10 16 6 -3 10 1 10
9 0 9 -7 16 -16 16 -11 0 -14 -9 -12 -36z m68 -9 c0 -8 -4 -15 -10 -15 -5 0
-10 7 -10 15 0 8 5 15 10 15 6 0 10 -7 10 -15z"/>
<path d="M304 538 c3 -13 6 -41 7 -63 0 -30 2 -35 8 -20 8 19 8 19 20 -3 14
-25 58 -30 67 -7 8 20 -1 55 -20 80 -15 19 -15 19 -16 -7 0 -17 5 -27 12 -25
7 1 14 -8 16 -19 2 -17 -2 -21 -22 -21 -20 0 -28 8 -40 38 -9 22 -16 46 -16
54 0 8 -5 15 -11 15 -7 0 -9 -9 -5 -22z"/>
<path d="M337 543 c-4 -3 -7 -11 -7 -17 0 -6 5 -5 12 2 6 6 9 14 7 17 -3 3 -9
2 -12 -2z"/>
<path d="M454 535 c-4 -10 -13 -13 -27 -9 -16 5 -19 3 -14 -11 4 -9 7 -30 7
-46 0 -16 5 -29 11 -29 6 0 8 9 4 20 -5 14 -2 20 9 20 9 0 16 9 16 21 0 11 5
17 10 14 6 -3 10 -22 10 -41 0 -19 4 -34 10 -34 9 0 7 23 -6 88 -5 25 -22 29
-30 7z"/>
<path d="M510 486 c0 -31 5 -58 12 -62 8 -5 9 0 5 17 -4 14 0 30 9 40 19 22
15 53 -9 57 -14 3 -17 -5 -17 -52z m17 12 c-3 -8 -6 -5 -6 6 -1 11 2 17 5 13
3 -3 4 -12 1 -19z"/>
<path d="M629 519 c-11 -21 -6 -30 26 -43 6 -2 5 -12 -3 -26 -11 -18 -11 -21
0 -18 20 7 22 37 4 57 -9 10 -14 25 -10 35 9 23 -3 20 -17 -5z"/>
<path d="M703 533 c-16 -6 -18 -113 -3 -113 6 0 8 11 4 25 -7 29 2 32 28 8 10
-9 28 -18 39 -20 17 -3 19 1 13 40 -9 54 -14 60 -14 14 0 -20 -4 -37 -9 -37
-12 0 -24 29 -25 59 -1 25 -12 33 -33 24z m17 -23 c0 -5 -4 -10 -10 -10 -5 0
-10 5 -10 10 0 6 5 10 10 10 6 0 10 -4 10 -10z"/>
<path d="M577 515 c-15 -50 -18 -93 -8 -99 7 -4 11 1 11 13 0 32 19 35 31 4 6
-15 13 -23 15 -17 3 6 -6 35 -19 64 -19 43 -25 50 -30 35z"/>
<path d="M820 530 c-1 -3 -4 -27 -6 -54 -4 -45 -3 -48 16 -43 11 3 23 1 26 -4
21 -35 32 28 13 81 -7 20 -8 17 -6 -17 1 -24 0 -43 -4 -43 -13 0 -27 25 -32
55 -2 17 -5 28 -7 25z"/>
<path d="M901 488 c-1 -10 4 -18 9 -18 6 0 10 -5 10 -11 0 -5 -4 -7 -10 -4 -5
3 -10 2 -10 -4 0 -5 14 -16 30 -25 31 -15 37 -8 20 25 -9 16 -7 21 12 29 20 9
18 10 -14 7 -21 -2 -40 2 -42 8 -2 5 -5 2 -5 -7z"/>
<path d="M1627 402 c-16 -15 -19 -15 -27 -2 -7 10 -10 -2 -10 -42 0 -32 4 -58
8 -58 5 0 7 14 4 30 -6 39 6 38 40 -2 14 -18 30 -30 33 -26 4 4 -4 21 -19 38
-28 34 -33 56 -13 63 6 2 9 7 6 10 -3 4 -13 -1 -22 -11z"/>
<path d="M1897 396 c-3 -8 -4 -22 -2 -33 16 -80 14 -77 35 -58 25 23 26 67 2
88 -23 21 -28 21 -35 3z m41 -50 c-5 -33 -23 -24 -26 13 -3 31 -2 33 13 21 9
-7 15 -23 13 -34z"/>
<path d="M1680 367 c0 -38 22 -73 38 -63 16 9 15 69 0 84 -22 22 -38 13 -38
-21z m34 -2 c8 -31 -2 -54 -15 -34 -11 18 -11 59 0 59 5 0 12 -11 15 -25z"/>
<path d="M1740 362 c0 -35 22 -72 43 -72 11 0 8 69 -3 91 -19 34 -40 23 -40
-19z m38 -20 c2 -18 -1 -32 -6 -32 -12 0 -22 24 -22 52 0 32 25 15 28 -20z"/>
<path d="M1811 353 c1 -26 4 -37 6 -24 5 23 5 23 39 -10 35 -34 48 -31 17 3
-9 11 -17 31 -18 46 0 20 -6 28 -22 30 -21 3 -23 0 -22 -45z"/>
<path d="M2050 391 c-11 -7 -14 -22 -12 -55 4 -41 7 -46 27 -46 13 0 27 5 30
10 4 6 -5 10 -19 10 -14 0 -26 5 -26 10 0 6 7 10 15 10 8 0 15 5 15 10 0 6 -7
10 -16 10 -23 0 -11 24 14 28 12 2 20 8 17 13 -8 11 -25 11 -45 0z"/>
<path d="M1380 360 c-10 -7 12 -10 72 -10 48 0 90 5 93 10 8 13 -145 13 -165
0z"/>
<path d="M2001 342 c-1 -24 -7 -35 -23 -42 l-23 -9 22 0 c24 -1 39 31 30 66
-3 10 -5 4 -6 -15z"/>
</g>
</svg>
