<?xml version="1.0" standalone="no"?>
<!DOCTYPE svg PUBLIC "-//W3C//DTD SVG 20010904//EN"
 "http://www.w3.org/TR/2001/REC-SVG-20010904/DTD/svg10.dtd">
<svg version="1.0" xmlns="http://www.w3.org/2000/svg"
 width="468pt" height="238pt" viewBox="0 0 468 238"
 preserveAspectRatio="xMidYMid meet">
<metadata>
Created by potrace 1.8, written by Peter Selinger 2001-2007
</metadata>
<g transform="translate(0,238) scale(0.078000,-0.078000)"
fill="#000000" stroke="none">
<path d="M2555 3020 c-3 -5 -1 -10 4 -10 6 0 11 5 11 10 0 6 -2 10 -4 10 -3 0
-8 -4 -11 -10z"/>
<path d="M2479 2970 c-13 -36 -26 -39 -32 -7 -3 17 -5 15 -6 -9 -1 -36 17 -94
30 -94 5 0 9 17 9 38 1 20 7 48 15 62 17 30 18 40 4 40 -5 0 -15 -13 -20 -30z"/>
<path d="M3972 2978 c-18 -18 -15 -32 13 -58 30 -28 32 -50 5 -50 -11 0 -20
-4 -20 -10 0 -17 49 -11 59 8 7 13 2 25 -20 52 -33 39 -24 67 12 34 21 -19 21
-19 18 6 -4 28 -45 40 -67 18z"/>
<path d="M3013 2970 c-13 -5 -23 -11 -23 -12 -10 -79 -11 -118 -1 -118 6 0 11
9 11 21 0 16 4 19 23 13 12 -3 29 -13 38 -20 20 -18 39 -18 39 0 0 7 -13 19
-30 26 -34 14 -37 22 -15 40 19 16 16 54 -5 57 -8 1 -25 -2 -37 -7z m47 -17
c0 -12 -33 -43 -47 -43 -13 0 -18 31 -6 43 8 9 53 9 53 0z"/>
<path d="M3825 2963 c-3 -10 -1 -19 4 -21 6 -2 11 -11 11 -19 0 -11 -3 -13
-13 -5 -8 7 -17 7 -29 -2 -13 -9 -15 -20 -9 -46 8 -35 8 -35 15 -8 7 25 40 43
58 32 4 -3 8 -14 8 -24 0 -20 16 -35 23 -23 5 8 -49 133 -57 133 -2 0 -7 -8
-11 -17z"/>
<path d="M2625 2960 c-32 -8 -25 -13 13 -10 28 2 29 -19 2 -53 -11 -14 -20
-30 -20 -36 0 -12 41 -24 65 -19 27 5 22 23 -7 26 -34 4 -35 10 -3 56 14 20
25 39 25 41 0 7 -40 4 -75 -5z"/>
<path d="M3227 2959 c-10 -6 -25 -8 -33 -5 -11 4 -14 -6 -14 -54 0 -36 4 -60
11 -60 7 0 8 11 4 30 -9 41 7 38 43 -7 17 -21 34 -35 38 -31 4 4 -9 28 -29 54
l-36 46 22 19 c24 20 22 24 -6 8z"/>
<path d="M3685 2948 c-11 -53 -9 -98 5 -98 6 0 10 13 10 29 0 20 8 35 27 49
30 22 24 42 -12 42 -17 0 -26 -7 -30 -22z m45 3 c0 -12 -20 -25 -27 -18 -7 7
6 27 18 27 5 0 9 -4 9 -9z"/>
<path d="M2540 2902 c0 -35 4 -62 10 -62 6 0 8 21 4 58 -9 77 -14 78 -14 4z"/>
<path d="M2847 2953 c-4 -3 -7 -33 -7 -66 l0 -59 31 6 c17 3 38 6 45 6 8 0 14
5 14 10 0 6 -18 10 -40 10 -49 0 -57 27 -10 37 17 3 33 10 36 15 4 6 -5 8 -25
3 -43 -9 -42 19 2 33 l32 10 -36 1 c-20 1 -39 -2 -42 -6z"/>
<path d="M3330 2918 c-13 -46 -1 -88 24 -88 28 0 39 87 15 116 -19 23 -28 17
-39 -28z m38 -25 c-2 -21 -7 -38 -13 -38 -5 0 -11 17 -13 38 -3 29 0 37 13 37
13 0 16 -8 13 -37z"/>
<path d="M3528 2941 c-23 -19 -27 -19 -48 -4 -28 20 -37 8 -34 -44 1 -21 3
-44 3 -50 1 -7 6 -13 11 -13 6 0 8 16 4 41 l-7 40 36 -6 c28 -6 37 -3 46 12 9
15 10 13 11 -17 0 -43 10 -80 20 -80 9 0 1 122 -9 133 -4 4 -19 -1 -33 -12z"/>
<path d="M2757 2911 c-5 -41 1 -91 12 -91 3 0 6 29 6 65 0 72 -10 86 -18 26z"/>
<path d="M3888 2693 c-2 -5 -1 -30 3 -58 3 -27 7 -41 7 -29 1 11 7 25 14 32 9
9 9 12 0 12 -22 0 -13 38 11 43 19 4 19 4 -5 6 -15 0 -28 -2 -30 -6z"/>
<path d="M3820 2672 c0 -13 -7 -37 -16 -53 -8 -17 -13 -36 -11 -42 3 -7 10 1
16 16 11 28 31 29 31 2 0 -8 4 -17 10 -20 12 -7 2 47 -16 90 -12 27 -13 28
-14 7z"/>
<path d="M4022 2677 c-6 -6 -12 -28 -14 -47 -3 -37 -32 -54 -50 -28 -7 10 -8
8 -6 -7 3 -17 12 -19 80 -20 43 -1 83 2 90 7 8 5 2 6 -14 2 -21 -5 -28 -2 -28
9 0 9 8 21 18 26 9 6 11 11 5 11 -19 0 -16 31 5 47 16 13 16 14 -3 11 -14 -2
-21 -13 -25 -38 -8 -47 -17 -60 -41 -60 -23 0 -25 25 -3 38 14 8 14 10 -2 16
-17 7 -17 9 6 26 19 15 21 20 9 20 -9 0 -21 -6 -27 -13z"/>
<path d="M4236 2678 c-12 -36 -15 -97 -6 -103 5 -3 10 3 10 15 0 11 9 31 20
43 11 12 19 28 18 37 -4 19 -37 26 -42 8z m24 -28 c-6 -11 -13 -20 -15 -20 -3
0 -5 9 -5 20 0 11 7 20 15 20 13 0 14 -4 5 -20z"/>
<path d="M4477 2683 c-2 -5 -1 -35 3 -68 l7 -60 2 51 c1 49 3 52 31 58 17 3
30 10 30 16 0 11 -67 14 -73 3z"/>
<path d="M3962 2655 c0 -16 2 -22 5 -12 2 9 2 23 0 30 -3 6 -5 -1 -5 -18z"/>
<path d="M4160 2665 c-10 -13 -10 -19 5 -35 17 -19 15 -50 -5 -50 -5 0 -10 -5
-10 -10 0 -7 6 -7 20 0 25 13 26 55 3 69 -17 10 -17 12 1 26 11 8 15 15 9 15
-6 0 -16 -7 -23 -15z"/>
<path d="M4330 2635 c-13 -40 -27 -45 -33 -12 -4 19 -4 19 -5 2 -2 -29 9 -42
43 -51 27 -7 29 -6 16 9 -9 11 -12 30 -8 52 7 45 2 45 -13 0z"/>
<path d="M4388 2664 c-12 -20 -18 -84 -9 -84 5 0 11 12 13 28 l4 27 14 -27
c20 -41 30 -34 29 20 -1 40 -2 43 -8 17 l-7 -30 -15 29 c-9 16 -18 25 -21 20z"/>
<path d="M1363 2578 c-16 -21 -24 -78 -13 -99 6 -11 21 -19 36 -19 20 0 25 4
22 22 -2 11 3 23 10 25 7 3 12 -5 13 -19 1 -17 3 -18 6 -5 5 20 19 22 30 4 4
-8 16 -16 26 -20 13 -5 17 -1 17 19 0 31 28 44 45 21 7 -10 17 -17 24 -17 6 0
11 -4 11 -10 0 -21 18 -9 30 20 15 36 30 39 30 6 0 -35 22 -49 46 -30 18 15
18 15 -3 9 -17 -5 -23 -2 -23 9 0 9 5 16 10 16 6 0 10 4 10 10 0 5 -7 7 -15 4
-24 -9 -18 21 8 40 l22 17 -25 -8 c-28 -8 -57 -9 -80 -2 -11 3 -14 -4 -11 -28
3 -43 -14 -42 -40 2 -12 19 -25 35 -29 35 -5 0 -11 -18 -15 -40 -4 -22 -10
-40 -15 -40 -16 0 -29 27 -23 48 4 18 1 22 -16 22 -14 0 -21 -6 -21 -19 0 -13
-8 -21 -22 -23 -17 -2 -22 -9 -20 -25 4 -27 -12 -37 -28 -18 -10 12 -9 24 2
60 16 48 16 52 1 33z m177 -38 c0 -5 -4 -10 -10 -10 -5 0 -10 5 -10 10 0 6 5
10 10 10 6 0 10 -4 10 -10z m80 1 c0 -6 -4 -13 -10 -16 -5 -3 -10 1 -10 9 0 9
5 16 10 16 6 0 10 -4 10 -9z"/>
<path d="M2355 2563 c8 -40 -11 -53 -27 -18 -11 24 -13 25 -19 8 -12 -28 -10
-71 2 -79 8 -5 10 1 7 20 -6 31 5 34 26 5 8 -12 19 -18 25 -15 11 7 4 72 -11
96 -6 10 -7 4 -3 -17z"/>
<path d="M2837 2536 c-5 -40 -4 -63 4 -70 8 -8 9 -5 5 11 -4 13 -3 31 3 40 9
16 12 14 23 -15 13 -34 51 -53 70 -34 16 16 22 88 8 97 -16 10 -40 -21 -40
-52 0 -31 -12 -29 -27 3 -9 20 -9 32 -1 48 9 17 8 19 -3 9 -18 -18 -27 -16
-31 5 -2 9 -7 -10 -11 -42z m105 -21 c-2 -14 -8 -25 -13 -25 -10 0 -12 21 -3
44 9 24 22 10 16 -19z"/>
<path d="M3097 2583 c-3 -4 -8 -26 -11 -48 -11 -67 -26 -77 -26 -17 0 57 -9
64 -33 30 l-16 -23 0 23 c-1 28 -21 19 -21 -9 0 -25 21 -47 38 -41 7 2 12 -5
12 -17 0 -16 6 -21 25 -21 20 0 25 5 25 23 0 13 9 32 20 42 12 11 20 28 18 39
-3 20 -23 33 -31 19z m23 -17 c0 -3 -4 -8 -10 -11 -5 -3 -10 -1 -10 4 0 6 5
11 10 11 6 0 10 -2 10 -4z"/>
<path d="M1854 2558 c-6 -21 -7 -21 -20 -3 -8 10 -16 16 -19 13 -6 -6 37 -88
48 -88 4 0 7 23 7 50 0 54 -5 63 -16 28z"/>
<path d="M1988 2568 c17 -17 15 -31 -3 -24 -12 4 -15 -3 -15 -34 0 -21 5 -42
12 -46 8 -5 9 0 6 14 -8 30 6 36 27 12 28 -31 60 -26 76 12 l13 31 9 -26 c7
-21 15 -27 38 -27 16 0 29 4 29 10 0 5 -10 9 -21 7 -12 -1 -24 4 -26 11 -3 6
3 12 14 13 15 0 14 2 -4 9 -13 5 -23 12 -23 15 0 3 10 10 23 15 21 8 21 9 -5
9 -14 1 -29 -5 -31 -11 -4 -10 -8 -10 -15 0 -5 8 -18 12 -28 10 -15 -3 -18
-11 -16 -41 2 -20 -1 -37 -6 -37 -15 0 -34 28 -27 40 10 16 -5 50 -23 50 -12
0 -13 -3 -4 -12z m95 -24 c8 -8 -3 -34 -14 -34 -5 0 -9 9 -9 20 0 19 11 26 23
14z"/>
<path d="M2406 2549 c-17 -34 -21 -65 -8 -72 4 -2 20 -7 35 -11 24 -6 28 -4
25 13 -2 11 6 27 17 36 18 15 18 16 2 11 -10 -3 -24 -6 -32 -6 -7 0 -15 -10
-19 -22 -4 -17 -8 -20 -16 -12 -8 8 -7 22 4 49 20 47 14 58 -8 14z"/>
<path d="M3215 2560 c-18 -20 -18 -21 3 -36 30 -21 30 -56 0 -52 -19 2 -25 12
-32 51 -4 26 -11 47 -15 47 -10 0 -41 -67 -40 -88 0 -13 3 -11 9 5 11 27 40
21 40 -8 0 -15 7 -19 35 -19 33 0 35 2 35 34 0 22 -6 36 -16 40 -15 6 -15 8 1
26 10 11 14 20 8 20 -5 0 -18 -9 -28 -20z"/>
<path d="M1781 2548 c-1 -33 -16 -36 -31 -8 -18 33 -30 23 -30 -25 0 -25 4
-45 10 -45 5 0 7 13 4 30 -8 37 4 38 32 3 29 -36 36 -28 25 28 -6 31 -9 36
-10 17z"/>
<path d="M1897 2563 c-11 -11 -8 -58 6 -76 8 -11 20 -15 35 -11 30 9 28 22 -3
16 -31 -6 -33 11 -2 26 l22 11 -22 0 c-14 1 -23 7 -23 17 0 11 6 15 20 11 11
-3 20 -1 20 4 0 10 -43 12 -53 2z"/>
<path d="M2198 2564 c-10 -9 -10 -66 0 -79 4 -5 23 -10 43 -11 l36 0 -11 40
c-9 35 -11 37 -14 16 -4 -23 -17 -39 -34 -40 -4 0 -8 18 -10 41 -2 22 -6 37
-10 33z"/>
<path d="M3583 2553 c-7 -3 -15 -20 -19 -39 -5 -28 -11 -34 -31 -34 -23 0 -25
3 -19 32 4 20 3 29 -3 23 -5 -6 -12 -25 -16 -42 l-7 -33 50 0 c55 0 82 20 82
62 0 26 -15 39 -37 31z m21 -46 c-3 -9 -13 -17 -21 -17 -8 0 -12 3 -10 8 2 4
7 16 11 26 4 13 10 16 17 9 5 -5 7 -17 3 -26z"/>
<path d="M3286 2525 c-4 -17 -9 -38 -12 -47 -3 -10 -1 -18 5 -18 6 0 11 7 11
15 0 8 5 15 10 15 6 0 10 -7 10 -16 0 -9 6 -14 13 -12 13 5 28 88 15 88 -4 0
-8 -9 -8 -19 0 -32 -17 -34 -27 -4 l-10 28 -7 -30z"/>
<path d="M3441 2527 c-6 -16 -11 -33 -11 -38 0 -19 -16 -8 -28 21 -18 41 -29
38 -42 -11 -12 -42 -7 -67 5 -30 8 26 23 27 42 4 10 -13 16 -15 19 -5 9 19 30
14 42 -10 15 -32 14 -12 -2 47 l-13 50 -12 -28z"/>
<path d="M2982 2480 c0 -14 2 -19 5 -12 2 6 2 18 0 25 -3 6 -5 1 -5 -13z"/>
<path d="M3860 2480 c-12 -8 -9 -10 13 -10 33 0 34 -10 6 -36 -26 -23 -133
-161 -178 -228 -37 -55 -97 -174 -131 -258 l-24 -58 -70 -2 c-82 -1 -72 -2
-196 13 -52 7 -100 16 -107 21 -7 6 -14 42 -16 86 l-3 77 -2 -81 -2 -81 -114
-6 c-63 -4 -125 -12 -138 -17 l-23 -11 25 6 c14 2 76 8 138 11 106 7 112 6
112 -12 0 -15 2 -16 9 -5 8 13 25 13 104 5 94 -10 128 -23 218 -79 37 -24 41
-30 35 -58 -3 -17 -8 -33 -11 -35 -2 -3 -26 9 -52 26 -26 16 -59 33 -73 36
-14 3 -7 -2 15 -13 50 -24 123 -86 112 -97 -4 -5 -18 -2 -30 6 -32 20 -95 50
-104 50 -4 -1 10 -10 32 -22 79 -42 105 -67 106 -107 1 -31 2 -33 8 -11 7 25
8 24 39 -19 32 -44 66 -136 57 -151 -3 -5 -19 -11 -35 -15 -41 -9 -38 -21 12
-37 39 -13 44 -19 49 -54 8 -43 -16 -155 -46 -217 -10 -21 -50 -70 -89 -110
-131 -134 -284 -183 -488 -157 -93 12 -228 61 -228 83 0 6 17 33 38 61 21 28
44 61 51 74 6 12 19 22 27 22 11 0 14 6 10 16 -3 9 -6 23 -6 32 -1 11 -6 8
-16 -10 -18 -34 -44 -37 -44 -6 0 15 25 46 77 94 75 71 77 72 100 56 27 -21
28 -29 6 -56 -10 -12 -4 -9 13 7 28 26 84 38 84 18 0 -5 20 -33 45 -63 25 -30
45 -60 45 -66 0 -6 -20 -26 -45 -44 -24 -18 -44 -37 -45 -41 0 -5 23 10 52 32
35 29 55 38 62 31 16 -16 30 -12 15 6 -11 13 -6 21 32 54 53 47 44 53 -13 7
l-40 -32 -44 50 c-52 60 -63 84 -40 97 9 5 23 22 31 38 15 30 128 143 148 148
7 2 22 16 34 32 21 25 21 28 4 23 -13 -3 -20 2 -24 16 -5 19 -10 21 -49 15
-23 -4 -45 -12 -47 -18 -2 -6 -22 -28 -45 -49 -31 -29 -47 -37 -66 -33 -14 3
-44 -4 -69 -16 l-43 -21 -24 29 c-48 58 -48 59 11 100 30 20 55 41 55 45 0 5
-26 -9 -57 -30 -35 -24 -62 -36 -67 -30 -18 16 -27 9 -20 -15 5 -21 -2 -30
-55 -65 -33 -22 -63 -46 -67 -52 -6 -11 56 27 112 68 l31 23 24 -28 c50 -55
51 -57 38 -106 -11 -46 -13 -48 -150 -171 -29 -26 -36 -38 -32 -59 3 -14 12
-26 19 -26 8 0 14 -6 14 -14 0 -16 -78 -136 -88 -136 -4 0 -25 16 -47 34 l-40
34 35 15 c38 16 51 14 32 -5 -7 -7 -12 -17 -12 -22 0 -6 9 0 19 13 17 23 18
26 2 42 -20 22 -58 15 -66 -12 -10 -29 -23 -23 -46 23 -61 120 -80 238 -54
337 19 73 50 141 65 141 6 0 16 12 22 28 7 15 23 36 35 47 13 11 23 26 23 32
0 6 10 15 23 19 12 4 29 15 38 25 9 11 21 19 28 19 6 0 11 5 11 11 0 5 5 7 10
4 6 -3 10 -1 10 4 0 6 5 11 10 11 5 0 19 9 30 20 11 11 28 20 39 20 16 0 17
-5 10 -42 -12 -61 -11 -68 6 -68 10 0 15 10 16 28 0 76 4 92 24 99 24 8 145 7
153 -2 4 -3 12 -67 18 -141 7 -75 15 -138 18 -141 13 -13 15 5 6 38 -17 57
-12 119 9 137 27 24 37 62 17 62 -11 0 -16 -9 -16 -30 0 -19 -5 -30 -14 -30
-10 0 -15 15 -18 50 -3 49 -3 50 27 52 29 1 29 1 3 5 -28 4 -45 30 -29 46 10
10 3 47 -10 47 -5 0 -9 -19 -9 -41 l0 -42 -47 6 c-69 8 -148 -9 -230 -50 -40
-20 -75 -35 -77 -32 -2 2 -6 13 -8 24 -2 15 7 25 39 40 24 11 43 23 43 28 0 4
-12 1 -27 -6 -60 -31 -71 -30 -88 3 l-16 31 48 20 c26 11 57 24 68 29 13 6 7
7 -20 3 -22 -3 -48 -12 -59 -19 -29 -20 -57 0 -94 67 -18 32 -35 59 -38 59 -3
0 8 -24 25 -54 17 -29 31 -58 31 -64 0 -14 -112 -5 -227 18 -93 19 -210 66
-239 94 -36 37 -36 38 -19 -219 3 -38 8 -121 11 -182 l6 -113 -35 0 c-31 0
-35 3 -41 33 -3 18 -8 100 -11 182 -2 83 -7 194 -11 248 -7 103 -7 102 41 97
11 -1 23 -7 27 -14 5 -6 8 -2 8 12 0 19 -5 22 -44 22 l-45 0 -7 -45 c-3 -25
-2 -57 4 -73 6 -15 13 -123 16 -240 3 -124 9 -219 15 -226 6 -7 14 -30 19 -51
l8 -38 69 2 c39 1 74 6 79 11 5 6 5 22 0 42 -8 27 -15 34 -41 36 -39 4 -40 10
-48 182 -3 69 -8 150 -10 180 -4 41 -2 49 5 32 9 -20 30 -260 30 -341 0 -20 4
-31 9 -25 8 9 1 127 -20 316 -15 140 -13 145 48 115 77 -38 258 -77 361 -77
34 0 62 -4 62 -9 0 -5 -14 -20 -32 -32 -57 -41 -135 -123 -170 -179 -109 -175
-123 -321 -51 -538 14 -42 33 -86 43 -97 10 -11 21 -30 25 -42 3 -13 38 -51
76 -85 38 -34 69 -65 69 -70 0 -4 -28 -34 -62 -67 -48 -47 -67 -59 -87 -57
-14 2 -18 1 -8 -1 26 -6 20 -16 -48 -73 -44 -37 -67 -50 -91 -50 -18 0 -36 -4
-39 -10 -3 -6 1 -7 9 -4 9 3 16 2 16 -4 0 -6 -42 -31 -93 -56 -90 -45 -124
-56 -112 -36 10 16 -8 11 -34 -11 -27 -23 -24 -28 26 -45 43 -15 55 -10 27 10
-18 14 -15 16 41 41 33 15 89 44 126 65 54 32 73 38 101 34 l35 -6 16 -107 c9
-58 19 -129 23 -158 3 -28 12 -60 21 -70 14 -17 14 -17 8 2 -6 19 -22 113 -45
265 -5 35 -7 67 -4 70 3 3 69 7 147 11 l142 5 -179 2 -179 2 59 55 c51 47 63
54 89 49 28 -6 29 -5 11 9 -19 14 -17 17 39 71 l58 58 76 -36 c42 -19 105 -43
141 -52 86 -22 279 -23 377 -1 81 18 200 74 250 117 64 56 155 164 193 229 36
62 39 74 50 192 14 139 5 193 -46 289 -13 24 -24 48 -24 51 0 18 -87 133 -126
167 -44 40 -51 59 -38 110 5 16 14 22 33 22 14 0 59 7 100 15 41 9 80 14 86
11 8 -3 15 -40 20 -102 4 -53 16 -142 27 -198 11 -56 21 -130 23 -166 3 -79
31 -279 40 -288 7 -7 0 64 -16 167 -6 35 -6 67 -2 71 13 12 93 19 99 9 4 -6
10 -6 18 0 7 6 68 12 137 14 l124 3 -137 2 c-90 1 -138 6 -138 13 0 6 -7 3
-16 -5 -20 -20 -104 -22 -104 -3 0 15 41 37 70 37 10 0 21 8 23 18 3 12 5 10
7 -8 2 -18 5 -14 9 15 l6 40 115 5 115 5 -175 5 -175 5 -13 60 c-6 33 -19 130
-27 215 -8 85 -18 166 -21 180 -6 22 -8 19 -21 -25 -13 -41 -17 -46 -23 -30
-7 19 -8 18 -11 -4 -3 -21 -13 -27 -59 -37 -76 -18 -90 -17 -90 5 0 10 34 86
75 169 59 116 94 171 158 247 88 106 107 120 108 83 0 -15 5 -8 15 22 7 25 14
48 14 53 0 10 -62 8 -80 -3z m-1630 -531 c0 -11 -4 -17 -10 -14 -5 3 -10 13
-10 21 0 8 5 14 10 14 6 0 10 -9 10 -21z m1302 -104 c-2 -16 -6 -32 -8 -34 -6
-6 -94 41 -94 51 0 9 37 16 75 14 27 -1 30 -4 27 -31z m-783 -57 c14 -24 12
-27 -59 -99 -159 -160 -214 -312 -175 -476 36 -149 63 -203 141 -281 63 -63
72 -77 63 -93 -13 -24 -22 -24 -62 3 -60 40 -142 151 -169 229 -38 106 -43
138 -43 254 0 133 10 171 74 280 36 61 188 218 206 212 5 -2 16 -15 24 -29z
m847 -70 c63 -66 91 -111 137 -219 33 -77 37 -95 36 -170 0 -46 -6 -118 -13
-161 -10 -64 -20 -88 -60 -148 -27 -40 -82 -105 -122 -146 -82 -83 -172 -132
-293 -160 -85 -20 -256 -20 -352 -1 -77 16 -201 67 -215 88 -3 6 3 20 14 31
l20 20 44 -26 c72 -42 187 -66 308 -64 l105 2 -115 6 c-141 8 -201 21 -274 57
-57 28 -65 40 -44 61 9 9 24 5 64 -17 62 -36 177 -61 275 -61 222 0 426 127
514 320 26 58 29 76 29 165 1 92 -2 107 -33 184 -19 46 -49 101 -68 123 -33
40 -41 58 -24 58 8 0 99 -101 115 -128 10 -17 46 -237 46 -284 0 -43 -41 -162
-64 -186 -9 -9 -45 -52 -82 -94 -71 -84 -162 -151 -226 -169 -22 -5 -38 -12
-35 -15 2 -3 26 3 53 12 122 40 290 213 348 358 23 58 26 78 21 125 -11 98
-15 121 -31 188 -17 64 -27 80 -125 195 -27 32 -31 42 -25 72 4 20 10 36 14
36 4 0 30 -24 58 -52z m-806 -18 c0 -3 -29 -33 -64 -68 -150 -145 -192 -319
-126 -512 26 -75 55 -119 118 -176 43 -38 50 -64 19 -64 -29 0 -117 93 -146
153 -39 83 -71 200 -71 262 1 147 49 249 177 378 61 63 68 67 80 51 7 -10 13
-20 13 -24z m490 -248 c0 -14 -49 -56 -57 -49 -3 4 4 18 17 32 24 25 40 32 40
17z m-976 -18 c12 -30 5 -34 -59 -34 -63 0 -65 1 -65 25 0 24 3 25 59 25 44 0
60 -4 65 -16z m850 -45 c43 -34 30 -106 -25 -134 -34 -18 -69 -14 -94 12 -31
31 -1 113 50 134 31 12 40 11 69 -12z"/>
<path d="M3223 773 c9 -2 23 -2 30 0 6 3 -1 5 -18 5 -16 0 -22 -2 -12 -5z"/>
<path d="M3078 1363 c-37 -23 -41 -37 -21 -79 15 -30 21 -34 41 -29 54 13 83
93 43 115 -26 13 -31 13 -63 -7z m60 -33 c4 -36 -22 -68 -44 -54 -34 20 -40
41 -19 64 25 28 59 23 63 -10z"/>
<path d="M3090 1315 c0 -10 7 -15 18 -13 21 4 19 22 -2 26 -10 2 -16 -3 -16
-13z"/>
<path d="M4764 2466 c-3 -14 -13 -30 -22 -35 -10 -6 -13 -16 -8 -35 8 -32 26
-25 26 9 0 13 5 36 10 51 6 15 8 29 6 32 -3 2 -8 -7 -12 -22z"/>
<path d="M4850 2470 c12 -7 11 -15 -8 -49 l-23 -41 28 -2 c88 -4 83 -6 82 27
0 26 -1 27 -9 9 -6 -16 -15 -20 -39 -16 -36 5 -38 11 -11 45 26 33 25 37 -7
37 -21 0 -24 -3 -13 -10z"/>
<path d="M4967 2473 c-2 -5 -4 -19 -5 -33 -1 -14 -3 -34 -5 -45 -2 -17 4 -20
40 -20 24 0 43 2 43 5 0 3 5 12 10 20 8 12 14 10 40 -15 32 -31 40 -24 14 14
-13 18 -14 28 -6 47 13 27 2 38 -28 29 -12 -4 -20 -15 -20 -28 -1 -31 -20 -51
-52 -55 -34 -4 -37 15 -5 28 17 7 18 9 5 9 -28 1 -21 28 10 39 l27 10 -32 1
c-17 1 -34 -2 -36 -6z m123 -17 c0 -16 -18 -31 -27 -22 -8 8 5 36 17 36 5 0
10 -6 10 -14z"/>
<path d="M5259 2462 c-13 -11 -36 -22 -51 -26 -19 -4 -28 -13 -28 -26 0 -25
-16 -26 -29 -2 -9 14 -10 14 -11 2 0 -21 19 -40 35 -33 8 3 15 -5 18 -19 2
-13 5 -5 6 20 1 35 4 42 21 42 15 0 19 -6 16 -27 -2 -16 -1 -20 1 -10 5 19 28
23 38 6 4 -5 18 -15 32 -20 35 -13 53 4 53 52 0 50 -21 52 -39 4 -14 -40 -21
-43 -38 -16 -10 16 -8 22 7 36 18 17 19 35 1 35 -5 0 -19 -8 -32 -18z m21 -12
c0 -5 -4 -10 -10 -10 -5 0 -10 5 -10 10 0 6 5 10 10 10 6 0 10 -4 10 -10z m70
-39 c0 -20 -17 -37 -27 -28 -7 8 7 47 18 47 5 0 9 -9 9 -19z"/>
<path d="M5510 2474 c-23 -7 -57 -98 -40 -109 4 -2 10 9 14 25 4 21 11 30 26
30 11 0 20 5 20 10 0 6 -7 10 -16 10 -8 0 -12 5 -9 10 3 6 17 10 31 10 14 0
22 4 19 10 -6 10 -18 11 -45 4z"/>
<path d="M4931 2454 c0 -11 3 -14 6 -6 3 7 2 16 -1 19 -3 4 -6 -2 -5 -13z"/>
<path d="M5398 2463 c0 -5 -2 -12 -3 -18 -1 -5 -8 -22 -15 -38 -18 -37 -3 -53
37 -39 l28 10 -27 1 c-33 1 -39 31 -7 31 18 0 19 3 9 15 -14 17 -4 39 16 31 8
-3 14 -1 14 4 0 12 -49 14 -52 3z"/>
<path d="M3181 2406 c-5 -13 -16 -26 -24 -29 -17 -6 -32 -56 -20 -68 5 -5 20
-5 33 -1 23 6 25 12 25 65 0 31 -1 57 -3 57 -1 0 -7 -11 -11 -24z m-20 -79
c-17 -17 -24 -1 -10 25 12 21 14 21 17 4 2 -10 -1 -23 -7 -29z"/>
<path d="M3227 2415 c-15 -47 -19 -95 -8 -95 6 0 11 9 11 20 0 28 14 25 35 -6
14 -23 22 -25 61 -22 24 2 44 0 44 -4 0 -16 19 -7 25 12 8 27 23 25 28 -2 3
-15 5 -10 6 13 1 35 -1 37 -29 35 -17 -1 -35 -8 -40 -16 -7 -11 -10 -8 -10 13
0 33 -15 35 -39 5 -22 -27 -56 -18 -48 12 3 13 0 20 -8 20 -8 0 -15 8 -17 18
-4 15 -5 15 -11 -3z m94 -78 c-8 -8 -11 -7 -11 4 0 20 13 34 18 19 3 -7 -1
-17 -7 -23z"/>
<path d="M2201 2385 c21 -35 20 -85 -1 -85 -6 0 -10 -5 -10 -10 0 -7 6 -7 20
0 13 7 20 21 20 41 0 33 -25 89 -40 89 -5 0 0 -16 11 -35z"/>
<path d="M3545 2403 c19 -45 16 -61 -15 -97 -18 -20 -27 -36 -22 -36 13 0 59
59 63 80 5 23 -10 70 -22 70 -7 0 -8 -7 -4 -17z"/>
<path d="M1882 2398 c-16 -16 -15 -29 5 -43 19 -14 9 -37 -13 -28 -8 3 -21 18
-29 34 -10 17 -21 26 -29 23 -34 -13 -25 -62 12 -63 9 -1 30 -2 46 -3 38 -4
60 27 33 46 -10 8 -15 20 -11 30 7 19 3 21 -14 4z"/>
<path d="M1957 2403 c-9 -8 -9 -46 -1 -67 12 -30 25 -16 18 19 -5 29 -3 35 10
35 10 0 14 5 11 10 -7 11 -28 13 -38 3z"/>
<path d="M2869 2393 c-13 -16 -12 -17 4 -4 16 13 21 21 13 21 -2 0 -10 -8 -17
-17z"/>
<path d="M3476 2393 c-4 -13 -12 -23 -17 -23 -6 0 -7 -6 -2 -12 4 -7 6 -20 5
-29 -2 -9 4 -22 13 -29 13 -11 14 -8 9 19 -5 24 -2 35 12 46 11 8 14 15 7 15
-6 0 -13 8 -15 18 -4 14 -5 13 -12 -5z"/>
<path d="M4796 2395 c4 -8 8 -15 10 -15 2 0 4 7 4 15 0 8 -4 15 -10 15 -5 0
-7 -7 -4 -15z"/>
<path d="M1470 2375 c0 -16 5 -37 11 -45 9 -13 10 -12 5 3 -7 23 7 22 29 -3
21 -24 60 -26 69 -5 6 17 -8 60 -23 70 -7 4 -11 -5 -11 -24 0 -35 -10 -39 -33
-13 -13 14 -14 21 -5 30 9 9 9 12 1 12 -7 0 -15 -5 -19 -11 -4 -8 -9 -7 -15 2
-6 10 -9 5 -9 -16z"/>
<path d="M1613 2394 c-8 -4 -10 -17 -6 -37 8 -43 23 -58 23 -24 0 33 17 35 30
5 8 -21 9 -21 10 -3 1 19 2 18 22 -5 l21 -25 -7 30 c-10 38 -24 55 -41 49 -7
-3 -16 -1 -20 5 -7 12 -13 12 -32 5z"/>
<path d="M2007 2373 c-6 -31 20 -70 36 -54 10 10 -9 81 -23 81 -4 0 -10 -12
-13 -27z m23 -23 c0 -5 -2 -10 -4 -10 -3 0 -8 5 -11 10 -3 6 -1 10 4 10 6 0
11 -4 11 -10z"/>
<path d="M2067 2393 c-14 -13 -7 -64 9 -70 27 -10 38 12 24 46 -12 31 -21 37
-33 24z m23 -39 c0 -8 -4 -14 -10 -14 -5 0 -10 9 -10 21 0 11 5 17 10 14 6 -3
10 -13 10 -21z"/>
<path d="M2125 2386 c-6 -14 -2 -23 16 -37 21 -16 20 -24 -3 -20 -5 0 -8 -6
-8 -15 0 -21 20 -13 38 15 14 20 14 22 -6 28 -11 3 -23 15 -25 27 -3 20 -4 20
-12 2z"/>
<path d="M2988 2388 c-20 -16 -31 -75 -16 -84 6 -4 18 2 26 12 10 13 16 15 19
7 7 -18 40 -16 47 3 8 22 7 47 -3 63 -8 12 -12 12 -25 2 -11 -9 -16 -10 -16
-2 0 15 -12 14 -32 -1z m8 -45 c-10 -10 -19 5 -10 18 6 11 8 11 12 0 2 -7 1
-15 -2 -18z m50 -10 c-11 -11 -19 6 -11 24 8 17 8 17 12 0 3 -10 2 -21 -1 -24z"/>
<path d="M3090 2389 c0 -8 -3 -31 -6 -51 -5 -25 -3 -38 5 -38 6 0 11 13 11 29
0 20 8 35 22 45 12 9 17 16 11 16 -6 0 -18 3 -27 6 -10 4 -16 1 -16 -7z"/>
<path d="M1730 2342 c0 -28 3 -57 6 -66 9 -23 23 -10 17 14 -3 12 2 29 12 40
22 24 16 54 -13 58 -20 3 -22 -1 -22 -46z m40 19 c0 -6 -4 -13 -10 -16 -5 -3
-10 1 -10 9 0 9 5 16 10 16 6 0 10 -4 10 -9z"/>
<path d="M2906 2365 c-15 -54 2 -76 21 -27 l11 27 2 -35 c1 -32 2 -33 11 -12
13 33 1 71 -21 69 -10 -1 -21 -10 -24 -22z"/>
<path d="M1391 2339 c-1 -28 26 -59 50 -58 8 0 4 4 -8 9 -13 5 -26 23 -32 42
-8 30 -9 31 -10 7z"/>
<path d="M2841 2318 c-1 -21 4 -28 17 -28 11 0 13 3 6 8 -7 4 -14 16 -17 27
-4 15 -5 14 -6 -7z"/>
<path d="M5304 2228 l-9 -83 -75 -6 -75 -5 72 -2 c70 -2 72 -3 76 -29 l4 -28
2 28 1 27 98 2 c53 1 108 1 122 0 16 -1 20 1 12 7 -7 4 -60 6 -118 3 l-105 -5
7 87 c4 47 5 86 2 86 -3 0 -9 -37 -14 -82z"/>
<path d="M2424 2258 c3 -13 6 -33 6 -45 0 -13 4 -23 9 -23 5 0 7 10 4 23 -6
22 -6 22 21 -3 15 -14 60 -67 98 -117 39 -51 73 -93 75 -93 7 0 -34 56 -114
158 -70 88 -73 97 -29 92 11 -1 17 3 14 12 -3 7 -23 14 -48 16 -40 3 -42 2
-36 -20z"/>
<path d="M3148 2208 c-2 -7 -1 -38 3 -68 l6 -55 1 53 c2 50 16 69 28 37 4 -8
13 -15 21 -15 11 0 9 7 -9 29 -25 32 -44 39 -50 19z"/>
<path d="M3125 2169 c-4 -6 -5 -12 -2 -15 2 -3 7 2 10 11 7 17 1 20 -8 4z"/>
<path d="M5644 2143 c58 -2 106 -9 115 -16 11 -10 13 -9 9 3 -4 12 -26 15
-114 16 l-109 0 99 -3z"/>
<path d="M4700 2129 c-137 -4 -109 -5 132 -5 169 0 305 3 302 5 -7 7 -225 7
-434 0z"/>
<path d="M3984 2123 c-227 -4 -226 -3 -237 -58 -5 -22 -4 -25 2 -10 5 11 11
27 14 36 4 13 36 16 223 20 121 2 287 4 371 4 84 0 145 3 135 7 -17 6 -72 7
-508 1z"/>
<path d="M5772 2090 c0 -14 2 -19 5 -12 2 6 2 18 0 25 -3 6 -5 1 -5 -13z"/>
<path d="M5281 2054 c0 -11 3 -14 6 -6 3 7 2 16 -1 19 -3 4 -6 -2 -5 -13z"/>
<path d="M5783 2000 c0 -30 2 -43 4 -27 2 15 2 39 0 55 -2 15 -4 2 -4 -28z"/>
<path d="M5271 2014 c0 -11 3 -14 6 -6 3 7 2 16 -1 19 -3 4 -6 -2 -5 -13z"/>
<path d="M1596 1986 c-4 -19 -11 -36 -17 -38 -6 -2 -8 -15 -3 -32 9 -37 19
-18 28 52 7 58 2 71 -8 18z"/>
<path d="M1630 1958 c0 -28 3 -48 6 -45 9 9 10 97 2 97 -5 0 -8 -23 -8 -52z"/>
<path d="M1685 1994 c19 -14 19 -16 2 -45 -23 -41 -22 -49 7 -49 31 0 42 16
20 28 -13 7 -14 13 -5 30 19 35 14 52 -16 52 -27 -1 -27 -1 -8 -16z"/>
<path d="M1821 2001 c-13 -8 -36 -100 -27 -109 8 -8 66 10 66 20 0 6 -11 8
-26 4 -21 -6 -25 -4 -22 11 2 10 13 19 26 21 12 2 22 8 22 13 0 6 -9 7 -20 4
-27 -9 -25 10 2 29 24 17 5 23 -21 7z"/>
<path d="M1896 1988 c-11 -56 -13 -79 -5 -84 5 -3 9 2 9 10 0 21 19 20 42 -1
10 -9 21 -13 26 -9 4 4 -1 13 -11 20 -11 9 -17 26 -17 50 0 29 -4 36 -20 36
-12 0 -21 -8 -24 -22z m32 -10 c-6 -18 -28 -21 -28 -4 0 9 7 16 16 16 9 0 14
-5 12 -12z"/>
<path d="M3731 1994 c0 -11 3 -14 6 -6 3 7 2 16 -1 19 -3 4 -6 -2 -5 -13z"/>
<path d="M5262 1970 c0 -14 2 -19 5 -12 2 6 2 18 0 25 -3 6 -5 1 -5 -13z"/>
<path d="M1747 1956 c-4 -15 -6 -31 -2 -34 10 -10 16 6 13 35 l-3 28 -8 -29z"/>
<path d="M5248 1905 c-4 -16 -9 -39 -12 -50 -4 -11 1 -5 9 14 9 18 14 41 13
50 -2 9 -7 3 -10 -14z"/>
<path d="M5793 1880 c0 -30 2 -43 4 -27 2 15 2 39 0 55 -2 15 -4 2 -4 -28z"/>
<path d="M2095 1845 c-4 -30 -6 -122 -4 -205 2 -82 2 -150 -2 -150 -3 0 -10
12 -17 28 -9 21 -11 22 -8 5 2 -13 -1 -23 -7 -23 -7 0 -52 35 -102 78 -67 58
-101 97 -137 156 -55 91 -63 92 -16 2 33 -61 92 -127 203 -224 55 -48 58 -52
30 -46 -29 5 -29 5 -11 -10 11 -9 28 -17 38 -17 10 -1 24 -2 30 -3 7 0 14 -10
16 -20 3 -16 0 -18 -19 -12 -45 14 -321 46 -375 45 -49 -2 39 -14 203 -28 66
-6 127 -17 148 -27 48 -23 36 -31 -17 -11 -24 8 -63 18 -88 21 l-45 5 50 -14
c28 -7 70 -20 95 -29 45 -15 45 -15 -85 -16 -257 -3 -321 -13 -430 -63 -101
-47 -154 -53 -290 -36 -44 5 -98 12 -120 14 l-40 4 40 -10 c22 -5 90 -16 150
-23 61 -8 97 -14 80 -16 -16 -1 -39 -6 -50 -11 -16 -7 -14 -8 10 -4 17 2 62 7
100 11 49 5 88 16 129 37 32 17 82 36 110 44 50 13 28 12 -54 -2 l-35 -5 40
16 c28 11 55 14 90 9 105 -14 181 -16 162 -4 -10 5 -28 10 -40 9 -36 -3 -81 0
-76 5 3 2 73 7 157 11 107 5 152 3 152 -4 0 -7 -33 -12 -87 -15 -87 -3 -86 -3
23 -5 l111 -2 7 -152 c21 -503 29 -634 40 -645 8 -9 23 -9 55 -2 24 5 51 7 60
5 27 -9 36 6 38 64 l1 55 -11 -45 c-12 -44 -13 -45 -67 -57 -43 -9 -57 -9 -66
0 -7 7 -16 104 -23 257 -26 567 -25 516 -6 524 14 5 15 9 5 21 -9 10 -9 15 -1
15 15 0 14 25 -2 39 -22 18 -41 232 -34 381 7 136 3 168 -8 75z m-565 -595
c-19 -11 -44 -19 -55 -19 -13 0 -6 7 20 19 53 24 80 24 35 0z"/>
<path d="M1761 1834 c0 -11 3 -14 6 -6 3 7 2 16 -1 19 -3 4 -6 -2 -5 -13z"/>
<path d="M3048 1833 c18 -2 45 -2 60 0 15 2 0 4 -33 4 -33 0 -45 -2 -27 -4z"/>
<path d="M2958 1823 c12 -2 30 -2 40 0 9 3 -1 5 -23 4 -22 0 -30 -2 -17 -4z"/>
<path d="M3218 1823 c7 -3 16 -2 19 1 4 3 -2 6 -13 5 -11 0 -14 -3 -6 -6z"/>
<path d="M5221 1823 c-1 -6 -4 -20 -7 -30 -5 -17 -5 -17 6 0 6 10 9 23 6 30
-3 9 -5 9 -5 0z"/>
<path d="M3290 1804 c25 -7 50 -13 55 -13 18 1 -59 27 -80 28 -11 0 0 -7 25
-15z"/>
<path d="M5608 1814 c-8 -7 3 -87 13 -98 5 -6 8 15 6 47 -2 54 -6 65 -19 51z"/>
<path d="M5801 1794 c0 -11 3 -14 6 -6 3 7 2 16 -1 19 -3 4 -6 -2 -5 -13z"/>
<path d="M3248 1763 c7 -3 16 -2 19 1 4 3 -2 6 -13 5 -11 0 -14 -3 -6 -6z"/>
<path d="M5201 1748 c-5 -13 -15 -44 -21 -69 -7 -24 -21 -63 -31 -86 -11 -24
-19 -49 -19 -57 0 -20 -17 -29 -23 -14 -3 7 -6 -4 -6 -24 -1 -21 1 -38 4 -38
3 0 24 9 46 21 45 22 48 36 5 19 -26 -9 -27 -8 -20 12 3 13 11 29 17 36 6 7
11 23 13 35 2 31 32 135 45 159 6 11 8 22 5 25 -3 3 -10 -5 -15 -19z"/>
<path d="M3319 1745 c18 -8 36 -15 40 -15 13 1 -45 29 -59 29 -8 0 0 -6 19
-14z"/>
<path d="M5813 1713 c4 -21 9 -57 13 -80 l7 -43 -67 0 c-65 0 -66 0 -66 28 0
15 -3 37 -6 50 -5 16 -2 22 10 22 25 0 19 19 -10 32 -21 10 -27 9 -35 -3 -12
-19 -11 -29 2 -26 16 3 29 -49 26 -103 -3 -42 -5 -45 -33 -48 -27 -3 -30 -6
-26 -36 l4 -32 91 0 c79 1 92 -1 95 -16 2 -12 -3 -19 -15 -19 -10 -1 0 -5 22
-8 38 -6 40 -8 52 -56 6 -27 12 -68 13 -90 2 -28 4 -33 7 -16 4 22 -9 115 -23
164 -3 9 -11 17 -19 17 -13 0 -20 13 -36 64 -10 33 4 66 28 66 11 0 13 4 5 13
-5 6 -15 45 -22 85 -6 39 -14 72 -17 72 -3 0 -3 -17 0 -37z m-3 -148 c0 -12
-13 -15 -55 -15 -42 0 -55 3 -55 15 0 12 13 15 55 15 42 0 55 -3 55 -15z m-12
-39 c6 -4 9 -13 5 -22 -4 -12 -21 -14 -82 -12 -63 3 -76 6 -79 21 -3 15 3 17
32 15 19 -1 38 1 42 5 9 8 66 3 82 -7z"/>
<path d="M3065 1730 c4 -6 -1 -22 -9 -35 -9 -14 -12 -25 -7 -25 5 0 13 5 16
10 4 6 15 8 25 5 13 -4 22 1 30 15 14 26 4 46 -15 30 -9 -8 -15 -8 -20 0 -3 5
-11 10 -16 10 -6 0 -7 -5 -4 -10z"/>
<path d="M3250 1711 c0 -5 5 -11 12 -13 8 -3 4 -12 -10 -26 -20 -20 -20 -22
-4 -22 10 0 19 6 20 13 0 6 4 22 7 35 6 16 3 22 -9 22 -9 0 -16 -4 -16 -9z"/>
<path d="M2892 1665 c1 -14 8 -25 16 -25 9 0 10 5 3 19 -6 10 -7 21 -4 25 3 3
1 6 -5 6 -7 0 -11 -11 -10 -25z"/>
<path d="M3353 1651 c5 -23 2 -31 -11 -34 -16 -4 -16 -5 0 -6 9 0 20 4 23 9 9
15 28 12 22 -4 -4 -9 0 -12 13 -9 10 3 20 16 23 30 4 23 2 25 -24 19 -22 -4
-29 -2 -29 9 0 8 -5 15 -11 15 -7 0 -9 -11 -6 -29z"/>
<path d="M2790 1614 c0 -6 9 -19 21 -30 17 -15 22 -16 29 -4 12 19 2 33 -18
25 -8 -3 -19 0 -24 7 -4 8 -8 8 -8 2z"/>
<path d="M3403 1576 c-23 -24 -33 -50 -11 -28 19 19 28 14 28 -17 0 -42 18
-48 48 -17 15 14 21 26 15 26 -7 0 -15 -4 -18 -10 -13 -22 -25 -8 -25 30 0 46
-6 49 -37 16z"/>
<path d="M2756 1583 c-9 -10 -7 -25 3 -18 5 3 12 -4 16 -15 8 -24 18 -25 36
-4 12 15 11 16 -9 10 -16 -5 -22 -3 -22 8 0 17 -14 29 -24 19z"/>
<path d="M5548 1573 c17 -2 47 -2 65 0 17 2 3 4 -33 4 -36 0 -50 -2 -32 -4z"/>
<path d="M5198 1563 c7 -3 16 -2 19 1 4 3 -2 6 -13 5 -11 0 -14 -3 -6 -6z"/>
<path d="M5293 1563 c20 -2 54 -2 75 0 20 2 3 4 -38 4 -41 0 -58 -2 -37 -4z"/>
<path d="M5478 1563 c7 -3 16 -2 19 1 4 3 -2 6 -13 5 -11 0 -14 -3 -6 -6z"/>
<path d="M2320 1545 c-9 -10 -9 -15 -1 -15 6 0 11 -11 11 -25 0 -14 5 -25 10
-25 6 0 10 18 10 40 0 42 -9 50 -30 25z"/>
<path d="M4588 1553 c12 -2 32 -2 45 0 12 2 2 4 -23 4 -25 0 -35 -2 -22 -4z"/>
<path d="M4758 1553 c7 -3 16 -2 19 1 4 3 -2 6 -13 5 -11 0 -14 -3 -6 -6z"/>
<path d="M4828 1553 c6 -2 18 -2 25 0 6 3 1 5 -13 5 -14 0 -19 -2 -12 -5z"/>
<path d="M4948 1553 c23 -2 61 -2 85 0 23 2 4 4 -43 4 -47 0 -66 -2 -42 -4z"/>
<path d="M435 1538 c-150 -14 -285 -40 -285 -55 0 -18 27 -17 156 7 125 24
371 30 469 12 33 -6 101 -16 150 -22 94 -12 122 -18 220 -45 166 -46 213 -55
289 -55 45 0 87 4 95 9 8 5 -23 7 -75 4 -72 -3 -101 0 -149 16 -33 12 -49 19
-35 16 58 -13 139 -16 190 -7 51 10 49 10 -30 5 -67 -3 -102 0 -165 17 -292
79 -617 117 -830 98z m78 -15 c-7 -2 -19 -2 -25 0 -7 3 -2 5 12 5 14 0 19 -2
13 -5z m240 0 c-7 -2 -19 -2 -25 0 -7 3 -2 5 12 5 14 0 19 -2 13 -5z m-433
-13 c0 -5 -8 -10 -17 -10 -15 0 -16 2 -3 10 19 12 20 12 20 0z m-51 -14 c-11
-9 -69 -15 -64 -6 3 6 20 10 37 10 17 0 29 -2 27 -4z m696 -6 c4 -7 -3 -8 -22
-4 -38 9 -42 14 -10 14 14 0 29 -5 32 -10z m265 -60 c0 -5 -9 -6 -20 -3 -11 3
-20 9 -20 13 0 5 9 6 20 3 11 -3 20 -9 20 -13z"/>
<path d="M3516 1525 c8 -37 14 -45 14 -19 0 10 -5 26 -10 34 -8 11 -9 7 -4
-15z"/>
<path d="M4268 1543 c45 -2 119 -2 165 0 45 1 8 3 -83 3 -91 0 -128 -2 -82 -3z"/>
<path d="M4708 1543 c7 -3 16 -2 19 1 4 3 -2 6 -13 5 -11 0 -14 -3 -6 -6z"/>
<path d="M83 1483 c9 -2 23 -2 30 0 6 3 -1 5 -18 5 -16 0 -22 -2 -12 -5z"/>
<path d="M2680 1470 c14 -26 23 -30 37 -15 14 16 4 29 -25 32 -20 3 -21 0 -12
-17z"/>
<path d="M3531 1470 c0 -8 4 -22 9 -30 12 -18 12 -2 0 25 -6 13 -9 15 -9 5z"/>
<path d="M118 1463 c7 -3 16 -2 19 1 4 3 -2 6 -13 5 -11 0 -14 -3 -6 -6z"/>
<path d="M75 1450 c-3 -6 1 -7 9 -4 18 7 21 14 7 14 -6 0 -13 -4 -16 -10z"/>
<path d="M2655 1440 c-3 -5 1 -10 10 -10 9 0 13 5 10 10 -3 6 -8 10 -10 10 -2
0 -7 -4 -10 -10z"/>
<path d="M1553 1433 c20 -2 54 -2 75 0 20 2 3 4 -38 4 -41 0 -58 -2 -37 -4z"/>
<path d="M5200 1428 c0 -7 131 1 140 9 3 3 -28 3 -68 2 -39 -2 -72 -7 -72 -11z"/>
<path d="M5498 1433 c50 -2 134 -2 185 0 50 1 9 3 -93 3 -102 0 -143 -2 -92
-3z"/>
<path d="M4510 1420 c-139 -6 -136 -6 65 -6 123 0 191 3 165 7 -25 4 -54 7
-65 6 -11 -1 -85 -4 -165 -7z"/>
<path d="M4825 1421 c22 -3 114 -3 205 0 l165 5 -205 0 c-113 0 -187 -2 -165
-5z"/>
<path d="M1658 1413 c23 -2 59 -2 80 0 20 2 1 4 -43 4 -44 0 -61 -2 -37 -4z"/>
<path d="M2703 1400 c6 -8 12 -16 13 -18 1 -1 4 6 7 17 3 14 0 19 -14 18 -14
-1 -16 -4 -6 -17z"/>
<path d="M1563 1403 c9 -2 23 -2 30 0 6 3 -1 5 -18 5 -16 0 -22 -2 -12 -5z"/>
<path d="M1788 1403 c6 -2 18 -2 25 0 6 3 1 5 -13 5 -14 0 -19 -2 -12 -5z"/>
<path d="M4258 1403 c7 -3 16 -2 19 1 4 3 -2 6 -13 5 -11 0 -14 -3 -6 -6z"/>
<path d="M4308 1403 c12 -2 30 -2 40 0 9 3 -1 5 -23 4 -22 0 -30 -2 -17 -4z"/>
<path d="M1858 1393 c7 -3 16 -2 19 1 4 3 -2 6 -13 5 -11 0 -14 -3 -6 -6z"/>
<path d="M370 1355 c-88 -26 -106 -33 -85 -34 20 -2 20 -2 1 -16 -11 -8 -16
-15 -12 -15 12 0 47 21 66 40 28 28 128 35 235 15 50 -9 113 -20 140 -25 28
-4 61 -13 75 -19 21 -9 16 -10 -25 -5 -27 3 -61 7 -75 10 -18 3 -21 2 -10 -5
8 -4 44 -12 78 -15 35 -4 75 -12 89 -17 25 -9 110 -21 283 -38 47 -5 99 -12
115 -16 22 -5 26 -4 15 4 -8 5 -44 13 -80 16 -115 10 -150 16 -150 25 0 5 15
11 33 13 25 3 22 4 -14 5 -26 1 -71 7 -100 13 -30 6 -76 14 -104 18 -27 5 -84
15 -125 24 -177 37 -277 44 -350 22z m595 -85 c33 -8 28 -8 -28 -5 -37 2 -75
9 -85 15 -18 12 33 7 113 -10z"/>
<path d="M2268 1220 c5 -148 11 -182 13 -74 1 53 3 62 9 39 4 -16 8 -49 9 -73
0 -24 5 -41 9 -38 5 3 5 29 1 58 -4 29 -8 90 -8 136 -1 50 -5 81 -10 77 -6 -3
-7 -29 -4 -58 3 -29 2 -48 -3 -44 -5 5 -11 32 -15 60 -3 29 -4 -9 -1 -83z"/>
<path d="M2625 1340 c-6 -10 -5 -11 16 -14 16 -1 35 -33 26 -42 -4 -4 -13 -2
-19 4 -14 14 -28 16 -28 5 0 -8 52 -35 55 -30 1 1 5 22 9 46 6 41 5 43 -10 30
-13 -11 -18 -11 -21 -1 -6 15 -19 16 -28 2z"/>
<path d="M401 1336 c2 -2 33 -6 69 -9 38 -3 57 -1 45 3 -19 8 -123 14 -114 6z"/>
<path d="M2172 1208 c4 -73 14 -195 21 -271 13 -132 13 -145 -8 -263 -11 -68
-18 -124 -14 -124 4 0 13 40 19 89 7 49 15 94 19 99 3 6 30 14 59 18 l52 7 1
-39 c1 -36 2 -35 11 16 7 39 5 93 -6 190 l-15 135 4 -130 c4 -139 -7 -127 -20
21 -4 46 -10 84 -14 84 -4 0 -1 -55 6 -122 7 -67 10 -125 6 -129 -5 -4 -20
-11 -35 -14 -20 -5 -27 -3 -32 12 -9 28 -36 302 -43 434 -3 65 -9 119 -12 119
-3 0 -3 -60 1 -132z"/>
<path d="M358 1323 c6 -2 18 -2 25 0 6 3 1 5 -13 5 -14 0 -19 -2 -12 -5z"/>
<path d="M560 1320 c25 -8 97 -13 89 -6 -2 2 -29 6 -59 9 -36 4 -46 3 -30 -3z"/>
<path d="M5640 1320 c0 -5 5 -10 10 -10 6 0 10 5 10 10 0 6 -4 10 -10 10 -5 0
-10 -4 -10 -10z"/>
<path d="M5593 1313 c9 -2 23 -2 30 0 6 3 -1 5 -18 5 -16 0 -22 -2 -12 -5z"/>
<path d="M5680 1318 c0 -9 41 -78 46 -78 2 0 4 6 4 13 -1 12 -50 77 -50 65z"/>
<path d="M184 1294 c-18 -14 -18 -14 6 -3 31 14 36 19 24 19 -6 0 -19 -7 -30
-16z"/>
<path d="M5493 1303 c15 -2 37 -2 50 0 12 2 0 4 -28 4 -27 0 -38 -2 -22 -4z"/>
<path d="M5413 1270 c-6 -16 -10 -30 -7 -30 2 0 10 14 19 30 9 17 12 30 7 30
-4 0 -13 -13 -19 -30z"/>
<path d="M5654 1264 c10 -14 16 -35 14 -48 -1 -12 7 -35 20 -50 16 -21 22 -24
22 -12 0 9 -7 19 -15 22 -9 4 -15 20 -15 43 0 20 -7 44 -14 54 -21 27 -30 20
-12 -9z"/>
<path d="M158 1254 c-26 -8 -49 -18 -52 -22 -3 -5 21 0 52 11 87 29 87 38 0
11z"/>
<path d="M5418 1218 c-15 -28 -26 -53 -24 -56 3 -2 16 19 30 46 14 28 34 53
43 55 15 4 15 5 -2 6 -14 1 -28 -14 -47 -51z"/>
<path d="M5507 1243 c-4 -3 -7 -14 -7 -24 0 -9 -6 -20 -12 -22 -7 -3 -3 -6 10
-6 17 -1 22 5 22 24 0 21 5 25 29 25 20 0 30 -6 34 -20 3 -12 14 -20 26 -20
16 0 21 -6 21 -25 0 -16 -6 -25 -15 -25 -8 0 -15 -9 -15 -20 0 -16 -7 -20 -35
-20 -24 0 -35 5 -35 14 0 9 -12 16 -32 18 -27 2 -33 7 -33 27 0 14 -6 26 -13
29 -13 4 -15 -11 -6 -45 5 -17 14 -23 36 -23 22 0 31 -6 35 -21 4 -15 11 -19
27 -15 11 3 34 6 49 6 24 0 27 3 22 20 -5 16 -2 20 14 20 16 0 21 6 21 24 0
38 -10 56 -31 56 -11 0 -22 7 -25 15 -6 15 -74 22 -87 8z"/>
<path d="M5903 1180 c0 -30 2 -43 4 -27 2 15 2 39 0 55 -2 15 -4 2 -4 -28z"/>
<path d="M5720 1214 c1 -16 38 -59 46 -52 4 4 -5 20 -19 34 -15 15 -27 23 -27
18z"/>
<path d="M2647 1203 c-4 -3 -7 -13 -7 -21 0 -10 7 -12 26 -8 20 5 24 3 22 -10
-2 -9 3 -19 10 -21 15 -6 16 21 2 48 -10 19 -40 26 -53 12z"/>
<path d="M1230 1181 c0 -11 -3 -28 -6 -38 -5 -16 -4 -16 10 1 18 22 21 56 6
56 -5 0 -10 -9 -10 -19z"/>
<path d="M3393 1193 c-18 -7 -16 -32 2 -39 20 -8 45 13 38 32 -5 14 -18 17
-40 7z m27 -23 c0 -5 -4 -10 -10 -10 -5 0 -10 5 -10 10 0 6 5 10 10 10 6 0 10
-4 10 -10z"/>
<path d="M5346 1171 c-16 -17 -14 -21 44 -81 34 -34 64 -59 68 -55 4 4 -20 32
-52 62 -52 48 -58 58 -48 74 15 24 10 24 -12 0z"/>
<path d="M2640 1135 c0 -8 6 -15 13 -15 8 0 14 7 14 15 0 8 -6 15 -14 15 -7 0
-13 -7 -13 -15z"/>
<path d="M2949 1123 l-24 -28 28 24 c15 14 27 26 27 28 0 8 -8 1 -31 -24z"/>
<path d="M5436 1101 c22 -22 41 -34 43 -28 4 11 -56 67 -72 67 -5 0 8 -18 29
-39z"/>
<path d="M3877 963 c4 -136 1 -171 -13 -218 -14 -44 -20 -53 -26 -38 -4 10 -6
1 -3 -22 4 -31 3 -36 -5 -20 -8 16 -9 13 -4 -15 3 -23 2 -30 -4 -22 -12 17
-24 -35 -15 -67 7 -28 23 -27 23 2 0 34 27 132 49 177 17 36 18 51 10 152 -5
62 -11 140 -13 173 -2 33 -1 -13 1 -102z"/>
<path d="M5679 1102 c-6 -19 -19 -32 -32 -35 -19 -4 -18 -4 5 -6 21 -1 28 5
37 31 6 17 9 33 6 36 -3 3 -10 -9 -16 -26z"/>
<path d="M5720 1086 c-6 -19 -16 -37 -23 -40 -7 -2 -6 -5 4 -5 10 -1 20 13 27
36 15 47 8 56 -8 9z"/>
<path d="M5916 993 l5 -132 -36 -71 c-19 -38 -33 -70 -30 -70 3 0 22 35 44 78
25 50 37 87 34 102 -2 14 -8 70 -13 125 -9 99 -9 98 -4 -32z"/>
<path d="M2789 1093 c-13 -16 -12 -17 4 -4 16 13 21 21 13 21 -2 0 -10 -8 -17
-17z"/>
<path d="M3341 1096 c-11 -13 -5 -46 8 -46 19 0 42 27 35 43 -7 20 -27 22 -43
3z m29 -16 c0 -5 -4 -10 -10 -10 -5 0 -10 5 -10 10 0 6 5 10 10 10 6 0 10 -4
10 -10z"/>
<path d="M1201 1046 c-1 -16 -3 -17 -18 -5 -15 12 -16 12 -9 -6 5 -11 11 -28
13 -37 7 -25 15 -23 48 12 16 17 24 30 17 30 -6 0 -14 -4 -17 -10 -10 -17 -23
-11 -28 13 -3 17 -5 18 -6 3z"/>
<path d="M5516 1052 c-2 -4 12 -6 32 -4 62 6 69 10 20 11 -26 0 -49 -3 -52 -7z"/>
<path d="M5496 1001 c-3 -4 6 -6 19 -3 14 2 25 6 25 8 0 8 -39 4 -44 -5z"/>
<path d="M3340 978 c0 -4 -7 -8 -15 -8 -18 0 -20 -41 -3 -58 25 -25 41 -14 35
26 l-6 37 17 -23 c16 -20 20 -21 30 -9 19 23 4 46 -29 45 -16 -1 -29 -5 -29
-10z m10 -49 c0 -24 -23 -21 -28 4 -2 10 3 17 12 17 10 0 16 -9 16 -21z"/>
<path d="M1051 912 c-1 -25 7 -42 34 -69 27 -27 35 -32 35 -18 0 14 3 15 14 6
11 -9 15 -9 19 1 4 10 9 9 20 -5 13 -15 16 -15 27 -2 9 11 9 22 0 51 -12 34
-14 36 -26 20 -12 -17 -13 -16 -24 3 -15 29 -30 17 -30 -25 0 -19 -4 -34 -8
-34 -14 0 -43 58 -32 65 5 3 10 11 10 17 0 7 -5 6 -14 -1 -11 -10 -15 -8 -19
6 -3 10 -5 3 -6 -15z m99 -48 c0 -8 -4 -14 -10 -14 -5 0 -10 9 -10 21 0 11 5
17 10 14 6 -3 10 -13 10 -21z m43 3 c3 -8 1 -20 -4 -28 -6 -10 -9 -7 -9 14 0
29 5 35 13 14z"/>
<path d="M1237 924 c-4 -4 -7 -28 -6 -53 1 -35 3 -40 8 -22 l7 25 21 -30 c12
-16 25 -26 29 -22 4 5 -1 17 -11 28 -10 11 -18 32 -19 47 -1 26 -16 40 -29 27z"/>
<path d="M1310 875 c0 -51 18 -60 44 -23 20 28 20 33 0 52 -29 30 -44 20 -44
-29z m35 0 c0 -10 -6 -20 -12 -22 -8 -3 -13 5 -13 22 0 17 5 25 13 23 6 -3 12
-13 12 -23z"/>
<path d="M1437 912 c-7 -10 4 -102 12 -102 4 0 16 7 27 15 19 14 18 14 -3 15
-28 0 -29 8 -5 26 16 12 15 13 -6 14 -30 0 -24 22 9 31 24 7 24 7 -3 8 -15 1
-29 -2 -31 -7z"/>
<path d="M1395 872 c8 -50 -1 -82 -23 -82 -13 0 -14 -2 -3 -12 10 -11 15 -9
27 7 16 22 17 112 1 122 -5 3 -6 -11 -2 -35z"/>
<path d="M5613 853 c9 -2 23 -2 30 0 6 3 -1 5 -18 5 -16 0 -22 -2 -12 -5z"/>
<path d="M5288 843 c7 -3 16 -2 19 1 4 3 -2 6 -13 5 -11 0 -14 -3 -6 -6z"/>
<path d="M5458 843 c18 -2 45 -2 60 0 15 2 0 4 -33 4 -33 0 -45 -2 -27 -4z"/>
<path d="M5708 843 c28 -2 76 -2 105 0 28 2 5 3 -53 3 -58 0 -81 -1 -52 -3z"/>
<path d="M4803 833 c9 -2 25 -2 35 0 9 3 1 5 -18 5 -19 0 -27 -2 -17 -5z"/>
<path d="M4968 833 c12 -2 30 -2 40 0 9 3 -1 5 -23 4 -22 0 -30 -2 -17 -4z"/>
<path d="M4445 825 c25 -9 107 -12 94 -4 -8 5 -34 8 -59 8 -25 0 -40 -2 -35
-4z"/>
<path d="M4623 823 c9 -2 25 -2 35 0 9 3 1 5 -18 5 -19 0 -27 -2 -17 -5z"/>
<path d="M4703 823 c9 -2 23 -2 30 0 6 3 -1 5 -18 5 -16 0 -22 -2 -12 -5z"/>
<path d="M4208 813 c6 -2 18 -2 25 0 6 3 1 5 -13 5 -14 0 -19 -2 -12 -5z"/>
<path d="M4333 813 c9 -2 23 -2 30 0 6 3 -1 5 -18 5 -16 0 -22 -2 -12 -5z"/>
<path d="M3765 756 c-17 -7 -52 -16 -79 -20 -26 -4 -46 -10 -43 -12 8 -8 110
13 148 30 19 8 27 15 19 15 -8 0 -29 -6 -45 -13z"/>
<path d="M3842 750 c0 -14 2 -19 5 -12 2 6 2 18 0 25 -3 6 -5 1 -5 -13z"/>
<path d="M2365 723 c14 -14 104 -47 111 -41 3 3 -14 13 -38 21 -24 8 -52 18
-63 22 -13 5 -17 5 -10 -2z"/>
<path d="M3540 710 c-34 -7 -34 -7 -5 -8 17 0 44 4 60 8 27 7 27 8 5 8 -14 -1
-41 -4 -60 -8z"/>
<path d="M4233 660 c0 -36 2 -50 4 -32 2 17 2 47 0 65 -2 17 -4 3 -4 -33z"/>
<path d="M3478 693 c7 -3 16 -2 19 1 4 3 -2 6 -13 5 -11 0 -14 -3 -6 -6z"/>
<path d="M5752 645 c-12 -25 -27 -45 -34 -45 -7 0 -23 -3 -35 -6 -18 -5 -23
-2 -23 12 0 17 -1 17 -13 0 -8 -11 -23 -17 -38 -14 -19 2 -23 8 -21 28 l2 25
-15 -27 c-21 -37 -75 -41 -76 -5 l0 22 -9 -22 c-7 -17 -18 -23 -41 -23 -29 0
-31 2 -26 27 5 26 4 26 -9 8 -8 -10 -14 -22 -14 -27 0 -4 -18 -8 -40 -8 -35 0
-40 3 -41 23 l0 22 -11 -22 c-9 -18 -20 -23 -50 -23 -33 0 -38 3 -39 23 l0 22
-9 -22 c-8 -19 -17 -23 -50 -23 -38 0 -41 2 -35 23 5 20 5 20 -9 -3 -9 -14
-15 -27 -16 -30 0 -7 562 -2 636 5 l62 6 20 50 c12 27 19 49 17 49 -2 0 -15
-20 -29 -45 -15 -25 -33 -45 -41 -45 -19 0 -19 2 0 47 22 52 13 51 -13 -2z"/>
<path d="M2311 664 c0 -11 3 -14 6 -6 3 7 2 16 -1 19 -3 4 -6 -2 -5 -13z"/>
<path d="M3348 673 c12 -2 30 -2 40 0 9 3 -1 5 -23 4 -22 0 -30 -2 -17 -4z"/>
<path d="M3263 663 c9 -2 25 -2 35 0 9 3 1 5 -18 5 -19 0 -27 -2 -17 -5z"/>
<path d="M5325 659 c-4 -6 -5 -12 -2 -15 2 -3 7 2 10 11 7 17 1 20 -8 4z"/>
<path d="M2643 653 c15 -2 39 -2 55 0 15 2 2 4 -28 4 -30 0 -43 -2 -27 -4z"/>
<path d="M3040 650 c0 -6 7 -10 15 -10 8 0 15 2 15 4 0 2 -7 6 -15 10 -8 3
-15 1 -15 -4z"/>
<path d="M3133 653 c15 -2 39 -2 55 0 15 2 2 4 -28 4 -30 0 -43 -2 -27 -4z"/>
<path d="M3719 616 c-3 -27 -1 -87 2 -135 7 -88 5 -106 -11 -81 -9 13 -10 13
-10 0 0 -8 9 -28 19 -44 l19 -29 16 38 c20 46 20 51 1 35 -13 -11 -15 -2 -15
74 0 47 3 86 8 86 4 0 13 -9 20 -21 18 -28 25 -19 13 15 -6 14 -17 26 -26 26
-9 0 -15 9 -16 23 0 12 -4 31 -8 42 -6 15 -9 8 -12 -29z"/>
<path d="M3905 611 c-11 -34 -25 -56 -43 -66 -25 -14 -12 -15 142 -9 93 4 180
10 195 14 16 5 19 9 9 9 -11 1 -18 9 -19 24 -1 20 -2 19 -11 -5 -8 -23 -16
-28 -45 -28 -33 0 -35 2 -29 28 l6 27 -15 -27 c-13 -24 -22 -28 -60 -28 -25 0
-45 2 -45 4 0 3 4 16 10 30 14 38 4 32 -15 -8 -14 -29 -21 -34 -51 -33 -38 1
-40 7 -19 67 8 24 13 45 11 47 -2 2 -12 -19 -21 -46z"/>
<path d="M4849 633 c-5 -16 -12 -34 -14 -40 -2 -7 -15 -14 -27 -14 -13 -1 2
-5 32 -9 54 -8 274 0 235 8 -11 2 -24 9 -28 16 -6 8 -10 8 -14 -1 -2 -7 -21
-13 -40 -13 -32 0 -35 2 -31 25 7 35 -5 31 -19 -6 -12 -30 -14 -31 -50 -24
-21 4 -40 9 -42 11 -2 2 0 20 6 39 13 41 7 47 -8 8z"/>
<path d="M2843 643 c37 -2 96 -2 130 0 34 2 4 3 -68 3 -71 0 -99 -1 -62 -3z"/>
<path d="M4299 607 c-16 -43 -45 -60 -60 -35 -6 9 -9 6 -9 -11 0 -17 4 -22 16
-17 9 3 27 6 40 6 15 0 23 4 19 10 -4 6 -1 26 5 46 17 51 7 52 -11 1z"/>
<path d="M100 611 c-12 -24 -13 -34 -1 -27 11 7 21 -18 21 -55 0 -16 5 -29 11
-29 8 0 9 11 5 31 -3 17 -6 47 -6 65 0 38 -14 44 -30 15z"/>
<path d="M4436 598 c-7 -34 -11 -37 -50 -41 -22 -2 0 -3 49 -1 50 2 148 4 218
5 109 1 127 3 123 16 -3 8 -6 22 -6 31 -1 11 -6 8 -16 -10 -22 -42 -92 -35
-79 8 4 10 -1 6 -10 -9 -13 -22 -22 -27 -43 -25 -23 3 -27 7 -25 33 l2 30 -14
-32 c-15 -32 -17 -33 -74 -33 l-60 0 -3 33 -4 32 -8 -37z"/>
<path d="M615 599 c-4 -6 -5 -12 -2 -15 2 -3 7 2 10 11 7 17 1 20 -8 4z"/>
<path d="M960 550 c0 -33 3 -60 8 -60 4 0 16 15 26 34 19 36 12 68 -19 80 -12
4 -15 -5 -15 -54z m30 10 c0 -11 -4 -20 -10 -20 -5 0 -10 9 -10 20 0 11 5 20
10 20 6 0 10 -9 10 -20z"/>
<path d="M441 572 c-2 -60 -50 -82 -52 -24 0 15 -3 21 -6 14 -10 -25 7 -62 27
-62 11 0 20 5 20 11 0 8 6 7 16 -2 15 -12 16 -11 10 9 -5 16 -3 22 7 22 8 0
18 -11 21 -25 4 -14 11 -25 16 -25 6 0 6 9 0 26 -6 14 -10 40 -11 57 -1 28 -2
29 -7 9 -9 -30 -25 -30 -34 0 -5 19 -6 18 -7 -10z"/>
<path d="M538 593 c-20 -5 -23 -18 -8 -28 6 -3 10 -21 10 -40 0 -19 4 -36 10
-40 5 -3 7 14 3 45 -5 42 -3 50 11 50 9 0 16 5 16 10 0 10 -12 11 -42 3z"/>
<path d="M680 551 c0 -28 5 -53 10 -56 13 -8 50 4 50 16 0 6 -5 7 -10 4 -6 -4
-18 -4 -27 -1 -14 6 -14 9 3 27 16 18 16 19 1 13 -13 -4 -17 -1 -17 14 0 11 8
23 18 25 13 4 11 5 -5 6 -21 1 -23 -3 -23 -48z"/>
<path d="M779 565 l-5 -40 -13 33 c-19 47 -26 31 -11 -23 20 -72 44 -55 38 26
l-4 44 -5 -40z"/>
<path d="M823 593 c-15 -5 -18 -89 -4 -97 4 -3 17 1 27 10 18 14 18 15 -3 9
-28 -8 -31 12 -5 31 16 13 16 13 0 14 -25 0 -22 19 5 30 12 5 15 9 7 9 -8 -1
-21 -3 -27 -6z"/>
<path d="M1043 593 c-8 -3 -13 -23 -13 -49 0 -40 2 -44 25 -44 14 0 25 5 25
11 0 6 -6 9 -14 6 -22 -9 -28 5 -8 19 16 13 16 13 0 14 -25 0 -23 21 2 27 11
3 20 9 20 14 0 10 -17 11 -37 2z"/>
<path d="M874 577 c3 -10 6 -35 7 -55 1 -30 2 -33 8 -14 l6 24 19 -21 c22 -24
40 -18 26 9 -5 10 -10 28 -10 39 0 11 -5 23 -11 27 -9 5 -10 -1 -5 -22 l6 -29
-26 30 c-16 19 -24 23 -20 12z"/>
<path d="M284 546 c1 -38 2 -39 39 -40 33 -1 37 2 37 24 0 19 -3 21 -12 12 -7
-7 -22 -12 -34 -12 -17 0 -24 7 -27 28 -3 17 -4 13 -3 -12z"/>
<path d="M3105 569 c-62 -4 -10 -6 140 -5 132 0 245 -3 251 -7 7 -4 25 -2 42
4 37 13 78 8 74 -9 -2 -14 2 -15 26 -3 9 5 28 14 42 20 27 11 -382 12 -575 0z"/>
<path d="M604 535 c1 -35 4 -40 27 -42 23 -1 26 2 25 28 -1 21 -6 29 -16 26
-8 -1 -14 -10 -12 -20 2 -9 -2 -17 -7 -17 -5 0 -12 15 -14 33 -4 26 -4 25 -3
-8z"/>
<path d="M160 550 c0 -5 16 -9 35 -8 19 1 35 5 35 10 0 4 -16 8 -35 8 -19 0
-35 -4 -35 -10z"/>
<path d="M2848 553 c28 -2 76 -2 105 0 28 2 5 3 -53 3 -58 0 -81 -1 -52 -3z"/>
<path d="M3455 540 c-13 -6 -15 -9 -5 -9 8 0 22 4 30 9 18 12 2 12 -25 0z"/>
<path d="M4712 487 c-1 -40 -7 -59 -16 -63 -13 -5 -13 -11 1 -40 20 -40 29
-43 37 -10 3 13 8 32 12 43 3 10 -1 7 -10 -7 -14 -24 -15 -21 -18 55 -3 67 -4
70 -6 22z"/>
<path d="M175 520 c-16 -7 -13 -9 18 -9 20 -1 37 4 37 9 0 12 -27 12 -55 0z"/>
<path d="M3365 504 c-27 -13 -43 -24 -35 -23 8 0 35 11 60 24 58 31 40 31 -25
-1z"/>
<path d="M3520 515 c-14 -8 -20 -14 -15 -14 6 0 21 6 35 14 14 8 21 14 15 14
-5 0 -21 -6 -35 -14z"/>
<path d="M1556 504 c-5 -13 -9 -14 -20 -5 -11 10 -16 8 -24 -5 -6 -11 -11 -13
-16 -5 -14 23 -36 11 -36 -19 0 -16 -4 -30 -9 -30 -15 0 -26 43 -12 48 6 2 11
8 11 14 0 6 -7 5 -16 -3 -13 -10 -17 -10 -25 2 -6 9 -9 -2 -7 -35 l3 -50 47
-2 c27 -1 50 2 53 6 3 5 12 7 21 3 12 -4 14 0 8 21 -4 16 -2 26 5 26 14 0 51
-36 51 -50 0 -5 4 -10 8 -10 8 0 -19 94 -30 106 -3 3 -8 -3 -12 -12z m-66 -50
c0 -14 -4 -23 -10 -19 -5 3 -10 15 -10 26 0 10 5 19 10 19 6 0 10 -12 10 -26z"/>
<path d="M1950 498 c0 -13 -4 -29 -9 -37 -7 -11 -13 -6 -27 20 l-17 34 -9 -35
c-16 -64 -20 -67 -33 -20 -12 40 -13 42 -14 15 l-2 -30 -24 30 -25 30 0 -47
c0 -26 5 -50 10 -53 7 -4 9 2 4 19 -8 34 10 34 32 1 21 -33 42 -32 55 2 l10
28 19 -25 c19 -25 19 -25 33 -5 13 16 17 17 31 6 21 -17 89 -22 98 -7 12 17 9
74 -3 81 -16 11 -25 -7 -28 -52 -2 -30 -31 -11 -38 25 l-7 37 -6 -30 -6 -30
-17 33 c-21 38 -27 40 -27 10z m127 -40 c-3 -8 -6 -5 -6 6 -1 11 2 17 5 13 3
-3 4 -12 1 -19z"/>
<path d="M1610 471 c0 -22 5 -43 10 -46 6 -3 10 5 10 19 0 14 5 28 10 31 18
11 11 35 -10 35 -17 0 -20 -7 -20 -39z"/>
<path d="M1666 503 c-3 -4 -6 -27 -5 -52 0 -38 2 -42 9 -23 5 12 13 22 18 22
5 0 14 -10 20 -22 l11 -23 0 22 c2 43 -34 94 -53 76z"/>
<path d="M1733 495 c-3 -9 2 -22 12 -29 12 -8 16 -21 12 -35 -6 -24 8 -29 17
-5 7 18 -10 54 -26 54 -7 0 -6 5 2 15 9 11 9 15 1 15 -6 0 -14 -7 -18 -15z"/>
<path d="M3202 448 c-45 -17 -81 -32 -79 -34 4 -4 113 30 157 50 60 26 9 16
-78 -16z"/>
<path d="M3398 473 c7 -3 16 -2 19 1 4 3 -2 6 -13 5 -11 0 -14 -3 -6 -6z"/>
<path d="M2901 400 c-2 -41 -2 -79 -1 -85 13 -64 13 -78 -3 -72 -10 4 -17 3
-17 -2 0 -13 37 -57 43 -51 11 12 17 60 7 60 -5 0 -10 13 -10 28 0 24 6 30 38
39 l37 11 -40 -5 c-30 -3 -36 -2 -25 6 13 9 13 11 -2 11 -14 0 -18 12 -21 68
l-3 67 -3 -75z"/>
<path d="M4233 430 c0 -25 2 -35 4 -22 2 12 2 32 0 45 -2 12 -4 2 -4 -23z"/>
<path d="M270 455 c0 -18 33 -95 41 -95 5 0 8 24 8 53 -2 48 -2 49 -9 17 l-7
-35 -16 35 c-9 19 -16 31 -17 25z"/>
<path d="M380 450 c0 -5 7 -10 15 -10 19 0 19 -17 0 -50 -22 -38 -18 -43 22
-37 21 4 42 2 50 -5 16 -13 16 -12 -2 37 -13 36 -14 37 -15 13 0 -23 -5 -28
-25 -28 -29 0 -31 7 -9 38 9 13 13 29 10 37 -6 17 -46 21 -46 5z"/>
<path d="M511 439 c-13 -5 -21 -12 -18 -15 3 -3 18 1 34 10 31 17 21 20 -16 5z"/>
<path d="M903 443 c-8 -3 -13 -22 -13 -44 0 -21 -4 -39 -8 -39 -19 0 -41 36
-35 58 4 18 1 22 -16 22 -19 0 -21 -5 -20 -47 1 -27 3 -40 6 -30 6 22 16 22
36 -1 12 -13 27 -17 57 -14 22 2 40 8 40 14 0 5 -9 7 -19 3 -24 -7 -39 14 -20
27 11 7 11 11 2 15 -19 7 -16 21 5 25 9 2 13 6 7 9 -5 4 -16 4 -22 2z"/>
<path d="M1053 443 c-15 -6 -17 -79 -3 -88 6 -3 10 4 10 18 0 14 7 30 15 37
30 25 14 48 -22 33z"/>
<path d="M3295 440 c-13 -6 -15 -9 -5 -9 8 0 22 4 30 9 18 12 2 12 -25 0z"/>
<path d="M577 433 c-11 -11 -8 -81 4 -89 8 -4 9 0 4 15 -8 27 -1 27 41 -5 19
-15 34 -22 34 -17 0 5 -14 19 -30 32 -24 17 -28 25 -20 40 13 25 -13 45 -33
24z"/>
<path d="M657 433 c-15 -14 -6 -29 23 -40 17 -6 30 -7 30 -2 0 5 -11 11 -25
15 -20 5 -23 9 -14 20 11 14 -1 20 -14 7z"/>
<path d="M716 431 c-3 -5 0 -11 8 -14 7 -3 17 -25 21 -49 4 -23 9 -38 12 -31
2 6 0 28 -6 48 -9 33 -8 37 12 45 20 8 19 9 -10 9 -17 1 -34 -3 -37 -8z"/>
<path d="M967 433 c-11 -11 -8 -58 5 -71 15 -15 38 -16 38 -2 0 6 -7 10 -15
10 -20 0 -19 10 3 26 16 12 15 13 -7 14 -28 0 -18 15 14 23 16 4 15 5 -6 6
-14 0 -29 -2 -32 -6z"/>
<path d="M350 380 c0 -16 4 -30 8 -30 5 0 7 14 4 30 -2 17 -6 30 -8 30 -2 0
-4 -13 -4 -30z"/>
<path d="M500 379 c0 -30 13 -36 40 -19 12 8 10 10 -10 10 -23 1 -24 2 -7 14
17 13 16 14 -3 19 -17 4 -20 0 -20 -24z"/>
<path d="M3075 400 c-11 -4 -35 -14 -53 -20 -18 -7 -31 -14 -29 -16 4 -4 107
32 115 41 8 7 -10 5 -33 -5z"/>
<path d="M3102 376 c-51 -18 -96 -36 -100 -41 -4 -4 0 -5 8 -2 8 3 51 18 95
32 44 15 84 31 90 36 12 12 12 12 -93 -25z"/>
<path d="M1932 345 c-1 -27 3 -57 8 -65 8 -12 10 -9 10 13 0 17 5 27 15 27 8
0 15 5 15 10 0 6 -9 10 -19 10 -14 0 -21 8 -24 28 -2 15 -5 6 -5 -23z"/>
<path d="M1621 357 c-1 -15 -8 -38 -17 -51 -18 -29 -8 -38 49 -44 36 -3 37 -2
31 23 l-7 27 39 -20 c26 -13 46 -17 59 -11 11 4 35 8 53 8 19 1 35 7 38 16 9
23 23 18 30 -10 3 -14 10 -25 16 -25 10 0 1 38 -14 57 -13 16 -58 6 -74 -16
-10 -13 -12 -12 -18 7 -9 28 -21 28 -41 0 -12 -19 -18 -21 -33 -11 -9 6 -16
17 -14 23 2 8 -5 10 -22 6 -20 -5 -25 -2 -29 16 -2 13 -5 1 -6 -26 -1 -60 -17
-52 -30 15 -6 32 -9 37 -10 16z m169 -47 c0 -5 -4 -10 -10 -10 -5 0 -10 5 -10
10 0 6 5 10 10 10 6 0 10 -4 10 -10z"/>
<path d="M2019 347 c21 -35 21 -87 0 -87 -5 0 -9 -5 -9 -11 0 -21 24 -2 36 28
11 25 10 35 -4 63 -9 19 -23 36 -31 38 -10 3 -8 -6 8 -31z"/>
<path d="M699 353 c-13 -16 -12 -17 4 -4 16 13 21 21 13 21 -2 0 -10 -8 -17
-17z"/>
<path d="M4241 348 c0 -16 -7 -28 -15 -28 -11 0 -11 -8 2 -45 8 -25 18 -45 22
-45 5 0 10 23 12 50 1 28 0 50 -4 50 -4 0 -9 10 -11 23 -4 19 -4 18 -6 -5z"/>
<path d="M1411 334 c0 -11 3 -14 6 -6 3 7 2 16 -1 19 -3 4 -6 -2 -5 -13z"/>
<path d="M1449 331 c11 -7 10 -13 -4 -35 -21 -32 -32 -33 -38 -3 -4 15 -5 12
-4 -8 1 -17 7 -30 15 -29 6 1 48 2 92 3 77 1 80 2 68 20 -9 15 -15 17 -25 9
-10 -8 -13 -5 -13 16 0 14 -4 26 -10 26 -5 0 -10 -11 -10 -25 0 -34 -18 -32
-23 3 -4 25 -4 25 -6 -5 -1 -26 -5 -33 -21 -33 -24 0 -26 22 -5 40 22 18 18
30 -7 30 -17 0 -19 -3 -9 -9z"/>
<path d="M3676 295 c2 -11 4 -28 4 -37 0 -11 5 -15 14 -12 8 3 16 -2 19 -13 3
-10 5 -2 6 17 0 19 -4 42 -9 50 -6 10 -10 11 -10 3 0 -7 -4 -13 -9 -13 -5 0
-11 6 -14 13 -2 6 -3 3 -1 -8z"/>
<path d="M3840 305 c-11 -13 -10 -18 8 -31 26 -18 29 -44 5 -44 -13 0 -14 -3
-5 -12 8 -8 15 -8 27 2 20 17 19 26 -6 51 -11 11 -18 27 -15 35 7 18 2 18 -14
-1z"/>
<path d="M4723 308 c-8 -15 -5 -70 5 -79 4 -4 16 -3 27 1 19 8 19 9 -2 9 -27
1 -31 27 -5 34 16 4 16 5 0 6 -10 0 -18 5 -18 11 0 5 8 14 18 19 16 10 16 10
0 11 -9 0 -20 -6 -25 -12z"/>
<path d="M5122 311 c-14 -8 -21 -85 -10 -97 4 -3 20 -3 35 2 l28 8 -27 4 c-29
3 -38 26 -15 35 10 4 10 6 0 6 -19 1 -16 28 5 40 9 6 13 10 7 11 -5 0 -16 -4
-23 -9z"/>
<path d="M5201 311 c-10 -7 -11 -13 -2 -27 9 -17 10 -17 11 -2 0 9 8 22 18 27
13 8 14 10 2 11 -8 0 -21 -4 -29 -9z"/>
<path d="M5338 313 c-12 -3 -18 -14 -18 -33 0 -28 -22 -50 -49 -50 -17 0 -13
21 7 37 9 8 12 12 5 9 -6 -4 -14 -2 -18 4 -3 6 4 14 17 19 22 9 22 10 2 10
-24 1 -34 -16 -34 -59 0 -33 16 -48 33 -31 15 15 27 14 27 -4 0 -8 5 -15 11
-15 5 0 9 10 7 22 -5 33 18 32 42 -2 12 -16 26 -30 32 -30 6 0 -2 16 -17 36
-23 30 -26 40 -17 59 6 13 8 26 5 29 -7 6 -8 6 -35 -1z"/>
<path d="M2785 285 c-33 -13 -55 -24 -48 -24 6 -1 19 -4 29 -8 11 -4 15 -3 11
4 -4 7 0 9 11 7 9 -3 38 4 62 15 25 11 40 21 33 21 -6 0 -17 2 -25 4 -7 3 -40
-6 -73 -19z"/>
<path d="M4662 285 c-7 -14 -12 -35 -12 -46 0 -24 27 -36 43 -20 9 9 8 11 -5
6 -26 -10 -35 23 -15 57 9 15 13 28 8 28 -4 0 -13 -11 -19 -25z"/>
<path d="M4880 300 c0 -5 5 -10 10 -10 6 0 10 -16 10 -37 0 -20 3 -33 7 -29 4
4 6 22 5 41 -3 25 1 34 15 38 10 3 4 5 -14 6 -18 0 -33 -3 -33 -9z"/>
<path d="M5046 294 c-5 -13 -9 -14 -20 -5 -11 10 -16 8 -21 -8 -3 -11 -2 -29
4 -38 10 -17 10 -17 11 -1 0 11 5 15 15 12 8 -4 15 -1 15 5 0 6 5 11 10 11 6
0 10 -13 10 -30 0 -16 5 -30 10 -30 6 0 8 11 5 25 -3 14 -7 36 -10 50 -6 28
-20 33 -29 9z"/>
<path d="M3730 284 c0 -28 20 -54 41 -54 15 0 19 5 15 16 -3 9 -6 24 -6 35 0
27 -20 24 -21 -3 l0 -23 -9 23 c-11 26 -20 29 -20 6z"/>
<path d="M4797 293 c-4 -3 -7 -22 -7 -42 0 -26 3 -32 10 -21 8 12 11 12 28 -3
26 -24 32 -21 31 11 0 15 -3 21 -6 15 -8 -22 -23 -14 -37 17 -7 17 -15 27 -19
23z"/>
<path d="M3790 274 c0 -11 7 -29 16 -40 14 -18 15 -18 8 6 -3 14 -10 32 -15
40 -7 12 -8 11 -9 -6z"/>
<path d="M4972 250 c0 -19 2 -27 5 -17 2 9 2 25 0 35 -3 9 -5 1 -5 -18z"/>
<path d="M5410 270 c-13 -9 -13 -10 0 -9 8 0 24 4 35 9 20 9 20 9 0 9 -11 0
-27 -4 -35 -9z"/>
<path d="M2680 250 c-18 -12 -2 -12 25 0 13 6 15 9 5 9 -8 0 -22 -4 -30 -9z"/>
<path d="M2970 237 c0 -7 7 -22 15 -33 19 -25 19 -48 0 -40 -8 3 -15 2 -15 -3
0 -13 11 -20 26 -14 19 7 18 42 -3 65 -15 17 -15 20 -3 28 13 8 12 10 -2 10
-10 0 -18 -6 -18 -13z"/>
<path d="M3037 243 c-11 -10 -8 -93 3 -93 5 0 7 7 3 15 -3 9 2 24 12 35 24 26
6 68 -18 43z"/>
<path d="M3143 240 c-19 -8 -23 -17 -23 -55 0 -41 2 -45 24 -45 14 0 28 5 32
11 4 7 -2 9 -16 7 -31 -4 -36 16 -8 30 l23 11 -22 0 c-31 1 -29 19 2 31 14 5
25 12 25 15 0 7 -11 5 -37 -5z"/>
<path d="M2610 230 c-11 -8 -8 -9 14 -6 16 3 31 8 34 11 10 9 -33 5 -48 -5z"/>
<path d="M3222 228 c-7 -7 -12 -24 -12 -39 0 -21 8 -31 32 -43 40 -20 41 -20
28 5 -7 11 -9 27 -6 35 3 8 1 14 -5 14 -5 0 -12 -7 -15 -15 -9 -23 -24 -18
-24 10 0 13 8 29 18 34 9 6 12 11 7 11 -6 0 -16 -5 -23 -12z"/>
<path d="M3300 225 c-8 -9 -10 -28 -6 -50 7 -37 10 -39 41 -25 19 8 19 9 -2 9
-24 1 -32 26 -10 34 7 3 5 6 -6 6 -15 1 -16 5 -7 21 13 24 8 26 -10 5z"/>
<path d="M3080 204 c0 -16 5 -36 10 -44 7 -11 8 -4 6 23 -4 46 -16 62 -16 21z"/>
<path d="M3362 188 c-1 -26 1 -49 6 -51 11 -8 62 4 62 14 0 5 -13 6 -29 3 -29
-6 -30 -5 -34 37 l-4 44 -1 -47z"/>
<path d="M2610 205 c-47 -18 -27 -18 30 -1 25 8 36 15 25 15 -11 0 -36 -7 -55
-14z"/>
<path d="M4203 170 c-5 -19 -6 -19 -18 -4 -14 20 -35 11 -35 -14 0 -13 2 -14
9 -4 7 11 10 10 15 -3 3 -9 0 -25 -8 -36 -14 -20 -10 -73 5 -63 5 3 9 17 9 32
0 15 5 34 10 42 8 12 10 10 10 -10 0 -34 15 -54 33 -47 8 3 19 1 25 -5 30 -30
45 51 17 88 -12 16 -16 17 -24 5 -8 -12 -11 -9 -16 12 -8 32 -25 35 -32 7z
m27 -56 c0 -28 -4 -43 -10 -39 -5 3 -10 26 -10 51 0 28 4 43 10 39 6 -3 10
-26 10 -51z m50 -16 c0 -16 -4 -28 -10 -28 -5 0 -10 19 -10 43 0 31 3 38 10
27 5 -8 10 -27 10 -42z"/>
<path d="M4710 144 l-12 -29 -14 25 c-14 23 -14 23 -9 3 18 -78 28 -82 43 -21
13 50 7 63 -8 22z"/>
<path d="M4747 163 c-2 -5 -3 -24 -3 -43 1 -23 6 -35 16 -36 9 0 10 1 3 3 -18
6 -16 20 5 32 9 6 11 11 5 11 -20 0 -15 28 5 33 13 4 12 5 -5 6 -12 0 -24 -2
-26 -6z"/>
<path d="M5215 151 c-7 -25 -23 -27 -31 -6 -4 8 -10 12 -15 9 -16 -9 -9 -28
16 -47 24 -17 24 -17 34 20 11 39 8 59 -4 24z"/>
<path d="M4319 144 c-12 -15 -11 -19 9 -32 25 -16 29 -42 7 -42 -8 0 -15 -5
-15 -11 0 -6 8 -9 18 -7 25 5 27 44 3 64 -15 13 -18 21 -9 31 6 7 8 13 5 13
-2 0 -11 -7 -18 -16z"/>
<path d="M4401 118 c-1 -36 -5 -47 -18 -50 -16 -3 -16 -4 -2 -10 31 -12 41 5
31 58 l-10 49 -1 -47z"/>
<path d="M4444 146 c-3 -7 -4 -33 -2 -57 2 -37 7 -45 26 -47 12 -2 22 1 22 7
0 6 -9 11 -20 11 -28 0 -26 36 3 44 l22 7 -25 10 -25 10 25 14 c25 14 25 14 2
15 -12 0 -25 -6 -28 -14z"/>
<path d="M4810 146 c0 -7 -2 -29 -5 -47 -5 -30 -4 -31 5 -10 l10 24 23 -20
c37 -33 54 -35 77 -6 29 37 27 73 -5 73 -20 0 -25 -5 -25 -24 0 -13 -3 -32 -6
-41 -6 -14 -8 -14 -25 1 -11 9 -19 28 -19 41 0 14 -6 23 -15 23 -8 0 -15 -6
-15 -14z m120 -9 c0 -7 -7 -22 -15 -33 -14 -18 -14 -17 -15 14 0 22 5 32 15
32 8 0 15 -6 15 -13z"/>
<path d="M4960 121 c0 -22 4 -42 8 -45 5 -3 37 -1 72 4 48 7 66 6 72 -3 4 -7
7 3 7 23 -1 19 -3 27 -6 18 -2 -10 -11 -18 -18 -18 -7 0 -20 -3 -29 -6 -12 -5
-16 0 -16 20 0 14 -4 26 -10 26 -5 0 -10 -11 -10 -25 0 -20 -5 -25 -25 -25
-29 0 -32 7 -7 27 9 8 11 12 5 8 -21 -10 -36 4 -22 21 9 11 8 14 -5 14 -12 0
-16 -10 -16 -39z"/>
<path d="M5246 134 c-3 -9 -6 -26 -6 -38 0 -19 4 -22 29 -18 18 2 31 11 34 23
6 24 -10 24 -36 2 -20 -18 -20 -17 -14 15 7 34 3 43 -7 16z"/>
<path d="M5151 94 c0 -11 3 -14 6 -6 3 7 2 16 -1 19 -3 4 -6 -2 -5 -13z"/>
</g>
</svg>
