<?xml version="1.0" standalone="no"?>
<!DOCTYPE svg PUBLIC "-//W3C//DTD SVG 20010904//EN"
 "http://www.w3.org/TR/2001/REC-SVG-20010904/DTD/svg10.dtd">
<svg version="1.0" xmlns="http://www.w3.org/2000/svg"
 width="468pt" height="367pt" viewBox="0 0 468 367"
 preserveAspectRatio="xMidYMid meet">
<metadata>
Created by potrace 1.8, written by Peter Selinger 2001-2007
</metadata>
<g transform="translate(0,367) scale(0.093600,-0.093600)"
fill="#000000" stroke="none">
<path d="M387 3610 c-55 -65 -56 -142 -2 -156 32 -8 75 10 75 31 0 18 -4 19
-30 3 -46 -29 -79 46 -45 99 14 20 22 24 46 19 21 -4 29 -2 29 8 0 13 -20 26
-40 26 -4 0 -19 -13 -33 -30z"/>
<path d="M153 3593 c-43 -4 -61 -23 -23 -23 17 0 19 -3 8 -19 -9 -14 -9 -26
-1 -43 6 -13 8 -37 6 -54 -5 -35 8 -45 50 -37 25 5 27 9 27 52 l0 47 -40 -4
c-24 -3 -40 0 -40 6 0 6 19 12 43 14 44 3 58 21 20 26 -28 4 -29 10 -5 28 9 7
13 13 7 12 -5 -1 -29 -3 -52 -5z m46 -136 c13 -16 5 -27 -21 -27 -20 0 -21 1
-12 24 7 20 18 20 33 3z"/>
<path d="M235 3590 c-18 -7 -18 -8 7 -15 31 -8 58 -1 58 15 0 12 -36 12 -65 0z"/>
<path d="M145 3265 c-7 -129 -8 -135 -29 -134 -20 0 -20 1 -2 8 14 5 16 10 8
15 -7 4 -12 18 -12 32 0 23 -1 24 -16 9 -9 -9 -14 -25 -11 -35 3 -11 1 -23 -4
-26 -18 -11 -8 -24 15 -18 14 3 29 0 38 -10 11 -10 19 -11 26 -4 7 7 25 3 57
-11 26 -12 56 -21 66 -21 10 0 21 -4 24 -10 3 -5 13 -10 21 -10 23 0 6 19 -34
38 -29 13 -39 25 -46 55 -9 36 -11 37 -53 37 -24 0 -43 4 -43 9 0 45 63 59 80
19 6 -16 7 0 4 47 -4 39 -6 77 -6 85 2 46 -8 60 -42 60 l-34 0 -7 -135z m56
75 c25 -14 24 -37 -1 -45 -25 -8 -40 1 -40 24 0 31 11 36 41 21z"/>
<path d="M290 3276 c0 -9 52 -96 61 -101 15 -10 10 22 -6 35 -20 17 -19 31 2
23 21 -8 109 -61 151 -91 18 -13 37 -22 43 -20 6 2 -27 28 -73 58 -55 37 -77
56 -65 58 24 5 21 29 -5 36 -25 6 -108 8 -108 2z"/>
<path d="M595 3075 c27 -22 55 -33 55 -21 0 7 -66 46 -76 46 -5 -1 5 -12 21
-25z"/>
<path d="M690 3015 c0 -8 53 -52 57 -47 9 7 1 17 -26 34 -17 11 -31 17 -31 13z"/>
<path d="M835 2915 c26 -21 55 -32 55 -21 0 5 -69 46 -78 46 -4 0 7 -11 23
-25z"/>
<path d="M920 2865 c0 -8 24 -29 54 -46 13 -8 17 -8 14 1 -4 13 -68 55 -68 45z"/>
<path d="M1031 2784 c15 -18 69 -47 75 -41 3 3 -16 16 -42 31 -27 15 -41 19
-33 10z"/>
<path d="M1170 2690 c19 -16 39 -30 45 -30 11 0 -30 35 -60 51 -11 5 -4 -4 15
-21z"/>
<path d="M1545 2702 c30 -18 113 -59 370 -182 72 -34 132 -66 133 -71 2 -5 11
-9 19 -9 10 0 13 6 9 16 -3 9 -6 24 -6 34 0 10 -12 32 -26 49 -20 24 -34 31
-63 31 -20 0 -47 -7 -60 -16 -28 -20 -40 -10 -65 58 -10 28 -25 50 -37 53 -32
11 -76 9 -108 -5 -29 -11 -37 -9 -105 24 -80 38 -110 48 -61 18z m252 -63 c31
-11 43 -26 43 -51 0 -20 -14 -17 -78 20 -32 18 -40 27 -30 33 17 11 31 11 65
-2z m212 -102 c29 -15 48 -57 25 -57 -8 0 -38 12 -67 26 -45 23 -49 28 -32 35
29 11 47 10 74 -4z"/>
<path d="M1450 2694 l-35 -14 35 5 c19 3 39 10 44 15 14 14 -2 12 -44 -6z"/>
<path d="M1350 2669 c-71 -20 -216 -68 -253 -84 l-39 -16 7 -77 c14 -149 31
-215 62 -239 l28 -23 1 -197 c0 -180 2 -203 23 -258 31 -82 74 -144 180 -255
88 -92 148 -188 166 -263 7 -26 22 -44 31 -35 7 8 -43 144 -68 184 -14 21 -45
59 -69 84 -123 125 -187 211 -221 294 -19 45 -22 72 -22 239 -1 137 2 187 10
187 21 0 50 -111 53 -199 3 -100 10 -120 56 -174 40 -46 95 -150 95 -179 0
-10 7 -18 15 -18 12 0 12 4 0 28 -7 15 -30 62 -50 104 -20 42 -49 93 -65 114
-17 20 -30 40 -31 43 0 3 -2 39 -4 79 -3 68 -2 72 18 73 104 5 112 14 77 87
-11 22 -20 45 -20 50 0 5 -9 17 -20 27 -19 17 -42 17 -82 0 -11 -4 -18 -3 -18
4 0 15 61 41 96 41 65 0 136 -102 170 -245 29 -119 47 -151 99 -174 83 -37
244 -215 269 -298 5 -15 15 -23 29 -23 17 0 27 -13 46 -55 13 -30 27 -55 32
-55 12 0 13 -1 -21 68 -16 34 -30 65 -30 67 0 3 -18 43 -40 90 -22 47 -40 89
-40 95 0 6 -7 25 -16 41 -8 17 -13 33 -10 36 3 4 13 -11 22 -33 9 -21 30 -68
46 -104 16 -36 40 -87 53 -115 12 -27 26 -61 30 -75 12 -41 35 -81 44 -76 4 3
-6 34 -23 68 -37 75 -99 209 -121 261 -19 47 -4 50 48 10 20 -16 74 -52 121
-82 72 -45 84 -56 74 -69 -11 -12 -14 -11 -22 7 -13 31 -23 26 -18 -9 2 -16 6
-30 9 -30 10 0 63 34 63 41 0 3 -73 54 -162 113 -277 182 -276 182 -277 290
-1 53 6 55 58 16 106 -82 137 -104 182 -130 28 -17 47 -26 44 -20 -3 6 -23 19
-43 29 -20 11 -47 28 -59 40 -19 18 -90 68 -158 111 -13 8 -27 11 -31 7 -11
-11 -8 -137 5 -169 6 -17 20 -28 39 -33 23 -5 36 -19 61 -66 17 -32 31 -64 31
-69 0 -6 19 -49 41 -95 23 -47 39 -88 36 -92 -4 -3 -14 11 -23 32 -35 85 -182
243 -266 286 -47 24 -88 79 -58 79 5 0 33 -16 60 -36 52 -37 69 -40 52 -7 -5
10 -15 44 -22 75 -6 32 -16 60 -21 63 -5 4 -9 26 -9 51 0 34 -4 44 -16 44 -13
0 -15 7 -11 35 3 21 2 35 -4 35 -15 0 -169 102 -169 112 0 4 -7 8 -15 8 -8 0
-23 8 -33 18 -20 18 -58 42 -67 42 -4 0 -3 -21 1 -46 5 -35 4 -45 -5 -39 -8 4
-11 25 -10 52 3 38 -1 48 -21 62 -37 26 -110 66 -81 44 52 -38 60 -49 66 -88
l5 -40 -14 35 c-12 29 -15 31 -15 12 -1 -12 6 -39 14 -59 18 -43 18 -43 1 -43
-17 0 -22 15 -31 91 -5 47 -10 58 -28 63 -11 3 -23 3 -25 1 -3 -3 0 -33 6 -67
l11 -63 -4 60 c-3 33 -2 56 0 50 12 -25 42 -185 35 -185 -10 0 -20 25 -21 53
-1 17 -3 15 -9 -8 -7 -28 -8 -28 -9 -5 -1 20 -3 22 -11 10 -13 -21 -20 -10
-37 67 -25 111 -27 127 -15 119 6 -3 14 -28 17 -54 6 -44 33 -129 34 -107 1
18 -30 158 -38 173 -4 7 -12 12 -17 10 -5 -1 -10 11 -12 29 -4 36 -1 38 101
74 l69 23 81 -43 c45 -24 102 -57 126 -73 24 -16 45 -27 48 -25 2 3 -12 15
-32 27 -20 12 -34 25 -31 28 3 2 27 -9 53 -27 26 -17 42 -31 35 -31 -22 0 -3
-19 46 -46 56 -30 176 -101 215 -128 15 -10 30 -16 33 -13 3 2 -11 15 -31 27
-20 12 -34 24 -32 27 7 6 137 -67 137 -77 0 -19 -24 -22 -36 -6 -11 16 -17 17
-51 6 -21 -7 -50 -21 -64 -31 -14 -10 -48 -26 -75 -36 l-49 -19 -1 -54 -1 -55
6 49 c3 28 12 52 21 57 74 38 169 79 182 79 8 0 23 -9 33 -20 17 -19 17 -20
-29 -39 -25 -11 -46 -23 -46 -26 0 -5 99 37 127 55 16 11 16 11 1 6 -22 -7
-22 -7 -3 32 12 24 32 37 93 62 42 17 86 35 97 40 11 5 31 12 43 15 21 6 23 4
17 -17 -10 -32 -24 -41 -131 -84 -52 -20 -93 -39 -91 -41 3 -2 44 12 92 32 48
19 95 35 105 35 24 0 40 22 47 64 5 31 3 36 -13 36 -11 0 -28 7 -38 15 -29 22
-42 18 -15 -4 l23 -18 -50 -22 c-27 -13 -67 -30 -89 -38 -22 -9 -44 -19 -50
-23 -36 -26 -66 -20 -171 34 -60 31 -113 52 -122 49 -9 -4 -13 -2 -9 4 4 6
-42 42 -106 84 -125 82 -138 89 -118 66 19 -23 12 -22 -60 15 -43 22 -58 33
-46 36 14 3 16 7 7 18 -13 14 -4 20 65 43 39 12 11 12 -35 0z m-55 -39 c3 -5
-1 -10 -10 -10 -9 0 -13 5 -10 10 3 6 8 10 10 10 2 0 7 -4 10 -10z m271 -178
c-4 -3 -14 2 -24 12 -16 18 -16 18 6 6 13 -6 21 -14 18 -18z m-226 -118 c0 -8
-4 -12 -10 -9 -5 3 -10 10 -10 16 0 5 5 9 10 9 6 0 10 -7 10 -16z m30 -20 c0
-8 -4 -12 -10 -9 -5 3 -10 13 -10 21 0 8 5 12 10 9 6 -3 10 -13 10 -21z m60
-55 c0 -11 -4 -17 -10 -14 -5 3 -10 15 -10 26 0 11 5 17 10 14 6 -3 10 -15 10
-26z m57 -46 c-3 -10 -5 -4 -5 12 0 17 2 24 5 18 2 -7 2 -21 0 -30z m-171 -18
c12 -22 25 -50 29 -63 6 -22 5 -23 -45 -20 l-53 3 -15 47 c-12 39 -13 50 -2
63 23 28 62 14 86 -30z m248 -41 c3 -26 6 -61 5 -78 -1 -26 -3 -24 -10 14 -18
99 -20 110 -11 110 5 0 12 -21 16 -46z m-67 4 c-3 -7 -5 -2 -5 12 0 14 2 19 5
13 2 -7 2 -19 0 -25z m118 -193 c5 -28 4 -37 -3 -30 -6 6 -14 28 -17 50 -5 28
-4 37 3 30 6 -5 14 -28 17 -50z"/>
<path d="M1131 2474 c0 -11 3 -14 6 -6 3 7 2 16 -1 19 -3 4 -6 -2 -5 -13z"/>
<path d="M3676 2414 c-3 -9 -6 -26 -6 -39 0 -33 37 -130 55 -145 8 -7 15 -23
15 -35 0 -17 11 -27 52 -44 28 -12 53 -20 54 -18 2 2 -27 33 -65 69 -57 56
-71 76 -84 124 -11 39 -13 62 -7 75 12 22 13 29 1 29 -5 0 -12 -7 -15 -16z"/>
<path d="M4021 2405 c-5 -19 0 -150 6 -174 4 -17 2 -22 -8 -19 -16 5 -68 104
-68 133 -1 14 -4 16 -12 8 -8 -8 -7 -25 5 -61 20 -58 56 -102 85 -102 11 0 23
-4 26 -10 3 -5 11 -10 17 -10 6 0 1 11 -11 24 -18 19 -23 41 -30 122 -5 55 -9
95 -10 89z"/>
<path d="M3750 2376 c0 -18 62 -135 80 -151 18 -16 17 -11 -7 22 -17 23 -36
63 -43 88 -7 25 -17 45 -21 45 -5 0 -9 -2 -9 -4z"/>
<path d="M3840 2310 c0 -25 63 -96 92 -103 15 -4 11 3 -17 25 -20 17 -44 46
-51 65 -16 38 -24 42 -24 13z"/>
<path d="M3558 2304 c-15 -14 -8 -33 22 -68 41 -46 125 -101 176 -115 22 -6
49 -20 60 -32 l19 -21 -40 8 c-56 11 -70 10 -73 -1 -2 -5 13 -14 32 -19 20 -5
36 -15 36 -22 0 -7 6 -14 13 -17 8 -3 3 -14 -15 -31 -15 -14 -30 -26 -34 -26
-4 0 -20 14 -36 30 -37 39 -71 41 -62 4 6 -25 5 -25 -31 -18 -27 5 -36 4 -31
-5 4 -6 13 -11 20 -11 8 0 19 -7 26 -15 8 -10 31 -15 64 -15 61 0 47 -15 -24
-25 -34 -5 -69 1 -149 25 -73 22 -107 28 -114 21 -8 -8 -8 -14 0 -22 18 -18
125 -41 192 -42 51 -1 60 -3 47 -13 -9 -6 -14 -18 -10 -27 4 -12 -6 -18 -46
-26 -28 -6 -61 -11 -73 -11 -12 0 -29 -4 -37 -10 -28 -17 17 -23 84 -10 36 7
69 9 74 6 5 -3 29 1 53 9 24 8 55 16 69 18 14 2 41 11 60 20 37 18 37 18 -79
-10 -53 -13 -65 -13 -72 -2 -11 18 -7 31 12 38 12 3 12 1 -1 -14 -20 -24 -7
-18 64 30 49 33 68 40 108 40 26 0 48 2 48 5 0 3 -22 13 -50 23 -27 10 -50 21
-50 25 0 4 9 18 19 31 17 22 19 23 42 8 13 -9 44 -19 69 -23 29 -5 51 -15 63
-31 19 -24 51 -31 63 -12 4 6 -1 9 -13 7 -24 -4 -53 18 -53 41 0 13 -8 16 -39
13 -30 -3 -50 3 -83 22 l-43 27 48 -7 c46 -6 67 7 30 20 -10 3 -40 19 -67 35
-27 15 -57 26 -67 24 -37 -10 -204 116 -211 158 -2 12 -6 17 -10 13z"/>
<path d="M4086 2285 c-7 -28 9 -101 24 -110 6 -4 8 -11 5 -16 -4 -5 10 -17 30
-26 23 -11 34 -22 30 -31 -3 -8 0 -12 7 -9 7 2 14 10 14 18 1 8 2 17 3 21 0 4
24 -6 52 -23 55 -32 80 -30 40 3 l-25 19 30 -7 c48 -11 16 13 -54 40 -60 24
-75 23 -50 -2 9 -9 8 -12 -6 -12 -43 0 -100 100 -82 145 3 8 2 15 -3 15 -5 0
-12 -11 -15 -25z"/>
<path d="M2190 2290 c8 -5 22 -9 30 -9 10 0 8 3 -5 9 -27 12 -43 12 -25 0z"/>
<path d="M2260 2260 c8 -6 44 -25 80 -42 36 -17 96 -46 134 -64 38 -19 71 -33
73 -30 2 2 -62 36 -142 75 -136 66 -181 85 -145 61z"/>
<path d="M1958 2213 c7 -3 16 -2 19 1 4 3 -2 6 -13 5 -11 0 -14 -3 -6 -6z"/>
<path d="M2070 2213 c19 -3 39 -9 45 -14 5 -5 20 -9 35 -9 28 0 108 -23 141
-40 68 -37 105 -101 55 -97 -33 3 -33 -16 0 -27 30 -10 30 -9 39 25 5 21 0 34
-25 63 -37 42 -31 46 17 10 28 -21 33 -31 33 -65 0 -21 5 -39 10 -39 20 0 10
68 -15 98 -39 46 -228 104 -328 100 -41 -1 -41 -1 -7 -5z"/>
<path d="M1910 2200 c-8 -5 -10 -10 -5 -10 6 0 17 5 25 10 8 5 11 10 5 10 -5
0 -17 -5 -25 -10z"/>
<path d="M2013 2193 c9 -2 23 -2 30 0 6 3 -1 5 -18 5 -16 0 -22 -2 -12 -5z"/>
<path d="M3937 2183 c-4 -3 0 -14 8 -24 15 -16 13 -16 -28 -12 -46 6 -73 -11
-46 -28 49 -31 109 -27 132 8 6 10 13 10 30 -1 12 -8 38 -17 57 -20 l35 -6
-33 13 c-18 7 -36 17 -40 23 -4 6 -25 17 -47 24 -22 7 -45 16 -51 21 -6 5 -14
6 -17 2z"/>
<path d="M1712 2149 c-24 -12 -41 -23 -38 -26 2 -2 26 7 53 21 58 30 46 35
-15 5z"/>
<path d="M1850 2151 c-13 -25 -13 -64 0 -93 27 -59 165 -117 296 -125 102 -6
152 5 173 38 12 20 11 21 -6 14 -109 -46 -303 -9 -382 72 -28 29 -32 40 -27
66 4 23 3 28 -4 17 -30 -45 3 -107 72 -135 24 -10 38 -19 32 -22 -17 -6 -101
45 -129 78 -27 33 -31 59 -15 90 6 10 8 19 6 19 -3 0 -10 -9 -16 -19z"/>
<path d="M3510 2159 c0 -16 79 -47 135 -53 l50 -6 -47 14 c-26 7 -62 23 -81
35 -38 23 -57 27 -57 10z"/>
<path d="M2593 2099 c22 -11 41 -18 44 -15 4 3 -10 13 -30 21 -51 21 -59 18
-14 -6z"/>
<path d="M1930 2100 c-28 -17 19 -39 84 -40 42 0 68 -6 93 -21 32 -20 40 -21
86 -10 29 6 66 13 82 15 22 2 18 3 -12 5 -31 1 -43 5 -43 16 0 8 -7 15 -15 15
-8 0 -15 -4 -15 -10 0 -5 -16 -10 -36 -10 -29 0 -34 3 -30 18 5 15 -2 17 -57
19 -59 2 -60 1 -23 -8 62 -15 57 -22 -9 -14 -68 8 -76 12 -55 25 12 8 9 10
-10 10 -14 0 -32 -5 -40 -10z m240 -60 c0 -5 -7 -10 -15 -10 -8 0 -15 5 -15
10 0 6 7 10 15 10 8 0 15 -4 15 -10z"/>
<path d="M4440 2100 c0 -10 41 -30 63 -30 17 0 -14 27 -40 35 -14 4 -23 2 -23
-5z"/>
<path d="M2640 2062 c-42 -20 -95 -45 -118 -56 -24 -10 -41 -20 -38 -23 3 -3
11 -1 18 4 7 6 34 18 60 28 27 10 69 28 95 41 25 13 60 24 77 24 l31 -1 -25
-14 c-14 -8 -60 -28 -103 -46 -43 -17 -75 -34 -72 -37 3 -3 15 0 28 6 51 26
140 62 153 62 18 0 17 -4 -2 -86 -8 -37 -13 -73 -10 -80 13 -34 24 -6 35 88
10 94 10 104 -6 115 -25 19 -40 16 -123 -25z"/>
<path d="M2253 2063 c9 -2 23 -2 30 0 6 3 -1 5 -18 5 -16 0 -22 -2 -12 -5z"/>
<path d="M3450 2063 c0 -5 5 -14 12 -21 15 -15 132 -17 123 -2 -4 6 5 10 21
10 44 0 23 7 -38 14 -39 3 -58 2 -58 -5 0 -6 -7 -8 -15 -5 -8 3 -22 9 -30 12
-8 3 -15 2 -15 -3z"/>
<path d="M4385 2035 c27 -13 51 -22 54 -19 11 11 -45 44 -73 44 -27 0 -26 -2
19 -25z"/>
<path d="M4105 2030 c3 -5 25 -10 48 -9 36 1 38 2 17 9 -36 12 -72 12 -65 0z"/>
<path d="M2402 1953 c-28 -14 -50 -28 -48 -30 2 -3 13 0 24 6 24 13 52 14 52
3 0 -4 -25 -16 -56 -27 -31 -11 -52 -21 -46 -23 5 -1 27 4 47 12 50 21 62 20
69 -6 l6 -23 20 24 c11 13 20 29 20 37 0 7 10 20 23 29 22 15 21 15 -10 9 -22
-4 -33 -3 -33 5 0 16 -8 14 -68 -16z m72 -2 c3 -4 3 -11 0 -14 -8 -8 -34 3
-34 14 0 11 27 12 34 0z"/>
<path d="M1308 1963 c-21 -5 -32 -33 -13 -33 8 0 15 5 15 10 0 6 12 10 26 10
14 0 23 4 19 10 -6 10 -17 11 -47 3z"/>
<path d="M4100 1930 c0 -5 13 -10 29 -10 17 0 33 5 36 10 4 6 -8 10 -29 10
-20 0 -36 -4 -36 -10z"/>
<path d="M2270 1888 c-30 -16 -70 -35 -88 -42 l-33 -12 -1 -108 c-1 -104 0
-108 26 -134 l27 -27 42 24 c23 13 71 39 107 58 61 31 92 53 77 53 -4 0 -52
-23 -106 -52 -55 -29 -103 -50 -106 -47 -9 9 -26 179 -20 198 3 9 30 29 60 46
31 16 51 31 44 34 -6 2 2 12 18 22 44 29 14 21 -47 -13z m-5 -28 c-16 -11 -37
-20 -45 -20 -8 1 1 9 20 20 46 25 63 25 25 0z m-81 -164 c3 -69 -4 -96 -17
-63 -6 15 4 150 10 144 2 -3 5 -39 7 -81z"/>
<path d="M3894 1904 c-18 -15 -17 -15 16 -9 19 4 51 11 70 15 33 7 33 8 -16 9
-32 1 -57 -5 -70 -15z"/>
<path d="M2529 1882 c41 -33 81 -54 81 -43 0 6 -24 22 -52 36 -40 20 -47 21
-29 7z"/>
<path d="M4110 1890 c0 -5 15 -10 33 -10 24 0 28 3 17 10 -20 13 -50 13 -50 0z"/>
<path d="M1989 1877 c14 -18 51 -42 51 -33 0 3 -15 15 -32 27 -24 17 -29 18
-19 6z"/>
<path d="M3943 1880 c-28 -11 -31 -34 -4 -25 10 3 39 10 62 14 24 5 35 9 24
10 -11 1 -29 3 -40 6 -11 2 -30 0 -42 -5z"/>
<path d="M2678 1824 c-44 -23 -65 -40 -35 -28 8 3 33 -7 58 -20 47 -28 59 -31
59 -18 0 5 -18 17 -40 27 -22 10 -40 21 -40 25 0 3 15 14 33 23 17 8 28 16 22
16 -5 0 -31 -11 -57 -25z"/>
<path d="M2080 1815 c19 -14 36 -25 39 -25 10 1 -53 50 -63 50 -6 0 5 -11 24
-25z"/>
<path d="M3995 1830 c-8 -13 65 -13 85 0 11 7 2 10 -32 10 -26 0 -50 -4 -53
-10z"/>
<path d="M3883 1799 c-18 -12 -33 -25 -33 -30 0 -11 23 1 60 30 33 27 14 26
-27 0z"/>
<path d="M2481 1800 c-1 -30 27 -95 43 -98 9 -2 16 -7 16 -11 0 -13 106 -165
199 -286 120 -157 303 -344 501 -514 47 -40 112 -96 144 -124 33 -29 86 -72
119 -97 l59 -45 -5 -58 c-3 -32 -11 -65 -18 -73 -28 -34 2 -166 47 -205 22
-19 64 -34 64 -23 0 5 -19 27 -42 51 -38 39 -42 48 -46 104 -4 48 11 160 24
177 1 2 39 -23 85 -54 158 -107 556 -280 755 -328 116 -27 144 -31 144 -18 0
8 -154 53 -182 52 -9 0 -52 13 -95 29 -250 95 -533 229 -632 301 -61 44 -70
55 -80 97 -7 27 -21 80 -32 120 -24 89 -24 111 0 195 30 103 65 152 86 118 3
-5 13 -10 21 -10 8 0 14 5 14 10 0 6 -6 10 -14 10 -17 0 -31 17 -41 49 -7 22
-5 23 23 19 27 -4 31 -1 36 24 5 24 10 28 41 28 26 0 35 4 35 16 0 11 -6 15
-20 11 -25 -6 -90 10 -110 29 -14 12 -16 4 -18 -65 -3 -96 -40 -191 -74 -191
-17 0 -18 -3 -8 -15 9 -11 9 -34 1 -98 -5 -46 -8 -95 -5 -108 7 -33 25 -110
31 -132 4 -16 2 -17 -14 -9 -17 10 -101 80 -247 206 -233 200 -507 477 -550
555 -5 9 -31 42 -57 74 -54 65 -144 205 -137 213 3 2 18 -12 34 -33 15 -20 35
-45 44 -54 8 -9 28 -33 43 -53 56 -72 368 -321 462 -367 11 -5 31 -16 45 -24
14 -8 33 -15 43 -15 29 0 19 20 -20 38 -21 10 -51 26 -68 37 -129 82 -179 118
-239 170 -38 33 -95 81 -126 107 -65 53 -190 195 -190 214 0 8 12 21 28 29 25
15 15 14 -23 -1 -10 -4 -15 0 -15 10 0 10 -9 16 -25 16 -26 0 -34 -15 -12 -23
8 -4 6 -6 -4 -6 -9 -1 -21 9 -27 22 -6 13 -11 16 -11 7z"/>
<path d="M4089 1753 l-24 -27 30 21 c17 11 37 23 45 26 11 4 9 6 -6 6 -11 1
-31 -11 -45 -26z"/>
<path d="M3968 1747 c-24 -9 -39 -27 -23 -27 12 0 55 24 55 32 0 4 -1 8 -2 7
-2 -1 -15 -6 -30 -12z"/>
<path d="M3616 1708 c-4 -13 -8 -63 -11 -113 l-4 -90 8 80 c5 44 11 95 15 113
9 36 2 44 -8 10z"/>
<path d="M2820 1713 c0 -10 76 -63 91 -63 5 0 9 7 9 15 0 8 -6 15 -14 15 -8 0
-31 9 -50 21 -20 12 -36 17 -36 12z"/>
<path d="M1971 1660 c-1 -40 28 -93 60 -111 17 -8 31 -9 60 0 22 7 39 16 39
21 0 5 -15 3 -32 -4 -57 -23 -107 13 -119 87 -6 41 -7 41 -8 7z"/>
<path d="M2395 1630 c4 -12 1 -28 -5 -36 -12 -13 -211 -114 -227 -114 -3 0
-44 -19 -90 -42 -70 -35 -86 -40 -93 -28 -5 8 -11 12 -14 9 -3 -3 1 -14 8 -25
13 -17 17 -18 38 -5 13 8 35 21 50 28 15 8 30 18 33 24 4 5 14 9 24 9 29 0 44
-71 43 -197 0 -62 3 -113 7 -113 5 0 11 35 15 78 6 80 -4 176 -24 212 -6 12
-10 23 -8 25 13 13 246 119 257 116 10 -2 12 4 7 21 -3 13 -6 31 -6 41 0 9 -5
17 -11 17 -6 0 -8 -9 -4 -20z"/>
<path d="M3020 1590 c50 -33 60 -36 60 -17 0 6 -19 20 -43 30 -62 25 -68 21
-17 -13z"/>
<path d="M3134 1532 c8 -14 79 -52 96 -52 5 0 10 4 10 9 0 8 -20 18 -99 49 -9
3 -12 1 -7 -6z"/>
<path d="M3657 1513 c-25 -11 -37 -21 -37 -35 0 -16 4 -19 23 -14 12 4 55 13
95 20 107 20 112 30 17 38 -41 4 -72 1 -98 -9z"/>
<path d="M3290 1452 c0 -22 77 -69 90 -55 5 4 -13 20 -41 35 -27 16 -49 24
-49 20z"/>
<path d="M3600 1399 c6 -11 8 -33 5 -50 l-7 -29 55 0 c41 0 58 5 72 20 14 16
15 20 4 20 -8 0 -20 -5 -26 -11 -6 -6 -23 -9 -39 -7 -22 2 -30 9 -32 28 -4 27
-19 50 -34 50 -5 0 -4 -9 2 -21z"/>
<path d="M3440 1362 c1 -10 76 -62 89 -62 25 0 8 19 -39 43 -27 14 -50 23 -50
19z"/>
<path d="M3500 1222 c-20 -20 -64 -62 -98 -92 -50 -45 -62 -61 -62 -86 0 -46
42 -81 113 -92 31 -5 57 -6 57 -2 0 14 -25 30 -47 30 -38 0 -82 28 -89 56 -9
36 8 62 77 118 56 45 110 107 92 105 -4 0 -24 -17 -43 -37z"/>
</g>
</svg>
