<?xml version="1.0" standalone="no"?>
<!DOCTYPE svg PUBLIC "-//W3C//DTD SVG 20010904//EN"
 "http://www.w3.org/TR/2001/REC-SVG-20010904/DTD/svg10.dtd">
<svg version="1.0" xmlns="http://www.w3.org/2000/svg"
 width="468pt" height="240pt" viewBox="0 0 468 240"
 preserveAspectRatio="xMidYMid meet">
<metadata>
Created by potrace 1.8, written by Peter Selinger 2001-2007
</metadata>
<g transform="translate(0,240) scale(0.157576,-0.157576)"
fill="#000000" stroke="none">
<path d="M23 1465 c0 -22 2 -30 4 -17 2 12 2 30 0 40 -3 9 -5 -1 -4 -23z"/>
<path d="M218 1483 c7 -3 16 -2 19 1 4 3 -2 6 -13 5 -11 0 -14 -3 -6 -6z"/>
<path d="M688 1483 c6 -2 18 -2 25 0 6 3 1 5 -13 5 -14 0 -19 -2 -12 -5z"/>
<path d="M783 1483 c9 -2 23 -2 30 0 6 3 -1 5 -18 5 -16 0 -22 -2 -12 -5z"/>
<path d="M948 1483 c12 -2 32 -2 45 0 12 2 2 4 -23 4 -25 0 -35 -2 -22 -4z"/>
<path d="M1643 1483 c26 -2 68 -2 95 0 26 2 4 3 -48 3 -52 0 -74 -1 -47 -3z"/>
<path d="M1863 1483 c15 -2 39 -2 55 0 15 2 2 4 -28 4 -30 0 -43 -2 -27 -4z"/>
<path d="M328 1453 c6 -2 18 -2 25 0 6 3 1 5 -13 5 -14 0 -19 -2 -12 -5z"/>
<path d="M263 1433 c-4 -10 -14 -23 -22 -30 -14 -10 -13 -11 6 -7 12 4 23 16
26 30 5 28 -1 32 -10 7z"/>
<path d="M381 1425 c8 -16 19 -34 26 -38 7 -4 13 -15 13 -23 0 -11 -6 -14 -22
-9 -20 5 -21 4 -5 -5 18 -11 37 -6 37 10 0 8 -43 76 -56 90 -3 3 0 -8 7 -25z"/>
<path d="M159 1416 c18 -13 39 -33 46 -43 7 -10 16 -15 20 -11 8 7 -19 35 -57
61 -40 26 -47 21 -9 -7z"/>
<path d="M2347 1380 c175 -15 344 -96 450 -214 39 -43 107 -180 100 -201 -3
-7 -1 -17 5 -23 6 -6 13 -62 16 -125 4 -92 1 -124 -13 -168 -40 -123 -113
-232 -204 -306 -72 -58 -111 -78 -212 -104 -71 -18 -100 -21 -184 -15 -174 11
-280 52 -374 145 -53 53 -134 171 -134 198 0 7 -4 10 -8 7 -10 -6 -2 -27 33
-88 58 -98 113 -152 221 -214 130 -75 378 -81 550 -13 128 51 259 207 318 380
23 65 25 214 5 306 -17 80 -77 202 -118 242 -137 132 -276 193 -448 199 l-95
3 92 -9z"/>
<path d="M2171 1369 c-18 -6 -31 -12 -29 -14 2 -3 24 1 49 9 49 16 33 20 -20
5z"/>
<path d="M22 1320 c0 -19 2 -27 5 -17 2 9 2 25 0 35 -3 9 -5 1 -5 -18z"/>
<path d="M2028 1300 c-62 -38 -148 -113 -193 -170 -29 -37 -75 -125 -75 -144
0 -10 -5 -14 -11 -10 -7 4 -9 0 -5 -13 4 -11 1 -33 -5 -49 -7 -16 -11 -57 -10
-92 l2 -63 -38 3 c-21 2 -41 8 -45 13 -5 6 -8 4 -8 -5 -1 -11 -4 -10 -15 4 -8
11 -15 14 -15 8 0 -7 -8 -12 -17 -13 -10 -1 1 -5 24 -11 25 -5 43 -16 46 -26
4 -14 5 -14 6 -1 1 11 9 14 31 11 31 -4 35 -13 55 -110 4 -17 11 -32 16 -32 6
0 7 -5 3 -12 -4 -6 -3 -8 3 -5 8 5 7 21 -2 51 -14 47 -12 56 16 56 13 0 16 5
11 23 -5 18 -7 19 -10 5 -2 -10 -12 -18 -23 -18 -21 0 -24 27 -19 155 4 104
55 226 132 315 29 33 126 109 178 139 30 17 51 31 45 31 -5 0 -40 -18 -77 -40z"/>
<path d="M459 1286 c14 -8 28 -22 32 -32 7 -17 8 -17 8 2 1 13 -9 25 -24 32
-35 16 -46 14 -16 -2z"/>
<path d="M1011 1251 c-12 -16 -18 -36 -15 -45 6 -16 -17 -46 -35 -46 -6 0 -11
-7 -11 -15 0 -8 -8 -15 -17 -15 -17 -1 -17 -1 -1 -11 14 -8 23 -5 41 13 33 32
49 72 34 87 -8 8 -6 11 7 11 12 0 16 5 13 14 -3 8 -1 17 6 19 7 2 9 7 6 11 -4
4 -16 -6 -28 -23z"/>
<path d="M1041 1229 c-1 -14 8 -34 19 -44 11 -10 17 -22 14 -26 -3 -5 1 -9 8
-9 9 -1 8 -4 -3 -13 -17 -13 -15 -37 3 -37 6 0 8 6 5 14 -3 7 0 19 6 25 8 8 5
17 -12 35 -12 13 -26 36 -31 52 l-8 29 -1 -26z"/>
<path d="M21 1170 c0 -27 3 -40 8 -32 6 10 10 10 21 -3 11 -13 9 -15 -9 -15
-11 0 -21 -5 -21 -11 0 -6 9 -8 23 -3 31 9 32 12 13 33 -9 10 -21 32 -26 47
-8 26 -8 25 -9 -16z"/>
<path d="M490 1186 c20 -22 22 -29 10 -36 -8 -5 -18 -6 -22 -4 -4 3 -8 1 -8
-4 0 -5 10 -9 23 -9 35 0 34 40 -1 62 l-27 18 25 -27z"/>
<path d="M161 1184 c0 -11 3 -14 6 -6 3 7 2 16 -1 19 -3 4 -6 -2 -5 -13z"/>
<path d="M221 1164 c0 -11 3 -14 6 -6 3 7 2 16 -1 19 -3 4 -6 -2 -5 -13z"/>
<path d="M810 1160 c0 -5 -9 -10 -20 -10 -12 0 -25 -10 -31 -24 -7 -15 -17
-22 -25 -19 -10 4 -12 0 -8 -11 9 -22 34 -20 34 3 0 24 25 45 45 37 9 -3 15 0
15 10 0 11 6 14 16 10 8 -3 12 -2 9 4 -8 13 -35 13 -35 0z"/>
<path d="M82 1116 c-1 -39 1 -45 23 -50 14 -4 25 -13 25 -20 0 -9 -7 -12 -20
-9 -14 4 -20 0 -20 -11 0 -9 -4 -16 -10 -16 -16 0 -12 -18 10 -40 19 -19 20
-19 20 -1 0 11 -6 22 -12 24 -10 4 -9 8 2 16 22 15 30 13 30 -6 0 -10 7 -31
15 -46 8 -15 12 -34 9 -41 -3 -8 0 -17 6 -21 13 -8 40 12 40 29 0 6 -5 3 -11
-6 -15 -27 -27 -21 -24 12 3 38 13 49 28 29 19 -24 47 -31 47 -11 1 16 1 16
11 -1 5 -9 7 -22 4 -27 -3 -6 -2 -10 4 -10 6 0 8 -12 5 -29 -6 -30 9 -50 22
-30 4 8 3 9 -4 5 -8 -5 -12 3 -11 26 1 38 -17 150 -21 128 -1 -8 -2 -19 -1
-23 1 -5 -3 -6 -7 -3 -5 3 -7 16 -5 29 4 18 0 26 -15 29 -24 7 -42 -9 -42 -34
0 -10 -6 -18 -14 -18 -17 0 -27 35 -14 48 6 6 6 12 -1 16 -6 4 -11 17 -11 29
0 16 -3 19 -9 8 -5 -8 -14 -10 -21 -6 -10 6 -10 10 2 19 8 6 17 16 19 21 2 6
9 10 16 10 22 0 22 11 0 12 -12 1 -31 4 -42 7 -18 5 -21 0 -23 -38z m128 -107
c0 -11 -4 -17 -10 -14 -5 3 -10 13 -10 21 0 8 5 14 10 14 6 0 10 -9 10 -21z"/>
<path d="M1333 1142 c-3 -12 -10 -22 -15 -22 -5 0 -6 -4 -3 -10 10 -17 25 -11
25 9 0 14 5 18 20 14 11 -3 20 -9 20 -14 0 -5 5 -9 11 -9 6 0 9 8 7 18 -2 9
-10 16 -17 14 -7 -1 -20 3 -28 9 -11 10 -15 8 -20 -9z"/>
<path d="M615 1140 c-3 -6 -1 -10 5 -10 13 0 35 -20 41 -37 3 -8 9 -9 18 -4
12 8 12 11 0 23 -27 25 -58 38 -64 28z"/>
<path d="M880 1141 c0 -5 5 -13 10 -16 6 -3 10 -2 10 4 0 5 -4 13 -10 16 -5 3
-10 2 -10 -4z"/>
<path d="M1750 1135 c-11 -13 -10 -14 4 -9 9 3 16 10 16 15 0 13 -6 11 -20 -6z"/>
<path d="M1780 1146 c0 -2 7 -9 15 -16 12 -10 15 -10 15 4 0 9 -7 16 -15 16
-8 0 -15 -2 -15 -4z"/>
<path d="M830 1129 c0 -5 5 -7 10 -4 6 3 10 8 10 11 0 2 -4 4 -10 4 -5 0 -10
-5 -10 -11z"/>
<path d="M1435 1104 c0 -13 2 -24 5 -25 33 -5 46 -10 56 -23 15 -21 24 -20 24
3 0 27 21 37 35 18 16 -23 25 -21 25 4 0 15 4 19 16 15 9 -3 22 -6 30 -6 8 0
14 -9 14 -20 0 -13 5 -18 14 -14 9 3 12 12 9 21 -5 12 -3 14 8 8 8 -5 11 -4 6
0 -4 5 -15 10 -25 11 -9 2 -30 5 -45 8 -19 4 -30 1 -34 -9 -4 -12 -8 -13 -19
-4 -11 9 -19 8 -33 -5 -15 -14 -23 -15 -45 -5 -14 7 -26 18 -26 25 0 7 -3 15
-7 17 -5 3 -8 -6 -8 -19z"/>
<path d="M378 1095 c17 -14 37 -25 45 -25 9 0 18 -8 20 -17 3 -10 4 -7 4 8 -1
20 -5 25 -22 21 -12 -2 -28 5 -39 17 -11 12 -23 21 -28 21 -5 0 4 -11 20 -25z"/>
<path d="M1126 1103 c-7 -17 6 -17 23 0 11 10 14 10 18 0 3 -7 12 -13 20 -13
13 0 13 3 3 15 -14 17 -57 16 -64 -2z"/>
<path d="M1275 1109 c-4 -6 -19 -7 -36 -4 -19 4 -29 3 -29 -5 0 -6 4 -8 10 -5
5 3 18 2 27 -3 13 -7 23 -4 37 9 11 11 14 19 8 19 -6 0 -14 -5 -17 -11z"/>
<path d="M327 1103 c-4 -3 -7 -15 -7 -25 0 -11 -4 -17 -8 -14 -5 3 -6 -9 -4
-27 6 -35 7 -33 21 31 9 43 9 47 -2 35z"/>
<path d="M202 1088 c-7 -7 -12 -16 -12 -22 0 -5 6 -2 13 8 13 17 14 17 30 1 9
-9 17 -12 17 -6 0 18 -36 31 -48 19z"/>
<path d="M25 1060 c3 -44 15 -50 15 -7 0 21 -4 37 -8 37 -5 0 -8 -14 -7 -30z"/>
<path d="M1715 1080 c-3 -5 -4 -14 -1 -19 9 -14 -4 -41 -19 -41 -7 0 -16 6
-18 13 -3 6 -6 2 -6 -10 -1 -16 3 -21 14 -17 9 4 15 0 15 -10 0 -9 7 -16 15
-16 12 0 14 10 11 50 -3 46 6 67 17 38 2 -7 8 -10 12 -6 10 9 -3 28 -20 28 -8
0 -17 -4 -20 -10z"/>
<path d="M418 1008 c3 -38 1 -41 -11 -25 -8 9 -18 17 -23 17 -4 0 -3 -5 4 -12
9 -9 6 -17 -15 -36 -16 -13 -23 -21 -17 -18 14 7 27 -21 18 -37 -5 -9 -4 -9 4
-2 7 6 13 23 14 38 2 18 8 26 18 24 15 -2 31 54 22 81 -9 27 -17 10 -14 -30z"/>
<path d="M1011 1041 c-8 -5 -9 -11 -3 -15 5 -3 12 1 16 9 6 17 6 18 -13 6z"/>
<path d="M1044 1014 c0 -27 4 -34 18 -34 10 0 18 5 18 11 0 5 -4 7 -10 4 -6
-3 -10 5 -10 19 0 38 -15 39 -16 0z"/>
<path d="M1170 1009 c0 -6 -9 -9 -19 -6 -10 2 -25 1 -32 -4 -8 -5 -17 -3 -21
4 -5 8 -8 6 -8 -6 0 -10 6 -17 13 -16 33 4 47 -2 47 -21 0 -12 -7 -20 -17 -21
-15 0 -15 -2 2 -9 31 -13 37 -12 30 10 -8 26 3 62 17 54 5 -4 8 -17 5 -30 -4
-24 7 -33 18 -14 9 15 25 12 25 -4 0 -17 -75 -81 -106 -90 -11 -3 -41 -2 -67
3 -27 5 -47 5 -47 0 0 -5 16 -9 35 -9 48 0 44 -18 -5 -26 -22 -4 -40 -10 -40
-14 0 -10 80 9 98 23 8 6 12 5 12 -4 0 -8 6 -6 19 7 10 10 29 26 41 34 28 18
70 62 70 72 0 5 6 8 14 8 13 0 30 49 17 51 -3 1 -22 3 -41 5 -19 2 -41 6 -47
9 -7 2 -13 -1 -13 -6z m71 -19 c10 0 19 -6 19 -14 0 -21 -58 -15 -64 7 -3 13
0 17 11 13 8 -3 23 -6 34 -6z"/>
<path d="M975 996 c-17 -7 -37 -21 -45 -32 -12 -14 -9 -14 14 4 16 12 37 22
47 22 11 0 19 5 19 10 0 12 2 12 -35 -4z"/>
<path d="M1790 972 c0 -4 17 -6 38 -4 58 5 62 10 10 11 -27 1 -48 -3 -48 -7z"/>
<path d="M2142 975 c2 -3 79 -6 170 -8 92 -1 161 1 155 5 -13 8 -333 11 -325
3z"/>
<path d="M54 959 c-3 -6 3 -17 15 -25 12 -9 18 -20 15 -26 -4 -7 -2 -8 5 -4 8
6 9 12 2 20 -6 7 -9 15 -7 17 2 2 -2 10 -9 16 -10 9 -16 9 -21 2z"/>
<path d="M1898 963 c7 -3 16 -2 19 1 4 3 -2 6 -13 5 -11 0 -14 -3 -6 -6z"/>
<path d="M1988 963 c12 -2 32 -2 45 0 12 2 2 4 -23 4 -25 0 -35 -2 -22 -4z"/>
<path d="M2078 948 c4 -16 7 -18 10 -8 3 8 10 18 16 22 6 5 2 8 -11 8 -17 0
-20 -4 -15 -22z"/>
<path d="M2638 963 c-40 -2 -68 -8 -68 -15 0 -7 -4 -7 -14 1 -9 8 -20 8 -37 1
-24 -10 -24 -10 2 -5 19 3 29 0 33 -12 6 -14 9 -15 15 -4 5 7 30 15 57 17 34
2 44 1 34 -6 -10 -6 -11 -10 -2 -10 6 0 12 -8 12 -17 0 -18 0 -18 -129 -22
-30 -1 -48 14 -54 42 -2 12 -5 -5 -6 -38 -1 -33 -4 -87 -7 -120 -5 -51 -4 -58
8 -44 14 18 129 36 149 24 6 -5 5 -15 -6 -31 -8 -13 -12 -24 -8 -24 5 0 0 -5
-9 -11 -9 -5 -15 -15 -12 -23 6 -16 -27 -18 -39 -2 -6 7 -7 6 -4 -4 2 -8 12
-14 21 -13 12 1 16 -4 11 -15 -10 -27 9 -2 38 49 14 26 24 49 21 52 -3 3 3 8
13 11 17 5 219 46 229 46 2 0 3 17 2 38 -1 35 -1 35 -5 6 -4 -27 -9 -33 -39
-38 -19 -4 -38 -4 -43 -1 -6 3 -12 1 -15 -4 -3 -5 -19 -8 -36 -7 -16 1 -30 -2
-30 -8 0 -5 -3 -6 -6 -3 -4 3 -15 2 -25 -4 -18 -9 -19 -6 -13 78 5 65 11 91
23 98 9 6 54 13 101 16 l85 5 -90 0 c-49 0 -120 -1 -157 -3z m-25 -80 c-7 -2
-19 -2 -25 0 -7 3 -2 5 12 5 14 0 19 -2 13 -5z"/>
<path d="M1056 945 c-6 -16 -9 -17 -16 -5 -8 13 -10 12 -10 -2 0 -9 -8 -23
-18 -30 -10 -7 -22 -19 -26 -26 -7 -11 -4 -11 15 0 13 7 27 17 30 21 3 5 12
10 20 11 8 2 25 8 39 14 23 10 24 11 3 11 -12 1 -23 6 -25 13 -3 7 -7 4 -12
-7z"/>
<path d="M2140 927 c0 -9 -7 -17 -15 -17 -8 0 -15 5 -15 11 0 5 -5 7 -10 4
-15 -9 -2 -25 21 -25 20 0 37 25 25 37 -3 4 -6 -1 -6 -10z"/>
<path d="M894 909 c-10 -12 -36 -30 -56 -40 -42 -21 -49 -30 -18 -22 19 5 111
82 99 83 -3 0 -14 -9 -25 -21z"/>
<path d="M1362 910 c0 -14 2 -19 5 -12 2 6 2 18 0 25 -3 6 -5 1 -5 -13z"/>
<path d="M2441 914 c0 -11 3 -14 6 -6 3 7 2 16 -1 19 -3 4 -6 -2 -5 -13z"/>
<path d="M1454 908 c-4 -7 -3 -8 4 -4 7 4 12 1 12 -9 0 -9 -4 -13 -10 -10 -5
3 -10 0 -10 -8 0 -8 8 -14 18 -13 12 1 17 -6 17 -23 0 -32 -25 -40 -26 -9 -1
18 -2 19 -6 4 -7 -26 12 -42 32 -26 19 16 19 39 -1 78 -17 35 -20 37 -30 20z"/>
<path d="M2693 885 c0 -22 2 -30 4 -17 2 12 2 30 0 40 -3 9 -5 -1 -4 -23z"/>
<path d="M1102 890 c0 -14 2 -19 5 -12 2 6 2 18 0 25 -3 6 -5 1 -5 -13z"/>
<path d="M30 875 c0 -18 4 -23 15 -19 8 4 15 15 15 25 0 10 -7 19 -15 19 -9 0
-15 -9 -15 -25z"/>
<path d="M2726 884 c-9 -24 -7 -54 3 -54 16 0 22 18 9 23 -11 3 -11 9 0 26 7
11 8 21 3 21 -5 0 -12 -7 -15 -16z"/>
<path d="M110 880 c18 -12 30 -13 30 -2 0 4 -10 9 -22 9 -18 2 -20 0 -8 -7z"/>
<path d="M62 850 c-7 -12 -17 -18 -22 -15 -6 3 -10 -3 -10 -14 0 -16 6 -21 28
-20 16 1 20 3 10 6 -23 6 -23 12 4 40 12 13 17 23 12 23 -5 0 -15 -9 -22 -20z"/>
<path d="M2116 853 c6 -4 14 -15 17 -23 5 -11 6 -9 4 4 -1 11 -9 21 -17 23
-10 3 -11 2 -4 -4z"/>
<path d="M111 834 c0 -11 3 -14 6 -6 3 7 2 16 -1 19 -3 4 -6 -2 -5 -13z"/>
<path d="M2085 840 c-3 -5 1 -10 10 -10 9 0 13 5 10 10 -3 6 -8 10 -10 10 -2
0 -7 -4 -10 -10z"/>
<path d="M2056 809 c-4 -20 -10 -28 -17 -23 -7 4 -9 3 -5 -4 3 -6 2 -13 -4
-17 -5 -3 -10 -11 -10 -16 0 -6 14 3 31 20 17 17 37 31 44 31 8 0 17 4 20 10
3 5 0 7 -8 4 -8 -3 -21 2 -30 10 -13 13 -15 12 -21 -15z"/>
<path d="M430 818 c0 -9 -6 -19 -12 -21 -10 -4 -10 -6 0 -6 14 -1 28 26 18 36
-3 4 -6 -1 -6 -9z"/>
<path d="M1093 805 c-23 -13 -45 -20 -49 -16 -3 3 -3 -4 0 -16 4 -13 5 -23 1
-23 -3 0 -10 10 -15 23 -7 18 -9 18 -9 4 -1 -10 -5 -15 -11 -12 -5 3 -10 2
-10 -4 0 -5 -15 -12 -32 -14 -18 -2 -12 -3 15 -2 l47 2 1 -56 c1 -62 2 -61 19
22 10 50 15 59 43 71 20 8 40 10 55 5 12 -5 22 -6 22 -3 0 2 -10 9 -22 14 -22
8 -22 9 -2 9 11 1 24 -3 30 -9 6 -6 15 -6 24 0 10 7 11 10 3 10 -19 0 -26 2
-48 10 -13 5 -34 -1 -62 -15z"/>
<path d="M380 775 c0 -8 2 -15 4 -15 2 0 6 7 10 15 3 8 1 15 -4 15 -6 0 -10
-7 -10 -15z"/>
<path d="M660 774 c-19 -8 -45 -13 -57 -11 -12 2 -20 0 -17 -5 3 -5 -3 -12
-15 -15 -12 -3 -21 -9 -21 -14 0 -5 -12 -7 -27 -4 -22 4 -23 3 -8 -3 17 -8 17
-9 -9 -16 -16 -4 -26 -9 -23 -12 8 -8 87 18 87 28 0 5 10 6 23 3 17 -5 19 -4
7 4 -8 6 -12 11 -9 11 18 0 141 49 124 49 -11 0 -36 -7 -55 -15z"/>
<path d="M1456 781 c-4 -5 -2 -12 3 -15 5 -4 12 -2 15 3 4 5 2 12 -3 15 -5 4
-12 2 -15 -3z"/>
<path d="M860 703 c-53 -54 -60 -63 -23 -31 46 40 110 108 101 108 -1 0 -37
-35 -78 -77z"/>
<path d="M1540 771 c0 -5 -9 -7 -20 -4 -11 3 -20 1 -20 -3 0 -5 16 -9 35 -9
36 0 46 9 20 19 -8 3 -15 1 -15 -3z"/>
<path d="M410 760 c-12 -8 -10 -10 8 -10 13 0 20 4 17 10 -7 12 -6 12 -25 0z"/>
<path d="M1120 758 c0 -4 4 -8 9 -8 6 0 12 4 15 8 3 5 -1 9 -9 9 -8 0 -15 -4
-15 -9z"/>
<path d="M1180 761 c0 -4 53 -11 118 -15 64 -4 119 -11 120 -17 5 -14 19 -11
19 4 0 16 5 15 -127 22 -58 3 -111 8 -117 10 -7 2 -13 1 -13 -4z"/>
<path d="M1781 754 c0 -11 3 -14 6 -6 3 7 2 16 -1 19 -3 4 -6 -2 -5 -13z"/>
<path d="M1920 740 c8 -5 20 -10 25 -10 6 0 3 5 -5 10 -8 5 -19 10 -25 10 -5
0 -3 -5 5 -10z"/>
<path d="M1985 730 c-10 -11 -24 -20 -32 -20 -7 0 -13 -4 -13 -10 0 -5 8 -7
18 -3 20 7 56 42 50 49 -3 2 -13 -5 -23 -16z"/>
<path d="M1860 718 c0 -4 -7 -5 -15 -2 -8 4 -15 1 -15 -5 0 -6 16 -11 36 -11
19 0 33 4 30 9 -4 5 0 11 6 14 7 2 1 4 -14 3 -16 0 -28 -4 -28 -8z"/>
<path d="M2240 720 c-63 -3 -106 -7 -95 -8 42 -5 308 -3 313 3 3 3 -10 5 -29
5 -19 0 -43 2 -54 3 -11 2 -72 1 -135 -3z"/>
<path d="M347 697 c-7 -19 3 -20 43 -6 l25 9 -27 -4 c-15 -2 -29 2 -31 7 -2 6
-6 3 -10 -6z"/>
<path d="M2023 703 c15 -2 39 -2 55 0 15 2 2 4 -28 4 -30 0 -43 -2 -27 -4z"/>
<path d="M2501 697 c2 -1 13 -9 24 -17 19 -14 19 -14 6 3 -7 9 -18 17 -24 17
-6 0 -8 -1 -6 -3z"/>
<path d="M425 680 c-16 -4 -23 -8 -15 -9 11 -1 8 -7 -10 -22 l-25 -21 30 17
c75 45 78 50 20 35z"/>
<path d="M1630 670 c8 -5 26 -9 40 -9 l25 1 -25 8 c-14 4 -32 8 -40 9 -13 1
-13 0 0 -9z"/>
<path d="M1708 673 c7 -3 16 -2 19 1 4 3 -2 6 -13 5 -11 0 -14 -3 -6 -6z"/>
<path d="M310 660 c-24 -8 -24 -8 -2 -9 18 -1 22 -7 22 -31 0 -26 3 -30 29
-30 58 0 95 -54 120 -178 14 -69 14 -115 -1 -130 -9 -9 -9 -12 0 -12 20 0 32
46 26 94 -6 37 -4 45 13 50 10 3 43 32 73 63 30 31 46 51 35 43 -11 -7 -39
-33 -61 -57 -23 -24 -48 -43 -57 -43 -9 0 -20 21 -31 59 -22 78 -48 109 -97
117 -35 6 -39 10 -39 35 0 21 6 29 23 32 20 4 20 4 -3 5 -14 0 -36 -4 -50 -8z"/>
<path d="M1535 660 c17 -4 41 -8 55 -8 l25 0 -25 8 c-14 4 -38 8 -55 8 l-30 0
30 -8z"/>
<path d="M218 643 c12 -2 32 -2 45 0 12 2 2 4 -23 4 -25 0 -35 -2 -22 -4z"/>
<path d="M2300 644 c0 -3 10 -19 21 -36 18 -25 19 -32 8 -40 -11 -8 -10 -9 3
-4 20 6 47 -27 49 -59 1 -17 2 -17 6 -2 2 9 10 17 16 17 7 0 6 5 -3 11 -12 9
-12 10 3 5 10 -3 21 -6 23 -6 11 0 2 -30 -11 -38 -14 -7 -12 -11 7 -28 18 -15
20 -16 9 -1 -17 22 -7 34 14 17 13 -11 13 -9 0 24 -9 20 -14 40 -11 44 2 4 -7
8 -21 9 -33 1 -62 43 -31 43 7 0 2 7 -10 16 -12 8 -20 20 -17 25 4 5 -8 9 -24
9 -17 0 -31 -3 -31 -6z m64 -39 c3 3 2 0 -3 -6 -10 -12 -31 -4 -31 13 0 7 4 7
13 -1 8 -6 17 -9 21 -6z"/>
<path d="M113 633 c15 -2 39 -2 55 0 15 2 2 4 -28 4 -30 0 -43 -2 -27 -4z"/>
<path d="M1853 625 c0 -8 4 -12 9 -9 5 3 6 10 3 15 -9 13 -12 11 -12 -6z"/>
<path d="M1022 569 c-2 -71 9 -81 80 -76 l53 3 -57 2 c-60 2 -71 13 -45 42 10
12 9 12 -5 1 -15 -11 -17 -8 -21 36 l-3 48 -2 -56z"/>
<path d="M2290 610 c0 -5 5 -10 11 -10 5 0 7 5 4 10 -3 6 -8 10 -11 10 -2 0
-4 -4 -4 -10z"/>
<path d="M724 588 l-19 -23 23 19 c21 18 27 26 19 26 -2 0 -12 -10 -23 -22z"/>
<path d="M2479 593 c-13 -16 -12 -17 4 -4 16 13 21 21 13 21 -2 0 -10 -8 -17
-17z"/>
<path d="M70 573 c0 -14 71 -77 154 -137 68 -49 91 -83 83 -123 -2 -13 0 -23
6 -23 13 0 -1 103 -16 112 -9 6 -9 8 1 8 7 0 10 5 6 11 -4 8 -9 7 -15 -2 -6
-11 -13 -9 -31 7 -13 12 -51 40 -85 62 -33 23 -71 53 -82 68 -12 15 -21 22
-21 17z"/>
<path d="M317 565 c-4 -10 -20 -15 -46 -15 -22 0 -42 -4 -45 -9 -9 -14 77 0
93 15 8 7 12 16 9 19 -3 3 -8 -1 -11 -10z"/>
<path d="M1125 560 c-25 -28 -10 -31 126 -27 l114 3 -124 2 c-123 2 -124 2
-106 22 10 11 16 20 13 20 -3 0 -13 -9 -23 -20z"/>
<path d="M1665 539 c-34 -16 -36 -18 -15 -18 25 0 74 17 55 18 -5 1 -3 6 5 11
25 16 -2 10 -45 -11z"/>
<path d="M2221 534 c0 -11 3 -14 6 -6 3 7 2 16 -1 19 -3 4 -6 -2 -5 -13z"/>
<path d="M2516 528 c3 -5 10 -6 15 -3 13 9 11 12 -6 12 -8 0 -12 -4 -9 -9z"/>
<path d="M1398 523 c12 -2 30 -2 40 0 9 3 -1 5 -23 4 -22 0 -30 -2 -17 -4z"/>
<path d="M1481 510 c67 -20 109 -73 109 -136 0 -15 -11 -47 -25 -71 -14 -23
-24 -43 -21 -43 3 0 17 21 33 47 31 54 32 91 2 141 -28 48 -16 51 26 9 19 -19
35 -29 35 -22 0 30 -115 87 -169 84 -9 0 -4 -4 10 -9z"/>
<path d="M2481 486 c-10 -11 -9 -14 1 -12 14 2 23 15 15 22 -2 2 -10 -2 -16
-10z"/>
<path d="M265 483 c16 -3 33 -10 37 -16 5 -8 8 -6 8 6 0 13 -8 17 -37 16 -35
-2 -35 -2 -8 -6z"/>
<path d="M1303 472 c93 -26 99 -33 56 -79 l-34 -38 38 34 c20 19 37 41 37 48
0 18 -58 42 -118 49 -43 4 -41 3 21 -14z"/>
<path d="M2309 477 c12 -15 11 -20 -5 -39 l-19 -22 27 20 c14 10 32 28 39 39
11 18 11 19 -4 6 -14 -11 -20 -11 -34 0 -16 13 -17 12 -4 -4z"/>
<path d="M2340 436 c0 -2 8 -10 18 -17 15 -13 16 -12 3 4 -13 16 -21 21 -21
13z"/>
<path d="M22 410 c0 -14 2 -19 5 -12 2 6 2 18 0 25 -3 6 -5 1 -5 -13z"/>
<path d="M2265 410 c10 -11 20 -20 23 -20 3 0 -3 9 -13 20 -10 11 -20 20 -23
20 -3 0 3 -9 13 -20z"/>
<path d="M2433 407 c-3 -6 -1 -7 5 -3 7 4 12 2 12 -4 0 -6 5 -8 10 -5 6 3 10
10 10 14 0 11 -30 9 -37 -2z"/>
<path d="M2232 384 c15 -15 30 -26 33 -23 2 3 -10 16 -28 29 l-32 23 27 -29z"/>
<path d="M2410 375 c-7 -9 -11 -17 -9 -20 3 -2 10 5 17 15 14 24 10 26 -8 5z"/>
<path d="M2429 358 c-7 -13 -17 -26 -23 -30 -8 -5 -7 -8 1 -8 7 0 19 14 28 30
9 17 13 30 11 30 -3 0 -11 -10 -17 -22z"/>
<path d="M33 330 c0 -25 2 -35 4 -22 2 12 2 32 0 45 -2 12 -4 2 -4 -23z"/>
<path d="M1960 359 c0 -5 9 -9 20 -9 11 0 20 2 20 4 0 2 -9 6 -20 9 -11 3 -20
1 -20 -4z"/>
<path d="M2048 363 c12 -2 30 -2 40 0 9 3 -1 5 -23 4 -22 0 -30 -2 -17 -4z"/>
<path d="M2090 350 c-48 -6 -43 -7 40 -8 52 -1 133 -4 180 -7 60 -3 75 -2 50
4 -49 12 -204 18 -270 11z"/>
<path d="M271 312 c-8 -18 -11 -35 -8 -38 8 -9 29 35 25 54 -2 12 -8 7 -17
-16z"/>
<path d="M1279 323 c-13 -16 -12 -17 4 -4 16 13 21 21 13 21 -2 0 -10 -8 -17
-17z"/>
<path d="M105 310 c10 -11 20 -20 23 -20 3 0 -3 9 -13 20 -10 11 -20 20 -23
20 -3 0 3 -9 13 -20z"/>
<path d="M1229 283 c-13 -16 -12 -17 4 -4 16 13 21 21 13 21 -2 0 -10 -8 -17
-17z"/>
<path d="M140 245 c0 -8 8 -15 18 -14 10 0 12 3 4 6 -6 2 -10 9 -6 14 3 5 0 9
-5 9 -6 0 -11 -7 -11 -15z"/>
<path d="M291 234 c0 -11 3 -14 6 -6 3 7 2 16 -1 19 -3 4 -6 -2 -5 -13z"/>
<path d="M319 234 c-5 -16 -1 -25 17 -34 13 -7 25 -22 27 -34 4 -17 5 -16 6 5
1 19 -5 28 -18 32 -11 2 -21 15 -23 28 -3 23 -4 23 -9 3z"/>
<path d="M1519 233 c-13 -16 -12 -17 4 -4 16 13 21 21 13 21 -2 0 -10 -8 -17
-17z"/>
<path d="M103 195 c0 -22 2 -30 4 -17 2 12 2 30 0 40 -3 9 -5 -1 -4 -23z"/>
<path d="M185 221 c7 -13 85 -54 91 -49 2 2 -1 17 -5 34 -5 16 -10 21 -10 12
-1 -22 -13 -23 -53 -2 -16 9 -27 11 -23 5z"/>
<path d="M1114 198 l-19 -23 23 19 c21 18 27 26 19 26 -2 0 -12 -10 -23 -22z"/>
<path d="M1490 190 c-6 -11 -8 -20 -6 -20 3 0 10 9 16 20 6 11 8 20 6 20 -3 0
-10 -9 -16 -20z"/>
<path d="M33 120 c0 -36 2 -50 4 -32 2 17 2 47 0 65 -2 17 -4 3 -4 -33z"/>
<path d="M1069 163 c-13 -16 -12 -17 4 -4 16 13 21 21 13 21 -2 0 -10 -8 -17
-17z"/>
<path d="M2121 144 c0 -11 3 -14 6 -6 3 7 2 16 -1 19 -3 4 -6 -2 -5 -13z"/>
<path d="M351 124 c0 -11 3 -14 6 -6 3 7 2 16 -1 19 -3 4 -6 -2 -5 -13z"/>
<path d="M999 113 c-13 -16 -12 -17 4 -4 16 13 21 21 13 21 -2 0 -10 -8 -17
-17z"/>
<path d="M954 78 l-19 -23 23 19 c21 18 27 26 19 26 -2 0 -12 -10 -23 -22z"/>
<path d="M113 60 c2 -23 6 -25 62 -27 50 -2 56 -1 35 8 -14 6 -38 8 -53 5 -22
-5 -30 -1 -37 17 -10 22 -10 21 -7 -3z"/>
<path d="M2121 54 c0 -11 3 -14 6 -6 3 7 2 16 -1 19 -3 4 -6 -2 -5 -13z"/>
<path d="M361 43 c7 -12 15 -20 18 -17 3 2 -3 12 -13 22 -17 16 -18 16 -5 -5z"/>
<path d="M884 18 l-19 -23 23 19 c21 18 27 26 19 26 -2 0 -12 -10 -23 -22z"/>
</g>
</svg>
