<?xml version="1.0" standalone="no"?>
<!DOCTYPE svg PUBLIC "-//W3C//DTD SVG 20010904//EN"
 "http://www.w3.org/TR/2001/REC-SVG-20010904/DTD/svg10.dtd">
<svg version="1.0" xmlns="http://www.w3.org/2000/svg"
 width="468pt" height="470pt" viewBox="0 0 468 470"
 preserveAspectRatio="xMidYMid meet">
<metadata>
Created by potrace 1.8, written by Peter Selinger 2001-2007
</metadata>
<g transform="translate(0,470) scale(0.101961,-0.101961)"
fill="#000000" stroke="none">
<path d="M3873 4355 c0 -33 2 -45 4 -27 2 18 2 45 0 60 -2 15 -4 0 -4 -33z"/>
<path d="M910 4315 c0 -38 2 -66 4 -64 8 7 10 118 3 126 -4 3 -7 -24 -7 -62z"/>
<path d="M3110 4200 c-3 -74 -2 -139 1 -143 13 -16 14 8 9 143 l-5 135 -5
-135z"/>
<path d="M3870 4185 l-5 -110 -240 1 c-279 1 -268 -4 30 -14 l210 -7 -2 -205
c-1 -116 1 -192 6 -174 4 16 9 106 10 199 1 92 4 171 6 175 3 4 58 5 122 2 65
-2 115 -1 111 3 -3 4 -57 10 -120 13 l-113 7 -5 110 -6 110 -4 -110z"/>
<path d="M2386 4155 c6 -79 5 -85 -12 -86 -29 0 -138 -5 -234 -9 -66 -3 -46
-5 85 -10 l170 -5 4 -35 5 -35 5 40 6 40 322 0 c177 0 325 3 329 8 4 4 -141 7
-323 7 -292 0 -332 2 -337 16 -3 9 -6 47 -6 85 0 42 -4 69 -11 69 -7 0 -8 -28
-3 -85z"/>
<path d="M922 4165 c-4 -118 4 -111 -129 -118 -160 -8 -162 -23 -3 -18 l130 3
2 -53 1 -54 6 55 6 55 95 6 c112 6 108 11 -10 13 l-85 1 -6 90 -5 90 -2 -70z"/>
<path d="M1651 4178 c0 -31 2 -59 7 -61 4 -3 6 16 4 41 -5 73 -10 82 -11 20z"/>
<path d="M1660 4083 c0 -10 -41 -13 -167 -14 -93 -1 -211 -5 -263 -9 -90 -6
-92 -7 -30 -9 36 -1 154 -2 263 -1 l197 1 0 -105 c0 -59 4 -106 8 -106 4 0 8
46 8 103 l-1 102 95 5 95 5 -65 7 c-36 3 -78 6 -94 6 -16 0 -32 6 -37 14 -6
10 -9 10 -9 1z"/>
<path d="M3268 4063 c12 -2 30 -2 40 0 9 3 -1 5 -23 4 -22 0 -30 -2 -17 -4z"/>
<path d="M1882 4049 c9 -5 47 -5 89 0 l74 8 -90 1 c-57 0 -83 -3 -73 -9z"/>
<path d="M3121 3944 c0 -11 3 -14 6 -6 3 7 2 16 -1 19 -3 4 -6 -2 -5 -13z"/>
<path d="M2396 3925 c-9 -26 -7 -32 5 -12 6 10 9 21 6 23 -2 3 -7 -2 -11 -11z"/>
<path d="M923 3650 c0 -242 1 -253 8 -129 5 75 5 194 0 265 -7 115 -8 100 -8
-136z"/>
<path d="M3122 3885 c0 -16 2 -22 5 -12 2 9 2 23 0 30 -3 6 -5 -1 -5 -18z"/>
<path d="M2404 3785 c0 -60 1 -84 3 -52 2 32 2 81 0 110 -2 29 -3 3 -3 -58z"/>
<path d="M1669 3816 c-4 -4 -4 -110 -1 -236 3 -132 1 -231 -4 -231 -5 -1 -54
-3 -109 -5 -55 -1 -163 -5 -240 -8 -77 -4 -202 -8 -278 -10 -76 -2 -140 -6
-143 -8 -10 -11 26 -30 39 -20 6 5 95 13 197 16 102 3 263 9 358 12 l172 6 0
-178 c0 -97 2 -175 5 -172 4 4 11 146 14 316 l1 32 350 0 350 0 0 -46 c0 -44
-4 -50 -92 -147 -51 -56 -106 -115 -123 -133 -16 -17 -50 -55 -75 -84 -25 -29
-62 -71 -83 -94 -22 -22 -62 -68 -89 -101 -28 -33 -61 -71 -74 -84 -25 -24
-32 -51 -14 -51 6 0 10 -7 10 -16 0 -20 -158 -184 -177 -184 -10 0 -12 11 -9
38 3 20 5 70 5 109 l1 73 30 -5 c17 -3 44 -7 60 -10 22 -3 30 -1 30 10 0 10
-10 15 -29 15 -16 0 -43 3 -60 6 l-32 7 2 148 c1 82 -1 152 -4 156 -8 7 -10
-52 -7 -198 1 -71 -2 -99 -12 -105 -7 -5 -85 -10 -173 -12 -204 -3 -470 -18
-485 -27 -6 -4 -22 -4 -36 -1 -18 5 -24 14 -25 34 l-1 27 -7 -30 -6 -30 -140
-3 c-195 -4 -201 -22 -7 -22 114 0 152 -3 154 -12 0 -7 2 -17 3 -23 2 -5 3
-68 4 -140 1 -90 5 -125 11 -113 6 9 8 76 6 157 -3 125 -2 141 13 141 51 1
208 12 286 20 50 5 161 9 248 8 l157 -2 0 -124 c0 -111 -7 -154 -29 -172 -4
-3 -40 -43 -81 -90 -41 -47 -94 -105 -117 -130 l-42 -45 -23 22 -23 22 -29
-25 c-27 -24 -29 -24 -42 -7 -13 17 -13 17 -14 -4 0 -13 5 -23 11 -23 5 0 7
-5 3 -12 -10 -16 -15 -60 -9 -77 5 -11 8 -11 18 3 12 16 14 16 37 -4 15 -13
20 -24 14 -30 -14 -14 -354 -17 -380 -2 -15 8 -24 8 -32 0 -6 -6 -60 -13 -121
-16 -61 -2 -111 -9 -111 -14 0 -5 52 -7 120 -4 l120 4 1 -106 c1 -59 5 -147 9
-197 6 -71 7 -48 6 110 l-1 200 33 3 c18 2 39 -2 46 -8 10 -7 43 -8 112 -1 54
5 104 7 110 4 7 -2 15 -16 20 -31 l7 -27 7 25 c5 20 12 25 35 23 16 -1 34 2
40 7 14 11 165 -130 165 -154 0 -15 -5 -17 -22 -10 -28 9 -111 9 -155 -1 -21
-5 -49 -27 -85 -69 -96 -109 -100 -117 -89 -182 6 -40 5 -66 -3 -84 -23 -52
-31 -55 -150 -52 -61 2 -117 8 -124 14 -7 6 -43 11 -80 10 -78 0 -152 -28
-189 -70 -50 -56 -103 -142 -101 -164 1 -13 -2 -33 -6 -45 -12 -38 -1 -26 25
25 13 26 56 80 96 120 l72 74 106 -7 c91 -6 108 -10 120 -28 13 -18 15 -19 15
-4 0 15 11 17 78 17 116 0 128 8 176 123 32 76 36 89 36 107 0 10 5 31 12 45
8 19 16 24 31 19 17 -5 19 -3 14 17 -7 29 -2 38 40 67 46 33 163 30 163 -3 0
-8 -10 -17 -22 -21 -95 -28 -182 -98 -193 -154 -19 -100 -46 -160 -92 -200
-25 -22 -51 -40 -57 -40 -7 0 -36 -16 -66 -35 -60 -39 -90 -43 -115 -18 -11
10 -19 12 -23 6 -4 -6 -59 -13 -125 -16 -65 -2 -121 -7 -124 -11 -4 -3 57 -6
135 -6 78 0 142 -3 142 -6 0 -9 -23 -28 -55 -44 -81 -40 -180 -134 -244 -228
-13 -21 -28 -39 -31 -42 -4 -3 -17 -24 -29 -47 -11 -23 -25 -44 -31 -48 -17
-11 -12 -45 8 -45 12 0 28 22 51 69 27 55 55 90 139 172 127 123 166 150 322
229 11 6 27 10 35 10 8 0 15 5 15 10 0 6 9 10 20 10 11 0 20 5 20 10 0 6 6 10
13 10 7 0 28 16 47 35 24 25 37 32 46 24 15 -12 29 5 18 22 -6 11 3 49 34 139
17 47 102 140 129 140 8 0 29 10 46 23 40 28 118 49 133 36 14 -12 16 -434 2
-461 -8 -16 -27 -18 -173 -18 -115 0 -165 3 -165 11 0 8 -4 8 -12 1 -7 -5 -22
-12 -33 -15 -15 -4 -13 -5 8 -6 17 -1 27 -7 27 -16 0 -8 5 -15 11 -15 5 0 7 5
4 10 -4 6 47 10 144 10 83 0 151 -4 151 -8 0 -4 -5 -13 -12 -20 -19 -19 0 -27
20 -9 10 10 22 17 25 17 4 0 7 -50 7 -112 0 -61 3 -108 7 -104 4 4 8 49 9 99
2 139 -4 133 117 141 56 3 216 9 355 12 l253 7 -2 -352 c-1 -255 -4 -354 -13
-357 -34 -13 -382 -6 -586 11 -46 4 -52 3 -35 -7 12 -8 93 -15 215 -20 107 -4
204 -8 215 -9 11 -1 59 2 108 6 l87 8 2 -64 c1 -35 1 -103 0 -151 -2 -56 1
-88 8 -88 6 0 10 54 10 151 l0 151 63 -6 c79 -9 516 -10 524 -2 4 3 -99 6
-227 6 -128 0 -262 5 -297 11 l-63 11 1 349 c1 349 1 349 22 354 12 2 31 6 42
9 21 5 -305 -2 -598 -13 -163 -5 -180 -4 -188 11 -14 27 -7 423 8 423 6 0 38
-23 70 -52 32 -28 76 -67 98 -87 22 -20 45 -36 51 -36 12 0 84 75 84 87 0 3
-8 15 -17 26 -17 18 -17 20 12 46 17 14 55 56 85 91 30 35 61 71 68 78 7 8 25
30 40 50 62 83 82 97 142 97 30 0 61 -4 69 -9 8 -5 16 -4 21 3 9 16 649 31
686 17 10 -4 15 -26 16 -73 l2 -68 5 75 c6 74 7 75 36 81 l30 6 -30 4 -30 4 2
70 2 70 -12 -75 -12 -75 -293 -1 c-161 -1 -313 -5 -338 -9 -60 -9 -73 3 -66
62 3 33 2 44 -7 39 -6 -4 -11 -27 -11 -51 0 -47 -9 -55 -61 -55 -39 0 -37 15
14 69 23 25 51 59 62 74 23 31 40 34 55 10 9 -17 11 -17 21 0 5 9 18 25 28 35
11 9 36 39 56 66 21 27 58 70 84 96 25 25 75 80 111 121 36 40 67 76 70 79 6
6 47 53 130 150 30 35 71 80 90 101 68 71 110 120 110 127 0 4 -19 23 -41 42
-23 19 -47 39 -53 45 -6 6 -27 22 -46 35 -19 13 -37 27 -40 30 -14 16 -100 81
-100 76 0 -9 85 -87 135 -125 22 -16 59 -47 83 -69 l43 -40 -72 -79 c-129
-140 -145 -158 -160 -179 -24 -35 -211 -244 -295 -330 -23 -23 -54 -59 -70
-80 -60 -81 -69 -87 -94 -72 -13 7 -39 29 -59 48 -31 30 -69 62 -164 140 -10
8 -25 27 -33 42 -14 27 -13 29 40 85 29 32 67 74 82 93 16 19 38 45 49 56 11
12 40 45 64 74 25 28 62 70 83 93 21 23 38 45 38 49 0 3 24 32 54 64 30 33 53
61 50 63 -4 5 -74 -69 -112 -119 -15 -19 -38 -46 -52 -60 -14 -14 -50 -54 -80
-90 -30 -36 -61 -72 -70 -80 -21 -21 -110 -120 -138 -153 -19 -23 -26 -26 -43
-17 -11 6 -19 15 -17 19 2 5 48 57 103 116 55 59 116 125 135 147 19 23 56 63
82 90 26 27 78 88 115 136 38 48 85 105 107 127 21 22 54 59 74 83 42 51 67
56 58 11 -5 -28 -4 -29 10 -14 24 23 3 58 -63 104 -28 20 -90 72 -138 115
l-86 79 -52 -51 c-29 -29 -56 -52 -60 -52 -4 0 -7 11 -7 24 0 18 7 26 23 29
l22 4 -22 8 c-22 7 -22 11 -21 151 0 80 -2 148 -6 151 -3 3 -6 -62 -6 -145 l0
-152 -355 0 -355 0 -2 236 c-2 130 -6 233 -9 230z m892 -494 c13 -16 32 -33
41 -38 9 -5 40 -32 70 -60 29 -27 61 -53 71 -57 36 -13 19 -41 -100 -166 -29
-30 -53 -57 -53 -61 0 -4 -10 -18 -21 -31 -12 -13 -33 -39 -48 -58 -14 -19
-48 -58 -76 -86 -27 -27 -67 -71 -87 -96 -21 -25 -87 -96 -147 -159 l-110
-114 -42 29 c-23 15 -69 53 -101 84 -32 31 -70 66 -83 79 -14 12 -25 26 -25
30 0 4 22 30 48 58 26 28 67 74 92 103 25 29 56 65 70 80 14 16 50 57 80 92
30 35 74 82 97 106 36 37 187 202 248 269 27 31 48 29 76 -4z m-616 -827 c31
-30 60 -55 65 -55 6 0 10 -3 10 -7 0 -7 -261 -5 -268 1 -7 8 105 116 121 116
9 0 42 -25 72 -55z m-121 -84 c8 -12 -18 -21 -57 -21 -35 0 -26 16 13 23 14 2
28 5 32 6 4 0 9 -3 12 -8z m171 -13 c7 -7 -3 -8 -30 -3 -22 3 -44 11 -50 17
-7 6 3 7 30 3 22 -4 45 -12 50 -17z m-276 -20 c-2 -2 -16 -14 -31 -27 -20 -17
-28 -20 -28 -10 0 13 50 50 59 42 2 -1 2 -4 0 -5z m233 -4 c89 -22 108 -37
108 -80 0 -31 -9 -44 -67 -100 -37 -35 -73 -64 -80 -64 -9 0 -13 18 -13 58 0
31 -3 74 -6 94 -11 65 -21 32 -16 -52 4 -72 2 -83 -16 -100 -11 -10 -22 -24
-23 -29 -2 -6 -51 -14 -111 -17 l-108 -7 0 24 c-1 24 -1 24 -16 -3 -22 -41
-34 -34 -34 18 0 58 30 124 83 181 49 53 87 75 147 84 72 10 85 10 152 -7z
m145 -9 c23 -14 43 -30 43 -36 0 -5 8 -19 18 -29 34 -36 66 -149 65 -224 -1
-38 -6 -79 -11 -90 -6 -12 -14 -30 -18 -41 -6 -17 -8 -18 -11 -3 -2 9 1 26 6
37 22 41 9 192 -22 261 -14 31 -115 130 -133 130 -7 0 -16 5 -19 10 -12 19 39
10 82 -15z m28 -93 c11 -8 25 -36 46 -92 8 -19 14 -69 13 -110 0 -93 -32 -171
-96 -232 -53 -51 -137 -90 -181 -83 -90 13 -135 23 -162 36 -89 45 -109 64
-140 134 -30 67 -39 125 -19 125 9 0 14 -11 14 -30 0 -19 5 -30 14 -30 9 0 13
11 12 33 -1 32 -1 32 49 32 28 0 71 4 98 9 42 7 47 6 47 -10 0 -18 -65 -83
-111 -111 -26 -15 -53 -69 -43 -84 14 -23 49 -3 110 61 38 39 73 70 80 70 19
0 24 -25 24 -121 0 -53 4 -89 10 -89 6 0 10 40 10 99 0 99 0 100 27 113 17 8
30 25 35 46 9 32 9 32 72 32 l64 0 7 -46 c4 -28 11 -44 18 -41 12 4 12 12 1
58 -5 21 -2 27 15 32 27 7 28 37 1 37 -11 0 -20 5 -20 10 0 6 -4 10 -10 10 -5
0 -10 -6 -10 -14 0 -8 -7 -17 -16 -20 -24 -9 -104 -7 -104 2 0 5 20 26 45 47
26 21 53 51 62 68 14 28 14 31 -2 40 -14 8 -15 11 -4 18 17 11 31 11 44 1z
m-552 -66 c-17 -45 -36 -55 -26 -13 5 19 31 57 39 57 2 0 -4 -20 -13 -44z
m497 14 c0 -15 -100 -110 -116 -110 -24 0 -16 12 43 67 56 53 73 62 73 43z
m179 -8 c9 -9 33 -30 54 -45 44 -33 87 -75 87 -85 0 -17 -218 -257 -226 -249
-2 2 9 30 26 62 16 31 30 65 30 74 0 9 5 22 11 28 11 11 7 157 -6 206 -8 31 0
35 24 9z m-731 -94 c-5 -49 1 -115 18 -180 4 -17 2 -28 -4 -28 -14 0 -132 109
-132 121 0 13 103 137 114 138 5 1 6 -23 4 -51z m50 -150 c7 -7 12 -21 12 -33
0 -12 5 -26 12 -33 6 -6 9 -14 5 -18 -11 -12 -55 96 -58 143 -4 83 4 101 11
25 3 -40 12 -78 18 -84z m360 130 c7 -7 12 -29 12 -49 0 -29 -4 -38 -22 -42
-34 -9 -73 14 -76 46 -2 16 2 35 9 43 14 17 60 19 77 2z m-570 -69 c35 -27
212 -192 321 -299 89 -87 222 -208 242 -221 15 -9 4 -42 -22 -64 -21 -20 -26
-17 -138 95 -14 14 -42 36 -61 49 -19 13 -44 34 -56 45 -11 12 -62 59 -113
106 -146 134 -251 241 -251 256 0 12 37 54 48 54 2 0 16 -9 30 -21z m374 -111
c-7 -7 -12 -8 -12 -2 0 6 3 14 7 17 3 4 9 5 12 2 2 -3 -1 -11 -7 -17z m424
-52 c-38 -71 -83 -108 -146 -119 l-35 -6 30 16 c48 25 115 83 138 119 32 49
41 42 13 -10z m-56 -114 c0 -4 -16 -25 -35 -47 -20 -21 -59 -64 -87 -97 -29
-32 -56 -58 -61 -58 -21 0 -207 172 -207 191 0 12 2 12 41 -8 25 -14 61 -18
139 -19 92 -2 110 1 150 22 49 25 60 28 60 16z m-245 -20 c-3 -3 -11 0 -18 7
-9 10 -8 11 6 5 10 -3 15 -9 12 -12z m-334 -63 c-10 -23 -10 -23 -10 7 -1 17
2 34 7 38 11 12 14 -18 3 -45z m-56 31 c4 -6 -17 -10 -55 -10 -109 0 -177 -68
-210 -207 -13 -57 -24 -67 -34 -30 -16 62 -6 87 73 176 36 41 62 61 77 61 13
0 26 5 29 10 3 6 30 10 60 10 30 0 57 -4 60 -10z m95 -20 c0 -5 -4 -10 -10
-10 -5 0 -10 5 -10 10 0 6 5 10 10 10 6 0 10 -4 10 -10z m-192 -147 c-33 -34
-52 -66 -67 -110 -12 -34 -21 -67 -21 -73 0 -14 -62 -82 -68 -75 -3 3 2 13 11
22 8 10 25 50 37 88 12 39 28 84 35 100 14 31 59 77 86 88 33 13 30 4 -13 -40z
m-494 -214 c6 -5 59 -9 119 -9 73 0 106 -3 102 -10 -9 -14 -189 -11 -315 5
-88 11 -97 17 -45 28 29 6 128 -4 139 -14z m-205 -26 c-8 -10 -20 -22 -27 -26
-7 -5 -30 -23 -50 -40 l-36 -32 24 35 c30 43 71 80 89 80 11 0 11 -3 0 -17z
m501 -63 c-14 -10 -26 -17 -28 -15 -7 7 23 34 38 34 10 1 6 -6 -10 -19z m-50
-29 c0 -10 -24 -21 -48 -21 -13 0 -12 3 4 15 21 16 44 19 44 6z m-560 -15 c0
-3 -4 -8 -10 -11 -5 -3 -10 -1 -10 4 0 6 5 11 10 11 6 0 10 -2 10 -4z m260
-161 c0 -6 -9 -15 -83 -84 -58 -54 -43 -20 16 38 48 47 67 60 67 46z m-240
-299 c0 -3 -4 -8 -10 -11 -5 -3 -10 -1 -10 4 0 6 5 11 10 11 6 0 10 -2 10 -4z"/>
<path d="M4143 3813 c-22 -4 -23 -9 -23 -89 l0 -84 38 0 c73 0 110 59 58 93
-18 12 -24 24 -23 49 2 34 -7 40 -50 31z m22 -39 c-18 -13 -20 -13 -23 2 -5
21 19 37 33 23 7 -7 4 -15 -10 -25z m43 -56 c31 -31 -2 -67 -48 -53 -14 4 -20
15 -20 36 0 25 4 29 28 29 15 0 33 -5 40 -12z"/>
<path d="M3123 3564 c-2 -156 -6 -209 -15 -216 -7 -4 -37 -8 -67 -8 -30 0 -51
-3 -48 -7 4 -3 34 -5 67 -4 l61 2 -1 -78 c-2 -133 0 -187 7 -179 4 4 6 50 5
103 -2 53 0 109 3 124 l6 27 350 -1 c224 -1 349 -6 350 -12 1 -5 1 -77 1 -160
0 -116 2 -136 8 -90 4 33 8 106 9 163 l1 102 95 0 c63 0 95 4 95 11 0 7 -28
10 -82 9 -112 -3 -108 -5 -109 38 l-2 37 -6 -35 -6 -35 -85 -3 -84 -3 24 26
c13 13 20 28 16 32 -5 5 -23 -9 -41 -29 -19 -23 -45 -40 -64 -44 -18 -4 -131
-1 -252 6 l-219 13 0 176 c0 97 -3 191 -7 209 -5 20 -9 -49 -10 -174z"/>
<path d="M3977 3743 c-4 -3 -7 -17 -7 -29 0 -12 -7 -30 -16 -39 -24 -23 -12
-27 39 -14 59 14 71 28 56 63 -9 19 -20 26 -39 26 -15 0 -30 -3 -33 -7z m47
-9 c27 -10 20 -44 -9 -44 -18 0 -25 5 -25 18 0 29 9 36 34 26z"/>
<path d="M3859 3620 c-2 -14 -3 -34 -1 -46 4 -20 5 -19 33 7 29 27 38 49 19
49 -5 0 -10 -4 -10 -10 0 -17 -28 -11 -33 8 -3 12 -5 10 -8 -8z"/>
<path d="M3789 3503 c-16 -19 -29 -36 -29 -38 0 -11 17 -3 42 20 31 28 48 32
48 10 0 -8 4 -15 8 -15 5 0 7 13 4 28 -5 39 -36 36 -73 -5z"/>
<path d="M2750 3340 c-41 -5 -22 -7 74 -8 71 -1 127 0 124 3 -8 8 -140 12
-198 5z"/>
<path d="M2668 3323 c7 -3 16 -2 19 1 4 3 -2 6 -13 5 -11 0 -14 -3 -6 -6z"/>
<path d="M683 3303 c-18 -2 -33 -8 -33 -13 0 -9 54 -5 135 10 38 8 38 8 -15 7
-30 0 -70 -2 -87 -4z"/>
<path d="M3571 3254 c-18 -19 -30 -38 -27 -41 8 -8 74 49 75 65 2 21 -15 13
-48 -24z"/>
<path d="M916 3221 c-9 -79 -8 -477 2 -519 4 -18 7 105 8 273 0 168 -1 305 -2
305 -1 0 -4 -27 -8 -59z"/>
<path d="M3450 3125 c-21 -21 -28 -35 -19 -35 17 1 69 45 69 60 0 18 -15 11
-50 -25z"/>
<path d="M2733 3013 c-18 -20 -30 -39 -28 -42 3 -2 6 -2 8 0 1 2 18 21 36 42
19 20 31 37 25 37 -5 -1 -24 -17 -41 -37z"/>
<path d="M3339 3013 c-33 -39 -41 -53 -33 -53 11 0 74 55 74 64 0 13 -28 5
-41 -11z"/>
<path d="M3110 2955 c0 -38 2 -66 4 -64 8 7 10 118 3 126 -4 3 -7 -24 -7 -62z"/>
<path d="M3832 2965 c0 -16 2 -22 5 -12 2 9 2 23 0 30 -3 6 -5 -1 -5 -18z"/>
<path d="M2660 2929 c0 -5 5 -7 10 -4 6 3 10 8 10 11 0 2 -4 4 -10 4 -5 0 -10
-5 -10 -11z"/>
<path d="M3207 2873 c-20 -20 -35 -38 -32 -41 5 -6 83 59 84 71 2 16 -18 5
-52 -30z"/>
<path d="M3843 2780 c0 -25 2 -35 4 -22 2 12 2 32 0 45 -2 12 -4 2 -4 -23z"/>
<path d="M3108 2720 c-5 -19 -7 -51 -5 -70 l2 -35 -72 -3 c-93 -4 -95 -22 -3
-22 l70 0 1 -132 c2 -155 16 -130 18 30 0 56 4 102 9 103 4 0 152 1 329 2 177
1 325 5 329 10 4 4 -144 7 -329 7 l-336 0 -3 73 c-3 60 -4 66 -10 37z"/>
<path d="M3841 2684 c0 -11 3 -14 6 -6 3 7 2 16 -1 19 -3 4 -6 -2 -5 -13z"/>
<path d="M3832 2632 c-8 -17 -9 -28 -2 -30 6 -2 11 -53 12 -125 l1 -122 7 110
c4 61 8 118 9 128 1 15 16 17 154 18 83 0 170 4 192 9 25 5 -33 7 -152 3 -189
-6 -193 -5 -200 15 -8 20 -9 20 -21 -6z"/>
<path d="M3839 2333 c-2 -10 -1 -45 2 -78 l6 -60 1 78 c2 74 -2 96 -9 60z"/>
<path d="M913 2100 c0 -124 1 -141 7 -85 4 39 4 109 0 155 -6 75 -7 67 -7 -70z"/>
<path d="M3098 2224 c-5 -4 -8 -37 -7 -73 l1 -66 9 45 c10 50 8 106 -3 94z"/>
<path d="M1230 2201 c0 -6 5 -13 10 -16 6 -3 10 1 10 9 0 9 -4 16 -10 16 -5 0
-10 -4 -10 -9z"/>
<path d="M1240 2146 c0 -9 5 -16 10 -16 6 0 10 4 10 9 0 6 -4 13 -10 16 -5 3
-10 -1 -10 -9z"/>
<path d="M3843 2115 c0 -27 2 -38 4 -22 2 15 2 37 0 50 -2 12 -4 0 -4 -28z"/>
<path d="M3842 1963 l-2 -33 -202 0 c-228 -1 -352 -6 -418 -18 -25 -4 102 -6
282 -4 l328 4 9 -23 10 -24 0 23 c1 22 2 22 156 22 97 0 155 4 155 10 0 6 -58
10 -154 10 l-155 0 -4 33 -4 32 -1 -32z"/>
<path d="M2384 1655 c0 -99 2 -138 3 -87 2 51 2 132 0 180 -1 48 -3 6 -3 -93z"/>
<path d="M3165 1741 c-3 -6 -1 -11 4 -11 6 0 11 -7 11 -15 0 -8 -4 -15 -10
-15 -5 0 -10 5 -10 11 0 5 -5 7 -10 4 -6 -4 -9 -22 -7 -41 4 -35 17 -60 17
-31 0 25 25 21 46 -8 18 -24 44 -34 44 -17 0 5 -11 19 -25 32 -19 18 -25 32
-23 59 2 26 -1 36 -14 39 -9 2 -19 -2 -23 -7z"/>
<path d="M3260 1730 c-22 -17 -23 -19 -7 -25 12 -5 17 -18 17 -45 0 -22 5 -42
10 -45 6 -4 10 14 10 45 0 43 3 53 19 57 23 6 17 33 -8 33 -9 0 -27 -9 -41
-20z"/>
<path d="M1250 1720 c0 -5 5 -10 10 -10 6 0 10 5 10 10 0 6 -4 10 -10 10 -5 0
-10 -4 -10 -10z"/>
<path d="M3360 1678 c0 -32 4 -58 10 -58 6 0 10 14 10 30 0 46 28 39 32 -7 2
-26 8 -38 18 -38 8 0 21 -5 29 -9 24 -15 54 32 47 73 -10 64 -45 59 -64 -9
-10 -34 -10 -34 -11 18 -1 49 -2 52 -17 38 -20 -20 -24 -20 -40 2 -12 15 -13
9 -14 -40z m134 -4 c7 -17 -10 -54 -24 -54 -11 0 -14 53 -3 63 11 11 20 8 27
-9z"/>
<path d="M3542 1718 c-5 -7 -13 -39 -17 -70 -7 -56 -7 -58 16 -57 13 0 33 4
44 8 18 8 16 10 -15 19 -32 10 -33 11 -12 17 27 9 28 21 2 28 -28 7 -25 25 5
33 28 7 32 19 9 28 -21 8 -20 8 -32 -6z"/>
<path d="M2918 1713 c-10 -2 -18 -8 -18 -13 0 -15 -32 -20 -48 -8 -14 11 -15
10 -8 -7 4 -11 10 -41 13 -67 3 -27 10 -48 16 -48 5 0 7 13 4 30 -8 39 8 39
43 -1 26 -31 50 -33 50 -5 0 8 7 20 16 27 14 11 19 9 35 -11 29 -39 23 -2 -9
53 -16 26 -31 44 -35 41 -4 -4 -10 -29 -13 -56 -7 -54 -14 -58 -44 -26 -26 28
-26 65 0 73 11 3 20 11 20 16 0 5 -1 8 -2 8 -2 -1 -11 -3 -20 -6z m82 -53 c0
-5 -4 -10 -10 -10 -5 0 -10 5 -10 10 0 6 5 10 10 10 6 0 10 -4 10 -10z"/>
<path d="M3072 1694 c-17 -32 -25 -84 -13 -84 6 0 11 5 11 10 0 14 33 12 49
-2 13 -13 -5 39 -27 79 -9 15 -10 15 -20 -3z"/>
<path d="M3631 1643 c-1 -43 3 -73 9 -73 6 0 10 9 10 20 0 23 15 25 50 5 32
-18 40 -18 40 0 0 8 -5 15 -10 15 -6 0 -23 11 -38 25 -26 25 -27 26 -8 40 11
8 26 15 33 15 7 0 13 5 13 10 0 15 -23 12 -46 -5 -26 -19 -42 -19 -47 3 -3 9
-5 -16 -6 -55z"/>
<path d="M3832 1680 c0 -19 2 -27 5 -17 2 9 2 25 0 35 -3 9 -5 1 -5 -18z"/>
<path d="M3832 1620 c0 -14 2 -19 5 -12 2 6 2 18 0 25 -3 6 -5 1 -5 -13z"/>
<path d="M2775 1575 c-5 -2 -22 -6 -37 -9 -29 -7 -39 -26 -13 -26 8 0 15 -7
15 -15 0 -8 5 -15 10 -15 6 0 10 5 10 10 0 6 5 10 10 10 6 0 10 -11 10 -25 0
-41 17 -28 24 18 4 23 7 44 7 47 0 6 -23 10 -36 5z"/>
<path d="M3842 1560 c0 -14 2 -19 5 -12 2 6 2 18 0 25 -3 6 -5 1 -5 -13z"/>
<path d="M2520 1510 c0 -19 11 -26 23 -14 8 8 -3 34 -14 34 -5 0 -9 -9 -9 -20z"/>
<path d="M2715 1470 c-9 -16 -13 -30 -11 -30 3 0 12 14 21 30 9 17 13 30 11
30 -3 0 -12 -13 -21 -30z"/>
<path d="M3832 1475 c0 -16 2 -22 5 -12 2 9 2 23 0 30 -3 6 -5 -1 -5 -18z"/>
<path d="M3134 1477 c-6 -7 -19 -26 -30 -42 l-19 -30 42 35 c23 19 42 38 42
43 1 11 -23 7 -35 -6z"/>
<path d="M910 1427 c0 -31 4 -57 10 -57 5 0 7 22 3 53 -8 71 -13 72 -13 4z"/>
<path d="M2520 1455 c0 -8 5 -15 10 -15 6 0 10 7 10 15 0 8 -4 15 -10 15 -5 0
-10 -7 -10 -15z"/>
<path d="M1810 1385 c-7 -14 -11 -28 -8 -31 7 -6 58 36 58 48 0 19 -38 6 -50
-17z"/>
<path d="M2520 1400 c0 -5 5 -10 10 -10 6 0 10 5 10 10 0 6 -4 10 -10 10 -5 0
-10 -4 -10 -10z"/>
<path d="M2384 1305 c0 -49 1 -71 3 -48 2 23 2 64 0 90 -2 26 -3 8 -3 -42z"/>
<path d="M2618 1363 c-23 -6 -23 -23 0 -23 40 0 136 -32 152 -50 10 -11 22
-20 29 -20 6 0 11 -3 11 -8 0 -11 41 -34 48 -27 8 7 -73 82 -108 99 -14 7 -38
16 -55 19 -16 3 -37 8 -45 10 -8 3 -23 3 -32 0z"/>
<path d="M3842 1345 c-1 -16 -5 -41 -8 -55 -5 -22 -4 -23 6 -7 6 9 9 34 7 55
-3 32 -4 33 -5 7z"/>
<path d="M3016 1327 c-15 -19 -26 -37 -26 -41 0 -9 80 57 80 67 0 19 -32 4
-54 -26z"/>
<path d="M2520 1340 c0 -5 5 -10 10 -10 6 0 10 5 10 10 0 6 -4 10 -10 10 -5 0
-10 -4 -10 -10z"/>
<path d="M1353 1323 c-22 -8 -14 -23 11 -23 13 0 47 -7 75 -16 81 -27 107 -74
40 -74 -16 0 -29 -4 -29 -10 0 -5 3 -10 8 -10 4 -1 30 -3 57 -5 80 -6 87 -2
64 45 -10 21 -19 46 -19 54 0 8 -4 18 -10 21 -5 3 -10 -3 -10 -14 0 -26 -1
-26 -43 -2 -18 10 -49 22 -68 26 -19 3 -41 8 -49 10 -8 2 -21 1 -27 -2z"/>
<path d="M1713 1268 c-44 -54 -32 -66 18 -17 22 21 37 44 34 49 -10 16 -18 11
-52 -32z"/>
<path d="M2922 1215 c-12 -19 -20 -35 -18 -35 12 0 66 57 60 63 -12 12 -18 8
-42 -28z"/>
<path d="M2520 1200 c0 -5 5 -10 10 -10 6 0 10 5 10 10 0 6 -4 10 -10 10 -5 0
-10 -4 -10 -10z"/>
<path d="M3829 1199 c-3 -7 -3 -50 0 -94 l6 -80 5 75 5 75 228 1 c125 0 230 4
234 7 3 4 -100 7 -229 7 -175 0 -237 3 -240 12 -3 8 -6 7 -9 -3z"/>
<path d="M1143 1153 c15 -2 37 -2 50 0 12 2 0 4 -28 4 -27 0 -38 -2 -22 -4z"/>
<path d="M2520 1140 c0 -5 5 -10 10 -10 6 0 10 5 10 10 0 6 -4 10 -10 10 -5 0
-10 -4 -10 -10z"/>
<path d="M2838 1117 c-14 -17 -25 -34 -23 -36 4 -4 65 57 65 65 0 12 -18 -1
-42 -29z"/>
<path d="M2520 1091 c0 -6 5 -13 10 -16 6 -3 10 1 10 9 0 9 -4 16 -10 16 -5 0
-10 -4 -10 -9z"/>
<path d="M900 878 c0 -94 2 -169 5 -167 8 9 12 339 3 339 -4 0 -8 -77 -8 -172z"/>
<path d="M2762 1023 c-33 -48 -36 -59 -10 -35 13 12 30 22 36 22 7 0 12 9 12
20 0 28 -15 25 -38 -7z"/>
<path d="M1483 999 c-18 -16 -33 -34 -33 -40 0 -15 22 -10 39 9 9 10 24 21 34
25 19 7 23 37 5 37 -7 0 -28 -14 -45 -31z"/>
<path d="M3834 735 c0 -137 2 -195 3 -128 2 67 2 179 0 250 -1 70 -3 16 -3
-122z"/>
<path d="M2520 960 c0 -5 5 -10 10 -10 6 0 10 5 10 10 0 6 -4 10 -10 10 -5 0
-10 -4 -10 -10z"/>
<path d="M2695 932 c-17 -11 -58 -73 -52 -78 6 -6 77 65 77 77 0 11 -11 11
-25 1z"/>
<path d="M1377 892 c-34 -37 -13 -58 22 -23 16 16 17 22 7 30 -10 8 -17 6 -29
-7z"/>
<path d="M2520 900 c0 -5 5 -10 10 -10 6 0 10 5 10 10 0 6 -4 10 -10 10 -5 0
-10 -4 -10 -10z"/>
<path d="M1638 763 c-2 -60 0 -112 5 -118 4 -5 7 44 7 108 0 64 -2 117 -4 117
-3 0 -6 -48 -8 -107z"/>
<path d="M2530 839 c0 -5 5 -7 10 -4 6 3 10 8 10 11 0 2 -4 4 -10 4 -5 0 -10
-5 -10 -11z"/>
<path d="M1261 811 c-28 -38 -26 -59 4 -87 l26 -24 29 30 c36 37 37 54 5 85
-31 32 -39 31 -64 -4z m57 -3 c29 -29 -4 -76 -42 -62 -30 11 -13 74 19 74 6 0
16 -5 23 -12z"/>
<path d="M2568 787 c-20 -23 -32 -44 -27 -46 10 -3 78 67 79 82 0 16 -17 4
-52 -36z"/>
<path d="M2531 794 c0 -11 3 -14 6 -6 3 7 2 16 -1 19 -3 4 -6 -2 -5 -13z"/>
<path d="M1371 681 c-11 -49 -21 -95 -21 -101 0 -21 24 -4 30 21 4 17 14 25
33 27 23 3 30 -2 42 -32 9 -20 22 -36 30 -36 20 0 19 7 -5 37 -11 14 -20 31
-20 38 0 6 -11 34 -25 61 -14 27 -25 55 -25 62 0 6 -4 12 -9 12 -5 0 -18 -40
-30 -89z m49 -7 c0 -17 -5 -24 -20 -24 -23 0 -24 1 -9 34 14 30 29 25 29 -10z"/>
<path d="M891 595 c-2 -49 -5 -97 -6 -105 -1 -8 -3 -21 -4 -27 -1 -10 -27 -13
-95 -13 -52 0 -97 -3 -100 -8 -2 -4 40 -6 95 -5 99 2 99 2 99 -23 0 -13 5 -24
10 -24 6 0 10 8 10 19 0 26 34 29 304 26 127 -1 241 1 255 6 14 4 -105 8 -266
8 l-292 1 -4 118 -3 117 -3 -90z"/>
<path d="M1630 556 c0 -106 0 -106 -79 -107 -44 0 -59 -3 -46 -9 11 -4 41 -5
68 -2 26 2 47 3 48 1 0 -2 3 -40 6 -84 3 -44 7 -82 9 -84 2 -2 4 35 4 82 0 63
3 87 13 87 9 0 8 3 -2 9 -10 6 -12 30 -10 95 2 47 1 86 -3 86 -5 0 -8 -33 -8
-74z"/>
<path d="M3083 505 c0 -27 2 -38 4 -22 2 15 2 37 0 50 -2 12 -4 0 -4 -28z"/>
<path d="M3828 469 c-3 -8 -5 -18 -4 -24 1 -12 426 -14 426 -2 0 4 -90 7 -200
7 -172 0 -200 2 -208 16 -7 13 -10 13 -14 3z"/>
<path d="M3549 455 c-3 -2 -108 -5 -234 -6 -127 -1 -250 -5 -275 -9 l-45 -7
43 -2 42 -1 0 -171 c0 -93 3 -168 8 -166 4 3 6 80 5 171 l-1 166 36 0 c171 1
414 12 433 19 15 6 18 10 8 10 -9 1 -18 -1 -20 -4z"/>
<path d="M3623 453 c15 -2 39 -2 55 0 15 2 2 4 -28 4 -30 0 -43 -2 -27 -4z"/>
<path d="M3738 443 c7 -3 16 -2 19 1 4 3 -2 6 -13 5 -11 0 -14 -3 -6 -6z"/>
<path d="M3837 270 c5 -125 8 -150 16 -139 2 2 -2 65 -9 139 l-12 135 5 -135z"/>
<path d="M887 346 c-4 -10 -6 -39 -6 -64 l1 -47 9 54 c10 58 7 87 -4 57z"/>
</g>
</svg>
