<?xml version="1.0" standalone="no"?>
<!DOCTYPE svg PUBLIC "-//W3C//DTD SVG 20010904//EN"
 "http://www.w3.org/TR/2001/REC-SVG-20010904/DTD/svg10.dtd">
<svg version="1.0" xmlns="http://www.w3.org/2000/svg"
 width="468pt" height="188pt" viewBox="0 0 468 188"
 preserveAspectRatio="xMidYMid meet">
<metadata>
Created by potrace 1.8, written by Peter Selinger 2001-2007
</metadata>
<g transform="translate(0,188) scale(0.156000,-0.156000)"
fill="#000000" stroke="none">
<path d="M2692 1131 c-17 -17 -32 -36 -32 -44 0 -8 -10 -27 -22 -43 -20 -26
-20 -27 -2 -11 20 16 22 16 39 -3 17 -19 20 -19 36 -4 10 9 21 25 25 36 3 11
15 24 27 29 l22 10 -22 -5 c-27 -5 -56 24 -44 43 5 8 14 10 21 6 9 -5 11 -4 6
3 -11 18 -18 15 -54 -17z m25 -64 c-25 -38 -58 -28 -34 11 5 6 5 17 1 24 -4 7
-3 8 4 4 7 -4 12 -2 12 6 0 8 5 7 17 -4 15 -15 15 -19 0 -41z"/>
<path d="M2693 1065 c0 -8 4 -12 9 -9 5 3 6 10 3 15 -9 13 -12 11 -12 -6z"/>
<path d="M422 1050 c0 -19 2 -27 5 -17 2 9 2 25 0 35 -3 9 -5 1 -5 -18z"/>
<path d="M506 1034 c-47 -17 -127 -81 -134 -106 -5 -22 -8 -22 -62 -3 -24 8
-45 14 -47 12 -4 -4 78 -34 167 -62 63 -19 100 -54 100 -94 0 -34 -69 -107
-88 -91 -9 7 -9 7 -2 -2 14 -17 12 -29 -3 -26 -8 2 -26 -11 -40 -28 -30 -36
-34 -46 -13 -38 10 4 12 -2 9 -20 -5 -24 -6 -24 -29 -9 -22 14 -24 14 -30 -1
-11 -28 -24 -17 -24 20 0 29 3 34 18 30 9 -3 23 -2 31 3 9 6 -1 14 -35 26 -27
10 -69 26 -93 36 -47 21 -65 24 -57 11 3 -5 32 -17 66 -27 l61 -18 -3 -56 -3
-56 -60 -17 c-33 -9 -50 -17 -37 -17 13 -1 53 11 88 25 108 43 135 19 52 -46
-42 -34 -88 -94 -88 -117 0 -9 18 0 45 23 22 19 24 23 8 15 -18 -9 -23 -9 -23
1 0 7 4 18 8 24 9 13 54 44 64 44 14 0 9 -23 -9 -43 -10 -11 -12 -17 -5 -13 6
4 12 3 12 -1 0 -19 -26 -44 -55 -51 -23 -6 -31 -16 -35 -38 -4 -22 -15 -34
-50 -52 -24 -12 -54 -32 -65 -44 -20 -22 -20 -22 0 -6 11 8 36 24 55 33 39 20
115 83 88 72 -10 -3 -18 -2 -18 4 0 5 12 14 26 19 35 14 39 13 24 -5 -11 -13
-10 -14 4 -9 10 4 15 13 12 21 -4 8 -1 11 5 7 7 -4 8 -24 4 -54 -4 -30 -3 -50
4 -55 6 -3 11 -2 11 3 0 6 8 9 17 8 13 -1 17 7 18 31 0 17 3 35 8 39 11 11 9
74 -3 74 -5 0 -10 15 -10 34 l0 34 68 -18 c37 -10 85 -23 107 -29 l40 -10 2
-73 c2 -103 19 -144 21 -52 3 103 8 119 44 130 30 9 41 20 52 56 5 16 9 16 61
-2 l57 -20 35 24 c50 34 64 60 70 125 5 54 4 59 -22 79 -15 12 -32 22 -38 22
-6 0 -24 11 -41 23 -60 46 -123 77 -154 77 -29 0 -32 3 -33 33 -2 27 -2 28 -6
7 -6 -32 -15 -41 -31 -32 -9 6 -7 17 7 45 11 22 21 32 24 25 11 -26 7 70 -4
101 -11 32 -53 62 -86 60 -10 0 -36 -7 -57 -15z m104 -24 c24 -24 26 -76 6
-125 -17 -41 -20 -41 -71 -14 -27 13 -51 18 -73 15 -27 -4 -69 5 -91 21 -9 6
33 56 69 79 67 44 130 54 160 24z m-81 -156 c30 -25 40 -57 22 -68 -5 -4 -12
7 -16 24 -4 16 -19 38 -33 49 -15 11 -22 21 -15 21 6 0 25 -12 42 -26z m78
-97 c-6 -44 -35 -122 -43 -115 -2 3 3 24 11 48 8 23 15 48 14 54 0 6 -9 -13
-19 -42 -10 -29 -29 -66 -41 -83 -11 -16 -19 -32 -16 -35 2 -3 14 10 26 28 11
18 21 28 21 22 0 -20 -36 -57 -60 -61 -22 -3 -22 -2 -6 19 33 46 76 138 76
162 0 30 17 43 23 19 4 -14 5 -13 6 5 0 12 4 22 7 22 4 0 4 -19 1 -43z m72 27
c47 -19 66 -55 55 -109 -7 -38 -8 -38 -59 -20 -12 4 -9 0 8 -11 15 -10 27 -25
27 -32 0 -15 -28 -72 -35 -72 -18 0 -125 35 -125 40 0 4 11 27 24 51 14 24 30
65 37 92 10 41 14 47 33 42 20 -5 20 -4 -1 6 -23 12 -31 29 -13 29 5 0 27 -7
49 -16z m61 -2 c30 -24 37 -88 16 -149 -17 -50 -75 -143 -89 -143 -5 0 0 12
11 28 66 93 86 210 43 256 -28 29 -15 35 19 8z m-209 -106 c-17 -34 -40 -71
-51 -81 -31 -28 -24 -5 15 49 19 27 35 53 35 57 0 20 23 63 27 51 3 -7 -9 -41
-26 -76z m259 60 c5 -15 5 -38 -1 -61 -6 -20 -8 -39 -5 -42 2 -3 10 22 17 56
10 46 15 57 22 45 15 -26 1 -80 -33 -130 -17 -26 -29 -48 -27 -51 7 -6 45 50
62 91 11 25 22 36 38 37 l22 2 -22 4 c-13 2 -23 9 -23 14 0 12 5 12 45 -5 35
-15 50 -33 18 -22 -10 3 -5 -5 11 -18 28 -23 29 -27 20 -63 -6 -22 -15 -37
-23 -35 -7 1 -9 -2 -6 -8 9 -15 -24 -50 -46 -50 -27 0 -99 31 -99 42 0 5 -5 6
-10 3 -6 -4 -2 11 8 32 14 28 19 58 18 110 0 40 0 73 2 73 1 0 7 -11 12 -24z
m-276 -38 c-10 -35 -44 -79 -66 -87 -19 -7 -18 -9 11 -38 16 -17 70 -47 118
-67 71 -30 92 -35 110 -27 13 6 23 7 23 1 0 -15 -23 -24 -53 -22 -41 3 -176
68 -210 100 -23 22 -27 24 -21 7 4 -11 4 -17 0 -14 -4 4 -9 21 -11 39 -3 25 0
33 15 37 11 3 20 10 20 16 0 10 59 77 68 77 2 0 0 -10 -4 -22z m-99 -168 c3
-5 1 -10 -4 -10 -6 0 -11 5 -11 10 0 6 2 10 4 10 3 0 8 -4 11 -10z m355 -20
c0 -5 -4 -10 -9 -10 -6 0 -13 5 -16 10 -3 6 1 10 9 10 9 0 16 -4 16 -10z
m-257 -30 c52 -16 105 -30 118 -30 13 0 31 -5 39 -10 11 -7 4 -10 -25 -9 -55
0 -247 51 -253 67 -6 18 19 15 121 -18z m327 10 c13 -8 13 -10 -2 -10 -9 0
-20 5 -23 10 -8 13 5 13 25 0z m-463 -47 c-3 -10 -5 -4 -5 12 0 17 2 24 5 18
2 -7 2 -21 0 -30z"/>
<path d="M670 756 c0 -2 7 -7 16 -10 8 -3 12 -2 9 4 -6 10 -25 14 -25 6z"/>
<path d="M576 582 c12 -11 95 -35 101 -29 2 3 -17 12 -43 21 -53 18 -73 21
-58 8z"/>
<path d="M822 581 c-17 -10 7 -21 46 -21 l27 1 -25 14 c-30 17 -31 17 -48 6z"/>
<path d="M1836 980 c-15 -22 -24 -45 -21 -51 8 -12 -23 -108 -43 -134 -9 -11
-1 -5 18 12 26 25 35 42 36 69 0 20 7 39 14 44 11 7 33 90 26 98 -2 1 -15 -16
-30 -38z"/>
<path d="M2590 967 c-11 -24 -22 -62 -26 -85 l-7 -42 -51 0 c-48 0 -49 -1 -26
-13 50 -25 30 -56 -37 -57 -18 0 -23 6 -23 24 0 15 7 27 18 30 9 3 0 3 -21 1
-117 -13 -249 -134 -289 -266 -9 -33 -16 -39 -38 -39 -14 0 -31 5 -37 11 -11
11 -63 2 -63 -10 0 -11 50 -32 60 -26 5 3 20 3 32 0 21 -5 25 -16 36 -83 14
-90 48 -161 105 -220 140 -144 362 -161 522 -39 46 35 113 123 102 133 -3 3
-12 -7 -20 -23 -9 -15 -33 -45 -54 -65 -34 -33 -44 -37 -95 -39 -32 -1 -61 0
-64 4 -14 14 -22 92 -11 99 9 6 9 8 -1 8 -7 0 -11 9 -8 23 3 12 12 74 21 137
10 63 20 122 23 130 3 8 6 22 8 30 6 30 59 120 72 120 6 0 12 4 12 10 0 5 7 7
15 4 8 -4 12 -10 9 -15 -3 -5 2 -9 12 -9 22 0 38 -21 75 -95 36 -74 39 -109 8
-100 -13 5 -19 3 -15 -3 3 -5 15 -12 26 -15 17 -4 20 0 20 26 0 41 -48 143
-89 190 -18 19 -56 52 -86 72 -51 34 -55 39 -55 75 0 22 9 63 20 92 25 67 17
76 -10 12 -13 -29 -25 -86 -29 -139 -6 -67 -15 -103 -35 -142 -14 -29 -29 -53
-32 -53 -8 0 6 236 17 289 5 23 16 56 25 72 8 16 12 29 9 29 -4 0 -15 -19 -25
-43z m-40 -146 c0 -5 -7 -14 -15 -21 -8 -7 -15 -10 -15 -7 0 3 -3 12 -6 21 -4
12 0 16 15 16 12 0 21 -4 21 -9z m-143 -38 c16 -56 9 -314 -11 -398 -31 -137
-46 -185 -57 -185 -7 0 -8 7 -4 18 59 146 73 339 39 550 -5 35 -4 42 10 42 9
0 19 -12 23 -27z m-47 -30 c18 -65 24 -252 11 -344 -12 -81 -52 -214 -70 -232
-5 -5 5 31 22 80 25 75 31 107 35 218 3 95 0 153 -12 216 -19 101 -19 99 -6
99 5 0 14 -17 20 -37z m188 -68 c-5 -94 -9 -109 -32 -140 -15 -19 -30 -35 -35
-35 -7 0 3 122 14 163 9 31 47 117 53 117 3 0 2 -47 0 -105z m157 81 c18 -13
18 -16 4 -33 -9 -10 -40 -63 -69 -118 -29 -55 -62 -113 -73 -130 -30 -44 -170
-205 -174 -201 -2 2 0 22 6 44 10 49 46 112 97 173 48 58 79 107 126 202 39
79 50 87 83 63z m-370 -108 c26 -164 14 -293 -41 -446 -16 -42 -33 -52 -52
-29 -7 8 -3 37 15 97 24 82 25 91 18 277 -6 178 -5 192 12 202 10 6 21 11 24
11 3 0 14 -50 24 -112z m133 96 c21 -6 22 -10 16 -53 -4 -25 -9 -50 -12 -55
-2 -4 -6 -44 -8 -88 -3 -46 -10 -88 -18 -100 -12 -17 -14 2 -13 141 0 89 3
161 6 161 3 0 16 -3 29 -6z m-218 -71 c0 -5 -7 -20 -14 -35 -8 -15 -17 -53
-21 -85 -4 -32 -9 -71 -12 -88 -2 -16 -8 -52 -13 -80 -5 -32 -4 -52 2 -56 7
-5 7 -20 1 -45 l-9 -39 -18 35 c-10 19 -20 46 -21 60 -1 14 -8 39 -15 55 -14
35 -6 115 16 160 l14 30 -5 -28 c-3 -16 -2 -26 3 -23 5 3 12 27 16 53 4 29 15
56 29 70 22 22 47 30 47 16z m355 -235 c-30 -140 -35 -195 -24 -247 7 -34 20
-62 35 -76 l24 -23 -26 -6 c-34 -9 -56 11 -84 77 -17 39 -21 62 -17 101 14
124 20 144 48 175 37 41 54 41 44 -1z m-95 -86 c0 -32 -38 -125 -67 -165 -40
-54 -69 -77 -98 -77 -41 0 -45 20 -12 50 18 15 50 53 72 85 22 31 51 70 63 86
23 28 42 38 42 21z m-13 -134 c-3 -8 -6 -5 -6 6 -1 11 2 17 5 13 3 -3 4 -12 1
-19z m31 -119 c-20 -13 -41 -11 -66 7 -27 19 -28 34 -1 68 l21 27 30 -47 c23
-37 27 -49 16 -55z m-101 18 c4 -7 19 -21 33 -30 29 -20 16 -21 -46 -6 -49 13
-52 16 -26 35 22 17 29 17 39 1z m133 -37 c0 -5 -7 -10 -16 -10 -8 0 -12 5 -9
10 3 6 10 10 16 10 5 0 9 -4 9 -10z"/>
<path d="M2146 509 c-10 -33 -14 -89 -6 -94 4 -3 10 19 12 48 4 53 2 71 -6 46z"/>
<path d="M1327 970 c-3 -14 -9 -52 -12 -85 -8 -69 -40 -125 -71 -125 -12 0
-35 5 -52 11 -33 11 -66 0 -89 -30 -23 -30 -13 -36 10 -7 25 30 28 31 117 9
28 -7 35 -14 36 -33 0 -14 4 -33 8 -43 11 -24 -2 -107 -18 -113 -7 -3 -32 7
-57 20 -44 26 -89 34 -89 17 0 -5 13 -14 29 -21 37 -15 71 -49 50 -51 -8 -1
-1 -4 16 -8 25 -5 31 -12 36 -43 3 -21 2 -41 -4 -47 -5 -5 -5 -19 -1 -32 8
-26 8 -35 -1 -121 -5 -48 -4 -58 9 -58 12 0 15 13 13 72 l-2 73 45 -5 c66 -7
131 -3 160 9 21 9 18 9 -15 3 -85 -15 -205 7 -205 37 0 5 15 2 33 -7 22 -12
60 -18 122 -19 50 -1 94 -2 98 -2 4 -1 3 -10 -3 -22 -7 -11 -9 -27 -6 -34 2
-7 -1 -38 -8 -69 -7 -30 -9 -53 -5 -50 5 3 9 -1 10 -8 1 -23 18 29 24 74 18
136 15 126 49 134 53 11 81 38 100 99 10 31 15 59 12 63 -3 3 -6 -3 -6 -13 0
-10 -3 -16 -6 -12 -3 3 -3 21 1 39 7 28 9 30 15 13 5 -16 8 -12 14 20 9 49 24
77 36 70 5 -3 11 -1 14 4 4 5 2 12 -2 15 -19 12 -70 -64 -90 -134 -5 -19 -13
-44 -17 -55 -4 -14 -1 -12 9 5 8 14 15 19 16 12 0 -21 -31 -82 -42 -82 -5 0
-6 5 -2 11 3 6 8 34 9 63 3 66 33 128 97 202 29 32 38 47 22 32 -17 -16 -40
-28 -51 -28 -13 0 -24 -8 -28 -20 -8 -26 -25 -26 -25 -1 0 18 -34 51 -52 51
-5 0 -2 -13 7 -30 8 -16 15 -44 16 -62 1 -31 1 -32 9 -8 8 24 8 24 8 -5 1 -16
-3 -48 -8 -70 l-9 -40 2 43 c2 23 -1 42 -5 42 -5 0 -8 -19 -8 -42 0 -45 -23
-145 -36 -157 -4 -3 -4 2 -1 12 8 21 -2 22 -31 2 -48 -34 -211 -31 -254 6 -23
19 -23 19 17 3 46 -19 196 -16 230 4 17 10 15 11 -15 4 -19 -4 -74 -7 -121 -7
-68 0 -91 4 -106 17 -20 18 -29 68 -13 68 6 0 10 -5 10 -11 0 -19 69 -39 132
-37 l63 1 -72 6 c-39 3 -75 10 -79 14 -5 4 -8 22 -8 40 1 28 0 28 -3 5 -2 -16
-9 -28 -15 -28 -7 0 -8 20 -3 58 7 60 24 94 26 52 1 -14 3 -18 6 -9 3 14 11
14 68 4 60 -12 75 -11 75 4 0 3 -26 6 -58 7 -78 1 -121 24 -120 63 l1 30 25
-19 c14 -11 32 -20 41 -20 9 0 1 8 -17 17 -37 18 -55 44 -46 68 6 14 8 12 18
-7 22 -44 71 -60 171 -54 57 3 84 2 75 -4 -8 -5 -24 -10 -35 -11 -20 0 -20 0
0 -8 16 -7 7 -11 -38 -21 -32 -6 -57 -14 -54 -16 4 -4 35 2 122 21 11 3 -2 -6
-30 -20 -36 -18 -44 -25 -27 -25 15 0 22 -6 22 -19 0 -29 -11 -52 -22 -45 -6
4 -8 -2 -6 -11 4 -25 25 -30 31 -8 3 10 5 5 4 -12 -2 -22 -6 -29 -19 -27 -9 1
-20 -3 -24 -9 -5 -8 3 -10 26 -7 29 4 31 3 15 -8 -39 -29 -169 -28 -239 1 -13
6 -17 5 -13 -2 9 -15 87 -33 140 -33 24 0 65 6 90 14 26 8 44 10 41 5 -3 -5 1
-9 9 -9 17 0 24 31 33 153 5 75 4 91 -11 107 -13 15 -22 17 -42 9 -32 -12 -33
-12 -33 8 0 15 -1 15 -13 -1 -10 -13 -24 -17 -57 -14 -37 3 -45 7 -51 28 -6
21 -7 22 -9 5 -1 -20 -1 -20 -10 0 -8 20 -9 20 -9 0 -1 -18 -2 -18 -17 -3 -15
15 -15 24 1 117 15 91 17 162 2 101z m353 -269 c0 -5 -9 -19 -20 -32 l-21 -24
16 33 c15 31 25 41 25 23z m-472 -141 c17 -11 32 -25 32 -30 0 -12 -55 17 -72
38 -15 18 3 15 40 -8z m117 -152 c22 -5 70 -8 107 -6 73 4 69 -8 -5 -18 -63
-9 -132 3 -159 27 -21 18 -21 20 -3 14 11 -4 38 -12 60 -17z"/>
<path d="M1565 933 c-3 -21 -10 -60 -16 -88 -15 -76 -15 -90 0 -90 8 0 15 11
16 25 1 14 5 62 9 108 8 83 2 114 -9 45z"/>
<path d="M1354 916 c-3 -21 -4 -39 -1 -42 2 -3 8 11 11 32 4 20 5 38 2 41 -2
3 -8 -11 -12 -31z"/>
<path d="M1892 903 c-7 -2 -17 -14 -23 -25 -10 -19 -9 -19 19 2 53 39 63 10
38 -110 -8 -36 -17 -77 -21 -92 -4 -16 -3 -28 2 -28 15 0 43 131 43 199 0 57
-2 61 -22 60 -13 0 -29 -3 -36 -6z"/>
<path d="M1353 834 c-20 -21 -16 -42 3 -22 9 9 15 21 13 26 -2 6 -9 4 -16 -4z"/>
<path d="M308 823 c7 -3 16 -2 19 1 4 3 -2 6 -13 5 -11 0 -14 -3 -6 -6z"/>
<path d="M1819 803 l-24 -28 28 24 c25 23 32 31 24 31 -2 0 -14 -12 -28 -27z"/>
<path d="M438 803 c7 -3 16 -2 19 1 4 3 -2 6 -13 5 -11 0 -14 -3 -6 -6z"/>
<path d="M498 793 c7 -3 16 -2 19 1 4 3 -2 6 -13 5 -11 0 -14 -3 -6 -6z"/>
<path d="M1775 760 c-3 -5 -8 -20 -10 -32 -3 -13 -9 -32 -14 -43 -11 -22 -58
-178 -63 -210 -2 -11 -10 -20 -17 -20 -8 0 -16 -6 -18 -12 -3 -7 2 -13 9 -13
11 0 13 -14 10 -64 -4 -55 -2 -66 14 -74 30 -15 56 1 99 62 l40 57 50 -5 c30
-3 44 -2 36 3 -11 7 -11 9 0 14 8 3 -4 6 -25 6 -65 2 -164 22 -169 35 -8 20
15 117 28 123 7 2 11 12 9 21 -3 9 6 50 20 90 14 39 21 72 16 72 -5 0 -12 -4
-15 -10z m22 -344 c12 -12 -61 -106 -83 -106 -19 0 -27 35 -19 82 l7 40 45 -5
c24 -2 47 -7 50 -11z"/>
<path d="M228 703 c7 -3 16 -2 19 1 4 3 -2 6 -13 5 -11 0 -14 -3 -6 -6z"/>
<path d="M1077 693 c-11 -19 -18 -73 -9 -73 5 0 12 17 14 38 5 38 4 49 -5 35z"/>
<path d="M1290 692 c0 -12 108 -48 116 -39 3 2 -17 10 -43 16 -26 7 -53 17
-60 23 -9 7 -13 7 -13 0z"/>
<path d="M1428 683 c12 -2 30 -2 40 0 9 3 -1 5 -23 4 -22 0 -30 -2 -17 -4z"/>
<path d="M1788 673 c7 -3 16 -2 19 1 4 3 -2 6 -13 5 -11 0 -14 -3 -6 -6z"/>
<path d="M340 660 c8 -5 20 -10 25 -10 6 0 3 5 -5 10 -8 5 -19 10 -25 10 -5 0
-3 -5 5 -10z"/>
<path d="M1833 663 c9 -2 23 -2 30 0 6 3 -1 5 -18 5 -16 0 -22 -2 -12 -5z"/>
<path d="M1333 575 c0 -22 2 -30 4 -17 2 12 2 30 0 40 -3 9 -5 -1 -4 -23z"/>
<path d="M178 569 c-18 -10 -68 -89 -68 -105 1 -5 8 5 17 21 20 39 53 75 78
85 13 6 15 9 5 9 -8 0 -23 -4 -32 -10z"/>
<path d="M248 573 c7 -3 16 -2 19 1 4 3 -2 6 -13 5 -11 0 -14 -3 -6 -6z"/>
<path d="M1081 565 c-1 -31 18 -45 59 -44 l35 2 -40 6 c-31 5 -41 11 -46 31
-6 21 -7 22 -8 5z"/>
<path d="M2660 562 c0 -10 41 -24 49 -17 6 7 0 11 -26 19 -13 4 -23 3 -23 -2z"/>
<path d="M2730 540 c8 -5 20 -10 25 -10 6 0 3 5 -5 10 -8 5 -19 10 -25 10 -5
0 -3 -5 5 -10z"/>
<path d="M96 426 c-4 -17 -21 -48 -39 -70 -28 -37 -28 -38 -5 -17 30 26 61 86
55 104 -2 6 -7 -1 -11 -17z"/>
<path d="M2876 415 c-3 -9 -5 -29 -5 -43 1 -20 3 -17 9 13 8 43 7 57 -4 30z"/>
<path d="M1292 275 c0 -16 2 -22 5 -12 2 9 2 23 0 30 -3 6 -5 -1 -5 -18z"/>
<path d="M1343 265 c-6 -19 -7 -35 -3 -35 9 0 25 59 18 66 -3 2 -9 -12 -15
-31z"/>
<path d="M561 264 c0 -11 3 -14 6 -6 3 7 2 16 -1 19 -3 4 -6 -2 -5 -13z"/>
<path d="M2778 243 c7 -3 16 -2 19 1 4 3 -2 6 -13 5 -11 0 -14 -3 -6 -6z"/>
<path d="M1240 179 c0 -19 -2 -21 -10 -9 -8 12 -10 11 -10 -7 0 -13 4 -23 10
-23 11 0 25 48 16 57 -3 4 -6 -5 -6 -18z"/>
<path d="M1305 170 c-3 -5 -1 -10 4 -10 6 0 11 5 11 10 0 6 -2 10 -4 10 -3 0
-8 -4 -11 -10z"/>
</g>
</svg>
