<?xml version="1.0" standalone="no"?>
<!DOCTYPE svg PUBLIC "-//W3C//DTD SVG 20010904//EN"
 "http://www.w3.org/TR/2001/REC-SVG-20010904/DTD/svg10.dtd">
<svg version="1.0" xmlns="http://www.w3.org/2000/svg"
 width="468pt" height="213pt" viewBox="0 0 468 213"
 preserveAspectRatio="xMidYMid meet">
<metadata>
Created by potrace 1.8, written by Peter Selinger 2001-2007
</metadata>
<g transform="translate(0,213) scale(0.156000,-0.156000)"
fill="#000000" stroke="none">
<path d="M404 1257 c-150 -57 -288 -300 -296 -521 -2 -64 -4 -70 -35 -93 -25
-19 -33 -33 -33 -56 0 -18 -9 -40 -22 -54 -12 -13 -16 -23 -10 -23 6 0 15 7
20 15 7 13 19 5 68 -42 32 -32 74 -66 91 -75 32 -16 46 -41 21 -34 -7 2 -35
-22 -63 -53 -37 -41 -40 -47 -12 -22 49 46 48 26 -1 -22 l-39 -38 13 -86 c19
-129 35 -130 28 -2 l-7 105 63 56 64 57 48 -25 c26 -13 48 -28 48 -33 0 -7
-65 -68 -169 -158 -14 -13 -23 -23 -19 -23 4 0 70 56 148 125 78 69 146 125
153 125 7 0 17 8 24 18 16 27 93 46 150 37 56 -8 103 -38 103 -66 0 -25 -17
-25 -25 0 -13 41 -149 50 -216 15 -25 -12 -243 -204 -299 -262 l-25 -26 25 19
c14 11 65 56 114 100 l89 80 -5 -68 c-6 -101 24 -83 35 23 6 47 12 59 51 97
44 42 47 43 113 43 37 0 73 -4 79 -8 17 -11 26 -61 25 -139 -2 -123 15 -132
23 -13 5 58 12 110 16 115 19 23 30 92 20 125 -11 40 -11 41 37 51 27 6 20 6
-24 3 -40 -4 -63 -2 -63 4 0 10 34 17 125 26 22 2 7 3 -33 2 l-72 -1 0 62 c0
34 5 63 11 65 32 11 31 178 -1 178 -4 0 -6 53 -3 118 3 92 2 114 -8 105 -8 -8
-12 -42 -12 -89 l0 -78 -14 47 c-17 59 -52 87 -109 87 -23 0 -45 -3 -47 -7 -3
-5 16 -6 42 -5 43 3 50 1 73 -27 15 -17 29 -48 33 -71 4 -22 11 -42 16 -46 5
-3 9 -11 9 -17 0 -8 -3 -7 -9 2 -6 10 -11 4 -16 -20 -16 -83 -44 -112 -95 -99
-25 6 -29 19 -14 55 7 20 7 20 -15 0 -17 -14 -26 -17 -38 -9 -25 16 -26 31 -3
37 11 3 20 10 20 16 0 8 -6 8 -19 -1 -15 -9 -23 -9 -35 2 -14 11 -16 10 -10
-3 3 -9 -4 -33 -16 -54 -21 -36 -21 -36 -1 -13 11 14 21 28 21 32 0 4 12 -4
26 -17 15 -14 31 -25 35 -25 5 0 6 -6 3 -14 -3 -9 3 -17 15 -21 27 -8 26 -17
-6 -46 -14 -13 -22 -17 -18 -9 5 10 1 8 -13 -4 -24 -21 -29 -31 -9 -20 8 5 7
2 -2 -9 -8 -10 -16 -15 -19 -12 -3 2 -11 -3 -19 -13 -8 -9 -12 -12 -9 -5 4 7
-1 9 -14 6 -40 -11 -92 57 -104 135 -8 54 10 97 65 156 23 25 37 46 31 46 -7
0 -9 13 -5 34 3 19 0 42 -6 52 -8 15 -10 7 -11 -43 l0 -61 -53 -30 c-55 -31
-117 -93 -117 -116 0 -7 -14 -32 -30 -54 -23 -32 -37 -42 -58 -42 -15 0 -33
-5 -38 -10 -14 -14 0 112 21 186 36 125 115 261 180 312 38 30 110 55 138 48
37 -9 78 -46 73 -65 -3 -9 5 -29 18 -45 l24 -29 3 47 c3 33 1 45 -8 42 -7 -3
-28 11 -47 30 -18 18 -43 34 -54 34 -11 0 -26 2 -34 4 -7 3 -27 -1 -44 -7z
m-21 -359 c-33 -36 -43 -63 -43 -113 0 -54 27 -112 69 -148 16 -13 65 -39 108
-57 96 -40 115 -55 55 -46 -124 19 -244 125 -258 229 -7 50 20 114 58 141 31
22 35 20 11 -6z m363 -75 c-4 -9 -1 -22 5 -30 21 -24 2 -25 -25 0 -32 30 -33
40 -3 32 20 -6 21 -5 5 8 -25 20 -23 30 3 17 13 -7 18 -17 15 -27z m-445 4
c-10 -9 -11 -8 -5 6 3 10 9 15 12 12 3 -3 0 -11 -7 -18z m8 -180 c44 -72 127
-122 258 -157 43 -12 98 -30 122 -41 24 -10 46 -17 48 -15 7 7 -46 31 -112 50
-33 10 -76 22 -95 28 -148 44 -241 143 -239 253 0 23 3 18 15 -24 29 -108 109
-176 259 -221 90 -28 159 -52 171 -62 6 -4 12 -19 12 -33 l0 -25 -28 20 c-15
11 -53 22 -86 26 -193 21 -374 158 -374 283 0 71 14 81 21 15 3 -37 15 -76 28
-97z m438 95 c4 -17 1 -29 -9 -36 -9 -7 -18 -36 -23 -74 -7 -59 -8 -62 -33
-62 -15 0 -36 7 -46 15 -12 9 -42 15 -73 15 l-54 0 88 85 c67 64 90 82 100 73
7 -6 13 -19 13 -29 0 -11 5 -19 10 -19 17 0 11 26 -10 45 -11 10 -20 24 -20
32 0 23 49 -16 57 -45z m-469 -112 c17 -27 19 -37 10 -49 -10 -13 -10 -14 2
-4 10 9 17 10 27 1 11 -9 11 -14 -3 -29 -18 -20 -6 -27 12 -9 12 12 44 3 44
-12 0 -6 -6 -8 -14 -5 -7 3 -28 -10 -47 -29 -18 -19 -38 -34 -45 -34 -25 0
-103 82 -114 118 -15 56 -14 59 43 119 l52 55 6 -44 c4 -24 16 -59 27 -78z
m-132 38 c-42 -60 -9 -126 117 -230 55 -46 105 -86 110 -89 5 -4 7 -12 3 -18
-8 -12 -209 152 -240 195 -28 39 -34 119 -11 144 25 27 40 25 21 -2z m-46 -61
c0 -18 9 -50 19 -70 11 -21 14 -36 8 -34 -20 6 -55 84 -50 111 7 37 23 32 23
-7z m-30 -38 c0 -25 73 -104 130 -140 25 -16 40 -29 34 -29 -19 0 -120 72
-148 107 -28 33 -49 102 -28 89 7 -4 12 -16 12 -27z m553 10 c12 -7 40 -27 62
-46 22 -19 46 -39 53 -45 7 -5 11 -12 9 -15 -7 -6 -67 25 -92 47 -11 10 -40
30 -65 44 -42 24 -43 26 -17 26 16 0 38 -5 50 -11z m-213 -83 c0 -2 -8 -10
-17 -17 -16 -13 -17 -12 -4 4 13 16 21 21 21 13z m16 -37 c-14 -17 -26 -39
-26 -50 0 -11 -4 -17 -10 -14 -26 16 13 95 47 95 11 0 8 -8 -11 -31z m114 -10
c0 -4 -11 -10 -24 -13 -14 -3 -39 -18 -57 -33 -28 -24 -32 -25 -25 -8 5 11 11
29 14 40 10 38 19 43 57 31 19 -6 35 -14 35 -17z m-172 -22 c2 -11 -3 -17 -16
-17 -26 0 -34 11 -20 27 14 17 32 12 36 -10z m7 -37 c3 -5 2 -10 -4 -10 -5 0
-13 5 -16 10 -3 6 -2 10 4 10 5 0 13 -4 16 -10z"/>
<path d="M663 670 c0 -25 2 -35 4 -22 2 12 2 32 0 45 -2 12 -4 2 -4 -23z"/>
<path d="M1757 1131 c-10 -51 -8 -141 3 -141 6 0 10 -5 10 -11 0 -5 -4 -7 -10
-4 -5 3 -10 -1 -10 -9 0 -9 5 -16 10 -16 6 0 10 -6 10 -14 0 -9 -8 -13 -22
-10 -13 3 -6 -3 15 -12 20 -9 37 -20 37 -25 0 -6 -8 -5 -19 1 -11 5 -29 10
-40 10 -12 0 -21 6 -21 14 0 52 -71 147 -109 145 -11 0 -9 -4 7 -11 50 -24 98
-144 88 -222 -3 -27 -10 -54 -16 -60 -15 -15 -46 -17 -76 -6 -25 10 -26 11 -9
36 9 14 14 29 10 32 -9 9 -45 -40 -38 -51 3 -5 -8 -23 -23 -40 -27 -30 -27
-30 -2 -9 20 18 31 21 45 14 10 -5 25 -7 33 -4 30 10 -18 -33 -64 -57 l-46
-24 -39 26 c-49 33 -88 83 -94 122 l-4 30 -2 -30 c0 -18 9 -45 23 -66 26 -38
112 -99 139 -99 9 0 19 -4 22 -10 23 -38 -119 26 -173 78 -66 62 -76 111 -38
175 27 48 47 67 70 71 9 1 27 13 41 26 27 26 31 19 15 -27 -8 -20 -7 -37 0
-54 l10 -24 -5 26 c-3 15 2 46 10 70 8 23 13 44 10 47 -3 3 -5 0 -5 -7 0 -30
-20 4 -22 37 -1 33 -2 31 -7 -12 -6 -46 -9 -51 -50 -73 -71 -37 -132 -112
-135 -165 -1 -24 -7 -34 -21 -36 -33 -6 -85 -63 -85 -93 0 -16 -16 -46 -40
-77 -22 -28 -37 -53 -32 -56 5 -3 23 16 41 41 l33 46 19 -30 c10 -16 39 -44
64 -62 32 -23 44 -38 40 -49 -4 -12 -3 -13 10 -2 19 16 49 5 41 -16 -4 -10 -2
-13 7 -7 19 12 37 12 37 1 0 -6 -7 -7 -16 -4 -12 5 -15 2 -10 -9 3 -10 2 -13
-5 -9 -16 9 -59 -35 -80 -83 -11 -23 -25 -44 -32 -46 -7 -3 -4 -6 6 -6 16 -1
43 24 124 116 27 32 29 32 49 15 l21 -18 -44 -78 c-24 -44 -42 -81 -40 -83 2
-1 55 89 117 202 100 182 140 245 140 220 0 -8 -59 -120 -143 -274 -22 -41
-35 -71 -29 -67 9 5 12 -17 13 -86 1 -51 1 -101 0 -111 -1 -9 3 -17 10 -17 9
0 10 18 6 65 -4 41 -3 64 3 60 11 -7 13 14 10 97 -2 66 11 90 64 119 61 32
114 34 166 5 25 -14 44 -30 42 -36 -1 -7 2 -18 9 -26 7 -8 10 -55 8 -131 -2
-141 -2 -143 12 -143 9 0 10 34 5 125 -4 77 -3 132 3 143 5 10 11 46 12 80 3
84 12 95 48 55 16 -17 31 -29 34 -27 2 3 7 -9 10 -26 4 -16 13 -30 21 -30 26
0 24 26 -6 60 -16 19 -27 29 -23 22 10 -19 -10 -14 -30 8 -10 11 -41 34 -69
51 l-51 30 35 -31 c21 -19 30 -33 23 -36 -7 -3 -9 -12 -6 -20 3 -10 -12 -6
-53 13 -32 14 -80 28 -106 31 -26 2 -48 9 -48 15 0 13 117 0 155 -19 30 -14
29 -13 -5 16 -23 19 -42 27 -55 24 -16 -4 -17 -3 -5 5 12 8 9 12 -17 17 -18 4
-33 10 -33 15 0 15 34 10 74 -10 21 -11 44 -17 51 -15 7 3 37 -11 67 -32 l53
-37 -37 34 c-41 40 -53 83 -44 154 3 25 9 65 12 91 5 33 2 50 -10 63 -16 17
-38 166 -29 199 2 10 0 28 -5 41 -9 24 -9 24 -15 -8z m28 -255 c20 -14 31 -76
14 -76 -5 0 -9 4 -9 9 0 5 -17 17 -37 27 -27 13 -33 19 -21 22 9 2 26 -2 37
-7 29 -16 39 -13 17 4 -11 8 -28 15 -37 15 -10 0 -21 5 -24 10 -9 15 38 12 60
-4z m-20 -82 c8 -20 12 -41 8 -47 -3 -6 -1 -7 5 -3 7 4 12 1 12 -8 0 -9 -4
-16 -9 -16 -6 0 -6 -12 1 -31 13 -37 8 -42 -26 -29 -15 5 -47 10 -72 10 -57 0
-58 17 -4 70 26 25 40 48 40 65 0 38 27 31 45 -11z m-425 -40 c14 -39 104
-107 171 -131 55 -20 66 -38 17 -28 -107 23 -219 131 -217 210 0 20 0 20 9 0
4 -11 13 -34 20 -51z m47 -99 c24 -18 68 -44 98 -56 58 -24 70 -39 31 -39 -25
0 -107 42 -149 76 -34 28 -67 83 -67 114 0 21 3 18 21 -18 12 -24 41 -58 66
-77z m-134 62 c-9 -60 55 -143 154 -199 58 -33 73 -48 48 -48 -24 0 -120 65
-170 114 -46 46 -63 93 -51 141 9 37 26 30 19 -8z m48 -9 c7 -18 26 -47 42
-65 26 -29 27 -34 14 -53 -13 -19 -14 -19 -38 8 -38 41 -59 79 -59 105 0 47
22 49 41 5z m-82 -63 c5 3 7 -3 4 -13 -4 -19 40 -82 57 -82 5 0 -2 11 -15 25
-14 13 -25 29 -25 35 0 6 12 -3 28 -21 15 -18 27 -37 27 -42 0 -5 18 -19 40
-33 49 -30 39 -31 -18 -3 -81 41 -128 101 -126 161 l1 33 9 -33 c5 -18 14 -30
18 -27z m346 15 c3 -5 1 -10 -4 -10 -6 0 -11 5 -11 10 0 6 2 10 4 10 3 0 8 -4
11 -10z m80 -42 c-19 -11 -30 -5 -21 11 4 6 14 7 22 4 15 -5 14 -7 -1 -15z
m-252 -50 c-22 -24 -39 -8 -23 22 9 17 14 19 26 9 13 -10 12 -14 -3 -31z m51
3 c3 -4 -3 -16 -14 -26 -13 -11 -20 -14 -20 -6 0 7 -4 9 -10 6 -14 -9 -13 8 2
23 14 14 35 16 42 3z m273 -21 c50 -18 98 -48 90 -57 -2 -1 -22 6 -45 17 -49
24 -137 44 -157 36 -8 -3 -17 -1 -19 3 -17 27 55 28 131 1z m40 -51 c40 -20
48 -29 50 -54 1 -16 0 -24 -3 -17 -3 7 -25 25 -48 40 -33 21 -53 26 -106 27
-36 0 -76 -4 -90 -9 -22 -8 -23 -7 -11 8 34 41 131 43 208 5z m-287 -53 c0 -9
-7 -12 -20 -9 -11 3 -20 9 -20 14 0 5 9 9 20 9 11 0 20 -6 20 -14z"/>
<path d="M1741 734 c0 -11 3 -14 6 -6 3 7 2 16 -1 19 -3 4 -6 -2 -5 -13z"/>
<path d="M1540 1050 c-8 -5 -10 -10 -5 -10 6 0 17 5 25 10 8 5 11 10 5 10 -5
0 -17 -5 -25 -10z"/>
<path d="M610 1016 c0 -8 -8 -17 -17 -19 -16 -4 -16 -5 -1 -6 11 -1 14 -7 11
-20 -3 -12 2 -20 16 -24 26 -6 27 -33 4 -61 -18 -21 -18 -21 5 -2 28 24 28 50
1 70 -21 15 -17 42 4 29 7 -4 7 0 -1 10 -8 9 -11 21 -7 27 3 5 1 10 -4 10 -6
0 -11 -6 -11 -14z"/>
<path d="M1538 1025 c-10 -10 20 -80 35 -83 10 -2 14 -9 10 -20 -7 -18 -5 -17
17 11 11 16 11 18 -1 15 -8 -2 -14 4 -14 12 0 8 10 16 23 18 12 2 22 8 22 14
0 5 -7 7 -15 4 -8 -3 -22 -9 -30 -12 -10 -4 -18 3 -25 20 -10 27 -13 30 -22
21z"/>
<path d="M496 986 c-9 -19 -15 -49 -15 -68 1 -28 3 -26 9 15 5 27 14 55 21 63
6 8 10 17 7 20 -3 2 -13 -11 -22 -30z"/>
<path d="M546 990 c19 -38 39 -51 29 -19 -7 22 -28 49 -39 49 -2 0 2 -13 10
-30z"/>
<path d="M2280 971 c0 -17 4 -32 8 -35 4 -2 6 11 4 30 -5 42 -12 45 -12 5z"/>
<path d="M2258 920 c5 -78 5 -78 -61 -59 -21 6 -43 9 -49 7 -7 -3 29 -15 78
-27 123 -32 137 -38 174 -76 26 -27 32 -41 32 -74 -1 -45 -21 -111 -34 -111
-4 0 -8 -6 -8 -14 0 -8 -12 -24 -27 -36 -30 -24 -41 -22 -166 17 -97 30 -127
25 -34 -6 60 -20 67 -25 61 -44 -12 -37 -8 -175 5 -191 8 -10 13 -56 13 -140
0 -111 2 -123 16 -110 17 18 27 94 11 94 -6 0 -6 7 1 19 5 11 10 44 10 73 0
65 10 128 20 128 4 0 29 -10 56 -22 62 -28 66 -29 147 -30 57 -1 70 -4 82 -22
17 -23 20 -56 5 -56 -5 0 -10 6 -10 13 0 15 -41 57 -56 57 -5 0 1 -8 13 -18
18 -14 23 -30 27 -80 2 -35 6 -66 9 -68 2 -3 27 52 55 122 35 85 46 121 34
110 -29 -25 -93 -44 -122 -35 -14 5 -55 18 -92 29 -75 24 -111 48 -133 91 -21
40 -6 36 42 -9 30 -29 60 -44 129 -65 90 -28 117 -28 171 1 11 6 25 7 33 2 11
-7 7 -23 -18 -86 -18 -42 -30 -79 -28 -81 2 -2 18 32 36 76 l32 80 49 -6 c42
-5 54 -2 88 21 58 41 87 110 76 182 -8 58 -39 90 -101 105 -27 6 -56 20 -65
31 -16 20 -112 50 -161 51 l-28 0 0 93 c0 51 -4 95 -9 98 -13 8 -20 -28 -12
-65 4 -18 4 -57 1 -86 -5 -41 -3 -53 7 -53 29 0 93 -42 108 -70 15 -29 21
-124 9 -154 -4 -10 -20 -17 -43 -17 -30 -2 -31 -3 -8 -6 33 -5 34 -17 2 -48
-28 -29 -28 -29 -100 -11 -73 20 -80 24 -62 44 24 28 64 114 70 152 3 20 2 55
-3 78 -4 26 -4 42 3 42 5 0 4 7 -3 15 -7 8 -16 13 -20 10 -4 -3 -13 2 -20 10
-11 13 -43 25 -110 42 -8 2 -36 4 -62 3 -40 0 -48 3 -48 17 0 15 2 16 10 3 7
-11 10 -6 9 20 0 29 -2 31 -9 15 -6 -14 -9 -4 -9 38 -1 31 -5 57 -10 57 -4 0
-6 -31 -3 -70z m162 -126 c36 -33 53 -104 39 -157 -14 -57 -53 -121 -84 -141
-32 -21 -32 -14 1 21 38 40 67 111 68 165 1 53 -20 88 -75 127 l-34 24 30 -7
c17 -4 41 -18 55 -32z m71 -61 c6 -19 8 -53 5 -75 -9 -53 -52 -136 -88 -170
-17 -15 -26 -28 -21 -28 18 0 72 66 95 115 16 35 22 69 23 117 0 36 3 61 7 55
4 -7 8 -40 8 -75 0 -83 -38 -161 -104 -213 -21 -17 -28 -18 -39 -7 -12 11 -8
20 27 61 75 85 92 177 49 261 l-16 31 21 -19 c12 -10 26 -34 33 -53z m186 -16
c45 -50 55 -135 23 -206 -21 -46 -26 -66 -10 -41 7 11 10 11 10 2 0 -7 5 -10
10 -7 20 12 10 -12 -12 -31 -13 -10 -17 -12 -10 -4 16 19 15 29 -3 26 -8 -1
-25 -18 -38 -37 -27 -40 -67 -49 -67 -15 1 20 1 20 14 3 12 -16 16 -13 47 34
44 69 58 127 47 197 -9 54 -18 68 -71 106 -21 15 -21 15 9 5 17 -6 40 -20 51
-32z m69 -74 c7 -35 -20 -148 -38 -159 -11 -7 -10 -2 8 42 18 43 15 147 -5
167 -6 6 -11 16 -11 22 1 22 40 -38 46 -72z m19 -26 c-1 -47 -7 -86 -19 -111
-25 -56 -29 -39 -6 27 24 68 25 105 5 155 -15 36 -15 36 2 19 14 -14 18 -33
18 -90z m122 11 c28 -26 39 -90 23 -129 -7 -16 -18 -29 -25 -29 -6 0 -11 -10
-11 -21 1 -20 -22 -41 -72 -65 -13 -7 -102 16 -102 27 0 3 10 18 21 33 33 42
59 121 59 180 l0 54 43 -15 c23 -8 52 -24 64 -35z m-627 -122 c0 -3 -4 -8 -10
-11 -5 -3 -10 -1 -10 4 0 6 5 11 10 11 6 0 10 -2 10 -4z m109 -117 c29 -15 78
-32 107 -39 30 -7 52 -15 50 -18 -10 -10 -157 31 -189 52 -33 22 -35 23 -57 6
-13 -9 -29 -30 -36 -46 -12 -28 -12 -28 -13 -5 -1 27 34 71 56 71 16 0 16 1
-2 36 -8 16 -15 36 -15 44 0 8 10 -6 23 -30 17 -36 33 -50 76 -71z m-114 81
c-3 -5 -11 -10 -16 -10 -6 0 -7 5 -4 10 3 6 11 10 16 10 6 0 7 -4 4 -10z m23
-43 c-1 -1 -13 -11 -25 -21 -22 -18 -22 -18 -20 8 3 33 28 52 40 30 5 -9 7
-16 5 -17z m2 -77 c0 -5 -4 -10 -10 -10 -5 0 -10 5 -10 10 0 6 5 10 10 10 6 0
10 -4 10 -10z m351 -43 c-8 -8 -11 -7 -11 4 0 20 13 34 18 19 3 -7 -1 -17 -7
-23z m-20 -15 c11 -29 5 -28 -16 4 -11 17 -12 25 -4 22 6 -2 16 -14 20 -26z
m-20 -93 c-9 -22 -10 -22 -10 -3 -1 11 2 24 6 27 12 12 14 0 4 -24z"/>
<path d="M2798 484 c6 -3 10 -10 7 -14 -3 -5 8 -8 24 -7 35 2 28 12 -14 20
-16 4 -24 4 -17 1z"/>
<path d="M2245 430 c-3 -6 1 -7 9 -4 18 7 21 14 7 14 -6 0 -13 -4 -16 -10z"/>
<path d="M541 944 c0 -11 3 -14 6 -6 3 7 2 16 -1 19 -3 4 -6 -2 -5 -13z"/>
<path d="M1629 928 c7 -10 11 -25 7 -33 -3 -9 -2 -13 4 -10 15 10 12 31 -7 46
-16 13 -17 12 -4 -3z"/>
<path d="M1390 899 c-6 -11 -10 -27 -8 -35 2 -8 8 1 14 20 12 40 10 46 -6 15z"/>
<path d="M580 890 c0 -5 5 -10 11 -10 5 0 7 5 4 10 -3 6 -8 10 -11 10 -2 0 -4
-4 -4 -10z"/>
<path d="M1580 870 c0 -5 5 -10 11 -10 5 0 7 5 4 10 -3 6 -8 10 -11 10 -2 0
-4 -4 -4 -10z"/>
<path d="M1540 848 c0 -4 4 -8 9 -8 6 0 12 4 15 8 3 5 -1 9 -9 9 -8 0 -15 -4
-15 -9z"/>
<path d="M1489 818 c-10 -19 -9 -21 2 -10 11 10 17 8 32 -10 l18 -23 -11 23
c-6 12 -8 27 -5 32 3 6 -1 10 -9 10 -8 0 -21 -10 -27 -22z"/>
<path d="M410 735 c-7 -9 -10 -18 -7 -21 3 -3 10 4 17 15 13 25 8 27 -10 6z"/>
<path d="M2311 626 c10 -9 69 -36 69 -32 0 6 -55 36 -66 36 -4 0 -5 -2 -3 -4z"/>
<path d="M2173 583 c9 -2 23 -2 30 0 6 3 -1 5 -18 5 -16 0 -22 -2 -12 -5z"/>
<path d="M2228 573 c6 -2 18 -2 25 0 6 3 1 5 -13 5 -14 0 -19 -2 -12 -5z"/>
<path d="M2318 558 c6 -6 18 -8 28 -6 14 3 12 5 -9 10 -19 3 -25 2 -19 -4z"/>
<path d="M883 530 c-1 -11 7 -20 20 -24 35 -9 42 11 10 27 -27 14 -29 14 -30
-3z"/>
<path d="M848 523 c7 -3 16 -2 19 1 4 3 -2 6 -13 5 -11 0 -14 -3 -6 -6z"/>
<path d="M2543 513 c9 -2 25 -2 35 0 9 3 1 5 -18 5 -19 0 -27 -2 -17 -5z"/>
<path d="M926 484 c-11 -8 -16 -14 -10 -14 13 0 39 18 34 24 -3 2 -14 -2 -24
-10z"/>
<path d="M1260 418 c-12 -22 -12 -22 6 -6 10 10 15 20 12 24 -4 3 -12 -5 -18
-18z"/>
<path d="M120 409 c0 -5 5 -7 10 -4 6 3 10 8 10 11 0 2 -4 4 -10 4 -5 0 -10
-5 -10 -11z"/>
<path d="M1523 360 c0 -25 2 -35 4 -22 2 12 2 32 0 45 -2 12 -4 2 -4 -23z"/>
<path d="M1761 384 c0 -11 3 -14 6 -6 3 7 2 16 -1 19 -3 4 -6 -2 -5 -13z"/>
<path d="M59 363 l-24 -28 28 24 c15 14 27 26 27 28 0 8 -8 1 -31 -24z"/>
<path d="M160 375 c-7 -9 -11 -17 -9 -20 3 -2 10 5 17 15 14 24 10 26 -8 5z"/>
<path d="M2302 305 c0 -16 2 -22 5 -12 2 9 2 23 0 30 -3 6 -5 -1 -5 -18z"/>
<path d="M471 304 c0 -11 3 -14 6 -6 3 7 2 16 -1 19 -3 4 -6 -2 -5 -13z"/>
<path d="M1773 275 c0 -22 2 -30 4 -17 2 12 2 30 0 40 -3 9 -5 -1 -4 -23z"/>
<path d="M1425 289 c-4 -6 -5 -12 -2 -15 2 -3 7 2 10 11 7 17 1 20 -8 4z"/>
<path d="M1245 270 c-3 -5 -2 -10 4 -10 5 0 13 5 16 10 3 6 2 10 -4 10 -5 0
-13 -4 -16 -10z"/>
<path d="M1572 255 c0 -16 2 -22 5 -12 2 9 2 23 0 30 -3 6 -5 -1 -5 -18z"/>
<path d="M1721 254 c0 -11 3 -14 6 -6 3 7 2 16 -1 19 -3 4 -6 -2 -5 -13z"/>
<path d="M2301 260 c0 -8 4 -24 9 -35 9 -20 9 -20 9 0 0 11 -4 27 -9 35 -9 13
-10 13 -9 0z"/>
<path d="M1337 198 c-35 -61 -71 -135 -60 -123 13 13 95 165 89 165 -2 0 -15
-19 -29 -42z"/>
<path d="M681 214 c0 -11 3 -14 6 -6 3 7 2 16 -1 19 -3 4 -6 -2 -5 -13z"/>
<path d="M2533 180 c0 -30 2 -43 4 -28 2 16 2 40 0 56 -2 15 -4 2 -4 -28z"/>
<path d="M1500 177 c0 -20 4 -37 10 -37 5 0 7 14 3 33 -8 45 -13 47 -13 4z"/>
<path d="M2511 194 c0 -11 3 -14 6 -6 3 7 2 16 -1 19 -3 4 -6 -2 -5 -13z"/>
<path d="M2626 195 c-9 -26 -7 -32 5 -12 6 10 9 21 6 23 -2 3 -7 -2 -11 -11z"/>
<path d="M1350 150 c-6 -11 -8 -20 -6 -20 3 0 10 9 16 20 6 11 8 20 6 20 -3 0
-10 -9 -16 -20z"/>
<path d="M2606 145 c-9 -26 -7 -32 5 -12 6 10 9 21 6 23 -2 3 -7 -2 -11 -11z"/>
<path d="M2372 130 c0 -14 2 -19 5 -12 2 6 2 18 0 25 -3 6 -5 1 -5 -13z"/>
<path d="M2547 88 c-9 -23 -15 -43 -13 -45 2 -2 11 15 20 38 9 23 15 43 13 45
-2 2 -11 -15 -20 -38z"/>
<path d="M1301 60 c-18 -33 -30 -60 -27 -60 6 0 67 113 62 117 -1 2 -17 -24
-35 -57z"/>
<path d="M2302 90 c0 -14 2 -19 5 -12 2 6 2 18 0 25 -3 6 -5 1 -5 -13z"/>
<path d="M1245 30 c-9 -17 -13 -30 -11 -30 3 0 12 13 21 30 9 17 13 30 11 30
-3 0 -12 -13 -21 -30z"/>
<path d="M2566 45 c-9 -26 -7 -32 5 -12 6 10 9 21 6 23 -2 3 -7 -2 -11 -11z"/>
</g>
</svg>
