<?xml version="1.0" standalone="no"?>
<!DOCTYPE svg PUBLIC "-//W3C//DTD SVG 20010904//EN"
 "http://www.w3.org/TR/2001/REC-SVG-20010904/DTD/svg10.dtd">
<svg version="1.0" xmlns="http://www.w3.org/2000/svg"
 width="468pt" height="150pt" viewBox="0 0 468 150"
 preserveAspectRatio="xMidYMid meet">
<metadata>
Created by potrace 1.8, written by Peter Selinger 2001-2007
</metadata>
<g transform="translate(0,150) scale(0.156000,-0.156000)"
fill="#000000" stroke="none">
<path d="M390 870 c0 -65 -3 -90 -12 -90 -7 0 -51 9 -98 20 -47 11 -92 19
-100 19 -8 -1 34 -13 95 -28 87 -21 111 -30 113 -45 3 -13 0 -17 -10 -13 -28
10 -260 59 -264 54 -2 -2 55 -17 127 -33 142 -32 155 -36 145 -53 -5 -7 -42
-11 -97 -11 -130 0 -198 -37 -247 -136 -48 -94 -37 -198 26 -260 48 -47 62
-52 182 -60 121 -8 133 -18 125 -99 -5 -51 7 -41 19 15 7 35 56 51 154 53 111
1 122 -4 120 -59 0 -24 2 -47 5 -51 4 -3 7 19 7 51 0 43 4 58 16 63 24 9 46
-8 70 -55 16 -30 24 -38 31 -29 5 6 8 18 7 25 -1 6 -2 17 -3 23 0 6 -8 9 -16
5 -8 -3 -19 3 -25 13 -5 10 -39 29 -75 42 -75 26 -84 39 -22 29 48 -7 82 -23
115 -54 19 -17 22 -18 16 -3 -3 10 -24 27 -45 37 -34 18 -38 23 -33 49 5 23 2
30 -12 35 -18 5 -19 17 -16 158 4 141 5 153 25 169 l22 17 -22 24 c-21 22 -23
35 -25 149 l-1 124 -7 -115 c-4 -63 -8 -125 -9 -138 -1 -22 -3 -23 -113 -20
l-113 3 -6 35 -6 35 -2 -38 c0 -23 -5 -37 -12 -35 -7 2 -11 49 -11 136 0 73
-4 132 -9 132 -5 0 -9 -40 -9 -90z m325 -200 c0 -13 -41 -16 -275 -20 -338 -6
-322 0 -379 -151 -28 -71 -26 -105 5 -151 35 -49 51 -39 18 12 -29 43 -31 94
-5 145 8 17 15 38 16 47 1 10 4 21 8 24 9 9 28 -6 21 -17 -3 -5 -1 -8 5 -7 5
2 16 -6 24 -17 9 -11 18 -17 22 -13 4 4 -2 19 -14 34 -26 33 -26 44 -3 45 15
0 15 1 -2 8 -19 7 -19 8 0 15 33 13 216 18 224 6 3 -6 4 -25 2 -42 l-5 -31
-18 24 c-10 13 -20 21 -23 18 -3 -3 5 -16 18 -30 16 -17 25 -43 29 -82 6 -49
4 -66 -17 -110 -21 -48 -28 -53 -70 -65 -57 -15 -131 -16 -158 -1 -17 9 -19 8
-16 -7 5 -27 51 -35 191 -32 82 1 131 -2 138 -9 27 -27 -251 -28 -321 -1 -33
12 -68 46 -88 83 -23 44 -20 150 6 201 22 44 78 98 121 117 16 7 118 14 271
17 296 7 275 8 275 -10z m-87 -84 c-1 -30 0 -52 5 -49 4 2 7 24 7 49 0 24 5
44 10 44 6 0 10 -12 10 -26 0 -14 4 -23 9 -20 4 3 7 -5 6 -17 -1 -12 -3 -75
-4 -140 l-1 -119 -97 5 c-54 3 -114 8 -133 11 -19 3 -8 -2 25 -13 67 -20 192
-78 201 -92 13 -21 -72 -7 -120 20 -28 15 -76 34 -106 41 -68 17 -81 27 -56
45 16 12 18 28 17 139 -1 79 3 126 9 126 5 0 10 10 11 23 0 20 1 21 8 3 7 -19
8 -19 13 2 6 21 12 22 98 22 l92 0 -4 -54z m78 -301 c-5 -13 -17 -15 -73 -11
-95 8 -106 26 -15 26 49 0 72 4 72 12 0 9 3 9 11 1 7 -7 9 -19 5 -28z m-352
10 c4 -12 -3 -15 -37 -14 l-42 1 30 13 c39 18 42 18 49 0z m167 -55 c37 -20
19 -30 -53 -30 -91 0 -123 15 -52 25 44 6 73 11 82 14 2 0 12 -4 23 -9z"/>
<path d="M283 624 c3 -4 0 -21 -8 -39 -13 -32 -11 -45 6 -45 4 0 5 9 2 19 -3
11 3 27 15 39 21 21 19 32 -6 32 -9 0 -13 -3 -9 -6z"/>
<path d="M196 562 c-3 -5 8 -6 25 -4 16 2 29 6 29 8 0 8 -49 4 -54 -4z"/>
<path d="M218 433 c7 -3 16 -2 19 1 4 3 -2 6 -13 5 -11 0 -14 -3 -6 -6z"/>
<path d="M114 353 c-1 -13 2 -23 7 -23 5 0 9 4 9 9 0 5 19 2 41 -6 23 -7 47
-12 53 -10 6 2 -9 11 -34 19 -25 9 -44 20 -43 25 1 5 -6 9 -15 9 -11 0 -18 -9
-18 -23z"/>
<path d="M248 323 c7 -3 16 -2 19 1 4 3 -2 6 -13 5 -11 0 -14 -3 -6 -6z"/>
<path d="M581 524 c0 -11 3 -14 6 -6 3 7 2 16 -1 19 -3 4 -6 -2 -5 -13z"/>
<path d="M1350 830 l0 -129 -34 -16 c-19 -9 -42 -25 -52 -36 -15 -17 -33 -19
-143 -21 l-126 -2 118 -3 c113 -4 128 -8 107 -29 -18 -18 -40 -147 -34 -196 7
-47 6 -48 -22 -49 -16 0 -45 -2 -64 -3 -19 -1 -43 2 -54 7 -14 7 -24 4 -39
-12 l-21 -21 90 0 c50 0 93 -2 96 -5 3 -3 -5 -43 -18 -88 -14 -45 -23 -89 -21
-97 1 -8 12 21 24 65 11 44 35 136 53 205 36 141 68 212 105 236 38 25 41 10
7 -33 -18 -22 -37 -65 -47 -103 -9 -36 -37 -136 -62 -223 -25 -87 -43 -160
-41 -163 3 -2 17 41 32 96 l28 100 26 -20 c13 -11 38 -20 55 -20 l30 0 -7 -49
c-7 -56 2 -133 15 -125 5 3 10 44 11 92 l2 87 6 -80 6 -80 2 80 c1 44 6 86 11
94 12 18 194 11 236 -10 28 -13 30 -19 35 -81 6 -86 20 -99 20 -20 0 34 4 62
10 62 5 0 13 15 18 32 l8 33 100 6 c85 4 90 6 39 9 -33 1 -71 3 -85 3 -15 0
-18 2 -7 4 9 3 17 9 17 15 0 6 -11 8 -27 4 -73 -18 -78 -18 -109 11 -17 15
-37 39 -43 51 -7 13 -15 22 -17 19 -11 -11 42 -79 80 -102 48 -29 29 -33 -31
-6 -50 23 -77 68 -77 131 0 25 8 60 18 78 15 29 120 122 138 122 15 0 -5 -26
-42 -55 -22 -16 -47 -41 -56 -55 -19 -27 -37 -103 -23 -94 5 3 9 19 9 36 0 23
10 41 41 70 22 21 45 35 51 32 6 -4 8 -3 5 3 -5 8 29 13 101 18 147 9 156 12
31 14 l-106 1 0 29 c0 16 -9 40 -20 54 -18 23 -20 38 -17 129 3 90 -5 143 -19
128 -8 -9 -12 -250 -4 -250 17 0 5 -39 -17 -54 -25 -16 -25 -15 -29 22 l-4 37
-1 -42 -2 -43 -89 0 c-77 0 -90 2 -94 18 -4 13 -5 12 -6 -5 -1 -18 -5 -20 -28
-14 l-28 7 4 162 c2 112 -1 162 -8 162 -7 0 -11 -43 -11 -130z m333 -187
c-140 -99 -169 -173 -112 -284 14 -28 30 -41 64 -54 49 -19 79 -45 52 -45 -9
0 -19 4 -22 10 -3 5 -29 20 -56 31 -55 24 -74 51 -85 117 -13 81 1 110 89 197
67 65 83 76 85 61 2 -11 -4 -26 -15 -33z m-383 -12 c-37 -37 -52 -62 -65 -107
-32 -108 -35 -113 -31 -47 5 79 37 146 84 178 59 40 65 29 12 -24z m263 -43
c-42 -47 -56 -88 -50 -154 l5 -63 -52 -5 c-28 -3 -71 -6 -96 -5 -25 0 -56 0
-70 0 -39 -1 -45 13 -31 71 22 92 34 122 60 151 24 26 27 27 140 27 l114 0
-20 -22z m-242 -278 c23 0 25 -18 4 -26 -39 -16 -95 27 -81 62 4 11 11 8 32
-11 15 -14 35 -25 45 -25z m212 30 c5 -19 1 -20 -56 -18 -62 1 -62 1 -17 8
l45 7 -50 3 c-49 3 -49 3 -15 10 65 14 87 11 93 -10z m-164 -6 c10 -9 -65 -3
-78 5 -10 6 1 8 30 4 24 -3 46 -7 48 -9z"/>
<path d="M1428 373 c7 -3 16 -2 19 1 4 3 -2 6 -13 5 -11 0 -14 -3 -6 -6z"/>
<path d="M1602 935 c0 -16 2 -22 5 -12 2 9 2 23 0 30 -3 6 -5 -1 -5 -18z"/>
<path d="M2458 864 c4 -105 0 -114 -49 -114 -18 0 -29 8 -38 26 -6 15 -15 24
-18 20 -4 -3 -1 -12 5 -18 22 -22 12 -33 -31 -34 -23 0 -67 -12 -97 -25 -60
-28 -76 -30 -74 -12 1 7 -2 10 -7 7 -5 -3 -9 -17 -10 -32 -1 -24 -2 -24 -13
10 -6 20 -15 40 -20 45 -6 5 -6 0 -1 -12 5 -11 10 -60 11 -110 3 -75 -1 -103
-22 -168 -40 -122 -21 -101 23 25 22 62 43 122 47 133 8 20 7 20 -8 1 -9 -11
-16 -15 -16 -9 0 6 7 16 15 23 8 7 15 9 15 4 0 -4 14 6 30 23 17 17 49 40 73
51 23 12 37 21 30 22 -19 0 -101 -38 -120 -57 -40 -39 -56 -45 -23 -9 41 44
104 75 152 73 18 0 60 2 93 7 77 9 52 -10 -32 -25 -71 -13 -143 -51 -173 -91
-12 -16 -30 -54 -41 -85 l-19 -56 31 -79 c18 -43 40 -83 50 -88 12 -7 21 -32
29 -80 15 -90 60 -143 135 -160 34 -8 36 -7 42 21 6 30 23 31 23 1 0 -10 9
-25 20 -34 18 -16 20 -16 32 1 7 9 22 21 32 24 10 4 17 10 14 12 -3 3 -21 -2
-41 -10 -21 -8 -38 -12 -38 -8 -1 5 -3 17 -4 28 -2 11 -10 33 -18 49 l-16 29
-7 -51 c-8 -60 -25 -67 -71 -28 -32 28 -25 45 12 28 13 -6 27 -7 30 -3 3 5 -2
11 -10 15 -17 6 -21 46 -5 46 6 0 10 4 10 10 0 11 -32 1 -42 -14 -6 -10 -10
-3 -24 43 -3 8 -7 11 -10 8 -4 -3 -1 -20 4 -37 9 -25 9 -32 -4 -37 -27 -10
-39 16 -38 81 0 41 6 71 17 87 10 13 17 30 17 39 0 22 -40 -41 -40 -65 -1 -40
-39 60 -40 103 0 49 34 92 93 117 46 19 55 19 60 -2 4 -17 5 -17 6 0 2 27 38
21 58 -10 10 -15 28 -37 40 -50 13 -12 23 -27 23 -33 0 -6 4 -9 9 -6 11 7 22
-20 15 -38 -3 -7 2 -16 10 -19 8 -3 20 -15 26 -26 9 -18 6 -22 -26 -36 -34
-14 -38 -14 -51 2 -12 16 -12 14 -2 -9 8 -18 16 -25 23 -19 6 5 25 11 41 13
27 3 31 -1 40 -32 l11 -35 87 0 c48 0 87 -3 87 -7 0 -17 -154 -35 -165 -19 -4
7 -17 -8 -31 -34 -29 -55 -30 -64 -6 -42 12 11 45 19 95 23 68 6 77 5 77 -10
0 -9 10 -27 21 -39 l22 -22 -6 36 c-5 38 -2 46 25 67 14 11 22 11 48 -3 18 -9
33 -15 35 -13 9 10 -19 50 -48 70 -32 20 -34 25 -34 77 0 39 -5 58 -17 66 -13
10 -16 30 -16 97 0 53 5 89 12 96 15 15 21 79 8 87 -4 3 -6 14 -3 24 3 13 -2
23 -16 30 -19 11 -21 21 -22 134 -1 112 -2 119 -14 92 -17 -37 -20 -135 -4
-135 16 0 4 -111 -13 -121 -23 -15 -30 -10 -25 19 l6 27 -12 -27 c-9 -24 -17
-28 -51 -28 -23 0 -71 -3 -108 -6 l-66 -7 4 152 c3 117 1 151 -8 151 -10 0
-12 -24 -10 -96z m327 -194 c-3 -10 -1 -21 4 -24 16 -10 2 -33 -27 -45 -33
-13 -87 -16 -222 -12 -119 3 -104 18 20 20 87 1 201 18 215 32 11 11 8 11 -35
-1 -19 -5 -111 -14 -206 -20 -94 -6 -193 -17 -220 -25 -49 -14 -124 -67 -124
-87 0 -6 7 -5 17 3 15 13 15 12 2 -9 -8 -12 -15 -18 -17 -12 -2 6 -9 7 -15 3
-6 -4 -2 9 9 28 41 71 166 111 414 133 118 10 157 17 164 29 13 20 28 11 21
-13z m-375 16 c0 -2 3 -13 7 -23 6 -16 5 -16 -10 -4 -16 12 -17 12 -10 -5 6
-17 5 -18 -11 -5 -11 10 -16 10 -14 2 3 -13 -138 -65 -153 -56 -5 3 -6 0 -3
-8 3 -8 -2 -17 -10 -20 -23 -9 -20 15 6 48 28 35 112 75 161 75 20 0 37 -2 37
-4z m50 -22 c0 -9 -5 -14 -12 -12 -18 6 -21 28 -4 28 9 0 16 -7 16 -16z m335
-74 c4 -6 -11 -18 -32 -27 -31 -13 -72 -16 -228 -14 -180 2 -192 1 -234 -21
-65 -33 -85 -66 -86 -139 0 -56 -1 -58 -12 -32 -25 57 -14 102 36 156 52 56
77 62 296 63 125 0 209 5 225 12 14 6 26 11 27 11 1 1 5 -4 8 -9z m-325 -71
c0 -6 -4 -7 -10 -4 -5 3 -10 11 -10 16 0 6 5 7 10 4 6 -3 10 -11 10 -16z m290
-6 c0 -8 -4 -11 -10 -8 -6 4 -9 -12 -9 -42 2 -46 2 -47 9 -13 l7 35 4 -35 c2
-19 2 -53 0 -75 -4 -36 -5 -37 -12 -15 -7 24 -7 24 -8 3 -1 -18 -7 -23 -31
-24 -16 -1 -36 -2 -42 -3 -7 -1 -11 6 -9 14 2 8 5 49 6 90 2 54 0 68 -6 51 -5
-13 -7 -33 -3 -43 3 -11 0 -41 -6 -69 -10 -41 -16 -49 -35 -49 -18 0 -30 15
-64 87 -32 66 -39 88 -29 94 15 10 24 2 31 -26 4 -15 5 -14 6 7 1 30 18 36
116 40 64 4 85 -1 85 -19z m40 -168 c0 -25 -40 -38 -122 -38 -85 0 -122 12
-42 15 27 0 54 2 59 3 6 2 27 3 48 4 26 1 37 6 37 16 0 8 5 15 10 15 6 0 10
-7 10 -15z m0 -44 c0 -12 -30 -22 -43 -14 -7 4 -3 9 9 14 26 10 34 10 34 0z
m-175 -21 c3 -5 1 -10 -4 -10 -6 0 -11 5 -11 10 0 6 2 10 4 10 3 0 8 -4 11
-10z m105 0 c49 -13 133 -68 124 -81 -4 -7 -14 -4 -28 9 -28 26 -60 42 -126
63 -59 19 -33 27 30 9z m-2 -39 c3 -9 -12 -11 -54 -9 -76 4 -82 23 -7 22 35 0
58 -5 61 -13z m78 -49 c-9 -15 -90 -32 -151 -32 -80 0 -59 16 32 25 43 4 87
10 98 15 23 8 30 6 21 -8z"/>
<path d="M2722 940 c0 -14 2 -19 5 -12 2 6 2 18 0 25 -3 6 -5 1 -5 -13z"/>
<path d="M432 890 c0 -14 2 -19 5 -12 2 6 2 18 0 25 -3 6 -5 1 -5 -13z"/>
<path d="M651 884 c0 -11 3 -14 6 -6 3 7 2 16 -1 19 -3 4 -6 -2 -5 -13z"/>
<path d="M2495 888 c-3 -7 -1 -35 4 -63 l9 -50 -2 62 c-1 64 -3 73 -11 51z"/>
<path d="M2711 874 c0 -11 3 -14 6 -6 3 7 2 16 -1 19 -3 4 -6 -2 -5 -13z"/>
<path d="M432 840 c0 -14 2 -19 5 -12 2 6 2 18 0 25 -3 6 -5 1 -5 -13z"/>
<path d="M1613 785 c0 -38 2 -53 4 -32 2 20 2 52 0 70 -2 17 -4 1 -4 -38z"/>
<path d="M100 830 c14 -4 34 -8 45 -8 16 0 15 2 -5 8 -14 4 -34 8 -45 8 -16 0
-15 -2 5 -8z"/>
<path d="M1562 785 c0 -16 2 -22 5 -12 2 9 2 23 0 30 -3 6 -5 -1 -5 -18z"/>
<path d="M78 793 c7 -3 16 -2 19 1 4 3 -2 6 -13 5 -11 0 -14 -3 -6 -6z"/>
<path d="M2707 749 c4 -13 8 -18 11 -10 2 7 -1 18 -6 23 -8 8 -9 4 -5 -13z"/>
<path d="M2130 740 c0 -5 5 -10 10 -10 6 0 10 5 10 10 0 6 -4 10 -10 10 -5 0
-10 -4 -10 -10z"/>
<path d="M1551 724 c0 -11 3 -14 6 -6 3 7 2 16 -1 19 -3 4 -6 -2 -5 -13z"/>
<path d="M1100 590 c-9 -6 -10 -10 -3 -10 6 0 15 5 18 10 8 12 4 12 -15 0z"/>
<path d="M1178 583 c7 -3 16 -2 19 1 4 3 -2 6 -13 5 -11 0 -14 -3 -6 -6z"/>
<path d="M1715 580 c-3 -6 1 -7 9 -4 18 7 21 14 7 14 -6 0 -13 -4 -16 -10z"/>
<path d="M1853 583 c15 -2 37 -2 50 0 12 2 0 4 -28 4 -27 0 -38 -2 -22 -4z"/>
<path d="M1035 550 c3 -5 13 -10 21 -10 8 0 12 5 9 10 -3 6 -13 10 -21 10 -8
0 -12 -4 -9 -10z"/>
<path d="M1090 550 c0 -5 5 -10 11 -10 5 0 7 5 4 10 -3 6 -8 10 -11 10 -2 0
-4 -4 -4 -10z"/>
<path d="M1638 463 c7 -3 16 -2 19 1 4 3 -2 6 -13 5 -11 0 -14 -3 -6 -6z"/>
<path d="M2115 413 c-27 -77 -35 -107 -26 -97 12 13 53 135 48 140 -3 3 -12
-17 -22 -43z"/>
<path d="M2300 437 c17 -48 42 -91 66 -113 47 -44 32 -6 -32 83 -41 57 -45 60
-34 30z"/>
<path d="M2400 442 c0 -13 -4 -21 -9 -18 -5 3 -15 -2 -22 -11 -12 -15 -12 -16
1 -8 8 5 22 8 31 7 8 -1 26 2 40 7 23 9 23 10 2 10 -12 1 -27 9 -32 19 -9 15
-10 14 -11 -6z"/>
<path d="M1673 383 c9 -2 23 -2 30 0 6 3 -1 5 -18 5 -16 0 -22 -2 -12 -5z"/>
<path d="M1848 343 c12 -2 30 -2 40 0 9 3 -1 5 -23 4 -22 0 -30 -2 -17 -4z"/>
<path d="M2433 323 c9 -2 23 -2 30 0 6 3 -1 5 -18 5 -16 0 -22 -2 -12 -5z"/>
<path d="M2423 276 c-40 -14 -56 -29 -17 -17 16 6 38 11 49 13 11 2 16 6 10 9
-5 4 -24 1 -42 -5z"/>
<path d="M2530 251 c0 -6 4 -13 10 -16 6 -3 7 1 4 9 -7 18 -14 21 -14 7z"/>
<path d="M1461 234 c0 -11 3 -14 6 -6 3 7 2 16 -1 19 -3 4 -6 -2 -5 -13z"/>
<path d="M1627 243 c-7 -12 4 -63 14 -63 5 0 6 15 2 33 -7 37 -9 41 -16 30z"/>
<path d="M2420 239 c0 -5 5 -7 10 -4 6 3 10 8 10 11 0 2 -4 4 -10 4 -5 0 -10
-5 -10 -11z"/>
<path d="M2440 200 c-9 -6 -10 -10 -3 -10 6 0 15 5 18 10 8 12 4 12 -15 0z"/>
<path d="M2550 182 c0 -12 -6 -22 -12 -22 -9 0 -8 -3 2 -10 11 -7 17 -4 23 12
4 12 3 26 -3 32 -7 7 -10 3 -10 -12z"/>
<path d="M1442 158 c-14 -14 -16 -38 -3 -38 5 0 11 11 13 25 6 29 6 29 -10 13z"/>
<path d="M2905 149 c-11 -16 -1 -19 13 -3 7 8 8 14 3 14 -5 0 -13 -5 -16 -11z"/>
<path d="M2602 70 c0 -14 2 -19 5 -12 2 6 2 18 0 25 -3 6 -5 1 -5 -13z"/>
</g>
</svg>
