<?xml version="1.0" standalone="no"?>
<!DOCTYPE svg PUBLIC "-//W3C//DTD SVG 20010904//EN"
 "http://www.w3.org/TR/2001/REC-SVG-20010904/DTD/svg10.dtd">
<svg version="1.0" xmlns="http://www.w3.org/2000/svg"
 width="468pt" height="203pt" viewBox="0 0 468 203"
 preserveAspectRatio="xMidYMid meet">
<metadata>
Created by potrace 1.8, written by Peter Selinger 2001-2007
</metadata>
<g transform="translate(0,203) scale(0.156000,-0.156000)"
fill="#000000" stroke="none">
<path d="M530 1211 c0 -12 -5 -32 -11 -44 -16 -28 -24 -95 -11 -82 6 6 13 24
15 40 3 17 3 2 2 -32 -1 -34 2 -66 8 -72 5 -5 7 -16 4 -24 -6 -16 -176 -111
-184 -103 -2 2 0 13 5 23 12 22 22 148 10 131 -4 -7 -8 -37 -8 -65 0 -29 -4
-53 -10 -53 -5 0 -10 -14 -10 -31 0 -25 -6 -32 -35 -45 -19 -7 -36 -14 -37
-14 -2 0 -3 38 -3 84 0 46 3 82 8 79 4 -2 7 7 7 21 0 14 -4 26 -10 26 -5 0
-10 26 -11 58 0 62 -16 119 -19 72 -1 -14 -1 -97 0 -186 l2 -160 -44 -13 c-53
-16 -190 -73 -185 -77 2 -2 48 14 103 35 54 21 113 42 129 45 29 6 27 4 -25
-47 -44 -43 -56 -62 -58 -91 -4 -47 12 -75 54 -92 l34 -14 0 -105 c0 -89 2
-104 15 -99 13 5 15 32 12 171 -2 126 0 167 10 175 16 13 24 7 26 -21 1 -11 5
-21 9 -21 4 0 5 -8 2 -17 -5 -17 -5 -17 6 0 9 13 8 24 -4 47 -13 28 -13 31 4
40 28 15 146 12 185 -4 28 -12 33 -18 27 -38 l-6 -23 -7 25 c-5 14 -5 -22 -1
-80 4 -58 6 -131 6 -162 -1 -44 2 -58 12 -58 8 0 14 -8 15 -17 1 -12 4 -10 9
7 4 14 8 71 9 127 1 91 3 103 21 113 30 16 52 66 45 101 -4 16 -22 42 -41 57
-29 23 -34 33 -34 68 l0 41 78 33 c42 18 88 36 101 41 13 5 21 12 19 15 -11
10 -186 -73 -306 -145 -68 -41 -145 -95 -173 -121 -47 -44 -50 -50 -44 -83 8
-43 -7 -55 -40 -33 -34 22 -40 57 -20 100 40 84 194 185 535 349 23 11 27 15
10 11 -14 -3 -56 -21 -95 -39 l-70 -33 -7 105 c-3 58 -11 110 -17 116 -8 8
-11 5 -11 -12z m0 -361 c0 -18 -3 -19 -21 -9 -17 9 -19 13 -8 20 22 14 29 11
29 -11z m76 -71 c13 -12 26 -30 29 -39 7 -22 -8 -61 -31 -84 -21 -22 -34 -7
-34 41 0 43 -32 63 -109 70 l-60 6 30 28 c16 15 35 29 42 32 18 7 107 -29 133
-54z m-69 -121 c-3 -8 -6 -5 -6 6 -1 11 2 17 5 13 3 -3 4 -12 1 -19z"/>
<path d="M1277 1127 l6 -97 -24 0 c-37 0 -190 -56 -208 -76 -12 -14 -12 -15
-1 -7 23 17 141 60 188 68 41 7 42 6 42 -22 0 -28 -3 -30 -72 -46 -40 -9 -79
-24 -87 -32 -13 -13 -6 -12 29 4 25 10 64 22 86 26 41 6 42 6 47 -27 2 -18 3
-36 0 -40 -2 -5 -56 -8 -119 -8 -95 0 -114 3 -114 15 0 20 -16 19 -24 -2 -11
-27 13 -33 142 -33 97 0 122 -3 122 -14 0 -7 -14 -16 -30 -20 -40 -8 -155 -54
-197 -79 -58 -34 -30 -28 43 8 38 20 98 44 134 54 71 21 170 34 170 23 0 -7
-113 -60 -242 -112 -42 -17 -82 -38 -89 -46 -7 -9 16 -1 51 17 35 18 77 32 92
32 15 0 28 3 28 7 0 7 134 71 241 114 92 38 113 59 106 107 -6 47 11 52 49 13
60 -59 -5 -127 -187 -197 -158 -60 -153 -57 -157 -101 -4 -41 -22 -47 -61 -20
-18 13 -22 23 -17 46 3 18 2 27 -4 23 -6 -3 -10 -19 -10 -35 0 -33 31 -60 67
-60 22 0 23 -3 23 -90 0 -58 4 -90 11 -90 7 0 10 23 9 63 -1 34 -2 92 -1 129
l1 68 38 16 c39 18 171 21 200 5 12 -7 14 -33 13 -138 -1 -120 0 -129 18 -130
18 -2 19 5 15 125 -3 115 -6 129 -25 145 -12 9 -32 17 -46 17 -14 0 -22 4 -18
10 4 6 10 8 14 5 5 -2 16 4 26 15 24 27 51 25 80 -5 32 -31 31 -46 -1 -84 -14
-17 -21 -31 -16 -31 21 0 53 54 50 84 -2 23 -12 35 -40 51 l-37 21 37 29 c36
29 42 30 152 33 63 1 126 5 140 9 l25 6 -30 8 c-18 5 -67 4 -121 -3 -107 -13
-123 -9 -117 25 7 35 -13 66 -52 83 l-33 14 -7 100 c-7 93 -17 127 -27 97 -6
-15 -2 -157 5 -177 12 -35 16 -80 7 -80 -6 0 -10 -15 -10 -32 0 -23 -3 -29 -9
-19 -5 8 -10 9 -12 3 -2 -6 -53 -12 -122 -14 l-117 -3 -1 95 c-2 153 -8 233
-19 244 -6 6 -8 -21 -3 -87z m219 -278 c-22 -13 -196 -21 -196 -9 0 14 20 17
120 18 74 2 91 -1 76 -9z m91 -341 c-3 -8 -6 -5 -6 6 -1 11 2 17 5 13 3 -3 4
-12 1 -19z"/>
<path d="M2471 1190 c-1 -15 -6 -31 -13 -38 -9 -9 -9 -12 1 -12 11 0 12 -12 8
-50 -4 -29 -2 -50 3 -50 6 0 10 -29 10 -63 0 -82 -8 -87 -158 -79 -93 4 -112
8 -114 21 0 9 -2 30 -3 46 -8 125 -19 217 -28 222 -6 4 -7 -23 -2 -78 15 -179
16 -173 -16 -191 -37 -22 -48 -62 -23 -90 15 -16 16 -22 6 -26 -8 -2 -28 -16
-45 -31 -37 -32 -355 -274 -539 -411 -70 -52 -125 -96 -123 -99 3 -2 10 1 17
6 7 5 105 79 218 163 113 85 262 198 332 252 134 104 177 128 230 128 l33 0
-45 -27 c-25 -15 -51 -35 -58 -45 -7 -10 -93 -78 -190 -151 -257 -192 -372
-282 -412 -318 -50 -45 -30 -31 200 142 113 85 241 180 284 212 l79 57 19 -31
c10 -17 28 -33 39 -36 17 -5 19 -14 19 -79 0 -40 4 -75 9 -78 11 -7 33 18 25
27 -4 3 -8 46 -10 96 l-4 89 34 20 c52 31 103 35 171 14 33 -10 60 -23 59 -30
-1 -7 -2 -24 -3 -39 l-2 -28 -14 25 c-18 32 -19 22 -1 -21 7 -19 17 -60 21
-91 4 -39 11 -58 20 -58 17 0 19 111 3 153 -10 26 -8 31 26 61 24 23 36 42 36
61 0 22 4 26 19 22 40 -10 196 22 276 58 66 29 76 36 58 41 -21 6 -27 18 -26
52 1 16 -10 15 -46 -5 -31 -18 -36 -29 -25 -57 9 -24 20 -19 38 17 10 21 16
26 16 14 0 -32 -54 -72 -117 -88 -58 -14 -266 -20 -278 -7 -4 3 4 17 17 30 21
21 31 23 108 21 64 -2 99 2 140 17 30 11 42 17 25 14 -101 -21 -240 -21 -207
0 30 18 -1 96 -38 96 -27 0 -30 8 -35 102 -5 87 -22 177 -24 128z m80 -261
c11 -11 19 -28 17 -37 -2 -10 -39 -36 -88 -61 -46 -23 -127 -69 -180 -101 -78
-47 -96 -62 -100 -86 l-5 -29 -23 23 c-28 28 -28 63 2 94 12 14 89 59 170 99
108 53 150 79 157 96 11 28 23 29 50 2z m-361 -24 c0 -16 1 -16 127 -19 40 -1
75 -5 79 -8 3 -4 -18 -17 -48 -31 -72 -32 -183 -33 -204 -1 -13 18 -12 24 7
47 23 30 39 35 39 12z m339 -149 c36 -19 38 -26 13 -57 l-19 -22 -44 21 c-24
11 -56 24 -71 27 -32 8 -34 12 -12 36 19 21 86 19 133 -5z"/>
<path d="M2405 760 c-3 -5 -1 -10 4 -10 6 0 11 5 11 10 0 6 -2 10 -4 10 -3 0
-8 -4 -11 -10z"/>
<path d="M322 1165 c-2 -19 2 -35 8 -35 5 0 10 16 10 35 0 19 -4 35 -8 35 -4
0 -9 -16 -10 -35z"/>
<path d="M2212 1150 c0 -14 2 -19 5 -12 2 6 2 18 0 25 -3 6 -5 1 -5 -13z"/>
<path d="M1530 1151 c0 -6 4 -13 10 -16 6 -3 7 1 4 9 -7 18 -14 21 -14 7z"/>
<path d="M2272 1130 c0 -14 2 -19 5 -12 2 6 2 18 0 25 -3 6 -5 1 -5 -13z"/>
<path d="M374 1109 c-1 -20 2 -26 7 -17 11 16 12 48 2 48 -5 0 -8 -14 -9 -31z"/>
<path d="M1321 1124 c0 -11 3 -14 6 -6 3 7 2 16 -1 19 -3 4 -6 -2 -5 -13z"/>
<path d="M1530 1105 c0 -8 5 -15 10 -15 6 0 10 7 10 15 0 8 -4 15 -10 15 -5 0
-10 -7 -10 -15z"/>
<path d="M2423 1045 c0 -22 2 -30 4 -17 2 12 2 30 0 40 -3 9 -5 -1 -4 -23z"/>
<path d="M1312 1050 c0 -14 2 -19 5 -12 2 6 2 18 0 25 -3 6 -5 1 -5 -13z"/>
<path d="M2223 1035 c0 -22 2 -30 4 -17 2 12 2 30 0 40 -3 9 -5 -1 -4 -23z"/>
<path d="M332 1040 c0 -14 2 -19 5 -12 2 6 2 18 0 25 -3 6 -5 1 -5 -13z"/>
<path d="M286 994 c-3 -9 -2 -23 3 -32 8 -13 10 -10 9 16 -1 36 -3 39 -12 16z"/>
<path d="M1336 977 c3 -10 9 -15 12 -12 3 3 0 11 -7 18 -10 9 -11 8 -5 -6z"/>
<path d="M2231 975 c0 -5 6 -21 14 -35 8 -14 14 -20 14 -15 0 6 -6 21 -14 35
-8 14 -14 21 -14 15z"/>
<path d="M1341 934 c0 -11 3 -14 6 -6 3 7 2 16 -1 19 -3 4 -6 -2 -5 -13z"/>
<path d="M2431 934 c0 -11 3 -14 6 -6 3 7 2 16 -1 19 -3 4 -6 -2 -5 -13z"/>
<path d="M2930 892 c0 -5 10 -17 22 -28 19 -15 20 -16 9 -1 -12 15 -11 17 5
18 18 0 18 1 -1 9 -26 11 -35 12 -35 2z"/>
<path d="M60 685 c-14 -8 -20 -14 -15 -14 6 0 21 6 35 14 14 8 21 14 15 14 -5
0 -21 -6 -35 -14z"/>
<path d="M1373 635 c0 -33 2 -45 4 -27 2 18 2 45 0 60 -2 15 -4 0 -4 -33z"/>
<path d="M2361 654 c0 -11 3 -14 6 -6 3 7 2 16 -1 19 -3 4 -6 -2 -5 -13z"/>
<path d="M2251 570 c0 -36 4 -72 9 -80 12 -18 12 20 0 95 l-7 50 -2 -65z"/>
<path d="M2371 604 c0 -11 3 -14 6 -6 3 7 2 16 -1 19 -3 4 -6 -2 -5 -13z"/>
<path d="M1511 594 c0 -11 3 -14 6 -6 3 7 2 16 -1 19 -3 4 -6 -2 -5 -13z"/>
<path d="M2382 560 c0 -14 2 -19 5 -12 2 6 2 18 0 25 -3 6 -5 1 -5 -13z"/>
<path d="M1393 490 c0 -25 2 -35 4 -22 2 12 2 32 0 45 -2 12 -4 2 -4 -23z"/>
<path d="M1522 495 c0 -16 2 -22 5 -12 2 9 2 23 0 30 -3 6 -5 -1 -5 -18z"/>
<path d="M2401 434 c0 -11 3 -14 6 -6 3 7 2 16 -1 19 -3 4 -6 -2 -5 -13z"/>
<path d="M411 404 c0 -11 3 -14 6 -6 3 7 2 16 -1 19 -3 4 -6 -2 -5 -13z"/>
<path d="M2262 288 c-7 -7 -12 -23 -12 -36 0 -18 5 -23 22 -20 25 4 37 28 13
28 -9 0 -13 -4 -10 -10 3 -5 1 -10 -4 -10 -15 0 -14 33 1 48 7 7 10 12 7 12
-3 0 -10 -5 -17 -12z"/>
<path d="M1986 274 c-22 -21 -21 -54 2 -53 10 0 12 3 5 6 -18 7 -16 23 4 45
20 22 11 24 -11 2z"/>
<path d="M1870 270 c-11 -8 -7 -9 14 -4 21 5 27 4 22 -5 -4 -6 -14 -11 -22
-11 -26 0 -14 -25 13 -27 19 -1 22 1 12 8 -12 8 -11 12 4 23 9 7 17 16 17 20
0 10 -43 7 -60 -4z"/>
<path d="M2028 268 c-3 -7 -3 -19 0 -27 4 -11 6 -11 13 0 8 11 12 10 25 -6 15
-20 16 -20 12 4 -4 31 19 40 25 9 4 -22 4 -22 6 -1 0 12 9 24 19 26 9 3 1 5
-18 6 -20 0 -42 -5 -48 -11 -10 -10 -15 -10 -21 0 -7 11 -9 11 -13 0z"/>
<path d="M1660 263 c-25 -3 -49 -9 -55 -14 -7 -7 -4 -8 7 -4 12 5 18 0 21 -17
l4 -23 2 23 c1 26 31 31 31 5 0 -13 9 -19 32 -20 28 -2 29 -1 13 11 -13 9 -15
15 -7 20 13 8 16 27 5 24 -5 -1 -28 -3 -53 -5z"/>
<path d="M1747 263 c-9 -9 -9 -51 1 -56 4 -3 16 -1 27 4 18 7 18 8 -5 9 -23 1
-23 2 -5 10 18 8 18 9 2 9 -24 1 -11 21 14 21 12 0 19 -7 19 -20 0 -15 6 -20
28 -19 18 1 21 3 9 6 -18 5 -18 5 0 26 18 21 18 21 -1 7 -15 -12 -20 -12 -23
-2 -5 13 -55 17 -66 5z"/>
<path d="M1942 250 c0 -14 2 -19 5 -12 2 6 2 18 0 25 -3 6 -5 1 -5 -13z"/>
<path d="M2152 250 c0 -14 2 -19 5 -12 2 6 2 18 0 25 -3 6 -5 1 -5 -13z"/>
<path d="M2180 254 c0 -13 8 -19 25 -20 19 -2 25 3 25 20 0 16 -2 18 -9 7 -8
-12 -12 -12 -25 -2 -14 11 -16 11 -16 -5z"/>
<path d="M1483 214 c-20 -18 -22 -22 -7 -15 21 10 52 41 41 41 -3 0 -19 -12
-34 -26z"/>
<path d="M1511 159 c-19 -21 -42 -39 -53 -39 -11 0 -18 -7 -18 -19 0 -11 -4
-23 -10 -26 -5 -3 -10 -13 -10 -20 0 -11 12 -7 44 12 24 15 42 32 40 38 -3 6
9 29 26 50 16 21 30 39 30 41 0 12 -19 -2 -49 -37z"/>
</g>
</svg>
