<?xml version="1.0" standalone="no"?>
<!DOCTYPE svg PUBLIC "-//W3C//DTD SVG 20010904//EN"
 "http://www.w3.org/TR/2001/REC-SVG-20010904/DTD/svg10.dtd">
<svg version="1.0" xmlns="http://www.w3.org/2000/svg"
 width="418pt" height="648pt" viewBox="0 0 418 648"
 preserveAspectRatio="xMidYMid meet">
<metadata>
Created by potrace 1.8, written by Peter Selinger 2001-2007
</metadata>
<g transform="translate(0,648) scale(0.202500,-0.202500)"
fill="#000000" stroke="none">
<path d="M1210 3152 c0 -5 14 -21 31 -38 30 -29 75 -93 68 -97 -19 -12 -64
-26 -112 -35 -128 -24 -285 -123 -389 -246 -108 -127 -144 -240 -97 -300 16
-20 24 -24 30 -15 5 9 16 6 43 -14 19 -15 44 -27 55 -27 28 0 39 -69 43 -268
l3 -162 -84 -70 c-76 -63 -89 -70 -128 -70 -36 0 -57 -9 -131 -61 -48 -33 -90
-68 -94 -77 -9 -23 0 -98 19 -150 l15 -44 -57 -84 c-31 -46 -60 -84 -63 -84
-4 0 -15 13 -24 30 -14 24 -114 100 -132 100 -3 0 18 -45 45 -99 41 -82 48
-103 40 -120 -6 -11 -11 -50 -11 -88 0 -37 -4 -83 -9 -101 -7 -22 -6 -36 2
-45 7 -7 17 -22 23 -32 6 -11 20 -22 30 -24 33 -6 52 -31 59 -79 4 -25 18 -84
31 -131 14 -46 21 -87 17 -91 -4 -5 -47 -10 -96 -12 -70 -4 -93 -9 -117 -26
-16 -12 -32 -22 -35 -22 -4 0 -25 -13 -49 -29 -23 -16 -53 -31 -66 -33 -22 -3
-25 -8 -28 -55 -3 -46 0 -54 23 -69 19 -12 37 -15 69 -11 24 4 58 2 76 -3 37
-11 79 4 164 58 28 18 59 32 69 32 19 0 19 -1 1 -27 -10 -16 -25 -41 -34 -58
-9 -16 -30 -44 -48 -62 -30 -30 -41 -53 -24 -53 27 1 88 31 95 48 20 45 55 35
84 -22 9 -17 33 -46 54 -64 21 -18 47 -48 59 -67 12 -19 26 -35 32 -35 16 0 1
61 -22 90 -34 42 -67 112 -80 170 -7 30 -20 65 -28 78 l-15 23 101 -7 100 -7
26 28 c25 27 26 33 26 149 0 83 7 149 20 211 23 103 110 375 121 375 4 0 9
-60 11 -132 4 -121 7 -142 41 -240 31 -89 37 -119 35 -174 l-3 -66 53 -49 c38
-35 65 -51 93 -55 21 -4 39 -10 39 -15 0 -16 -54 -48 -143 -85 -74 -30 -106
-38 -168 -40 -41 -1 -93 -7 -115 -13 -21 -6 -57 -11 -79 -11 -48 0 -65 -14
-65 -51 0 -32 21 -56 55 -65 14 -3 25 -15 27 -27 2 -12 12 -23 23 -26 11 -2
31 -14 44 -27 29 -29 61 -39 99 -29 15 4 52 11 83 15 31 5 94 25 140 45 72 32
98 38 179 42 102 6 126 17 156 75 12 24 12 32 -2 68 -9 22 -14 43 -12 45 3 3
18 -1 34 -9 21 -11 40 -13 65 -7 20 5 59 6 86 4 45 -5 53 -2 84 25 24 21 50
32 84 37 97 14 130 45 165 154 l23 69 -21 34 -22 35 25 74 c61 178 87 343 73
459 -19 161 -110 482 -177 625 -37 77 -96 146 -171 198 l-24 17 39 41 c22 22
55 50 74 61 l34 21 -7 81 c-7 85 -1 98 13 25 l8 -44 18 40 c17 38 17 43 0 110
-37 142 -97 265 -168 342 -52 57 -149 130 -209 158 -26 12 -45 25 -41 29 3 3
1 6 -6 6 -8 0 -11 14 -9 39 2 49 -12 67 -77 97 -51 24 -85 30 -85 16z m-33
-614 c14 -16 13 -17 -19 -11 -42 6 -78 -10 -78 -37 0 -16 4 -17 32 -9 67 19
98 12 139 -31 52 -54 113 -161 140 -243 12 -37 24 -65 26 -63 3 3 11 22 18 43
14 36 14 34 15 -69 l0 -107 -67 -93 c-74 -104 -162 -208 -174 -208 -13 0 -38
43 -65 107 -23 57 -28 60 -25 17 2 -17 -5 -23 -32 -28 -18 -3 -54 -19 -78 -35
-41 -26 -47 -27 -81 -15 -19 6 -71 20 -114 30 -77 17 -78 17 -54 33 14 9 51
40 83 70 52 50 59 53 82 43 21 -10 25 -9 25 4 0 10 10 4 27 -16 l27 -32 26 28
c58 64 63 66 103 49 50 -21 73 -19 134 10 l53 24 17 -32 c9 -18 18 -27 21 -19
2 7 -3 23 -11 36 -15 22 -14 25 9 47 49 46 47 63 -2 20 -90 -80 -154 -98 -231
-66 -46 19 -129 82 -149 113 -20 30 -28 191 -9 165 8 -11 21 -14 39 -11 18 4
26 2 23 -6 -31 -84 -31 -85 -12 -106 10 -11 23 -20 28 -20 6 0 1 10 -10 23
-20 20 -20 24 -7 56 24 56 20 75 -25 145 -46 71 -56 80 -41 42 6 -18 5 -26 -4
-29 -8 -3 -11 -17 -9 -39 l5 -33 -31 45 c-38 55 -39 73 -3 98 25 19 25 21 8
28 -10 4 -27 2 -37 -4 -27 -17 -29 -16 -29 27 0 42 16 63 26 36 11 -29 94 -69
146 -71 45 -1 48 0 42 20 -9 27 -8 156 1 185 6 20 11 16 47 -36 22 -32 47 -66
55 -75z m-193 -239 c2 -36 1 -39 -11 -23 -14 19 -17 56 -6 67 11 11 15 0 17
-44z m731 -266 c57 -57 87 -114 141 -275 92 -273 128 -474 112 -623 -8 -78
-61 -314 -76 -340 -5 -11 -24 0 -72 41 -36 30 -101 73 -145 95 -76 38 -80 42
-102 96 -13 31 -21 59 -18 61 3 3 16 0 30 -6 14 -7 31 -12 38 -12 20 0 -27 27
-59 34 -22 5 -35 17 -48 44 -10 20 -42 74 -72 120 -35 53 -54 93 -54 112 0 34
-1 34 36 20 20 -8 12 3 -35 49 -33 32 -61 63 -61 68 0 26 201 193 283 235 64
32 33 33 -35 1 -81 -38 -142 -86 -284 -217 -63 -58 -121 -106 -129 -106 -25 0
-86 35 -217 123 -141 96 -196 129 -253 152 -31 12 -36 12 -22 1 17 -13 16 -15
-12 -39 -16 -13 -49 -32 -73 -42 -35 -15 -48 -28 -67 -68 -29 -60 -39 -50 -48
46 l-6 63 84 59 84 60 70 -7 c118 -12 423 -111 417 -136 -4 -20 17 -14 61 17
66 46 138 127 217 245 78 115 134 166 182 166 15 0 28 5 28 10 0 6 -5 10 -11
10 -8 0 -8 5 1 15 11 13 16 12 41 -6 15 -11 49 -40 74 -66z m-557 -295 c25
-39 30 -54 21 -64 -16 -19 -17 -19 -104 22 -63 31 -74 39 -63 50 13 13 84 42
103 43 6 0 25 -23 43 -51z m-380 -99 c12 -8 22 -17 22 -22 0 -22 -56 -78 -156
-152 -105 -79 -195 -171 -209 -215 -3 -10 1 -29 9 -42 25 -39 26 -178 2 -178
-8 0 -18 -5 -21 -10 -11 -17 14 -38 37 -32 14 3 19 1 14 -6 -11 -17 -51 -15
-67 4 -8 9 -19 38 -26 63 -12 44 -12 43 -7 -36 3 -51 1 -83 -5 -83 -18 0 -31
37 -32 87 0 36 -3 43 -9 28 -9 -20 -9 -20 -10 0 -1 16 -4 15 -16 -10 -13 -26
-14 -27 -10 -5 3 14 6 57 6 96 l0 71 64 81 c77 98 146 200 180 268 21 42 32
53 63 62 21 6 54 25 73 41 30 26 38 28 55 17 11 -7 30 -19 43 -27z m92 -65
c37 -25 39 -28 34 -68 -5 -33 -1 -48 19 -77 l25 -37 -53 -124 c-111 -262 -162
-473 -152 -633 4 -58 2 -87 -9 -107 -14 -28 -15 -28 -114 -28 -109 0 -103 -4
-115 75 -5 37 -3 41 24 57 21 12 31 13 34 5 9 -23 46 80 62 167 10 62 15 157
15 320 0 299 0 296 65 345 30 22 68 61 86 86 18 25 34 45 36 45 2 0 21 -12 43
-26z m146 -99 c124 -82 160 -92 200 -54 l23 21 32 -63 c92 -184 106 -269 88
-566 -13 -225 -6 -328 28 -441 l17 -52 -28 -29 c-24 -25 -36 -29 -104 -34 -52
-4 -116 -19 -197 -47 -66 -22 -142 -45 -169 -51 -28 -5 -53 -14 -57 -20 -8
-14 -29 -3 -29 15 0 7 10 18 23 24 20 10 21 11 2 11 -24 1 -40 -9 -48 -29 -4
-10 -6 -8 -6 7 -1 14 9 28 27 38 l27 16 -29 -6 c-17 -4 -36 -14 -43 -23 -12
-16 -12 -16 -13 0 0 10 10 26 22 38 12 11 16 20 9 20 -6 0 -22 -11 -35 -25
-13 -14 -29 -25 -35 -25 -21 0 -7 34 19 48 23 12 21 12 -21 6 -61 -8 -89 7
-89 46 0 33 11 38 30 15 16 -19 60 -20 60 -1 0 24 20 29 40 11 10 -9 20 -12
24 -7 3 6 0 12 -6 15 -32 11 10 22 77 19 64 -2 85 2 169 34 63 24 112 50 141
76 37 32 45 36 46 21 0 -16 1 -16 9 2 14 33 11 151 -6 226 -16 70 -32 115 -99
269 -20 47 -50 139 -66 204 -17 66 -37 133 -46 150 l-16 31 27 -24 c45 -42 28
-7 -29 59 -30 35 -55 68 -55 74 0 6 -3 21 -6 34 -4 12 -3 22 1 22 4 0 45 -25
91 -55z m316 7 c10 -15 23 -34 29 -43 7 -9 9 -24 5 -34 -6 -16 -12 -14 -46 20
-42 41 -47 54 -28 73 17 17 21 15 40 -16z m-18 -73 c141 -157 303 -506 336
-721 11 -73 10 -80 -10 -107 -11 -16 -41 -48 -67 -70 -38 -34 -53 -41 -89 -41
-54 0 -93 17 -99 44 -9 36 -9 175 0 387 6 154 5 223 -4 270 -13 63 -69 193
-111 257 -33 49 -7 38 44 -19z m-700 -272 c-2 -276 -13 -401 -40 -444 -8 -13
-28 -30 -44 -38 -35 -18 -31 -25 -55 95 -9 47 -19 95 -22 108 -4 17 -1 22 16
22 28 0 28 36 -1 51 l-22 12 27 14 c28 14 35 37 16 49 -8 5 -10 30 -6 78 5 59
3 78 -14 114 l-21 43 28 40 c15 22 53 60 83 85 31 24 56 44 56 44 0 0 -1 -123
-1 -273z m412 35 c19 -73 59 -191 88 -260 56 -131 80 -208 92 -299 8 -64 -1
-67 -67 -25 -60 39 -65 46 -110 164 -52 137 -76 246 -87 402 -9 121 -7 143 15
206 8 23 30 -36 69 -188z m-709 -199 c-3 -10 -5 -2 -5 17 0 19 2 27 5 18 2
-10 2 -26 0 -35z m143 37 c0 -5 -4 -10 -10 -10 -5 0 -10 5 -10 10 0 6 5 10 10
10 6 0 10 -4 10 -10z m10 -100 c0 -5 -4 -10 -10 -10 -5 0 -10 5 -10 10 0 6 5
10 10 10 6 0 10 -4 10 -10z m-26 -326 c12 -31 7 -104 -8 -104 -7 0 -53 -20
-102 -45 -72 -37 -95 -44 -119 -38 -16 4 -51 6 -77 4 -65 -3 -105 36 -79 78 7
11 11 9 20 -8 13 -24 33 -27 53 -8 7 6 27 14 43 15 17 2 33 7 37 11 4 3 -11 5
-33 3 -22 -3 -46 1 -52 7 -8 8 -4 11 16 11 19 0 25 4 21 15 -5 11 2 15 27 16
28 0 31 2 14 9 -18 8 -17 9 8 9 16 1 26 5 22 11 -4 6 20 10 64 10 41 0 71 4
71 10 0 17 67 12 74 -6z m-319 -114 c-3 -5 -13 -10 -21 -10 -8 0 -14 5 -14 10
0 6 9 10 21 10 11 0 17 -4 14 -10z m585 -150 c0 -5 -9 -10 -20 -10 -11 0 -20
5 -20 10 0 6 9 10 20 10 11 0 20 -4 20 -10z"/>
<path d="M1167 2413 c-15 -14 -7 -83 12 -102 24 -24 51 -18 86 16 31 32 31 38
0 68 -23 24 -82 35 -98 18z m36 -33 c-4 -22 0 -36 12 -50 18 -19 17 -20 -7
-20 -29 0 -38 16 -38 66 0 27 4 34 20 34 16 0 19 -5 13 -30z m41 -1 c-3 -5
-10 -7 -15 -3 -5 3 -7 10 -3 15 3 5 10 7 15 3 5 -3 7 -10 3 -15z"/>
<path d="M1125 2173 c4 -15 1 -23 -12 -26 -14 -4 -14 -5 4 -6 29 -1 36 12 17
35 -15 18 -15 18 -9 -3z"/>
<path d="M1216 2115 c-16 -42 -111 -69 -159 -44 -22 12 -22 12 -3 -10 32 -35
102 -21 158 32 15 14 35 27 45 30 12 3 9 5 -8 6 -16 1 -29 -5 -33 -14z"/>
<path d="M1125 2020 c3 -5 10 -10 16 -10 5 0 9 5 9 10 0 6 -7 10 -16 10 -8 0
-12 -4 -9 -10z"/>
<path d="M1337 424 c4 -40 2 -64 -6 -68 -6 -4 -11 -12 -11 -18 0 -6 9 -3 20 7
23 21 24 55 5 105 -13 34 -13 33 -8 -26z"/>
<path d="M1168 3065 c29 -8 62 -19 72 -25 10 -5 22 -10 27 -10 23 2 -71 40
-108 45 -43 5 -43 5 9 -10z"/>
<path d="M1448 3043 c7 -3 16 -2 19 1 4 3 -2 6 -13 5 -11 0 -14 -3 -6 -6z"/>
<path d="M1390 3030 c-18 -12 -2 -12 25 0 13 6 15 9 5 9 -8 0 -22 -4 -30 -9z"/>
<path d="M1095 3013 c-62 -14 -97 -25 -93 -28 2 -3 22 1 44 7 21 6 75 14 119
18 l80 7 -65 0 c-36 1 -74 -1 -85 -4z"/>
<path d="M1495 2965 c33 -14 72 -34 87 -45 16 -11 28 -16 28 -11 0 12 -136 81
-159 81 -9 0 11 -12 44 -25z"/>
</g>
</svg>
