<?xml version="1.0" encoding="UTF-8" standalone="no"?>
<svg
   xmlns:dc="http://purl.org/dc/elements/1.1/"
   xmlns:cc="http://creativecommons.org/ns#"
   xmlns:rdf="http://www.w3.org/1999/02/22-rdf-syntax-ns#"
   xmlns:svg="http://www.w3.org/2000/svg"
   xmlns="http://www.w3.org/2000/svg"
   xmlns:sodipodi="http://sodipodi.sourceforge.net/DTD/sodipodi-0.dtd"
   xmlns:inkscape="http://www.inkscape.org/namespaces/inkscape"
   version="1.0"
   width="418pt"
   height="648pt"
   viewBox="0 0 418 648"
   preserveAspectRatio="xMidYMid meet"
   id="svg2"
   inkscape:version="0.47pre4 r22446"
   sodipodi:docname="mogli.A.svg">
  <defs
     id="defs48">
    <inkscape:perspective
       sodipodi:type="inkscape:persp3d"
       inkscape:vp_x="0 : 405 : 1"
       inkscape:vp_y="0 : 1000 : 0"
       inkscape:vp_z="522.5 : 405 : 1"
       inkscape:persp3d-origin="261.25 : 270 : 1"
       id="perspective50" />
  </defs>
  <sodipodi:namedview
     pagecolor="#ffffff"
     bordercolor="#666666"
     borderopacity="1"
     objecttolerance="10"
     gridtolerance="10"
     guidetolerance="10"
     inkscape:pageopacity="0"
     inkscape:pageshadow="2"
     inkscape:window-width="1280"
     inkscape:window-height="950"
     id="namedview46"
     showgrid="false"
     inkscape:zoom="0.6345679"
     inkscape:cx="-30.361048"
     inkscape:cy="317.14597"
     inkscape:window-x="0"
     inkscape:window-y="25"
     inkscape:window-maximized="1"
     inkscape:current-layer="svg2" />
  <metadata
     id="metadata4">
Created by potrace 1.8, written by Peter Selinger 2001-2007
<rdf:RDF>
  <cc:Work
     rdf:about="">
    <dc:format>image/svg+xml</dc:format>
    <dc:type
       rdf:resource="http://purl.org/dc/dcmitype/StillImage" />
  </cc:Work>
</rdf:RDF>
</metadata>
  <g
     transform="translate(0,648) scale(0.202500,-0.202500)"
     fill="#000000"
     stroke="none"
     id="g6"
     style="fill:#f5c988;fill-opacity:1">
    <path
       d="M1075 2638 c-6 -36 -9 -88 -6 -128 1 -19 3 -22 10 -10 6 8 8 17 6 21 -3 3 20 6 50 5 47 -1 52 0 41 14 -8 8 -32 41 -54 73 l-41 59 -6 -34z m27 -37 c8 12 9 12 6 0 -6 -22 -28 -25 -27 -4 0 12 2 14 6 4 5 -11 7 -11 15 0z"
       id="path8"
       style="fill:#f5c988;fill-opacity:1" />
    <path
       d="M867 2524 c-9 -9 -9 -68 -1 -77 3 -3 14 -1 24 5 18 11 50 5 50 -9 0 -5 -10 -13 -22 -18 -33 -15 -32 -44 2 -95 l31 -45 -3 33 c-2 21 3 36 12 42 8 5 11 10 5 10 -5 0 -11 11 -11 25 -2 19 8 9 42 -43 47 -72 52 -100 30 -153 -13 -31 -13 -36 7 -56 11 -13 16 -23 10 -23 -5 0 -18 9 -28 20 -18 20 -18 23 -2 65 l16 45 -29 0 c-16 0 -33 7 -37 15 -13 22 -3 -137 10 -163 6 -13 38 -43 70 -68 56 -42 78 -53 76 -36 -3 20 2 32 16 32 8 0 15 -4 15 -10 0 -5 -7 -10 -15 -10 -19 0 -15 -23 5 -32 8 -4 32 -7 54 -7 32 -1 37 2 31 17 -5 14 -4 15 6 5 16 -16 33 -17 23 -1 -4 7 -3 8 5 4 14 -9 46 11 103 62 44 40 39 15 -5 -27 -21 -19 -24 -26 -14 -42 8 -13 13 -15 19 -6 5 8 8 7 8 -4 0 -25 24 -41 38 -27 7 7 12 17 12 23 0 5 -5 3 -11 -5 -9 -13 -10 -13 -6 0 2 8 8 15 13 15 29 1 34 19 34 123 l-1 107 -18 -40 c-11 -22 -20 -34 -20 -27 -1 6 -9 12 -18 12 -14 0 -15 2 -5 9 11 7 11 17 -4 59 -10 28 -21 49 -25 46 -4 -2 -11 1 -15 7 -4 8 -3 9 4 5 15 -9 15 -1 1 25 -5 11 -14 17 -19 14 -6 -3 -7 0 -4 8 8 21 -88 143 -109 139 -9 -2 -17 2 -17 9 0 8 -15 10 -52 5 -29 -4 -58 -8 -64 -8 -6 -1 -9 -9 -7 -18 4 -15 -3 -17 -44 -16 -51 2 -134 41 -151 71 -4 9 -11 12 -15 9z m378 -84 c-3 -5 -12 -10 -18 -10 -7 0 -6 4 3 10 19 12 23 12 15 0z m-317 -32 c-2 -6 -10 -14 -16 -16 -7 -2 -10 2 -6 12 7 18 28 22 22 4z m337 -13 c14 -13 25 -29 25 -35 0 -6 5 -8 12 -4 7 4 8 3 4 -5 -4 -6 -11 -9 -16 -6 -4 3 -10 -1 -13 -8 -3 -8 -22 -22 -43 -32 -37 -17 -38 -17 -56 5 -17 22 -25 90 -11 103 16 17 75 6 98 -18z m-121 -246 c-3 -5 -15 -8 -27 -8 -18 1 -18 2 -4 6 13 3 16 11 12 26 -6 21 -6 21 9 3 9 -10 13 -23 10 -27z m107 -30 c-13 -5 -39 -23 -57 -39 -19 -16 -49 -32 -69 -36 -19 -3 -32 -10 -29 -15 3 -5 2 -9 -3 -9 -11 0 -40 20 -29 20 5 0 2 8 -7 18 -14 16 -13 17 16 19 26 1 28 0 12 -7 -16 -7 -11 -9 20 -9 42 -1 101 28 111 54 4 8 18 15 33 14 l26 0 -24 -10z m-246 -17 c-3 -3 -11 0 -18 7 -9 10 -8 11 6 5 10 -3 15 -9 12 -12z m255 -17 c0 -2 -9 -3 -19 -2 -11 0 -18 5 -15 9 4 6 34 0 34 -7z"
       id="path10"
       style="fill:#f5c988;fill-opacity:1" />
    <path
       d="M967 2306 c-3 -8 0 -22 7 -32 11 -15 12 -13 8 14 -5 36 -7 38 -15 18z"
       id="path12"
       style="fill:#f5c988;fill-opacity:1" />
    <path
       d="M1605 2091 c4 -15 -1 -19 -29 -24 -19 -3 -49 -16 -66 -29 -43 -31 -123 -145 -114 -161 4 -6 4 -9 -1 -5 -9 9 -66 -64 -69 -90 -2 -9 -6 -15 -9 -12 -9 7 -87 -72 -81 -82 3 -5 0 -7 -8 -6 -7 2 -12 -3 -10 -10 1 -8 -1 -11 -6 -8 -4 3 -21 -4 -38 -15 -33 -22 -55 -25 -52 -6 2 6 -5 11 -14 11 -10 -1 -16 2 -13 6 7 12 -32 23 -46 14 -7 -4 -9 -3 -6 3 9 14 -222 84 -252 76 -18 -4 -22 -3 -16 6 6 10 0 12 -26 6 -23 -4 -29 -3 -20 3 10 7 -3 11 -43 13 -41 3 -61 0 -69 -10 -7 -8 -10 -16 -9 -18 2 -3 0 -8 -4 -11 -4 -4 -4 -1 0 6 11 19 -9 14 -29 -8 -10 -11 -26 -22 -36 -25 -11 -4 -16 -11 -13 -17 4 -6 3 -8 -3 -5 -5 3 -19 -1 -31 -9 -25 -18 -29 -72 -8 -139 l12 -40 24 52 c14 29 31 52 38 53 7 0 10 4 7 10 -4 6 1 7 11 3 13 -5 15 -3 9 7 -5 9 -4 11 3 6 14 -9 61 15 87 45 11 12 14 19 8 15 -7 -4 -13 -2 -13 3 0 6 5 11 10 11 17 0 111 -50 174 -93 47 -32 60 -37 68 -26 8 11 9 10 4 -3 -5 -18 52 -61 86 -63 10 -1 21 -5 25 -10 5 -4 -1 -5 -12 -1 -31 11 -7 -8 59 -48 56 -34 104 -48 91 -27 -3 5 0 13 6 17 8 4 9 3 5 -4 -12 -20 10 -13 29 8 16 18 14 25 -8 21 -5 -1 -6 3 -2 9 5 8 11 8 19 1 9 -8 25 3 59 37 26 27 45 51 42 54 -4 3 0 5 7 5 8 -1 38 20 68 47 30 27 49 46 41 41 -10 -6 -12 -4 -7 4 5 7 10 10 13 7 8 -8 44 14 38 23 -2 5 3 8 13 7 9 0 16 5 14 12 -1 8 2 11 7 8 5 -3 34 6 66 20 31 14 58 24 61 21 2 -2 -25 -21 -60 -42 -38 -22 -63 -43 -59 -49 3 -6 3 -8 -2 -4 -4 4 -21 -2 -37 -14 -21 -14 -26 -24 -19 -31 8 -8 14 -8 23 1 7 7 17 12 22 12 6 0 0 -7 -13 -16 -16 -12 -26 -13 -33 -6 -8 8 -17 8 -31 0 -16 -8 -17 -12 -6 -20 11 -8 11 -9 -2 -5 -10 3 -32 -11 -59 -38 -50 -51 -50 -49 34 -128 43 -40 47 -46 23 -37 -38 14 -37 14 -37 -20 0 -29 81 -165 93 -154 3 3 4 -1 4 -8 -1 -7 9 -34 23 -60 18 -36 31 -49 54 -54 17 -4 40 -13 51 -21 19 -14 19 -15 -8 -9 -18 4 -26 3 -23 -3 4 -5 2 -12 -4 -16 -5 -3 -10 -13 -10 -21 0 -8 3 -13 8 -11 4 3 8 -6 9 -20 2 -34 16 -46 53 -46 17 0 26 -3 21 -6 -5 -4 15 -19 45 -35 29 -16 75 -47 101 -69 74 -63 87 -73 80 -60 -4 6 -3 13 2 15 27 10 92 363 84 458 -6 81 -36 230 -45 230 -5 0 -7 4 -3 9 11 19 -16 101 -34 101 -13 0 -13 2 -2 9 11 7 8 27 -19 107 -55 167 -71 205 -82 198 -7 -4 -8 -2 -4 4 4 6 0 24 -8 40 -22 42 -95 114 -108 106 -6 -4 -8 -3 -4 4 7 12 -30 42 -52 42 -8 0 -11 -7 -7 -19z m-115 -125 c0 -2 -8 -10 -17 -17 -16 -13 -17 -12 -4 4 13 16 21 21 21 13z m-830 -202 c0 -2 -7 -4 -15 -4 -8 0 -15 4 -15 10 0 5 7 7 15 4 8 -4 15 -8 15 -10z m-5 -73 c3 -5 2 -12 -3 -15 -5 -3 -9 1 -9 9 0 17 3 19 12 6z m637 -133 c-7 -7 -12 -8 -12 -2 0 6 3 14 7 17 3 4 9 5 12 2 2 -3 -1 -11 -7 -17z m-175 -85 c0 -7 -4 -13 -7 -13 -4 0 -12 6 -18 13 -8 10 -6 13 7 13 10 0 18 -6 18 -13z m313 -119 c0 -8 -19 -13 -24 -6 -3 5 1 9 9 9 8 0 15 -2 15 -3z m167 -240 c-3 -3 -12 -4 -19 -1 -8 3 -5 6 6 6 11 1 17 -2 13 -5z m123 -190 c0 -2 -9 0 -20 6 -11 6 -20 13 -20 16 0 2 9 0 20 -6 11 -6 20 -13 20 -16z m110 -69 c11 -13 10 -14 -4 -9 -9 3 -16 10 -16 15 0 13 6 11 20 -6z"
       id="path14"
       style="fill:#f5c988;fill-opacity:1" />
    <path
       d="M1295 1986 c-17 -12 -17 -13 3 -11 26 2 37 11 24 19 -5 3 -17 -1 -27 -8z"
       id="path16"
       style="fill:#f5c988;fill-opacity:1" />
    <path
       d="M1057 1944 c-20 -20 -34 -40 -32 -45 8 -11 -21 -5 -37 9 -8 6 -19 8 -23 4 -5 -4 -6 -2 -2 3 3 6 2 17 -4 25 -7 12 -9 12 -9 -3 0 -15 -3 -16 -22 -6 -13 7 -24 13 -25 13 -8 3 -81 -79 -77 -86 3 -5 2 -7 -3 -6 -4 2 -26 -8 -47 -21 -38 -24 -39 -25 -15 -33 13 -5 34 -7 46 -5 12 2 21 1 18 -2 -4 -8 130 -44 142 -39 5 2 7 7 5 11 -1 5 1 6 6 3 10 -6 103 39 96 47 -3 2 7 2 21 0 23 -5 25 -2 25 28 0 32 2 31 24 -24 27 -66 52 -107 65 -107 15 0 62 61 55 71 -3 5 0 8 8 7 7 -2 12 3 10 10 -1 8 2 11 7 8 13 -8 84 91 75 105 -4 7 -3 9 4 5 18 -11 25 15 8 32 -13 14 -16 14 -16 2 -1 -12 -4 -11 -14 3 -10 13 -16 15 -21 7 -6 -9 -10 -9 -15 1 -7 10 -12 10 -23 0 -11 -8 -16 -9 -19 -1 -2 8 -12 8 -33 0 -32 -12 -111 -5 -120 11 -10 15 -20 11 -58 -27z"
       id="path18"
       style="fill:#f5c988;fill-opacity:1" />
    <path
       d="M673 1645 c-23 -18 -40 -35 -37 -37 2 -3 -10 -5 -26 -5 -39 0 -53 -14 -53 -55 0 -18 -2 -27 -5 -20 -2 7 -33 -30 -68 -83 -35 -53 -61 -101 -58 -106 3 -5 1 -8 -5 -7 -6 2 -35 -28 -66 -66 l-55 -69 0 -74 c0 -47 4 -72 10 -68 5 3 10 0 10 -7 0 -9 3 -9 10 2 7 11 10 2 10 -33 0 -51 15 -91 30 -82 5 3 8 41 5 83 -2 42 -2 69 1 59 3 -9 10 -15 15 -12 5 4 6 -7 3 -25 -5 -21 -3 -30 6 -30 8 0 10 -3 7 -7 -12 -11 14 -33 39 -33 12 0 26 5 30 12 5 7 0 9 -14 6 -23 -6 -48 15 -37 32 3 5 13 10 21 10 21 0 20 142 -3 180 -16 28 -15 29 18 81 19 30 33 58 31 64 -2 5 0 7 4 2 10 -9 45 23 38 35 -3 4 0 7 8 6 7 -2 12 3 10 10 -1 8 2 11 8 7 14 -9 42 14 33 28 -3 6 -1 7 5 3 22 -13 202 138 202 169 0 6 -10 16 -22 24 -67 41 -60 41 -105 6z m107 -41 c0 -8 -19 -13 -24 -6 -3 5 1 9 9 9 8 0 15 -2 15 -3z m-40 -44 c-6 -11 -13 -20 -16 -20 -2 0 0 9 6 20 6 11 13 20 16 20 2 0 0 -9 -6 -20z m-83 -65 c0 -17 -13 -20 -21 -6 -4 5 0 12 6 14 7 3 13 6 14 6 0 1 1 -6 1 -14z"
       id="path20"
       style="fill:#f5c988;fill-opacity:1" />
    <path
       d="M796 1563 c-14 -20 -23 -40 -20 -45 3 -5 2 -7 -3 -6 -4 2 -33 -16 -64 -40 -46 -35 -58 -49 -63 -80 -3 -20 -6 -145 -6 -277 -1 -256 -12 -356 -49 -439 -11 -26 -25 -45 -30 -42 -5 4 -21 1 -35 -6 -23 -10 -26 -16 -21 -47 15 -88 4 -81 115 -81 87 0 101 2 109 19 6 10 7 21 4 25 -3 3 -1 6 5 6 8 0 10 21 6 73 -12 137 23 316 103 526 23 62 40 118 36 124 -3 5 -1 7 4 4 14 -9 37 48 27 64 -4 7 -3 10 3 6 6 -4 14 0 17 9 10 25 7 52 -6 60 -7 5 -8 3 -3 -6 5 -9 4 -11 -4 -6 -6 4 -9 11 -6 16 7 11 -5 41 -15 35 -4 -2 -4 15 1 38 4 23 8 45 9 48 0 6 -75 59 -84 59 -3 0 -16 -17 -30 -37z"
       id="path22"
       style="fill:#f5c988;fill-opacity:1" />
    <path
       d="M920 1522 c0 -46 71 -149 93 -135 6 3 7 2 4 -4 -4 -6 0 -19 8 -29 16 -21 19 -35 7 -31 -8 2 -12 -6 -12 -29 0 -9 5 -12 12 -8 8 5 9 2 5 -10 -11 -27 48 -251 63 -241 4 3 6 -5 2 -17 -4 -16 -2 -19 8 -13 8 5 11 4 6 -3 -3 -6 10 -48 30 -94 21 -46 46 -110 56 -143 23 -71 34 -239 20 -275 -9 -20 -11 -21 -11 -6 -1 18 -3 18 -26 -4 -13 -12 -22 -28 -18 -34 3 -6 3 -8 -2 -4 -4 4 -22 -1 -39 -11 -61 -37 -172 -74 -238 -80 -40 -4 -64 -3 -61 3 4 5 -6 6 -23 2 -36 -9 -42 -15 -25 -25 9 -6 7 -10 -8 -14 -12 -3 -24 0 -28 5 -4 7 -1 8 8 3 11 -6 11 -5 2 5 -13 14 -33 5 -33 -16 0 -10 -10 -14 -34 -12 -19 1 -32 6 -30 10 3 4 -2 8 -10 8 -24 0 -20 -47 4 -60 12 -6 41 -9 68 -5 47 6 47 6 20 -10 -28 -16 -38 -45 -17 -45 7 0 22 11 35 25 13 14 29 25 35 25 7 0 3 -10 -9 -23 -12 -13 -22 -30 -22 -38 1 -11 3 -10 13 3 7 9 26 19 43 23 l29 6 -27 -16 c-38 -21 -35 -27 9 -19 32 6 35 5 22 -9 -8 -8 -18 -13 -22 -10 -5 3 -7 -3 -5 -12 5 -27 28 -31 28 -5 0 18 4 20 33 15 25 -5 70 6 178 41 97 32 167 49 216 52 63 4 75 8 99 33 l28 29 -17 53 c-9 30 -17 61 -17 70 0 10 -4 17 -9 17 -6 0 -7 88 -3 223 3 122 5 273 5 336 -2 123 -18 215 -36 204 -6 -3 -7 -1 -3 6 11 18 -25 105 -37 89 -6 -9 -7 -8 -3 5 6 20 -13 69 -25 61 -5 -3 -7 1 -4 8 3 7 1 19 -4 27 -9 14 -22 11 -52 -10 -27 -20 -79 -2 -168 56 -46 30 -88 52 -94 48 -6 -3 -7 -1 -3 5 4 7 2 12 -3 12 -6 0 -11 -3 -11 -8z m80 -78 c0 -8 -19 -13 -24 -6 -3 5 1 9 9 9 8 0 15 -2 15 -3z m144 -53 c3 -5 -1 -11 -9 -15 -9 -3 -15 0 -15 9 0 16 16 20 24 6z m-49 -11 c-3 -5 -12 -10 -18 -10 -7 0 -6 4 3 10 19 12 23 12 15 0z m108 3 c3 -5 -5 -8 -18 -8 -13 0 -21 3 -18 8 2 4 10 7 18 7 8 0 16 -3 18 -7z m156 -995 c1 -15 -4 -30 -9 -33 -6 -4 -8 -11 -5 -16 3 -5 0 -6 -8 -3 -7 2 -14 11 -14 19 0 8 4 12 9 9 4 -3 8 13 8 36 0 23 -4 39 -9 36 -4 -3 -6 7 -3 22 l5 27 13 -35 c7 -19 13 -47 13 -62z m-639 -108 c0 -5 -5 -10 -11 -10 -5 0 -7 5 -4 10 3 6 8 10 11 10 2 0 4 -4 4 -10z m20 -60 c0 -5 -5 -10 -11 -10 -5 0 -7 5 -4 10 3 6 8 10 11 10 2 0 4 -4 4 -10z"
       id="path24"
       style="fill:#f5c988;fill-opacity:1" />
    <path
       d="M1345 1450 c10 -11 20 -20 23 -20 3 0 -3 9 -13 20 -10 11 -20 20 -23 20 -3 0 3 -9 13 -20z"
       id="path26"
       style="fill:#f5c988;fill-opacity:1" />
    <path
       d="M1260 1448 c0 -9 15 -31 33 -49 17 -18 27 -30 20 -26 -7 4 4 -26 22 -67 54 -117 59 -153 50 -396 -9 -226 -9 -361 0 -397 9 -36 100 -56 148 -32 41 21 106 91 99 107 -3 9 -1 13 5 9 6 -4 14 0 17 9 9 23 7 34 -5 34 -5 0 -7 -5 -3 -12 4 -6 3 -8 -3 -5 -7 5 -7 19 0 47 10 35 9 42 -8 56 -11 8 -14 13 -7 9 15 -8 15 -8 1 55 -6 27 -15 50 -20 50 -6 0 -8 4 -5 9 8 13 -34 132 -45 125 -5 -3 -6 3 -2 12 5 13 3 15 -7 9 -9 -5 -11 -4 -6 4 10 16 -3 53 -16 45 -6 -4 -8 -2 -5 4 10 15 -3 43 -16 35 -6 -3 -7 -1 -3 6 9 14 -55 132 -68 124 -5 -3 -6 -1 -2 5 3 6 -3 27 -15 47 -17 28 -24 33 -31 23 -7 -10 -8 -8 -4 5 7 22 -61 120 -76 110 -6 -3 -8 -2 -5 4 4 6 -5 21 -18 33 -20 19 -25 20 -25 8z m80 -88 c0 -5 -5 -10 -11 -10 -5 0 -7 5 -4 10 3 6 8 10 11 10 2 0 4 -4 4 -10z m67 -432 c-3 -8 -6 -5 -6 6 -1 11 2 17 5 13 3 -3 4 -12 1 -19z m203 -371 c0 -2 -12 -14 -27 -28 l-28 -24 24 28 c23 25 31 32 31 24z"
       id="path28"
       style="fill:#f5c988;fill-opacity:1" />
    <path
       d="M1320 1426 c0 -2 8 -10 18 -17 15 -13 16 -12 3 4 -13 16 -21 21 -21 13z"
       id="path30"
       style="fill:#f5c988;fill-opacity:1" />
    <path
       d="M956 1358 c-3 -7 -9 -28 -15 -47 -13 -39 -14 -64 -3 -58 7 5 9 -37 10 -190 1 -36 5 -63 11 -63 6 0 8 -7 5 -14 -6 -17 15 -97 54 -202 19 -54 30 -71 41 -67 12 4 13 3 3 -5 -28 -19 40 -124 69 -106 8 4 10 3 5 -4 -6 -11 41 -42 64 -42 17 0 11 47 -7 54 -14 6 -15 9 -3 16 11 7 12 17 1 67 -18 78 -50 163 -62 163 -6 0 -8 4 -4 9 8 14 -16 61 -28 54 -6 -3 -7 -1 -3 6 9 15 -3 53 -15 46 -5 -3 -6 1 -3 9 3 9 2 16 -3 16 -5 0 -9 8 -10 18 0 9 -12 58 -25 109 -20 77 -27 90 -38 80 -12 -10 -12 -9 -1 5 13 17 6 83 -7 74 -4 -2 -8 10 -8 27 -1 17 -6 33 -13 35 -6 2 -9 8 -5 13 3 5 3 9 -1 9 -3 0 -7 -6 -9 -12z m64 -493 c0 -8 -2 -15 -4 -15 -2 0 -6 7 -10 15 -3 8 -1 15 4 15 6 0 10 -7 10 -15z"
       id="path32"
       style="fill:#f5c988;fill-opacity:1" />
    <path
       d="M1000 1340 c0 -5 5 -10 11 -10 5 0 7 5 4 10 -3 6 -8 10 -11 10 -2 0 -4 -4 -4 -10z"
       id="path34"
       style="fill:#f5c988;fill-opacity:1" />
    <path
       d="M271 1074 c0 -11 3 -14 6 -6 3 7 2 16 -1 19 -3 4 -6 -2 -5 -13z"
       id="path36"
       style="fill:#f5c988;fill-opacity:1" />
    <path
       d="M1550 1083 c0 -10 19 -40 21 -33 0 3 2 13 4 23 2 9 -3 17 -11 17 -8 0 -14 -3 -14 -7z"
       id="path38"
       style="fill:#f5c988;fill-opacity:1" />
    <path
       d="M312 990 c0 -19 2 -27 5 -17 2 9 2 25 0 35 -3 9 -5 1 -5 -18z"
       id="path40"
       style="fill:#f5c988;fill-opacity:1" />
    <path
       d="M559 683 c-13 -16 -12 -17 4 -4 9 7 17 15 17 17 0 8 -8 3 -21 -13z"
       id="path42"
       style="fill:#f5c988;fill-opacity:1" />
    <path
       d="M370 591 c0 -7 -27 -11 -71 -11 -44 0 -68 -4 -64 -10 3 -6 -4 -10 -17 -10 -18 0 -20 -2 -8 -10 11 -7 7 -10 -19 -10 -25 0 -32 -4 -27 -15 4 -11 -2 -15 -21 -15 -20 0 -24 -3 -16 -11 6 -6 29 -10 51 -7 22 2 38 0 36 -4 -3 -5 -21 -8 -40 -8 -19 0 -34 -4 -34 -9 0 -5 -10 -13 -22 -16 -15 -6 -26 -1 -38 15 l-18 23 -6 -21 c-9 -26 8 -59 31 -65 10 -3 56 -5 103 -5 79 1 90 4 156 39 39 22 78 39 87 39 13 0 17 9 16 43 0 23 -3 49 -7 57 -8 17 -72 27 -72 11z"
       id="path44"
       style="fill:#f5c988;fill-opacity:1" />
  </g>
</svg>
