<?xml version="1.0" standalone="no"?>
<!DOCTYPE svg PUBLIC "-//W3C//DTD SVG 20010904//EN"
 "http://www.w3.org/TR/2001/REC-SVG-20010904/DTD/svg10.dtd">
<svg version="1.0" xmlns="http://www.w3.org/2000/svg"
 width="468pt" height="183pt" viewBox="0 0 468 183"
 preserveAspectRatio="xMidYMid meet">
<metadata>
Created by potrace 1.8, written by Peter Selinger 2001-2007
</metadata>
<g transform="translate(0,183) scale(0.156000,-0.156000)"
fill="#000000" stroke="none">
<path d="M2378 1123 c-6 -16 -16 -55 -22 -88 l-12 -60 -47 0 c-59 -1 -95 -32
-103 -91 l-5 -39 15 38 c21 58 43 77 87 77 21 0 50 -5 66 -11 37 -14 113 -88
113 -111 0 -26 -5 -23 -51 27 -85 92 -199 89 -199 -4 0 -38 -30 -22 -117 59
-82 76 -110 95 -100 68 2 -7 10 -12 16 -10 6 1 15 -8 20 -20 5 -13 19 -32 32
-43 12 -11 19 -14 14 -6 -5 10 -4 12 4 7 6 -4 9 -11 6 -15 -2 -5 14 -21 38
-37 23 -15 44 -30 46 -31 3 -2 0 -8 -5 -13 -7 -7 -20 -4 -40 11 l-29 21 28
-26 c15 -14 27 -31 27 -38 0 -8 5 -6 11 5 14 23 29 22 29 -3 0 -11 6 -22 13
-24 81 -22 126 -38 142 -51 20 -15 20 -15 0 -9 -11 4 0 -8 23 -25 24 -18 42
-35 39 -37 -3 -3 -38 11 -78 32 -103 51 -166 55 -294 19 -53 -15 -99 -25 -102
-22 -3 3 13 11 36 18 22 6 38 15 36 19 -3 5 5 8 18 8 12 0 60 7 107 16 l85 15
-75 -4 c-50 -3 -67 -1 -50 4 16 6 19 9 8 10 -9 1 -24 -2 -33 -5 -13 -6 -14 -9
-3 -16 9 -7 6 -8 -11 -4 -14 3 -44 -3 -69 -14 -40 -18 -46 -18 -72 -5 -38 20
-70 51 -103 103 -24 37 -47 54 -47 35 0 -11 53 -77 82 -101 22 -19 27 -29 22
-50 -4 -15 -12 -34 -19 -42 -7 -8 -15 -23 -16 -33 -3 -12 -36 -35 -87 -62 -82
-42 -116 -65 -96 -65 6 0 15 5 21 11 6 6 26 13 43 15 17 2 39 9 48 15 15 9 14
10 -3 4 -33 -10 -4 12 38 30 43 18 49 12 10 -9 -16 -8 -23 -15 -18 -16 6 0 24
9 42 20 31 18 52 13 38 -10 -3 -5 1 -10 9 -10 9 0 16 -4 16 -10 0 -5 -6 -10
-14 -10 -7 0 -19 -7 -26 -15 -10 -12 -7 -12 20 1 34 18 33 18 76 -43 9 -13 20
-21 24 -18 5 3 12 0 16 -6 4 -7 3 -10 -2 -7 -5 3 -16 -1 -23 -10 -13 -14 -13
-15 6 -10 29 8 58 -22 40 -41 -10 -11 -8 -11 13 -2 23 11 24 11 6 -3 -10 -9
-22 -13 -27 -11 -11 7 -59 -16 -53 -26 4 -8 -35 -34 -46 -31 -11 4 -40 -10
-40 -19 0 -16 20 -10 103 33 77 40 86 42 166 43 l85 0 120 -117 c116 -114 176
-160 102 -78 -20 23 -34 45 -31 50 3 6 0 7 -8 4 -9 -3 -46 27 -96 78 -69 70
-81 87 -77 108 3 14 8 41 10 60 5 32 5 33 -3 5 -10 -38 -31 -78 -37 -72 -3 3
2 29 10 58 9 29 16 60 15 68 0 9 -9 -12 -18 -47 -26 -90 -34 -89 -28 3 l6 80
-12 -68 c-14 -82 -27 -78 -27 7 0 60 -1 62 -38 84 l-37 23 33 -30 c25 -24 32
-39 32 -68 l0 -37 -40 39 c-22 21 -40 44 -40 50 0 6 -7 20 -16 31 -8 10 -12
12 -8 4 5 -10 -1 -8 -15 5 l-23 20 29 12 c15 7 49 12 76 13 l47 0 2 -37 1 -38
6 44 c9 66 31 65 33 -1 1 -49 2 -50 5 -11 4 46 28 77 39 50 3 -9 12 -13 20
-10 10 3 14 -2 14 -18 0 -17 3 -20 9 -11 9 15 47 9 93 -14 15 -8 92 -80 172
-161 80 -80 148 -144 151 -141 3 3 -33 44 -80 91 -57 58 -83 91 -79 102 9 23
23 18 35 -12 5 -14 27 -44 47 -66 37 -38 38 -38 95 -33 51 5 63 3 95 -19 50
-34 64 -31 22 5 -19 16 -44 29 -56 30 -21 0 -65 41 -103 98 -12 17 -30 32 -39
32 -10 0 -25 9 -35 20 -9 11 -23 20 -31 20 -8 0 -24 14 -37 31 -16 23 -19 33
-10 42 9 9 34 4 104 -21 100 -35 107 -36 107 -23 0 5 -12 11 -27 14 -16 3 -52
14 -80 23 -80 27 -66 59 20 49 31 -3 36 -3 17 4 l-25 8 28 11 c41 17 32 24
-10 8 -57 -21 -93 -28 -93 -16 0 16 -50 123 -55 118 -3 -3 6 -29 20 -59 26
-57 32 -93 14 -87 -21 7 -47 96 -47 163 0 36 3 63 7 61 4 -3 13 -1 21 5 11 6
7 9 -15 9 -29 1 -29 1 -11 15 17 13 18 15 3 15 -17 0 -23 38 -19 108 0 13 -10
41 -24 63 -29 47 -59 52 -76 12z m60 -33 c1 -19 7 -44 12 -55 4 -11 11 -39 13
-63 7 -56 -13 -68 -61 -38 l-33 21 6 63 c7 82 20 114 43 110 11 -2 18 -14 20
-38z m-111 -178 c21 -13 3 -48 -35 -65 -24 -11 -40 -13 -48 -6 -13 10 -8 45 9
67 10 13 55 16 74 4z m143 -6 c0 -3 -4 -8 -10 -11 -5 -3 -10 -1 -10 4 0 6 5
11 10 11 6 0 10 -2 10 -4z m-32 -78 c32 -40 43 -87 20 -89 -10 0 -10 -2 0 -6
17 -7 16 -82 -1 -79 -17 2 -143 136 -129 136 6 0 30 -23 55 -51 40 -46 45 -49
50 -29 4 15 2 20 -8 17 -7 -3 -26 9 -42 26 -16 18 -42 41 -58 53 l-30 21 40
21 c55 29 65 27 103 -20z m-121 -34 c-7 -7 -37 7 -37 17 0 6 9 5 21 -1 11 -7
19 -14 16 -16z m-94 1 c4 -8 2 -17 -3 -20 -6 -4 -10 3 -10 14 0 25 6 27 13 6z
m107 -41 c24 -27 -7 -14 -46 21 l-39 35 37 -20 c20 -12 42 -28 48 -36z m-75
26 c3 -5 1 -10 -4 -10 -6 0 -11 5 -11 10 0 6 2 10 4 10 3 0 8 -4 11 -10z m255
-87 c0 -7 -4 -13 -10 -13 -5 0 -10 12 -10 28 0 21 2 24 10 12 5 -8 10 -21 10
-27z m-610 -3 c0 -33 64 -151 110 -203 23 -26 63 -59 89 -72 50 -26 35 -34
-20 -11 -35 15 -83 61 -113 109 -9 15 -21 25 -25 22 -9 -5 -32 26 -44 58 -11
30 2 18 22 -20 31 -58 25 -31 -9 40 -31 66 -37 97 -20 97 6 0 10 -9 10 -20z
m420 -15 c69 -34 110 -63 110 -76 0 -6 -13 -1 -29 11 -50 35 -157 70 -214 70
-28 0 -92 -9 -141 -20 -103 -23 -114 -24 -100 -11 5 6 34 17 64 25 30 8 66 19
80 25 14 6 59 9 100 8 58 -3 88 -10 130 -32z m185 -27 c-10 -31 -25 -47 -25
-26 0 24 11 48 22 48 5 0 6 -10 3 -22z m-618 -14 c2 -5 -5 -10 -16 -10 -11 0
-17 5 -14 14 6 14 25 12 30 -4z m226 -199 c40 -26 24 -31 -17 -5 -38 23 -136
127 -136 144 0 5 28 -20 63 -56 34 -35 75 -73 90 -83z m397 121 c0 -15 -18
-31 -26 -23 -7 7 7 37 17 37 5 0 9 -6 9 -14z m40 -4 c0 -23 -26 -59 -36 -50
-8 9 15 68 27 68 5 0 9 -8 9 -18z m60 -28 c22 -15 40 -28 40 -29 0 -2 -9 -5
-20 -8 -23 -6 -70 27 -70 49 0 19 4 18 50 -12z m-650 -19 c7 -9 8 -15 2 -15
-5 0 -12 7 -16 15 -3 8 -4 15 -2 15 2 0 9 -7 16 -15z m717 -45 c21 -25 14 -33
-23 -27 -35 6 -64 22 -64 36 0 14 75 6 87 -9z m48 -50 c8 -12 -40 -24 -62 -15
-17 7 -16 8 2 15 28 12 53 12 60 0z m-576 -36 c2 -2 -10 -4 -27 -4 -17 0 -34
4 -37 10 -5 9 53 3 64 -6z"/>
<path d="M2430 681 c0 -5 5 -13 10 -16 6 -3 10 -2 10 4 0 5 -4 13 -10 16 -5 3
-10 2 -10 -4z"/>
<path d="M595 990 c21 -22 35 -40 31 -40 -5 0 -3 -7 4 -15 7 -8 17 -12 22 -9
5 4 25 -9 44 -27 33 -32 46 -58 22 -43 -7 4 -8 3 -4 -4 4 -6 13 -9 21 -5 16 5
19 -5 9 -31 -4 -12 -20 -16 -53 -16 -54 0 -141 -23 -188 -50 l-32 -19 -90 92
c-50 50 -93 88 -97 84 -4 -4 34 -47 84 -97 83 -83 90 -93 82 -116 -5 -13 -13
-24 -18 -24 -5 0 -14 -11 -20 -24 -11 -24 -48 -45 -162 -89 -40 -15 -49 -22
-34 -25 12 -2 60 15 108 37 86 41 123 51 110 30 -4 -7 0 -9 13 -5 16 5 31 -6
69 -47 27 -30 58 -69 68 -87 l19 -33 -23 6 c-12 3 -19 3 -16 0 3 -4 -1 -14 -9
-23 -14 -15 -13 -17 5 -15 11 1 23 5 27 10 5 4 2 5 -4 1 -7 -4 -13 -2 -13 3 0
12 11 14 35 5 12 -5 3 -14 -36 -36 -29 -16 -60 -26 -68 -23 -9 3 -12 3 -8 -1
4 -5 -3 -14 -15 -21 -51 -28 11 -11 81 22 41 20 75 34 76 33 42 -64 161 -236
168 -243 21 -21 -18 39 -161 249 -109 162 -157 224 -180 235 -37 18 -41 31
-11 31 42 0 83 -47 239 -278 88 -129 160 -232 160 -227 0 6 -39 67 -87 137
-48 70 -85 130 -82 132 10 10 59 -8 59 -21 0 -9 8 -13 24 -11 18 2 51 -22 140
-102 64 -57 115 -109 113 -115 -2 -5 -37 -21 -78 -34 -92 -31 -71 -38 36 -13
74 18 82 18 102 3 12 -9 24 -24 26 -33 3 -10 10 -18 16 -18 28 0 4 25 -278
287 -31 28 -53 55 -49 59 4 4 15 1 24 -7 16 -13 16 -12 6 7 -9 17 -8 35 3 78
8 31 15 65 14 74 0 9 -7 -7 -15 -37 -19 -72 -50 -141 -63 -141 -15 0 -14 10 4
60 20 57 12 64 -9 8 -16 -41 -16 -42 -11 -8 4 25 2 31 -5 20 -5 -8 -10 -23
-10 -33 0 -11 -6 -17 -12 -14 -9 2 -12 23 -11 63 1 32 -1 49 -4 36 -2 -13 -8
-22 -12 -20 -4 2 -36 34 -72 72 l-64 69 72 -5 c78 -4 87 -8 81 -33 -3 -15 -7
-14 -33 6 -27 20 -27 19 5 -14 33 -33 35 -34 38 -14 6 50 13 67 27 67 8 0 15
-4 15 -9 0 -5 9 -7 20 -4 16 4 20 0 21 -18 1 -17 3 -19 6 -6 2 9 11 17 19 17
8 0 14 -8 14 -17 0 -15 10 -18 53 -19 106 -1 120 -8 220 -107 136 -134 258
-247 268 -247 5 0 -12 21 -36 48 -25 26 -45 50 -45 53 0 3 18 25 40 49 71 77
94 208 52 302 -31 70 -67 112 -138 164 -89 63 -152 90 -285 120 -100 23 -130
25 -242 22 -98 -4 -130 -2 -138 9 -6 7 -16 13 -22 13 -6 0 7 -18 28 -40z m382
-24 c107 -27 202 -69 271 -121 56 -42 73 -62 105 -124 28 -57 37 -85 37 -125
0 -84 -74 -216 -121 -216 -9 0 -49 30 -88 68 -55 52 -71 74 -71 95 0 16 -5 37
-10 48 -10 17 -2 23 76 60 58 28 83 44 76 51 -7 7 -28 2 -66 -15 -31 -14 -56
-24 -56 -21 0 2 -14 -3 -31 -12 -22 -11 -30 -12 -27 -3 2 7 -6 22 -19 35 -26
26 -30 44 -9 44 7 0 19 7 26 15 15 18 9 19 -24 4 -22 -11 -30 -8 -72 30 -26
22 -51 41 -56 41 -5 0 -6 4 -3 10 3 6 -1 7 -9 4 -32 -12 -15 13 19 29 44 21
67 22 41 2 -11 -8 -16 -15 -10 -15 5 0 18 7 28 15 14 11 16 15 5 15 -8 1 -3 7
11 15 31 18 43 19 34 3 -5 -10 -4 -10 6 -1 7 6 11 16 9 22 -2 6 -41 -6 -91
-29 -71 -31 -93 -37 -117 -30 -16 4 -32 6 -35 3 -3 -3 -13 0 -22 7 -11 10 -17
11 -23 2 -4 -7 -29 9 -69 47 -42 39 -59 61 -50 65 24 11 272 -3 335 -18z
m-189 -139 c2 -19 -1 -27 -12 -27 -11 0 -16 10 -16 31 0 38 24 35 28 -4z m62
-34 c0 -23 -17 -6 -29 29 l-11 33 20 -24 c11 -13 20 -30 20 -38z m76 8 c56
-37 112 -97 101 -108 -3 -2 -30 18 -60 45 -30 27 -68 57 -86 68 -30 18 -41 34
-22 34 5 0 35 -18 67 -39z m-106 -3 c0 -5 -4 -8 -10 -8 -5 0 -10 10 -10 23 0
18 2 19 10 7 5 -8 10 -18 10 -22z m-63 -15 c-20 -2 -52 -2 -70 0 -17 2 0 4 38
4 39 0 53 -2 32 -4z m154 -13 l24 -21 -35 17 c-43 21 -47 24 -28 24 9 0 26 -9
39 -20z m13 -38 c38 -18 67 -35 64 -38 -4 -3 -26 5 -50 17 -40 21 -56 23 -213
23 -142 1 -176 -2 -209 -17 -47 -21 -43 -33 5 -13 19 8 57 17 84 20 l50 5 -50
-15 c-27 -8 -67 -21 -87 -29 -22 -8 -38 -9 -38 -4 0 6 -4 7 -10 4 -19 -12 -10
12 14 34 45 42 90 52 236 48 127 -3 139 -5 204 -35z m-157 -16 c-4 -10 13 -16
64 -26 70 -12 176 -58 199 -85 11 -13 8 -13 -21 -1 -19 8 -83 26 -142 41 -93
23 -122 26 -210 22 -56 -3 -115 -8 -131 -12 -22 -6 -28 -5 -24 6 6 19 120 48
191 48 31 1 57 6 57 11 0 6 5 10 11 10 6 0 9 -6 6 -14z m146 -23 c-7 -2 -19
-2 -25 0 -7 3 -2 5 12 5 14 0 19 -2 13 -5z m117 -25 c0 -6 -6 -5 -15 2 -8 7
-15 14 -15 16 0 2 7 1 15 -2 8 -4 15 -11 15 -16z m-52 5 c-10 -2 -26 -2 -35 0
-10 3 -2 5 17 5 19 0 27 -2 18 -5z m57 -23 c17 -7 15 -9 -12 -9 -17 -1 -35 4
-38 9 -7 12 22 12 50 0z m29 -29 c11 -4 15 -10 9 -14 -5 -3 -19 0 -29 8 -20
15 -11 18 20 6z m-425 -106 c22 -30 41 -59 41 -65 0 -20 -16 -10 -34 23 -10
17 -28 47 -38 65 -30 49 -15 39 31 -23z"/>
<path d="M1173 753 c-16 -6 -85 -75 -80 -79 2 -2 19 12 37 31 19 19 42 35 52
35 10 0 18 5 18 10 0 11 -7 12 -27 3z"/>
<path d="M485 940 c10 -11 20 -20 23 -20 3 0 -3 9 -13 20 -10 11 -20 20 -23
20 -3 0 3 -9 13 -20z"/>
<path d="M600 926 c0 -2 8 -10 18 -17 15 -13 16 -12 3 4 -13 16 -21 21 -21 13z"/>
<path d="M2020 926 c0 -2 8 -10 18 -17 15 -13 16 -12 3 4 -13 16 -21 21 -21
13z"/>
<path d="M530 906 c0 -2 8 -10 18 -17 15 -13 16 -12 3 4 -13 16 -21 21 -21 13z"/>
<path d="M1955 882 c11 -13 29 -28 40 -34 21 -11 18 -8 -30 32 -29 24 -29 24
-10 2z"/>
<path d="M450 829 c29 -26 31 -31 13 -26 -31 7 -29 0 7 -18 33 -17 55 -20 26
-4 -10 7 -14 14 -8 18 5 3 -9 19 -32 34 l-41 28 35 -32z"/>
<path d="M1855 830 c10 -11 20 -20 23 -20 3 0 -3 9 -13 20 -10 11 -20 20 -23
20 -3 0 3 -9 13 -20z"/>
<path d="M213 810 c-111 -64 -162 -193 -114 -288 25 -49 104 -106 236 -171
115 -57 156 -64 53 -9 -35 19 -62 39 -61 46 2 6 -4 9 -11 6 -24 -9 -158 89
-183 134 -52 92 -3 217 111 283 28 16 44 29 36 29 -8 0 -38 -14 -67 -30z"/>
<path d="M2060 815 c13 -14 27 -25 31 -25 5 0 -3 11 -17 25 -14 14 -28 25 -31
25 -4 0 4 -11 17 -25z"/>
<path d="M1890 816 c0 -2 7 -7 16 -10 8 -3 12 -2 9 4 -6 10 -25 14 -25 6z"/>
<path d="M2143 763 c9 -2 25 -2 35 0 9 3 1 5 -18 5 -19 0 -27 -2 -17 -5z"/>
<path d="M1950 741 c0 -6 4 -13 10 -16 6 -3 7 1 4 9 -7 18 -14 21 -14 7z"/>
<path d="M2275 725 c27 -8 51 -12 53 -10 5 5 -69 25 -88 24 -8 0 7 -7 35 -14z"/>
<path d="M2705 683 c26 -6 80 -58 108 -103 23 -38 76 -88 113 -108 41 -22 26
3 -21 37 -25 18 -63 57 -85 86 -47 64 -85 95 -114 94 -20 -1 -20 -2 -1 -6z"/>
<path d="M752 605 c0 -16 2 -22 5 -12 2 9 2 23 0 30 -3 6 -5 -1 -5 -18z"/>
<path d="M2233 590 c0 -25 2 -35 4 -22 2 12 2 32 0 45 -2 12 -4 2 -4 -23z"/>
<path d="M791 585 c-1 -11 -4 -31 -6 -45 l-6 -25 11 25 c6 13 9 33 7 45 -4 19
-4 19 -6 0z"/>
<path d="M376 575 c-25 -19 -16 -19 20 0 16 8 22 15 14 15 -8 -1 -24 -7 -34
-15z"/>
<path d="M2261 574 c0 -11 3 -14 6 -6 3 7 2 16 -1 19 -3 4 -6 -2 -5 -13z"/>
<path d="M2359 572 c6 -9 72 -78 147 -152 76 -74 136 -132 134 -128 -14 20
-288 294 -281 280z"/>
<path d="M743 535 c0 -22 2 -30 4 -17 2 12 2 30 0 40 -3 9 -5 -1 -4 -23z"/>
<path d="M310 545 c-14 -8 -20 -14 -15 -14 6 0 21 6 35 14 14 8 21 14 15 14
-5 0 -21 -6 -35 -14z"/>
<path d="M2110 541 c0 -5 5 -13 10 -16 6 -3 10 -2 10 4 0 5 -4 13 -10 16 -5 3
-10 2 -10 -4z"/>
<path d="M2252 530 c0 -14 2 -19 5 -12 2 6 2 18 0 25 -3 6 -5 1 -5 -13z"/>
<path d="M46 452 c-27 -14 -45 -27 -40 -29 15 -5 78 23 94 41 17 21 5 18 -54
-12z"/>
<path d="M1085 460 c10 -11 20 -20 23 -20 3 0 -3 9 -13 20 -10 11 -20 20 -23
20 -3 0 3 -9 13 -20z"/>
<path d="M2280 456 c0 -2 8 -10 18 -17 15 -13 16 -12 3 4 -13 16 -21 21 -21
13z"/>
<path d="M450 440 c-18 -12 -2 -12 25 0 13 6 15 9 5 9 -8 0 -22 -4 -30 -9z"/>
<path d="M850 425 c13 -14 26 -25 28 -25 3 0 -5 11 -18 25 -13 14 -26 25 -28
25 -3 0 5 -11 18 -25z"/>
<path d="M2367 389 c7 -7 15 -10 18 -7 3 3 -2 9 -12 12 -14 6 -15 5 -6 -5z"/>
<path d="M1185 370 c10 -11 20 -20 23 -20 3 0 -3 9 -13 20 -10 11 -20 20 -23
20 -3 0 3 -9 13 -20z"/>
<path d="M2280 375 c7 -11 27 -31 44 -44 17 -14 25 -18 19 -11 -19 21 -16 34
5 19 9 -7 6 -1 -7 14 -25 28 -43 38 -21 12 19 -23 -1 -18 -28 8 -21 19 -23 19
-12 2z"/>
<path d="M980 360 c0 -5 10 -15 23 -21 22 -12 22 -12 3 10 -21 23 -26 26 -26
11z"/>
<path d="M2440 345 c8 -10 38 -33 67 -52 28 -18 54 -37 58 -43 3 -5 11 -10 17
-10 6 0 -4 11 -23 25 -115 85 -133 97 -119 80z"/>
<path d="M150 331 c0 -5 9 -7 20 -4 11 3 20 7 20 9 0 2 -9 4 -20 4 -11 0 -20
-4 -20 -9z"/>
<path d="M2385 310 c10 -11 15 -20 10 -20 -4 0 21 -29 56 -65 34 -36 65 -63
67 -60 3 2 -16 24 -42 47 -26 24 -48 51 -50 60 -2 18 -39 58 -52 58 -4 0 1 -9
11 -20z"/>
<path d="M1042 309 c2 -6 23 -23 47 -37 26 -15 42 -20 40 -13 -3 8 -24 24 -48
38 -24 13 -41 19 -39 12z"/>
<path d="M1260 303 c1 -10 50 -46 56 -41 2 3 -10 14 -26 27 -17 12 -30 18 -30
14z"/>
<path d="M355 283 c-56 -17 -91 -38 -77 -47 9 -5 132 49 132 59 0 3 -1 5 -2 4
-2 0 -25 -7 -53 -16z"/>
<path d="M481 285 c15 -8 46 -17 70 -20 42 -6 43 -5 19 8 -14 8 -45 17 -70 20
-43 5 -44 5 -19 -8z"/>
<path d="M1134 291 c7 -11 46 -35 46 -28 0 3 -12 12 -26 22 -15 9 -23 12 -20
6z"/>
<path d="M244 275 c-10 -8 -14 -15 -8 -15 6 0 17 7 24 15 16 19 9 19 -16 0z"/>
<path d="M2720 276 c0 -2 8 -10 18 -17 15 -13 16 -12 3 4 -13 16 -21 21 -21
13z"/>
<path d="M1815 260 c-3 -5 1 -10 9 -10 8 0 18 5 21 10 3 6 -1 10 -9 10 -8 0
-18 -4 -21 -10z"/>
<path d="M991 256 c39 -36 115 -96 121 -96 5 0 -18 23 -51 50 -33 28 -63 50
-67 50 -4 0 -5 -2 -3 -4z"/>
<path d="M1143 234 c0 -8 14 -22 31 -31 l30 -16 -29 32 c-17 17 -30 31 -31 31
0 0 -1 -7 -1 -16z"/>
</g>
</svg>
