<?xml version="1.0" standalone="no"?>
<!DOCTYPE svg PUBLIC "-//W3C//DTD SVG 20010904//EN"
 "http://www.w3.org/TR/2001/REC-SVG-20010904/DTD/svg10.dtd">
<svg version="1.0" xmlns="http://www.w3.org/2000/svg"
 width="468pt" height="494pt" viewBox="0 0 468 494"
 preserveAspectRatio="xMidYMid meet">
<metadata>
Created by potrace 1.8, written by Peter Selinger 2001-2007
</metadata>
<g transform="translate(0,494) scale(0.234000,-0.234000)"
fill="#000000" stroke="none">
<path d="M432 2069 c2 -7 10 -15 17 -17 8 -3 12 1 9 9 -2 7 -10 15 -17 17 -8
3 -12 -1 -9 -9z"/>
<path d="M396 2032 c-3 -6 -1 -14 5 -17 15 -10 25 3 12 16 -7 7 -13 7 -17 1z"/>
<path d="M447 1993 c-25 -34 -26 -37 -10 -55 22 -25 85 -59 161 -87 34 -13 64
-27 67 -31 3 -4 -22 -28 -54 -54 -78 -61 -156 -165 -178 -238 l-17 -58 -165
-1 c-91 0 -175 -4 -185 -8 -10 -4 46 -5 126 -3 l145 4 19 -41 c11 -26 23 -40
31 -37 7 3 13 1 13 -4 0 -5 -72 -9 -171 -9 -94 1 -175 -3 -180 -8 -4 -4 83 -8
194 -8 l202 0 67 -57 c43 -36 83 -61 110 -68 24 -6 48 -12 53 -14 16 -5 125
13 175 29 39 13 56 13 124 1 160 -28 311 8 375 90 20 25 20 25 103 14 46 -6
117 -22 158 -35 104 -33 171 -45 238 -44 54 2 52 2 -23 10 -81 7 -166 26 -243
53 -22 8 -107 24 -188 36 l-148 22 -94 -22 c-99 -23 -157 -22 -245 4 -41 12
-41 13 -19 25 13 7 69 23 125 36 56 13 93 24 82 24 -31 1 -182 -37 -215 -54
-27 -14 -38 -13 -149 15 -65 17 -127 30 -138 29 -10 0 79 -25 197 -55 191 -49
223 -54 290 -50 41 2 88 8 104 12 24 6 28 4 23 -9 -3 -9 1 -21 11 -29 11 -9
14 -10 8 0 -4 6 -3 12 3 12 5 0 13 -5 16 -10 4 -6 11 -8 16 -4 6 4 6 11 -2 20
-17 21 -1 17 24 -7 17 -15 18 -19 4 -14 -13 5 -16 3 -11 -8 4 -11 -8 -20 -43
-33 -81 -32 -248 -26 -403 14 -213 55 -256 75 -285 131 -14 28 -14 30 8 34 22
4 22 4 -1 6 -21 1 -23 4 -17 34 18 86 101 179 227 255 l37 23 64 -21 c35 -11
118 -29 185 -39 147 -23 217 -55 246 -114 16 -33 17 -45 7 -78 l-12 -38 -62
-4 c-34 -2 -1 -4 73 -5 78 -1 162 -9 199 -17 35 -9 66 -14 68 -11 2 2 -28 11
-67 21 l-70 17 0 57 c0 70 -33 144 -82 187 -50 44 -144 73 -352 109 -48 8 -40
16 49 49 39 14 54 23 35 20 -53 -10 -217 -80 -285 -121 -72 -44 -166 -115
-201 -151 -37 -39 -74 -121 -74 -166 0 -33 7 -45 48 -85 49 -47 129 -101 116
-78 -4 6 11 -4 33 -23 23 -19 42 -38 42 -42 2 -17 -115 -7 -159 13 -66 30
-144 115 -159 173 -35 139 111 319 354 440 140 70 251 111 355 130 109 21 105
22 104 -24 -1 -40 0 -40 38 -40 21 0 38 5 38 10 0 7 6 7 19 1 25 -14 40 6 30
39 -7 25 -7 24 -9 -5 -1 -18 -4 -23 -7 -12 -2 9 -9 17 -14 17 -5 0 -9 10 -8
23 0 21 1 21 9 2 7 -16 9 -17 9 -3 1 9 9 19 19 21 9 3 -10 5 -43 6 -98 2 -268
-36 -402 -89 l-123 -49 -102 34 c-57 18 -112 37 -123 41 -11 4 -17 3 -12 -1 4
-5 55 -25 114 -45 l107 -37 -46 -26 c-24 -15 -51 -27 -58 -27 -27 0 -170 63
-170 75 0 6 9 20 20 30 11 10 20 24 20 30 0 13 -62 65 -77 65 -4 -1 -20 -17
-36 -37z m73 -15 c0 -5 -5 -6 -10 -3 -6 4 -20 -4 -31 -17 l-21 -23 16 25 c24
37 20 57 -5 26 -12 -15 -24 -25 -27 -21 -3 3 5 16 18 30 22 23 25 24 42 8 10
-9 18 -20 18 -25z m802 12 c-2 -16 -6 -30 -8 -30 -2 0 -4 14 -4 30 0 17 4 30
8 30 5 0 7 -13 4 -30z m-33 -23 c-1 -17 -2 -18 -6 -4 -2 9 -9 17 -14 17 -6 0
-7 5 -4 10 10 16 25 1 24 -23z m-743 -9 c4 -7 4 -10 -1 -6 -4 4 -15 2 -24 -5
-14 -11 -14 -10 -2 6 16 20 18 21 27 5z m634 -171 c47 -13 99 -31 117 -40 71
-37 111 -106 114 -197 3 -70 3 -70 -50 -70 l-48 0 1 59 c1 53 -2 63 -28 90
-44 46 -107 71 -235 93 -64 10 -118 21 -120 24 -3 2 1 10 7 16 9 9 12 9 12 -1
0 -7 5 -9 10 -6 6 4 8 10 5 15 -3 5 0 12 6 16 8 4 9 3 5 -4 -9 -15 -10 -15 49
7 65 25 57 25 155 -2z"/>
<path d="M1054 1784 c-18 -14 -18 -15 4 -4 12 6 22 13 22 15 0 8 -5 6 -26 -11z"/>
<path d="M1418 2013 c7 -3 16 -2 19 1 4 3 -2 6 -13 5 -11 0 -14 -3 -6 -6z"/>
<path d="M376 2003 c-9 -9 -7 -33 3 -33 12 0 22 28 12 34 -5 3 -11 3 -15 -1z"/>
<path d="M1428 1963 c7 -3 16 -2 19 1 4 3 -2 6 -13 5 -11 0 -14 -3 -6 -6z"/>
<path d="M1410 1946 c0 -2 7 -7 16 -10 8 -3 12 -2 9 4 -6 10 -25 14 -25 6z"/>
<path d="M1175 1924 l-60 -12 60 5 c33 3 62 7 64 9 11 10 -9 9 -64 -2z"/>
<path d="M1128 1463 c6 -2 18 -2 25 0 6 3 1 5 -13 5 -14 0 -19 -2 -12 -5z"/>
<path d="M1585 1435 c41 -16 210 -55 232 -54 33 1 28 3 -52 19 -33 7 -82 19
-109 26 -44 12 -98 19 -71 9z"/>
<path d="M1868 1373 c12 -2 30 -2 40 0 9 3 -1 5 -23 4 -22 0 -30 -2 -17 -4z"/>
<path d="M135 767 c-41 -50 -42 -52 -13 -32 15 11 28 26 28 33 0 15 -2 15 -15
-1z"/>
<path d="M170 766 c0 -8 4 -17 9 -20 5 -4 7 3 4 14 -6 23 -13 26 -13 6z"/>
<path d="M167 685 c-17 -22 -26 -42 -23 -53 9 -26 178 -123 271 -154 44 -15
78 -28 75 -29 -3 0 -59 -7 -125 -14 l-120 -14 127 6 128 5 11 -26 c9 -19 15
-23 21 -14 5 9 8 4 8 -13 0 -24 -5 -27 -46 -33 -26 -3 -74 -7 -108 -7 -34 -1
-74 -5 -91 -9 -29 -7 -29 -8 -4 -9 14 0 84 4 155 10 l129 11 48 -45 c77 -72
181 -89 287 -47 29 11 62 18 74 15 11 -4 3 5 -20 19 -22 14 -76 35 -120 46
-112 30 -130 38 -143 66 -23 52 -17 57 57 52 53 -5 88 -16 172 -56 58 -27 116
-53 130 -57 23 -7 111 -79 118 -97 6 -14 -84 -8 -123 8 -50 20 -56 12 -8 -12
74 -36 195 -12 237 48 l16 22 101 -23 c118 -26 310 -51 389 -49 50 1 47 1 -25
9 -197 20 -274 31 -329 45 -33 9 -132 26 -220 38 -151 22 -266 55 -266 77 0
17 78 21 213 10 221 -19 233 -20 389 -52 81 -16 191 -34 245 -39 123 -12 135
-12 129 -2 -3 5 -53 12 -112 15 -156 9 -472 77 -357 77 40 0 290 37 303 45 6
3 10 33 10 65 l0 59 -52 -6 c-29 -3 -64 -12 -77 -20 -26 -16 -194 -42 -277
-43 -48 0 -52 2 -75 37 -37 57 -76 75 -162 75 -39 0 -84 -5 -99 -11 -23 -9
-38 -5 -93 21 -85 39 -178 49 -234 23 -23 -10 -53 -36 -71 -61 -17 -24 -37
-44 -44 -44 -22 0 -159 37 -217 59 -33 13 -76 40 -104 66 -26 25 -52 45 -59
45 -6 0 -24 -16 -39 -35z m53 -35 c-23 -32 -35 -37 -46 -18 -4 6 -3 8 3 5 6
-4 21 5 33 18 32 34 36 31 10 -5z m696 -25 l59 -27 -30 -10 c-16 -5 -64 -12
-106 -17 -105 -11 -159 -56 -159 -131 0 -60 31 -94 92 -104 21 -4 38 -10 38
-14 0 -4 10 -18 21 -32 l20 -25 -6 25 -6 25 21 -24 c26 -30 17 -40 -47 -48
-111 -13 -214 56 -229 153 -13 91 42 208 116 247 49 26 140 18 216 -18z m-588
-10 c17 -9 65 -26 108 -39 66 -20 79 -27 96 -57 11 -19 17 -26 14 -16 -3 11
-2 15 4 12 6 -3 10 -17 10 -31 0 -19 -5 -24 -24 -24 -36 0 -201 56 -251 86
-38 22 -43 29 -35 44 8 15 32 35 46 40 0 0 15 -7 32 -15z m885 -16 c27 -14 77
-60 77 -71 0 -4 -49 -8 -108 -8 -77 0 -132 -6 -188 -21 -43 -11 -127 -23 -186
-26 -120 -7 -130 -1 -78 47 23 21 43 29 92 34 35 4 104 18 153 31 98 25 204
31 238 14z m494 -101 c-2 -13 -4 -3 -4 22 0 25 2 35 4 23 2 -13 2 -33 0 -45z
m46 -19 c5 -4 4 -10 -3 -14 -18 -11 -30 14 -29 60 l1 40 10 -40 c6 -22 15 -43
21 -46z m-123 21 c0 -10 5 -22 10 -25 7 -4 9 3 5 22 -5 27 -5 27 10 -4 8 -18
21 -33 28 -34 39 -3 -149 -31 -263 -38 -164 -12 -410 6 -410 29 0 4 11 15 25
24 27 17 33 10 13 -14 -7 -8 -1 -4 15 9 15 14 27 19 27 13 0 -8 14 -5 40 8 37
19 53 20 168 15 82 -4 160 -1 222 8 52 7 98 12 103 10 4 -2 7 -13 7 -23z m58
-11 c-3 -8 -7 -3 -11 10 -4 17 -3 21 5 13 5 -5 8 -16 6 -23z m-725 -38 l37
-19 -42 -10 c-36 -9 -49 -8 -88 10 l-45 21 35 7 c56 12 64 11 103 -9z m-400
-81 c3 -11 1 -20 -4 -20 -5 0 -9 9 -9 20 0 11 2 20 4 20 2 0 6 -9 9 -20z"/>
<path d="M85 680 c-7 -11 22 -26 32 -16 4 3 1 6 -6 6 -7 0 -9 5 -6 10 3 6 2
10 -4 10 -5 0 -13 -5 -16 -10z"/>
<path d="M1798 596 c-25 -19 -22 -26 10 -25 17 1 21 3 9 6 -14 4 -16 8 -6 19
14 17 9 17 -13 0z"/>
<path d="M1800 485 c0 -8 0 -18 -1 -22 0 -4 5 -9 13 -11 9 -2 8 0 -2 7 -10 7
-11 11 -2 11 6 0 12 7 12 15 0 8 -4 15 -10 15 -5 0 -10 -7 -10 -15z"/>
<path d="M102 433 c27 -2 69 -2 96 0 26 2 4 3 -48 3 -52 0 -74 -1 -48 -3z"/>
<path d="M100 340 c50 -13 140 -18 146 -8 3 4 -15 8 -39 8 -24 0 -66 2 -93 5
-45 4 -46 4 -14 -5z"/>
<path d="M1873 223 c15 -2 37 -2 50 0 12 2 0 4 -28 4 -27 0 -38 -2 -22 -4z"/>
</g>
</svg>
