<?xml version="1.0" standalone="no"?>
<!DOCTYPE svg PUBLIC "-//W3C//DTD SVG 20010904//EN"
 "http://www.w3.org/TR/2001/REC-SVG-20010904/DTD/svg10.dtd">
<svg version="1.0" xmlns="http://www.w3.org/2000/svg"
 width="468pt" height="587pt" viewBox="0 0 468 587"
 preserveAspectRatio="xMidYMid meet">
<metadata>
Created by potrace 1.8, written by Peter Selinger 2001-2007
</metadata>
<g transform="translate(0,587) scale(0.147634,-0.147634)"
fill="#000000" stroke="none">
<path d="M2040 3946 c-25 -8 -70 -19 -101 -25 -31 -7 -83 -27 -114 -46 -32
-19 -63 -35 -70 -35 -7 0 -32 -7 -56 -16 -73 -26 -176 -36 -208 -20 -15 8 -60
17 -101 21 -41 3 -122 13 -180 21 -181 25 -367 20 -420 -12 l-35 -20 -49 39
c-91 71 -112 78 -235 73 -123 -5 -147 -13 -232 -80 -76 -60 -103 -128 -98
-250 3 -69 8 -90 27 -115 l23 -32 -31 -30 c-22 -23 -34 -49 -46 -100 -8 -37
-13 -73 -9 -78 3 -6 -4 -20 -16 -32 -18 -18 -20 -28 -14 -68 4 -25 7 -56 6
-68 -9 -109 5 -275 25 -314 10 -20 14 -44 11 -65 -4 -25 2 -45 28 -88 20 -33
31 -63 28 -75 -7 -28 24 -116 54 -151 14 -17 22 -30 19 -30 -4 0 7 -27 24 -60
16 -33 30 -73 30 -91 0 -17 13 -63 28 -102 37 -93 57 -194 42 -212 -6 -7 -17
-38 -25 -70 -9 -32 -23 -69 -33 -84 -10 -14 -31 -55 -46 -91 -16 -36 -37 -74
-47 -86 -21 -23 -59 -122 -59 -154 0 -12 -11 -31 -24 -43 -18 -16 -28 -43 -39
-102 -29 -148 -39 -245 -32 -282 13 -67 9 -156 -8 -190 -10 -18 -17 -43 -17
-57 0 -14 -5 -28 -10 -31 -15 -9 -12 -66 5 -115 8 -23 15 -54 15 -68 0 -26 55
-122 70 -122 14 0 135 -119 128 -126 -9 -8 12 -65 32 -89 10 -11 20 -32 24
-47 9 -38 53 -65 127 -79 117 -21 146 -22 201 -3 29 10 61 17 71 15 10 -1 37
10 60 26 66 45 112 166 88 228 -13 32 71 69 107 47 16 -11 -42 -105 -75 -121
-46 -22 -16 -41 65 -41 23 0 59 -7 80 -16 20 -8 67 -18 104 -21 39 -3 73 -12
79 -19 13 -16 70 -18 116 -5 21 6 35 6 39 -1 8 -12 97 -1 144 19 19 8 49 16
66 18 16 1 49 12 72 24 30 15 60 21 111 21 38 0 72 -4 76 -9 3 -6 27 -13 53
-17 26 -4 52 -13 57 -19 16 -20 114 -48 149 -42 19 3 39 -1 51 -9 22 -16 98
-19 126 -4 15 8 23 7 35 -5 22 -22 90 -19 141 6 l44 21 22 -20 c31 -29 107
-44 160 -32 23 5 59 10 81 10 38 0 95 27 128 61 10 9 25 23 35 31 27 19 60 80
78 142 23 77 24 203 2 243 -9 18 -17 51 -17 73 0 32 -6 48 -28 70 l-29 28 7
104 c9 135 6 219 -10 248 -13 23 -15 37 -18 106 -1 16 -20 60 -42 97 -23 37
-39 71 -36 75 10 16 -16 99 -46 146 -23 35 -33 63 -35 100 -1 28 -10 79 -18
114 -9 34 -13 67 -10 72 4 6 8 35 9 64 2 30 7 60 11 67 5 7 11 48 13 91 3 43
8 78 13 78 5 0 18 31 29 69 15 47 29 75 45 85 15 10 30 37 42 73 10 32 25 64
35 71 9 7 22 38 28 70 7 31 16 62 20 67 5 6 11 32 16 60 4 27 12 55 19 61 13
13 29 130 19 145 -3 5 0 9 6 9 13 0 9 256 -4 295 -6 16 2 25 39 47 55 33 68
62 63 145 -1 34 1 65 5 69 11 12 8 58 -8 103 -27 77 -160 191 -223 191 -13 0
-23 14 -35 54 -20 62 -57 100 -115 116 -20 5 -42 10 -48 10 -7 0 -14 7 -18 15
-3 9 -18 15 -34 15 -36 0 -139 -44 -169 -72 -12 -11 -36 -21 -55 -23 -18 -1
-59 -8 -90 -16 -38 -9 -63 -10 -78 -3 -21 9 -18 12 36 48 67 45 118 55 162 32
36 -18 42 -19 42 -7 0 5 -20 19 -45 31 -25 12 -49 28 -53 36 -10 19 -137 46
-174 38 -17 -3 -28 -1 -28 5 0 15 -94 13 -150 -3z m98 -41 c-25 -19 -62 -57
-83 -85 -20 -28 -50 -57 -66 -65 -27 -14 -89 -21 -89 -10 0 3 11 28 25 54 50
100 109 140 204 141 l54 0 -45 -35z m209 0 l38 -16 -45 -20 c-24 -11 -58 -31
-75 -44 -17 -12 -50 -29 -72 -35 -42 -13 -107 -7 -118 10 -9 15 66 91 110 112
45 21 100 19 162 -7z m-1751 0 c20 -8 52 -28 70 -45 19 -16 39 -30 44 -30 5 0
14 -9 20 -21 11 -20 11 -20 -19 -5 -39 21 -63 20 -138 -4 -35 -11 -69 -18 -75
-16 -7 3 -25 7 -41 10 l-27 6 15 38 c19 46 58 82 91 82 13 0 41 -7 60 -15z
m-146 0 c0 -24 -59 -129 -91 -161 -23 -24 -36 -44 -31 -48 6 -3 19 4 29 16 47
57 65 67 111 58 24 -4 59 -4 78 0 32 7 35 6 32 -13 -2 -14 -11 -23 -27 -25
-32 -5 -111 -88 -135 -140 -15 -32 -25 -42 -43 -42 -12 0 -23 -5 -23 -11 0 -6
-6 -9 -12 -6 -9 2 -12 23 -10 70 4 61 1 70 -32 124 -49 79 -48 115 2 146 20
13 44 26 52 30 18 7 100 9 100 2z m1500 -32 c-18 -20 -38 -50 -45 -67 -18 -43
-52 -84 -83 -100 -33 -17 -116 -31 -111 -20 25 57 80 141 105 161 36 27 118
62 148 63 15 0 13 -6 -14 -37z m710 -23 c0 -5 -6 -10 -14 -10 -8 0 -28 -13
-45 -29 -29 -27 -31 -34 -31 -99 0 -39 -4 -73 -8 -76 -11 -6 -79 59 -87 84
-11 35 32 96 84 119 49 22 101 27 101 11z m-1735 -46 c-14 -26 -25 -53 -25
-60 0 -22 -51 -74 -73 -74 -38 0 -49 15 -63 92 -8 45 50 74 173 87 8 1 3 -17
-12 -45z m158 36 l32 0 -65 -70 c-53 -56 -73 -71 -108 -79 -49 -10 -47 -14
-19 61 23 64 72 103 115 92 8 -2 28 -4 45 -4z m-803 -126 c24 -38 30 -59 30
-101 0 -29 -3 -53 -7 -53 -5 0 -30 13 -58 28 -83 45 -95 101 -43 192 l32 55 8
-37 c4 -20 21 -58 38 -84z m987 108 c12 -8 -61 -93 -96 -111 -17 -10 -115 -1
-127 11 -8 8 47 69 81 89 31 19 119 26 142 11z m1513 -15 c17 -12 9 -16 -81
-46 -55 -19 -102 -31 -106 -28 -13 14 10 59 40 78 36 23 112 21 147 -4z
m-1047 -39 c-15 -28 -39 -63 -54 -79 -25 -26 -94 -53 -111 -43 -4 3 12 33 36
67 43 61 103 107 139 107 16 0 15 -5 -10 -52z m-270 26 c16 -6 13 -9 -15 -26
-18 -11 -49 -35 -68 -53 -48 -46 -82 -58 -131 -45 -21 6 -41 16 -45 22 -4 6
17 34 50 66 l57 55 67 -6 c37 -3 75 -9 85 -13z m-733 -32 c31 -31 46 -93 34
-144 -6 -30 -8 -31 -16 -12 -5 11 -33 34 -61 50 -38 21 -58 41 -74 73 -12 24
-20 48 -17 52 3 5 28 9 55 9 42 0 55 -5 79 -28z m1356 12 c18 -13 38 -15 79
-11 40 4 57 2 66 -9 6 -8 22 -14 34 -14 12 0 33 -9 47 -19 13 -11 35 -23 49
-26 22 -6 24 -11 25 -72 1 -57 4 -69 25 -86 13 -10 28 -33 34 -50 7 -21 26
-42 57 -62 41 -26 48 -34 48 -64 0 -45 50 -130 103 -175 23 -20 59 -52 79 -71
25 -24 46 -35 67 -35 29 0 31 -2 31 -37 0 -21 7 -51 15 -66 11 -21 12 -34 4
-48 -5 -11 -9 -44 -8 -75 2 -31 -3 -60 -9 -66 -7 -7 -12 -33 -12 -58 0 -26 -9
-63 -20 -85 -11 -22 -20 -51 -20 -66 0 -14 -9 -34 -20 -44 -10 -9 -27 -38 -37
-64 -9 -25 -30 -70 -45 -100 -15 -29 -28 -62 -28 -73 0 -11 -9 -31 -19 -44
-11 -14 -27 -49 -36 -77 -10 -29 -26 -70 -36 -93 -10 -22 -19 -53 -19 -68 0
-16 -8 -50 -17 -75 -15 -44 -15 -51 0 -97 11 -34 14 -67 10 -106 -7 -66 14
-143 53 -193 13 -17 21 -35 17 -39 -12 -11 -3 -87 14 -120 8 -17 27 -43 41
-59 22 -23 26 -37 27 -86 1 -46 8 -73 33 -121 28 -55 30 -66 22 -108 -4 -26
-5 -67 0 -92 10 -53 -9 -95 -38 -86 -10 3 -47 7 -84 8 -59 1 -72 -2 -108 -27
-61 -42 -85 -99 -60 -145 8 -14 4 -20 -18 -29 -29 -12 -62 -57 -62 -84 0 -9
-10 -32 -21 -52 -19 -32 -21 -45 -15 -118 4 -46 14 -92 22 -105 20 -30 11 -39
-22 -22 -14 8 -44 13 -66 13 -23 -1 -46 4 -54 12 -8 8 -36 16 -62 20 -26 3
-60 10 -77 17 -16 6 -55 14 -85 18 -30 4 -75 15 -100 24 -24 9 -56 16 -70 14
-14 -1 -42 2 -63 6 -28 6 -55 3 -105 -12 -37 -12 -88 -24 -115 -27 -36 -5 -52
-13 -68 -34 -19 -27 -24 -28 -98 -27 -55 1 -86 7 -104 19 -15 9 -50 18 -79 19
-29 2 -68 11 -87 20 -20 10 -51 18 -71 18 -19 0 -44 7 -54 15 -27 21 -65 19
-104 -5 -18 -11 -34 -20 -37 -20 -2 0 -7 16 -11 36 -7 37 -57 104 -78 104 -6
0 -18 13 -28 29 -11 20 -30 34 -56 42 -31 9 -43 19 -56 50 -10 21 -31 52 -48
69 -16 17 -34 47 -40 67 -11 41 -67 103 -92 103 -8 0 -30 9 -48 20 -34 21 -98
27 -98 10 0 -5 15 -10 33 -10 18 0 42 -6 52 -14 18 -13 18 -14 -4 -45 -12 -17
-25 -31 -29 -31 -4 0 -20 16 -36 37 -29 36 -35 64 -37 191 -2 141 4 188 32
246 19 38 29 75 29 103 0 33 6 49 24 66 27 25 56 94 56 133 0 15 15 43 35 67
19 22 38 56 41 76 4 20 12 43 19 51 6 8 19 32 28 52 25 52 37 250 18 287 -5 9
-9 48 -10 86 -2 45 -9 82 -21 105 -10 19 -21 51 -24 71 -4 19 -19 55 -34 80
-15 24 -33 62 -40 84 -6 23 -27 59 -47 82 -19 23 -35 52 -35 65 0 13 -9 42
-20 63 -18 35 -19 45 -9 82 9 32 8 50 -2 80 -18 55 -23 140 -13 229 3 28 1 67
-4 86 -8 30 -6 37 17 60 27 26 48 27 169 2 22 -4 40 -1 57 10 31 21 70 81 80
124 6 29 10 32 45 32 31 0 44 6 68 35 17 19 34 51 38 71 4 21 13 49 20 63 8
14 14 31 14 37 0 12 57 25 123 30 21 1 56 11 78 22 31 16 47 18 77 11 20 -5
55 -9 76 -9 27 0 47 -7 64 -22 19 -19 36 -23 90 -24 37 -1 89 -7 116 -13 26
-6 53 -8 58 -5 5 3 37 6 71 5 34 0 84 6 112 14 27 7 75 19 105 25 31 6 71 20
90 32 22 14 48 21 72 19 39 -3 115 30 125 54 7 19 8 19 39 -1z m-476 -11 c-56
-97 -107 -130 -180 -118 -60 10 -68 20 -40 50 51 54 114 82 193 84 33 1 37 -1
27 -16z m810 1 c0 -22 -24 -44 -50 -44 -42 0 -46 17 -8 34 35 15 58 19 58 10z
m42 -36 c-3 -40 0 -47 42 -86 24 -24 49 -56 54 -72 9 -25 8 -29 -11 -34 -68
-18 -131 6 -141 55 -14 73 -5 119 32 162 23 26 27 21 24 -25z m367 13 c4 -9
11 -29 15 -45 l7 -29 -81 5 c-64 4 -83 9 -95 24 -17 24 -12 30 55 52 60 20 86
19 99 -7z m-2219 -75 c4 -20 4 -36 0 -36 -9 0 -30 55 -30 78 0 27 21 -2 30
-42z m-42 5 c16 -52 14 -112 -4 -136 -14 -19 -16 -18 -59 26 -44 43 -45 46
-34 78 10 27 58 71 80 71 3 0 11 -17 17 -39z m2066 33 c26 -10 18 -24 -14 -24
-29 0 -38 9 -23 23 8 9 17 9 37 1z m-1907 -103 c28 -36 0 -126 -47 -151 -26
-14 -78 -1 -95 23 -14 20 -12 24 18 55 27 28 32 40 32 81 l0 49 40 -21 c22
-11 45 -27 52 -36z m2016 50 l28 -6 -45 -44 c-52 -51 -85 -56 -124 -18 -22 23
-24 29 -14 52 11 23 17 25 69 24 32 -1 71 -4 86 -8z m212 -22 c33 -16 36 -32
8 -37 -10 -2 -46 -14 -80 -28 -71 -28 -101 -30 -129 -10 -25 19 -12 42 42 74
44 26 107 26 159 1z m-2692 -73 c40 -16 48 -33 20 -42 -10 -3 -32 -12 -50 -21
-17 -8 -36 -12 -42 -9 -16 10 -43 110 -35 130 6 15 11 14 38 -12 17 -17 48
-37 69 -46z m346 10 c-9 -8 -10 -7 -5 7 3 10 7 24 7 30 1 7 3 4 6 -7 3 -10 -1
-23 -8 -30z m-137 -8 c19 -18 49 -46 67 -62 18 -16 37 -41 42 -54 9 -24 4 -82
-7 -82 -5 0 -62 44 -115 90 -16 14 -32 36 -34 50 -4 23 3 90 10 90 2 0 18 -15
37 -32z m2572 -9 c34 -27 66 -89 66 -128 l0 -30 -35 24 c-20 13 -68 31 -108
40 -125 28 -148 59 -69 93 63 27 112 27 146 1z m-251 -26 c34 -7 35 -27 1 -58
-35 -32 -41 -31 -49 5 -4 16 -11 32 -16 35 -5 4 -9 13 -9 22 0 11 6 14 23 8
12 -4 34 -9 50 -12z m-2391 -18 c3 -14 2 -28 -3 -30 -4 -3 -10 -18 -14 -34 -3
-15 -19 -40 -34 -55 l-28 -27 -7 26 c-4 14 -4 43 0 63 12 69 76 111 86 57z
m2309 -2 c21 -53 28 -96 18 -121 l-10 -25 -35 34 c-49 47 -53 73 -18 110 15
16 29 29 31 29 2 0 8 -12 14 -27z m-87 -20 c-13 -20 -34 -43 -45 -51 -18 -13
-25 -12 -56 4 -35 19 -58 48 -49 62 2 4 22 9 42 10 21 2 40 5 43 7 2 3 24 5
47 5 l43 0 -25 -37z m-2321 -5 c-4 -13 -7 -60 -5 -104 2 -68 -1 -86 -17 -105
l-19 -23 -31 49 c-51 80 -41 163 22 190 48 21 60 19 50 -7z m2617 -35 c30 -8
35 -13 36 -42 1 -18 7 -38 13 -44 8 -8 6 -16 -5 -29 -16 -17 -18 -16 -46 7
-16 14 -34 25 -39 25 -5 0 -27 18 -47 39 l-37 39 20 25 c20 23 21 24 45 6 14
-9 41 -21 60 -26z m-248 -70 c24 -27 38 -52 38 -69 0 -26 -1 -26 -52 -22 -85
9 -112 70 -62 146 16 24 17 24 27 6 5 -10 27 -38 49 -61z m-2185 28 c28 -19
54 -44 57 -55 8 -31 -31 -68 -69 -64 -28 3 -30 5 -27 40 2 20 -4 50 -12 67
-17 32 -21 55 -8 49 4 -1 30 -18 59 -37z m2553 8 c53 -23 50 -18 64 -121 6
-47 -8 -58 -28 -21 -8 15 -32 47 -55 70 -27 27 -41 50 -41 67 0 31 -1 31 60 5z
m-233 -13 l27 -24 -24 -26 c-45 -46 -98 -30 -71 22 5 9 12 25 15 35 7 23 20
22 53 -7z m-2397 -4 c0 -10 5 -23 11 -29 6 -6 9 -21 7 -34 -3 -26 -39 -36 -84
-25 -32 8 -31 40 1 54 13 6 30 20 37 32 16 25 28 26 28 2z m-227 -37 c3 -20
22 -59 43 -87 30 -43 37 -63 42 -113 3 -38 0 -65 -6 -69 -6 -3 -35 16 -64 43
-72 66 -85 106 -62 193 8 35 18 66 21 71 9 14 20 -3 26 -38z m2713 -24 c33
-20 74 -88 74 -122 0 -17 -3 -18 -20 -9 -11 6 -43 15 -72 20 -47 9 -98 41 -98
61 0 11 42 55 60 62 23 8 23 8 56 -12z m136 -40 c26 -30 54 -89 46 -96 -2 -2
-21 -11 -41 -20 -42 -17 -38 -22 -57 66 -18 83 6 106 52 50z m-255 -54 c16
-16 16 -19 -15 -50 l-32 -32 -37 20 c-21 11 -46 35 -56 53 l-19 33 71 -4 c50
-2 76 -8 88 -20z m113 -37 c61 0 120 -85 120 -171 l0 -22 -23 21 c-12 11 -43
30 -68 41 -57 25 -64 34 -77 91 l-10 45 -1 -47 c-1 -42 -4 -48 -26 -54 -18 -4
-32 -1 -46 12 -19 17 -19 18 8 47 31 33 61 48 81 41 8 -2 27 -4 42 -4z m-2756
-29 c9 -16 37 -47 64 -70 37 -30 52 -52 62 -85 22 -81 13 -84 -65 -24 -59 45
-73 62 -89 106 -28 78 -5 138 28 73z m2849 -168 c11 -13 20 -44 24 -89 l6 -69
-39 36 c-22 20 -49 42 -62 48 -33 17 -62 70 -62 114 l0 37 58 -29 c31 -16 65
-38 75 -48z m-2788 -38 c78 -55 98 -88 89 -145 -4 -23 -9 -39 -13 -37 -3 1
-26 12 -51 24 -94 43 -153 152 -124 228 6 14 8 14 20 -4 8 -10 43 -40 79 -66z
m2753 -89 c42 -37 55 -73 47 -131 l-6 -53 -65 69 c-53 57 -64 74 -64 103 0 19
3 42 6 51 6 14 9 14 33 -1 14 -9 37 -26 49 -38z m-2733 -89 c50 -26 91 -73 97
-114 4 -27 4 -27 -55 -18 -28 4 -61 18 -78 32 -34 29 -69 103 -69 146 l0 31
28 -26 c15 -14 50 -37 77 -51z m2699 -46 c44 -45 48 -53 48 -95 -1 -25 -6 -55
-13 -67 -10 -20 -14 -17 -60 46 -48 67 -60 106 -43 149 9 24 15 21 68 -33z
m-2657 -107 c32 -5 57 -17 80 -38 32 -30 72 -106 55 -106 -4 0 -33 9 -65 20
-31 11 -63 20 -70 20 -36 0 -117 97 -117 139 0 20 1 19 36 -4 19 -13 56 -27
81 -31z m2663 -133 c-1 -25 -7 -57 -14 -70 -14 -25 -14 -25 -40 27 -15 29 -30
52 -35 52 -16 0 -29 48 -24 86 9 69 21 70 69 8 38 -48 44 -63 44 -103z m-2626
-2 c52 -16 106 -39 120 -50 24 -19 64 -104 53 -115 -3 -3 -22 -1 -44 5 -21 6
-58 11 -81 11 -73 0 -126 53 -142 143 -4 20 -6 37 -4 37 1 0 45 -14 98 -31z
m2556 -64 c25 -53 10 -127 -29 -152 -17 -10 -20 -9 -26 14 -3 14 -16 40 -29
57 -13 17 -26 39 -29 48 -7 21 7 72 29 106 l17 26 24 -30 c14 -16 33 -47 43
-69z m-102 -94 c35 -53 41 -102 21 -162 -7 -19 -13 -36 -15 -37 -3 -4 -75 74
-87 94 -12 20 25 154 43 154 3 0 21 -22 38 -49z m-2378 -17 c54 -5 76 -12 101
-33 28 -24 33 -35 37 -86 4 -54 3 -58 -11 -43 -9 8 -33 19 -54 22 -96 17 -130
45 -164 133 -8 21 -7 24 7 19 8 -3 47 -9 84 -12z m2327 -157 c31 -35 33 -41
33 -111 0 -82 -11 -102 -34 -59 -8 15 -28 41 -45 57 -53 51 -61 106 -24 165
15 23 16 23 26 5 5 -10 25 -36 44 -57z m-2250 -7 c55 -14 83 -53 90 -125 6
-59 -2 -68 -32 -35 -9 10 -40 27 -69 36 -28 9 -57 21 -64 27 -19 15 -39 57
-47 99 l-7 36 44 -13 c23 -8 62 -19 85 -25z m2181 -111 c56 -63 71 -96 71
-164 0 -58 0 -59 -15 -35 -9 14 -34 39 -56 55 -42 31 -68 71 -68 103 0 21 19
82 26 82 2 0 21 -19 42 -41z m-2182 -40 c45 -17 59 -27 70 -55 16 -38 11 -99
-13 -151 -16 -34 -33 -44 -33 -19 0 7 -13 30 -30 51 -16 21 -34 54 -40 74 -14
54 -23 121 -17 121 4 0 32 -9 63 -21z m2162 -116 c65 -61 94 -118 108 -214 l6
-44 -21 30 c-11 16 -49 56 -85 90 -48 45 -67 70 -75 102 -9 33 -7 93 3 93 1 0
30 -26 64 -57z m-2148 -130 c9 -25 9 -42 0 -67 -12 -37 -46 -86 -59 -86 -11 0
-51 106 -51 134 0 12 7 46 16 75 l15 53 34 -39 c19 -21 39 -53 45 -70z m2268
-192 c35 -61 66 -128 69 -148 l6 -38 -29 28 c-16 15 -62 52 -102 83 -42 32
-80 71 -91 92 -23 45 -36 122 -27 158 l7 26 52 -45 c38 -32 69 -75 115 -156z
m-2369 74 c17 -48 22 -76 17 -108 -7 -44 -39 -107 -54 -107 -12 0 -62 111 -62
136 0 24 56 144 68 144 4 0 19 -29 31 -65z m-89 -165 c37 -74 40 -139 8 -205
-12 -25 -25 -45 -28 -45 -3 0 -21 25 -39 55 -30 50 -33 61 -28 108 5 48 40
147 52 147 2 0 18 -27 35 -60z m2417 -21 c104 -78 174 -169 191 -247 12 -51 2
-53 -33 -8 -14 18 -53 53 -88 76 -112 78 -125 96 -142 193 -3 20 -4 37 -1 37
3 0 36 -23 73 -51z m-2520 -136 c3 -10 19 -36 35 -58 32 -46 50 -129 41 -194
-3 -22 -8 -41 -10 -41 -3 0 -28 19 -55 42 -64 53 -78 86 -68 158 13 89 41 135
57 93z m2588 -63 c53 -36 117 -108 140 -157 20 -41 33 -173 18 -173 -5 0 -16
13 -26 29 -9 16 -45 53 -79 82 -36 32 -69 71 -79 95 -19 43 -37 154 -25 154 4
0 27 -13 51 -30z m-2592 -203 c70 -68 87 -97 87 -153 0 -38 -6 -40 -65 -21
-66 21 -81 34 -95 81 -10 38 -7 156 4 156 1 0 33 -29 69 -63z m2670 -65 c24
-27 52 -63 61 -80 21 -41 20 -107 -3 -158 -24 -53 -41 -64 -41 -27 0 51 -21
105 -52 133 -33 30 -52 94 -42 138 14 56 19 55 77 -6z m-2648 -131 c74 -18
135 -84 135 -145 0 -22 -6 -26 -44 -31 -53 -8 -91 9 -134 61 -36 43 -66 118
-58 140 5 14 9 14 29 2 12 -8 45 -20 72 -27z m2612 -25 c25 -21 28 -32 31 -97
4 -70 2 -77 -27 -116 -36 -50 -51 -54 -51 -14 0 16 -7 45 -15 64 -8 20 -15 52
-15 71 0 39 27 116 41 116 4 0 20 -11 36 -24z m-2333 -35 c15 -13 46 -69 46
-84 0 -11 -112 -16 -134 -6 -41 19 -41 43 -1 83 37 37 52 38 89 7z m2136 23
c0 -3 -7 -12 -15 -20 -19 -19 -19 -66 -1 -102 7 -15 16 -36 20 -48 6 -21 6
-21 -46 -8 -29 8 -60 14 -70 14 -10 0 -23 11 -30 25 -21 47 28 113 100 135 35
11 42 11 42 4z m105 -36 c-9 -39 -54 -98 -76 -98 -17 0 -39 39 -39 70 0 27 47
60 87 60 34 0 34 -1 28 -32z m-2605 -11 c0 -7 20 -33 45 -57 34 -33 43 -49 39
-65 -4 -11 -8 -21 -9 -23 -2 -2 -26 12 -54 30 -55 36 -70 65 -52 104 11 26 31
33 31 11z m2839 -73 c23 -29 31 -78 9 -56 -7 7 -21 12 -32 12 -40 0 -50 15
-31 44 22 33 28 33 54 0z m-224 -34 c16 -49 14 -103 -6 -115 -15 -10 -58 48
-59 78 0 31 25 87 39 87 5 0 17 -22 26 -50z m-2573 -45 c43 -27 68 -59 68 -87
0 -7 -20 -9 -62 -5 -73 6 -93 24 -103 92 -9 57 0 72 29 47 11 -10 42 -32 68
-47z m410 33 c52 -56 63 -117 29 -159 l-19 -24 -24 21 c-12 12 -40 27 -61 34
-44 14 -65 42 -74 96 -4 22 -12 44 -20 49 -9 7 10 11 63 13 74 3 76 2 106 -30z
m-190 5 c19 -23 38 -91 31 -109 -3 -9 -20 -14 -44 -14 -32 0 -46 7 -78 40 -21
22 -41 49 -44 60 -4 17 0 20 26 21 18 1 43 5 57 9 36 12 36 12 52 -7z m2538
-21 c14 -2 34 -12 44 -21 23 -20 55 -88 56 -118 0 -20 -1 -20 -30 7 -16 15
-42 30 -57 33 -15 3 -42 20 -60 37 -29 27 -31 33 -21 56 8 17 16 23 27 18 9
-4 27 -9 41 -12z m-2631 -86 c17 -17 31 -35 31 -41 0 -7 9 -20 19 -29 16 -15
18 -22 9 -42 l-12 -25 -11 29 c-7 15 -26 40 -44 54 -17 15 -31 33 -31 40 0 7
-9 26 -19 42 -11 16 -17 35 -14 43 4 10 10 6 23 -14 10 -15 32 -41 49 -57z
m2286 68 c72 -18 109 -51 126 -109 13 -44 34 -54 23 -11 -4 17 1 25 23 36 15
8 40 25 55 39 l28 24 22 -29 c18 -22 22 -39 20 -74 -2 -26 4 -65 13 -90 41
-109 45 -137 29 -190 -12 -41 -22 -54 -58 -75 -23 -14 -54 -25 -68 -25 -25 0
-25 0 -12 38 7 20 13 47 14 60 0 27 33 93 67 139 15 19 20 34 14 38 -9 5 -91
-107 -91 -125 0 -3 -22 -13 -50 -22 l-50 -16 6 26 c4 15 16 37 27 49 26 29 25
107 -1 143 -23 32 -78 60 -117 60 -50 1 -95 53 -95 111 0 23 0 23 75 3z m-91
-29 c4 -19 17 -47 29 -62 l22 -28 -27 -26 -27 -26 -24 26 c-53 56 -58 86 -22
125 32 35 41 33 49 -9z m-2029 -69 c11 -7 31 -17 45 -21 62 -18 76 -60 35
-101 -13 -13 -24 -28 -23 -32 1 -4 -5 -8 -13 -10 -8 -1 -20 10 -27 25 -7 15
-24 47 -37 71 -12 23 -21 51 -18 62 6 24 12 25 38 6z m253 2 c18 -18 15 -25
-15 -31 -16 -3 -45 -17 -65 -31 -36 -24 -54 -22 -24 3 8 6 19 25 26 41 9 23
19 30 39 30 15 0 32 -5 39 -12z m2270 -30 c30 -26 43 -74 32 -124 -12 -55 -33
-106 -55 -137 -16 -21 -16 -21 -10 14 5 24 0 54 -15 95 -34 96 -43 132 -36
158 5 22 9 24 37 16 17 -5 38 -15 47 -22z m-2726 0 c30 -11 58 -48 58 -76 0
-19 -26 -36 -69 -46 -49 -11 -125 52 -146 121 -6 22 -5 22 62 17 37 -3 80 -10
95 -16z m135 14 c8 -5 9 -13 3 -22 -8 -13 -13 -11 -32 8 -21 21 -22 22 -3 22
11 0 25 -4 32 -8z m2023 -1 c0 -4 13 -25 29 -45 19 -24 32 -56 40 -98 6 -34 9
-63 8 -64 -2 -2 -26 7 -54 21 -55 25 -68 46 -65 105 3 41 21 90 33 90 5 0 9
-4 9 -9z m145 -55 c-2 -25 -10 -55 -19 -67 -9 -13 -16 -29 -16 -37 0 -7 -4
-10 -10 -7 -5 3 -10 27 -10 53 0 36 6 52 27 74 15 15 28 28 29 28 1 0 1 -20
-1 -44z m128 -6 c21 -23 27 -40 27 -74 0 -24 -6 -48 -12 -53 -17 -13 -99 35
-115 68 -14 27 -17 82 -5 93 15 16 77 -4 105 -34z m-1898 -1 c42 -37 48 -63
10 -49 -16 6 -42 4 -81 -6 -56 -14 -78 -13 -121 8 -20 10 -16 13 45 44 37 19
77 34 89 34 12 0 38 -14 58 -31z m-361 -22 l26 -37 -30 15 c-16 8 -36 15 -45
15 -8 0 -15 3 -15 7 0 8 32 44 36 40 2 -1 14 -19 28 -40z m-3 -44 c38 -23 36
-42 -8 -75 -45 -34 -70 -35 -133 -3 -61 31 -68 42 -32 49 15 4 41 15 57 26 37
24 78 25 116 3z m219 -16 c48 -13 70 -24 70 -36 0 -11 -100 4 -135 19 -39 18
-38 17 -30 30 4 7 16 9 29 5 11 -4 41 -12 66 -18z m189 -12 c16 -15 25 -38 28
-71 l6 -49 -24 21 c-13 12 -38 29 -56 38 -39 20 -81 74 -61 80 7 3 20 7 28 9
23 8 53 -3 79 -28z m1758 5 c14 -17 38 -37 54 -46 33 -16 39 -53 14 -74 -13
-11 -20 -10 -41 1 -65 34 -88 80 -68 133 8 22 11 21 41 -14z m-804 4 c3 -4
-12 -33 -34 -66 -32 -46 -53 -65 -92 -84 -65 -30 -81 -31 -67 -5 5 11 10 29
10 40 0 41 32 90 69 105 37 15 103 21 114 10z m132 -16 c14 -6 25 -14 25 -18
0 -17 -82 -80 -103 -80 -12 0 -39 -3 -61 -7 l-38 -6 27 44 c15 24 34 52 43 62
17 20 69 23 107 5z m-1332 -20 c16 -8 15 -12 -14 -49 -17 -22 -39 -44 -49 -49
-28 -15 -98 -12 -125 6 l-24 16 47 36 c83 63 108 69 165 40z m535 -2 c22 -21
-20 -93 -62 -104 -29 -9 -126 -5 -126 4 0 2 14 24 31 50 46 68 116 90 157 50z
m475 -6 c-5 -29 -21 -95 -27 -111 -10 -24 -64 -48 -118 -52 l-48 -4 40 43 c22
24 40 50 40 57 0 20 39 67 64 77 29 12 51 7 49 -10z m492 -13 c18 -9 16 -13
-28 -52 -51 -47 -89 -58 -148 -43 l-37 10 43 44 c58 61 107 73 170 41z m386
-18 c63 -20 159 -74 159 -88 0 -18 -43 -44 -70 -44 -42 0 -108 48 -147 107
-35 50 -43 77 -19 57 7 -6 42 -21 77 -32z m-1752 12 c23 -6 22 -8 -26 -59 -47
-49 -52 -52 -99 -52 -28 0 -53 3 -57 6 -3 4 15 31 40 60 41 47 51 54 82 53 20
-1 47 -4 60 -8z m534 -2 c55 -15 58 -35 9 -81 -37 -34 -46 -38 -95 -38 -31 0
-61 6 -73 15 -10 8 -13 15 -7 15 7 0 20 15 29 33 35 69 58 78 137 56z m956
-20 c17 -6 31 -14 31 -19 0 -15 -99 -99 -125 -106 -17 -4 -50 0 -83 11 l-56
17 34 14 c18 8 53 32 76 54 46 42 69 48 123 29z m-1854 -39 c11 -10 35 -25 54
-33 l34 -14 -35 -12 c-20 -7 -48 -9 -63 -5 -28 7 -65 56 -65 86 0 15 4 16 28
7 15 -6 36 -19 47 -29z m445 25 c16 -8 34 -24 40 -36 17 -31 -16 -88 -74 -127
-54 -36 -67 -36 -42 0 9 13 16 42 16 69 0 59 10 109 22 109 5 0 22 -7 38 -15z
m647 -11 c7 -19 -41 -72 -84 -90 -37 -16 -109 -19 -118 -5 -6 10 58 80 91 99
30 18 103 15 111 -4z m903 -19 c29 -35 -53 -105 -123 -105 -64 0 -67 15 -12
70 41 42 55 50 86 50 20 0 42 -7 49 -15z m-1630 -15 c0 -11 -7 -20 -15 -20
-13 0 -13 3 -3 20 7 11 14 20 15 20 2 0 3 -9 3 -20z m1730 -25 l44 -44 -37
-16 c-38 -15 -84 -19 -111 -9 -13 5 -12 11 8 42 12 21 25 45 29 55 9 25 18 22
67 -28z m315 2 c-12 -58 -15 -65 -43 -76 -53 -21 -83 -23 -127 -11 -48 14 -60
30 -21 30 13 0 45 17 71 39 45 37 101 63 118 53 5 -2 5 -18 2 -35z m-2238 -41
c24 -21 26 -26 13 -41 -41 -50 -130 -57 -176 -14 -32 30 -32 58 -1 52 13 -3
39 2 58 10 49 22 74 20 106 -7z m190 18 c-3 -3 -12 -4 -19 -1 -8 3 -5 6 6 6
11 1 17 -2 13 -5z m-135 -16 c-9 -9 -15 -9 -24 0 -9 9 -7 12 12 12 19 0 21 -3
12 -12z m130 -15 c15 -8 -23 -63 -53 -79 -17 -8 -56 -16 -86 -16 -62 -1 -90
16 -52 31 13 5 35 21 49 36 14 15 34 31 45 35 18 8 79 3 97 -7z"/>
</g>
</svg>
